<svg width="131" height="156" viewBox="0 0 131 156" fill="none" xmlns="http://www.w3.org/2000/svg">
<g clip-path="url(#clip0_250_1312)">
<path d="M3.82683 39.0521C27.5401 38.175 51.4051 45.2953 68.1721 62.7844C76.9978 71.9986 83.3726 83.428 86.7131 95.7511C89.943 107.709 88.5256 119.422 89.5383 131.519C89.9383 136.244 96.2734 135.515 97.8224 132.089C108.95 107.176 93.3463 72.0336 75.0168 54.6871C56.091 36.7956 29.147 28.025 3.46006 33.1675C0.27726 33.8081 0.346981 39.1863 3.81735 39.0801L3.82683 39.0521Z" fill="#FFC079"/>
<path d="M114.723 97.8597C111.134 103.811 106.917 109.722 102.609 115.212C98.4992 120.44 92.5599 124.707 89.8953 130.831C88.034 135.087 93.2189 138.543 96.8829 136.941C103.199 134.191 107.601 126.485 110.984 120.73C114.904 114.078 117.281 107.467 119.091 99.9928C119.701 97.4515 116.259 95.3038 114.723 97.8597Z" fill="#FFC079"/>
<path d="M63.1671 107.771C70.8082 118.364 81.0867 126.883 90.7566 135.54C97.6131 141.668 106.289 131.895 99.067 125.924C88.8166 117.415 77.9951 109.024 65.3327 104.507C63.2597 103.759 62.0421 106.251 63.1576 107.799L63.1671 107.771Z" fill="#FFC079"/>
<path d="M35.3918 51.6984C53.0495 60.2315 68.4812 68.7922 75.315 88.5102C75.8137 89.9434 78.3146 89.1033 77.8534 87.6516C71.9994 68.4524 55.8588 53.1265 35.6886 50.1285C34.7072 49.9838 34.6264 51.3303 35.3825 51.6797L35.3918 51.6984Z" fill="#FFC079"/>
<path d="M78.0217 96.4813C78.1056 96.5565 78.1987 96.6504 78.2825 96.7256C78.9998 97.3742 80.1693 97.2858 80.5292 96.2679C80.8891 95.2501 79.9854 94.4604 79.0217 94.5403C78.9094 94.5492 78.7784 94.5673 78.6661 94.5762C77.8147 94.6472 77.3975 95.9267 78.0217 96.4813Z" fill="#FFC079"/>
</g>
<defs>
<clipPath id="clip0_250_1312">
<rect width="134.996" height="78.425" fill="white" transform="translate(70.3008) rotate(63.6886)"/>
</clipPath>
</defs>
</svg>
