<svg width="155" height="35" viewBox="0 0 155 35" fill="none" xmlns="http://www.w3.org/2000/svg">
<g clip-path="url(#clip0_643_809)">
<path d="M23.3 25.8002L22.6 25.0002L21.8 25.6002C21.1 26.1002 20.2 26.6002 19.2 27.1002C18.2 27.6002 16.9 27.8002 15.4 27.8002C12.9 27.8002 11 27.0002 9.5 25.3002C8 23.5002 7.3 21.0002 7.3 17.7002C7.3 16.0002 7.5 14.4002 7.9 13.1002C8.3 11.8002 8.9 10.7002 9.6 9.8002C10.3 8.9002 11.1 8.2002 12 7.8002C12.9 7.3002 13.9 7.1002 14.9 7.1002C15.6 7.1002 16.2 7.1002 16.8 7.2002C17.4 7.3002 17.9 7.3002 18.4 7.4002C18.9 7.5002 19.3 7.5002 19.7 7.6002C20.2 7.7002 20.7 7.7002 21.2 7.7002C22.4 7.7002 23.3 7.1002 23.7 6.0002C24 5.2002 24.2 3.9002 24.2 2.0002V1.0002H23.2C22.6 1.0002 22.1 1.0002 21.5 1.0002C20.9 0.900195 20.3 0.900195 19.7 0.900195C19.1 0.800195 18.4 0.800195 17.7 0.800195C17 0.700195 16.1 0.700195 15.2 0.700195C12.7 0.700195 10.5 1.2002 8.6 2.2002C6.7 3.1002 5.1 4.4002 3.8 6.0002C2.6 7.6002 1.6 9.5002 0.9 11.7002C0.3 13.8002 0 15.9002 0 18.2002C0 20.9002 0.4 23.2002 1.2 25.3002C2 27.3002 3.1 29.0002 4.5 30.4002C5.9 31.8002 7.5 32.8002 9.4 33.5002C11.2 34.2002 13.2 34.5002 15.3 34.5002C16.4 34.5002 17.5 34.4002 18.5 34.2002C19.6 34.0002 20.5 33.7002 21.4 33.4002C22.3 33.0002 23 32.6002 23.6 32.1002C24.5 31.3002 24.7 30.5002 24.7 29.9002C24.7 29.3002 24.6 28.6002 24.3 27.9002C24.1 27.1002 23.7 26.4002 23.3 25.8002Z" fill="#E2211C"/>
<path d="M50 6.5C50.3 6 50.5 5.3 50.5 4.4C50.5 4.1 50.5 3.7 50.5 3.3C50.5 2.9 50.4 2.6 50.4 2.3L50.2 0L49 0.4C48 0.7 46.7 0.9 45 1C43.2 1.1 41.1 1.1 38.5 1.1H35.8L33 1C32.1 1 31.1 1 30.2 1C29.3 1 28.5 1 27.7 1C26.7 1 26 1.3 25.5 1.8C25.1 2.3 24.9 2.9 24.9 3.7V4.6L25.3 7L26.1 7.1C26.6 7.2 27.1 7.2 27.8 7.3C28.5 7.4 29.2 7.4 30.1 7.5L34.3 7.6C34.3 9 34.3 10.5 34.2 12.1L34 24.1C34 26 34 27.7 34 29.2C34 29.8 34 30.4 34 31C34.1 31.6 34.2 32.1 34.3 32.4V32.5C34.5 33 34.9 33.4 35.3 33.7L35.4 33.8C35.8 34 36.5 34.1 37.3 34.1C37.7 34.1 38.3 34.1 38.9 34C39.6 34 40.2 33.9 40.8 33.7L41.7 33.5L41.6 32.6C41.5 32.3 41.5 31.9 41.4 31.5C41.3 31.2 41.3 30.9 41.3 30.5C41.3 30.1 41.3 29.8 41.3 29.4C41.3 28.8 41.3 28.1 41.3 27.3C41.3 26.4 41.3 25.5 41.3 24.7V20.2C41.3 18.2 41.3 16 41.3 13.7C41.3 11.7 41.3 9.8 41.3 7.8H44.5C45.2 7.8 45.8 7.7 46.4 7.7C47 7.7 47.5 7.6 47.9 7.6C48.9 7.4 49.7 7.1 50 6.5Z" fill="#E2211C"/>
<path d="M76.9 27.2002L75.7 27.4002C75.6 27.4002 75.5 27.4002 75.3 27.4002C74.8 27.4002 74.4 27.2002 74.1 26.7002C73.6 26.0002 73.2 25.1002 72.8 23.8002C72.2 22.0002 71.7 20.0002 71.1 18.1002C70.6 16.2002 70.1 14.3002 69.7 12.6002C69.3 10.9002 68.8 9.3002 68.5 7.9002C68.1 6.4002 67.8 5.2002 67.5 4.3002C67.3 3.7002 67 3.1002 66.9 2.7002C66.7 2.2002 66.4 1.8002 66 1.5002C65.7 1.2002 65.2 1.0002 64.8 0.900195C64.4 0.800195 63.9 0.700195 63.2 0.700195C62.7 0.700195 62.1 0.700195 61.5 0.800195C61 0.900195 60.4 0.900195 59.9 1.0002L57.6 1.5002L57.4 2.1002C57.1 3.4002 56.6 4.8002 56.1 6.4002C55.5 8.0002 54.9 9.6002 54.2 11.3002C53.5 13.0002 52.8 14.7002 52 16.5002C51.2 18.2002 50.5 19.9002 49.8 21.6002C49.2 23.2002 48.6 24.7002 48 26.2002C47.5 27.6002 47.1 28.9002 46.9 29.9002C46.6 31.4002 46.6 32.3002 47 32.9002C47.4 33.5002 48.1 33.8002 49.2 33.8002C49.8 33.8002 50.4 33.8002 50.8 33.8002C51.3 33.8002 51.7 33.7002 52.1 33.7002C52.5 33.6002 52.9 33.6002 53.2 33.5002L54 33.4002V32.6002C54 31.4002 54.1 30.2002 54.3 29.0002C54.5 28.0002 54.8 26.8002 55.2 25.5002C55.6 25.5002 56.1 25.5002 56.6 25.6002C57.5 25.6002 58.5 25.6002 59.5 25.6002H61.7C62.5 25.6002 63.2 25.5002 63.8 25.5002C64.5 25.5002 65 25.4002 65.5 25.4002C65.6 25.4002 65.7 25.4002 65.8 25.4002C65.9 25.9002 66.1 26.3002 66.2 26.8002L66.9 28.8002C67.2 29.8002 67.6 30.6002 67.9 31.3002C68.3 32.0002 68.7 32.5002 69.2 33.0002C69.7 33.4002 70.3 33.6002 70.8 33.8002C71.3 33.9002 72 34.0002 72.6 34.0002C74.1 34.0002 75.1 33.7002 75.8 33.0002C76.4 32.3002 76.7 31.5002 76.7 30.4002C76.7 30.1002 76.7 29.8002 76.7 29.5002V27.2002H76.9ZM64.5 19.7002C64.2 19.7002 63.9 19.7002 63.6 19.8002C62.7 19.8002 61.8 19.8002 60.8 19.8002H58C57.8 19.8002 57.6 19.8002 57.3 19.8002C57.6 19.1002 57.9 18.4002 58.2 17.7002C58.7 16.5002 59.3 15.3002 59.8 14.0002C60.3 12.8002 60.8 11.6002 61.3 10.5002C61.5 10.2002 61.6 9.8002 61.8 9.5002C62.3 10.9002 62.7 12.3002 63 13.7002C63.5 15.6002 64 17.6002 64.5 19.7002Z" fill="#E2211C"/>
<path d="M97.9 2.3L97.7 0L96.5 0.4C95.6 0.7 94.2 0.9 92.6 1C90.8 1.1 88.7 1.1 86.1 1.1H83.4L80.6 1C79.7 1 78.7 1 77.8 1C76.9 1 76.1 1 75.3 1C74.3 1 73.6 1.3 73.1 1.8C72.7 2.3 72.5 2.9 72.5 3.7V4.6L72.8 7L73.6 7.1C74.1 7.2 74.6 7.2 75.3 7.3C76 7.4 76.7 7.4 77.6 7.5L81.8 7.6C81.8 9 81.8 10.5 81.7 12.1L81.5 24.1C81.5 26 81.5 27.7 81.5 29.2C81.5 29.8 81.5 30.4 81.5 31C81.6 31.6 81.7 32.1 81.8 32.4V32.5C82 33 82.4 33.4 82.8 33.7L82.9 33.8C83.3 34 84 34.1 84.8 34.1C85.2 34.1 85.8 34.1 86.4 34C87.1 34 87.7 33.9 88.3 33.7L89.1 33.5L89 32.5C88.9 32.2 88.9 31.8 88.8 31.4C88.7 31.1 88.7 30.8 88.7 30.4C88.7 30 88.7 29.7 88.7 29.3C88.7 28.7 88.7 28 88.7 27.2C88.7 26.3 88.7 25.4 88.7 24.6V20.1C88.7 18.1 88.7 15.9 88.7 13.6C88.7 11.6 88.7 9.7 88.7 7.7H91.9C92.6 7.7 93.2 7.6 93.8 7.6C94.4 7.6 94.9 7.5 95.3 7.5C96 7.4 97.1 7.2 97.6 6.4C97.9 5.9 98 5.2 98 4.4C98 4.1 98 3.7 98 3.3C98 2.9 97.9 2.6 97.9 2.3Z" fill="#E2211C"/>
<path d="M121.1 15.1002C120.1 14.3002 118.9 13.6002 117.6 13.2002C116.3 12.8002 114.8 12.6002 113.3 12.6002C112 12.6002 110.8 12.7002 109.7 12.9002C109.1 13.0002 108.5 13.1002 107.9 13.2002C107.9 11.5002 107.9 9.90015 107.9 8.60015C107.9 6.90015 107.9 5.40015 107.8 4.10015C107.8 3.60015 107.7 3.30015 107.7 3.00015C107.7 2.50015 107.5 2.10015 107.3 1.80015C107.1 1.40015 106.8 1.20015 106.4 1.00015C105.7 0.600154 104.4 0.700154 103 1.00015C102.2 1.10015 101.3 1.30015 100.4 1.60015L99.4 1.90015L99.7 2.90015C99.8 3.30015 99.9 3.70015 100 4.00015V4.10015C100.1 4.40015 100.2 4.70015 100.2 5.00015C100.3 5.40015 100.3 5.70015 100.4 6.20015C100.5 6.60015 100.5 7.10015 100.6 7.70015C100.7 8.40015 100.7 9.10015 100.8 9.80015C100.9 10.6002 100.9 11.4002 100.9 12.2002C100.9 13.0002 100.9 13.9002 100.9 14.8002C100.9 15.6002 100.9 16.4002 100.9 17.2002C100.9 19.5002 100.8 21.9002 100.7 24.5002C100.6 27.0002 100.5 29.4002 100.3 31.7002V32.4002L101 32.7002C101.8 33.0002 102.7 33.2002 103.6 33.4002C104.4 33.6002 105.4 33.7002 106.5 33.9002C107.6 34.0002 108.9 34.1002 110.3 34.1002C112.3 34.1002 114.1 33.9002 115.7 33.5002C117.4 33.1002 118.9 32.4002 120.1 31.5002C121.3 30.6002 122.3 29.3002 123 27.9002C123.7 26.5002 124 24.7002 124 22.7002C124 21.0002 123.7 19.6002 123.2 18.3002C123 17.0002 122.2 15.9002 121.1 15.1002ZM117.1 23.1002C117.1 23.9002 117 24.7002 116.7 25.3002C116.4 25.9002 116 26.3002 115.5 26.7002C115 27.1002 114.4 27.4002 113.6 27.6002C112.8 27.8002 111.9 27.9002 111 27.9002C110.3 27.9002 109.7 27.9002 109.2 27.8002C108.7 27.7002 108.3 27.7002 107.9 27.6002C107.8 27.6002 107.7 27.6002 107.6 27.5002C107.7 26.7002 107.7 26.0002 107.8 25.2002C107.9 24.3002 107.9 23.2002 107.9 22.0002L108 19.3002C108.4 19.2002 108.9 19.1002 109.4 19.0002C110.2 18.8002 111.2 18.8002 112.3 18.8002C114 18.8002 115.2 19.2002 116 19.9002C116.7 20.6002 117.1 21.6002 117.1 23.1002Z" fill="#E2211C"/>
<path d="M154.2 32.3998C154.1 31.8998 154.1 31.2998 154.1 30.7998L154 29.3998C154 28.8998 154 28.4998 154 28.0998C153.9 26.2998 153.9 24.3998 153.9 22.2998V15.9998C153.9 14.9998 153.9 13.9998 153.9 12.7998L154 9.29983C154.1 8.09983 154.1 6.99983 154.1 5.99983C154.1 4.89983 154.1 4.09983 154.1 3.39983C154.1 2.49983 153.9 1.89983 153.5 1.49983C152.8 0.799831 151.5 0.799831 149.6 0.999831C148.8 1.09983 148.1 1.19983 147.5 1.29983L147.1 1.39983L146.9 1.69983C146 3.09983 144.9 4.59983 143.7 6.49983C142.5 8.29983 141.2 10.1998 139.9 12.2998C138.6 14.2998 137.3 16.3998 136 18.3998C135.5 19.2998 134.9 20.1998 134.4 20.9998C134.4 20.3998 134.4 19.6998 134.4 18.9998C134.4 18.2998 134.5 17.3998 134.5 16.3998L134.6 12.3998C134.6 10.9998 134.6 9.79983 134.6 8.59983C134.6 7.39983 134.6 6.29983 134.6 5.29983C134.6 4.29983 134.6 3.39983 134.6 2.79983C134.6 2.29983 134.4 0.899831 132.1 0.899831C131.4 0.899831 130.6 0.899831 130 0.999831C129.3 1.09983 128.5 1.19983 127.7 1.39983L127 1.59983L127.2 2.49983C127.3 2.99983 127.4 3.39983 127.4 3.79983C127.5 4.09983 127.5 4.49983 127.6 4.79983C127.7 5.19983 127.7 5.59983 127.7 5.99983C127.7 6.39983 127.7 6.89983 127.7 7.59983C127.7 8.79983 127.7 10.0998 127.7 11.5998V15.9998C127.7 17.4998 127.7 18.9998 127.7 20.4998C127.7 21.9998 127.7 23.3998 127.7 24.6998C127.7 25.9998 127.7 27.0998 127.7 28.1998V31.6998C127.7 32.0998 127.9 32.4998 128.1 32.8998C128.4 33.2998 128.7 33.4998 129.1 33.6998C129.8 33.9998 130.8 33.9998 132.2 33.8998C132.8 33.8998 133.5 33.7998 134 33.6998L134.5 33.5998L134.7 33.1998C135 32.6998 135.4 31.8998 135.9 30.8998C136.5 29.8998 137.2 28.6998 137.9 27.3998C138.7 26.0998 139.5 24.6998 140.4 23.0998C141.3 21.5998 142.3 19.9998 143.3 18.3998C144.3 16.7998 145.3 15.1998 146.3 13.6998C146.6 13.1998 146.9 12.6998 147.2 12.2998C147.2 13.2998 147.2 14.2998 147.2 15.2998C147.2 16.3998 147.2 17.3998 147.2 18.4998V21.1998L147.1 24.3998C147.1 25.3998 147.1 26.3998 147.1 27.2998C147.1 28.1998 147.1 28.9998 147.1 29.6998V31.2998C147.1 32.2998 147.4 32.9998 147.9 33.4998C148.4 33.8998 149.1 34.0998 150.1 34.0998C150.5 34.0998 151.1 34.0998 151.7 33.9998C152.4 33.8998 153.1 33.7998 153.8 33.4998L154.5 33.1998L154.2 32.3998Z" fill="#E2211C"/>
</g>
<defs>
<clipPath id="clip0_643_809">
<rect width="154.3" height="34.4" fill="white"/>
</clipPath>
</defs>
</svg>
