<svg width="247" height="56" viewBox="0 0 247 56" fill="none" xmlns="http://www.w3.org/2000/svg">
<path d="M37.7 41.3L36.5 39.7L34.9 41C33.9 41.8 32.5 42.6 30.8 43.4C29.2 44.1 27.2 44.5 24.9 44.5C21 44.5 18.1 43.2 15.9 40.6C13.6 37.9 12.4 33.9 12.4 28.7C12.4 26 12.7 23.5 13.4 21.5C14.1 19.5 15 17.7 16.1 16.4C17.2 15.1 18.4 14 19.8 13.3C21.2 12.6 22.7 12.3 24.2 12.3C25.3 12.3 26.2 12.4 27.2 12.5C28.1 12.6 28.9 12.7 29.5 12.8H29.6C30.3 12.9 31 13 31.6 13.1H31.8C32.6 13.2 33.4 13.3 34.2 13.3C36.3 13.3 37.9 12.2 38.6 10.3C39.1 8.89998 39.4 6.79998 39.4 3.69998V1.69998H37.4C36.5 1.69998 35.6 1.69998 34.8 1.59998C33.9 1.49998 32.9 1.39998 32 1.39998C31 1.29998 29.9 1.19998 28.8 1.19998C27.6 1.09998 26.3 1.09998 24.8 1.09998C20.8 1.09998 17.2 1.89998 14.1 3.59998C11.1 5.19998 8.5 7.29998 6.4 9.99998C4.4 12.6 2.8 15.7 1.8 19.1C0.5 22.4 0 25.9 0 29.5C0 33.8 0.6 37.6 1.9 41C3.2 44.2 5 47 7.3 49.2C9.5 51.4 12.2 53.1 15.2 54.2C18.2 55.3 21.4 55.8 24.8 55.8C26.5 55.8 28.3 55.6 30 55.3C31.7 55 33.3 54.6 34.7 54C36.2 53.4 37.4 52.7 38.3 51.8C39.7 50.5 40 49 40 48C40 47 39.8 45.9 39.4 44.7C39.1 43.4 38.5 42.3 37.7 41.3Z" fill="white"/>
<path d="M80.3999 11.1C80.9999 10.2 81.1999 9 81.1999 7.5C81.1999 6.9 81.1999 6.3 81.0999 5.7C80.9999 5.1 80.9999 4.6 80.9999 4.2C80.9999 3.7 80.8999 3.2 80.8999 2.6L80.5999 0L78.1999 0.8C76.7999 1.3 74.6999 1.6 72.0999 1.7C69.2999 1.8 65.7999 1.8 61.7999 1.8H57.4999L52.9999 1.7C51.4999 1.7 49.9999 1.6 48.5999 1.6C47.1999 1.6 45.8999 1.5 44.6999 1.5C42.9999 1.5 41.7999 2 40.9999 2.9C40.2999 3.7 39.8999 4.8 39.8999 6.3V7.6V7.8C39.8999 8.3 39.9999 8.7 39.9999 9.1C39.9999 9.6 40.0999 10.1 40.0999 10.6L40.2999 12.2L41.8999 12.4C42.5999 12.5 43.4999 12.6 44.6999 12.7C45.7999 12.8 46.9999 12.9 48.2999 13L54.5999 13.2C54.5999 15.3 54.4999 17.5 54.4999 19.9L54.1999 38.9C54.1999 41.9 54.0999 44.6 54.0999 47C54.0999 48 54.0999 49 54.1999 49.8V49.9C54.2999 50.9 54.4999 51.6 54.5999 52.2L54.6999 52.4C55.0999 53.3 55.6999 53.9 56.3999 54.4L56.5999 54.5C57.3999 54.9 58.3999 55.1 59.8999 55.1C60.5999 55.1 61.4999 55.1 62.3999 55C63.4999 54.9 64.5999 54.8 65.4999 54.5L67.1999 54L66.8999 52.3C66.7999 51.7 66.6999 51.2 66.5999 50.5C66.4999 50.1 66.4999 49.6 66.3999 49C66.3999 48.4 66.2999 47.9 66.2999 47.3C66.2999 46.4 66.2999 45.3 66.1999 43.9C66.1999 42.5 66.1999 41.1 66.0999 39.7V32.5C66.0999 29.3 66.0999 25.9 66.1999 22.2C66.1999 19.2 66.2999 16.2 66.2999 13.3H70.9999C72.0999 13.3 73.0999 13.2 73.9999 13.2C74.9999 13.2 75.6999 13.1 76.3999 13.1C78.3999 12.8 79.6999 12.1 80.3999 11.1Z" fill="white"/>
<path d="M123.2 43.3L120.8 43.8C120.8 43.8 120.6 43.8 120.3 43.8C119.8 43.8 119.2 43.7 118.7 42.8C118 41.8 117.3 40.3 116.7 38.4C115.8 35.4 114.9 32.4 114.1 29.4C113.3 26.3 112.6 23.4 111.9 20.7C111.2 17.9 110.5 15.4 109.9 13.2C109.3 10.8 108.8 8.89998 108.2 7.49998C107.8 6.49998 107.5 5.59998 107.2 4.99998C106.8 4.09998 106.3 3.49998 105.7 2.99998C105.1 2.49998 104.4 2.09998 103.5 1.89998C102.8 1.69998 102 1.59998 101 1.59998C100.1 1.59998 99.0999 1.69998 98.2999 1.79998C97.3999 1.89998 96.5999 1.99998 95.6999 2.19998L91.5999 2.99998L91.2999 4.19998C90.7999 6.19998 90.0999 8.39997 89.1999 10.9C88.2999 13.4 87.2999 16 86.0999 18.7C84.9999 21.4 83.7999 24.2 82.5999 26.9C81.3999 29.7 80.1999 32.4 79.0999 35C78.0999 37.6 77.0999 40 76.2999 42.3C75.4999 44.6 74.8999 46.6 74.5999 48.3C74.0999 50.8 74.1999 52.3 74.7999 53.4C75.4999 54.5 76.7999 55.1 78.6999 55.1C79.6999 55.1 80.5999 55.1 81.2999 55C82.0999 54.9 82.7999 54.9 83.3999 54.8C83.9999 54.7 84.5999 54.6 85.0999 54.5L86.6999 54.2V52.5C86.6999 50.6 86.8999 48.8 87.1999 46.9C87.4999 45.4 87.8999 43.6 88.4999 41.7C89.0999 41.7 89.6999 41.8 90.3999 41.8C91.7999 41.8 93.3999 41.9 95.0999 41.9H98.6999C99.8999 41.9 101 41.8 102 41.8C103 41.8 104 41.7 104.8 41.7C104.9 41.7 105 41.7 105 41.7C105.2 42.3 105.4 43 105.6 43.6L106.7 46.8C107.3 48.4 107.8 49.7 108.3 50.8C108.9 51.9 109.7 52.9 110.5 53.6C111.4 54.3 112.3 54.7 113.2 54.9C114.1 55.1 115.1 55.2 116.2 55.2C118.7 55.2 120.4 54.6 121.5 53.4C122.5 52.2 123.1 50.8 123.1 49.1C123.1 48.6 123.1 48.1 123 47.7V43.3H123.2ZM102.5 31.5C102.2 31.5 101.8 31.5 101.5 31.6C99.9999 31.6 98.5999 31.7 97.0999 31.7H92.6999C92.4999 31.7 92.3999 31.7 92.1999 31.7C92.5999 30.8 92.9999 29.8 93.3999 28.8C94.1999 26.8 95.0999 24.9 95.8999 23C96.6999 21 97.5999 19.2 98.2999 17.4C98.3999 17.2 98.4999 17 98.5999 16.8C99.1999 18.7 99.6999 20.5 100.2 22.4C100.9 25.3 101.7 28.3 102.5 31.5Z" fill="white"/>
<path d="M156.6 4.1C156.6 3.6 156.5 3.1 156.5 2.5L156.2 0L153.8 0.8C152.4 1.3 150.3 1.6 147.7 1.7C144.9 1.8 141.4 1.8 137.4 1.8H133.1L128.6 1.7C127.1 1.7 125.6 1.6 124.2 1.6C122.8 1.6 121.5 1.5 120.3 1.5C118.6 1.5 117.4 2 116.6 2.9C115.9 3.7 115.5 4.8 115.5 6.3V7.6V7.8C115.5 8.3 115.6 8.7 115.6 9.1C115.6 9.6 115.7 10.1 115.7 10.6L115.9 12.2L117.5 12.4C118.2 12.5 119.1 12.6 120.3 12.7C121.4 12.8 122.6 12.9 123.9 13L130.2 13.2C130.2 15.3 130.1 17.5 130.1 19.9L129.8 38.9C129.8 41.9 129.7 44.6 129.7 47C129.7 48 129.7 49 129.8 49.8V49.9C129.9 50.9 130.1 51.6 130.2 52.2L130.3 52.4C130.7 53.3 131.3 53.9 132 54.4L132.2 54.5C133 54.9 134 55.1 135.5 55.1C136.2 55.1 137.1 55.1 138 55C139.1 54.9 140.2 54.8 141.1 54.5L142.8 54L142.5 52.2C142.4 51.6 142.3 51.1 142.2 50.4C142.1 50 142.1 49.5 142 48.9C142 48.4 141.9 47.8 141.9 47.2C141.9 46.3 141.9 45.2 141.8 43.8C141.8 42.4 141.8 41 141.7 39.6V32.4C141.7 29.2 141.7 25.8 141.8 22.1C141.8 19.1 141.9 16.1 141.9 13.2H146.6C147.7 13.2 148.7 13.1 149.6 13.1C150.6 13.1 151.3 13 152 13C154 12.8 155.2 12.2 156 11C156.5 10.1 156.8 9 156.8 7.5C156.8 6.9 156.8 6.3 156.7 5.7C156.7 5.1 156.6 4.6 156.6 4.1Z" fill="white"/>
<path d="M193.4 24.2C191.8 22.8 189.9 21.8 187.7 21.1C185.6 20.4 183.2 20.1 180.7 20.1C178.6 20.1 176.7 20.3 174.9 20.5C174.1 20.6 173.3 20.8 172.5 20.9C172.5 18.3 172.5 16 172.4 14C172.4 11.3 172.4 8.90002 172.3 6.90002C172.3 6.20002 172.2 5.60002 172.2 5.10002C172.1 4.30002 171.9 3.60002 171.6 3.10002C171.3 2.50002 170.7 2.00002 170 1.70002C168.8 1.10002 166.8 1.20002 164.4 1.60002C163.1 1.80002 161.7 2.10002 160.3 2.50002L158.3 3.00002L158.9 5.00002C159.1 5.60002 159.2 6.20002 159.4 6.80002L159.5 7.00002C159.6 7.40002 159.7 7.80002 159.8 8.30002V8.40002C159.9 8.90002 160 9.50002 160.1 10.2V10.3C160.2 10.9 160.3 11.7 160.4 12.7C160.5 13.7 160.6 14.8 160.7 16.1C160.8 17.3 160.9 18.6 160.9 19.9C160.9 21.2 161 22.6 161 24C161 25.3 161.1 26.6 161.1 27.8C161.1 31.4 161 35.3 160.8 39.3C160.6 43.3 160.4 47.2 160.2 50.8L160.1 52.3L161.5 52.8C162.7 53.2 164.2 53.6 165.7 54C167 54.3 168.6 54.6 170.4 54.8C172.2 55 174.3 55.1 176.5 55.1C179.7 55.1 182.6 54.8 185.2 54.1C188 53.4 190.4 52.4 192.4 50.9C194.4 49.4 196 47.4 197.1 45C198.2 42.6 198.8 39.8 198.8 36.6C198.8 33.9 198.3 31.5 197.4 29.5C196.4 27.4 195.1 25.6 193.4 24.2ZM186.3 37.3C186.3 38.6 186.1 39.7 185.7 40.5C185.3 41.3 184.7 42 183.9 42.6C183.1 43.2 182.2 43.6 181.1 43.9C179.9 44.2 178.5 44.3 177 44.3C176 44.3 175 44.3 174.2 44.2C173.4 44.1 172.7 44 172.1 43.9H172C172.1 42.8 172.2 41.7 172.2 40.6C172.3 39.1 172.4 37.4 172.4 35.6L172.5 31.7C173.1 31.6 173.7 31.4 174.4 31.3C175.6 31 177.1 30.9 179 30.9C181.6 30.9 183.5 31.5 184.7 32.6C185.8 33.5 186.3 35.1 186.3 37.3Z" fill="white"/>
<path d="M246.2 52.1C246.1 51.2 246 50.4 246 49.6L245.9 47.4C245.9 46.7 245.8 46 245.8 45.4C245.7 42.6 245.7 39.5 245.7 36.2V26.1C245.7 24.6 245.7 22.9 245.8 21L245.9 15.4C246 13.5 246.1 11.8 246.1 10.1C246.1 8.4 246.2 7 246.2 5.9C246.2 4.4 245.8 3.3 245 2.5C244.3 1.8 243.2 1.5 241.8 1.5C240.9 1.5 239.8 1.6 238.6 1.7C237.4 1.8 236.2 1.9 235.2 2.1L234.4 2.3L233.8 3C232.4 5.2 230.7 7.7 228.8 10.6C226.9 13.5 224.9 16.6 222.8 19.8C220.8 23 218.7 26.2 216.6 29.6C216 30.5 215.5 31.5 214.9 32.4C214.9 31.8 214.9 31.3 214.9 30.7C214.9 29.5 215 28.1 215 26.5L215.1 20.2C215.1 18 215.2 16 215.2 14.2C215.2 12.3 215.3 10.5 215.3 9C215.3 7.4 215.4 6 215.4 5C215.4 4.4 215.2 1.5 210.9 1.5C209.7 1.5 208.5 1.6 207.5 1.7C206.4 1.8 205.1 2 203.7 2.4L201.9 2.9L202.2 4.7C202.3 5.4 202.5 6.1 202.5 6.6V6.8C202.6 7.3 202.7 7.8 202.8 8.4C202.9 8.9 202.9 9.6 203 10.3C203 10.9 203.1 11.8 203.1 12.8C203.1 14.7 203.1 16.8 203 19.2V26.3C203 28.7 203 31 202.9 33.4C202.9 35.8 202.8 38 202.8 40.2C202.8 42.2 202.8 44.1 202.7 45.7V51.1V51.3C202.8 52 203 52.7 203.3 53.3L203.4 53.5C203.8 54.1 204.4 54.6 205.2 54.9C206.3 55.4 207.9 55.5 210.3 55.2C211.3 55.1 212.3 55 213.2 54.8L214.1 54.6L214.5 53.7C214.9 52.9 215.5 51.6 216.4 50.1C217.3 48.5 218.4 46.6 219.6 44.5C220.8 42.4 222.2 40.1 223.6 37.7C225.1 35.2 226.6 32.7 228.2 30.2C229.8 27.7 231.3 25.2 232.9 22.7C233.1 22.3 233.4 22 233.6 21.6C233.6 22.7 233.6 23.8 233.5 25C233.5 26.7 233.5 28.4 233.4 30V34.4L233.3 39.5C233.3 41.1 233.3 42.6 233.2 44.1C233.2 45.5 233.2 46.8 233.1 47.9V50.5C233.1 52.2 233.5 53.5 234.5 54.3L234.6 54.4C235.5 55.1 236.6 55.4 238.4 55.4C239.1 55.4 240 55.4 241 55.3C242.1 55.2 243.3 54.9 244.5 54.5L246 54L246.2 52.1Z" fill="white"/>
</svg>
