<svg width="247" height="56" viewBox="0 0 247 56" fill="none" xmlns="http://www.w3.org/2000/svg">
<path d="M37.7 41.2996L36.5 39.6996L34.9 40.9996C33.9 41.7996 32.5 42.5996 30.8 43.3996C29.2 44.0996 27.2 44.4996 24.9 44.4996C21 44.4996 18.1 43.1996 15.9 40.5996C13.6 37.8996 12.4 33.8996 12.4 28.6996C12.4 25.9996 12.7 23.4996 13.4 21.4996C14.1 19.4996 15 17.6996 16.1 16.3996C17.2 15.0996 18.4 13.9996 19.8 13.2996C21.2 12.5996 22.7 12.2996 24.2 12.2996C25.3 12.2996 26.2 12.3996 27.2 12.4996C28.1 12.5996 28.9 12.6996 29.6 12.7996H29.7C30.4 12.8996 31.1 12.9996 31.7 13.0996H31.9C32.7 13.1996 33.5 13.2996 34.3 13.2996C36.4 13.2996 38 12.1996 38.7 10.2996C39.2 8.89961 39.5 6.79961 39.5 3.69961V1.69961H37.5C36.6 1.69961 35.7 1.69961 34.9 1.59961C34 1.49961 33 1.39961 32.1 1.39961C31.1 1.29961 30 1.19961 28.9 1.19961C27.7 1.09961 26.4 1.09961 24.9 1.09961C20.9 1.09961 17.3 1.89961 14.2 3.59961C11.2 5.19961 8.6 7.29961 6.5 9.99961C4.5 12.5996 2.9 15.6996 1.9 19.0996C0.5 22.3996 0 25.8996 0 29.4996C0 33.7996 0.6 37.5996 1.9 40.9996C3.2 44.1996 5 46.9996 7.3 49.1996C9.5 51.3996 12.2 53.0996 15.2 54.1996C18.2 55.2996 21.4 55.7996 24.8 55.7996C26.5 55.7996 28.3 55.5996 30 55.2996C31.7 54.9996 33.3 54.5996 34.7 53.9996C36.2 53.3996 37.4 52.6996 38.3 51.7996C39.7 50.4996 40 48.9996 40 47.9996C40 46.9996 39.8 45.8996 39.4 44.6996C39.1 43.3996 38.5 42.2996 37.7 41.2996Z" fill="#E2211C"/>
<path d="M80.3999 11.1C80.9999 10.2 81.1999 9 81.1999 7.5C81.1999 6.9 81.1999 6.3 81.0999 5.7C80.9999 5.1 80.9999 4.6 80.9999 4.2C80.9999 3.7 80.8999 3.2 80.8999 2.6L80.5999 0L78.1999 0.8C76.7999 1.3 74.6999 1.6 72.0999 1.7C69.2999 1.8 65.7999 1.8 61.7999 1.8H57.4999L52.9999 1.7C51.4999 1.7 49.9999 1.6 48.5999 1.6C47.1999 1.6 45.8999 1.5 44.6999 1.5C42.9999 1.5 41.7999 2 40.9999 2.9C40.2999 3.7 39.8999 4.8 39.8999 6.3V7.6V7.8C39.8999 8.3 39.9999 8.7 39.9999 9.1C39.9999 9.6 40.0999 10.1 40.0999 10.6L40.2999 12.2L41.8999 12.4C42.5999 12.5 43.4999 12.6 44.6999 12.7C45.7999 12.8 46.9999 12.9 48.2999 13L54.5999 13.2C54.5999 15.3 54.4999 17.5 54.4999 19.9L54.1999 38.9C54.1999 41.9 54.0999 44.6 54.0999 47C54.0999 48 54.0999 49 54.1999 49.8V49.9C54.2999 50.9 54.4999 51.6 54.5999 52.2L54.6999 52.4C55.0999 53.3 55.6999 53.9 56.3999 54.4L56.5999 54.5C57.3999 54.9 58.3999 55.1 59.8999 55.1C60.5999 55.1 61.4999 55.1 62.3999 55C63.4999 54.9 64.5999 54.8 65.4999 54.5L67.1999 54L66.8999 52.3C66.7999 51.7 66.6999 51.2 66.5999 50.5C66.4999 50.1 66.4999 49.6 66.3999 49C66.3999 48.4 66.2999 47.9 66.2999 47.3C66.2999 46.4 66.2999 45.3 66.1999 43.9C66.1999 42.5 66.1999 41.1 66.0999 39.7V32.5C66.0999 29.3 66.0999 25.9 66.1999 22.2C66.1999 19.2 66.2999 16.2 66.2999 13.3H70.9999C72.0999 13.3 73.0999 13.2 73.9999 13.2C74.9999 13.2 75.6999 13.1 76.3999 13.1C78.3999 12.8 79.6999 12.1 80.3999 11.1Z" fill="#E2211C"/>
<path d="M123.2 43.2996L120.8 43.7996C120.8 43.7996 120.6 43.7996 120.3 43.7996C119.8 43.7996 119.2 43.6996 118.7 42.7996C118 41.7996 117.3 40.2996 116.7 38.3996C115.8 35.4996 114.9 32.3996 114.1 29.3996C113.3 26.2996 112.6 23.3996 111.9 20.6996C111.2 17.8996 110.5 15.3996 109.9 13.1996C109.3 10.7996 108.8 8.89961 108.2 7.49961C107.8 6.49961 107.5 5.59961 107.2 4.99961C106.8 4.09961 106.3 3.49961 105.7 2.99961C105.1 2.49961 104.4 2.09961 103.5 1.89961C102.8 1.69961 102 1.59961 101 1.59961C100.1 1.59961 99.1999 1.69961 98.2999 1.79961C97.3999 1.89961 96.5999 1.99961 95.6999 2.19961L91.5999 2.99961L91.2999 4.19961C90.7999 6.19961 90.0999 8.39961 89.1999 10.8996C88.2999 13.3996 87.2999 15.9996 86.0999 18.6996C84.9999 21.3996 83.7999 24.1996 82.5999 26.8996C81.3999 29.6996 80.1999 32.3996 79.0999 34.9996C78.0999 37.5996 77.0999 39.9996 76.2999 42.2996C75.4999 44.5996 74.8999 46.5996 74.5999 48.2996C74.0999 50.7996 74.1999 52.2996 74.7999 53.3996C75.4999 54.4996 76.7999 55.0996 78.6999 55.0996C79.6999 55.0996 80.5999 55.0996 81.2999 54.9996C82.0999 54.8996 82.7999 54.8996 83.3999 54.7996C83.9999 54.6996 84.5999 54.5996 85.0999 54.4996L86.6999 54.1996V52.4996C86.6999 50.5996 86.8999 48.7996 87.1999 46.8996C87.4999 45.3996 87.8999 43.5996 88.4999 41.6996C89.0999 41.6996 89.6999 41.7996 90.3999 41.7996C91.8999 41.7996 93.3999 41.8996 95.0999 41.8996H98.6999C99.8999 41.8996 101 41.7996 102 41.7996C103 41.7996 104 41.6996 104.8 41.6996C104.9 41.6996 105 41.6996 105 41.6996C105.2 42.2996 105.4 42.9996 105.6 43.5996L106.7 46.7996C107.2 48.3996 107.8 49.6996 108.3 50.7996C108.9 51.8996 109.6 52.8996 110.5 53.5996C111.3 54.2996 112.3 54.6996 113.2 54.8996C114.1 55.0996 115.1 55.1996 116.2 55.1996C118.7 55.1996 120.4 54.5996 121.6 53.3996C122.6 52.1996 123.1 50.7996 123.1 49.0996C123.1 48.5996 123.1 48.0996 123 47.6996V43.2996H123.2ZM102.5 31.4996C102.2 31.4996 101.8 31.4996 101.5 31.5996C100.1 31.5996 98.5999 31.6996 97.0999 31.6996H92.6999C92.4999 31.6996 92.3999 31.6996 92.1999 31.6996C92.5999 30.7996 92.9999 29.7996 93.3999 28.7996C94.1999 26.7996 95.0999 24.8996 95.8999 22.9996C96.6999 20.9996 97.5999 19.1996 98.2999 17.3996C98.3999 17.1996 98.4999 16.9996 98.5999 16.7996C99.1999 18.6996 99.6999 20.4996 100.2 22.3996C100.9 25.2996 101.7 28.2996 102.5 31.4996Z" fill="#E2211C"/>
<path d="M156.6 4.1C156.6 3.6 156.5 3.1 156.5 2.5L156.2 0L153.8 0.8C152.4 1.3 150.3 1.6 147.7 1.7C144.9 1.8 141.4 1.8 137.4 1.8H133.1L128.6 1.7C127.1 1.7 125.6 1.6 124.2 1.6C122.8 1.6 121.5 1.5 120.3 1.5C118.6 1.5 117.4 2 116.6 2.9C115.9 3.7 115.5 4.8 115.5 6.3V7.6V7.8C115.5 8.3 115.6 8.7 115.6 9.1C115.6 9.6 115.7 10.1 115.7 10.6L115.9 12.2L117.5 12.4C118.2 12.5 119.1 12.6 120.3 12.7C121.4 12.8 122.6 12.9 123.9 13L130.2 13.2C130.2 15.3 130.1 17.5 130.1 19.9L129.8 38.9C129.8 41.9 129.7 44.6 129.7 47C129.7 48 129.7 49 129.8 49.8V49.9C129.9 50.9 130.1 51.6 130.2 52.2L130.3 52.4C130.7 53.3 131.3 53.9 132 54.4L132.2 54.5C133 54.9 134 55.1 135.5 55.1C136.2 55.1 137.1 55.1 138 55C139.1 54.9 140.2 54.8 141.1 54.5L142.8 54L142.5 52.3C142.4 51.7 142.3 51.2 142.2 50.5C142.1 50.1 142.1 49.6 142 49C142 48.4 141.9 47.9 141.9 47.3C141.9 46.4 141.9 45.3 141.8 43.9C141.8 42.5 141.8 41 141.7 39.7V32.5C141.7 29.3 141.7 25.9 141.8 22.2C141.8 19.2 141.9 16.2 141.9 13.3H146.6C147.7 13.3 148.7 13.2 149.6 13.2C150.6 13.2 151.3 13.1 152 13.1C154 12.9 155.2 12.3 156 11.1C156.5 10.2 156.8 9.1 156.8 7.6C156.8 7 156.8 6.4 156.7 5.8C156.7 5.1 156.6 4.6 156.6 4.1Z" fill="#E2211C"/>
<path d="M193.4 24.2004C191.8 22.8004 189.9 21.8004 187.7 21.1004C185.6 20.4004 183.2 20.1004 180.7 20.1004C178.6 20.1004 176.7 20.3004 174.9 20.5004C174.1 20.6004 173.3 20.8004 172.5 20.9004C172.5 18.3004 172.5 16.0004 172.4 14.0004C172.4 11.3004 172.4 8.90039 172.3 6.90039C172.3 6.20039 172.2 5.60039 172.2 5.10039C172.1 4.30039 171.9 3.60039 171.6 3.10039C171.3 2.50039 170.7 2.00039 170 1.70039C168.8 1.10039 166.8 1.20039 164.4 1.60039C163.1 1.80039 161.7 2.10039 160.3 2.50039L158.3 3.00039L158.9 5.00039C159.1 5.60039 159.2 6.20039 159.4 6.80039L159.5 7.00039C159.6 7.40039 159.8 7.80039 159.8 8.30039V8.40039C159.9 8.90039 160 9.50039 160.1 10.2004V10.3004C160.2 10.9004 160.3 11.7004 160.4 12.7004C160.5 13.7004 160.6 14.8004 160.7 16.1004C160.8 17.3004 160.9 18.6004 160.9 19.9004C160.9 21.2004 161 22.5004 161 24.0004C161 25.3004 161.1 26.6004 161.1 27.8004C161.1 31.5004 161 35.3004 160.8 39.3004C160.6 43.3004 160.4 47.2004 160.2 50.8004L160.1 52.3004L161.5 52.8004C162.7 53.2004 164.2 53.6004 165.7 54.0004C167 54.3004 168.6 54.6004 170.4 54.8004C172.2 55.0004 174.3 55.1004 176.5 55.1004C179.7 55.1004 182.6 54.8004 185.2 54.1004C188 53.4004 190.4 52.4004 192.4 50.9004C194.4 49.4004 196 47.4004 197.1 45.0004C198.2 42.6004 198.8 39.8004 198.8 36.6004C198.8 33.9004 198.3 31.5004 197.4 29.5004C196.4 27.4004 195.1 25.6004 193.4 24.2004ZM186.3 37.3004C186.3 38.6004 186.1 39.7004 185.7 40.5004C185.3 41.3004 184.7 42.0004 183.9 42.6004C183.1 43.2004 182.2 43.6004 181.1 43.9004C179.9 44.2004 178.5 44.3004 177 44.3004C176 44.3004 175 44.3004 174.2 44.2004C173.4 44.1004 172.7 44.0004 172.1 43.9004H172C172.1 42.8004 172.2 41.7004 172.2 40.6004C172.3 39.1004 172.4 37.4004 172.4 35.6004L172.5 31.7004C173.1 31.6004 173.7 31.4004 174.4 31.3004C175.6 31.0004 177.1 30.9004 179 30.9004C181.6 30.9004 183.5 31.5004 184.7 32.6004C185.8 33.5004 186.3 35.1004 186.3 37.3004Z" fill="#E2211C"/>
<path d="M246.2 52.1C246.1 51.2 246 50.4 246 49.6L245.9 47.4C245.9 46.7 245.8 46 245.8 45.4C245.7 42.6 245.7 39.5 245.7 36.2V26.1C245.7 24.6 245.7 22.9 245.8 21L245.9 15.4C246 13.5 246.1 11.8 246.1 10.1C246.1 8.4 246.2 7 246.2 5.9C246.2 4.4 245.8 3.3 245 2.5C244.3 1.8 243.2 1.5 241.8 1.5C240.9 1.5 239.8 1.6 238.6 1.7C237.4 1.8 236.2 1.9 235.2 2.1L234.4 2.3L233.8 3C232.3 5.2 230.7 7.7 228.8 10.6C226.9 13.5 224.9 16.6 222.8 19.8C220.7 23 218.7 26.3 216.6 29.6C216 30.5 215.5 31.5 214.9 32.4C214.9 31.9 214.9 31.3 214.9 30.7C214.9 29.5 215 28.1 215 26.5L215.1 20.2C215.1 18 215.2 16 215.2 14.2C215.2 12.3 215.3 10.5 215.3 9C215.3 7.4 215.4 6 215.4 5C215.4 4.4 215.2 1.5 210.9 1.5C209.7 1.5 208.5 1.6 207.5 1.7C206.4 1.8 205.1 2 203.7 2.4L201.9 2.9L202.2 4.7C202.3 5.4 202.5 6.1 202.5 6.6V6.8C202.6 7.3 202.7 7.8 202.8 8.4C202.9 8.9 202.9 9.6 203 10.3C203 11 203.1 11.8 203.1 12.8C203.1 14.7 203.1 16.8 203 19.2V26.3C203 28.7 203 31.1 202.9 33.4C202.9 35.7 202.8 38 202.8 40.2C202.8 42.2 202.8 44.1 202.7 45.7V51.1V51.3C202.8 52 203 52.7 203.3 53.3L203.4 53.5C203.8 54.1 204.4 54.6 205.2 54.9C206.3 55.4 207.9 55.5 210.3 55.2C211.3 55.1 212.3 55 213.2 54.8L214.1 54.6L214.5 53.7C214.9 52.9 215.5 51.6 216.4 50.1C217.3 48.5 218.4 46.6 219.6 44.5C220.8 42.4 222.1 40.2 223.6 37.7C225.1 35.3 226.6 32.8 228.2 30.2C229.8 27.6 231.4 25.1 232.9 22.7C233.1 22.3 233.4 22 233.6 21.6C233.6 22.7 233.6 23.9 233.5 25C233.5 26.7 233.5 28.4 233.4 30V34.4L233.3 39.5C233.3 41.1 233.3 42.7 233.2 44.1C233.2 45.5 233.2 46.7 233.1 47.9V50.5C233.1 52.2 233.5 53.5 234.5 54.3L234.6 54.4C235.5 55.1 236.6 55.4 238.4 55.4C239.1 55.4 240 55.3 241 55.3C242.1 55.2 243.3 54.9 244.5 54.5L246 54L246.2 52.1Z" fill="#E2211C"/>
</svg>
