<svg width="113" height="26" viewBox="0 0 113 26" fill="none" xmlns="http://www.w3.org/2000/svg">
<path d="M17.4 19L16.8 18.2L16 18.8C15.5 19.2 14.9 19.5 14.1 19.9C13.4 20.2 12.5 20.4 11.4 20.4C9.7 20.4 8.3 19.8 7.3 18.6C6.3 17.4 5.7 15.6 5.7 13.2C5.8 12 6 10.9 6.3 10C6.6 9 7 8.3 7.5 7.6C8 7 8.5 6.6 9.2 6.3C10.3 5.8 11.5 5.8 12.5 5.9C12.9 5.9 13.3 6 13.6 6.1C13.9 6.1 14.2 6.2 14.6 6.3C15 6.3 15.3 6.4 15.7 6.4C16.7 6.4 17.5 5.9 17.8 5C18 4.4 18.2 3.4 18.2 2V0.999997H17.2C16.8 0.999997 16.4 0.999997 16 0.999997C15.6 0.999997 15.1 0.899997 14.7 0.899997C14.2 0.899997 13.7 0.799997 13.2 0.799997C12.7 0.799997 12 0.699997 11.4 0.699997C9.6 0.699997 7.9 1.1 6.5 1.8C5 2.4 3.8 3.4 2.8 4.6C1.9 5.8 1.2 7.2 0.7 8.8C0.2 10.3 0 11.9 0 13.6C0 15.6 0.3 17.3 0.9 18.9C1.5 20.4 2.3 21.7 3.4 22.7C4.5 23.7 5.6 24.4 7 25C8.4 25.5 9.8 25.7 11.4 25.7C12.2 25.7 13 25.6 13.8 25.5C14.6 25.4 15.3 25.2 16 24.9C16.7 24.6 17.3 24.3 17.7 23.9C18.4 23.3 18.6 22.6 18.6 22.1C18.6 21.6 18.5 21.1 18.3 20.5C18 19.9 17.8 19.4 17.4 19Z" fill="white"/>
<path d="M36.9 5.2C37.2 4.8 37.3 4.2 37.3 3.5C37.3 3.2 37.3 3 37.3 2.7C37.3 2.4 37.3 2.2 37.2 2L37 0L35.8 0.4C35.2 0.6 34.2 0.8 33 0.8C31.7 0.8 30.1 0.9 28.3 0.9H26.3L24.3 0.8C23.6 0.8 22.9 0.8 22.3 0.8C21.6 0.8 21.1 0.8 20.5 0.8C19.7 0.8 19.1 1 18.7 1.5C18.4 1.9 18.2 2.4 18.2 3.1V3.7L18.4 5.9L19.2 6C19.5 6 20 6.1 20.5 6.1C21 6.1 21.5 6.2 22.2 6.2L25 6.3C25 7.2 25 8.2 24.9 9.3L24.8 18C24.8 19.4 24.8 20.6 24.8 21.7C24.8 22.2 24.8 22.6 24.8 23.1C24.9 23.6 24.9 23.9 25 24.2V24.3C25.2 24.7 25.5 25 25.8 25.3L25.9 25.4C26.3 25.6 26.7 25.7 27.4 25.7C27.7 25.7 28.1 25.7 28.6 25.6C29.1 25.6 29.6 25.5 30.1 25.4L30.9 25.1L30.6 23.4C30.6 23.2 30.5 23 30.5 22.7C30.5 22.4 30.5 22.2 30.5 21.9C30.5 21.5 30.5 21 30.5 20.4C30.5 19.7 30.5 19.1 30.5 18.5V15C30.5 13.5 30.5 12 30.5 10.3C30.5 9 30.5 7.6 30.5 6.3H32.6C33.1 6.3 33.5 6.3 34 6.2C34.4 6.2 34.8 6.2 35.1 6.1C35.4 6.1 36.4 6 36.9 5.2Z" fill="white"/>
<path d="M56.5 19.8L55.3 20C55.1 20 54.7 20.1 54.4 19.6C54.1 19.1 53.8 18.5 53.5 17.6C53.1 16.2 52.7 14.9 52.3 13.5C51.9 12.1 51.6 10.8 51.3 9.5C51 8.2 50.7 7.1 50.4 6.1C50.1 5 49.9 4.1 49.6 3.5C49.4 3 49.3 2.6 49.1 2.3C48.9 1.9 48.7 1.6 48.4 1.4C48.1 1.1 47.8 1 47.4 0.900001C46.8 0.800001 45.8 0.700001 45 0.900001C44.6 0.900001 44.2 1 43.8 1.1L42 1.5L41.7 2C41.5 2.9 41.2 3.9 40.7 5.1C40.3 6.2 39.8 7.4 39.3 8.7C38.8 9.9 38.3 11.2 37.7 12.5C37.1 13.8 36.6 15 36.1 16.2C35.6 17.4 35.2 18.5 34.8 19.5C34.4 20.6 34.2 21.5 34 22.2C33.8 23.4 33.8 24.1 34.1 24.6C34.4 25.1 35.1 25.4 35.9 25.4C36.3 25.4 36.8 25.4 37.1 25.4C37.5 25.4 37.8 25.3 38.1 25.3C38.4 25.3 38.7 25.2 38.9 25.2L39.7 25V24.2C39.7 23.3 39.8 22.5 39.9 21.7C40 21 40.2 20.2 40.5 19.4C40.7 19.4 41 19.4 41.3 19.4C42 19.4 42.7 19.4 43.4 19.4H45C45.6 19.4 46.1 19.4 46.5 19.3C47 19.3 47.4 19.3 47.8 19.2C47.9 19.5 48 19.7 48 20L48.5 21.5C48.8 22.3 49 22.9 49.2 23.4C49.5 23.9 49.8 24.4 50.2 24.7C50.6 25 51 25.2 51.5 25.3C51.9 25.4 52.4 25.5 52.9 25.5C54.1 25.5 54.9 25.2 55.4 24.6C55.9 24.1 56.1 23.4 56.1 22.6C56.1 22.4 56.1 22.2 56.1 22V19.8H56.5ZM45.2 8C45.4 8.8 45.7 9.6 45.8 10.4C46.1 11.7 46.5 13 46.8 14.5C46.7 14.5 46.6 14.5 46.4 14.5C45.7 14.5 45.1 14.5 44.4 14.5H42.4H42.3C42.5 14.1 42.6 13.7 42.8 13.3C43.2 12.4 43.6 11.5 44 10.6C44.4 9.8 44.8 8.9 45.2 8Z" fill="white"/>
<path d="M71.7 2L71.5 0L70.3 0.4C69.7 0.6 68.7 0.8 67.5 0.8C66.2 0.8 64.6 0.9 62.8 0.9H60.8L58.8 0.8C58.1 0.8 57.4 0.8 56.8 0.8C56.1 0.8 55.6 0.8 55 0.8C54.2 0.8 53.6 1 53.2 1.5C53 1.8 52.8 2.3 52.8 3V3.6L53 5.7L53.8 5.8C54.1 5.8 54.6 5.9 55.1 5.9C55.6 5.9 56.1 6 56.8 6L59.6 6.1C59.6 7 59.6 8 59.5 9.1L59.4 17.8C59.4 19.2 59.4 20.4 59.4 21.5C59.4 22 59.4 22.4 59.4 22.9C59.4 23.4 59.5 23.7 59.6 24V24.1C59.8 24.5 60.1 24.8 60.4 25.1L60.5 25.2C60.9 25.4 61.3 25.5 62 25.5C62.3 25.5 62.7 25.5 63.2 25.4C63.7 25.4 64.2 25.3 64.7 25.2L65.5 25L65.2 23.3C65.2 23.1 65.1 22.9 65.1 22.6C65.1 22.3 65.1 22.1 65.1 21.8C65.1 21.4 65.1 20.9 65.1 20.3C65.1 19.6 65.1 19 65.1 18.4V15C65.1 13.5 65.1 12 65.1 10.3C65.1 9 65.1 7.6 65.1 6.3H67.2C67.7 6.3 68.1 6.3 68.5 6.2C68.9 6.2 69.3 6.2 69.6 6.1C69.9 6.1 71 6 71.5 5.2C71.7 4.8 71.9 4.2 71.9 3.5C71.9 3.2 71.9 3 71.9 2.7C71.8 2.5 71.8 2.2 71.7 2Z" fill="white"/>
<path d="M88.6 11.1C87.9 10.5 87 10 85.9 9.7C84.1 9.1 81.8 9.1 80 9.4C79.7 9.5 79.3 9.5 79 9.6C79 8.5 79 7.5 79 6.6C79 5.4 79 4.3 78.9 3.3C78.9 3 78.9 2.7 78.8 2.5C78.8 2.1 78.7 1.8 78.5 1.5C78.3 1.2 78.1 0.899998 77.8 0.799998C77.2 0.499998 76.3 0.599998 75.2 0.699998C74.6 0.899998 74 0.999999 73.3 1.2L72.3 1.5L72.6 2.5C72.7 2.8 72.8 3.1 72.8 3.3V3.4C72.9 3.5 72.9 3.7 73 4C73.1 4.2 73.1 4.5 73.2 4.9C73.3 5.2 73.3 5.5 73.3 6C73.4 6.5 73.4 7 73.4 7.5C73.4 8.1 73.5 8.6 73.5 9.3C73.5 9.9 73.5 10.5 73.5 11.2C73.5 11.8 73.5 12.4 73.5 12.9C73.5 14.6 73.5 16.3 73.4 18.2C73.3 20 73.2 21.8 73.1 23.5V24.3L73.8 24.6C74.4 24.8 75 25 75.7 25.1C76.3 25.2 77 25.4 77.9 25.5C78.7 25.6 79.7 25.6 80.7 25.6C82.2 25.6 83.5 25.5 84.7 25.2C86 24.9 87.1 24.4 88 23.7C88.9 23 89.7 22.1 90.2 21C90.7 19.9 91 18.6 91 17.1C91 15.9 90.8 14.7 90.4 13.8C89.9 12.6 89.3 11.8 88.6 11.1ZM85.2 17.2C85.2 17.8 85.1 18.3 84.9 18.6C84.7 19 84.5 19.3 84.1 19.5C83.8 19.8 83.3 20 82.8 20.1C82.3 20.2 81.6 20.3 81 20.3C80.5 20.3 80.1 20.3 79.7 20.2C79.4 20.2 79.1 20.1 78.8 20.1C78.8 19.6 78.9 19.1 78.9 18.6C78.9 17.9 79 17.1 79 16.3V14.6C79.2 14.5 79.5 14.5 79.8 14.4C80.3 14.3 81 14.2 81.9 14.2C83 14.2 83.9 14.4 84.4 14.9C84.9 15.5 85.2 16.2 85.2 17.2Z" fill="white"/>
<path d="M112.7 23.9C112.7 23.5 112.6 23.1 112.6 22.8L112.5 21.8C112.5 21.5 112.5 21.2 112.5 20.9C112.5 19.6 112.4 18.2 112.4 16.7V12.1C112.4 11.4 112.4 10.6 112.4 9.8L112.5 7.2C112.5 6.3 112.6 5.5 112.6 4.8C112.6 4 112.6 3.4 112.6 2.9C112.6 2.2 112.4 1.6 112.1 1.3C111.5 0.700003 110.6 0.700003 109.1 0.900003C108.5 0.900003 108 1 107.5 1.1L107.1 1.2L106.9 1.5C106.2 2.5 105.5 3.6 104.6 5C103.7 6.3 102.8 7.7 101.8 9.2C100.9 10.7 99.9 12.1 99 13.7C98.8 14 98.6 14.4 98.4 14.7C98.4 14.6 98.4 14.4 98.4 14.3C98.4 13.8 98.4 13.1 98.5 12.4L98.6 9.5C98.6 8.5 98.6 7.6 98.6 6.8C98.6 5.9 98.6 5.1 98.6 4.4C98.6 3.7 98.6 3 98.6 2.5C98.6 2.2 98.5 0.800003 96.5 0.800003C95.9 0.800003 95.4 0.800003 94.9 0.900003C94.4 0.900003 93.8 1.1 93.2 1.2L92.3 1.4L92.5 2.3C92.6 2.6 92.6 2.9 92.7 3.3C92.8 3.5 92.8 3.8 92.8 4C92.8 4.3 92.9 4.5 92.9 4.8C92.9 5.1 92.9 5.5 92.9 5.9C92.9 6.8 92.9 7.7 92.9 8.8V12C92.9 13.1 92.9 14.2 92.9 15.2C92.9 16.3 92.9 17.3 92.9 18.3C92.9 19.2 92.9 20.1 92.9 20.8V23.3V23.4C92.9 23.8 93 24.1 93.2 24.4C93.4 24.7 93.7 24.9 94.1 25.1C94.6 25.3 95.5 25.4 96.4 25.2C96.9 25.2 97.3 25.1 97.8 25L98.3 24.9L98.5 24.5C98.7 24.1 99 23.5 99.4 22.8C99.8 22.1 100.3 21.2 100.9 20.2C101.5 19.2 102.1 18.2 102.7 17.1C103.4 16 104.1 14.8 104.8 13.7C105.5 12.5 106.2 11.4 107 10.3C107.1 10.2 107.1 10.1 107.2 10C107.2 10.4 107.2 10.8 107.2 11.3C107.2 12.1 107.2 12.8 107.2 13.6V15.6L107.1 17.9C107.1 18.6 107.1 19.3 107.1 20C107.1 20.6 107.1 21.2 107.1 21.8V23C107.1 23.8 107.3 24.4 107.8 24.8C108.2 25.1 108.8 25.3 109.6 25.3C109.9 25.3 110.3 25.3 110.8 25.2C111.3 25.1 111.9 25 112.4 24.8L113.1 24.5L112.7 23.9Z" fill="white"/>
</svg>
