<svg width="300" height="338" viewBox="0 0 300 338" fill="none" xmlns="http://www.w3.org/2000/svg">
<path d="M83.3361 246.934C69.7553 238.324 56.4773 225.815 45.7588 210.658C29.6693 187.942 30.2201 152.473 46.934 129.976C55.3474 118.653 67.4078 113.13 80.4379 109.375C103.081 102.833 125.957 102.976 149.153 106.105C192.505 111.955 223.233 137.686 250.655 169.013C255.748 174.841 258.845 182.521 268.282 184.124C272.839 184.898 272.952 190.396 271.596 195.082C270.812 197.8 270.445 201.061 271.181 203.719C281.795 242.282 256.236 278.671 216.368 281.536C173.729 284.607 119.517 270.863 83.3481 246.942L83.3361 246.934ZM91.4612 246.48C129.924 268.588 172.455 278.48 217.467 275.796C252.684 273.701 275.636 239.928 266.104 206.363C265.261 203.396 262.108 201.105 260.18 198.394C258.592 196.158 255.7 193.49 256.061 191.505C257.186 185.356 253.983 181.481 250.545 177.574C243.799 169.877 237.212 162.01 229.961 154.805C214.116 139.071 196.542 125.7 175.136 118.318C173.058 117.608 170.17 118.627 167.826 119.383C164.656 120.391 161.248 123.429 158.646 122.791C156.052 122.141 154.402 117.971 152.202 115.442C150.866 113.898 149.491 111.544 147.836 111.26C124.489 107.282 101.249 107.809 78.5828 115.257C42.7869 127.01 27.2306 171.748 47.5513 203.712C58.6233 221.144 73.8442 234.31 91.4337 246.496L91.4612 246.48Z" fill="#FFC079"/>
<path d="M141.554 91.2866C141.489 87.9008 140.17 83.62 141.745 81.3955C143.151 79.4052 149.171 78.0774 150.644 79.3364C152.839 81.233 154.375 86.3398 153.307 88.8057C152.296 91.1025 147.53 91.7306 144.402 93.0902C143.454 92.4783 142.51 91.8864 141.554 91.2866Z" fill="#FFC079"/>
<path d="M86.5701 159.996C90.2698 163.847 93.6269 168.122 97.7854 171.367C99.9509 173.054 103.905 174.16 106.421 173.402C147.075 161.331 185.284 175.646 208.139 211.537C209.424 213.558 212.725 214.752 215.299 215.358C218.218 216.035 221.399 215.621 224.456 215.689C224.504 216.485 224.56 217.27 224.608 218.066C221.805 218.74 219.03 219.74 216.193 220.018C191.47 222.451 167.758 218.222 144.911 208.667C141.1 207.075 138.113 205.896 133.903 209.013C128.379 213.086 121.125 208.83 121.651 201.889C121.99 197.379 119.873 195.775 117.065 193.368C107.865 185.475 98.8591 177.333 90.0333 169.018C87.838 166.955 86.5834 163.883 84.8916 161.277C85.4525 160.857 86.0092 160.417 86.5701 159.996ZM203.663 215.674C188.218 182.557 140.325 163.422 105.786 178.928C113.859 185.056 119.996 193.235 130.978 194.063C132.83 194.203 134.644 195.986 136.346 197.203C139.368 199.357 141.986 202.799 145.306 203.699C161.085 207.997 177.015 211.745 192.951 215.378C196.249 216.128 199.828 215.598 203.663 215.674Z" fill="#FFC079"/>
<path d="M255.449 211.526C256.719 213.897 258.698 216.147 259.138 218.666C261.189 230.567 257.734 241.424 248.756 248.988C236.191 259.596 220.828 264.013 204.308 263.845C202.78 263.832 201.263 263.194 199.646 261.229C201.464 260.952 203.315 260.781 205.115 260.373C214.565 258.215 224.483 257.159 233.374 253.564C253.147 245.595 258.476 233.952 255.449 211.526Z" fill="#FFC079"/>
<path d="M61.3084 135.876C70.7633 119.378 130.073 110.171 142.701 123.218C114.167 120.042 86.4815 119.641 61.3084 135.876Z" fill="#FFC079"/>
<path d="M173.866 255.629C171.313 255.735 167.177 256.933 163.824 255.817C159.57 254.395 158.659 247.689 161.613 244.079C164.776 240.225 168.787 239.17 172.961 242.156C177.059 245.075 177.611 249.04 173.854 255.621L173.866 255.629Z" fill="#FFC079"/>
<path d="M200.168 176.799C199.97 174.035 198.48 169.776 199.721 166.598C201.634 161.712 206.641 160.947 211.13 163.657C215.355 166.213 216.469 170.52 213.979 174.779C211.315 179.334 207.046 179.996 200.16 176.811L200.168 176.799Z" fill="#FFC079"/>
<path d="M59.15 190.713C62.9407 190.425 67.2318 188.885 70.4169 190.145C75.2947 192.064 76.1915 197.107 73.3457 201.57C70.5436 205.992 65.6128 207.517 61.7475 203.95C59.2284 201.632 58.7755 197.065 57.3844 193.502C57.9836 192.574 58.5508 191.642 59.15 190.713Z" fill="#FFC079"/>
<path d="M100.596 161.229C96.6311 157.753 95.7245 153.566 98.8716 149.378C101.809 145.462 106.218 144.858 110.194 147.679C114.135 150.477 115.144 154.85 112.429 158.925C109.551 163.253 105.282 163.879 100.596 161.229Z" fill="#FFC079"/>
<path d="M99.5422 132.601C110.086 127.007 121.003 125.827 132.292 129.641L99.5422 132.601Z" fill="#FFC079"/>
<path d="M201.607 251.469C210.884 250.213 219.16 249.082 227.497 247.938C222.073 253.52 210.55 255.3 201.607 251.469Z" fill="#FFC079"/>
<path d="M276.356 117.093C276.322 113.754 275.205 109.878 276.498 107.189C278.362 103.278 283.093 102.414 286.197 105.745C288.124 107.816 289.346 112.789 288.139 114.859C286.777 117.205 282.357 117.745 279.268 119.06C278.307 118.399 277.317 117.754 276.348 117.105L276.356 117.093Z" fill="#FFC079"/>
</svg>
