<svg width="280" height="361" viewBox="0 0 280 361" fill="none" xmlns="http://www.w3.org/2000/svg">
<path d="M88.984 263.671C74.4829 254.477 60.3048 241.12 48.8599 224.936C31.68 200.68 32.268 162.807 50.1147 138.785C59.0984 126.695 71.9762 120.797 85.8894 116.788C110.067 109.803 134.494 109.955 159.262 113.297C205.553 119.543 238.362 147.018 267.644 180.468C273.081 186.691 276.389 194.891 286.465 196.603C291.331 197.43 291.451 203.3 290.004 208.304C289.167 211.207 288.775 214.688 289.561 217.527C300.894 258.703 273.602 297.559 231.033 300.617C185.503 303.897 127.617 289.221 88.9969 263.679L88.984 263.671ZM97.6599 263.186C138.729 286.792 184.144 297.355 232.206 294.489C269.809 292.252 294.317 256.189 284.14 220.349C283.239 217.181 279.872 214.736 277.814 211.841C276.118 209.453 273.03 206.604 273.416 204.485C274.617 197.919 271.197 193.781 267.526 189.609C260.322 181.39 253.29 172.99 245.546 165.298C228.628 148.496 209.862 134.219 187.006 126.337C184.787 125.579 181.703 126.667 179.2 127.475C175.815 128.551 172.176 131.795 169.398 131.113C166.629 130.419 164.866 125.966 162.518 123.267C161.091 121.618 159.623 119.104 157.855 118.801C132.926 114.554 108.111 115.117 83.9086 123.069C45.6866 135.618 29.076 183.389 50.7739 217.519C62.5963 236.132 78.8489 250.19 97.6305 263.203L97.6599 263.186Z" fill="#FFDFBC"/>
<path d="M151.148 97.474C151.078 93.8587 149.67 89.2877 151.351 86.9125C152.853 84.7874 159.281 83.3695 160.854 84.7138C163.198 86.739 164.838 92.1919 163.698 94.8249C162.618 97.2774 157.529 97.948 154.189 99.3999C153.177 98.7465 152.169 98.1145 151.148 97.474Z" fill="#FFDFBC"/>
<path d="M92.4376 170.841C96.388 174.952 99.9726 179.517 104.413 182.982C106.725 184.783 110.948 185.964 113.634 185.155C157.043 172.266 197.842 187.551 222.246 225.875C223.618 228.032 227.143 229.308 229.891 229.955C233.008 230.677 236.404 230.235 239.669 230.307C239.72 231.158 239.78 231.996 239.831 232.846C236.838 233.566 233.876 234.633 230.846 234.93C204.448 237.528 179.128 233.013 154.733 222.81C150.663 221.11 147.474 219.851 142.979 223.18C137.08 227.528 129.335 222.984 129.897 215.573C130.258 210.757 127.997 209.044 124.999 206.474C115.176 198.046 105.559 189.352 96.1355 180.474C93.7914 178.271 92.4517 174.991 90.6452 172.209C91.2442 171.76 91.8386 171.29 92.4376 170.841ZM217.467 230.292C200.975 194.931 149.836 174.498 112.956 191.055C121.576 197.599 128.129 206.332 139.856 207.216C141.833 207.366 143.77 209.269 145.587 210.569C148.814 212.869 151.609 216.544 155.154 217.506C172.003 222.095 189.013 226.097 206.028 229.976C209.55 230.777 213.372 230.21 217.467 230.292Z" fill="#FFDFBC"/>
<path d="M272.763 225.862C274.118 228.395 276.232 230.797 276.702 233.487C278.891 246.195 275.202 257.787 265.615 265.864C252.199 277.191 235.794 281.907 218.155 281.728C216.524 281.714 214.904 281.032 213.177 278.934C215.118 278.638 217.095 278.457 219.016 278.021C229.108 275.716 239.697 274.588 249.192 270.75C270.305 262.241 275.994 249.808 272.763 225.862Z" fill="#FFDFBC"/>
<path d="M65.4634 145.086C75.5591 127.468 138.888 117.638 152.372 131.569C121.905 128.178 92.3427 127.749 65.4634 145.086Z" fill="#FFDFBC"/>
<path d="M185.65 272.955C182.924 273.068 178.508 274.347 174.927 273.156C170.385 271.638 169.412 264.477 172.567 260.622C175.944 256.507 180.226 255.38 184.683 258.569C189.06 261.686 189.648 265.92 185.637 272.947L185.65 272.955Z" fill="#FFDFBC"/>
<path d="M213.734 188.782C213.523 185.831 211.933 181.283 213.258 177.89C215.3 172.672 220.646 171.856 225.439 174.749C229.95 177.479 231.14 182.077 228.482 186.625C225.637 191.488 221.079 192.196 213.726 188.794L213.734 188.782Z" fill="#FFDFBC"/>
<path d="M63.1588 203.639C67.2064 203.332 71.7883 201.687 75.1893 203.032C80.3977 205.081 81.3553 210.467 78.3167 215.232C75.3246 219.953 70.0597 221.582 65.9323 217.773C63.2425 215.298 62.759 210.422 61.2736 206.617C61.9134 205.626 62.519 204.631 63.1588 203.639Z" fill="#FFDFBC"/>
<path d="M107.414 172.157C103.18 168.445 102.212 163.974 105.573 159.503C108.709 155.322 113.416 154.677 117.663 157.689C121.871 160.677 122.948 165.345 120.049 169.697C116.976 174.318 112.417 174.986 107.414 172.157Z" fill="#FFDFBC"/>
<path d="M106.289 141.588C117.547 135.616 129.204 134.356 141.258 138.428L106.289 141.588Z" fill="#FFDFBC"/>
<path d="M215.271 268.514C225.176 267.172 234.014 265.964 242.916 264.743C237.124 270.704 224.82 272.604 215.271 268.514Z" fill="#FFDFBC"/>
</svg>
