<svg width="333" height="28" viewBox="0 0 333 28" fill="none" xmlns="http://www.w3.org/2000/svg">
<path d="M18.9 19.5C18.8 18.8 18.8 18.1 18.7 17.2001C18.7 16.3001 18.6 15.5 18.6 14.6C18.6 13.7 18.6 13 18.6 12.4C18.6 10.2 18.6 8.30005 18.7 6.60005C18.9 5.00005 18.9 3.70005 18.9 3.00005C18.9 2.70005 18.9 2.40005 18.8 2.20005C18.7 1.90005 18.5 1.50005 18.1 1.30005C17.8 1.10005 17.5 1.00005 17.1 0.900049C16.8 0.800049 16.3 0.800049 15.8 0.800049C15.4 0.800049 14.9 0.800049 14.3 0.800049C13.1 0.800049 11.5 0.800049 9.49998 0.800049C8.49998 0.800049 7.29998 0.900049 5.99998 0.900049H4.89998L5.09998 2.00005C5.19998 2.40005 5.19998 2.80005 5.29998 3.10005C5.29998 3.50005 5.39998 3.90005 5.39998 4.40005C5.39998 5.40005 5.39998 6.50005 5.29998 7.60005C5.19998 8.70005 5.09998 9.80005 4.89998 10.9C4.59998 12.4 4.39998 13.7 4.09998 14.6C3.79998 15.5 3.49998 16.1 3.19998 16.6C2.89998 17.1 2.59998 17.2 2.49998 17.3C2.19998 17.4 1.99998 17.5 1.69998 17.4L0.599976 17L0.299976 18C0.199976 18.2001 0.199976 18.5 0.199976 18.7001C0.199976 18.9001 0.0999756 19.2001 0.0999756 19.5C0.0999756 19.8 0.0999756 20 0.0999756 20.2001C0.0999756 21 0.299976 21.6 0.699976 22C1.09998 22.3 1.59998 22.5 2.39998 22.5C3.29998 22.5 4.19998 22.3 4.99998 21.9C5.79998 21.5 6.59998 20.8 7.19998 19.8C7.79998 18.9 8.29998 17.7 8.69998 16.3C9.09997 14.9 9.49998 13.2 9.79998 11.2C9.89998 10 9.99998 8.90005 10.1 7.80005C10.2 7.00005 10.2 6.20005 10.2 5.40005C10.3 5.40005 10.4 5.40005 10.6 5.40005C11.6 5.40005 12.5 5.40005 13.4 5.40005C13.5 5.40005 13.6 5.40005 13.6 5.40005C13.5 6.80005 13.5 8.10005 13.5 9.40005C13.5 11 13.5 12.7 13.5 14.3V17.8C13.5 18.8 13.5 19.8001 13.6 20.6C13.6 21.2001 13.8 21.6 14.1 21.9L14.2 22C14.5 22.3 15 22.4 15.8 22.4C16.2 22.4 16.7 22.4 17.2 22.3C17.7 22.2 18.2 22.1 18.6 22L19.5 21.7001L19.3 20.8C19.1 20.7 19 20.3 18.9 19.5Z" fill="#E2211C"/>
<path d="M37 0.900098C36.6 0.700098 36.1 0.600098 35.4 0.600098C35.1 0.600098 34.8 0.600098 34.6 0.700098C34.3 0.700098 34.1 0.800098 34 0.800098C33.8 0.800098 33.6 0.900098 33.4 0.900098L32.7 1.1001V1.8001C32.7 2.5001 32.5 3.4001 32.4 4.4001C32.2 5.4001 32 6.5001 31.7 7.6001C31.4 8.7001 31.1 9.8001 30.7 10.8001C30.6 11.0001 30.6 11.2001 30.5 11.3001C30.4 11.0001 30.2 10.7001 30.1 10.4001C29.6 9.3001 29.1 8.3001 28.6 7.4001C28.1 6.4001 27.6 5.5001 27.1 4.6001C26.4 3.7001 26 3.0001 25.6 2.3001C25.3 1.8001 25 1.4001 24.8 1.2001C24.2 0.600098 23.1 0.400098 21.9 1.0001C21.6 1.2001 21.3 1.3001 21 1.5001C20.7 1.7001 20.3 2.0001 20 2.2001L19.3 2.8001L19.8 3.5001C21.2 5.5001 22.6 7.6001 23.9 9.9001C25.1 12.0001 26.2 14.3001 27.3 16.7001C26.7 17.3001 26.1 17.4001 25.7 17.4001C25.5 17.4001 25.3 17.4001 25.1 17.3001C25 17.3001 24.8 17.2001 24.5 17.0001L23.6 16.5001L23.1 17.4001C22.9 17.8001 22.7 18.3001 22.5 18.7001C22.3 19.2001 22.2 19.6001 22.2 20.1001C22.2 21.5001 23 22.0001 23.5 22.2001C24.1 22.5001 24.8 22.6001 25.6 22.6001C26.6 22.6001 27.5 22.4001 28.3 21.9001C29.1 21.5001 29.8 20.8001 30.5 20.1001C31.2 19.3001 31.8 18.4001 32.4 17.3001C33 16.3001 33.6 15.0001 34.2 13.7001C34.4 13.2001 34.7 12.5001 35 11.8001C35.3 11.1001 35.6 10.4001 35.8 9.7001C36.1 9.0001 36.3 8.2001 36.5 7.5001C36.7 6.8001 37 6.1001 37.1 5.5001C37.3 4.8001 37.4 4.3001 37.5 3.8001C37.6 3.2001 37.7 2.8001 37.7 2.5001C38 1.5001 37.3 1.1001 37 0.900098Z" fill="#E2211C"/>
<path d="M51.9 0.799999C51.4 0.799999 50.9 0.899999 50.4 0.999999L49.6 1.2L49.7 2.1C49.8 2.8 49.8 3.5 49.8 4.1C49.8 4.7 49.9 5.3 49.9 5.9C49.9 6.5 49.9 7.1 49.9 7.7V9.3C49.8 9.4 49.7 9.5 49.6 9.6C49.4 9.8 49.1 10 48.7 10.2C48.4 10.4 48 10.6 47.5 10.7C47 10.8 46.5 10.9 45.9 10.9C45.4 10.9 44.7 10.8 44.5 10.5C44.2 10.1 44.1 9.4 44.1 8.5C44.1 8 44.1 7.5 44.1 7.1L44.2 4C44.2 3.5 44.2 3.1 44.2 2.7C44.2 2 44 1.5 43.7 1.2C43.4 0.899999 42.9 0.699999 42.2 0.699999C41.7 0.699999 41.1 0.799999 40.6 0.899999L38.1 1.4L38.4 2.4C38.6 3 38.7 3.6 38.8 4.1C39 4.7 39 5.3 39 5.8C39 6.3 39 6.8 39 7.4C39 8 39 8.7 39 9.3C39 11.4 39.6 13 40.6 14C41.7 15.1 43.3 15.6 45.4 15.6C46.3 15.6 47.1 15.5 47.7 15.3C48.4 15.1 48.9 14.9 49.5 14.6C49.6 14.5 49.7 14.5 49.8 14.4C49.8 14.9 49.8 15.4 49.8 16C49.8 16.6 49.8 17.2 49.8 17.8C49.8 18.3 49.8 18.9 49.8 19.4V20.5C49.8 21.1 50 21.6 50.4 21.9C50.8 22.2 51.3 22.4 52 22.4C52.3 22.4 52.7 22.4 53.1 22.3C53.5 22.2 54 22.1 54.5 22L55.2 21.8V21.1C55.2 21.1 55.2 20.9 55.2 20.6C55.2 20.4 55.2 20.1 55.1 19.8C55.1 19.5 55.1 19.1 55.1 18.8C55.1 18.5 55.1 18.2 55.1 18V12.5C55.1 11.2 55.1 10 55.1 9.1C55.1 8.1 55.2 7.2 55.2 6.4C55.2 5.6 55.3 4.9 55.3 4.3C55.3 3.7 55.4 3.1 55.4 2.6C55.4 1.9 55.2 1.4 54.8 1.1C54.1 0.599999 53.1 0.599999 51.9 0.799999Z" fill="#E2211C"/>
<path d="M82.3 20.7C82.3 20.4 82.3 20.1 82.2 19.7L82.1 18.6V17.6C82.1 15.9 82.1 14.3 82.1 12.9C82.1 11.5 82.2 10.1 82.2 8.9C82.2 7.7 82.3 6.6 82.3 5.5C82.3 4.4 82.4 3.4 82.4 2.5C82.4 1.6 82 1.1 81.7 0.9C81.1 0.5 80.1 0.5 79.1 0.6C78.6 0.6 78.2 0.7 77.8 0.8L77 1V1.9C77 2.4 77 2.8 77.1 3.2L77.2 4.3C77.2 4.7 77.2 5 77.2 5.3C77.2 7.9 77.2 10.4 77.1 12.6C77.1 14.4 77.1 16.1 77 17.6C76.5 17.6 75.9 17.6 75.2 17.7C74.5 17.7 73.6 17.7 72.6 17.7C72.6 16.4 72.6 15.1 72.6 13.9C72.6 12.3 72.7 10.9 72.7 9.5C72.7 8.1 72.8 6.8 72.8 5.7C72.8 4.5 72.9 3.5 72.9 2.6C72.9 1.7 72.5 1.3 72.2 1C71.6 0.5 70.6 0.5 69.5 0.6C69 0.6 68.5 0.7 68.1 0.8L67.3 1V1.8C67.3 2.2 67.3 2.6 67.4 3.1C67.4 3.5 67.4 4.1 67.4 4.7C67.4 5.3 67.4 6.1 67.4 7C67.4 7.8 67.4 8.7 67.4 9.7C67.4 10.7 67.4 11.7 67.4 12.8C67.4 13.9 67.4 14.9 67.3 15.9C67.3 16.5 67.3 17.1 67.3 17.6C66.3 17.6 65.4 17.6 64.6 17.6C64 17.6 63.3 17.6 62.8 17.5C62.8 16.6 62.9 15.7 62.9 14.7C63 13.3 63 11.9 63.1 10.5C63.2 9.1 63.2 7.6 63.2 6.2C63.2 4.8 63.3 3.4 63.3 2.1C63.3 1.6 63 1.1 62.6 0.8C62.3 0.6 61.8 0.5 61.2 0.5C60.7 0.5 60.2 0.5 59.8 0.6C59.4 0.7 59 0.7 58.4 0.9L57.5 1.1L57.8 2.9C57.8 3.1 57.9 3.3 57.9 3.6C58 4 58 4.3 58 4.7C58 5 58 5.4 58 5.9C58 7.3 58 8.7 57.9 10.2C57.9 11.7 57.8 13.1 57.8 14.4C57.8 15.7 57.7 16.9 57.7 17.9C57.7 18.9 57.6 19.7 57.6 20.1C57.6 20.8 57.8 21.4 58.1 21.8C58.5 22.2 59 22.4 59.8 22.4C60.1 22.4 60.5 22.4 61 22.4C61.5 22.4 62.2 22.4 62.8 22.4C63.5 22.4 64.3 22.4 65.1 22.4C66 22.4 66.9 22.4 67.8 22.4H73.4C75.3 22.4 76.9 22.4 78.2 22.3C79.5 22.3 80.6 22.2 81.4 22.1L82.6 22L82.3 21C82.3 20.9 82.3 20.8 82.3 20.7Z" fill="#E2211C"/>
<path d="M102.8 20.1001L102.7 19.2001C102.7 18.9001 102.7 18.7001 102.7 18.4001C102.7 17.3001 102.6 16.1001 102.6 14.7001V10.7001C102.6 10.1001 102.6 9.4001 102.6 8.7001L102.7 6.5001C102.7 5.7001 102.8 5.0001 102.8 4.4001C102.8 3.7001 102.8 3.2001 102.8 2.7001C102.8 2.0001 102.6 1.5001 102.3 1.2001C101.8 0.700098 100.9 0.600098 99.6 0.800098C99.1 0.800098 98.6 0.900098 98.2 1.0001H97.8L97.6 1.3001C97 2.2001 96.3 3.2001 95.6 4.3001C94.8 5.5001 94 6.7001 93.2 8.0001C92.4 9.3001 91.6 10.6001 90.7 11.9001C90.6 12.1001 90.5 12.2001 90.4 12.4001C90.4 11.9001 90.4 11.4001 90.5 10.8001L90.6 8.3001C90.6 7.4001 90.6 6.6001 90.6 5.9001C90.6 5.1001 90.6 4.4001 90.6 3.8001C90.6 3.2001 90.6 2.6001 90.6 2.2001C90.6 1.9001 90.5 0.600098 88.6 0.600098C88.1 0.600098 87.6 0.600098 87.2 0.700098C86.7 0.700098 86.2 0.800098 85.7 1.0001L84.8 1.2001L85 2.1001C85 2.5001 85 2.7001 85.1 3.0001C85.1 3.2001 85.2 3.4001 85.2 3.6001C85.2 3.8001 85.3 4.1001 85.3 4.3001C85.3 4.6001 85.3 4.9001 85.3 5.3001C85.3 6.1001 85.3 6.9001 85.3 7.8001V10.6001C85.3 11.5001 85.3 12.5001 85.3 13.4001C85.3 14.4001 85.3 15.3001 85.3 16.1001C85.3 16.9001 85.3 17.6001 85.3 18.3001V20.6001C85.3 20.9001 85.4 21.2001 85.6 21.6001C85.8 21.9001 86.1 22.1001 86.4 22.2001C86.9 22.4001 87.6 22.4001 88.5 22.3001C88.9 22.3001 89.3 22.2001 89.7 22.1001L90.2 22.0001L90.4 21.6001C90.6 21.3001 90.8 20.8001 91.1 20.2001C91.5 19.5001 91.9 18.8001 92.4 18.0001C92.9 17.2001 93.4 16.3001 94 15.3001C94.6 14.3001 95.2 13.3001 95.8 12.3001C96.4 11.3001 97 10.4001 97.6 9.4001C97.6 9.6001 97.6 9.8001 97.6 10.1001C97.6 10.8001 97.6 11.4001 97.6 12.1001L97.5 15.9001C97.5 16.5001 97.5 17.1001 97.5 17.7001C97.5 18.2001 97.5 18.7001 97.5 19.2001V20.2001C97.5 20.9001 97.7 21.5001 98.2 21.9001C98.6 22.2001 99.1 22.3001 99.8 22.3001C100.1 22.3001 100.4 22.3001 100.8 22.2001C101.3 22.2001 101.8 22.0001 102.3 21.9001L103 21.6001L102.9 20.8001C102.9 20.7001 102.8 20.4001 102.8 20.1001Z" fill="#E2211C"/>
<path d="M120.1 18.5C120.1 18.3 120 18.1 120 17.9L119.8 16.9L118.8 17.2C118.1 17.4 117.4 17.5 116.8 17.6C115.9 17.7 114.6 17.7 113.2 17.8H111.2C111.2 17 111.2 16.3 111.2 15.6V13.7C111.4 13.7 111.5 13.7 111.7 13.7L113.3 13.8L114.8 13.9C116.3 14 117.3 13.9 118 13.3C118.4 12.9 118.6 12.3 118.6 11.4C118.6 11.2 118.6 11 118.6 10.8L118.4 8.8L117.4 9C117 9 116.8 9 116.6 9C116.4 9 116.2 9 116 9.1H115.2C114.1 9.1 113.2 9.1 112.4 9.1C111.9 9.1 111.5 9.1 111.1 9V7.9C111.1 7.2 111.1 6.6 111.1 6.1C111.1 5.9 111.1 5.6 111.1 5.4C111.8 5.4 112.4 5.4 113.1 5.5C114.1 5.6 115.1 5.6 116 5.6C117.1 5.6 117.8 5.5 118.3 5.3C118.7 5.1 119.4 4.6 119.4 3.4C119.4 3.3 119.4 3 119.4 2.7C119.4 2.3 119.3 1.9 119.2 1.4L119 0.5L118 0.6C117.5 0.7 117 0.7 116.5 0.8C116 0.8 115.4 0.8 114.7 0.8H113.3C112.8 0.8 112.2 0.8 111.7 0.8C111.2 0.8 110.6 0.8 110.2 0.8C109 0.8 108.2 0.8 107.5 0.8C107 0.8 106.6 0.9 106.2 1L105.2 1.2L105.5 2.2C105.6 2.4 105.6 2.7 105.7 2.9V3C105.8 3.2 105.8 3.4 105.9 3.6C105.9 3.8 106 4.1 106 4.3C106 4.6 106.1 4.9 106.1 5.3C106.1 6 106.2 6.8 106.2 7.6C106.2 8.4 106.2 9.3 106.2 10.2C106.2 12.5 106.2 14.5 106.2 16.2C106.2 17.9 106.1 19.6 106 21.2L105.9 22.2L106.9 22.3C108 22.4 109.3 22.5 110.6 22.5C111.9 22.6 113.1 22.6 114.3 22.6C115.4 22.6 116.3 22.6 117 22.6C117.8 22.6 118.3 22.5 118.8 22.4C119.4 22.2 119.9 21.9 120.1 21.6C120.3 21.2 120.5 20.8 120.5 20.2C120.5 19.9 120.5 19.6 120.4 19.3C120.1 18.9 120.1 18.7 120.1 18.5Z" fill="#E2211C"/>
<path d="M146.3 20.1L146.2 19.2C146.2 18.9 146.2 18.6999 146.2 18.4C146.2 17.2999 146.1 16 146.1 14.7V10.7C146.1 10.1 146.1 9.39995 146.1 8.69995L146.2 6.49995C146.2 5.69995 146.3 4.99995 146.3 4.39995C146.3 3.69995 146.3 3.19995 146.3 2.69995C146.3 1.99995 146.1 1.49995 145.8 1.19995C145.3 0.699951 144.4 0.599951 143.1 0.799951C142.6 0.799951 142.1 0.899951 141.7 0.999951H141.3L141 1.39995C140.4 2.29995 139.7 3.29995 139 4.39995C138.2 5.59995 137.4 6.79995 136.6 8.09995C135.8 9.39995 135 10.7 134.1 12C134 12.2 133.9 12.3 133.8 12.5C133.8 12 133.8 11.5 133.9 10.9L134 8.39995C134 7.49995 134 6.69995 134 5.99995C134 5.19995 134 4.49995 134 3.89995C134 3.29995 134 2.69995 134 2.29995C134 1.99995 133.9 0.699951 132 0.699951C131.5 0.699951 131 0.699951 130.6 0.799951C130.1 0.799951 129.6 0.899951 129.1 1.09995L128.2 1.29995L128.4 2.19995C128.5 2.49995 128.5 2.69995 128.6 2.99995C128.6 3.19995 128.7 3.39995 128.7 3.59995C128.7 3.79995 128.8 4.09995 128.8 4.29995C128.8 4.59995 128.8 4.89995 128.8 5.29995C128.8 6.09995 128.8 6.89995 128.8 7.79995V10.6C128.8 11.5 128.8 12.5 128.8 13.4C128.8 14.4 128.8 15.3 128.8 16.1C128.8 16.9 128.8 17.5999 128.8 18.2999V20.5V20.6C128.8 20.9 128.9 21.2 129.1 21.6C129.3 21.9 129.6 22.1 129.9 22.2C130.4 22.4 131.1 22.4 132 22.2999C132.4 22.2999 132.8 22.2 133.2 22.1L133.7 22L133.9 21.6C134.1 21.3 134.3 20.8 134.6 20.2C135 19.5 135.4 18.7999 135.9 18C136.4 17.2 136.9 16.3 137.5 15.3C138.1 14.3 138.7 13.3 139.3 12.3C139.9 11.3 140.5 10.4 141.1 9.39995C141.1 9.59995 141.1 9.79995 141.1 10.1C141.1 10.8 141.1 11.4 141.1 12.1V13.8L141 15.8C141 16.4 141 17 141 17.6C141 18.1 141 18.6 141 19.1V20.1C141 20.8 141.2 21.4 141.7 21.7999C142.1 22.0999 142.6 22.2 143.3 22.2C143.6 22.2 143.9 22.2 144.3 22.1C144.8 22.1 145.3 21.9 145.8 21.7999L146.5 21.5L146.4 20.7C146.3 20.7 146.3 20.4 146.3 20.1Z" fill="#E2211C"/>
<path d="M166.5 19.4001C166.5 18.6001 166.5 17.7001 166.4 16.7001C166.4 15.7001 166.4 14.7001 166.4 13.6001V10.7001C166.4 10.1001 166.4 9.40011 166.4 8.70011L166.5 6.40011C166.5 5.60011 166.6 4.90011 166.6 4.20011C166.6 3.50011 166.7 3.00011 166.7 2.50011C166.7 1.60011 166.3 1.20011 166 1.00011C165.4 0.600109 164.5 0.600109 163.4 0.800109C162.9 0.800109 162.4 0.900109 161.9 1.00011L161 1.20011L161.1 2.00011C161.1 2.60011 161.2 3.10011 161.2 3.60011C161.2 4.00011 161.3 4.40011 161.3 4.90011C161.3 5.30011 161.4 5.70011 161.4 5.90011V8.90011C161 8.90011 160.5 8.80011 160.1 8.80011C158.7 8.70011 157.2 8.70011 155.8 8.80011C155.5 8.80011 155.2 8.80011 154.8 8.80011C154.8 8.60011 154.8 8.40011 154.8 8.10011C154.8 7.30011 154.9 6.60011 154.9 5.80011C154.9 5.00011 155 4.30011 155 3.60011C155 2.90011 155 2.40011 155 2.00011C155 1.30011 154.5 0.700109 153.8 0.600109C152.9 0.500109 152.2 0.500109 151.3 0.700109C150.8 0.800109 150.3 0.900109 149.8 1.00011L148.8 1.20011L149.1 2.20011C149.2 2.50011 149.3 2.80011 149.3 3.20011C149.4 3.50011 149.4 3.80011 149.5 4.20011C149.6 4.60011 149.6 5.10011 149.6 5.60011C149.6 6.10011 149.7 6.80011 149.7 7.60011C149.7 8.20011 149.7 8.80011 149.7 9.50011C149.7 10.2001 149.7 10.9001 149.7 11.6001L149.6 13.8001C149.6 14.5001 149.6 15.2001 149.6 15.8001C149.6 16.0001 149.6 16.3001 149.6 16.6001L149.5 18.7001C149.5 19.1001 149.5 19.4001 149.5 19.6001C149.5 20.4001 149.6 21.0001 150 21.5001C150.4 22.0001 151 22.2001 151.8 22.2001C152.1 22.2001 152.5 22.2001 152.9 22.1001C153.4 22.1001 153.8 22.0001 154.2 21.9001L155.1 21.7001L154.9 20.8001C154.9 20.6001 154.8 20.4001 154.8 20.1001C154.8 19.9001 154.7 19.7001 154.7 19.5001C154.7 19.3001 154.7 19.0001 154.7 18.8001V17.5001L154.8 13.9001C154.8 13.7001 154.8 13.5001 154.8 13.3001C155 13.3001 155.1 13.3001 155.3 13.3001C155.8 13.3001 156.4 13.3001 157 13.3001C158.7 13.3001 160.2 13.3001 161.5 13.4001C161.5 13.8001 161.5 14.2001 161.5 14.7001C161.5 15.2001 161.5 15.7001 161.5 16.3001C161.5 16.8001 161.5 17.4001 161.5 17.9001V20.3001C161.5 20.8001 161.7 21.2001 161.9 21.6001C162.4 22.3001 163.4 22.3001 163.7 22.3001C164.1 22.3001 164.6 22.3001 165 22.2001C165.5 22.1001 165.9 22.0001 166.3 21.9001L167.1 21.6001L167 20.8001C166.6 20.6001 166.5 20.1001 166.5 19.4001Z" fill="#E2211C"/>
<path d="M182.6 1.40005L182.4 0.300049L181.3 0.600049C180.5 0.800049 179.2 0.900049 177.2 0.800049C176.6 0.800049 176.1 0.800049 175.5 0.800049L173.8 0.700049C172.3 0.700049 170.9 0.700049 169.7 0.900049L168.6 1.10005L168.9 2.20005C169.2 3.10005 169.4 4.10005 169.4 5.30005C169.5 6.50005 169.6 7.90005 169.6 9.40005C169.6 11.3 169.6 13.2 169.5 15.1C169.4 17 169.4 18.9001 169.4 20.7001C169.4 21.7001 169.9 22.2 170.2 22.4C170.5 22.6 171 22.6 171.6 22.6C171.9 22.6 172.3 22.6 172.7 22.5C173.2 22.5 173.6 22.4 174 22.4L175 22.2001L174.8 21.2001C174.7 20.9001 174.7 20.5 174.7 20.1C174.7 19.7001 174.6 19.3 174.6 18.8C174.6 18.3 174.6 17.7001 174.6 17.1C174.6 16 174.6 14.9 174.6 13.7C174.6 12.5 174.6 11.3 174.6 10.3V6.90005C174.6 6.40005 174.6 6.00005 174.6 5.60005C175.2 5.60005 175.9 5.60005 176.5 5.70005C177.5 5.80005 178.4 5.80005 179.4 5.80005C180.4 5.80005 181.2 5.70005 181.6 5.40005C182 5.20005 182.6 4.70005 182.6 3.50005C182.6 3.30005 182.6 3.10005 182.6 2.70005C182.7 2.30005 182.7 1.80005 182.6 1.40005Z" fill="#E2211C"/>
<path d="M197 2.3001C196.3 1.7001 195.4 1.3001 194.3 1.0001C193.3 0.700098 192.2 0.600098 191.1 0.600098C190.2 0.600098 189.1 0.700098 187.8 0.800098C186.6 0.900098 185.3 1.1001 184 1.4001L183 1.6001L183.4 2.7001C183.6 3.2001 183.7 3.9001 183.8 4.6001C183.9 5.4001 184 6.2001 184 7.2001C184 7.9001 184.1 8.5001 184.1 9.1001V10.9001C184.1 13.1001 184.1 14.9001 184 16.4001C183.9 18.0001 183.9 19.4001 183.9 20.5001C183.9 21.4001 184.3 21.8001 184.6 22.1001C185 22.4001 185.5 22.5001 186.1 22.5001C186.4 22.5001 186.7 22.5001 187 22.4001C187.3 22.4001 187.6 22.3001 187.8 22.3001L189.6 21.9001L189.4 20.9001C189.3 20.5001 189.3 20.1001 189.2 19.7001C189.1 19.4001 189.1 19.0001 189.1 18.7001C189.1 18.3001 189 18.0001 189 17.7001V17.0001C189 16.6001 189 16.3001 189 16.0001C189 15.7001 189 15.4001 189 15.2001C189.1 15.2001 189.3 15.2001 189.4 15.2001H190.2C191.4 15.2001 192.5 15.1001 193.5 14.8001C194.6 14.5001 195.6 14.1001 196.4 13.5001C197.3 12.9001 197.9 12.1001 198.4 11.1001C198.9 10.1001 199.2 9.0001 199.2 7.6001C199.2 6.4001 199 5.3001 198.6 4.4001C198.4 3.6001 197.8 2.9001 197 2.3001ZM194 7.8001C194 8.7001 193.7 9.4001 193.2 9.8001C192.7 10.3001 191.8 10.5001 190.5 10.5001C190.2 10.5001 189.9 10.5001 189.7 10.5001C189.5 10.5001 189.3 10.5001 189.2 10.4001C189.2 9.7001 189.2 9.0001 189.2 8.4001C189.2 7.6001 189.2 6.8001 189.1 6.2001C189.1 5.8001 189.1 5.5001 189 5.2001C189.1 5.2001 189.3 5.2001 189.4 5.2001C190.3 5.1001 191.4 5.1001 192.2 5.3001C192.6 5.4001 192.9 5.5001 193.2 5.8001C193.4 6.0001 193.6 6.2001 193.8 6.5001C193.9 6.9001 194 7.3001 194 7.8001Z" fill="#E2211C"/>
<path d="M236.2 22.7999C236.2 21.9 236.2 20.9 236.2 19.9C236.2 19.4 236.1 19.0999 236 18.7999C235.9 18.5 235.6 18.2 235.1 18C234.8 17.9 234.4 17.7999 234.1 17.7999C234 17.7999 233.9 17.7999 233.8 17.7999C233.8 17.4 233.8 16.8 233.8 16.2C233.8 15 233.8 13.4 233.8 11.6C233.8 10.2 233.8 9.09995 233.9 8.09995C234 7.09995 234 6.29995 234.1 5.59995C234.2 4.89995 234.2 4.39995 234.2 3.99995C234.3 3.49995 234.3 3.19995 234.3 2.89995C234.3 2.59995 234.3 2.29995 234.2 2.09995C234.1 1.79995 233.9 1.39995 233.5 1.19995C233.2 0.999951 232.9 0.899951 232.4 0.799951C232.1 0.699951 231.6 0.699951 231 0.699951C230.5 0.699951 230 0.699951 229.4 0.699951C228.8 0.699951 228.1 0.699951 227.4 0.699951C226.6 0.699951 225.7 0.699951 224.7 0.699951C223.7 0.699951 222.6 0.799951 221.3 0.799951L220.1 0.899951L220.4 2.09995C220.7 3.19995 220.8 4.29995 220.7 5.29995C220.6 7.09995 220.5 8.69995 220.3 9.99995C220.1 11.3 219.9 12.6 219.6 13.6C219.3 14.6 219 15.5 218.6 16.3C218.3 16.9 217.9 17.5 217.5 18C216.9 18.1 216.4 18.2 216.1 18.5C216.1 18.5 216.1 18.6 216 18.6C216 18.4 215.9 18.2 215.9 18L215.7 17L214.7 17.2999C214 17.5 213.3 17.6 212.7 17.7C211.8 17.8 210.5 17.7999 209.1 17.9H207.1C207.1 17.1 207.1 16.4 207.1 15.7V13.8C207.3 13.8 207.4 13.8 207.6 13.8L209.2 13.9L210.7 14C212.2 14.1 213.2 14 213.9 13.4C214.3 13 214.5 12.4 214.5 11.5C214.5 11.3 214.5 11.1 214.5 10.9L214.3 8.89995L213.3 9.09995C213.1 9.09995 212.9 9.19995 212.7 9.19995C212.5 9.19995 212.3 9.19995 212.1 9.29995H211.3C210.2 9.29995 209.3 9.29995 208.5 9.29995C208 9.29995 207.6 9.29995 207.2 9.19995V8.09995C207.2 7.39995 207.2 6.79995 207.2 6.29995C207.2 6.09995 207.2 5.79995 207.2 5.59995C207.9 5.59995 208.5 5.59995 209.2 5.69995C210.2 5.79995 211.2 5.79995 212.1 5.79995C213.2 5.79995 213.9 5.69995 214.4 5.49995C214.8 5.29995 215.5 4.79995 215.5 3.59995C215.5 3.49995 215.5 3.19995 215.5 2.89995C215.5 2.49995 215.4 2.09995 215.3 1.59995L215.1 0.699951L214.2 0.799951C213.7 0.899951 213.2 0.899951 212.7 0.999951C212.2 0.999951 211.6 0.999951 210.9 0.999951H209.5C209 0.999951 208.5 0.999951 207.9 0.999951C207.4 0.999951 206.9 0.999951 206.4 0.999951C205.2 0.999951 204.4 0.999951 203.7 0.999951C203.2 0.999951 202.8 1.09995 202.4 1.19995L201.4 1.39995L201.7 2.39995C201.8 2.59995 201.8 2.89995 201.9 3.09995V3.19995C202 3.39995 202 3.59995 202.1 3.79995C202.1 3.99995 202.2 4.29995 202.2 4.49995C202.2 4.79995 202.3 5.09995 202.3 5.49995C202.3 6.19995 202.4 6.99995 202.4 7.79995C202.4 8.59995 202.4 9.49995 202.4 10.4C202.4 12.7 202.4 14.7 202.4 16.4C202.4 18.1 202.3 19.7999 202.2 21.4L202.1 22.4L203.1 22.5C204.2 22.6 205.5 22.7 206.8 22.7C208.1 22.8 209.3 22.7999 210.5 22.7999C211.6 22.7999 212.5 22.7999 213.2 22.7999C214 22.7999 214.5 22.7 215 22.6C215.4 22.5 215.7 22.4 215.9 22.2V23.2C215.9 23.7 215.9 24.2 215.9 24.6C215.9 25.1 215.9 25.5 216 25.7999C216.1 26.4 216.2 26.7999 216.4 27C216.9 27.6 217.7 27.6 218 27.6C218.4 27.6 218.8 27.6 219.1 27.5C219.4 27.5 219.7 27.4 220 27.2999C220.3 27.1999 220.5 27.1 220.7 27L221.4 26.6L221.2 25.7999C221.1 25.5 221 25.1 221 24.7C220.9 24.4 220.9 23.9 220.8 23.4C220.8 23.1999 220.8 22.9 220.7 22.6C220.9 22.6 221.1 22.6 221.3 22.6C221.9 22.6 222.4 22.6 223.1 22.6C223.7 22.6 224.3 22.6 224.9 22.6C225.5 22.6 226.1 22.6 226.6 22.6H228.2C228.8 22.6 229.3 22.6 229.9 22.6C230.5 22.6 231 22.6 231.6 22.6C231.7 22.6 231.9 22.6 232 22.6V25C232 25.4 232 25.6999 232.1 25.9C232.2 26.2999 232.3 26.6 232.6 26.9C232.9 27.1999 233.2 27.2999 233.5 27.4C233.8 27.5 234.1 27.5 234.6 27.5C235.2 27.5 235.8 27.4 236.6 27.2L237.4 27L237.3 26.1C236.3 24.8 236.2 23.7999 236.2 22.7999ZM228.5 17.7C228.2 17.7 228 17.7 227.7 17.7H226.1C225.3 17.7 224.4 17.7 223.5 17.7C223.3 17.7 223 17.7 222.8 17.7C222.9 17.5 223 17.2 223.1 17C223.5 16.1 223.8 15.1 224.1 14C224.4 12.8 224.6 11.4 224.8 9.89995C225 8.59995 225.1 6.99995 225.2 5.29995C225.8 5.29995 226.5 5.29995 227.1 5.29995C227.6 5.29995 228.2 5.29995 228.7 5.29995C228.6 6.69995 228.6 7.99995 228.5 9.09995C228.5 10.5 228.4 11.9 228.4 13.3V15.8C228.5 16.4 228.5 17 228.5 17.7Z" fill="#E2211C"/>
<path d="M255.1 20.1001L255 19.2001C255 18.9001 255 18.7001 255 18.4001C255 17.3001 254.9 16.0001 254.9 14.7001V10.7001C254.9 10.1001 254.9 9.4001 254.9 8.7001L255 6.5001C255 5.7001 255.1 5.0001 255.1 4.4001C255.1 3.7001 255.1 3.2001 255.1 2.7001C255.1 2.0001 254.9 1.5001 254.6 1.2001C254.1 0.700098 253.2 0.600098 251.9 0.800098C251.4 0.800098 250.9 0.900098 250.5 1.0001H250.1L249.9 1.3001C249.3 2.2001 248.6 3.2001 247.9 4.3001C247.1 5.5001 246.3 6.7001 245.5 8.0001C244.7 9.3001 243.9 10.6001 243 11.9001C242.9 12.1001 242.8 12.2001 242.7 12.4001C242.7 11.9001 242.7 11.4001 242.8 10.8001L242.9 8.3001C242.9 7.4001 242.9 6.6001 242.9 5.9001C242.9 5.1001 242.9 4.4001 242.9 3.8001C242.9 3.2001 242.9 2.6001 242.9 2.2001C242.9 1.9001 242.8 0.600098 240.9 0.600098C240.4 0.600098 239.9 0.600098 239.5 0.700098C239 0.700098 238.5 0.800098 238 1.0001L237 1.3001L237.2 2.2001C237.3 2.5001 237.3 2.7001 237.4 3.0001C237.4 3.2001 237.5 3.4001 237.5 3.6001C237.5 3.8001 237.6 4.1001 237.6 4.3001C237.6 4.6001 237.6 4.9001 237.6 5.3001C237.6 6.1001 237.6 6.9001 237.6 7.8001V10.6001C237.6 11.5001 237.6 12.5001 237.6 13.4001C237.6 14.4001 237.6 15.3001 237.6 16.1001C237.6 16.9001 237.6 17.6001 237.6 18.3001V20.5001V20.6001C237.6 20.9001 237.7 21.2001 237.9 21.5001C238.1 21.8001 238.4 22.0001 238.7 22.1001C239.2 22.3001 239.9 22.3001 240.8 22.2001C241.2 22.2001 241.6 22.1001 242 22.0001L242.5 21.9001L242.7 21.5001C242.9 21.2001 243.1 20.7001 243.4 20.1001C243.8 19.4001 244.2 18.7001 244.7 17.9001C245.2 17.1001 245.7 16.2001 246.3 15.2001C246.9 14.2001 247.5 13.2001 248.1 12.2001C248.7 11.2001 249.3 10.3001 249.9 9.3001C249.9 9.5001 249.9 9.7001 249.9 10.0001C249.9 10.7001 249.9 11.3001 249.9 12.0001L249.8 15.8001C249.8 16.4001 249.8 17.0001 249.8 17.6001C249.8 18.1001 249.8 18.6001 249.8 19.1001V20.1001C249.8 20.8001 250 21.4001 250.5 21.8001C250.9 22.1001 251.4 22.2001 252.1 22.2001C252.4 22.2001 252.7 22.2001 253.1 22.1001C253.6 22.1001 254.1 21.9001 254.6 21.8001L255.3 21.5001L255.2 20.7001C255.1 20.7001 255.1 20.4001 255.1 20.1001Z" fill="#E2211C"/>
<path d="M272.3 18.5001C272.3 18.3001 272.2 18.1001 272.2 17.9001L272 16.9001L271 17.2001C270.3 17.4001 269.6 17.5001 269 17.6001C268.1 17.7001 266.8 17.7001 265.4 17.8001H263.4C263.4 17.0001 263.4 16.3001 263.4 15.6001V13.7001C263.6 13.7001 263.7 13.7001 263.9 13.7001L265.5 13.8001L267 13.9001C268.5 14.0001 269.5 13.9001 270.2 13.3001C270.6 12.9001 270.8 12.3001 270.8 11.4001C270.8 11.2001 270.8 11.0001 270.8 10.8001L270.6 8.8001L269.6 9.0001C269.4 9.0001 269.2 9.1001 269 9.1001C268.8 9.1001 268.6 9.1001 268.4 9.2001H267.6C266.5 9.2001 265.6 9.2001 264.8 9.2001C264.3 9.2001 263.9 9.2001 263.5 9.1001V8.0001C263.5 7.3001 263.5 6.7001 263.5 6.2001C263.5 6.0001 263.5 5.7001 263.5 5.5001C264.2 5.5001 264.8 5.5001 265.5 5.6001C266.5 5.7001 267.5 5.7001 268.4 5.7001C269.5 5.7001 270.2 5.6001 270.7 5.4001C271.1 5.2001 271.8 4.7001 271.8 3.5001C271.8 3.4001 271.8 3.1001 271.8 2.8001C271.8 2.4001 271.7 2.0001 271.6 1.5001L271.4 0.600098L270.5 0.700098C270 0.800098 269.5 0.800098 269 0.900098C268.5 0.900098 267.9 0.900098 267.2 0.900098H265.8C265.3 0.900098 264.7 0.900098 264.2 0.900098C263.7 0.900098 263.1 0.900098 262.7 0.900098C261.5 0.900098 260.7 0.900098 260 0.900098C259.5 0.900098 259.1 1.0001 258.7 1.1001L257.7 1.3001L258 2.3001C258.1 2.5001 258.1 2.8001 258.2 3.1001C258.3 3.3001 258.3 3.5001 258.4 3.7001C258.4 3.9001 258.5 4.2001 258.5 4.4001C258.5 4.7001 258.6 5.0001 258.6 5.4001C258.6 6.1001 258.7 6.9001 258.7 7.7001C258.7 8.5001 258.7 9.4001 258.7 10.3001C258.7 12.6001 258.7 14.6001 258.7 16.3001C258.7 18.0001 258.6 19.7001 258.5 21.3001L258.4 22.3001L259.4 22.4001C260.5 22.5001 261.8 22.6001 263.1 22.6001C264.4 22.7001 265.6 22.7001 266.8 22.7001C267.9 22.7001 268.8 22.7001 269.5 22.7001C270.3 22.7001 270.8 22.6001 271.3 22.5001C271.9 22.3001 272.4 22.0001 272.6 21.7001C272.9 21.3001 273 20.9001 273 20.3001C273 20.0001 273 19.7001 272.9 19.4001C272.4 18.9001 272.4 18.7001 272.3 18.5001Z" fill="#E2211C"/>
<path d="M291.4 19.4001C291.4 18.6001 291.4 17.8001 291.3 16.7001C291.3 15.7001 291.3 14.7001 291.3 13.6001V10.7001C291.3 10.1001 291.3 9.40011 291.3 8.70011L291.4 6.40011C291.4 5.60011 291.5 4.90011 291.5 4.20011C291.5 3.50011 291.6 3.00011 291.6 2.50011C291.6 1.60011 291.2 1.20011 290.9 1.00011C290.3 0.600109 289.4 0.600109 288.3 0.800109C287.8 0.800109 287.3 0.900109 286.8 1.00011L286 1.20011V2.00011C286 2.60011 286.1 3.10011 286.1 3.60011C286.1 4.00011 286.2 4.40011 286.2 4.90011C286.2 5.30011 286.3 5.70011 286.3 5.90011V8.90011C285.8 8.90011 285.4 8.80011 285 8.80011C283.6 8.70011 282.1 8.70011 280.7 8.80011C280.4 8.80011 280.1 8.80011 279.7 8.80011C279.7 8.60011 279.7 8.40011 279.7 8.10011C279.7 7.30011 279.8 6.60011 279.8 5.80011C279.8 5.00011 279.9 4.30011 279.9 3.60011C279.9 2.90011 279.9 2.40011 279.9 2.00011C279.9 1.30011 279.4 0.700109 278.7 0.600109C277.8 0.500109 277.1 0.500109 276.2 0.700109C275.7 0.800109 275.2 0.900109 274.7 1.00011L273.7 1.20011L274 2.20011C274.1 2.50011 274.2 2.80011 274.2 3.20011C274.3 3.50011 274.3 3.80011 274.4 4.20011C274.5 4.60011 274.5 5.10011 274.5 5.60011C274.5 6.10011 274.6 6.80011 274.6 7.60011C274.6 8.20011 274.6 8.80011 274.6 9.50011C274.6 10.2001 274.6 10.9001 274.6 11.6001L274.5 13.8001C274.5 14.5001 274.5 15.2001 274.5 15.8001C274.5 16.0001 274.5 16.3001 274.5 16.6001L274.4 18.7001C274.4 19.1001 274.4 19.4001 274.4 19.6001C274.4 20.4001 274.5 21.0001 274.9 21.5001C275.3 22.0001 275.9 22.2001 276.7 22.2001C277 22.2001 277.4 22.2001 277.8 22.1001C278.3 22.1001 278.7 22.0001 279.1 21.9001L280 21.7001L279.7 20.1001C279.7 19.9001 279.6 19.7001 279.6 19.5001C279.6 19.3001 279.6 19.0001 279.6 18.8001V17.5001L279.7 13.9001C279.7 13.7001 279.7 13.5001 279.7 13.3001C279.9 13.3001 280 13.3001 280.2 13.3001C280.7 13.3001 281.3 13.3001 281.9 13.3001C283.6 13.3001 285.1 13.3001 286.4 13.4001C286.4 13.8001 286.4 14.2001 286.4 14.7001C286.4 15.2001 286.4 15.7001 286.4 16.3001C286.4 16.8001 286.4 17.4001 286.4 17.9001V20.3001C286.4 20.8001 286.6 21.2001 286.8 21.6001C287.3 22.3001 288.3 22.3001 288.6 22.3001C289 22.3001 289.5 22.3001 289.9 22.2001C290.4 22.1001 290.8 22.0001 291.2 21.9001L292 21.6001L291.9 20.8001C291.5 20.6001 291.4 20.1001 291.4 19.4001Z" fill="#E2211C"/>
<path d="M309.3 1.9L309.1 0L307.9 0.4C307.3 0.6 306.5 0.7 305.5 0.7C304.4 0.7 303 0.8 301.4 0.8H299.7L297.9 0.7C297.3 0.7 296.7 0.7 296.1 0.7C295.5 0.7 295 0.7 294.5 0.7C293.8 0.7 293.2 0.9 292.9 1.3C292.6 1.7 292.4 2.2 292.4 2.8L292.6 5.3L293.4 5.4C293.7 5.4 294.1 5.5 294.5 5.5C294.9 5.5 295.4 5.6 296 5.6L298.3 5.7C298.3 6.5 298.3 7.3 298.2 8.2L298.1 15.8C298.1 17 298.1 18.1 298.1 19C298.1 19.4 298.1 19.8 298.1 20.2C298.1 20.6 298.2 20.9 298.3 21.2V21.3C298.5 21.7 298.7 22 299 22.2L299.1 22.3C299.4 22.5 299.9 22.5 300.5 22.5C300.8 22.5 301.1 22.5 301.5 22.4C302 22.4 302.4 22.3 302.8 22.2L303.6 22L303.3 20.4C303.3 20.2 303.2 20 303.2 19.8C303.2 19.6 303.2 19.4 303.2 19.1C303.2 18.7 303.2 18.3 303.2 17.8C303.2 17.2 303.2 16.7 303.2 16.1V13.2C303.2 11.9 303.2 10.5 303.2 9.1C303.2 8 303.2 6.8 303.2 5.7H304.9C305.3 5.7 305.7 5.7 306.1 5.6C306.5 5.6 306.8 5.6 307.1 5.5C307.4 5.5 308.4 5.4 308.8 4.6C309 4.2 309.1 3.7 309.1 3.1C309.1 2.9 309.1 2.6 309.1 2.4C309.3 2.3 309.3 2.1 309.3 1.9Z" fill="#E2211C"/>
<path d="M332.2 21C332.2 20.6 332.1 20.1 332.1 19.5C332.1 18.7999 332.1 18 332 17.1C332 16.2 332 15.2 332 14.2V11C332 9.09995 332 7.49995 332.1 5.99995C332.2 4.49995 332.2 3.39995 332.2 2.59995C332.2 1.69995 331.8 1.29995 331.4 0.999951C330.9 0.699951 330.3 0.699951 329.5 0.699951C329.2 0.699951 328.9 0.699951 328.7 0.799951C328.4 0.799951 328.1 0.899951 327.8 0.899951C327.5 0.899951 327.3 0.999951 327.1 0.999951L326.2 1.19995L326.3 2.09995C326.3 2.39995 326.4 2.69995 326.4 2.89995C326.4 3.09995 326.5 3.39995 326.5 3.69995C326.5 3.99995 326.6 4.19995 326.6 4.39995C326.6 5.19995 326.7 6.09995 326.7 7.19995C326.7 8.29995 326.7 9.59995 326.7 10.9C326.7 12.1 326.7 13.1 326.7 14.2L326.6 17C326.6 17.7999 326.6 18.5 326.6 19.2C326.6 19.8 326.6 20.3 326.6 20.7C326.6 21.2 326.8 21.6 327 22C327.5 22.7 328.5 22.7 328.8 22.7C329.2 22.7 329.7 22.7 330.1 22.6C330.6 22.5 331 22.4 331.4 22.2999L332.1 22L332.2 21Z" fill="#E2211C"/>
<path d="M324 9.8001C323.3 9.2001 322.5 8.8001 321.6 8.5001C320 8.0001 318 8.0001 316.4 8.3001C316.2 8.3001 315.9 8.4001 315.7 8.4001C315.7 7.5001 315.7 6.6001 315.7 5.9001C315.7 4.8001 315.7 3.8001 315.6 3.1001C315.6 2.4001 315.5 1.9001 315.3 1.5001C315.1 1.1001 314.6 0.600098 313.6 0.600098C313.2 0.600098 312.7 0.600098 312.2 0.700098C311.7 0.800098 311.1 0.900098 310.5 1.1001L309.5 1.4001L310 3.0001V3.1001C310 3.2001 310.1 3.4001 310.1 3.6001C310.1 3.8001 310.2 4.0001 310.2 4.3001C310.3 4.6001 310.3 4.9001 310.3 5.3001C310.3 5.7001 310.4 6.2001 310.4 6.7001C310.4 7.2001 310.5 7.7001 310.5 8.3001C310.5 8.8001 310.6 9.3001 310.6 9.9001C310.6 10.4001 310.6 10.9001 310.6 11.4001C310.6 12.8001 310.6 14.4001 310.5 16.0001C310.4 17.6001 310.3 19.1001 310.2 20.6001V21.3001L310.9 21.6001C311.4 21.8001 312 21.9001 312.6 22.1001C313.1 22.2001 313.8 22.3001 314.5 22.4001C315.2 22.5001 316.1 22.5001 317 22.5001C318.3 22.5001 319.5 22.4001 320.5 22.1001C321.6 21.8001 322.6 21.4001 323.4 20.8001C324.2 20.2001 324.9 19.3001 325.4 18.4001C325.9 17.4001 326.1 16.3001 326.1 15.0001C326.1 13.9001 325.9 12.9001 325.5 12.1001C325.2 11.1001 324.7 10.4001 324 9.8001ZM320.8 15.2001C320.8 15.7001 320.7 16.1001 320.6 16.4001C320.4 16.7001 320.2 16.9001 319.9 17.2001C319.6 17.4001 319.3 17.6001 318.8 17.7001C318 17.9001 316.9 17.9001 316.1 17.8001C315.8 17.8001 315.6 17.7001 315.4 17.7001C315.4 17.3001 315.5 16.9001 315.5 16.5001C315.5 15.9001 315.6 15.2001 315.6 14.5001V13.1001C315.8 13.1001 316 13.0001 316.2 13.0001C316.7 12.9001 317.2 12.8001 318 12.8001C319 12.8001 319.7 13.0001 320.1 13.4001C320.6 13.8001 320.8 14.4001 320.8 15.2001Z" fill="#E2211C"/>
</svg>
