<svg width="571" height="48" viewBox="0 0 571 48" fill="none" xmlns="http://www.w3.org/2000/svg">
<path d="M33 33.7C32.9 32.5 32.8 31.1999 32.7 29.7999C32.6 28.2999 32.6 26.9 32.6 25.4C32.6 23.9 32.6 22.7 32.6 21.6C32.6 17.8 32.7 14.5 32.8 11.8C33 8.89995 33.1 6.79995 33.1 5.39995C33.1 4.89995 33 4.39995 32.9 3.89995C32.7 3.19995 32.2 2.59995 31.5 2.19995C31 1.89995 30.4 1.69995 29.7 1.59995C29.1 1.49995 28.4 1.39995 27.5 1.39995C26.8 1.39995 26 1.29995 25 1.39995C22.9 1.29995 20.1 1.29995 16.8 1.39995C15.1 1.39995 13.1 1.49995 10.8 1.59995H8.3L8.8 3.99995C9 4.59995 9.1 5.29995 9.1 5.89995C9.2 6.49995 9.2 7.29995 9.2 8.09995C9.2 9.79995 9.1 11.6 9 13.5C8.9 15.3 8.7 17.2 8.3 19.1C7.9 21.7 7.4 23.9 6.9 25.4C6.4 26.9 5.9 28 5.4 28.7C4.9 29.5 4.5 29.6999 4.3 29.7999C3.8 30 3.5 30.1 3.1 30C3 30 3 30 2.9 30L1 29.2999L0.5 31.4C0.4 31.7999 0.3 32.1999 0.2 32.5999C0.1 32.9999 0.1 33.5 0 33.9C0 34.4 0 34.7999 0 35.2C0 36.7 0.3 37.7 1.1 38.4L1.2 38.5C1.9 39.0999 2.9 39.4 4.4 39.4C6 39.4 7.6 39 9 38.2999C10.4 37.5 11.7 36.2999 12.9 34.5999C13.9 32.9999 14.8 31 15.6 28.5C16.4 26.1 17 23.1 17.5 19.7C17.8 17.6 18 15.6 18.1 13.7C18.2 12.4 18.3 11.1 18.3 9.89995C18.4 9.89995 18.5 9.89995 18.7 9.89995C20.3 9.79995 21.9 9.79995 23.4 9.89995H23.5C23.4 12.1 23.3 14.3 23.3 16.5C23.3 19.3 23.3 22.1 23.3 25V31C23.3 32.7999 23.4 34.4 23.4 35.9C23.5 36.9 23.7 37.7 24.3 38.4L24.5 38.5999C25.2 39.1999 26.1 39.4 27.4 39.4C28.2 39.4 29 39.2999 29.9 39.2C30.8 39 31.6 38.8999 32.3 38.5999L34.1 38L33.6 36.2C33.3 35.7999 33.1 35.1 33 33.7Z" fill="#E2211C"/>
<path d="M63.8001 1.69995C63.1001 1.39995 62.2001 1.19995 61.0001 1.19995C60.5001 1.19995 60.0001 1.19995 59.5001 1.29995C59.1001 1.29995 58.7001 1.39995 58.4001 1.49995C58.0001 1.59995 57.6001 1.59995 57.4001 1.69995L56.0001 2.09995L55.9001 3.59995C55.8001 4.79995 55.6001 6.29995 55.3001 7.99995C55.0001 9.69995 54.6001 11.5 54.0001 13.4C53.5001 15.2 52.9001 17.0999 52.3001 18.9C52.3001 19 52.2001 19.1 52.2001 19.1C52.1001 18.8 51.9001 18.5 51.8001 18.2C51.0001 16.4 50.1001 14.6 49.2001 13C48.4001 11.3 47.5001 9.69995 46.7001 8.19995C45.9001 6.69995 45.1001 5.39995 44.4001 4.19995C43.9001 3.29995 43.4001 2.69995 42.9001 2.29995C42.4001 1.79995 41.5001 1.29995 40.1001 1.29995C39.3001 1.29995 38.5001 1.49995 37.7001 1.89995C37.2001 2.19995 36.7001 2.49995 36.1001 2.79995C35.6001 3.09995 35.0001 3.59995 34.5001 3.99995L33.1001 5.19995L34.2001 6.69995C36.6001 10.1 39.0001 13.8 41.2001 17.7C43.2001 21.2 45.1001 25.1 46.9001 29.1C46.0001 30 45.1001 30.1 44.5001 30.1C44.1001 30.1 43.8001 30.1 43.5001 30C43.4001 30 43.1001 29.9 42.6001 29.6L40.8001 28.6L39.8001 30.4C39.4001 31.1 39.1001 31.9 38.8001 32.7C38.5001 33.6 38.4001 34.4 38.4001 35.2C38.4001 37 39.3001 38.4 40.7001 39C41.7001 39.5 43.0001 39.7 44.5001 39.7C46.2001 39.7 47.8001 39.2999 49.3001 38.5C50.7001 37.7 51.9001 36.7 53.1001 35.2999C54.2001 34 55.4001 32.4 56.4001 30.5C57.4001 28.7 58.5001 26.5999 59.6001 24.2999C60.0001 23.4 60.5001 22.3 61.0001 21.1C61.5001 19.9 62.0001 18.6999 62.4001 17.4C62.9001 16.0999 63.3001 14.9 63.7001 13.7C64.1001 12.4 64.5001 11.3 64.8001 10.2C65.0001 8.99995 65.2001 7.99995 65.4001 7.19995C65.6001 6.19995 65.7001 5.49995 65.7001 4.89995C65.7001 2.79995 64.5001 1.99995 63.8001 1.69995Z" fill="#E2211C"/>
<path d="M89.2 1.39995C88.3 1.49995 87.4 1.59995 86.6 1.79995L85 2.19995L85.1 3.89995C85.2 5.09995 85.3 6.19995 85.3 7.29995C85.4 8.29995 85.4 9.29995 85.4 10.4C85.4 11.4 85.4 12.4 85.4 13.5V16C85.3 16.1 85.1 16.2 85 16.4C84.6 16.7 84.1 17.0999 83.5 17.4C83 17.6999 82.3 18 81.6 18.2C80.8 18.4 80 18.5 79 18.5C78.3 18.5 77.1 18.4 76.8 17.9C76.5 17.4 76.1 16.5 76.1 14.6C76.1 13.8 76.1 13 76.1 12.1L76.3 7.09995C76.3 6.29995 76.3 5.49995 76.3 4.89995C76.3 3.69995 75.9 2.69995 75.2 2.09995C74.6 1.49995 73.6 1.19995 72.5 1.19995C71.6 1.19995 70.6 1.29995 69.8 1.49995L65.2 2.49995L66 4.69995C66.3 5.69995 66.5 6.69995 66.6 7.59995C66.7 8.49995 66.8 9.39995 66.8 10.3C66.8 11.1 66.8 12.1 66.8 13.1C66.8 14.2 66.8 15.3 66.8 16.4C66.9 20 67.8 22.8 69.7 24.7C71.6 26.6 74.4 27.6 78.1 27.6C79.6 27.6 81 27.4 82.2 27.1C83.3 26.8 84.4 26.4 85.3 25.9C85.3 25.9 85.3 25.9 85.4 25.9C85.4 26.6 85.4 27.3 85.4 28.1C85.4 29.1 85.4 30.1 85.4 31.1C85.4 32 85.4 32.9 85.4 33.7999V35.7C85.4 36.7999 85.7 37.7 86.4 38.2999L86.5 38.4C87.2 39 88.1 39.2999 89.4 39.2999C90 39.2999 90.6 39.1999 91.3 39.0999C92 39 92.9 38.7999 93.8 38.5L95.2 38.0999V36.5999C95.2 36.5999 95.2 36.2999 95.1 35.7999C95.1 35.3999 95 35 95 34.5C95 33.9 95 33.3999 94.9 32.7999C94.9 32.1999 94.9 31.7999 94.9 31.4V21.9C94.9 19.6999 94.9 17.7 94.9 16C95 14.3 95 12.7 95 11.4C95 9.99995 95 8.79995 95 7.79995C95.1 6.69995 95.1 5.69995 95.1 4.79995C95.1 3.49995 94.7 2.59995 94 1.99995C93 1.19995 91.4 1.19995 89.2 1.39995Z" fill="#E2211C"/>
<path d="M141.6 35.9C141.6 35.4 141.5 34.8999 141.5 34.2999L141.4 32.4V30.7C141.4 27.8 141.4 25.1 141.4 22.7C141.5 20.2 141.5 17.9 141.5 15.9C141.6 13.8 141.6 11.9 141.6 10.1C141.7 8.29995 141.7 6.59995 141.7 4.99995C141.7 3.29995 141 2.49995 140.4 2.09995C139.7 1.59995 138.9 1.39995 137.9 1.39995C137.2 1.39995 136.5 1.49995 135.7 1.59995C134.9 1.69995 134.1 1.79995 133.4 1.89995L131.7 2.19995L131.8 3.89995C131.8 4.69995 131.9 5.49995 131.9 6.19995L132 8.19995C132 8.79995 132 9.39995 132 9.79995C132 14.3 132 18.5 131.9 22.2999C131.9 25.4 131.8 28.1 131.8 30.7C130.9 30.7 130 30.7999 129.1 30.7999C127.9 30.7999 126.5 30.7999 125 30.9C125 28.7999 125 26.7 125 24.7C125.1 22 125.1 19.5 125.2 17.1C125.3 14.7 125.3 12.5 125.3 10.5C125.4 8.49995 125.4 6.69995 125.4 5.19995C125.4 3.59995 124.7 2.69995 124.2 2.29995C123.5 1.79995 122.6 1.49995 121.6 1.49995C120.9 1.49995 120.2 1.49995 119.5 1.59995C118.6 1.59995 117.8 1.79995 117 1.89995L115.4 2.29995L115.5 3.89995C115.5 4.49995 115.6 5.29995 115.6 6.09995C115.6 6.79995 115.6 7.69995 115.6 8.89995C115.6 9.99995 115.6 11.3 115.6 12.8C115.6 14.2 115.6 15.7 115.6 17.5C115.6 19.2 115.6 21 115.6 22.7999C115.6 24.5999 115.6 26.4 115.5 28.1C115.5 29 115.5 29.9 115.4 30.7C113.8 30.7 112.3 30.7 111.1 30.6C110.1 30.6 109.2 30.5 108.3 30.5C108.4 29.1 108.4 27.6 108.5 26C108.6 23.7 108.7 21.1999 108.8 18.7999C108.9 16.2999 109 13.9 109 11.4C109.1 8.89995 109.1 6.59995 109.1 4.29995C109.1 3.29995 108.6 2.39995 107.7 1.79995C107.1 1.39995 106.3 1.19995 105.1 1.19995C104.2 1.19995 103.3 1.29995 102.6 1.39995C102 1.49995 101.2 1.69995 100.2 1.89995L98.3999 2.29995L98.5999 4.09995C98.6999 4.59995 98.6999 5.09995 98.7999 5.49995V5.69995C98.8999 5.99995 98.8999 6.39995 98.9999 6.89995C99.0999 7.29995 99.0999 7.79995 99.0999 8.39995C99.0999 8.99995 99.0999 9.59995 99.0999 10.4C99.0999 12.7 99.0999 15.2 98.9999 17.7C98.8999 20.2 98.8999 22.6 98.7999 24.9C98.6999 27.1999 98.6999 29.1999 98.5999 30.9C98.4999 32.6999 98.4999 33.9 98.4999 34.7C98.4999 36 98.7999 37 99.3999 37.7L99.4999 37.7999C100.2 38.5 101.2 38.9 102.6 39C103.1 39 103.8 39.0999 104.6 39.0999C105.5 39.0999 106.6 39.0999 107.7 39.0999C108.9 39.0999 110.3 39.1999 111.7 39.0999C113.2 39.0999 114.7 39.0999 116.3 39.0999H125.9C129.1 39.0999 131.9 39.0999 134.1 39C136.4 38.9 138.2 38.7999 139.6 38.5999L141.9 38.2L141.2 36.0999C141.6 36.1999 141.6 36 141.6 35.9Z" fill="#E2211C"/>
<path d="M176.8 34.8L176.7 33.3C176.7 32.8 176.7 32.4 176.7 32C176.6 30.1 176.6 28 176.6 25.7001V18.8C176.6 17.8 176.6 16.6 176.6 15.3L176.7 11.5C176.8 10.2 176.8 9.00005 176.8 7.90005C176.8 6.70005 176.8 5.80005 176.8 5.00005C176.8 3.80005 176.5 2.90005 175.8 2.20005C175.2 1.60005 174.3 1.30005 173.2 1.30005C172.5 1.30005 171.8 1.40005 170.9 1.50005C170 1.60005 169.2 1.70005 168.5 1.80005L167.7 2.00005L167.2 2.70005C166.2 4.20005 165.1 5.90005 163.7 7.90005C162.4 9.90005 161 12 159.6 14.2C158.2 16.3 156.8 18.6 155.4 20.8C155.4 20.3 155.4 19.7001 155.5 19.1L155.6 14.8C155.6 13.3 155.6 11.9 155.6 10.7C155.6 9.40005 155.6 8.20005 155.6 7.20005C155.6 6.10005 155.6 5.20005 155.6 4.40005C155.6 3.00005 154.6 1.40005 151.9 1.40005C151 1.40005 150.2 1.50005 149.5 1.60005C148.7 1.70005 147.8 1.80005 146.8 2.10005L145 2.60005L145.3 4.40005C145.4 4.90005 145.5 5.30005 145.5 5.70005V5.90005C145.6 6.20005 145.6 6.60005 145.7 6.90005C145.8 7.30005 145.8 7.70005 145.8 8.10005C145.8 8.50005 145.8 9.10005 145.8 9.70005C145.8 11 145.8 12.4 145.8 14.1V18.9C145.8 20.5 145.8 22.1 145.8 23.8C145.8 25.4 145.8 27 145.8 28.4C145.8 29.8 145.8 31 145.8 32.2001V35.9001V36.1C145.9 36.7 146 37.2001 146.3 37.7001L146.4 37.9001C146.8 38.4001 147.3 38.8 147.9 39.1C148.8 39.5 149.9 39.5 151.7 39.4001C152.4 39.4001 153.1 39.3 153.8 39.1L154.7 38.9001L155.1 38C155.4 37.4001 155.8 36.6 156.4 35.5C157 34.4001 157.8 33.1 158.6 31.7001C159.4 30.3001 160.3 28.7001 161.4 27C162.4 25.3 163.5 23.6 164.6 21.9C165.4 20.5 166.3 19.2 167.1 17.8V17.9C167.1 19.1 167.1 20.2 167.1 21.4V24.4L167 27.9C167 29 167 30 167 31.1C167 32 167 32.9001 167 33.7001V35.5C167 36.9001 167.4 37.9 168.1 38.6L168.2 38.7001C168.9 39.3 169.8 39.5 171.2 39.5C171.7 39.5 172.3 39.5 173 39.4001C173.8 39.3001 174.7 39.1 175.6 38.8L177.1 38.3L176.9 36.7001C176.9 35.9001 176.9 35.4 176.8 34.8Z" fill="#E2211C"/>
<path d="M206.4 32.0001C206.3 31.6001 206.3 31.3001 206.2 31.0001L205.7 29.0001L203.7 29.6001C202.5 29.9001 201.4 30.2001 200.3 30.3001C198.7 30.5001 196.6 30.5001 194.1 30.6001H191C191 29.3001 191 28.2001 191 27.1001L191.1 24.2001C191.3 24.2001 191.4 24.2001 191.6 24.3001L194.4 24.5001C195.3 24.5001 196.1 24.6001 196.9 24.6001C197.7 24.6001 198.5 24.6001 199.1 24.6001C200.6 24.6001 201.6 24.3001 202.5 23.5001C203.3 22.7001 203.7 21.6001 203.7 20.1001C203.7 19.7001 203.7 19.4001 203.6 19.0001C203.6 18.7001 203.5 18.4001 203.5 18.2001C203.5 17.9001 203.4 17.6001 203.4 17.4001L203.1 15.3001L201 15.7001C200.7 15.8001 200.4 15.8001 200.1 15.8001C199.8 15.8001 199.4 15.9001 199 15.9001H197.7C195.9 15.9001 194.3 15.9001 192.9 15.9001C192.2 15.9001 191.5 15.8001 190.9 15.8001C190.9 15.3001 190.9 14.7001 190.9 14.2001C190.9 13.1001 190.9 12.0001 190.9 11.2001C190.9 10.9001 190.9 10.6001 190.9 10.3001C191.9 10.3001 192.9 10.4001 194 10.4001C195.8 10.5001 197.5 10.5001 199.1 10.5001C201 10.5001 202.3 10.3001 203.1 10.0001C204.4 9.4001 205.2 8.2001 205.2 6.5001C205.2 6.3001 205.2 5.8001 205.1 5.2001C205.1 4.5001 205 3.8001 204.8 2.9001L204.4 1.1001L202.5 1.4001C201.6 1.5001 200.7 1.6001 199.9 1.7001C199 1.7001 197.9 1.7001 196.8 1.7001H194.4C193.5 1.7001 192.6 1.7001 191.7 1.7001C190.8 1.7001 189.9 1.6001 189.1 1.7001C188.2 1.7001 187.5 1.7001 186.8 1.7001C185.9 1.7001 185.1 1.7001 184.4 1.8001C183.6 1.8001 182.8 1.9001 182.2 2.1001L180.2 2.6001L180.8 4.6001C180.9 5.0001 181 5.4001 181.1 5.8001L181.2 6.0001C181.3 6.3001 181.4 6.6001 181.5 7.0001C181.6 7.3001 181.6 7.8001 181.7 8.2001C181.8 8.7001 181.8 9.3001 181.9 9.9001C182 11.1001 182 12.4001 182 13.8001C182 15.2001 182 16.6001 182 18.2001C182 22.1001 182 25.5001 182 28.5001C182 31.5001 181.9 34.3001 181.7 37.0001L181.6 38.9001L183.5 39.1001C185.4 39.3001 187.6 39.4001 189.8 39.4001C192 39.5001 194.1 39.5001 196.1 39.5001C198 39.5001 199.5 39.5001 200.7 39.5001C202 39.5001 203 39.3001 203.8 39.2001C204.9 38.9001 205.8 38.4001 206.2 37.6001C206.6 36.9001 206.9 36.1001 206.9 35.1001C206.9 34.5001 206.9 34.0001 206.8 33.5001C206.5 32.8001 206.5 32.3001 206.4 32.0001Z" fill="#E2211C"/>
<path d="M251.3 34.8L251.2 33.3C251.2 32.8 251.2 32.4 251.2 32C251.1 30.1 251.1 28 251.1 25.7001V18.8C251.1 17.8 251.1 16.6 251.1 15.3L251.2 11.5C251.3 10.2 251.3 9.00005 251.3 7.90005C251.3 6.70005 251.3 5.80005 251.3 5.00005C251.3 3.80005 251 2.90005 250.3 2.20005C249.7 1.60005 248.8 1.30005 247.7 1.30005C247 1.30005 246.3 1.40005 245.4 1.50005C244.5 1.60005 243.7 1.70005 243 1.80005L242.2 2.00005L241.7 2.70005C240.7 4.20005 239.5 5.90005 238.2 7.90005C236.9 9.90005 235.5 12 234.1 14.2C232.7 16.3 231.3 18.6 229.9 20.8C229.9 20.3 229.9 19.7001 230 19.1L230.1 14.8C230.1 13.3 230.1 11.9 230.1 10.7C230.1 9.40005 230.1 8.20005 230.1 7.20005C230.1 6.10005 230.1 5.20005 230.1 4.40005C230.1 3.00005 229.1 1.40005 226.4 1.40005C225.5 1.40005 224.7 1.50005 224 1.60005C223.2 1.70005 222.3 1.80005 221.3 2.10005L219.5 2.60005L219.8 4.40005C219.9 4.90005 220 5.30005 220 5.70005V5.90005C220.1 6.20005 220.1 6.60005 220.2 6.90005C220.3 7.30005 220.3 7.70005 220.3 8.10005C220.3 8.50005 220.3 9.10005 220.3 9.70005C220.3 11 220.3 12.4 220.3 14.1V18.9C220.3 20.5 220.3 22.1 220.3 23.8C220.3 25.4 220.3 27 220.3 28.4C220.3 29.8 220.3 31 220.3 32.2001V35.9001V36.1C220.4 36.7 220.5 37.2001 220.8 37.7001L220.9 37.9001C221.3 38.4001 221.8 38.8 222.4 39.1C223.3 39.5 224.4 39.5 226.2 39.4001C226.9 39.4001 227.6 39.3 228.3 39.1L229.2 38.9001L229.6 38C229.9 37.4001 230.3 36.6 230.9 35.5C231.5 34.4001 232.3 33.1 233.1 31.7001C233.9 30.3001 234.8 28.7001 235.9 27C236.9 25.3 238 23.6 239.1 21.9C239.9 20.5 240.8 19.2 241.6 17.8V17.9C241.6 19.1 241.6 20.2 241.6 21.4V24.4L241.5 27.9C241.5 29 241.5 30 241.5 31.1C241.5 32 241.5 32.9001 241.5 33.7001V35.5C241.5 36.9001 241.9 37.9 242.6 38.6L242.7 38.7001C243.4 39.3 244.3 39.5 245.7 39.5C246.2 39.5 246.8 39.5 247.5 39.4001C248.3 39.3001 249.2 39.1 250.1 38.8L251.6 38.3L251.4 36.7001C251.4 35.9001 251.3 35.4 251.3 34.8Z" fill="#E2211C"/>
<path d="M286 33.6C286 32.2 285.9 30.7 285.9 29C285.9 27.3 285.9 25.5 285.9 23.8V18.8C285.9 17.8 285.9 16.6 285.9 15.3L286.1 11.3C286.2 9.89998 286.2 8.69998 286.2 7.59998C286.3 6.39998 286.3 5.49998 286.3 4.79998C286.3 3.09998 285.4 2.29998 284.9 1.89998C283.8 1.19998 282.3 1.19998 280.2 1.39998C279.3 1.49998 278.4 1.59998 277.6 1.79998L276 2.19998L276.1 3.89998C276.2 4.89998 276.2 5.79998 276.3 6.69998C276.4 7.39998 276.4 8.09998 276.4 8.99998C276.5 9.69998 276.5 10.3 276.5 10.7V15.5C275.8 15.5 275.2 15.4 274.5 15.4C272 15.3 269.5 15.3 267 15.4C266.6 15.4 266.1 15.4 265.6 15.5C265.6 15.2 265.6 15 265.6 14.7C265.7 13.4 265.7 12.1 265.7 10.8C265.8 9.39998 265.8 8.19998 265.8 6.99998C265.8 5.79998 265.8 4.89998 265.8 4.19998C265.8 2.79998 264.9 1.79998 263.5 1.59998C262 1.29998 260.6 1.49998 259.2 1.69998C258.3 1.89998 257.4 1.99998 256.5 2.19998L254.4 2.69998L255 4.79998C255.1 5.29998 255.3 5.79998 255.4 6.39998V6.49998C255.5 6.99998 255.6 7.59998 255.7 8.19998C255.8 8.89998 255.8 9.69998 255.9 10.7C256 11.6 256 12.7 256 14C256 14.9 256 16 256 17.2C256 18.4 256 19.6 256 20.8L255.9 24.6C255.9 25.8 255.9 27 255.9 28.1C255.9 28.5 255.9 28.9 255.9 29.4C255.9 30 255.8 30.6 255.8 31.2L255.7 33C255.7 33.6 255.6 34.2 255.6 34.6C255.6 36.1 255.9 37.1 256.4 38C257.1 38.9 258.2 39.4 259.6 39.4C260.1 39.4 260.7 39.4 261.5 39.3C262.4 39.2 263.1 39.1 263.8 39L265.6 38.6L265.3 36.8C265.2 36.4 265.2 36 265.1 35.6C265 35.3 265 35 265 34.7C265 34.3 265 33.9 265 33.5V31.2L265.2 25.1C265.2 24.8 265.2 24.6 265.2 24.4C265.4 24.4 265.6 24.4 265.8 24.4C266.7 24.4 267.7 24.4 268.7 24.4C271.5 24.4 274 24.5 276.2 24.6C276.2 25.2 276.2 25.8 276.2 26.5C276.2 27.3 276.2 28.2 276.2 29.2C276.2 30.1 276.2 31 276.2 32V36.1C276.2 37 276.5 37.8 277 38.5C278 39.7 279.7 39.7 280.2 39.7C281 39.7 281.8 39.6 282.6 39.5C283.5 39.3 284.2 39.2 284.8 38.9L286.4 38.3L286.2 36.7C286.1 35.7 286.1 34.8 286 33.6Z" fill="#E2211C"/>
<path d="M338.1 4C336.8 3 335.2 2.2 333.5 1.8C331.8 1.3 329.9 1.1 327.9 1.1C326.3 1.1 324.4 1.2 322.2 1.4C320.1 1.6 317.9 1.9 315.7 2.4L313.6 2.9C313.6 2.8 313.6 2.8 313.6 2.7L313.2 0.5L311.1 1.1C309.8 1.5 307.5 1.6 304.2 1.5C303.2 1.5 302.2 1.5 301.3 1.5L298.3 1.4C295.7 1.3 293.2 1.3 291.3 1.7L289.1 2.1L289.8 4.2C290.3 5.7 290.6 7.4 290.7 9.4C290.9 11.5 291 13.8 291 16.4C291 19.6 290.9 22.9 290.8 26.2C290.7 29.4 290.6 32.7 290.6 35.8C290.6 37.7 291.5 38.5 292.2 38.9C292.8 39.2 293.6 39.4 294.7 39.4C295.2 39.4 295.9 39.4 296.7 39.3C297.5 39.2 298.3 39.1 298.9 39L300.9 38.7L300.6 36.7C300.5 36.2 300.4 35.6 300.4 34.9C300.3 34.3 300.3 33.5 300.2 32.7C300.2 31.8 300.2 30.8 300.2 29.7C300.2 27.9 300.2 25.9 300.2 23.8C300.2 21.7 300.2 19.7 300.2 18V12.2C300.2 11.5 300.2 10.9 300.2 10.3C301.2 10.3 302.2 10.4 303.2 10.5C304.9 10.6 306.5 10.6 308.1 10.6C309.9 10.6 311.2 10.4 312.1 9.8C312.8 9.4 313.9 8.4 313.9 6.3C313.9 6 313.9 5.6 313.8 4.9C313.8 4.4 313.7 3.7 313.6 3.1L314.2 4.9C314.5 5.7 314.7 6.8 314.9 8.2C315.1 9.5 315.2 11 315.3 12.5C315.4 13.7 315.4 14.8 315.4 15.8V19C315.4 22.7 315.4 25.9 315.3 28.5C315.2 31.2 315.2 33.5 315.2 35.6C315.2 37.2 315.9 38.1 316.4 38.5L316.5 38.6C317.2 39.1 318.1 39.3 319.2 39.3C319.7 39.3 320.3 39.3 320.9 39.2C321.4 39.1 321.9 39.1 322.4 39L325.8 38.3L325.4 36.4C325.3 35.7 325.2 35.1 325.1 34.3C325 33.7 324.9 33.1 324.9 32.5C324.8 31.9 324.8 31.3 324.8 30.9V29.7C324.8 29.1 324.8 28.5 324.8 27.9C324.8 27.5 324.8 27.2 324.8 26.8C324.9 26.8 325 26.8 325.1 26.8H326.6C328.6 26.8 330.5 26.6 332.4 26.2C334.3 25.7 336 25 337.4 23.9C338.9 22.8 340.1 21.4 341 19.7C341.9 18 342.3 16 342.3 13.6C342.3 11.5 341.9 9.6 341.2 8.1C340.6 6.5 339.5 5.1 338.1 4ZM332.6 13.7C332.6 15.2 332.2 16.3 331.4 17C330.5 17.8 329 18.1 327 18.1C326.5 18.1 326 18.1 325.6 18.1C325.4 18.1 325.2 18.1 325 18C325 16.8 325 15.8 324.9 14.9C324.9 13.4 324.9 12.2 324.8 11.1C324.8 10.6 324.7 10.1 324.7 9.7C324.8 9.7 325 9.7 325.1 9.7C326.7 9.6 328.5 9.5 329.8 9.9C330.4 10.1 330.9 10.3 331.4 10.7C331.8 11 332.1 11.3 332.3 11.8C332.5 12.3 332.6 12.9 332.6 13.7Z" fill="#E2211C"/>
<path d="M405.5 39.5C405.5 37.9001 405.5 36.2001 405.5 34.5C405.5 33.7001 405.4 33 405.1 32.5C404.9 32 404.3 31.3 403.3 31C402.7 30.8 402.1 30.7001 401.3 30.7001C401.2 30.7001 401.2 30.7001 401.1 30.7001C401.1 30.1 401.1 29.3001 401 28.2001C401 26.1 401 23.4 401 20.3C401 18 401 16 401.1 14.4C401.2 12.7 401.3 11.3 401.4 10.1C401.5 8.90005 401.6 8.00005 401.6 7.40005C401.7 6.60005 401.8 6.00005 401.8 5.50005C401.8 5.00005 401.7 4.50005 401.6 4.00005C401.4 3.30005 400.9 2.70005 400.2 2.30005C399.7 2.00005 399 1.70005 398.3 1.60005C397.7 1.50005 396.9 1.40005 395.9 1.40005C395.1 1.40005 394.2 1.30005 393.2 1.40005C392.2 1.40005 391 1.40005 389.7 1.40005C388.4 1.40005 386.8 1.40005 385.1 1.40005C383.4 1.40005 381.4 1.50005 379.2 1.60005L376.8 1.70005L377.3 4.00005C377.7 5.90005 377.9 7.70005 377.8 9.40005C377.6 12.4 377.4 15.1 377 17.5C376.7 19.8 376.3 21.9001 375.8 23.7001C375.3 25.4001 374.8 27 374.1 28.2001C373.6 29.2001 373 30.1 372.3 30.9C371.3 31 370.6 31.3001 370 31.7001C370 31.5 369.9 31.3001 369.9 31.2001L369.4 29.2001L367.4 29.8C366.2 30.1 365.1 30.4 364 30.5C362.4 30.7001 360.3 30.7 357.8 30.8H354.7C354.7 29.5 354.7 28.4 354.7 27.3L354.8 24.4C355 24.4 355.1 24.4 355.3 24.5L358.1 24.7001C359 24.7001 359.8 24.8 360.6 24.8C361.4 24.8 362.2 24.8 362.8 24.8C364.3 24.8 365.3 24.5 366.2 23.7001C367 22.9001 367.4 21.8 367.4 20.3C367.4 19.9 367.4 19.6 367.3 19.2001L367.2 18.4C367.2 18.1 367.1 17.8001 367.1 17.6L366.8 15.5L364.7 15.9C364.4 16 364.1 16 363.8 16C363.5 16 363.1 16.1 362.7 16.1H361.4C359.6 16.1 358 16.1 356.6 16.1C355.9 16.1 355.2 16 354.6 16C354.6 15.5 354.6 14.9 354.6 14.4C354.6 13.3 354.6 12.2 354.6 11.4C354.6 11.1 354.6 10.8 354.6 10.5C355.6 10.5 356.6 10.6 357.7 10.6C359.5 10.7 361.2 10.7 362.8 10.7C364.7 10.7 366 10.5 366.8 10.2C368.1 9.60005 368.9 8.40005 368.9 6.70005C368.9 6.50005 368.9 6.00005 368.8 5.40005C368.8 4.70005 368.7 4.00005 368.5 3.10005L368.1 1.30005L366.3 1.60005C365.4 1.70005 364.5 1.80005 363.7 1.90005C362.8 1.90005 361.7 1.90005 360.6 1.90005H358.2C357.3 1.90005 356.3 1.90005 355.5 1.90005C354.6 1.90005 353.7 1.80005 352.9 1.90005C352 1.90005 351.3 1.90005 350.6 1.90005C349.7 1.90005 348.9 1.90005 348.2 2.00005C347.4 2.00005 346.6 2.10005 346 2.30005L344 2.80005L344.6 4.80005C344.7 5.20005 344.8 5.60005 344.9 6.00005L345 6.20005C345.1 6.50005 345.2 6.80005 345.3 7.20005C345.4 7.50005 345.4 8.00005 345.5 8.40005C345.6 8.90005 345.6 9.50005 345.7 10.1C345.8 11.3 345.8 12.6 345.8 14C345.8 15.4 345.8 16.8 345.8 18.4C345.8 22.3 345.8 25.7001 345.8 28.7001C345.8 31.6 345.7 34.5 345.5 37.2001L345.4 39.1L347.3 39.3C349.2 39.5 351.4 39.6 353.6 39.6C355.8 39.7 357.9 39.7001 359.9 39.7001C361.8 39.7001 363.3 39.7001 364.5 39.7001C365.8 39.7001 366.8 39.5 367.6 39.4001C368.1 39.3001 368.5 39.1001 368.8 38.9001V40.1C368.8 40.9 368.8 41.7 368.8 42.6C368.8 43.4 368.9 44.1001 368.9 44.7001C369 45.7001 369.3 46.4001 369.7 47C370.6 48.1 372.1 48.1 372.6 48.1C373.4 48.1 374 48 374.6 47.9001C375.1 47.8001 375.6 47.7 376 47.6H376.1C376.6 47.4 377 47.3 377.4 47.1L378.9 46.4001L378.5 44.8C378.4 44.3 378.2 43.7001 378.1 42.9001C378 42.3001 377.9 41.6001 377.8 40.7001C377.8 40.4001 377.7 40 377.7 39.7001C377.9 39.7001 378.2 39.7001 378.4 39.7001C379.4 39.7001 380.4 39.7001 381.4 39.7001C382.4 39.7001 383.5 39.7001 384.5 39.7001C385.5 39.7001 386.5 39.7001 387.5 39.7001H390.2C391.2 39.7001 392.1 39.7001 393.2 39.7001C394.2 39.7001 395.1 39.7001 396.1 39.7001C396.2 39.7001 396.4 39.7001 396.5 39.7001V43.6C396.5 44.3 396.5 44.8 396.6 45.2001C396.7 45.9001 397 46.5 397.4 46.9001L397.5 47C398 47.5 398.5 47.8001 399.2 47.9001C399.7 48 400.3 48.1 401.1 48.1C402.1 48.1 403.2 47.9 404.5 47.6L406.2 47.2001L406 45.5C405.6 42.9001 405.5 41.1 405.5 39.5ZM391.7 30.4C391.4 30.4 391 30.4 390.7 30.4H387.9C386.5 30.4 385 30.4 383.5 30.4C383.2 30.4 383 30.4 382.7 30.4C382.8 30.1 382.9 29.9 383.1 29.6C383.8 28.1 384.3 26.4 384.8 24.3C385.3 22.3 385.7 19.9 386 17.2C386.3 15 386.5 12.4 386.6 9.60005C387.6 9.60005 388.6 9.50005 389.5 9.60005C390.3 9.60005 391.1 9.60005 391.9 9.60005C391.8 11.9 391.7 13.9 391.6 15.9C391.5 18.3 391.5 20.7001 391.5 23.1V27.5C391.7 28.4 391.7 29.4 391.7 30.4Z" fill="#E2211C"/>
<path d="M437.9 34.8L437.8 33.3C437.8 32.8 437.8 32.4 437.8 32C437.7 30.1 437.7 28 437.7 25.7001V18.8C437.7 17.8 437.7 16.6 437.7 15.3L437.8 11.5C437.9 10.2 437.9 9.00005 437.9 7.90005C437.9 6.70005 437.9 5.80005 437.9 5.00005C437.9 3.80005 437.6 2.90005 436.9 2.20005C436.3 1.60005 435.4 1.30005 434.3 1.30005C433.6 1.30005 432.9 1.40005 432 1.50005C431.1 1.60005 430.3 1.70005 429.6 1.80005L428.8 2.00005L428.3 2.70005C427.3 4.20005 426.2 5.90005 424.8 7.90005C423.5 9.90005 422.1 12 420.7 14.2C419.3 16.3 417.9 18.6 416.5 20.8C416.5 20.3 416.5 19.7001 416.6 19.1L416.7 14.8C416.7 13.3 416.7 11.9 416.7 10.7C416.7 9.40005 416.7 8.20005 416.7 7.20005C416.7 6.10005 416.7 5.20005 416.7 4.40005C416.7 3.00005 415.7 1.40005 413 1.40005C412.1 1.40005 411.3 1.50005 410.6 1.60005C409.8 1.70005 408.9 1.80005 407.9 2.10005L406.1 2.60005L406.4 4.40005C406.5 4.90005 406.6 5.30005 406.6 5.70005V5.90005C406.7 6.20005 406.7 6.60005 406.8 6.90005C406.9 7.30005 406.9 7.70005 406.9 8.10005C406.9 8.50005 406.9 9.10005 406.9 9.70005C406.9 11 406.9 12.4 406.9 14.1V18.9C406.9 20.5 406.9 22.1 406.9 23.8C406.9 25.4 406.9 27 406.9 28.4C406.9 29.8 406.9 31 406.9 32.2001V35.9001V36.1C407 36.7 407.1 37.2001 407.4 37.7001L407.5 37.9001C407.9 38.4001 408.4 38.8 409 39.1C409.9 39.5 411 39.5 412.8 39.4001C413.5 39.4001 414.2 39.3 414.9 39.1L415.8 38.9001L416.2 38C416.5 37.4001 416.9 36.6 417.5 35.5C418.1 34.4001 418.9 33.1 419.7 31.7001C420.5 30.3001 421.4 28.7001 422.5 27C423.5 25.3 424.6 23.6 425.7 21.9C426.5 20.5 427.4 19.2 428.2 17.8V17.9C428.2 19.1 428.2 20.2 428.2 21.4V24.4L428.1 27.9C428.1 29 428.1 30 428.1 31.1C428.1 32 428.1 32.9001 428.1 33.7001V35.5C428.1 36.9001 428.5 37.9 429.2 38.6L429.3 38.7001C430 39.3 430.9 39.5 432.3 39.5C432.8 39.5 433.4 39.5 434.1 39.4001C434.9 39.3001 435.8 39.1 436.7 38.8L438.2 38.3L438 36.7001C438 35.9001 437.9 35.4 437.9 34.8Z" fill="#E2211C"/>
<path d="M467.4 32.0001C467.3 31.6001 467.3 31.3001 467.2 31.0001L466.7 29.0001L464.7 29.6001C463.5 29.9001 462.4 30.2001 461.3 30.3001C459.7 30.5001 457.6 30.5001 455.1 30.6001H452C452 29.4001 452 28.2001 452 27.1001L452.1 24.2001C452.3 24.2001 452.4 24.2001 452.6 24.3001L455.4 24.5001C456.3 24.5001 457.1 24.6001 457.9 24.6001C458.7 24.6001 459.5 24.6001 460.1 24.6001C461.6 24.6001 462.6 24.3001 463.5 23.5001C464.3 22.7001 464.7 21.6001 464.7 20.1001C464.7 19.7001 464.7 19.4001 464.6 19.0001C464.6 18.7001 464.5 18.4001 464.5 18.2001C464.5 17.9001 464.4 17.6001 464.4 17.4001L464.1 15.3001L462 15.7001C461.7 15.8001 461.4 15.8001 461.1 15.8001C460.8 15.8001 460.4 15.9001 460 15.9001H458.7C456.9 15.9001 455.3 15.9001 453.9 15.9001C453.2 15.9001 452.5 15.8001 451.9 15.8001C451.9 15.3001 451.9 14.7001 451.9 14.2001C451.9 13.1001 451.9 12.0001 451.9 11.2001C451.9 10.9001 451.9 10.6001 451.9 10.3001C452.9 10.3001 453.9 10.4001 455 10.4001C456.8 10.5001 458.5 10.5001 460.1 10.5001C462 10.5001 463.3 10.3001 464.1 10.0001C465.4 9.4001 466.2 8.2001 466.2 6.5001C466.2 6.3001 466.2 5.8001 466.1 5.2001C466.1 4.5001 466 3.7001 465.8 2.9001L465.4 1.1001L463.6 1.4001C462.7 1.5001 461.8 1.6001 461 1.7001C460.1 1.7001 459 1.7001 457.9 1.7001H455.5C454.6 1.7001 453.6 1.7001 452.8 1.7001C451.9 1.7001 451 1.6001 450.2 1.7001C449.3 1.7001 448.6 1.7001 447.9 1.7001C447 1.7001 446.2 1.7001 445.5 1.8001C444.7 1.8001 443.9 1.9001 443.3 2.1001L441.3 2.6001L441.9 4.6001C442 5.0001 442.1 5.4001 442.2 5.8001L442.3 6.0001C442.4 6.3001 442.5 6.6001 442.6 7.0001C442.7 7.3001 442.7 7.8001 442.8 8.2001C442.9 8.7001 442.9 9.3001 443 9.9001C443.1 11.1001 443.1 12.4001 443.1 13.8001C443.1 15.2001 443.1 16.7001 443.1 18.2001C443.1 22.1001 443.1 25.5001 443.1 28.5001C443.1 31.5001 443 34.3001 442.8 37.0001L442.7 38.9001L444.6 39.1001C446.5 39.3001 448.7 39.4001 450.9 39.4001C453.1 39.5001 455.2 39.5001 457.2 39.5001C459.1 39.5001 460.6 39.5001 461.8 39.5001C463.1 39.5001 464.1 39.3001 464.9 39.2001C466 38.9001 466.9 38.4001 467.3 37.6001C467.7 36.9001 468 36.1001 468 35.1001C468 34.6001 468 34.0001 467.9 33.5001C467.6 32.8001 467.5 32.4001 467.4 32.0001Z" fill="#E2211C"/>
<path d="M500.1 33.6C500.1 32.2 500 30.7 500 29C500 27.3 500 25.5 500 23.8V18.8C500 17.8 500 16.6 500 15.3L500.2 11.3C500.3 9.9 500.3 8.7 500.3 7.6C500.4 6.4 500.4 5.5 500.4 4.8C500.4 3.1 499.5 2.3 499 1.9C497.9 1.2 496.4 1.2 494.3 1.5C493.4 1.6 492.5 1.7 491.7 1.9L490.1 2.3L490.2 4C490.3 5 490.3 5.9 490.4 6.8C490.5 7.5 490.5 8.2 490.5 9.1C490.6 9.8 490.6 10.4 490.6 10.8V15.6C489.9 15.6 489.3 15.5 488.6 15.5C486.1 15.4 483.6 15.4 481.1 15.5C480.7 15.5 480.2 15.5 479.7 15.6C479.7 15.3 479.7 15.1 479.7 14.8C479.8 13.5 479.8 12.2 479.8 10.9C479.9 9.5 479.9 8.3 479.9 7.1C479.9 5.9 479.9 5 479.9 4.3C479.9 2.9 479 1.9 477.6 1.7C476.1 1.4 474.7 1.6 473.3 1.8C472.4 2 471.5 2.1 470.6 2.3L468.5 2.8L469.1 4.9C469.2 5.4 469.4 5.9 469.5 6.5V6.6C469.6 7.1 469.7 7.7 469.8 8.3C469.9 9 469.9 9.8 470 10.8C470.1 11.7 470.1 12.8 470.1 14.1C470.1 15 470.1 16.1 470.1 17.3C470.1 18.5 470.1 19.7 470.1 20.9L470 24.7C470 25.9 470 27.1 470 28.2C470 28.6 470 29 470 29.5L469.8 33.1C469.8 33.7 469.7 34.3 469.7 34.7C469.7 36.2 469.9 37.2 470.5 38.1C471.2 39 472.3 39.5 473.7 39.5C474.2 39.5 474.8 39.5 475.6 39.4C476.5 39.3 477.2 39.2 477.9 39.1L479.7 38.7L479.4 36.9C479.3 36.5 479.3 36.1 479.2 35.7C479.1 35.4 479.1 35.1 479.1 34.8C479.1 34.4 479.1 34 479.1 33.6V31.3L479.3 25.2C479.3 24.9 479.3 24.7 479.3 24.5C479.5 24.5 479.7 24.5 479.9 24.5C480.8 24.5 481.8 24.5 482.8 24.5C485.6 24.5 488.1 24.6 490.3 24.7C490.3 25.3 490.3 25.9 490.3 26.6C490.3 27.4 490.3 28.3 490.3 29.3C490.3 30.2 490.3 31.1 490.3 32.1V36.2C490.3 37.1 490.6 37.9 491.1 38.6C492.1 39.8 493.8 39.8 494.3 39.8C495.1 39.8 495.9 39.7 496.7 39.6C497.6 39.4 498.3 39.3 498.9 39L500.5 38.5L500.3 36.9C500.3 35.9 500.2 35.1 500.1 33.6Z" fill="#E2211C"/>
<path d="M555.9 17C554.7 16 553.3 15.2 551.7 14.7C550.2 14.2 548.5 14 546.7 14C545.2 14 543.9 14.1 542.6 14.3C542.3 14.3 542 14.4 541.7 14.5C541.7 13.1 541.7 11.7 541.7 10.6C541.7 8.7 541.7 7.1 541.6 5.7C541.6 4.4 541.4 3.5 541.1 2.9C540.8 2.3 539.9 1.2 537.9 1.2C537.2 1.2 536.3 1.3 535.4 1.4C534.5 1.5 533.5 1.7 532.5 2L530.7 2.5L530.5 0L528.1 0.8C527.2 1.1 525.8 1.3 524.1 1.4C522.2 1.5 519.8 1.5 517.1 1.5H514.2L511 1.4C510 1.4 508.9 1.4 508 1.4C507 1.4 506.1 1.4 505.3 1.4C504 1.4 503 1.8 502.3 2.6C501.7 3.3 501.4 4.2 501.4 5.3V6V6.2C501.4 6.5 501.5 6.8 501.5 7.1L501.8 9.7L503.4 9.9C503.9 10 504.5 10 505.3 10.1C506 10.2 506.9 10.2 507.8 10.3L511.5 10.4C511.5 11.6 511.5 13 511.4 14.4L511.2 27.5C511.2 29.6 511.2 31.4 511.2 33.1C511.2 33.8 511.2 34.5 511.3 35.1V35.2C511.4 35.9 511.5 36.5 511.6 36.9L511.7 37.1C512 37.8 512.5 38.4 513.1 38.8L513.3 38.9C513.9 39.2 514.7 39.4 515.8 39.4C516.3 39.4 516.9 39.4 517.6 39.3C518.4 39.3 519.2 39.1 519.9 38.9L521.6 38.4L521.3 36.7C521.2 36.3 521.2 35.9 521.1 35.5C521 35.2 521 34.9 521 34.5C521 34.1 521 33.8 521 33.4C521 32.8 521 32 521 31.1C521 30.1 521 29.1 521 28.2V23.3C521 21.1 521 18.8 521 16.3C521 14.4 521 12.6 521 10.8H523.7C524.4 10.8 525.1 10.7 525.7 10.7C526.4 10.7 526.9 10.6 527.4 10.6C528 10.5 529.7 10.4 530.6 8.9C530.8 8 531 7.1 531 6C531 5.6 531 5.2 530.9 4.7C530.9 4.3 530.8 4 530.8 3.6V3.4L531.1 4.5C531.2 4.9 531.3 5.3 531.4 5.7L531.5 5.9C531.6 6.1 531.6 6.3 531.7 6.6V6.8C531.8 7.1 531.8 7.5 531.9 7.9V8C532 8.4 532.1 8.9 532.1 9.6C532.2 10.3 532.2 11.1 532.2 12C532.3 12.8 532.3 13.7 532.3 14.7C532.4 15.6 532.4 16.5 532.4 17.4C532.4 18.3 532.4 19.2 532.4 20C532.4 22.5 532.3 25.1 532.2 27.9C532.1 30.6 531.9 33.3 531.8 35.8L531.7 37.3L533.1 37.8C534 38.1 535 38.4 536.1 38.6C537 38.8 538.1 39 539.4 39.2C540.7 39.3 542.1 39.4 543.6 39.4C545.8 39.4 547.9 39.2 549.7 38.7C551.7 38.2 553.4 37.4 554.9 36.4C556.4 35.3 557.5 33.8 558.3 32.1C559.1 30.4 559.5 28.4 559.5 26.1C559.5 24.2 559.2 22.4 558.5 21C558 19.3 557.1 18 555.9 17ZM550 26.4C550 27.2 549.9 27.8 549.6 28.4C549.4 28.9 549 29.3 548.6 29.6C548.1 30 547.6 30.2 546.9 30.4C546.1 30.6 545.2 30.7 544.3 30.7C543.6 30.7 543 30.7 542.5 30.6C542.2 30.6 541.9 30.5 541.6 30.5C541.6 29.9 541.7 29.3 541.7 28.8C541.8 27.8 541.8 26.6 541.8 25.4L541.9 23.2C542.2 23.1 542.5 23.1 542.8 23C543.6 22.8 544.6 22.7 545.7 22.7C547.3 22.7 548.4 23 549.2 23.7C549.7 24.2 550 25.1 550 26.4Z" fill="#E2211C"/>
<path d="M570.1 36.4C570 35.8 570 35 570 33.9C570 32.7 569.9 31.4 569.9 29.7999C569.9 28.2999 569.9 26.5999 569.9 24.7999V19.1C569.9 15.9 570 13.1 570.1 10.6C570.2 7.99995 570.3 6.09995 570.3 4.69995C570.3 2.89995 569.4 2.09995 568.8 1.79995C568.2 1.39995 567.4 1.19995 566.5 1.19995C566.2 1.19995 565.8 1.19995 565.3 1.19995C564.8 1.19995 564.3 1.19995 563.9 1.29995C563.4 1.29995 563 1.39995 562.5 1.49995C562.1 1.59995 561.7 1.59995 561.3 1.69995L559.5 2.09995L559.8 3.99995C559.9 4.49995 560 4.99995 560 5.39995C560.1 5.79995 560.1 6.19995 560.2 6.69995C560.3 7.09995 560.3 7.59995 560.3 7.89995C560.4 9.19995 560.4 10.8 560.4 12.7C560.4 14.6 560.4 16.7 560.4 19C560.4 21 560.4 22.8 560.4 24.6C560.4 26.3 560.3 27.9 560.3 29.4C560.3 30.7999 560.3 31.9999 560.3 33.0999C560.3 34.1999 560.3 35 560.3 35.7C560.3 36.6 560.6 37.3999 561.1 38.0999C562.1 39.2999 563.8 39.2999 564.3 39.2999C565.1 39.2999 565.9 39.1999 566.7 39.0999C567.6 38.8999 568.3 38.7999 568.9 38.5L570.4 38L570.1 36.4Z" fill="#E2211C"/>
</svg>
