<svg width="954" height="727" viewBox="0 0 954 727" fill="none" xmlns="http://www.w3.org/2000/svg">
<path d="M551.518 136.628C619.278 99.9949 695.58 99.6261 775.058 119.108C932.65 157.688 997.545 290.577 922.341 423.05C881.309 495.242 813.435 539.564 739.339 576.636C657.055 617.83 498.811 625.535 416.546 666.659C387.543 681.146 360.253 698.56 333.003 715.833C310.524 730.087 289.464 731.132 271.5 709.5C178.91 597.506 157.873 518.681 70.7849 403.109C20.7144 336.534 -16.0116 321.598 7.50011 242.501C45 37 283.578 -57.7365 446.5 37.0004C487.329 60.7697 525.5 80.4999 551.518 136.628Z" fill="#FFDFBC"/>
</svg>
