<svg width="142" height="148" viewBox="0 0 142 148" fill="none" xmlns="http://www.w3.org/2000/svg">
<path d="M55.5184 47.372C56.4141 33.4139 63.6868 22.0553 74.3061 12.3423C95.3549 -6.92219 121.949 -2.37919 135.023 22.9028C142.143 36.6877 142.414 51.4827 140.977 66.4276C139.385 83.0269 137.316 99.5789 135.715 116.168C135.149 122.015 135.196 127.92 135.225 133.805C135.25 138.659 133.387 141.895 128.347 142.253C102.294 144.046 76.2446 146.507 50.1714 147.103C35.1613 147.431 21.4689 141.237 11.608 129.315C-8.45961 105.022 0.805472 69.5271 30.9705 55.4599C38.5343 51.9375 46.907 50.1552 55.5184 47.372ZM127.363 137.254C130.084 112.48 133.435 89.3623 134.855 66.1126C135.517 55.1262 134.194 43.3658 130.801 32.9328C124.254 12.86 109.308 3.63577 92.0258 6.33476C75.1693 8.97904 60.1601 28.0128 60.5149 46.7063C60.6171 51.6945 60.8594 54.9683 53.783 54.0881C36.495 51.934 23.3307 60.1527 13.6371 73.5364C4.6151 86.022 4.36561 99.9918 11.0137 113.671C19.6916 131.549 35.4225 140.756 54.2143 141.068C78.6468 141.471 103.146 138.663 127.363 137.254Z" fill="#FFDFBC"/>
</svg>
