<svg width="173" height="190" viewBox="0 0 173 190" fill="none" xmlns="http://www.w3.org/2000/svg">
<path d="M66.1331 44.9004C68.3418 33.7457 75.4199 25.3642 85.0237 18.6647C104.061 5.37576 125.039 11.8645 132.899 33.6308C137.177 45.4979 135.821 57.4511 133.071 69.3435C130.019 82.5528 126.588 95.6733 123.53 108.873C122.451 113.526 121.86 118.29 121.257 123.036C120.76 126.951 118.912 129.361 114.807 129.114C93.5907 127.79 72.307 127.003 51.2024 124.712C39.0541 123.381 28.6636 116.933 21.9748 106.276C8.366 84.5629 19.6212 56.9403 45.4619 48.8093C51.9409 46.7745 58.8874 46.228 66.1331 44.9004ZM114.545 124.981C119.378 105.302 124.543 87.0264 128.163 68.4387C129.868 59.6544 130.051 50.0353 128.423 41.2658C125.276 24.3918 114.198 15.3685 99.9631 15.7066C86.0783 16.0458 71.9397 29.7909 70.2362 44.895C69.7877 48.9262 69.6348 51.5905 64.0178 50.1288C50.2955 46.5548 38.797 51.7794 29.5496 61.5358C20.9398 70.6397 19.2514 81.8724 23.1605 93.6041C28.2606 108.936 39.9755 118.029 55.1074 120.278C74.7817 123.2 94.8512 123.541 114.545 124.981Z" fill="#FFC079"/>
<path d="M54.4871 105.36C56.0189 97.623 60.9282 91.8098 67.5891 87.1632C80.7928 77.9463 95.343 82.4467 100.794 97.5433C103.762 105.774 102.821 114.065 100.913 122.313C98.7968 131.474 96.4169 140.575 94.2961 149.73C93.5475 152.957 93.1378 156.261 92.7195 159.553C92.375 162.268 91.0935 163.939 88.246 163.768C73.531 162.85 58.7691 162.304 44.1314 160.715C35.7057 159.792 28.4991 155.32 23.8599 147.928C14.4211 132.869 22.2275 113.71 40.15 108.071C44.6437 106.659 49.4616 106.28 54.4871 105.36ZM88.0644 160.901C91.4165 147.253 94.9986 134.577 97.5098 121.685C98.6918 115.593 98.8192 108.921 97.6902 102.839C95.5075 91.1353 87.8235 84.877 77.9508 85.1115C68.3206 85.3467 58.5144 94.88 57.3329 105.356C57.0218 108.152 56.9158 110 53.0199 108.986C43.5025 106.507 35.5274 110.131 29.1136 116.898C23.142 123.212 21.971 131.003 24.6822 139.139C28.2196 149.773 36.3447 156.08 46.8399 157.64C60.4855 159.666 74.4053 159.903 88.0644 160.901Z" fill="#FFC079"/>
</svg>
