<svg width="241" height="221" viewBox="0 0 241 221" fill="none" xmlns="http://www.w3.org/2000/svg">
<path d="M113.683 42.664C123.263 23.5894 140.253 11.969 160.962 4.65552C202.018 -9.85754 236.67 12.3812 239.962 55.6928C241.745 79.3032 233.305 100.249 222.375 120.387C210.242 142.757 197.467 164.776 185.327 187.126C181.045 195.003 177.59 203.326 174.122 211.61C171.262 218.445 166.716 221.88 159.422 219.378C121.753 206.363 83.6915 194.288 46.7082 179.579C25.4256 171.092 9.88365 154.226 3.1393 131.598C-10.5676 85.5053 23.6113 41.1661 74.3751 39.3897C87.101 38.9512 99.9259 41.4394 113.683 42.664ZM161.02 211.769C179.615 178.588 198.105 148.109 213.962 116.294C221.444 101.255 226.596 83.9452 228.05 67.2656C230.821 35.1633 215.325 13.2941 189.437 6.78116C164.18 0.445428 131.746 18.2354 121.099 44.7079C118.268 51.7763 116.657 56.5199 107.24 51.0641C84.2383 37.7302 60.8445 41.4271 39.247 54.4491C19.1283 66.6098 10.4486 86.086 11.632 109.267C13.1635 139.556 29.7726 161.87 55.9858 173.512C90.0689 188.645 126.159 199.308 161.02 211.769Z" fill="#FFDFBC"/>
</svg>
