<svg width="318" height="313" viewBox="0 0 318 313" fill="none" xmlns="http://www.w3.org/2000/svg">
<path d="M276.121 156.685C272.713 128.421 259.177 105.468 239.909 85.2798C184.77 27.5327 93.2645 35.7478 49.3035 105.908C37.6911 123.117 30.732 146.098 30.499 171.166C30.3088 191.065 39.4567 205.177 56.966 214.025C101.668 236.604 149.444 246.072 199.178 246.134C258.205 246.222 280.634 194.017 276.121 156.685ZM230.817 89.1177C230.23 102.145 228.9 115.147 227.621 128.139C227.15 132.908 226.16 137.626 226.232 142.508C235.872 127.463 229.835 109.187 236.623 90.4275C239.593 95.3596 242.773 98.2007 242.781 101.049C242.778 123.163 239.48 144.201 220.21 158.883C219.541 159.396 218.633 159.598 217.089 160.267C215.695 133.636 215.386 107.716 224.885 79.6286C227.7 83.9408 230.932 86.6121 230.832 89.1286L230.817 89.1177ZM156.751 123.856C164.382 119.221 172.126 114.784 179.594 109.894C194.749 99.9706 199.088 84.811 198.927 66.8781C204.851 80.0116 204.55 94.2157 196.038 104.317C188.541 113.231 179.439 121.036 170.138 128.121C160.896 135.156 150.521 140.682 140.19 147.142C138.385 135.352 142.187 124.891 151.473 116.316C153.751 114.21 156.282 112.264 158.961 110.724C176.501 100.667 188.927 86.6324 193.498 64.4986C196.814 84.6314 189.249 99.8745 173.762 108.588C167.052 112.36 160.999 117.274 154.632 121.661L156.721 123.834L156.751 123.856ZM142.295 54.4611C128.929 67.1032 115.664 79.7957 111.509 100.518L139.846 61.1119C140.946 61.6716 142.061 62.2423 143.161 62.8019C140.504 70.3202 138.827 78.4043 134.914 85.2271C130.675 92.6007 124.6 99.024 118.858 105.433C113.312 111.636 107.139 117.295 100.73 123.733C96.9894 99.8516 119.531 61.6619 142.284 54.4763L142.295 54.4611ZM199.961 239.903C152.757 240.598 107.396 230.856 64.3132 211.521C45.4264 203.046 35.9159 188.442 36.6588 166.906C38.3385 117.782 76.0548 69.5445 123.403 57.1443C124.202 56.9331 125.115 57.1738 127.414 57.2553C111.603 73.7783 95.0897 88.9643 94.9841 113.084C94.9485 122.164 95.8965 131.257 96.3974 140.33C97.3524 140.416 98.3184 140.486 99.2886 140.583C100.321 138.922 101.232 137.174 102.386 135.601C108.761 126.897 113.96 116.839 121.886 109.899C133.52 99.7309 140.967 87.8005 144.974 73.3269C151.009 51.5991 168.01 45.4071 186.747 58.5577C188.281 59.6378 189.048 63.4244 188.539 65.5776C185.156 80.0837 177.743 92.0622 165.271 100.633C159.603 104.53 153.655 108.109 148.482 112.571C134.784 124.42 130.882 144.307 140.539 158.901C149.245 142.584 165.477 137.687 178.682 128.58C199.098 114.491 213.142 96.5355 206.266 69.0128C219.818 73.4663 219.682 74.5236 217.952 86.1517C215.199 104.601 213.565 123.231 211.832 141.836C211.008 150.695 211.045 159.641 210.618 170.196C224.511 165.05 233.488 155.491 238.937 144.411C244.436 133.229 246.175 120.175 249.813 106.984C264.34 127.853 273.131 150.398 269.914 176.371C265.132 214.899 238.746 239.346 199.95 239.918L199.961 239.903Z" fill="#FFC079"/>
<path d="M48.7048 188.718C77.0186 220.172 115.558 221.242 153.486 224.159C117.296 216.159 78.4012 216.128 48.7048 188.718Z" fill="#FFC079"/>
<path d="M165.708 223.937C165.602 225.017 165.485 226.111 165.395 227.201C173.985 228.271 182.574 229.341 191.164 230.411C191.194 229.277 191.235 228.128 191.28 227.005C182.766 225.99 174.237 224.964 165.724 223.948L165.708 223.937Z" fill="#FFC079"/>
</svg>
