<svg width="50" height="48" viewBox="0 0 50 48" fill="none" xmlns="http://www.w3.org/2000/svg">
<path d="M23.5349 0C24.5121 0 25.4879 0 26.465 0C26.8173 0.0387482 27.1708 0.0799964 27.5231 0.117495C32.8158 0.683719 37.5124 2.58863 41.494 5.98723C46.7815 10.502 49.6151 16.1855 49.9673 22.9602C50.1917 27.285 49.2642 31.4148 47.0529 35.1959C42.462 43.048 35.4276 47.3129 26.045 47.8666C21.5363 48.1328 17.235 47.1804 13.2717 45.0917C6.22162 41.3744 1.91384 35.7059 0.393988 28.1212C0.211345 27.2088 0.129155 26.2776 0 25.3551C0 24.4189 0 23.4839 0 22.5477C0.0287011 22.4127 0.0730574 22.2802 0.0821896 22.144C0.324844 18.8029 1.2485 15.6368 2.93534 12.7107C6.82565 5.96598 12.7316 1.83492 20.6439 0.377483C21.5976 0.202491 22.5708 0.123744 23.5349 0ZM17.8625 23.9577C17.8625 26.1551 17.8599 28.3512 17.8625 30.5486C17.8651 32.1785 19.1515 32.946 20.6713 32.2198C25.2635 30.0249 29.8544 27.8287 34.44 25.6226C34.7388 25.4788 35.0428 25.2913 35.258 25.0526C36.0969 24.1239 35.7694 22.9252 34.5235 22.3277C29.9066 20.1116 25.2883 17.9004 20.6674 15.6918C19.1463 14.9656 17.8638 15.7343 17.8625 17.3667C17.8599 19.5641 17.8625 21.7603 17.8625 23.9577Z" fill="white"/>
</svg>
