<svg width="233" height="248" viewBox="0 0 233 248" fill="none" xmlns="http://www.w3.org/2000/svg">
<path d="M102.487 36.9499C106.3 35.5696 109.716 34.2767 113.154 33.2701C117.275 32.1547 121.657 32.2291 125.884 33.2944C131.167 34.6259 135.457 37.299 138.289 42.0396C139.804 44.5753 141.495 47.1554 142.9 49.7569C143.888 51.4106 145.208 52.1179 147.102 52.0334C151.97 51.6683 156.371 53.5267 160.641 55.1646C162.776 55.9836 165.085 57.5957 166.491 59.4485C171.412 65.933 174.592 73.0089 174.753 81.2903C174.839 82.4357 174.88 83.7573 175.518 84.5734C181.053 92.3365 183.965 101.218 187.164 110.078C191.896 123.257 196.915 136.415 201.823 149.639C202.48 151.491 203.248 153.276 204.015 155.062C205.352 158.302 205.148 161.715 204.304 165.061C201.681 177.698 194.724 187.838 184.908 195.946C177.695 201.901 169.779 206.93 161.072 210.635C159.728 211.139 158.449 211.754 156.973 212.037C147.168 214.155 137.778 217.969 127.624 218.501C122.338 218.667 117.009 218.26 111.614 217.743C110.05 217.63 108.356 216.548 107.235 215.422C99.1026 206.817 90.5949 198.586 83.5432 189.036C77.9635 181.449 71.612 174.323 65.5912 167C62.9982 163.911 60.4052 160.823 57.702 157.801C56.9546 157.05 55.9867 156.432 54.9086 155.879C51.7185 154.045 48.4397 152.563 45.4487 150.311C35.7282 142.804 33.0592 133.329 36.7804 122.279C37.9544 118.736 37.5191 116.004 36.3364 112.522C31.6042 99.3422 31.123 86.0166 37.9311 73.1233C41.9987 65.1582 47.4294 58.4731 55.6521 54.4583C57.041 53.7782 57.8356 52.8547 58.3009 51.3799C60.9382 42.7734 66.9617 37.0806 75.2259 34.3873C80.0081 32.8767 85.0967 32.3798 90.2296 31.7068C93.8205 31.2071 97.1437 32.5129 100.025 34.8309C100.904 35.8016 101.872 36.4202 102.487 36.9499ZM115.54 133.419C123.855 127.555 132.432 122.131 140.373 115.891C146.306 111.299 151.405 105.561 156.833 100.373C160.76 96.6807 163.588 92.1491 166.108 87.3526C168.031 83.8103 168.676 80.1335 167.34 76.1445C165.962 71.5829 163.921 67.4164 161.043 63.6007C160.209 62.4538 159.087 61.3285 157.789 60.9075C153.937 59.4686 150.175 57.6775 145.813 57.8894C142.025 58.0584 139.363 56.3575 137.453 53.1603C135.938 50.6246 134.358 47.9787 132.843 45.443C130.867 42.1356 128.007 40.1039 124.309 39.1719C118.608 37.6413 113.078 38.4017 107.985 41.145C103.289 43.801 99.4132 43.5734 95.6762 39.8222C94.1814 38.3217 92.1783 37.7232 89.9533 38.0053C86.6488 38.4835 83.1466 38.631 79.9294 39.5059C72.4598 41.2757 67.1436 45.6484 64.4648 52.9333C63.4239 55.9487 61.438 57.8831 58.616 59.4194C45.3434 66.7503 39.4187 78.3679 39.3244 93.2342C39.3116 99.9736 40.8852 106.364 43.6486 112.492C44.8112 114.939 45.1148 117.45 44.3388 120.157C43.9837 121.566 43.2764 122.886 42.8555 124.185C41.2605 129.027 40.4144 133.871 42.6738 138.655C47.0408 146.966 56.9173 153.482 67.6486 150.662C70.6453 149.918 73.8396 149.506 76.792 148.939C78.9511 148.547 81.1761 148.265 83.3137 147.586C94.5747 144.149 105.485 139.875 115.54 133.419ZM151.762 207.072C136.847 186.363 122.174 165.808 107.457 145.429C100.007 148.234 92.6018 150.863 84.8659 153.69C100.576 173.475 115.912 192.886 131.49 212.451C138.321 210.614 144.931 208.909 151.762 207.072ZM169.926 198.913C162.945 187.227 156.292 176.092 149.706 165.067C143.12 154.043 136.313 143.15 131.028 131.048C123.972 135.264 117.027 139.413 110.522 143.299C114.653 148.46 118.696 153.225 122.541 158.408C125.155 161.783 127.174 165.663 129.678 169.104C136.532 178.323 143.431 187.366 150.395 196.519C152.636 199.519 154.921 202.343 157.404 205.497C161.835 203.149 165.605 201.196 169.926 198.913ZM134.182 128.566C147.552 150.946 160.791 173.105 174.359 195.816C178.153 192.652 181.462 189.927 184.55 187.334C172.967 163.438 161.713 140.093 150.327 116.527C145.519 119.998 140.777 123.579 135.969 127.049C135.263 127.621 134.733 128.236 134.182 128.566ZM126.049 212.859C110.802 193.096 95.9939 173.819 81.1862 154.542C75.1727 154.993 69.2694 155.378 63.4062 157.833C64.1093 158.76 64.5044 159.421 65.0757 160.127C70.1085 165.797 75.4062 171.159 80.2185 176.96C90.2168 188.939 100.811 200.412 112.155 211.137C112.902 211.887 113.958 212.902 114.993 212.882C118.516 213.021 122.018 212.874 126.049 212.859ZM194.998 171.519C195.93 167.82 196.861 164.871 197.329 161.898C197.818 159.212 197.339 156.657 196.265 153.857C191.027 140.082 186.076 126.286 181.125 112.489C178.496 105.084 175.801 97.5683 172.953 89.546C169.684 94.3411 166.725 98.6523 163.831 103.074C176.212 124.549 184.978 147.735 194.998 171.519ZM192.279 176.733C182.172 152.553 172.724 128.727 161.273 105.051C158.338 108.151 155.778 110.877 153.152 113.493C165.001 136.333 176.609 159.018 188.525 181.968C189.938 180.076 191.131 178.317 192.279 176.733Z" fill="#FFDFBC"/>
<path d="M74.4717 71.9374C71.8258 73.5181 69.6452 73.6241 68.2377 72.5202C66.5883 71.2617 66.3936 69.4333 66.9477 67.6063C67.2798 66.6599 67.5461 65.6032 68.0544 64.7012C69.4246 62.2371 72.0691 61.4052 74.3356 62.4447C76.4261 63.4397 77.5443 66.0628 76.5707 68.4395C75.9293 69.8699 74.8254 71.2774 74.4717 71.9374Z" fill="#FFDFBC"/>
<path d="M69.8617 87.2576C72.4417 85.5666 75.8322 86.2338 77.5676 88.6377C79.1268 90.9973 78.4381 94.1014 75.9683 95.7266C73.1678 97.5492 70.2183 96.6186 68.0663 93.2668C66.7046 91.238 67.5465 88.6407 69.8617 87.2576Z" fill="#FFDFBC"/>
<path d="M89.3265 66.5037C87.7902 63.6816 88.3901 60.9297 90.9257 59.4148C93.3512 57.9659 96.5212 58.7648 97.8384 60.9697C99.1772 63.461 98.2236 66.873 95.5777 68.4537C92.9762 69.8583 90.9072 69.1496 89.3265 66.5037Z" fill="#FFDFBC"/>
<path d="M95.8411 80.4134C97.2901 82.8388 96.5342 86.5815 94.1746 88.1408C92.3663 89.3707 89.6802 88.8811 88.7367 87.0512C86.8939 83.2155 86.5675 81.1666 89.5885 79.2122C91.8378 77.7188 94.5897 78.3187 95.8411 80.4134Z" fill="#FFDFBC"/>
<path d="M107.273 103.054C110.315 101.386 112.494 102.029 113.701 104.3C114.579 106.019 114.311 107.825 113.405 109.563C112.41 111.654 110.294 112.619 108.18 112.086C106.243 111.598 104.882 109.569 105.503 107.103C105.902 105.518 106.94 104.001 107.273 103.054Z" fill="#FFDFBC"/>
<path d="M80.2115 53.2496C78.6537 50.1412 79.3867 46.861 81.8336 45.6984C83.9498 44.7333 86.5471 45.5752 87.4463 47.5811C88.6748 50.1383 87.7212 53.5503 85.4504 54.7573C83.466 55.9428 81.1107 55.2556 80.2115 53.2496Z" fill="#FFDFBC"/>
<path d="M112.552 83.5946C114.867 82.2115 117.025 82.568 118.276 84.6627C119.659 86.9779 118.837 90.6104 116.632 91.9276C114.604 93.2893 112.028 92.7338 110.732 90.8152C109.349 88.5 110.126 85.0436 112.552 83.5946Z" fill="#FFDFBC"/>
<path d="M56.5477 93.2668C54.453 94.5182 51.5249 93.8739 50.4053 91.9997C49.1539 89.905 49.8869 86.6248 51.6952 85.3949C53.6138 84.0991 56.9599 84.9424 58.1455 86.9268C59.5071 88.9557 58.7526 91.9495 56.5477 93.2668Z" fill="#FFDFBC"/>
<path d="M118.042 68.4965C116.389 69.4844 111.83 69.3656 111.061 68.329C109.963 66.7412 111.291 62.9555 113.43 61.528C115.569 60.1005 118.366 60.5243 119.662 62.4429C120.957 64.3614 120.181 67.069 118.042 68.4965Z" fill="#FFDFBC"/>
<path d="M62.5352 129.332C68.3884 132.118 70.4044 137.496 74.6268 140.808C73.0805 143.228 71.3194 142.784 69.9778 141.79C68.7021 140.907 67.581 139.781 66.6804 138.524C65.3846 136.606 64.199 134.621 63.0579 132.461C62.7729 131.733 62.7085 130.874 62.5352 129.332Z" fill="#FFDFBC"/>
<path d="M77.1794 107.27C79.2298 106.194 81.6294 106.705 82.6833 108.469C84.0005 110.674 83.047 114.086 80.7103 115.183C78.7702 116.193 76.173 115.351 75.2953 113.631C74.1985 111.294 75.0189 108.411 77.1794 107.27Z" fill="#FFDFBC"/>
<path d="M141.593 76.8666C139.697 77.6999 138.089 77.7629 136.616 76.5488C135.384 75.4893 135.497 73.9258 136.911 72.0344C137.639 71.0006 138.589 69.8351 139.647 69.3526C140.595 68.9359 142.268 68.9832 143.126 69.6675C143.852 70.1314 144.267 71.8281 144.045 72.7087C143.58 74.1834 142.41 75.4806 141.593 76.8666Z" fill="#FFDFBC"/>
<path d="M62.4908 106.471C60.5064 107.656 58.0623 107.321 56.9641 105.734C55.7342 103.925 56.4658 101.394 58.5605 100.142C60.7654 98.8251 63.2754 99.2704 64.2848 101.21C65.4045 103.085 64.5855 105.219 62.4908 106.471Z" fill="#FFDFBC"/>
<path d="M56.4529 131.171C57.4409 132.825 58.4288 134.478 59.4168 136.132C61.9196 140.321 61.9196 140.321 65.6165 142.002C63.8282 144.267 62.2418 144.617 60.3733 142.741C59.2522 141.616 58.3301 140.072 57.6944 138.507C56.7737 136.215 56.2496 133.835 55.6153 131.522C55.8358 131.39 56.0563 131.258 56.4529 131.171Z" fill="#FFDFBC"/>
<path d="M57.5128 141.458C55.8132 143.371 54.2283 142.972 52.9754 141.626C50.6459 138.978 49.3744 135.848 50.0874 131.533C52.5029 135.326 53.2875 139.644 57.5128 141.458Z" fill="#FFDFBC"/>
<path d="M82.0539 138.465C78.1322 139.163 75.9559 137.022 75.3258 132.462C78.6061 133.195 79.7458 136.104 82.0539 138.465Z" fill="#FFDFBC"/>
<path d="M123.545 116.52C120.659 117.197 119.891 115.412 119.19 113.737C118.97 113.12 119.171 111.953 119.502 111.755C120.163 111.36 121.309 111.274 121.969 111.628C123.552 112.776 123.791 114.428 123.545 116.52Z" fill="#FFDFBC"/>
<path d="M113.768 115.929C115.417 117.187 116.956 118.512 118.737 119.991C115.782 122.055 114.617 121.106 113.128 116.61C113.348 116.478 113.503 116.236 113.768 115.929Z" fill="#FFDFBC"/>
<path d="M81.8505 129.611C85.0635 130.983 85.8538 132.306 85.8038 135.477C83.185 134.349 82.5063 132.211 81.8505 129.611Z" fill="#FFDFBC"/>
<path d="M109.458 169.814C111.221 169.509 111.858 170.325 112.186 171.625C112.731 174.291 114.312 176.937 112.325 179.621C109.09 177.963 108.237 175.032 109.458 169.814Z" fill="#FFDFBC"/>
<path d="M104.841 165.841C106.486 169.346 107.515 172.321 106.978 176.681C105.792 175.445 104.889 174.937 104.715 174.144C103.949 171.61 103.007 169.031 104.841 165.841Z" fill="#FFDFBC"/>
<path d="M133.204 156.226C133.903 159.399 134.845 161.978 133.144 164.64C130.285 162.608 130.226 158.754 133.204 156.226Z" fill="#FFDFBC"/>
<path d="M89.6384 180.458C89.153 180.898 88.7779 181.271 88.072 181.843C87.369 180.916 86.7318 180.1 86.3152 179.152C85.5477 177.367 85.552 175.12 82.8216 174.807C82.3591 174.784 81.9424 173.836 81.7234 173.219C80.7612 169.605 79.799 165.991 78.6621 161.584C82.9532 163.509 82.7041 167.098 83.8438 170.008C85.2999 168.689 86.6215 168.647 87.1241 170.741C87.9989 173.958 88.7635 177.241 89.5281 180.524L89.6384 180.458Z" fill="#FFDFBC"/>
<path d="M89.5937 180.635C89.9702 179.512 90.3468 178.389 90.7677 177.091C92.8767 179.87 93.7716 184.122 92.884 187.645C91.1672 187.025 90.7735 185.614 90.3797 184.204C90.1177 183.014 89.7898 181.714 89.5278 180.524C89.638 180.458 89.5937 180.635 89.5937 180.635Z" fill="#FFDFBC"/>
<path d="M97.2138 192.388C95.0818 190.071 95.5056 187.275 95.4011 184.346C98.5467 186.356 99.0049 188.625 97.2138 192.388Z" fill="#FFDFBC"/>
</svg>
