<svg width="563" height="68" viewBox="0 0 563 68" fill="none" xmlns="http://www.w3.org/2000/svg">
<g clip-path="url(#clip0_643_911)">
<path d="M32 26.6C33 25.8 33.8 24.8 34.4 23.8C35.8 21.6 36.5 19 36.5 16.1C36.5 13.4 36 11.1 35.1 9.2C34.2 7.2 32.8 5.6 31.2 4.4C29.6 3.2 27.7 2.4 25.4 1.8C23.3 1.3 21 1 18.5 1C15.6 1 12.8 1.2 10.3 1.6C8 2 5.9 2.1 4.1 2.1H2.9L2.3 3.2C2.1 3.6 2 4 2 4.5V5.6C2 6.3 2 7.1 2.1 7.9V8C2.2 8.8 2.4 9.6 2.6 10.3L2.7 10.4C3 11.2 3.5 11.9 4 12.4C4.5 12.9 5.5 13.5 7 13.5C7.8 13.5 8.7 13.4 9.5 13.3H9.6C10.3 13.1 11 13 11.9 12.8C12.7 12.6 13.7 12.5 14.8 12.3C15.8 12.1 16.9 12 18.2 12C23.7 12 24.5 14.3 24.5 16.5C24.5 17.8 24.3 18.8 23.8 19.5C23.3 20.2 22.7 20.8 21.9 21.2C21 21.6 20 22 18.9 22.1C17.6 22.3 16.2 22.4 14.9 22.4C13.3 22.4 11.9 22.3 10.8 22.2H10.7C10.1 22.2 9.5 22.1 8.9 22L7 21.7L6.3 25.6V25.7C6.1 26.7 6 27.5 6 28.3C6 29.6 6.2 30.7 6.7 31.6L6.8 31.7C7.5 32.9 8.7 33.6 10 33.6C11.2 33.6 12.3 33.5 13.4 33.4C14.3 33.3 15.5 33.2 16.8 33.2C18.4 33.2 19.8 33.3 21.1 33.5C22.2 33.7 23.1 34 23.9 34.5C24.5 34.9 25 35.3 25.3 35.9L25.4 36C25.7 36.6 25.9 37.5 25.9 38.7C25.9 40.7 25.3 42.1 24.1 43C22.7 44 20.9 44.6 18.5 44.6C16.8 44.6 15.3 44.5 14.1 44.4C12.8 44.2 11.7 44 10.7 43.7C9.7 43.4 8.8 43 7.9 42.6C7 42.1 6 41.6 5.1 40.9L3.2 39.6L2.2 41.7C1.8 42.5 1.5 43.4 1.1 44.2C0.9 44.9 0.6 45.6 0.4 46.5C0.1 47.2 0 48.1 0 48.9C0 49.8 0.3 51.2 2 52.4C3 53.2 4.3 53.8 6 54.3C7.5 54.7 9.4 55.1 11.5 55.3C13.6 55.5 15.9 55.7 18.3 55.7C20.8 55.7 23.3 55.3 25.6 54.6C28 53.9 30.1 52.8 31.9 51.4C33.8 50 35.3 48.2 36.4 46.1C37.6 43.9 38.2 41.4 38.2 38.6C38.2 35 37.3 32 35.6 29.7C34.6 28.5 33.4 27.4 32 26.6Z" fill="#E2211C"/>
<path d="M185.5 43.3004L183.1 43.8004C183.1 43.8004 182.9 43.8004 182.6 43.8004C182.1 43.8004 181.5 43.7004 181 42.8004C180.3 41.8004 179.6 40.3004 179 38.4004C178.1 35.5004 177.2 32.4004 176.4 29.4004C175.6 26.3004 174.9 23.4004 174.2 20.7004C173.5 17.9004 172.8 15.4004 172.2 13.2004C171.6 10.8004 171.1 8.90039 170.5 7.50039C170.1 6.50039 169.8 5.60039 169.5 5.00039C169.1 4.10039 168.6 3.50039 168 3.00039C167.4 2.50039 166.7 2.10039 165.8 1.90039C165.1 1.70039 164.3 1.60039 163.3 1.60039C162.4 1.60039 161.5 1.70039 160.6 1.80039C159.7 1.90039 158.9 2.00039 158 2.20039L153.9 3.00039L153.6 4.20039C153.1 6.20039 152.4 8.40039 151.5 10.9004C150.6 13.4004 149.6 16.0004 148.4 18.7004C147.3 21.4004 146.1 24.1004 144.9 26.9004C143.7 29.7004 142.5 32.4004 141.4 35.0004C140.4 37.5004 139.4 40.0004 138.6 42.3004C137.8 44.5004 137.3 46.4004 137 48.0004C136.9 47.4004 136.8 46.9004 136.6 46.5004C136.3 45.9004 135.7 45.1004 134.5 44.7004C133.8 44.4004 133 44.3004 131.9 44.3004C131.6 44.3004 131.2 44.3004 130.8 44.3004C130.8 43.1004 130.7 41.6004 130.7 39.8004C130.7 36.8004 130.6 32.9004 130.6 28.2004C130.6 24.8004 130.6 21.9004 130.7 19.5004C130.8 17.0004 131 14.9004 131.1 13.2004C131.2 11.5004 131.4 10.1004 131.4 9.20039C131.6 8.10039 131.6 7.20039 131.6 6.60039C131.6 5.90039 131.5 5.30039 131.3 4.70039C131.1 4.10039 130.7 3.30039 129.7 2.70039C129.1 2.30039 128.2 2.00039 127.2 1.80039C126.3 1.60039 125.2 1.50039 123.8 1.50039C122.7 1.50039 121.3 1.40039 119.9 1.40039C118.4 1.40039 116.7 1.40039 114.8 1.40039C112.9 1.40039 110.6 1.40039 108.1 1.50039C105.6 1.50039 102.7 1.60039 99.6 1.80039L97.2 1.90039L97.7 4.20039C98.4 7.10039 98.6 9.80039 98.5 12.3004C98.3 16.7004 97.9 20.7004 97.4 24.2004C96.9 27.6004 96.3 30.6004 95.6 33.3004C94.9 35.9004 94 38.2004 93 40.1004C92.1 41.7004 91.2 43.2004 90.1 44.5004C89.3 44.6004 88.7 44.7004 88.1 44.9004V43.3004L85.7 43.8004C85.7 43.8004 85.5 43.8004 85.2 43.8004C84.7 43.8004 84.1 43.7004 83.6 42.8004C82.9 41.8004 82.2 40.3004 81.6 38.4004C80.7 35.5004 79.8 32.4004 79 29.4004C78.2 26.3004 77.5 23.4004 76.8 20.7004C76.1 17.9004 75.4 15.4004 74.8 13.2004C74.2 10.8004 73.7 8.90039 73.1 7.50039C72.7 6.50039 72.4 5.60039 72.1 5.00039C71.7 4.10039 71.2 3.50039 70.6 3.00039C70 2.50039 69.3 2.10039 68.4 1.90039C67.9 1.60039 67 1.60039 66 1.60039C65.1 1.60039 64.2 1.70039 63.3 1.80039C62.4 1.90039 61.6 2.00039 60.7 2.20039L56.7 3.00039L56.4 4.20039C55.9 6.20039 55.2 8.40039 54.3 10.9004C53.4 13.4004 52.4 16.0004 51.2 18.7004C50.1 21.4004 48.9 24.2004 47.7 26.9004C46.5 29.6004 45.3 32.4004 44.2 35.0004C43.2 37.6004 42.2 40.0004 41.4 42.3004C40.6 44.6004 40 46.6004 39.7 48.3004C39.2 50.8004 39.3 52.3004 39.9 53.4004C40.6 54.5004 41.9 55.1004 43.8 55.1004C44.8 55.1004 45.7 55.1004 46.4 55.0004C47.2 54.9004 47.9 54.9004 48.5 54.8004C49.1 54.7004 49.7 54.6004 50.2 54.5004L51.8 54.2004V52.5004C51.8 50.6004 52 48.8004 52.3 46.9004C52.6 45.4004 53 43.6004 53.6 41.7004C54.2 41.7004 54.8 41.8004 55.5 41.8004C57 41.8004 58.5 41.9004 60.2 41.9004H63.8C65 41.9004 66.1 41.8004 67.1 41.8004C68.1 41.8004 69.1 41.7004 69.9 41.7004C70 41.7004 70.1 41.7004 70.1 41.7004C70.3 42.3004 70.5 43.0004 70.7 43.6004L71.8 46.8004C72.3 48.4004 72.9 49.7004 73.4 50.8004C74 51.9004 74.7 52.9004 75.6 53.6004C76.4 54.3004 77.4 54.7004 78.3 54.9004C79.2 55.1004 80.2 55.2004 81.3 55.2004C82.8 55.2004 84 55.0004 85 54.5004V56.5004C85 57.7004 85.1 58.9004 85.1 60.1004C85.1 61.3004 85.2 62.3004 85.2 63.1004C85.3 64.4004 85.7 65.3004 86.2 66.0004C87.2 67.3004 89.1 67.3004 89.7 67.3004C90.7 67.3004 91.7 67.2004 92.5 67.1004C93.3 67.0004 93.9 66.9004 94.5 66.7004H94.6C95.2 66.5004 95.9 66.2004 96.4 66.0004L97.9 65.3004L97.5 63.7004C97.3 62.9004 97.1 62.0004 96.9 60.9004C96.7 60.0004 96.6 58.9004 96.4 57.7004C96.3 56.9004 96.3 56.1004 96.2 55.3004C96.8 55.3004 97.5 55.2004 98.2 55.2004C99.6 55.2004 101.1 55.1004 102.6 55.1004C104.1 55.1004 105.6 55.0004 107.1 55.0004C108.6 55.0004 110.1 54.9004 111.5 54.9004H115.5C116.9 54.9004 118.3 54.9004 119.8 55.0004C121.2 55.0004 122.6 55.0004 124 55.1004C124.6 55.1004 125.1 55.1004 125.6 55.1004C125.6 56.1004 125.5 57.0004 125.5 58.0004V61.7004C125.5 62.6004 125.6 63.3004 125.7 63.9004C125.9 64.8004 126.2 65.5004 126.6 66.0004L126.7 66.1004C127.2 66.6004 127.9 67.0004 128.8 67.2004C129.5 67.4004 130.3 67.5004 131.3 67.5004C132.6 67.5004 134.2 67.3004 136.1 66.8004L137.8 66.4004L137.6 64.7004C137.3 61.8004 137.1 59.2004 137.1 56.8004C137.1 55.8004 137.1 54.7004 137.1 53.7004V53.8004C137.8 54.9004 139.1 55.5004 141 55.5004C142 55.5004 142.9 55.5004 143.6 55.4004C144.4 55.3004 145.1 55.3004 145.7 55.2004C146.3 55.1004 146.9 55.0004 147.4 54.9004L149 54.6004V52.9004C149 51.0004 149.2 49.2004 149.5 47.3004C149.8 45.8004 150.2 44.0004 150.8 42.1004C151.4 42.1004 152 42.2004 152.7 42.2004C154.2 42.2004 155.7 42.3004 157.4 42.3004H161C162.2 42.3004 163.3 42.2004 164.3 42.2004C165.3 42.2004 166.3 42.1004 167.1 42.1004C167.2 42.1004 167.3 42.1004 167.3 42.1004C167.5 42.7004 167.7 43.4004 167.9 44.0004L169 47.2004C169.5 48.8004 170.1 50.1004 170.6 51.2004C171.2 52.3004 171.9 53.3004 172.8 54.0004C173.6 54.7004 174.6 55.1004 175.5 55.3004C176.4 55.5004 177.4 55.6004 178.5 55.6004C181 55.6004 182.7 55.0004 183.9 53.8004C184.9 52.6004 185.4 51.2004 185.4 49.5004C185.4 49.0004 185.4 48.5004 185.3 48.1004V43.3004H185.5ZM118.9 38.8004C118.9 40.5004 119 42.2004 119 44.0004C118.2 44.0004 117.4 44.0004 116.6 44.0004H112.5C110.5 44.0004 108.3 44.0004 106.1 44.1004C105.2 44.1004 104.3 44.1004 103.4 44.1004C103.8 43.3004 104.2 42.5004 104.6 41.6004C105.5 39.5004 106.4 37.0004 107.1 34.1004C107.8 31.2004 108.4 27.8004 108.9 23.9004C109.3 20.5004 109.6 16.5004 109.9 12.0004C111.6 11.9004 113.4 11.9004 115.1 11.9004C116.6 11.9004 118.1 11.9004 119.5 12.0004C119.3 15.7004 119.2 19.0004 119 22.0004C118.9 25.6004 118.9 29.1004 118.9 32.4004V38.8004ZM67.6 31.5004C67.3 31.5004 66.9 31.5004 66.6 31.6004C65.1 31.6004 63.7 31.7004 62.2 31.7004H57.8C57.6 31.7004 57.5 31.7004 57.3 31.7004C57.7 30.8004 58.1 29.8004 58.5 28.8004C59.3 26.8004 60.2 24.9004 61 23.0004C61.8 21.0004 62.7 19.2004 63.4 17.4004C63.5 17.2004 63.6 17.0004 63.7 16.8004C64.3 18.7004 64.8 20.5004 65.3 22.4004C66 25.3004 66.8 28.3004 67.6 31.5004ZM164.8 31.5004C164.5 31.5004 164.1 31.5004 163.8 31.6004C162.3 31.6004 160.9 31.7004 159.4 31.7004H155C154.8 31.7004 154.7 31.7004 154.5 31.7004C154.9 30.8004 155.3 29.8004 155.7 28.8004C156.5 26.8004 157.4 24.9004 158.2 23.0004C159 21.0004 159.9 19.2004 160.6 17.4004C160.7 17.2004 160.8 17.0004 160.9 16.8004C161.5 18.7004 162 20.5004 162.5 22.4004C163.3 25.3004 164 28.3004 164.8 31.5004Z" fill="#E2211C"/>
<path d="M218.9 4.1L218.5 0L216.1 0.8C214.7 1.3 212.6 1.6 210 1.7C207.2 1.8 203.7 1.8 199.7 1.8H195.4L190.9 1.7C189.4 1.7 187.9 1.6 186.5 1.6C185.1 1.6 183.8 1.5 182.6 1.5C180.9 1.5 179.7 2 178.9 2.9C178.2 3.7 177.8 4.8 177.8 6.3V7.6V7.8C177.8 8.3 177.9 8.7 177.9 9.1C177.9 9.6 178 10.1 178 10.6L178.2 12.2L179.8 12.4C180.5 12.5 181.4 12.6 182.6 12.7C183.7 12.8 184.9 12.9 186.2 13L192.5 13.2C192.5 15.3 192.4 17.5 192.4 19.9L192.3 29.6C192.3 32.8 192.2 35.9 192.2 39C192.2 42 192.1 44.7 192.1 47.1C192.1 48.1 192.1 49.1 192.2 49.9V50C192.3 51 192.5 51.7 192.6 52.3L192.7 52.5C193.1 53.4 193.7 54 194.4 54.5L194.6 54.6C195.4 55 196.4 55.2 197.9 55.2C198.6 55.2 199.5 55.2 200.4 55.1C201.5 55 202.6 54.9 203.5 54.6L205.2 54.1L204.9 52.4C204.8 51.8 204.7 51.3 204.6 50.6C204.5 50.2 204.5 49.7 204.4 49.1C204.4 48.5 204.3 48 204.3 47.4C204.3 46.5 204.3 45.4 204.2 44C204.2 42.6 204.2 41.1 204.1 39.8V32.6C204.1 29.4 204.1 26 204.2 22.3C204.2 19.3 204.3 16.3 204.3 13.4H209C210.1 13.4 211.1 13.3 212 13.3C213 13.3 213.7 13.2 214.4 13.2C216.4 13 217.6 12.4 218.4 11.2C218.9 10.3 219.2 9.2 219.2 7.7C219.2 7.1 219.2 6.5 219.1 5.9C219 5.1 218.9 4.6 218.9 4.1Z" fill="#E2211C"/>
<path d="M255.7 24.2004C254.1 22.8004 252.2 21.8004 250 21.1004C247.9 20.4004 245.5 20.1004 243 20.1004C240.9 20.1004 239 20.3004 237.2 20.5004C236.4 20.6004 235.6 20.8004 234.8 20.9004C234.8 18.4004 234.8 16.0004 234.7 14.0004C234.7 11.3004 234.7 8.90039 234.6 6.90039C234.6 6.20039 234.5 5.60039 234.5 5.10039C234.4 4.30039 234.2 3.60039 233.9 3.10039C233.6 2.50039 233 2.00039 232.3 1.70039C231.1 1.10039 229.1 1.20039 226.7 1.60039C225.4 1.80039 224 2.10039 222.6 2.50039L220.6 3.00039L221.2 5.00039C221.4 5.60039 221.5 6.20039 221.7 6.80039L221.8 7.00039C221.9 7.40039 222.1 7.80039 222.1 8.30039V8.40039C222.2 8.90039 222.3 9.50039 222.4 10.2004V10.3004C222.5 10.9004 222.6 11.7004 222.7 12.7004C222.8 13.7004 222.9 14.8004 223 16.1004C223.1 17.3004 223.2 18.6004 223.2 19.9004C223.2 21.2004 223.3 22.6004 223.3 24.0004C223.3 25.3004 223.4 26.6004 223.4 27.8004C223.4 31.4004 223.3 35.3004 223.1 39.3004C222.9 43.3004 222.7 47.2004 222.5 50.8004L222.4 52.3004L223.8 52.8004C225 53.2004 226.5 53.6004 228 54.0004C229.3 54.3004 230.9 54.6004 232.7 54.8004C234.5 55.0004 236.6 55.1004 238.8 55.1004C242 55.1004 244.9 54.8004 247.5 54.1004C250.3 53.4004 252.7 52.4004 254.7 50.9004C256.7 49.4004 258.3 47.4004 259.4 45.0004C260.5 42.6004 261.1 39.8004 261.1 36.6004C261.1 33.9004 260.6 31.5004 259.7 29.5004C258.7 27.4004 257.4 25.6004 255.7 24.2004ZM248.7 37.3004C248.7 38.6004 248.5 39.7004 248.1 40.5004C247.7 41.3004 247.1 42.0004 246.3 42.6004C245.5 43.2004 244.6 43.6004 243.5 43.9004C242.3 44.2004 240.9 44.3004 239.4 44.3004C238.4 44.3004 237.4 44.3004 236.6 44.2004C235.8 44.1004 235.1 44.0004 234.5 43.9004H234.4C234.5 42.8004 234.6 41.7004 234.6 40.6004C234.7 39.1004 234.8 37.4004 234.8 35.6004L234.9 31.7004C235.5 31.6004 236.1 31.4004 236.8 31.3004C238 31.0004 239.6 30.9004 241.4 30.9004C244 30.9004 245.9 31.5004 247.1 32.6004C248.1 33.5004 248.7 35.1004 248.7 37.3004Z" fill="#E2211C"/>
<path d="M318.8 30.0996C318 28.8996 316.8 27.7996 315.5 26.8996C315.1 26.5996 314.7 26.3996 314.3 26.1996C315.3 25.2996 316.1 24.3996 316.7 23.2996C318 21.0996 318.7 18.6996 318.7 15.9996C318.7 13.0996 318.1 10.5996 317 8.69961C315.9 6.69961 314.4 5.09961 312.5 3.99961C310.7 2.89961 308.6 2.09961 306.3 1.69961C304.1 1.29961 301.8 1.09961 299.4 1.09961C294.7 1.09961 289.2 1.79961 283.1 3.09961L281.1 3.59961L281.6 5.59961C281.8 6.29961 281.9 6.89961 282.1 7.59961C282.2 8.19961 282.3 8.69961 282.4 9.39961V9.49961C282.5 10.0996 282.6 10.7996 282.6 11.5996V11.6996C282.7 12.4996 282.8 13.4996 282.8 14.6996C282.9 16.5996 282.9 18.4996 282.9 20.2996V26.0996C282.9 30.3996 282.9 34.6996 282.8 38.8996C282.7 42.9996 282.6 46.9996 282.5 50.9996L282.4 52.4996L283.8 52.9996C285.2 53.4996 286.8 53.8996 288.4 54.2996C289.8 54.5996 291.5 54.8996 293.4 55.1996C295.3 55.3996 297.5 55.5996 299.7 55.5996C303.2 55.5996 306.3 55.1996 308.9 54.3996C311.6 53.5996 313.8 52.3996 315.7 50.7996C317.5 49.1996 318.9 47.2996 319.7 45.0996C320.5 42.9996 321 40.5996 321 38.0996C321 36.7996 320.8 35.3996 320.5 34.0996C320.3 32.5996 319.7 31.2996 318.8 30.0996ZM304.9 20.8996C303.7 21.9996 301.6 22.5996 298.6 22.5996H295C295 21.2996 294.9 20.1996 294.9 19.0996C294.9 17.3996 294.9 15.8996 294.8 14.5996C294.8 13.6996 294.7 12.7996 294.7 12.0996C295.1 11.9996 295.4 11.9996 295.8 11.8996C296.8 11.7996 297.9 11.6996 299.1 11.6996C301.8 11.6996 303.7 12.0996 305 12.9996C305.4 13.1996 306.5 13.9996 306.5 16.7996C306.6 18.4996 306.1 19.7996 304.9 20.8996ZM294.6 41.2996C294.7 39.8996 294.8 38.3996 294.8 36.4996C294.8 35.2996 294.9 34.0996 294.9 32.7996C295.4 32.7996 295.9 32.7996 296.4 32.7996H299.1C300.7 32.7996 302.1 32.8996 303.5 33.0996C304.7 33.2996 305.7 33.5996 306.5 34.0996C307.2 34.4996 307.8 35.0996 308.2 35.7996L308.3 35.8996C308.7 36.5996 308.9 37.4996 308.9 38.5996C308.9 40.8996 308.3 42.3996 307.1 43.3996C305.7 44.3996 303.5 44.8996 300.6 44.8996C299.5 44.8996 298.6 44.8996 297.7 44.7996C296.8 44.6996 296 44.4996 295.3 44.2996C295.1 44.1996 294.8 44.1996 294.6 44.0996C294.5 43.2996 294.6 42.2996 294.6 41.2996Z" fill="#E2211C"/>
<path d="M366.7 8.29922C364.6 5.89922 362 3.99922 359 2.69922C356 1.39922 352.4 0.699219 348.4 0.699219C344.6 0.699219 341.2 1.49922 338.1 3.09922C335.1 4.69922 332.5 6.79922 330.5 9.39922C328.4 11.9992 326.9 14.9992 325.8 18.3992C324.7 21.7992 324.2 25.2992 324.2 28.9992C324.2 32.8992 324.7 36.4992 325.7 39.7992C326.8 43.0992 328.3 45.8992 330.4 48.2992C332.5 50.6992 335.1 52.4992 338.1 53.8992C341.1 55.1992 344.6 55.7992 348.5 55.7992C352.3 55.7992 355.7 54.9992 358.7 53.3992C361.7 51.7992 364.3 49.6992 366.4 47.0992C368.5 44.3992 370.1 41.3992 371.2 38.0992C372.3 34.6992 372.8 31.1992 372.8 27.4992C372.8 23.5992 372.3 19.9992 371.3 16.7992C370.2 13.5992 368.7 10.6992 366.7 8.29922ZM360.3 28.0992C360.3 30.6992 360 33.0992 359.3 35.2992C358.7 37.3992 357.8 39.1992 356.7 40.5992C355.6 41.9992 354.3 43.0992 352.9 43.8992C351.6 44.5992 350.1 44.9992 348.6 44.9992C346.8 44.9992 345.1 44.6992 343.7 43.9992C342.3 43.2992 341 42.2992 339.9 40.8992C338.8 39.4992 337.9 37.7992 337.3 35.6992C336.7 33.5992 336.3 31.1992 336.3 28.4992C336.3 25.7992 336.6 23.3992 337.3 21.2992C338 19.1992 338.9 17.3992 340 15.9992C341.1 14.5992 342.4 13.4992 343.9 12.7992C345.3 12.0992 346.7 11.6992 348.2 11.6992C349.9 11.6992 351.6 12.0992 353 12.7992C354.5 13.4992 355.7 14.3992 356.7 15.7992C357.8 17.1992 358.7 18.8992 359.3 20.9992C360 22.9992 360.3 25.3992 360.3 28.0992Z" fill="#E2211C"/>
<path d="M420.1 21.3004C420.2 19.3004 420.3 17.3004 420.4 15.3004C420.5 13.3004 420.6 11.4004 420.6 9.90039C420.7 8.20039 420.7 7.00039 420.7 6.20039C420.7 4.20039 419.8 3.20039 419.1 2.70039C418.3 2.20039 417.3 1.90039 416.1 1.80039C414.5 1.70039 413.1 1.60039 411.7 1.60039L407.8 1.50039C406.5 1.50039 405.1 1.40039 403.7 1.40039H399.2C395.8 1.40039 392.5 1.40039 389.4 1.50039C386.4 1.50039 383.1 1.70039 379.7 2.00039L377.2 2.20039L377.9 4.60039C378.3 5.80039 378.6 7.10039 378.9 8.50039C379.2 9.80039 379.4 11.2004 379.4 12.9004C379.4 13.4004 379.5 14.7004 379.5 17.8004V26.8004C379.5 29.1004 379.5 31.4004 379.4 33.8004C379.4 36.1004 379.3 38.4004 379.1 40.5004C379 42.6004 378.9 44.4004 378.8 46.1004C378.8 47.8004 378.7 49.0004 378.7 49.8004C378.7 51.8004 379 53.0004 379.8 53.9004C380.8 55.1004 382.6 55.2004 383.9 55.2004C384.6 55.2004 385.5 55.2004 386.7 55.1004C387.9 55.0004 388.9 54.8004 389.8 54.6004L391.6 54.2004L391.3 52.3004C391.2 51.8004 391.1 51.2004 391 50.4004C390.9 49.9004 390.9 49.2004 390.8 48.5004C390.8 47.7004 390.7 46.9004 390.7 46.0004C390.7 39.8004 390.8 33.7004 391 27.9004C391.2 22.7004 391.4 17.5004 391.6 12.3004C392.3 12.3004 393.1 12.3004 393.9 12.3004H401.7C402.7 12.3004 403.7 12.3004 404.8 12.4004C405.8 12.4004 406.8 12.4004 407.7 12.5004C408 12.5004 408.2 12.5004 408.4 12.5004C408.4 14.7004 408.3 17.1004 408.3 19.9004C408.3 23.4004 408.2 27.1004 408 30.9004C407.9 34.7004 407.8 38.5004 407.7 42.1004C407.7 45.7004 407.6 48.9004 407.6 51.6004C407.6 53.1004 408.2 53.9004 408.7 54.3004L408.8 54.4004C409.5 54.9004 410.5 55.1004 412.3 55.1004C413 55.1004 413.9 55.1004 415.1 55.0004C416.4 54.9004 417.7 54.6004 418.9 54.2004L420.4 53.7004L420.2 52.1004C420.2 51.7004 420.1 51.1004 420 50.4004C419.9 50.0004 419.9 49.4004 419.8 48.6004C419.8 47.7004 419.7 46.7004 419.7 45.4004C419.6 42.7004 419.6 39.6004 419.6 36.3004C419.6 33.0004 419.7 29.6004 419.8 26.3004C420 24.9004 420 23.2004 420.1 21.3004Z" fill="#E2211C"/>
<path d="M460.9 5.29922C459.1 3.89922 456.9 2.79922 454.5 2.19922C452.1 1.59922 449.4 1.19922 446.6 1.19922C444.3 1.19922 441.6 1.29922 438.4 1.59922C435.3 1.89922 432.2 2.39922 429.1 2.99922L426.9 3.49922L427.6 5.59922C428 6.89922 428.4 8.49922 428.7 10.4992C429 12.4992 429.2 14.5992 429.3 16.8992C429.4 18.5992 429.4 20.2992 429.4 21.7992V26.2992C429.4 31.6992 429.3 36.2992 429.2 40.1992C429.1 44.0992 429 47.4992 429 50.4992C429 52.0992 429.5 53.2992 430.4 53.9992L430.5 54.0992C431.3 54.6992 432.4 54.8992 434 54.8992C434.7 54.8992 435.5 54.7992 436.3 54.6992C437 54.5992 437.7 54.4992 438.4 54.3992L442.4 53.5992L442 51.6992C441.8 50.6992 441.7 49.6992 441.5 48.6992C441.4 47.7992 441.3 46.9992 441.2 46.0992C441.1 45.1992 441.1 44.3992 441.1 43.5992V41.9992C441.1 41.1992 441.2 40.2992 441.2 39.3992C441.2 38.4992 441.3 37.5992 441.3 36.7992C441.7 36.8992 442.2 36.8992 442.7 36.8992H444.8C447.6 36.8992 450.4 36.5992 453 35.9992C455.7 35.2992 458 34.2992 460.1 32.7992C462.2 31.2992 463.8 29.3992 465 27.0992C466.2 24.7992 466.8 21.8992 466.8 18.6992C466.8 15.6992 466.3 13.0992 465.3 10.9992C464.3 8.69922 462.8 6.79922 460.9 5.29922ZM454.3 18.7992C454.3 21.2992 453.6 22.9992 452.2 24.2992C450.8 25.5992 448.4 26.1992 445.1 26.1992C444.4 26.1992 443.6 26.1992 443 26.0992C442.4 26.0992 441.8 25.9992 441.4 25.8992H441.3C441.3 23.8992 441.2 22.0992 441.2 20.4992C441.2 18.3992 441.2 16.4992 441.1 15.0992C441 14.0992 441 13.0992 440.9 12.1992C441.4 12.0992 441.9 12.0992 442.4 12.0992C443.5 11.9992 444.7 11.9992 445.9 11.9992C447.3 11.9992 448.5 12.0992 449.6 12.3992C450.6 12.6992 451.5 13.0992 452.2 13.6992C452.9 14.1992 453.4 14.7992 453.8 15.6992C454.1 16.3992 454.3 17.4992 454.3 18.7992Z" fill="#E2211C"/>
<path d="M512.2 8.29922C510.1 5.89922 507.5 3.99922 504.5 2.69922C501.5 1.39922 497.9 0.699219 493.9 0.699219C490.1 0.699219 486.7 1.49922 483.6 3.09922C480.6 4.69922 478 6.79922 476 9.39922C473.9 11.9992 472.4 14.9992 471.3 18.3992C470.2 21.7992 469.7 25.2992 469.7 28.9992C469.7 32.8992 470.2 36.4992 471.2 39.7992C472.3 43.0992 473.8 45.8992 475.9 48.2992C478 50.6992 480.6 52.4992 483.6 53.8992C486.6 55.1992 490.1 55.7992 494 55.7992C497.8 55.7992 501.2 54.9992 504.2 53.3992C507.2 51.7992 509.8 49.6992 511.9 47.0992C514 44.3992 515.6 41.3992 516.7 38.0992C517.8 34.6992 518.3 31.1992 518.3 27.4992C518.3 23.5992 517.8 19.9992 516.8 16.7992C515.8 13.5992 514.2 10.6992 512.2 8.29922ZM505.9 28.0992C505.9 30.6992 505.6 33.0992 504.9 35.2992C504.3 37.3992 503.4 39.1992 502.3 40.5992C501.2 41.9992 499.9 43.0992 498.5 43.8992C497.2 44.5992 495.7 44.9992 494.2 44.9992C492.4 44.9992 490.7 44.6992 489.3 43.9992C487.9 43.2992 486.6 42.2992 485.5 40.8992C484.4 39.4992 483.5 37.7992 482.9 35.6992C482.3 33.5992 481.9 31.1992 481.9 28.4992C481.9 25.7992 482.2 23.3992 482.9 21.2992C483.6 19.1992 484.5 17.3992 485.6 15.9992C486.7 14.5992 488 13.4992 489.5 12.7992C490.9 12.0992 492.3 11.6992 493.8 11.6992C495.5 11.6992 497.2 12.0992 498.6 12.7992C500.1 13.4992 501.3 14.3992 502.3 15.7992C503.4 17.1992 504.3 18.8992 504.9 20.9992C505.6 22.9992 505.9 25.3992 505.9 28.0992Z" fill="#E2211C"/>
<path d="M561.6 44.6996C561.2 43.4996 560.6 42.2996 559.9 41.3996L558.7 39.7996L557 40.9996C556 41.7996 554.6 42.5996 552.9 43.3996C551.3 44.0996 549.3 44.4996 547 44.4996C543.1 44.4996 540.2 43.1996 538 40.5996C535.7 37.8996 534.5 33.8996 534.5 28.6996C534.5 25.9996 534.8 23.4996 535.5 21.4996C536.2 19.4996 537.1 17.6996 538.2 16.3996C539.3 15.0996 540.5 13.9996 541.9 13.2996C543.3 12.5996 544.8 12.2996 546.3 12.2996C547.4 12.2996 548.3 12.3996 549.3 12.4996C550.2 12.5996 551 12.6996 551.7 12.7996H551.8C552.5 12.8996 553.2 12.9996 553.8 13.0996H554C554.8 13.1996 555.6 13.2996 556.4 13.2996C558.5 13.2996 560.1 12.1996 560.8 10.2996C561.3 8.89961 561.6 6.79961 561.6 3.69961V1.69961H559.6C558.7 1.69961 557.8 1.69961 557 1.59961C556.1 1.49961 555.1 1.39961 554.2 1.39961C553.2 1.29961 552.1 1.19961 551 1.19961C549.8 1.09961 548.5 1.09961 547 1.09961C543 1.09961 539.4 1.89961 536.3 3.59961C533.3 5.19961 530.7 7.29961 528.6 9.99961C526.6 12.5996 525 15.6996 524 19.0996C523 22.3996 522.5 25.9996 522.5 29.4996C522.5 33.7996 523.1 37.5996 524.4 40.9996C525.7 44.2996 527.5 47.0996 529.8 49.1996C532 51.3996 534.7 53.0996 537.7 54.1996C540.7 55.2996 543.9 55.7996 547.3 55.7996C549 55.7996 550.8 55.5996 552.5 55.2996C554.2 54.9996 555.8 54.5996 557.2 53.9996C558.7 53.3996 559.9 52.6996 560.8 51.7996C562.3 50.3996 562.7 48.9996 562.7 47.9996C562.2 46.9996 562 45.8996 561.6 44.6996Z" fill="#E2211C"/>
</g>
<defs>
<clipPath id="clip0_643_911">
<rect width="562.2" height="67.2" fill="white"/>
</clipPath>
</defs>
</svg>
