<svg width="289" height="67" viewBox="0 0 289 67" fill="none" xmlns="http://www.w3.org/2000/svg">
<path d="M15.3 15.5992C15.3 15.3992 15.2 15.2992 15.2 15.1992V14.4992L14.6 14.7992H14.3C14 14.7992 13.7 14.6992 13.5 14.5992C13.4 14.4992 13.1 14.2992 12.8 13.8992C12.4 13.3992 11.9 12.6992 11.3 11.8992C10.8 11.1992 10.3 10.3992 9.8 9.59922L11 8.09922C11.5 7.49922 11.9 6.99922 12.3 6.49922C12.7 5.99922 13.1 5.49922 13.4 4.99922C13.7 4.49922 14 4.19922 14.2 3.89922C14.6 3.29922 14.8 2.79922 14.8 2.39922C14.8 1.89922 14.5 1.49922 14.1 1.29922C14 1.19922 13.7 0.999219 13.4 0.899219C13.1 0.799219 12.7 0.599219 12.4 0.399219L12 0.199219L11.8 0.599219C11.3 1.59922 10.8 2.59922 10.1 3.59922C9.5 4.59922 8.8 5.59922 7.9 6.59922C7.7 6.29922 7.4 5.89922 7.2 5.59922C6.8 4.99922 6.5 4.39922 6.2 3.89922C5.9 3.39922 5.5 2.79922 5.2 2.39922C4.9 1.89922 4.7 1.49922 4.4 1.19922C4.2 0.899219 4 0.699219 3.8 0.599219C3.3 0.299219 2.4 0.399219 1.7 0.899219C1.3 1.09922 0.8 1.39922 0.5 1.79922L0.1 2.09922L0.4 2.49922C0.8 2.99922 1.2 3.49922 1.6 4.09922C2.1 4.59922 2.5 5.19922 3 5.79922C3.5 6.39922 3.9 7.09922 4.4 7.69922C4.8 8.29922 5.2 8.79922 5.5 9.39922C5 9.89922 4.6 10.4992 4.1 10.9992C3.6 11.5992 3.1 12.1992 2.6 12.7992C2.1 13.3992 1.7 13.8992 1.3 14.3992C0.9 14.8992 0.6 15.2992 0.4 15.6992C0.1 16.0992 0 16.3992 0 16.6992C0 16.9992 0.1 17.1992 0.3 17.3992C0.4 17.4992 0.6 17.6992 0.9 17.7992C1.3 17.9992 1.7 18.1992 2.1 18.2992C2.3 18.3992 2.5 18.3992 2.8 18.4992L3.2 18.5992L3.4 18.2992C3.8 17.6992 4.2 16.9992 4.7 16.1992C5 15.5992 5.5 14.8992 6 14.0992C6.4 13.4992 6.9 12.8992 7.3 12.2992C7.5 12.5992 7.7 12.8992 7.9 13.1992C8.2 13.6992 8.5 14.1992 8.8 14.6992C9.1 15.1992 9.4 15.5992 9.7 15.9992C10 16.3992 10.2 16.6992 10.4 16.9992C10.6 17.2992 10.8 17.4992 11.1 17.7992C11.3 17.9992 11.5 18.0992 11.7 18.1992C11.9 18.2992 12.2 18.3992 12.5 18.3992C12.7 18.3992 13 18.4992 13.3 18.4992C14 18.4992 14.5 18.3992 14.8 18.0992C15.2 17.7992 15.4 17.2992 15.4 16.6992C15.4 16.4992 15.4 16.1992 15.4 16.0992C15.4 15.8992 15.3 15.6992 15.3 15.5992Z" fill="#661B00"/>
<path d="M30 2.69961C29.3 1.89961 28.4 1.29961 27.4 0.799609C26.4 0.399609 25.2 0.0996094 23.8 0.0996094C22.5 0.0996094 21.4 0.399609 20.4 0.899609C19.4 1.39961 18.5 2.09961 17.8 2.99961C17.1 3.89961 16.6 4.89961 16.2 5.99961C15.8 7.09961 15.6 8.29961 15.6 9.59961C15.6 10.8996 15.8 12.0996 16.1 13.1996C16.5 14.2996 17 15.2996 17.7 16.0996C18.4 16.8996 19.3 17.4996 20.3 17.9996C21.3 18.3996 22.5 18.5996 23.8 18.5996C25.1 18.5996 26.2 18.2996 27.2 17.7996C28.2 17.2996 29.1 16.5996 29.8 15.6996C30.5 14.7996 31 13.7996 31.4 12.6996C31.8 11.5996 32 10.3996 32 9.09961C32 7.79961 31.8 6.59961 31.5 5.49961C31.2 4.49961 30.7 3.49961 30 2.69961ZM28.2 9.39961C28.2 10.2996 28.1 11.1996 27.8 11.8996C27.6 12.5996 27.3 13.2996 26.9 13.7996C26.5 14.2996 26.1 14.6996 25.5 14.9996C24.5 15.5996 23.1 15.4996 22.2 14.9996C21.7 14.6996 21.2 14.3996 20.8 13.8996C20.4 13.3996 20.1 12.7996 19.9 12.0996C19.7 11.3996 19.6 10.4996 19.6 9.59961C19.6 8.59961 19.7 7.79961 20 7.09961C20.2 6.39961 20.6 5.69961 20.9 5.19961C21.3 4.69961 21.8 4.29961 22.3 4.09961C22.8 3.79961 23.3 3.69961 23.9 3.69961C24.5 3.69961 25.1 3.79961 25.6 4.09961C26.1 4.29961 26.6 4.69961 27 5.19961C27.4 5.69961 27.7 6.29961 27.9 6.99961C28.1 7.59961 28.2 8.39961 28.2 9.39961Z" fill="#661B00"/>
<path d="M45.7 0L45 0.2C44.5 0.4 43.8 0.5 42.8 0.5C41.8 0.5 40.6 0.5 39.3 0.5H37.8H36.3C35.8 0.5 35.3 0.5 34.8 0.5C33.7 0.5 32.8 0.4 32.3 0.9C32.1 1.1 32 1.5 32 1.9L32.1 3.7L32.5 3.8C32.7 3.8 33.1 3.9 33.4 3.9C33.8 3.9 34.2 4 34.6 4L36.9 4.1C36.9 4.9 36.9 5.7 36.9 6.6L36.8 13.1C36.8 14.1 36.8 15.1 36.8 15.9C36.8 16.2 36.8 16.6 36.8 16.9C36.8 17.2 36.9 17.5 37 17.7C37.1 18 37.3 18.2 37.6 18.3C37.8 18.4 38.2 18.5 38.6 18.5C38.8 18.5 39.1 18.5 39.5 18.5C39.9 18.5 40.2 18.4 40.5 18.3L40.9 18.2L40.7 17.2C40.7 17 40.6 16.9 40.6 16.7C40.6 16.5 40.6 16.3 40.6 16.1C40.6 15.8 40.6 15.4 40.6 14.9C40.6 14.4 40.6 13.9 40.6 13.5V11C40.6 9.9 40.6 8.7 40.6 7.5C40.6 6.4 40.6 5.3 40.6 4.2H42.4C42.8 4.2 43.1 4.2 43.4 4.2C43.7 4.2 44 4.2 44.2 4.1C44.6 4.1 45.1 4 45.4 3.5C45.6 3.2 45.6 2.9 45.6 2.4C45.6 2.2 45.6 2 45.6 1.8L45.7 0Z" fill="#661B00"/>
<path d="M49.7 18.4004C50 18.4004 50.4 18.3004 50.7 18.3004L50.9 18.2004L51 18.0004C51.1 17.7004 51.4 17.3004 51.7 16.7004C52 16.1004 52.4 15.5004 52.8 14.8004C53.2 14.1004 53.7 13.3004 54.2 12.5004C54.7 11.7004 55.2 10.8004 55.8 9.90039C56.3 9.00039 56.9 8.20039 57.4 7.30039C57.6 7.00039 57.8 6.70039 58 6.40039C58 7.00039 58 7.60039 58 8.20039C58 8.80039 58 9.40039 58 9.90039V13.1004C58 13.7004 58 14.2004 58 14.7004C58 15.2004 58 15.6004 58 16.0004V17.0004C58 17.5004 58.1 17.9004 58.4 18.2004C58.7 18.4004 59 18.5004 59.6 18.5004C59.8 18.5004 60.1 18.5004 60.5 18.4004C60.9 18.4004 61.3 18.3004 61.7 18.1004L62.1 18.0004V17.6004C62.1 17.3004 62 17.0004 62 16.7004V15.9004C62 15.6004 62 15.4004 62 15.2004C62 14.2004 62 13.2004 62 12.0004V8.70039C62 8.20039 62 7.60039 62 6.90039V5.00039C62 4.40039 62.1 3.80039 62.1 3.20039C62.1 2.60039 62.1 2.10039 62.1 1.80039C62.1 1.30039 62 1.00039 61.8 0.800391C61.4 0.400391 60.8 0.400391 59.7 0.600391C59.3 0.600391 58.9 0.700391 58.5 0.800391H58.3L58.2 1.00039C57.7 1.70039 57.1 2.60039 56.5 3.60039C55.9 4.60039 55.2 5.60039 54.4 6.70039C53.7 7.80039 53 8.90039 52.3 10.0004C52 10.5004 51.7 11.1004 51.3 11.6004V11.4004C51.3 11.1004 51.3 10.7004 51.3 10.3004C51.3 9.90039 51.3 9.40039 51.3 8.90039V6.70039C51.3 6.00039 51.3 5.30039 51.3 4.60039C51.3 3.90039 51.3 3.30039 51.3 2.80039C51.3 2.30039 51.3 1.80039 51.3 1.40039C51.3 1.20039 51.2 0.400391 50 0.400391C49.6 0.400391 49.2 0.400391 48.9 0.500391C48.5 0.500391 48.1 0.600391 47.6 0.700391L47.1 0.800391L47 1.30039C47 1.60039 47.1 1.80039 47.1 2.00039C47.1 2.20039 47.2 2.40039 47.2 2.60039C47.2 2.80039 47.3 3.00039 47.3 3.30039C47.3 3.50039 47.3 3.80039 47.3 4.20039C47.3 4.90039 47.3 5.60039 47.3 6.40039V8.80039C47.3 9.60039 47.3 10.4004 47.3 11.2004C47.3 12.0004 47.3 12.8004 47.3 13.5004C47.3 14.2004 47.3 14.8004 47.3 15.4004V17.3004C47.3 17.5004 47.4 17.7004 47.5 17.9004C47.6 18.1004 47.8 18.2004 48 18.3004C48.4 18.5004 48.9 18.5004 49.7 18.4004Z" fill="#661B00"/>
<path d="M63.7 3.8C63.9 3.8 64.3 3.9 64.6 3.9C65 3.9 65.4 4 65.9 4L68.2 4.1C68.2 4.9 68.2 5.7 68.2 6.6L68.1 13.1C68.1 14.1 68.1 15.1 68.1 15.9C68.1 16.2 68.1 16.6 68.1 16.9C68.1 17.2 68.2 17.5 68.3 17.7C68.4 18 68.6 18.2 68.9 18.3C69.1 18.4 69.5 18.5 69.9 18.5C70.1 18.5 70.4 18.5 70.8 18.5C71.2 18.5 71.5 18.4 71.8 18.3L72.2 18.2L72 17.2C72 17 71.9 16.9 71.9 16.7C71.9 16.5 71.9 16.3 71.9 16.1C71.9 15.8 71.9 15.4 71.9 14.9C71.9 14.4 71.9 13.9 71.9 13.5V11C71.9 9.9 71.9 8.7 71.9 7.5C71.9 6.4 71.9 5.3 71.9 4.2H73.7C74.1 4.2 74.4 4.2 74.7 4.2C75 4.2 75.3 4.2 75.5 4.1C75.9 4.1 76.4 4 76.7 3.5C76.9 3.2 77 2.8 77 2.3C77 2.1 77 1.9 77 1.7L76.8 0L76.2 0.2C75.7 0.4 75 0.5 74 0.5C73 0.5 71.8 0.5 70.5 0.5H69H67.5C67 0.5 66.5 0.5 66 0.5C64.9 0.5 64 0.4 63.5 0.9C63.3 1.1 63.2 1.5 63.2 1.9L63.3 3.7L63.7 3.8Z" fill="#661B00"/>
<path d="M78.3 1.99922C78.4 2.19922 78.4 2.29922 78.4 2.49922C78.4 2.69922 78.5 2.89922 78.5 3.19922C78.5 3.49922 78.6 3.79922 78.6 4.09922C78.6 4.69922 78.6 5.39922 78.6 6.09922C78.6 6.79922 78.6 7.49922 78.6 8.29922C78.6 10.1992 78.6 11.9992 78.6 13.4992C78.6 14.9992 78.5 16.3992 78.5 17.7992V18.2992H79C80 18.3992 81 18.3992 82.1 18.4992C83.2 18.4992 84.3 18.5992 85.2 18.5992C86.1 18.5992 86.9 18.5992 87.5 18.5992C88.1 18.5992 88.6 18.4992 89 18.3992C89.5 18.2992 89.8 18.0992 89.9 17.7992C90.1 17.5992 90.2 17.1992 90.2 16.7992C90.2 16.4992 90.2 16.2992 90.2 16.0992C90.2 15.8992 90.2 15.6992 90.1 15.4992C90.1 15.2992 90 15.1992 90 14.9992L89.9 14.4992L89.4 14.5992C88.8 14.7992 88.2 14.8992 87.6 14.9992C86.8 15.0992 85.7 15.0992 84.4 15.0992H82.3C82.3 14.2992 82.3 13.4992 82.3 12.7992V10.7992C82.5 10.7992 82.8 10.7992 83.1 10.8992L85.8 10.9992C87 10.9992 87.8 10.9992 88.2 10.5992C88.5 10.2992 88.6 9.89922 88.6 9.19922C88.6 8.99922 88.6 8.89922 88.6 8.69922L88.4 7.39922L88 7.49922C87.8 7.49922 87.7 7.59922 87.5 7.59922C87.3 7.59922 87.1 7.59922 86.9 7.59922H86.2C85.3 7.59922 84.5 7.59922 83.8 7.59922C83.3 7.59922 82.8 7.59922 82.3 7.49922V6.19922C82.3 5.59922 82.3 5.09922 82.3 4.69922C82.3 4.39922 82.3 3.99922 82.3 3.69922C83 3.69922 83.7 3.69922 84.4 3.79922C85.3 3.79922 86.1 3.89922 86.9 3.89922C87.8 3.89922 88.4 3.79922 88.7 3.69922C89 3.59922 89.4 3.29922 89.4 2.39922C89.4 2.29922 89.4 2.09922 89.4 1.79922C89.4 1.49922 89.3 1.09922 89.2 0.699219L89.1 0.199219L88.6 0.299219C88.1 0.399219 87.7 0.399219 87.3 0.399219C86.8 0.399219 86.3 0.399219 85.7 0.399219H84.5C84 0.399219 83.6 0.399219 83.2 0.399219C82.7 0.399219 82.3 0.399219 81.9 0.399219C80.9 0.399219 80.2 0.399219 79.6 0.399219C79.2 0.399219 78.9 0.499219 78.6 0.499219L78 0.799219L78.1 1.29922C78.2 1.49922 78.3 1.69922 78.3 1.99922Z" fill="#661B00"/>
<path d="M97.2 17.6C97.5 17.8 97.9 18.1 98.5 18.2C99 18.4 99.6 18.5 100.4 18.6C101.1 18.7 101.9 18.7 102.7 18.7C103.5 18.7 104.4 18.6 105.1 18.3C105.9 18.1 106.6 17.7 107.2 17.2C107.8 16.7 108.3 16.1 108.7 15.4C109.1 14.7 109.3 13.9 109.3 12.9C109.3 11.7 109 10.7 108.4 10C108 9.5 107.5 9.1 107 8.8C107.4 8.5 107.8 8.1 108 7.7C108.5 7 108.7 6.1 108.7 5.2C108.7 4.3 108.5 3.5 108.2 2.9C107.9 2.3 107.5 1.7 106.9 1.3C106.4 0.9 105.7 0.6 105 0.4C103.5 0 101.5 0.1 99.9 0.3C99.1 0.4 98.3 0.5 97.7 0.5H97.4L97.3 0.8C97.2 0.9 97.2 1 97.2 1.1V1.5C97.2 1.8 97.2 2 97.2 2.3C97.2 2.6 97.3 2.8 97.4 3.1C97.5 3.4 97.6 3.6 97.8 3.7C98 4 98.3 4.2 98.8 4.2C99.1 4.2 99.4 4.2 99.7 4.1C99.9 4 100.2 4 100.5 3.9C100.8 3.8 101.1 3.8 101.5 3.7C101.8 3.6 102.2 3.6 102.7 3.6C104.8 3.6 105 4.5 105 5.3C105 5.8 104.9 6.2 104.7 6.4C104.5 6.7 104.3 6.9 104 7C103.7 7.2 103.3 7.3 102.9 7.3C101.9 7.4 100.8 7.4 100 7.3C99.8 7.3 99.6 7.3 99.4 7.2L98.9 7.1L98.7 8.3C98.7 8.6 98.6 8.9 98.6 9.2C98.6 9.6 98.7 9.9 98.8 10.3C99 10.7 99.4 10.9 99.8 10.9C100.2 10.9 100.6 10.9 100.9 10.8C101.6 10.7 102.8 10.7 103.6 10.8C104 10.9 104.3 11 104.6 11.1C104.8 11.2 105 11.4 105.2 11.7C105.3 11.9 105.4 12.3 105.4 12.7C105.4 13.4 105.2 14 104.7 14.3C104.2 14.7 103.5 14.9 102.7 14.9C102.1 14.9 101.6 14.9 101.2 14.8C100.8 14.7 100.4 14.7 100 14.6C99.6 14.5 99.3 14.4 99 14.2C98.7 14 98.4 13.8 98 13.6L97.5 13.3L97.3 13.8C97.2 14.1 97 14.4 96.9 14.6C96.8 14.8 96.7 15.1 96.6 15.4C96.5 15.7 96.5 16 96.5 16.2C96.6 16.8 96.7 17.2 97.2 17.6Z" fill="#661B00"/>
<path d="M111.4 18.4992C111.7 18.4992 112 18.4992 112.3 18.4992C112.6 18.4992 112.8 18.4992 113 18.3992C113.2 18.3992 113.4 18.2992 113.6 18.2992L114 18.1992V17.7992C114 17.0992 114.1 16.4992 114.2 15.8992C114.3 15.2992 114.5 14.6992 114.7 13.8992C114.9 13.8992 115.2 13.8992 115.5 13.8992C116 13.8992 116.5 13.8992 117.1 13.8992H118.3C118.7 13.8992 119.1 13.8992 119.4 13.8992C119.8 13.8992 120.1 13.8992 120.3 13.8992C120.4 13.8992 120.5 13.8992 120.5 13.8992C120.6 14.1992 120.7 14.3992 120.7 14.6992L121.1 15.7992C121.3 16.3992 121.5 16.7992 121.6 17.1992C121.8 17.5992 122 17.8992 122.3 18.0992C122.6 18.2992 122.9 18.3992 123.2 18.4992C123.5 18.5992 123.8 18.5992 124.2 18.5992C124.8 18.5992 125.3 18.4992 125.7 18.1992V19.1992C125.7 19.5992 125.7 19.9992 125.7 20.3992C125.7 20.7992 125.7 21.0992 125.7 21.3992C125.7 21.7992 125.8 22.0992 126 22.2992C126.3 22.6992 126.9 22.6992 127.1 22.6992C127.5 22.6992 127.8 22.6992 128 22.5992C128.3 22.5992 128.5 22.4992 128.7 22.4992C128.9 22.3992 129.1 22.2992 129.3 22.2992L129.7 22.0992L129.6 21.6992C129.5 21.3992 129.5 21.0992 129.4 20.6992C129.3 20.3992 129.3 19.9992 129.2 19.5992C129.2 19.2992 129.1 18.8992 129.1 18.5992C129.4 18.5992 129.7 18.5992 130 18.5992C130.5 18.5992 131 18.5992 131.5 18.5992C132 18.5992 132.5 18.5992 133.1 18.5992C133.6 18.5992 134.1 18.5992 134.6 18.5992H136C136.5 18.5992 137 18.5992 137.5 18.5992C138 18.5992 138.5 18.5992 138.9 18.5992C139.2 18.5992 139.4 18.5992 139.6 18.5992V20.9992C139.6 21.2992 139.6 21.4992 139.7 21.6992C139.7 21.9992 139.8 22.1992 140 22.3992C140.2 22.5992 140.4 22.6992 140.6 22.6992C140.8 22.7992 141.1 22.7992 141.4 22.7992C141.8 22.7992 142.4 22.6992 143 22.5992L143.4 22.4992V22.0992C143.3 21.0992 143.2 20.1992 143.2 19.3992C143.2 18.5992 143.2 17.6992 143.2 16.8992C143.2 16.5992 143.2 16.2992 143.1 16.0992C143 15.8992 142.8 15.6992 142.5 15.5992C142.3 15.4992 142 15.4992 141.7 15.4992C141.5 15.4992 141.3 15.4992 141.1 15.4992C141.1 15.0992 141.1 14.4992 141.1 13.7992C141.1 12.6992 141.1 11.3992 141.1 9.79922C141.1 8.59922 141.1 7.59922 141.1 6.79922C141.1 5.89922 141.2 5.19922 141.2 4.59922C141.2 3.99922 141.3 3.49922 141.3 3.19922C141.4 2.79922 141.4 2.49922 141.4 2.29922C141.4 2.09922 141.4 1.89922 141.3 1.69922C141.3 1.49922 141.1 1.29922 140.8 1.09922C140.6 0.999219 140.3 0.899219 140 0.799219C139.7 0.699219 139.3 0.699219 138.9 0.699219C138.5 0.699219 138.1 0.699219 137.6 0.699219C137.1 0.699219 136.5 0.699219 135.9 0.699219C135.2 0.699219 134.5 0.699219 133.6 0.699219C132.7 0.699219 131.8 0.699219 130.7 0.799219H130.1L130.2 1.39922C130.4 2.39922 130.5 3.39922 130.5 4.19922C130.4 5.69922 130.3 7.09922 130.1 8.29922C129.9 9.49922 129.7 10.4992 129.5 11.4992C129.3 12.3992 129 13.1992 128.6 13.8992C128.3 14.4992 127.9 14.9992 127.5 15.4992C127.1 15.4992 126.8 15.5992 126.5 15.6992V15.0992L125.9 15.1992C125.8 15.1992 125.8 15.1992 125.7 15.1992C125.4 15.1992 125.2 15.0992 125 14.7992C124.7 14.3992 124.5 13.8992 124.3 13.1992C124 12.1992 123.7 11.0992 123.4 10.0992L122.6 7.09922C122.4 6.19922 122.1 5.29922 121.9 4.49922C121.7 3.69922 121.5 3.09922 121.3 2.59922C121.2 2.29922 121.1 1.99922 121 1.79922C120.9 1.49922 120.7 1.29922 120.6 1.19922C120.4 0.999219 120.2 0.899219 119.9 0.899219C119.5 0.799219 118.8 0.799219 118.1 0.899219C117.8 0.899219 117.5 0.999219 117.2 0.999219L116 0.899219L115.9 1.19922C115.7 1.89922 115.5 2.69922 115.2 3.49922C114.9 4.39922 114.5 5.29922 114.2 6.19922C113.8 7.09922 113.4 8.09922 113 8.99922C112.6 9.89922 112.2 10.8992 111.8 11.7992C111.4 12.6992 111.1 13.4992 110.8 14.2992C110.5 15.0992 110.3 15.7992 110.2 16.2992C110 17.0992 110 17.5992 110.2 17.8992C110.5 18.2992 110.9 18.4992 111.4 18.4992ZM115.8 10.7992C116 10.3992 116.1 9.99922 116.3 9.59922C116.6 8.89922 116.9 8.29922 117.2 7.59922C117.5 6.89922 117.8 6.29922 118 5.69922C118.1 5.49922 118.2 5.29922 118.3 5.09922C118.6 5.89922 118.8 6.69922 119 7.49922C119.3 8.59922 119.5 9.69922 119.8 10.7992C119.6 10.7992 119.4 10.7992 119.2 10.7992C118.7 10.7992 118.2 10.7992 117.7 10.7992H116.2C116 10.7992 115.9 10.7992 115.8 10.7992ZM137.4 14.9992C137.1 14.9992 136.7 14.9992 136.4 14.9992H135C134.3 14.9992 133.6 14.9992 132.8 14.9992C132.4 14.9992 132 14.9992 131.6 14.9992C131.8 14.6992 132 14.2992 132.2 13.8992C132.5 13.1992 132.8 12.2992 133 11.2992C133.2 10.2992 133.4 9.09922 133.6 7.79922C133.7 6.59922 133.9 5.19922 133.9 3.59922C134.6 3.59922 135.2 3.49922 135.8 3.59922C136.4 3.59922 137 3.59922 137.5 3.59922C137.4 4.89922 137.4 6.09922 137.3 7.19922C137.3 8.39922 137.3 9.59922 137.3 10.7992V12.9992C137.3 13.6992 137.4 14.2992 137.4 14.9992Z" fill="#661B00"/>
<path d="M144.8 18.5C145.1 18.5 145.4 18.5 145.7 18.5C146 18.5 146.2 18.5 146.4 18.4C146.6 18.4 146.8 18.3 147 18.3L147.4 18.2V17.8C147.4 17.1 147.5 16.5 147.6 15.9C147.7 15.3 147.9 14.7 148.1 13.9C148.3 13.9 148.6 13.9 148.9 13.9C149.4 13.9 149.9 13.9 150.5 13.9H151.7C152.1 13.9 152.5 13.9 152.8 13.9C153.2 13.9 153.5 13.9 153.7 13.9C153.8 13.9 153.9 13.9 153.9 13.9C154 14.2 154.1 14.4 154.1 14.7L154.5 15.8C154.7 16.3 154.9 16.8 155 17.2C155.2 17.6 155.4 17.9 155.7 18.1C156 18.3 156.3 18.4 156.6 18.5C156.9 18.6 157.2 18.6 157.6 18.6C158.4 18.6 158.9 18.4 159.3 18C159.6 17.6 159.8 17.2 159.8 16.6C159.8 16.4 159.8 16.3 159.8 16.2V14.9L159.2 15C159.1 15 159.1 15 159 15C158.7 15 158.5 14.9 158.3 14.6C158 14.2 157.8 13.7 157.6 13C157.3 12 157 10.9 156.7 9.9C156.4 8.8 156.2 7.8 155.9 6.9C155.7 6 155.4 5.1 155.2 4.3C155 3.5 154.8 2.9 154.6 2.4C154.5 2.1 154.4 1.8 154.3 1.6C154.2 1.3 154 1.1 153.9 1C153.7 0.8 153.5 0.7 153.2 0.7C152.8 0.6 152.1 0.6 151.4 0.7C151.1 0.7 150.8 0.8 150.5 0.8L149.3 1.1L149.2 1.4C149 2.1 148.8 2.9 148.5 3.7C148.2 4.6 147.8 5.5 147.5 6.4C147.1 7.3 146.7 8.3 146.3 9.2C145.9 10.1 145.5 11.1 145.1 12C144.7 12.9 144.4 13.7 144.1 14.5C143.8 15.3 143.6 16 143.5 16.5C143.3 17.3 143.3 17.8 143.5 18.1C143.8 18.3 144.2 18.5 144.8 18.5ZM149.1 10.8C149.3 10.4 149.4 10 149.6 9.6C149.9 8.9 150.2 8.3 150.5 7.6C150.8 6.9 151.1 6.3 151.3 5.7C151.4 5.5 151.5 5.3 151.6 5.1C151.9 5.9 152.1 6.7 152.3 7.5C152.6 8.6 152.8 9.7 153.1 10.8C152.9 10.8 152.7 10.8 152.5 10.8C152 10.8 151.5 10.8 151 10.8H149.5C149.4 10.8 149.2 10.8 149.1 10.8Z" fill="#661B00"/>
<path d="M158.1 3.8C158.3 3.8 158.7 3.9 159 3.9C159.4 3.9 159.8 4 160.2 4L162.5 4.1C162.5 4.9 162.5 5.7 162.5 6.6L162.4 13.1C162.4 14.1 162.4 15.1 162.4 15.9C162.4 16.2 162.4 16.6 162.4 16.9C162.4 17.2 162.5 17.5 162.6 17.7C162.7 18 162.9 18.2 163.2 18.3C163.4 18.4 163.8 18.5 164.2 18.5C164.4 18.5 164.7 18.5 165.1 18.5C165.5 18.5 165.8 18.4 166.1 18.3L166.5 18.2L166.3 17.2C166.3 17 166.2 16.9 166.2 16.7C166.2 16.5 166.2 16.3 166.2 16.1C166.2 15.8 166.2 15.4 166.2 14.9C166.2 14.4 166.2 13.9 166.2 13.5V11C166.2 9.9 166.2 8.7 166.2 7.5C166.2 6.4 166.2 5.3 166.2 4.2H168C168.4 4.2 168.7 4.2 169 4.2C169.3 4.2 169.6 4.2 169.8 4.1C170.2 4.1 170.7 4 171 3.5C171.2 3.2 171.2 2.9 171.2 2.4C171.2 2.2 171.2 2 171.2 1.8L171.1 0L170.5 0.2C170 0.4 169.3 0.5 168.3 0.5C167.3 0.5 166.1 0.5 164.8 0.5H163.3H161.8C161.3 0.5 160.8 0.5 160.3 0.5C159.2 0.5 158.3 0.4 157.8 0.9C157.6 1.1 157.5 1.5 157.5 1.9L157.6 3.7L158.1 3.8Z" fill="#661B00"/>
<path d="M172.5 2.09945C172.6 2.19945 172.6 2.39945 172.6 2.59945C172.6 2.79945 172.7 2.99945 172.7 3.29945C172.7 3.49945 172.8 3.79945 172.8 4.09945C172.8 4.49945 172.9 4.79945 172.9 5.29945C172.9 5.69945 173 6.19945 173 6.59945C173 7.09945 173 7.49945 173 7.99945C173 8.49945 173 8.89946 173 9.29945C173 10.4995 173 11.8995 172.9 13.2995C172.8 14.6995 172.8 15.9995 172.7 17.2995V17.6995L173.1 17.7995C173.5 17.9995 174 18.0995 174.5 18.1995C174.9 18.2995 175.5 18.3995 176.1 18.4995C176.7 18.5995 177.4 18.5995 178.2 18.5995C179.3 18.5995 180.3 18.4995 181.1 18.2995C182 18.0995 182.8 17.6995 183.5 17.1995C184.2 16.6995 184.7 15.9995 185.1 15.1995C185.5 14.3995 185.7 13.4995 185.7 12.3995C185.7 11.4995 185.5 10.6995 185.2 9.99945C184.9 9.29945 184.5 8.69945 183.9 8.29945C183.4 7.79945 182.7 7.49945 182 7.29945C180.7 6.89945 179 6.89945 177.7 7.09945C177.3 7.19945 177 7.19945 176.7 7.29945C176.7 6.29945 176.7 5.49945 176.7 4.69945C176.7 3.79945 176.7 2.99945 176.7 2.29945C176.7 2.09945 176.7 1.79945 176.7 1.69945C176.7 1.39945 176.6 1.19945 176.5 1.09945C176.4 0.899454 176.2 0.699454 176 0.699454C175.6 0.499454 175 0.599454 174.2 0.699454C173.8 0.799454 173.3 0.899454 172.8 0.999454L172.3 1.09945L172.4 1.59945C172.4 1.59945 172.5 1.79945 172.5 2.09945ZM176.5 14.9995C176.5 14.5995 176.6 14.0995 176.6 13.6995C176.6 13.1995 176.7 12.5995 176.7 11.9995V10.4995C176.9 10.3995 177.2 10.3995 177.5 10.2995C177.9 10.1995 178.5 10.1995 179.1 10.1995C180 10.1995 180.7 10.3995 181.2 10.7995C181.6 11.1995 181.8 11.7995 181.8 12.5995C181.8 13.0995 181.7 13.4995 181.6 13.7995C181.4 14.0995 181.2 14.3995 180.9 14.5995C180.6 14.7995 180.3 14.9995 179.9 15.0995C179.2 15.2995 178.2 15.2995 177.5 15.1995C177.2 15.1995 177 15.0995 176.8 15.0995C176.7 14.9995 176.6 14.9995 176.5 14.9995Z" fill="#661B00"/>
<path d="M193.3 2.29957C193.3 2.49957 193.4 2.69957 193.4 2.89957C193.4 3.09957 193.5 3.39957 193.5 3.69957C193.5 3.99957 193.6 4.29957 193.6 4.69957C193.6 5.29957 193.6 5.99957 193.6 6.59957V8.59957C193.6 10.0996 193.6 11.4996 193.6 12.9996C193.6 14.3996 193.5 15.7996 193.5 17.0996V17.4996L193.9 17.5996C194.4 17.7996 194.9 17.8996 195.5 17.9996C196 18.0996 196.5 18.1996 197.2 18.2996C197.9 18.3996 198.6 18.3996 199.3 18.3996C200.5 18.3996 201.5 18.2996 202.4 17.9996C203.3 17.6996 204 17.2996 204.6 16.7996C205.2 16.2996 205.6 15.5996 205.9 14.8996C206.2 14.1996 206.3 13.3996 206.3 12.5996C206.3 12.1996 206.2 11.6996 206.1 11.2996C206 10.7996 205.8 10.3996 205.5 9.99957C205.2 9.59957 204.9 9.19957 204.4 8.89957C204.2 8.79957 204 8.59957 203.8 8.49957C204.2 8.19957 204.5 7.79957 204.8 7.39957C205.2 6.69957 205.4 5.89957 205.4 4.99957C205.4 3.99957 205.2 3.19957 204.9 2.59957C204.5 1.89957 204 1.39957 203.4 1.09957C202.8 0.69957 202.1 0.49957 201.3 0.29957C199.1 -0.10043 196.5 0.0995703 193.4 0.79957L193 1.09957L193.1 1.59957C193.2 1.89957 193.3 2.09957 193.3 2.29957ZM197.2 13.8996C197.2 13.3996 197.3 12.8996 197.3 12.2996V10.8996C197.5 10.8996 197.8 10.8996 198 10.8996H198.9C199.4 10.8996 200 10.8996 200.4 10.9996C200.8 11.0996 201.2 11.1996 201.5 11.3996C201.8 11.5996 202 11.7996 202.2 12.0996C202.4 12.3996 202.4 12.6996 202.4 13.0996C202.4 13.8996 202.2 14.4996 201.7 14.8996C201.2 15.2996 200.4 15.4996 199.3 15.4996C198.9 15.4996 198.6 15.4996 198.3 15.4996C198 15.4996 197.7 15.3996 197.4 15.2996C197.3 15.2996 197.1 15.1996 197 15.1996L197.2 13.8996ZM201 7.09957C200.6 7.49957 199.8 7.69957 198.7 7.69957H197.3V6.29957C197.3 5.69957 197.3 5.19957 197.3 4.79957V3.79957C197.5 3.79957 197.7 3.69957 197.9 3.69957C198.2 3.69957 198.6 3.59957 199.1 3.59957C200 3.59957 200.8 3.79957 201.2 4.09957C201.6 4.39957 201.8 4.79957 201.8 5.59957C201.7 6.09957 201.5 6.59957 201 7.09957Z" fill="#661B00"/>
<path d="M209.7 16.1996C210.4 16.9996 211.3 17.5996 212.3 18.0996C213.3 18.4996 214.5 18.6996 215.8 18.6996C217.1 18.6996 218.2 18.3996 219.2 17.8996C220.2 17.3996 221.1 16.6996 221.8 15.7996C222.5 14.8996 223 13.8996 223.4 12.7996C223.8 11.6996 224 10.4996 224 9.19961C224 7.89961 223.8 6.69961 223.5 5.59961C223.2 4.49961 222.6 3.49961 222 2.69961C221.3 1.89961 220.4 1.29961 219.4 0.799609C218.4 0.399609 217.2 0.0996094 215.8 0.0996094C214.5 0.0996094 213.4 0.399609 212.4 0.899609C211.4 1.39961 210.5 2.09961 209.8 2.99961C209.1 3.89961 208.6 4.89961 208.2 5.99961C207.8 7.09961 207.6 8.29961 207.6 9.59961C207.6 10.8996 207.8 12.0996 208.1 13.1996C208.5 14.4996 209 15.3996 209.7 16.1996ZM211.5 9.49961C211.5 8.49961 211.6 7.69961 211.9 6.99961C212.1 6.29961 212.5 5.59961 212.8 5.09961C213.2 4.59961 213.7 4.19961 214.2 3.99961C214.7 3.69961 215.2 3.59961 215.8 3.59961C216.4 3.59961 217 3.69961 217.5 3.99961C218 4.19961 218.5 4.59961 218.9 5.09961C219.3 5.59961 219.6 6.19961 219.8 6.89961C220 7.59961 220.1 8.49961 220.1 9.39961C220.1 10.2996 220 11.1996 219.7 11.8996C219.5 12.5996 219.2 13.2996 218.8 13.7996C218.4 14.2996 218 14.6996 217.4 14.9996C216.3 15.5996 215 15.4996 214.1 14.9996C213.6 14.6996 213.1 14.3996 212.7 13.8996C212.3 13.3996 212 12.7996 211.8 12.0996C211.6 11.2996 211.5 10.4996 211.5 9.49961Z" fill="#661B00"/>
<path d="M226.5 2.60039C226.6 3.00039 226.7 3.60039 226.7 4.10039C226.7 4.40039 226.7 4.90039 226.7 5.80039V8.90039C226.7 9.70039 226.7 10.5004 226.7 11.3004C226.7 12.1004 226.7 12.9004 226.6 13.6004C226.6 14.3004 226.5 15.0004 226.5 15.5004C226.5 16.1004 226.5 16.5004 226.5 16.8004C226.5 17.4004 226.6 17.8004 226.8 18.1004C227 18.4004 227.4 18.5004 228.1 18.5004C228.3 18.5004 228.6 18.5004 229 18.5004C229.4 18.5004 229.7 18.4004 230 18.3004L230.5 18.2004L230.4 17.7004C230.4 17.5004 230.3 17.3004 230.3 17.1004C230.3 16.9004 230.2 16.7004 230.2 16.4004C230.2 16.1004 230.2 15.9004 230.2 15.5004C230.2 13.4004 230.2 11.3004 230.3 9.30039L230.5 3.80039C230.8 3.80039 231.1 3.80039 231.5 3.80039H234.2C234.5 3.80039 234.9 3.80039 235.3 3.80039C235.6 3.80039 236 3.80039 236.3 3.80039C236.5 3.80039 236.6 3.80039 236.7 3.80039C236.7 4.60039 236.7 5.50039 236.7 6.50039C236.7 7.70039 236.7 9.00039 236.6 10.3004L236.5 14.1004C236.5 15.4004 236.5 16.4004 236.5 17.3004C236.5 17.7004 236.7 18.0004 236.9 18.1004C237.1 18.2004 237.4 18.3004 238 18.3004C238.2 18.3004 238.5 18.3004 238.9 18.3004C239.3 18.3004 239.7 18.2004 240.2 18.0004L240.6 17.9004V17.5004C240.6 17.4004 240.6 17.2004 240.5 16.9004C240.5 16.7004 240.4 16.5004 240.4 16.3004C240.4 16.0004 240.4 15.6004 240.4 15.2004C240.4 14.2004 240.4 13.2004 240.4 12.1004C240.4 11.0004 240.4 9.80039 240.5 8.70039C240.5 8.20039 240.5 7.60039 240.5 7.00039L240.6 5.00039C240.6 4.30039 240.7 3.70039 240.7 3.10039C240.7 2.50039 240.7 2.10039 240.7 1.80039C240.7 1.30039 240.5 0.900391 240.2 0.800391C240 0.600391 239.6 0.500391 239.2 0.500391C238.7 0.500391 238.2 0.400391 237.7 0.400391H236.4C235.9 0.400391 235.5 0.400391 235 0.400391H233.5C232.3 0.400391 231.2 0.400391 230.2 0.400391C229.2 0.400391 228.1 0.500391 226.9 0.600391L226 0.700391L226.2 1.30039C226.3 1.70039 226.4 2.10039 226.5 2.60039Z" fill="#661B00"/>
<path d="M254.3 1.70051C253.7 1.20051 253 0.900512 252.2 0.700511C250.7 0.300511 249.1 0.300511 246.7 0.500511C245.6 0.600511 244.6 0.800511 243.5 1.00051L243 1.10051L243.2 1.60051C243.4 2.10051 243.5 2.60051 243.6 3.30051C243.7 4.00051 243.8 4.70051 243.8 5.50051C243.8 6.10051 243.8 6.70051 243.8 7.20051V8.80051C243.8 10.6005 243.8 12.2005 243.7 13.6005C243.7 14.9005 243.6 16.1005 243.6 17.1005C243.6 17.6005 243.7 17.9005 244.1 18.2005C244.3 18.4005 244.7 18.5005 245.2 18.5005C245.4 18.5005 245.7 18.5005 246 18.4005C246.2 18.4005 246.5 18.3005 246.7 18.3005L247.9 18.1005L247.8 17.6005C247.7 17.3005 247.7 16.9005 247.6 16.6005C247.6 16.3005 247.5 16.0005 247.5 15.7005C247.5 15.4005 247.5 15.1005 247.5 14.8005V14.2005C247.5 13.9005 247.5 13.6005 247.5 13.3005C247.5 13.0005 247.5 12.7005 247.5 12.4005C247.5 12.3005 247.5 12.3005 247.5 12.2005C247.7 12.2005 247.9 12.3005 248.2 12.3005H248.9C249.9 12.3005 250.8 12.2005 251.7 12.0005C252.6 11.8005 253.4 11.4005 254.1 10.9005C254.8 10.4005 255.3 9.80051 255.7 9.00051C256.1 8.20051 256.3 7.30051 256.3 6.20051C256.3 5.20051 256.1 4.30051 255.8 3.60051C255.4 2.80051 254.9 2.20051 254.3 1.70051ZM252.3 6.20051C252.3 7.10051 252 7.80051 251.5 8.20051C251 8.70051 250.1 8.90051 248.9 8.90051C248.6 8.90051 248.4 8.90051 248.2 8.90051C248 8.90051 247.8 8.90051 247.6 8.80051H247.4V6.80051C247.4 6.10051 247.4 5.40051 247.4 4.90051C247.4 4.50051 247.4 4.10051 247.3 3.70051C247.5 3.70051 247.8 3.60051 248 3.60051C248.8 3.50051 249.8 3.50051 250.5 3.70051C250.9 3.80051 251.2 3.90051 251.5 4.20051C251.8 4.40051 251.9 4.60051 252.1 4.90051C252.3 5.30051 252.3 5.70051 252.3 6.20051Z" fill="#661B00"/>
<path d="M271.8 2.69961C271.1 1.89961 270.2 1.29961 269.2 0.799609C268.2 0.399609 267 0.0996094 265.6 0.0996094C264.3 0.0996094 263.2 0.399609 262.2 0.899609C261.2 1.39961 260.3 2.09961 259.6 2.99961C258.9 3.89961 258.4 4.89961 258 5.99961C257.6 7.09961 257.4 8.29961 257.4 9.59961C257.4 10.8996 257.6 12.0996 257.9 13.1996C258.3 14.2996 258.8 15.2996 259.5 16.0996C260.2 16.8996 261.1 17.4996 262.1 17.9996C263.1 18.3996 264.3 18.5996 265.6 18.5996C266.9 18.5996 268 18.2996 269 17.7996C270 17.2996 270.9 16.5996 271.6 15.6996C272.3 14.7996 272.9 13.7996 273.2 12.6996C273.6 11.5996 273.8 10.3996 273.8 9.09961C273.8 7.79961 273.6 6.59961 273.3 5.49961C273 4.49961 272.5 3.49961 271.8 2.69961ZM270 9.39961C270 10.2996 269.9 11.1996 269.6 11.8996C269.4 12.5996 269.1 13.2996 268.7 13.7996C268.3 14.2996 267.9 14.6996 267.3 14.9996C266.3 15.5996 264.9 15.4996 264 14.9996C263.5 14.6996 263 14.3996 262.6 13.8996C262.2 13.3996 261.9 12.7996 261.7 12.0996C261.5 11.3996 261.4 10.4996 261.4 9.59961C261.4 8.69961 261.5 7.79961 261.8 7.09961C262 6.39961 262.4 5.69961 262.7 5.19961C263.1 4.69961 263.6 4.29961 264.1 4.09961C264.6 3.79961 265.1 3.69961 265.7 3.69961C266.3 3.69961 266.9 3.79961 267.4 4.09961C267.9 4.29961 268.4 4.69961 268.8 5.19961C269.2 5.69961 269.5 6.29961 269.7 6.99961C269.9 7.59961 270 8.39961 270 9.39961Z" fill="#661B00"/>
<path d="M288.7 15.1008C288.6 14.7008 288.4 14.3008 288.1 14.0008L287.8 13.6008L287.4 13.9008C287 14.2008 286.5 14.5008 285.9 14.7008C285.3 15.0008 284.6 15.1008 283.8 15.1008C282.4 15.1008 281.4 14.6008 280.6 13.7008C279.8 12.7008 279.4 11.3008 279.4 9.50078C279.4 8.50078 279.5 7.70078 279.7 7.00078C279.9 6.30078 280.3 5.70078 280.6 5.20078C281 4.70078 281.4 4.30078 281.9 4.10078C282.7 3.70078 283.7 3.70078 284.5 3.80078C284.8 3.80078 285.1 3.90078 285.4 3.90078C285.7 3.90078 285.9 4.00078 286.1 4.00078C286.4 4.00078 286.6 4.10078 286.9 4.10078C287.5 4.10078 288 3.80078 288.2 3.20078C288.4 2.80078 288.4 2.00078 288.4 1.00078V0.500781H287.9C287.6 0.500781 287.3 0.500781 287 0.500781C286.7 0.500781 286.3 0.400781 286 0.400781C285.7 0.400781 285.3 0.300781 284.9 0.300781C284.5 0.300781 284 0.300781 283.5 0.300781C282.2 0.300781 281 0.600781 279.9 1.10078C278.9 1.60078 278 2.30078 277.3 3.20078C276.6 4.10078 276.1 5.10078 275.8 6.30078C275.5 7.40078 275.3 8.60078 275.3 9.80078C275.3 11.2008 275.5 12.5008 275.9 13.7008C276.3 14.8008 276.9 15.7008 277.7 16.5008C278.5 17.3008 279.3 17.8008 280.4 18.2008C281.4 18.6008 282.5 18.7008 283.6 18.7008C284.2 18.7008 284.8 18.6008 285.3 18.5008C285.9 18.4008 286.4 18.3008 286.9 18.1008C287.4 17.9008 287.8 17.7008 288.1 17.4008C288.6 17.0008 288.7 16.5008 288.7 16.2008C288.9 15.9008 288.9 15.5008 288.7 15.1008Z" fill="#661B00"/>
<path d="M66.5 31.3009C66.7 31.0009 66.9 30.7009 67.1 30.4009C67.1 31.0009 67.1 31.6009 67.1 32.2009C67.1 32.8009 67.1 33.4009 67.1 33.9009V37.1009C67.1 37.7009 67.1 38.2009 67.1 38.7009C67.1 39.2009 67.1 39.6009 67.1 40.0009V41.0009C67.1 41.5009 67.2 41.9009 67.5 42.2009C67.8 42.4009 68.1 42.5009 68.7 42.5009C68.9 42.5009 69.2 42.5009 69.6 42.4009C70 42.4009 70.4 42.3009 70.8 42.1009L71.2 42.0009V41.6009C71.2 41.3009 71.1 41.0009 71.1 40.7009V39.9009C71.1 39.6009 71.1 39.4009 71.1 39.2009C71.1 38.2009 71.1 37.2009 71.1 36.0009V32.5009C71.1 32.0009 71.1 31.4009 71.1 30.7009V28.8009C71.1 28.2009 71.2 27.6009 71.2 27.0009C71.2 26.4009 71.2 25.9009 71.2 25.6009C71.2 25.1009 71.1 24.8009 70.9 24.6009C70.5 24.2009 69.9 24.2009 68.8 24.4009C68.4 24.4009 68 24.5009 67.6 24.6009H67.4L67 24.9009C66.5 25.6009 65.9 26.5009 65.3 27.5009C64.7 28.5009 64 29.5009 63.2 30.6009C62.5 31.7009 61.8 32.8009 61.1 33.9009C60.8 34.4009 60.5 35.0009 60.1 35.5009V35.3009C60.1 35.0009 60.1 34.6009 60.1 34.2009C60.1 33.8009 60.1 33.3009 60.1 32.8009V30.6009C60.1 29.9009 60.1 29.2009 60.1 28.5009C60.1 27.8009 60.1 27.2009 60.1 26.7009C60.1 26.2009 60.1 25.7009 60.1 25.3009C60.1 25.1009 60 24.3009 58.8 24.3009C58.4 24.3009 58 24.3009 57.7 24.4009C57.3 24.4009 56.9 24.5009 56.4 24.6009L55.9 24.7009L56 25.2009C56 25.5009 56.1 25.7009 56.1 25.9009C56.1 26.1009 56.2 26.3009 56.2 26.5009C56.2 26.7009 56.3 26.9009 56.3 27.2009C56.3 27.4009 56.3 27.7009 56.3 28.1009C56.3 28.8009 56.3 29.5009 56.3 30.3009V32.7009C56.3 33.5009 56.3 34.3009 56.3 35.1009C56.3 35.9009 56.3 36.7009 56.3 37.4009C56.3 38.1009 56.3 38.7009 56.3 39.3009V41.2009C56.3 41.4009 56.4 41.6009 56.5 41.8009C56.6 42.0009 56.8 42.1009 57 42.2009C57.4 42.4009 57.9 42.4009 58.6 42.3009C58.9 42.3009 59.3 42.2009 59.6 42.2009L59.8 42.1009L59.9 41.9009C60 41.6009 60.3 41.2009 60.6 40.6009L61.7 38.7009C62.1 38.0009 62.6 37.2009 63.1 36.4009C63.6 35.6009 64.1 34.7009 64.7 33.8009C65.4 33.0009 65.9 32.2009 66.5 31.3009Z" fill="#661B00"/>
<path d="M83.4 27.6996C83.6 27.6996 83.8 27.6996 84 27.6996C83.9 28.9996 83.9 30.2996 83.9 31.4996C83.9 32.8996 83.9 34.2996 83.9 35.6996V38.6996C83.9 39.5996 83.9 40.3996 84 41.0996C84 41.4996 84.1 41.7996 84.4 42.0996C84.6 42.2996 85 42.3996 85.5 42.3996C85.9 42.3996 86.3 42.3996 86.7 42.2996C87.1 42.1996 87.5 42.0996 87.8 41.9996L88.2 41.7996L88.1 41.2996C88 40.9996 88 40.5996 87.9 39.9996C87.8 39.3996 87.8 38.6996 87.8 37.9996C87.8 37.2996 87.7 36.4996 87.7 35.7996C87.7 35.0996 87.7 34.3996 87.7 33.8996C87.7 31.9996 87.7 30.2996 87.8 28.8996C87.9 27.4996 87.9 26.3996 87.9 25.6996C87.9 25.4996 87.9 25.2996 87.8 25.0996C87.8 24.8996 87.6 24.6996 87.3 24.4996C87.1 24.3996 86.9 24.2996 86.6 24.1996C86.3 24.0996 86 24.0996 85.6 24.0996C85.3 24.0996 84.8 24.0996 84.3 24.0996C83.2 24.0996 81.9 24.0996 80.2 24.0996C79.3 24.0996 78.3 24.0996 77.2 24.1996H76.6L76.7 24.7996C76.8 25.0996 76.8 25.4996 76.9 25.7996C76.9 26.0996 76.9 26.4996 76.9 26.9996C76.9 27.8996 76.9 28.7996 76.8 29.6996C76.7 30.9996 76.6 31.9996 76.4 32.9996C76.2 34.2996 75.9 35.3996 75.7 36.1996C75.4 36.9996 75.2 37.5996 74.9 37.9996C74.7 38.3996 74.4 38.5996 74.2 38.6996C73.9 38.8996 73.6 38.8996 73.3 38.7996C73.2 38.7996 73.2 38.7996 73.2 38.7996L72.7 38.5996L72.6 39.0996C72.5 39.2996 72.5 39.4996 72.5 39.6996C72.5 39.8996 72.4 40.0996 72.4 40.2996C72.4 40.4996 72.4 40.6996 72.4 40.8996C72.4 41.4996 72.5 41.8996 72.8 42.1996C73.1 42.3996 73.5 42.4996 74 42.4996C74.7 42.4996 75.4 42.2996 76.1 41.9996C76.7 41.6996 77.3 41.0996 77.8 40.2996C78.3 39.4996 78.7 38.5996 79.1 37.3996C79.5 36.1996 79.8 34.7996 80 33.0996C80.1 32.0996 80.3 31.0996 80.3 30.0996C80.4 29.2996 80.4 28.4996 80.4 27.6996C80.6 27.6996 80.8 27.6996 81 27.6996C81.8 27.6996 82.6 27.6996 83.4 27.6996Z" fill="#661B00"/>
<path d="M104 42.3992C104.4 42.3992 104.8 42.2992 105.2 42.0992L105.6 41.9992V41.5992C105.6 41.2992 105.5 40.9992 105.5 40.6992V39.8992C105.5 39.5992 105.5 39.3992 105.5 39.1992C105.5 38.1992 105.5 37.1992 105.5 35.9992V32.4992C105.5 31.9992 105.5 31.3992 105.5 30.6992V28.7992C105.5 28.1992 105.6 27.5992 105.6 26.9992C105.6 26.3992 105.6 25.8992 105.6 25.5992C105.6 25.0992 105.5 24.7992 105.3 24.5992C104.9 24.1992 104.3 24.1992 103.2 24.3992C102.8 24.3992 102.4 24.4992 102 24.5992H101.8L101.7 24.7992C101.2 25.4992 100.6 26.3992 100 27.3992C99.3 28.3992 98.7 29.3992 97.9 30.4992C97.2 31.5992 96.5 32.6992 95.8 33.7992C95.5 34.2992 95.2 34.8992 94.8 35.3992V35.1992C94.8 34.8992 94.8 34.4992 94.8 34.0992C94.8 33.6992 94.8 33.1992 94.8 32.6992V30.4992C94.8 29.7992 94.8 29.0992 94.8 28.3992C94.8 27.6992 94.8 27.0992 94.8 26.5992C94.8 26.0992 94.8 25.5992 94.8 25.1992C94.8 24.9992 94.7 24.1992 93.5 24.1992C93.1 24.1992 92.7 24.1992 92.4 24.2992C92 24.2992 91.6 24.3992 91.1 24.4992L90.6 24.5992L90.7 25.0992C90.7 25.3992 90.8 25.5992 90.8 25.7992C90.8 25.9992 90.9 26.1992 90.9 26.3992C90.9 26.5992 91 26.7992 91 27.0992C91 27.2992 91 27.5992 91 27.9992C91 28.6992 91 29.3992 91 30.1992V32.5992C91 33.3992 91 34.1992 91 34.9992C91 35.7992 91 36.5992 91 37.2992C91 37.9992 91 38.5992 91 39.1992V41.0992C91 41.2992 91.1 41.4992 91.2 41.6992C91.3 41.8992 91.5 41.9992 91.7 42.0992C92.1 42.2992 92.6 42.2992 93.3 42.1992C93.6 42.1992 94 42.0992 94.3 42.0992L94.5 41.9992L94.6 41.7992C94.7 41.4992 95 41.0992 95.3 40.4992L96.4 38.5992C96.8 37.8992 97.3 37.0992 97.8 36.2992C98.3 35.4992 98.8 34.5992 99.4 33.6992C99.9 32.7992 100.5 31.9992 101 31.0992C101.2 30.7992 101.4 30.4992 101.6 30.1992C101.6 30.7992 101.6 31.3992 101.6 31.9992C101.6 32.5992 101.6 33.1992 101.6 33.6992V36.8992C101.6 37.4992 101.6 37.9992 101.6 38.4992C101.6 38.9992 101.6 39.3992 101.6 39.7992V40.9992C101.6 41.4992 101.7 41.8992 102 42.1992C102.3 42.3992 102.6 42.4992 103.2 42.4992C103.3 42.4992 103.6 42.3992 104 42.3992Z" fill="#661B00"/>
<path d="M127.9 39.7996C128.6 38.8996 129.1 37.8996 129.5 36.7996C129.9 35.6996 130.1 34.4996 130.1 33.1996C130.1 31.8996 129.9 30.6996 129.6 29.5996C129.3 28.4996 128.7 27.4996 128.1 26.6996C127.4 25.8996 126.5 25.2996 125.5 24.7996C124.5 24.3996 123.3 24.0996 121.9 24.0996C120.6 24.0996 119.5 24.3996 118.5 24.8996C117.5 25.3996 116.6 26.0996 115.9 26.9996C115.2 27.8996 114.7 28.8996 114.3 29.9996C113.9 31.0996 113.7 32.2996 113.7 33.5996C113.7 34.8996 113.9 36.0996 114.2 37.1996C114.6 38.2996 115.1 39.2996 115.8 40.0996C116.5 40.8996 117.4 41.4996 118.4 41.9996C119.4 42.3996 120.6 42.5996 121.9 42.5996C123.2 42.5996 124.3 42.2996 125.3 41.7996C126.3 41.3996 127.2 40.6996 127.9 39.7996ZM126.1 33.3996C126.1 34.2996 126 35.1996 125.7 35.8996C125.5 36.5996 125.2 37.2996 124.8 37.7996C124.4 38.2996 124 38.6996 123.4 38.9996C122.4 39.5996 121 39.4996 120.1 38.9996C119.6 38.6996 119.1 38.3996 118.7 37.8996C118.3 37.3996 118 36.7996 117.8 36.0996C117.6 35.3996 117.5 34.4996 117.5 33.5996C117.5 32.5996 117.6 31.7996 117.9 31.0996C118.1 30.3996 118.5 29.6996 118.8 29.1996C119.2 28.6996 119.7 28.2996 120.2 28.0996C120.7 27.7996 121.2 27.6996 121.8 27.6996C122.4 27.6996 123 27.7996 123.5 28.0996C124 28.2996 124.5 28.6996 124.9 29.1996C125.3 29.6996 125.6 30.2996 125.8 30.9996C126 31.5996 126.1 32.3996 126.1 33.3996Z" fill="#661B00"/>
<path d="M141.8 42.5008C142.4 42.4008 142.9 42.3008 143.4 42.1008C143.9 41.9008 144.3 41.7008 144.6 41.4008C145.1 41.0008 145.2 40.5008 145.2 40.2008C145.2 39.9008 145.1 39.5008 145 39.1008C144.9 38.7008 144.7 38.3008 144.4 38.0008L144.1 37.6008L143.7 37.9008C143.3 38.2008 142.8 38.5008 142.2 38.7008C141.6 39.0008 140.9 39.1008 140.1 39.1008C138.7 39.1008 137.7 38.6008 136.9 37.7008C136.1 36.7008 135.7 35.3008 135.7 33.5008C135.7 32.5008 135.8 31.7008 136 31.0008C136.2 30.3008 136.6 29.7008 136.9 29.2008C137.3 28.7008 137.7 28.3008 138.2 28.1008C139 27.7008 140 27.7008 140.8 27.8008C141.1 27.8008 141.4 27.9008 141.7 27.9008C142 27.9008 142.2 28.0008 142.4 28.0008C142.7 28.0008 142.9 28.1008 143.2 28.1008C143.8 28.1008 144.3 27.8008 144.5 27.2008C144.7 26.8008 144.7 26.0008 144.7 25.0008V24.5008H144.2C143.9 24.5008 143.6 24.5008 143.3 24.5008C143 24.5008 142.6 24.4008 142.3 24.4008C142 24.4008 141.6 24.3008 141.2 24.3008C140.8 24.3008 140.3 24.3008 139.8 24.3008C138.5 24.3008 137.3 24.6008 136.2 25.1008C135.2 25.6008 134.3 26.3008 133.6 27.2008C132.9 28.1008 132.4 29.1008 132.1 30.3008C131.8 31.4008 131.6 32.6008 131.6 33.8008C131.6 35.2008 131.8 36.5008 132.2 37.7008C132.6 38.8008 133.2 39.7008 134 40.5008C134.8 41.2008 135.6 41.8008 136.7 42.2008C137.7 42.6008 138.8 42.7008 139.9 42.7008C140.6 42.7008 141.2 42.6008 141.8 42.5008Z" fill="#661B00"/>
<path d="M154.3 42.1L154.1 41.1C154.1 40.9 154 40.8 154 40.6C154 40.4 154 40.2 154 40C154 39.7 154 39.3 154 38.8C154 38.3 154 37.8 154 37.4V34.9C154 33.8 154 32.6 154 31.4C154 30.3 154 29.2 154 28.1H155.8C156.2 28.1 156.5 28.1 156.8 28.1C157.1 28.1 157.4 28.1 157.6 28C158 28 158.5 27.9 158.8 27.4C159 27.1 159 26.8 159 26.3C159 26.1 159 25.9 159 25.7V24L158.4 24.2C157.9 24.4 157.2 24.5 156.2 24.5C155.2 24.5 154 24.5 152.7 24.5H151.2H149.7C149.2 24.5 148.7 24.5 148.2 24.5C147.1 24.5 146.2 24.4 145.7 24.9C145.5 25.1 145.4 25.5 145.4 25.9L145.5 27.7L145.9 27.8C146.1 27.8 146.5 27.9 146.8 27.9C147.2 27.9 147.6 28 148 28L150.3 28.1C150.3 28.9 150.3 29.7 150.3 30.6L150.2 37.1C150.2 38.1 150.2 39.1 150.2 39.9C150.2 40.2 150.2 40.6 150.2 40.9C150.2 41.2 150.3 41.5 150.4 41.7C150.5 42 150.7 42.2 151 42.3C151.2 42.4 151.6 42.5 152 42.5C152.2 42.5 152.5 42.5 152.9 42.5C153.3 42.5 153.6 42.4 153.9 42.3L154.3 42.1Z" fill="#661B00"/>
<path d="M169.7 30.9C169.5 30 169.2 29.1 169 28.3C168.8 27.5 168.6 26.9 168.4 26.4C168.3 26.1 168.2 25.8 168.1 25.6C168 25.3 167.8 25.1 167.7 25C167.5 24.8 167.3 24.7 167 24.7C166.6 24.6 165.9 24.6 165.2 24.7C164.9 24.7 164.6 24.8 164.3 24.8L163.1 25.1L163 25.4C162.8 26.1 162.6 26.9 162.3 27.7C162 28.6 161.6 29.5 161.3 30.4C160.9 31.3 160.5 32.3 160.1 33.2C159.7 34.1 159.3 35.1 158.9 36C158.5 36.9 158.2 37.7 157.9 38.5C157.6 39.3 157.4 40 157.3 40.5C157.1 41.3 157.1 41.8 157.3 42.1C157.5 42.4 157.9 42.6 158.5 42.6C158.8 42.6 159.1 42.6 159.4 42.6C159.7 42.6 159.9 42.6 160.1 42.5C160.3 42.5 160.5 42.4 160.7 42.4L161.1 42.3V41.9C161.1 41.2 161.2 40.6 161.3 40C161.4 39.4 161.6 38.8 161.8 38C162 38 162.3 38 162.6 38C163.1 38 163.6 38 164.2 38H165.4H166.5C166.9 38 167.2 38 167.4 38C167.5 38 167.6 38 167.6 38C167.7 38.3 167.8 38.5 167.8 38.8L168.2 39.9C168.4 40.4 168.6 40.9 168.7 41.3C168.9 41.7 169.1 42 169.4 42.2C169.7 42.4 170 42.5 170.3 42.6C170.6 42.7 170.9 42.7 171.3 42.7C172.1 42.7 172.6 42.5 173 42.1C173.3 41.7 173.5 41.3 173.5 40.7C173.5 40.5 173.5 40.4 173.5 40.3V39L172.9 39.1C172.8 39.1 172.8 39.1 172.7 39.1C172.4 39.1 172.2 39 172 38.7C171.7 38.3 171.5 37.8 171.3 37.1C171 36.1 170.7 35 170.4 34C170.2 32.8 169.9 31.8 169.7 30.9ZM166.9 34.7C166.7 34.7 166.5 34.7 166.3 34.7C165.8 34.7 165.3 34.7 164.8 34.7H163.3C163.2 34.7 163 34.7 162.9 34.7C163.1 34.3 163.2 33.9 163.4 33.5C163.7 32.8 164 32.2 164.3 31.5C164.6 30.8 164.9 30.2 165.1 29.6C165.2 29.4 165.3 29.2 165.4 29C165.7 29.8 165.9 30.6 166.1 31.4C166.3 32.4 166.6 33.5 166.9 34.7Z" fill="#661B00"/>
<path d="M182.9 24.5007C180.7 24.1007 178.1 24.3007 175 25.0007L174.5 25.1007L174.6 25.6007C174.7 25.8007 174.7 26.1007 174.8 26.3007C174.8 26.5007 174.9 26.7007 174.9 27.0007C174.9 27.2007 175 27.5007 175 27.8007C175 28.1007 175.1 28.4007 175.1 28.8007C175.1 29.4007 175.1 30.1007 175.1 30.7007V32.7007C175.1 34.2007 175.1 35.6007 175.1 37.1007C175.1 38.5007 175 39.9007 175 41.2007V41.6007L175.3 41.7007C175.8 41.9007 176.3 42.0007 176.9 42.1007C177.4 42.2007 178 42.3007 178.6 42.4007C179.3 42.5007 180 42.5007 180.7 42.5007C181.9 42.5007 182.9 42.4007 183.8 42.1007C184.7 41.8007 185.4 41.4007 186 40.9007C186.6 40.4007 187 39.7007 187.3 39.0007C187.6 38.3007 187.7 37.5007 187.7 36.7007C187.7 36.3007 187.6 35.8007 187.5 35.4007C187.4 34.9007 187.2 34.5007 186.9 34.1007C186.6 33.7007 186.3 33.3007 185.8 33.0007C185.6 32.9007 185.4 32.7007 185.2 32.6007C185.6 32.3007 185.9 31.9007 186.2 31.5007C186.6 30.8007 186.8 30.0007 186.8 29.1007C186.8 28.1007 186.6 27.3007 186.3 26.7007C185.9 26.0007 185.4 25.5007 184.8 25.2007C184.4 24.9007 183.7 24.7007 182.9 24.5007ZM180.2 31.7007H178.8V30.3007C178.8 29.7007 178.8 29.2007 178.8 28.8007V27.8007C179 27.8007 179.2 27.7007 179.4 27.7007C179.7 27.7007 180.1 27.6007 180.6 27.6007C181.5 27.6007 182.3 27.8007 182.7 28.1007C183.1 28.4007 183.3 28.8007 183.3 29.6007C183.3 30.2007 183.1 30.7007 182.6 31.1007C182.1 31.5007 181.3 31.7007 180.2 31.7007ZM178.7 37.9007C178.7 37.4007 178.8 36.9007 178.8 36.3007V34.9007C179 34.9007 179.3 34.9007 179.5 34.9007H180.4C180.9 34.9007 181.5 34.9007 181.9 35.0007C182.3 35.1007 182.7 35.2007 183 35.4007C183.3 35.6007 183.5 35.8007 183.7 36.1007C183.9 36.4007 183.9 36.7007 183.9 37.1007C183.9 37.9007 183.7 38.5007 183.2 38.9007C182.7 39.3007 181.9 39.5007 180.8 39.5007C180.4 39.5007 180.1 39.5007 179.8 39.5007C179.5 39.5007 179.2 39.4007 179 39.3007C178.9 39.3007 178.7 39.2007 178.6 39.2007L178.7 37.9007Z" fill="#661B00"/>
<path d="M200.2 31.3009C200.4 31.0009 200.6 30.7009 200.8 30.4009C200.8 31.0009 200.8 31.6009 200.8 32.2009C200.8 32.8009 200.8 33.4009 200.8 33.9009V37.1009C200.8 37.7009 200.8 38.2009 200.8 38.7009C200.8 39.2009 200.8 39.6009 200.8 40.0009V41.0009C200.8 41.5009 200.9 41.9009 201.2 42.2009C201.5 42.4009 201.8 42.5009 202.4 42.5009C202.6 42.5009 202.9 42.5009 203.3 42.4009C203.7 42.4009 204.1 42.3009 204.5 42.1009L204.9 42.0009V41.6009C204.9 41.3009 204.8 41.0009 204.8 40.7009V39.9009C204.8 39.6009 204.8 39.4009 204.8 39.2009C204.8 38.2009 204.8 37.2009 204.8 36.0009V32.5009C204.8 32.0009 204.8 31.4009 204.8 30.7009V28.8009C204.8 28.2009 204.9 27.6009 204.9 27.0009C204.9 26.4009 204.9 25.9009 204.9 25.6009C204.9 25.1009 204.8 24.8009 204.6 24.6009C204.2 24.2009 203.6 24.2009 202.5 24.4009C202.1 24.4009 201.7 24.5009 201.3 24.6009H201.1L201 24.8009C200.5 25.5009 199.9 26.4009 199.3 27.4009C198.7 28.4009 198 29.4009 197.2 30.5009C196.5 31.6009 195.8 32.7009 195.1 33.8009C194.8 34.3009 194.5 34.9009 194.1 35.4009V35.2009C194.1 34.9009 194.1 34.5009 194.1 34.1009C194.1 33.7009 194.1 33.2009 194.1 32.7009V30.6009C194.1 29.9009 194.1 29.2009 194.1 28.5009C194.1 27.8009 194.1 27.2009 194.1 26.7009C194.1 26.2009 194.1 25.7009 194.1 25.3009C194.1 25.1009 194 24.3009 192.8 24.3009C192.4 24.3009 192 24.3009 191.7 24.4009C191.3 24.4009 190.9 24.5009 190.4 24.6009L189.9 24.7009L190 25.2009C190 25.5009 190.1 25.7009 190.1 25.9009C190.1 26.1009 190.2 26.3009 190.2 26.5009C190.2 26.7009 190.3 26.9009 190.3 27.2009C190.3 27.4009 190.3 27.7009 190.3 28.1009C190.3 28.8009 190.3 29.5009 190.3 30.3009V32.7009C190.3 33.5009 190.3 34.3009 190.3 35.1009C190.3 35.9009 190.3 36.7009 190.3 37.4009C190.3 38.1009 190.3 38.7009 190.3 39.3009V41.2009C190.3 41.4009 190.4 41.6009 190.5 41.8009C190.6 42.0009 190.8 42.1009 191 42.2009C191.4 42.4009 191.9 42.4009 192.6 42.3009C192.9 42.3009 193.3 42.2009 193.6 42.2009L193.8 42.1009L193.9 41.9009C194 41.6009 194.3 41.2009 194.6 40.6009C194.9 40.0009 195.3 39.4009 195.7 38.7009C196.1 38.0009 196.6 37.2009 197.1 36.4009C197.6 35.6009 198.1 34.7009 198.7 33.8009C199.1 33.0009 199.6 32.2009 200.2 31.3009Z" fill="#661B00"/>
<path d="M214.9 41.1C214.9 40.9 214.8 40.8 214.8 40.6C214.8 40.4 214.8 40.2 214.8 40C214.8 39.7 214.8 39.3 214.8 38.8C214.8 38.3 214.8 37.8 214.8 37.4V34.9C214.8 33.8 214.8 32.6 214.8 31.4C214.8 30.3 214.8 29.2 214.8 28.1H216.6C217 28.1 217.3 28.1 217.6 28.1C217.9 28.1 218.2 28.1 218.4 28C218.8 28 219.3 27.9 219.6 27.4C219.8 27.1 219.8 26.8 219.8 26.3C219.8 26.1 219.8 25.9 219.8 25.7L219.6 24L219 24.2C218.5 24.4 217.8 24.5 216.8 24.5C215.8 24.5 214.6 24.5 213.3 24.5H211.8H210.3C209.8 24.5 209.3 24.5 208.8 24.5C207.7 24.5 206.8 24.4 206.3 24.9C206.1 25.1 206 25.5 206 25.9L206.1 27.7L206.5 27.8C206.7 27.8 207.1 27.9 207.4 27.9C207.8 27.9 208.2 28 208.6 28L210.9 28.1C210.9 28.9 210.9 29.7 210.9 30.6L210.8 37.1C210.8 38.1 210.8 39.1 210.8 39.9C210.8 40.2 210.8 40.6 210.8 40.9C210.8 41.2 210.9 41.5 211 41.7C211.1 42 211.3 42.2 211.6 42.3C211.8 42.4 212.2 42.5 212.6 42.5C212.8 42.5 213.1 42.5 213.5 42.5C213.9 42.5 214.2 42.4 214.5 42.3L214.9 42.2V41.1Z" fill="#661B00"/>
<path d="M222.6 24.4996C222.2 24.5996 221.7 24.6996 221.2 24.7996L220.7 24.8996L220.8 25.3996C220.9 25.5996 220.9 25.7996 221 26.0996C221.1 26.1996 221.1 26.3996 221.1 26.5996C221.1 26.7996 221.2 26.9996 221.2 27.2996C221.2 27.4996 221.3 27.7996 221.3 28.0996C221.3 28.4996 221.4 28.7996 221.4 29.2996C221.4 29.6996 221.5 30.1996 221.5 30.5996C221.5 31.0996 221.5 31.4996 221.5 31.9996C221.5 32.4996 221.5 32.8996 221.5 33.2996C221.5 34.4996 221.5 35.8996 221.4 37.2996C221.3 38.6996 221.3 39.9996 221.2 41.2996V41.6996L221.6 41.7996C222 41.8996 222.5 42.0996 223 42.1996C223.4 42.2996 224 42.3996 224.6 42.4996C225.2 42.5996 225.9 42.5996 226.7 42.5996C227.8 42.5996 228.8 42.4996 229.6 42.2996C230.5 42.0996 231.3 41.6996 232 41.1996C232.7 40.6996 233.2 39.9996 233.6 39.1996C234 38.3996 234.2 37.4996 234.2 36.3996C234.2 35.4996 234 34.6996 233.7 33.9996C233.4 33.2996 233 32.6996 232.4 32.2996C231.9 31.7996 231.2 31.4996 230.5 31.2996C229.2 30.8996 227.5 30.8996 226.2 31.0996C225.8 31.1996 225.5 31.1996 225.2 31.2996C225.2 30.2996 225.2 29.4996 225.2 28.6996C225.2 27.7996 225.2 26.9996 225.2 26.2996C225.2 26.0996 225.2 25.7996 225.2 25.6996C225.2 25.3996 225.1 25.1996 225 25.0996C224.9 24.8996 224.7 24.6996 224.5 24.6996C224.1 24.2996 223.4 24.3996 222.6 24.4996ZM225.1 38.9996C225.1 38.5996 225.2 38.0996 225.2 37.6996C225.2 37.1996 225.3 36.5996 225.3 35.9996V34.4996C225.5 34.3996 225.8 34.3996 226.1 34.2996C226.5 34.1996 227.1 34.1996 227.7 34.1996C228.6 34.1996 229.3 34.3996 229.8 34.7996C230.2 35.1996 230.4 35.7996 230.4 36.5996C230.4 37.0996 230.3 37.4996 230.2 37.7996C230 38.0996 229.8 38.3996 229.5 38.5996C229.2 38.7996 228.9 38.9996 228.5 39.0996C227.8 39.2996 226.8 39.2996 226.1 39.1996C225.8 39.1996 225.6 39.0996 225.4 39.0996C225.2 38.9996 225.1 38.9996 225.1 38.9996Z" fill="#661B00"/>
<path d="M59.9 53.5001C60.3 53.0001 60.8 52.5001 61.2 52.0001C61.7 51.5001 62.2 51.0001 62.7 50.5001L63.1 50.1001L62.7 49.7001C62.6 49.6001 62.5 49.5001 62.3 49.3001L62 49.0001C61.9 48.9001 61.7 48.7001 61.5 48.6001C61 48.2001 60.5 48.1001 60 48.2001C59.5 48.3001 59.1 48.6001 58.6 49.2001C58.3 49.6001 57.9 50.1001 57.5 50.6001C57.1 51.1001 56.8 51.7001 56.4 52.2001C56 52.8001 55.7 53.3001 55.3 53.9001C55 54.4001 54.7 54.9001 54.4 55.4001C54.2 55.4001 53.9 55.4001 53.7 55.4001C53.5 55.4001 53.2 55.4001 53 55.4001C53 54.7001 53 54.1001 53 53.5001C53 52.7001 53 52.1001 53 51.5001V49.5001C53 49.2001 52.9 48.3001 51.6 48.3001C51.3 48.3001 50.9 48.3001 50.7 48.4001C50.4 48.4001 50.1 48.5001 49.9 48.5001C49.6 48.6001 49.3 48.6001 49.1 48.7001L48.6 49.0001L48.8 49.5001C48.9 49.7001 48.9 49.9001 49 50.1001C49.1 50.3001 49.1 50.4001 49.2 50.7001C49.3 50.9001 49.3 51.1001 49.3 51.3001C49.3 51.6001 49.3 51.8001 49.3 52.2001C49.3 53.1001 49.3 54.1001 49.3 55.2001C49.3 56.2001 49.3 57.3001 49.3 58.4001V61.6001C49.3 62.7001 49.3 63.7001 49.3 64.6001C49.3 65.3001 49.4 65.7001 49.7 66.0001C50 66.3001 50.4 66.4001 51.1 66.4001C51.3 66.4001 51.6 66.4001 52 66.3001C52.3 66.3001 52.7 66.2001 53 66.1001L53.5 66.0001L53.4 65.5001C53.4 65.3001 53.3 65.1001 53.3 64.9001C53.3 64.7001 53.2 64.6001 53.2 64.4001C53.2 64.2001 53.2 64.0001 53.2 63.8001V61.3001C53.2 60.4001 53.2 59.4001 53.2 58.5001C53.4 58.5001 53.5 58.5001 53.7 58.5001C54 58.5001 54.2 58.5001 54.4 58.6001C54.6 58.6001 54.7 58.7001 54.8 58.7001C54.9 58.8001 55.1 58.9001 55.2 58.9001C55.5 59.2001 55.9 59.7001 56.2 60.3001C56.6 61.1001 57 61.9001 57.5 62.9001C57.8 63.5001 58.1 64.0001 58.3 64.4001C58.5 64.8001 58.8 65.2001 59 65.4001C59.3 65.7001 59.6 65.9001 59.9 66.0001C60.2 66.1001 60.6 66.2001 61 66.2001C61.6 66.2001 62.1 66.0001 62.4 65.7001C62.7 65.4001 62.8 64.9001 62.8 64.3001C62.8 64.1001 62.8 63.9001 62.8 63.7001V63.3001C62.8 63.1001 62.8 63.0001 62.8 62.9001L62.7 62.5001H62.3C62.1 62.5001 61.9 62.5001 61.7 62.5001C61.6 62.5001 61.5 62.4001 61.5 62.4001C61.4 62.3001 61.3 62.2001 61.2 62.0001C61.1 61.8001 60.9 61.5001 60.8 61.2001C60.4 60.4001 60.1 59.8001 59.8 59.2001C59.5 58.6001 59.2 58.2001 59 57.8001C58.7 57.4001 58.5 57.1001 58.3 56.8001C58.2 56.7001 58 56.5001 57.9 56.4001C58.3 55.8001 58.6 55.3001 59 54.8001C59.1 54.5001 59.5 54.0001 59.9 53.5001Z" fill="#661B00"/>
<path d="M77.6 50.6996C76.9 49.8996 76 49.2996 75 48.7996C74 48.3996 72.8 48.0996 71.4 48.0996C70.1 48.0996 69 48.3996 68 48.8996C67 49.3996 66.1 50.0996 65.4 50.9996C64.7 51.8996 64.2 52.8996 63.8 53.9996C63.4 55.0996 63.2 56.2996 63.2 57.5996C63.2 58.8996 63.4 60.0996 63.7 61.1996C64.1 62.2996 64.6 63.2996 65.3 64.0996C66 64.8996 66.9 65.4996 67.9 65.9996C68.9 66.3996 70.1 66.5996 71.4 66.5996C72.7 66.5996 73.8 66.2996 74.8 65.7996C75.8 65.2996 76.7 64.5996 77.4 63.6996C78.1 62.7996 78.6 61.7996 79 60.6996C79.4 59.5996 79.6 58.3996 79.6 57.0996C79.6 55.7996 79.4 54.5996 79.1 53.4996C78.8 52.4996 78.3 51.4996 77.6 50.6996ZM75.8 57.3996C75.8 58.2996 75.7 59.1996 75.4 59.8996C75.2 60.5996 74.9 61.2996 74.5 61.7996C74.1 62.2996 73.7 62.6996 73.1 62.9996C72 63.5996 70.7 63.4996 69.8 62.9996C69.3 62.6996 68.8 62.3996 68.4 61.8996C68 61.3996 67.7 60.7996 67.5 60.0996C67.3 59.3996 67.2 58.4996 67.2 57.5996C67.2 56.5996 67.3 55.7996 67.6 55.0996C67.8 54.3996 68.2 53.6996 68.5 53.1996C68.9 52.6996 69.4 52.2996 69.9 52.0996C70.4 51.7996 70.9 51.6996 71.5 51.6996C72.1 51.6996 72.7 51.7996 73.2 52.0996C73.7 52.2996 74.2 52.6996 74.6 53.1996C75 53.6996 75.3 54.2996 75.5 54.9996C75.7 55.5996 75.8 56.3996 75.8 57.3996Z" fill="#661B00"/>
<path d="M99.6 64.7009C99.6 64.5009 99.5 64.2009 99.5 64.0009C99.5 63.8009 99.5 63.5009 99.5 63.4009C99.5 61.8009 99.5 60.3009 99.5 58.9009C99.5 57.4009 99.6 56.1009 99.6 54.9009C99.6 53.7009 99.7 52.7009 99.7 51.8009C99.7 50.9009 99.7 50.3009 99.7 49.8009C99.7 49.3009 99.6 49.0009 99.4 48.8009C99 48.4009 98.3 48.4009 97.3 48.5009C96.9 48.5009 96.5 48.6009 96.2 48.7009H96V48.9009C95.3 50.0009 94.7 51.1009 94 52.2009C93.4 53.2009 92.8 54.2009 92.2 55.4009C91.7 56.2009 91.3 57.1009 90.9 57.9009C90.5 57.3009 90.2 56.7009 89.9 56.1009C89.4 55.2009 88.9 54.2009 88.5 53.4009C88.1 52.5009 87.6 51.7009 87.3 50.9009C86.9 50.1009 86.7 49.6009 86.5 49.2009C86.3 48.8009 86 48.7009 85.9 48.7009C85.3 48.5009 84.6 48.6009 83.8 48.7009C83.3 48.8009 82.8 48.9009 82.4 49.0009H81.7L81.9 49.5009C82.2 50.3009 82.3 51.1009 82.4 51.8009C82.5 52.5009 82.5 53.3009 82.5 54.1009C82.5 54.6009 82.5 55.2009 82.5 55.8009C82.5 56.4009 82.5 57.1009 82.5 57.7009C82.5 58.3009 82.5 59.0009 82.5 59.6009C82.5 60.2009 82.5 60.9009 82.5 61.4009C82.5 61.6009 82.5 61.8009 82.5 62.1009L82.2 64.0009C82.2 64.3009 82.2 64.5009 82.2 64.7009C82.2 65.3009 82.3 65.8009 82.7 66.1009C83.1 66.5009 83.8 66.5009 84.7 66.4009C85 66.4009 85.3 66.3009 85.6 66.3009L86 66.2009L85.9 65.1009C85.9 64.9009 85.9 64.8009 85.9 64.6009V64.0009C85.9 62.4009 85.9 61.1009 85.9 60.0009V55.8009C86.4 56.9009 86.8 57.8009 87.3 58.6009C88 59.9009 88.5 60.7009 88.9 61.2009C89.1 61.5009 89.4 61.7009 89.6 61.8009C90 62.0009 90.7 62.0009 91.3 61.9009C91.5 61.9009 91.8 61.8009 92 61.8009C92.2 61.8009 92.5 61.7009 92.7 61.7009L93 61.6009L93.3 60.8009C93.4 60.6009 93.4 60.4009 93.5 60.2009C93.6 60.0009 93.7 59.8009 93.8 59.6009C94 59.2009 94.2 58.8009 94.4 58.4009C94.6 57.9009 94.9 57.5009 95.2 56.9009C95.4 56.4009 95.7 56.0009 96 55.5009C96 56.3009 96 57.1009 96 57.8009V61.0009C96 61.3009 96 61.6009 96 62.1009C96 62.5009 96 62.9009 96 63.3009C96 63.7009 96 64.1009 96 64.4009V65.1009C96 65.5009 96.1 65.9009 96.4 66.1009C96.6 66.3009 97.1 66.4009 97.8 66.4009C98 66.4009 98.3 66.4009 98.6 66.3009C99 66.3009 99.3 66.2009 99.7 66.0009L100.1 65.8009L100 65.4009C99.7 65.3009 99.7 65.0009 99.6 64.7009Z" fill="#661B00"/>
<path d="M120.4 64.7009C120.4 64.5009 120.3 64.2009 120.3 64.0009C120.3 63.8009 120.3 63.5009 120.3 63.4009C120.3 61.8009 120.3 60.3009 120.3 58.9009C120.3 57.4009 120.4 56.1009 120.4 54.9009C120.4 53.7009 120.5 52.7009 120.5 51.8009C120.5 50.9009 120.5 50.3009 120.5 49.8009C120.5 49.3009 120.4 49.0009 120.2 48.8009C119.8 48.4009 119.1 48.4009 118.1 48.5009C117.7 48.5009 117.3 48.6009 117 48.7009H116.8L116.7 48.9009C116 50.0009 115.4 51.1009 114.7 52.2009C114.1 53.2009 113.5 54.2009 112.9 55.4009C112.4 56.2009 112 57.1009 111.6 57.9009C111.2 57.3009 110.9 56.7009 110.6 56.1009C110.1 55.2009 109.6 54.2009 109.2 53.4009C108.8 52.5009 108.3 51.7009 108 50.9009C107.6 50.1009 107.4 49.6009 107.2 49.2009C107 48.8009 106.7 48.7009 106.6 48.7009C106 48.5009 105.3 48.6009 104.5 48.7009C104 48.8009 103.5 48.9009 103.1 49.0009L102.6 49.1009L102.8 49.6009C103.1 50.4009 103.2 51.2009 103.3 51.9009C103.4 52.6009 103.4 53.4009 103.4 54.2009C103.4 54.7009 103.4 55.3009 103.4 55.9009C103.4 56.5009 103.4 57.2009 103.4 57.8009C103.4 58.4009 103.4 59.1009 103.4 59.7009C103.4 60.3009 103.4 61.0009 103.4 61.5009C103.4 61.7009 103.4 61.9009 103.4 62.2009L103 64.0009C103 64.3009 103 64.5009 103 64.7009C103 65.3009 103.1 65.8009 103.5 66.1009C103.9 66.5009 104.6 66.5009 105.5 66.4009C105.8 66.4009 106.1 66.3009 106.4 66.3009L106.9 66.2009L106.8 65.1009C106.8 64.9009 106.8 64.8009 106.8 64.6009V64.0009C106.8 62.4009 106.8 61.1009 106.8 60.0009V55.8009C107.3 56.9009 107.7 57.8009 108.2 58.6009C108.9 59.9009 109.4 60.7009 109.8 61.2009C110 61.5009 110.3 61.7009 110.5 61.8009C110.9 62.0009 111.6 62.0009 112.2 61.9009C112.4 61.9009 112.7 61.8009 112.9 61.8009C113.1 61.8009 113.4 61.7009 113.6 61.7009L113.9 61.6009L114.2 60.8009C114.3 60.6009 114.3 60.4009 114.4 60.2009C114.5 60.0009 114.6 59.8009 114.7 59.6009C114.9 59.2009 115.1 58.8009 115.3 58.3009C115.5 57.8009 115.8 57.4009 116.1 56.8009C116.3 56.3009 116.6 55.9009 116.9 55.4009C116.9 56.2009 116.9 57.0009 116.9 57.7009V61.0009C116.9 61.3009 116.9 61.6009 116.9 62.1009C116.9 62.5009 116.9 62.9009 116.9 63.3009C116.9 63.7009 116.9 64.1009 116.9 64.4009V65.1009C116.9 65.5009 117 65.9009 117.3 66.1009C117.5 66.3009 118 66.4009 118.7 66.4009C119 66.4009 119.2 66.4009 119.5 66.3009C119.9 66.3009 120.2 66.2009 120.6 66.0009L121 65.8009L120.9 65.4009C120.5 65.3009 120.5 65.0009 120.4 64.7009Z" fill="#661B00"/>
<path d="M135.3 63.3996C135.3 63.1996 135.2 63.0996 135.2 62.8996L135.1 62.3996L134.6 62.4996C134 62.6996 133.4 62.7996 132.8 62.8996C132 62.9996 130.9 62.9996 129.6 62.9996H127.5C127.5 62.1996 127.5 61.3996 127.5 60.6996V58.6996C127.7 58.6996 128 58.6996 128.3 58.7996L131 58.8996C132.2 58.8996 133 58.8996 133.4 58.4996C133.7 58.1996 133.8 57.7996 133.8 57.0996C133.8 56.8996 133.8 56.7996 133.8 56.5996L133.6 55.2996L133.1 55.3996C132.9 55.3996 132.8 55.4996 132.6 55.4996C132.4 55.4996 132.2 55.4996 132 55.4996H131.3C130.4 55.4996 129.6 55.4996 128.9 55.4996C128.4 55.4996 127.9 55.4996 127.4 55.3996V54.0996C127.4 53.4996 127.4 52.9996 127.4 52.5996C127.4 52.2996 127.4 51.8996 127.4 51.5996C128.1 51.5996 128.8 51.5996 129.5 51.6996C130.4 51.6996 131.2 51.7996 132 51.7996C132.9 51.7996 133.5 51.6996 133.8 51.5996C134.1 51.4996 134.5 51.1996 134.5 50.2996C134.5 50.1996 134.5 49.9996 134.5 49.6996C134.5 49.3996 134.4 48.9996 134.3 48.5996L134.2 48.0996L133.7 48.1996C133.2 48.2996 132.8 48.2996 132.4 48.2996C131.9 48.2996 131.4 48.2996 130.8 48.2996H129.6C129.1 48.2996 128.7 48.2996 128.3 48.2996C127.8 48.2996 127.4 48.2996 127 48.2996C126 48.2996 125.3 48.2996 124.7 48.2996C124.3 48.2996 124 48.3996 123.7 48.3996L123.2 48.4996L123.3 48.9996C123.4 49.1996 123.4 49.3996 123.5 49.6996C123.6 49.8996 123.6 49.9996 123.7 50.1996C123.7 50.3996 123.8 50.5996 123.8 50.8996C123.8 51.1996 123.9 51.4996 123.9 51.7996C123.9 52.3996 123.9 53.0996 123.9 53.7996C123.9 54.4996 123.9 55.1996 123.9 55.9996C123.9 57.8996 123.9 59.6996 123.9 61.1996C123.9 62.6996 123.8 64.0996 123.8 65.4996V65.9996H124.3C125.3 66.0996 126.3 66.0996 127.4 66.1996C128.5 66.1996 129.6 66.2996 130.5 66.2996C131.4 66.2996 132.2 66.2996 132.8 66.2996C133.4 66.2996 133.9 66.1996 134.3 66.0996C134.8 65.9996 135.1 65.7996 135.2 65.4996C135.4 65.2996 135.5 64.8996 135.5 64.4996C135.5 64.1996 135.5 63.9996 135.5 63.7996C135.3 63.7996 135.3 63.5996 135.3 63.3996Z" fill="#661B00"/>
<path d="M151.6 64.0996V61.7997C151.6 60.8997 151.6 60.0997 151.6 59.1997V56.6997C151.6 56.1997 151.6 55.5997 151.6 54.8997L151.7 52.8997C151.7 52.1997 151.8 51.5997 151.8 50.9997C151.8 50.3997 151.8 49.8996 151.8 49.5996C151.8 48.9996 151.5 48.6996 151.3 48.5996C150.9 48.2996 150.2 48.2997 149.3 48.3997C148.9 48.3997 148.5 48.4996 148.1 48.5996L147.7 48.6997V49.0996C147.7 49.5996 147.8 49.9997 147.8 50.4997C147.8 50.8997 147.9 51.1997 147.9 51.6997C147.9 52.0997 147.9 52.3996 147.9 52.5996V55.5996C147.4 55.5996 146.9 55.4997 146.4 55.4997C145.2 55.3997 143.9 55.3997 142.7 55.4997C142.3 55.4997 141.9 55.4996 141.5 55.5996C141.5 55.2996 141.5 54.9996 141.5 54.5996C141.5 53.9996 141.6 53.2997 141.6 52.6997C141.6 51.9997 141.7 51.3997 141.7 50.7996C141.7 50.1996 141.7 49.6997 141.7 49.3997C141.7 48.9997 141.4 48.5996 141 48.5996C140.3 48.4996 139.7 48.4997 139 48.6997C138.6 48.7997 138.1 48.8997 137.7 48.9997L137.2 49.0996L137.4 49.5996C137.5 49.8996 137.5 50.0997 137.6 50.4997C137.7 50.7997 137.7 51.0997 137.8 51.3997C137.8 51.7997 137.9 52.1997 137.9 52.6997C137.9 53.1997 137.9 53.6997 137.9 54.3997C137.9 54.8997 137.9 55.3997 137.9 55.9997C137.9 56.5997 137.9 57.1996 137.9 57.7997V59.6997C137.9 60.2997 137.9 60.8997 137.9 61.3997C137.9 61.5997 137.9 61.7996 137.9 62.0996L137.8 63.8997C137.8 64.1997 137.8 64.4996 137.8 64.6996C137.8 65.2996 137.9 65.7997 138.1 66.0996C138.3 66.3996 138.8 66.5996 139.3 66.5996C139.5 66.5996 139.8 66.5997 140.2 66.4997C140.6 66.4997 141 66.3997 141.3 66.2997L141.8 66.1996L141.6 65.0996C141.6 64.8996 141.5 64.7997 141.5 64.5996C141.5 64.3996 141.5 64.1997 141.5 63.9997V62.7997L141.6 59.7997C141.6 59.4997 141.6 59.1997 141.6 58.8997C141.8 58.8997 142.1 58.8997 142.4 58.8997C142.9 58.8997 143.3 58.8997 143.8 58.8997C145.4 58.8997 146.8 58.8997 148.1 58.9997C148.1 59.0997 148.1 59.1996 148.1 59.2997C148.1 59.5997 148.1 59.9997 148.1 60.4997C148.1 60.8997 148.1 61.3997 148.1 61.8997C148.1 62.3997 148.1 62.7997 148.1 63.2997V65.2997C148.1 65.5997 148.2 65.8996 148.4 66.1996C148.6 66.4996 149 66.5996 149.6 66.5996C149.9 66.5996 150.3 66.5997 150.7 66.4997C151.1 66.3997 151.4 66.2996 151.7 66.1996L152.1 66.0996L152 65.6996C151.7 65.1996 151.6 64.7997 151.6 64.0996Z" fill="#661B00"/>
<path d="M166.8 51.4C167 51.1 167 50.7 167 50.3C167 50.1 167 49.9 167 49.7L166.8 48L166.2 48.2C165.7 48.4 165 48.5 164 48.5C163 48.5 161.8 48.5 160.5 48.5H157.5C157 48.5 156.5 48.5 156 48.5C154.9 48.5 154 48.4 153.5 48.9C153.3 49.1 153.2 49.5 153.2 49.9L153.3 51.7L153.7 51.8C153.9 51.8 154.3 51.9 154.6 51.9C155 51.9 155.4 52 155.8 52L158.1 52.1C158.1 52.9 158.1 53.7 158.1 54.6L158 61.1C158 62.1 158 63.1 158 63.9C158 64.2 158 64.6 158 64.9C158 65.2 158.1 65.5 158.2 65.7C158.3 66 158.5 66.2 158.8 66.3C159 66.4 159.4 66.5 159.8 66.5C160 66.5 160.3 66.5 160.7 66.5C161.1 66.5 161.4 66.4 161.7 66.3L162.1 66.2L161.9 65.2C161.9 65 161.8 64.9 161.8 64.7C161.8 64.5 161.8 64.3 161.8 64.1C161.8 63.8 161.8 63.4 161.8 62.9C161.8 62.4 161.8 61.9 161.8 61.5V59C161.8 57.9 161.8 56.7 161.8 55.5C161.8 54.4 161.8 53.3 161.8 52.3H163.6H164.6C164.9 52.3 165.2 52.3 165.4 52.3C166.2 51.9 166.6 51.8 166.8 51.4Z" fill="#661B00"/>
<path d="M181.4 62.8004L180.8 62.9004C180.7 62.9004 180.7 62.9004 180.6 62.9004C180.3 62.9004 180.1 62.8004 179.9 62.5004C179.6 62.1004 179.4 61.6004 179.2 60.9004C178.9 59.9004 178.6 58.8004 178.3 57.8004C178 56.7004 177.8 55.7004 177.5 54.8004C177.3 53.9004 177 53.0004 176.8 52.2004C176.6 51.4004 176.4 50.8004 176.2 50.3004C176.1 50.0004 176 49.7004 175.9 49.5004C175.8 49.2004 175.6 49.0004 175.5 48.9004C175.3 48.7004 175.1 48.6004 174.8 48.6004C174.4 48.5004 173.7 48.5004 173 48.6004C172.7 48.6004 172.4 48.7004 172.1 48.7004L170.9 49.0004L170.8 49.3004C170.6 50.0004 170.4 50.8004 170.1 51.6004C169.8 52.5004 169.4 53.4004 169.1 54.3004C168.7 55.2004 168.3 56.2004 167.9 57.1004C167.5 58.0004 167.1 59.0004 166.7 59.9004C166.3 60.8004 166 61.6004 165.7 62.4004C165.4 63.2004 165.2 63.9004 165.1 64.4004C164.9 65.2004 164.9 65.7004 165.1 66.0004C165.3 66.3004 165.7 66.5004 166.3 66.5004C166.6 66.5004 166.9 66.5004 167.2 66.5004C167.5 66.5004 167.7 66.5004 167.9 66.4004C168.1 66.4004 168.3 66.3004 168.5 66.3004L168.9 66.2004V65.8004C168.9 65.1004 169 64.5004 169.1 63.9004C169.2 63.3004 169.4 62.7004 169.6 61.9004C169.8 61.9004 170.1 61.9004 170.4 61.9004C170.9 61.9004 171.4 61.9004 172 61.9004H173.2H174.3C174.7 61.9004 175 61.9004 175.2 61.9004C175.3 61.9004 175.4 61.9004 175.4 61.9004C175.5 62.2004 175.6 62.4004 175.6 62.7004L176 63.8004C176.2 64.4004 176.4 64.8004 176.5 65.2004C176.7 65.6004 176.9 65.9004 177.2 66.1004C177.5 66.3004 177.8 66.4004 178.1 66.5004C178.4 66.6004 178.7 66.6004 179.1 66.6004C179.9 66.6004 180.4 66.4004 180.8 66.0004C181.1 65.6004 181.3 65.2004 181.3 64.6004C181.3 64.4004 181.3 64.3004 181.3 64.2004V62.8004H181.4ZM174.8 58.7004C174.6 58.7004 174.4 58.7004 174.2 58.7004C173.7 58.7004 173.2 58.7004 172.7 58.7004H171.2C171.1 58.7004 170.9 58.7004 170.8 58.7004C171 58.3004 171.1 57.9004 171.3 57.5004C171.6 56.8004 171.9 56.2004 172.2 55.5004C172.5 54.8004 172.8 54.2004 173 53.6004C173.1 53.4004 173.2 53.2004 173.3 53.0004C173.6 53.8004 173.8 54.6004 174 55.4004L174.8 58.7004Z" fill="#661B00"/>
<path d="M193.5 49.7005C192.9 49.2005 192.2 48.9005 191.4 48.7005C189.9 48.3005 188.3 48.3005 185.9 48.5005C184.8 48.6005 183.8 48.8005 182.7 49.0005L182.2 49.1005L182.4 49.6005C182.6 50.1005 182.7 50.6005 182.8 51.3005C182.9 52.0005 183 52.7005 183 53.5005C183 54.1005 183 54.7005 183 55.2005V56.8005C183 58.6005 183 60.2005 182.9 61.6005C182.9 62.9005 182.8 64.1005 182.8 65.1005C182.8 65.6005 182.9 65.9005 183.3 66.2005C183.5 66.4005 183.9 66.5005 184.4 66.5005C184.6 66.5005 184.9 66.5005 185.2 66.4005C185.4 66.4005 185.7 66.3005 185.9 66.3005L187.1 66.1005L187 65.6005C186.9 65.3005 186.9 64.9005 186.8 64.6005C186.8 64.3005 186.7 64.0005 186.7 63.7005C186.7 63.4005 186.7 63.1005 186.7 62.8005V62.2005C186.7 61.9005 186.7 61.6005 186.7 61.3005C186.7 61.0005 186.7 60.7005 186.7 60.4005C186.7 60.3005 186.7 60.3005 186.7 60.2005C186.9 60.2005 187.1 60.3005 187.4 60.3005H188.1C189.1 60.3005 190 60.2005 190.9 60.0005C191.8 59.8005 192.6 59.4005 193.3 58.9005C194 58.4005 194.5 57.8005 194.9 57.0005C195.3 56.2005 195.5 55.3005 195.5 54.2005C195.5 53.2005 195.3 52.3005 195 51.6005C194.6 50.8005 194.1 50.2005 193.5 49.7005ZM191.5 54.2005C191.5 55.1005 191.2 55.8005 190.7 56.2005C190.2 56.7005 189.3 56.9005 188.1 56.9005C187.8 56.9005 187.6 56.9005 187.4 56.9005C187.2 56.9005 187 56.9005 186.8 56.8005H186.6C186.6 56.1005 186.6 55.4005 186.6 54.8005C186.6 54.1005 186.6 53.4005 186.6 52.9005C186.6 52.5005 186.6 52.1005 186.5 51.7005C186.7 51.7005 187 51.6005 187.2 51.6005C188 51.5005 189 51.5005 189.7 51.7005C190.1 51.8005 190.4 51.9005 190.7 52.2005C191 52.4005 191.1 52.6005 191.3 52.9005C191.5 53.3005 191.5 53.7005 191.5 54.2005Z" fill="#661B00"/>
<path d="M212.1 64.8008V64.0008C212.1 63.7008 212.1 63.5008 212.1 63.3008C212.1 62.3008 212.1 61.3008 212.1 60.1008V56.6008C212.1 56.1008 212.1 55.5008 212.1 54.8008V52.9008C212.1 52.3008 212.2 51.7008 212.2 51.1008C212.2 50.5008 212.2 50.0008 212.2 49.7008C212.2 49.2008 212.1 48.9008 211.9 48.7008C211.5 48.3008 210.9 48.3008 209.8 48.5008C209.4 48.5008 209 48.6008 208.6 48.7008H208.4L208.3 48.9008C207.8 49.6008 207.2 50.5008 206.6 51.5008C205.9 52.5008 205.3 53.5008 204.5 54.6008C203.8 55.7008 203.1 56.8008 202.4 57.9008C202.1 58.4008 201.8 59.0008 201.4 59.5008V59.3008C201.4 59.0008 201.4 58.6008 201.4 58.2008C201.4 57.8008 201.4 57.3008 201.4 56.8008V54.6008C201.4 53.9008 201.4 53.2008 201.4 52.5008C201.4 51.8008 201.4 51.2008 201.4 50.7008C201.4 50.2008 201.4 49.7008 201.4 49.3008C201.4 49.1008 201.3 48.3008 200.1 48.3008C199.7 48.3008 199.3 48.3008 199 48.4008C198.6 48.4008 198.2 48.5008 197.7 48.6008L197.2 48.7008L197.3 49.2008C197.3 49.5008 197.4 49.7008 197.4 49.9008C197.4 50.1008 197.5 50.3008 197.5 50.5008C197.5 50.7008 197.6 50.9008 197.6 51.2008C197.6 51.4008 197.6 51.7008 197.6 52.1008C197.6 52.8008 197.6 53.5008 197.6 54.3008V56.7008C197.6 57.5008 197.6 58.3008 197.6 59.1008C197.6 59.9008 197.6 60.7008 197.6 61.4008C197.6 62.1008 197.6 62.7008 197.6 63.3008V65.2008C197.6 65.4008 197.7 65.6008 197.8 65.8008C197.9 66.0008 198.1 66.1008 198.3 66.2008C198.7 66.4008 199.2 66.4008 199.9 66.3008C200.2 66.3008 200.6 66.2008 200.9 66.2008L201.1 66.1008L201.2 65.9008C201.3 65.6008 201.6 65.2008 201.9 64.6008C202.2 64.0008 202.6 63.4008 203 62.7008C203.4 62.0008 203.9 61.2008 204.4 60.4008C204.9 59.6008 205.4 58.7008 206 57.8008C206.5 56.9008 207.1 56.1008 207.6 55.2008C207.8 54.9008 208 54.6008 208.2 54.3008C208.2 54.9008 208.2 55.5008 208.2 56.1008C208.2 56.7008 208.2 57.3008 208.2 57.8008V61.0008C208.2 61.6008 208.2 62.1008 208.2 62.6008C208.2 63.1008 208.2 63.5008 208.2 63.9008V65.0008C208.2 65.5008 208.3 65.9008 208.6 66.2008C208.9 66.4008 209.2 66.5008 209.8 66.5008C210 66.5008 210.3 66.5008 210.7 66.4008C211.1 66.4008 211.5 66.3008 211.9 66.1008L212.3 66.0008V65.6008C212.2 65.3008 212.1 65.0008 212.1 64.8008Z" fill="#661B00"/>
<path d="M229.7 64.8008V64.0008C229.7 63.7008 229.7 63.5008 229.7 63.3008C229.7 62.3008 229.7 61.3008 229.7 60.1008V56.6008C229.7 56.1008 229.7 55.5008 229.7 54.8008V52.9008C229.7 52.3008 229.8 51.7008 229.8 51.1008C229.8 50.5008 229.8 50.0008 229.8 49.7008C229.8 49.2008 229.7 48.9008 229.5 48.7008C229.1 48.3008 228.5 48.3008 227.4 48.5008C227 48.5008 226.6 48.6008 226.2 48.7008H226L225.9 48.9008C225.4 49.6008 224.8 50.5008 224.2 51.5008C223.5 52.5008 222.9 53.5008 222.1 54.6008C221.4 55.7008 220.7 56.8008 220 57.9008C219.7 58.4008 219.4 59.0008 219 59.5008V59.3008C219 59.0008 219 58.6008 219 58.2008C219 57.8008 219 57.3008 219 56.8008V54.6008C219 53.9008 219 53.2008 219 52.5008C219 51.8008 219 51.2008 219 50.7008C219 50.2008 219 49.7008 219 49.3008C219 49.1008 218.9 48.3008 217.7 48.3008C217.3 48.3008 216.9 48.3008 216.6 48.4008C216.2 48.4008 215.8 48.5008 215.3 48.6008L214.8 48.7008L214.9 49.2008C214.9 49.5008 215 49.7008 215 49.9008C215 50.1008 215.1 50.3008 215.1 50.5008C215.1 50.7008 215.2 50.9008 215.2 51.2008C215.2 51.4008 215.2 51.7008 215.2 52.1008C215.2 52.8008 215.2 53.5008 215.2 54.3008V56.7008C215.2 57.5008 215.2 58.3008 215.2 59.1008C215.2 59.9008 215.2 60.7008 215.2 61.4008C215.2 62.1008 215.2 62.7008 215.2 63.3008V65.2008C215.2 65.4008 215.3 65.6008 215.4 65.8008C215.5 66.0008 215.7 66.1008 215.9 66.2008C216.3 66.4008 216.8 66.4008 217.5 66.3008C217.8 66.3008 218.2 66.2008 218.5 66.2008L218.7 66.1008L219 66.0008C219.1 65.7008 219.4 65.3008 219.7 64.7008L220.8 62.8008C221.2 62.1008 221.7 61.3008 222.2 60.5008C222.7 59.7008 223.2 58.8008 223.8 57.9008C224.3 57.0008 224.9 56.2008 225.4 55.3008C225.6 55.0008 225.8 54.7008 226 54.4008C226 55.0008 226 55.6008 226 56.2008C226 56.8008 226 57.4008 226 57.9008V61.1008C226 61.7008 226 62.2008 226 62.7008C226 63.2008 226 63.6008 226 64.0008V65.0008C226 65.5008 226.1 65.9008 226.4 66.2008C226.7 66.4008 227 66.5008 227.6 66.5008C227.8 66.5008 228.1 66.5008 228.5 66.4008C228.9 66.4008 229.3 66.3008 229.7 66.1008L230.1 66.0008V65.6008C229.7 65.3008 229.7 65.0008 229.7 64.8008Z" fill="#661B00"/>
<path d="M225.5 42.8008L225.1 43.4008C224.8 44.0008 224.4 44.4008 223.9 44.7008C223.5 45.0008 223 45.1008 222.5 45.1008C221.9 45.1008 221.2 44.9008 220.9 43.5008L220.8 42.8008L220.2 43.2008C219.9 43.4008 219.6 43.6008 219.4 43.8008C219.2 44.0008 219 44.2008 218.8 44.4008C218.6 44.7008 218.4 45.0008 218.4 45.2008C218.4 45.4008 218.5 45.7008 218.6 46.1008C218.8 46.4008 219 46.7008 219.3 47.0008C219.6 47.3008 220 47.5008 220.5 47.7008C221 47.9008 221.6 48.0008 222.2 48.0008C222.8 48.0008 223.4 47.9008 223.9 47.7008C224.4 47.5008 224.8 47.2008 225.2 46.9008C225.6 46.6008 225.9 46.2008 226.1 45.8008C226.3 45.4008 226.4 45.0008 226.4 44.6008C226.4 44.4008 226.4 44.2008 226.3 44.1008C226.3 43.9008 226.2 43.8008 226.1 43.6008L225.5 42.8008Z" fill="#661B00"/>
<path d="M237 48.1992C236.4 48.1992 235.9 48.1992 235.5 48.2992C235.1 48.2992 234.7 48.3992 234.4 48.4992C234.1 48.4992 233.7 48.5992 233.4 48.5992C233.1 48.5992 232.8 48.5992 232.4 48.5992H231.9L231.8 49.0992C231.8 49.1992 231.8 49.3992 231.7 49.5992V49.9992C231.7 50.5992 231.8 50.9992 231.9 51.2992C232.2 51.8992 233 51.9992 233.8 51.7992C234 51.6992 234.3 51.6992 234.5 51.5992C234.8 51.4992 235.1 51.4992 235.4 51.3992C235.7 51.2992 236 51.2992 236.4 51.2992C237 51.2992 237.5 51.3992 237.7 51.6992C238 51.9992 238.1 52.3992 238.1 52.8992C238.1 53.2992 238 53.5992 237.9 53.8992C237.7 54.1992 237.5 54.5992 237.3 54.8992C237 55.1992 236.7 55.5992 236.5 55.8992C236.2 56.1992 235.9 56.5992 235.6 56.9992C235.3 57.3992 235.1 57.7992 234.9 58.2992C234.7 58.7992 234.6 59.2992 234.6 59.8992C234.6 60.2992 234.7 60.5992 234.9 60.7992C235.1 60.9992 235.5 61.0992 235.9 61.0992C236.3 61.0992 236.7 61.0992 237 60.9992C237.2 60.8992 237.3 60.8992 237.4 60.7992L237.7 60.6992V60.3992C237.7 59.9992 237.8 59.5992 237.9 59.2992C238.1 58.8992 238.3 58.5992 238.6 58.1992C238.9 57.7992 239.2 57.4992 239.5 57.0992C239.9 56.6992 240.2 56.2992 240.5 55.8992C240.8 55.4992 241.1 54.9992 241.3 54.4992C241.5 53.9992 241.7 53.2992 241.7 52.6992C241.7 51.2992 241.3 50.0992 240.4 49.2992C239.8 48.5992 238.6 48.1992 237 48.1992Z" fill="#661B00"/>
<path d="M235.5 62.3993C235 62.4993 234.9 62.4993 234.8 62.5993L234.6 62.6993V62.8993C234.6 62.9993 234.5 63.1993 234.5 63.2993C234.5 63.3993 234.4 63.5993 234.4 63.8993C234.4 64.0993 234.4 64.2993 234.4 64.4993C234.4 64.8993 234.5 65.1993 234.6 65.3993C234.7 65.6993 234.9 65.8993 235.1 65.9993C235.3 66.1993 235.5 66.2993 235.8 66.2993C236 66.3993 236.3 66.3993 236.5 66.3993C236.8 66.3993 237.2 66.3993 237.5 66.2993C237.9 66.1993 238.1 66.1993 238.2 65.9993C238.4 65.7993 238.4 65.5993 238.4 65.3993C238.5 65.0993 238.5 64.7993 238.5 64.3993C238.5 63.6993 238.3 63.0993 238 62.7993C237.5 62.2993 236.5 62.1993 235.5 62.3993Z" fill="#661B00"/>
</svg>
