<svg width="179" height="79" viewBox="0 0 179 79" fill="none" xmlns="http://www.w3.org/2000/svg">
<g clip-path="url(#clip0_643_973)">
<path d="M6.99999 34.2C8.29999 34.4 9.69999 34.4 11.3 34.4C12.9 34.4 14.4 34.2 15.8 33.7C17.3 33.3 18.6 32.6 19.7 31.7C20.9 30.8 21.8 29.7 22.5 28.4C23.2 27.1 23.6 25.5 23.6 23.8C23.6 21.6 23.1 19.8 22 18.4C21.3 17.5 20.5 16.8 19.5 16.3C20.2 15.8 20.8 15.1 21.3 14.4C22.2 13.1 22.6 11.5 22.6 9.7C22.6 8.1 22.3 6.6 21.8 5.5C21.2 4.3 20.4 3.3 19.4 2.6C18.4 1.9 17.2 1.3 15.9 1C14.6 0.7 13.2 0.5 11.6 0.5C9.79999 0.5 7.99999 0.6 6.49999 0.9C4.99999 1.1 3.69999 1.2 2.49999 1.2H1.69999L1.39999 1.8C1.29999 2 1.29999 2.2 1.29999 2.5V3.2C1.29999 3.7 1.29999 4.1 1.39999 4.7C1.49999 5.2 1.59999 5.7 1.69999 6.1C1.89999 6.6 2.09999 7 2.39999 7.3C2.69999 7.6 3.29999 8 4.09999 8C4.59999 8 5.09999 7.9 5.69999 7.8C6.09999 7.7 6.59999 7.6 7.19999 7.5C7.69999 7.4 8.29999 7.3 8.99999 7.2C9.59999 7.1 10.3 7 11.2 7C14.9 7 15.4 8.7 15.4 10.1C15.4 11 15.2 11.6 14.9 12.1C14.6 12.6 14.2 13 13.6 13.2C13 13.5 12.4 13.7 11.6 13.8C10.8 14 9.89999 14 9.09999 14C8.09999 14 7.19999 14 6.39999 13.9C5.99999 13.9 5.59999 13.8 5.29999 13.8L4.29999 13.7L3.89999 16C3.79999 16.5 3.79999 17.1 3.79999 17.6C3.79999 18.4 3.89999 19 4.29999 19.6C4.69999 20.3 5.39999 20.6 6.09999 20.6C6.79999 20.6 7.49999 20.6 8.19999 20.5C8.79999 20.4 9.49999 20.4 10.4 20.4C11.4 20.4 12.3 20.5 13.1 20.6C13.8 20.7 14.4 20.9 14.9 21.2C15.3 21.5 15.7 21.8 15.9 22.3C16.1 22.7 16.3 23.3 16.3 24.1C16.3 25.4 15.9 26.4 15.1 27C14.2 27.7 13 28 11.4 28C10.3 28 9.39999 28 8.59999 27.9C7.79999 27.8 7.09999 27.6 6.39999 27.4C5.79999 27.2 5.19999 27 4.59999 26.7C3.99999 26.4 3.39999 26 2.79999 25.6L1.79999 24.9L1.29999 26C1.09999 26.5 0.799994 27 0.599994 27.5C0.399994 27.9 0.299994 28.4 0.0999939 28.9C-6.10203e-06 29.4 -0.100006 29.9 -0.100006 30.4C-0.100006 30.9 0.0999939 31.7 0.999994 32.4C1.59999 32.9 2.39999 33.2 3.39999 33.6C4.49999 33.8 5.69999 34.1 6.99999 34.2Z" fill="#E2211C"/>
<path d="M64.3 33.7992C65.3 33.7992 66.2 33.7992 67.2 33.7992C68.2 33.7992 69.1 33.7992 69.9 33.7992H72.4C73.3 33.7992 74.2 33.7992 75.1 33.7992C76 33.7992 76.9 33.7992 77.7 33.7992C78.1 33.7992 78.6 33.7992 79 33.7992V35.8992V38.1992C79 38.6992 79 39.1992 79.1 39.4992C79.2 39.9992 79.4 40.3992 79.7 40.7992C80 41.0992 80.4 41.2992 80.8 41.3992C81.2 41.4992 81.7 41.5992 82.3 41.5992C83.1 41.5992 84.1 41.4992 85.2 41.1992L86 40.9992L85.9 40.0992C85.7 38.2992 85.6 36.5992 85.6 35.0992C85.6 33.5992 85.6 32.0992 85.6 30.4992C85.6 29.8992 85.5 29.3992 85.3 28.9992C85.1 28.6992 84.8 28.1992 84.1 27.9992C83.7 27.7992 83.2 27.6992 82.6 27.7992C82.3 27.7992 82 27.7992 81.6 27.7992C81.6 26.9992 81.5 25.9992 81.5 24.6992C81.5 22.7992 81.5 20.2992 81.5 17.3992C81.5 15.2992 81.5 13.3992 81.6 11.8992C81.7 10.2992 81.8 8.99922 81.9 7.89922C82 6.79922 82.1 5.99922 82.1 5.39922C82.2 4.69922 82.2 4.19922 82.2 3.79922C82.2 3.39922 82.1 2.99922 82 2.69922C81.9 2.39922 81.7 1.89922 81.1 1.59922C80.7 1.29922 80.2 1.19922 79.6 1.09922C79.1 0.999219 78.4 0.899219 77.5 0.899219C76.8 0.899219 75.9 0.899219 75 0.899219C74.1 0.899219 73 0.899219 71.8 0.899219C70.6 0.899219 69.2 0.899219 67.6 0.899219C66 0.899219 64.2 0.999219 62.3 1.09922L61.3 0.999219L61.6 2.19922C62 3.99922 62.1 5.79922 62.1 7.29922C62 10.0992 61.7 12.5992 61.4 14.7992C61.1 16.8992 60.7 18.8992 60.2 20.5992C59.8 22.2992 59.2 23.6992 58.6 24.8992C58 25.9992 57.3 26.9992 56.6 27.7992C55.9 27.8992 55.4 27.9992 55 28.1992V27.0992L53.8 27.2992C53.7 27.2992 53.6 27.2992 53.4 27.2992C52.9 27.2992 52.5 27.0992 52.2 26.5992C51.7 25.8992 51.3 24.9992 50.9 23.6992C50.3 21.7992 49.8 19.8992 49.2 17.9992C48.7 16.0992 48.2 14.1992 47.8 12.4992C47.4 10.9992 47 9.39922 46.6 7.89922C46.2 6.39922 45.9 5.19922 45.6 4.29922C45.4 3.69922 45.1 3.09922 45 2.69922C44.8 2.19922 44.5 1.79922 44.1 1.49922C43.8 1.19922 43.3 0.999219 42.9 0.899219C42.5 0.799219 42 0.699219 41.3 0.699219C40.8 0.699219 40.2 0.699219 39.6 0.799219C39.1 0.899219 38.5 0.899219 38 0.999219L35.7 1.49922L35.5 2.09922C35.2 3.39922 34.7 4.79922 34.2 6.39922C33.6 7.99922 33 9.59922 32.3 11.2992C31.6 12.9992 30.9 14.6992 30.1 16.4992C29.3 18.1992 28.6 19.8992 27.9 21.5992C27.3 23.1992 26.7 24.6992 26.1 26.1992C25.6 27.5992 25.2 28.8992 25 29.8992C24.7 31.3992 24.7 32.2992 25.1 32.8992C25.5 33.4992 26.2 33.7992 27.3 33.7992C27.9 33.7992 28.5 33.7992 28.9 33.7992C29.4 33.7992 29.8 33.6992 30.2 33.6992C30.6 33.5992 31 33.5992 31.3 33.4992L32.1 33.3992V32.5992C32.1 31.3992 32.2 30.1992 32.4 28.9992C32.6 27.9992 32.9 26.7992 33.3 25.4992C33.7 25.4992 34.2 25.4992 34.7 25.5992C35.6 25.5992 36.6 25.5992 37.6 25.5992H39.8C40.6 25.5992 41.3 25.4992 41.9 25.4992C42.5 25.4992 43.1 25.3992 43.6 25.3992C43.7 25.3992 43.8 25.3992 43.9 25.3992C44 25.8992 44.2 26.2992 44.3 26.7992L45 28.7992C45.3 29.7992 45.7 30.5992 46 31.2992C46.4 31.9992 46.8 32.4992 47.3 32.9992C47.8 33.3992 48.4 33.5992 48.9 33.6992C49.7 33.9992 50.3 33.9992 51 33.9992C52.1 33.9992 53 33.7992 53.6 33.3992V34.9992C53.6 35.7992 53.6 36.4992 53.6 37.1992C53.6 37.8992 53.7 38.5992 53.7 39.0992C53.8 39.8992 54 40.3992 54.2 40.6992C54.8 41.4992 55.9 41.4992 56.2 41.4992C56.9 41.4992 57.4 41.3992 57.9 41.3992C58.4 41.2992 58.8 41.2992 59.2 41.0992C59.6 40.9992 60 40.7992 60.3 40.5992L61 40.1992L60.8 39.3992C60.7 38.8992 60.5 38.2992 60.4 37.5992C60.3 36.9992 60.2 36.3992 60.1 35.4992C60 34.8992 60 34.2992 60 33.6992C60.5 33.6992 61 33.5992 61.5 33.5992C62.5 33.7992 63.4 33.7992 64.3 33.7992ZM74.8 27.5992C74.2 27.5992 73.6 27.5992 73 27.5992H70.4C69.1 27.5992 67.8 27.5992 66.4 27.5992C65.7 27.5992 65 27.5992 64.3 27.5992C64.6 26.9992 65 26.3992 65.3 25.6992C65.9 24.3992 66.4 22.7992 66.9 20.9992C67.3 19.1992 67.7 16.9992 68 14.5992C68.3 12.3992 68.5 9.79922 68.6 6.89922C69.8 6.79922 71 6.79922 72.1 6.79922C73.2 6.79922 74.2 6.79922 75.1 6.89922C75 9.29922 74.9 11.4992 74.8 13.4992C74.7 15.6992 74.7 17.8992 74.7 19.9992V23.9992C74.7 25.1992 74.8 26.2992 74.8 27.5992ZM42.6 19.6992C42.3 19.6992 42 19.6992 41.7 19.7992C40.8 19.7992 39.8 19.7992 38.9 19.7992H36.1C35.9 19.7992 35.7 19.7992 35.4 19.7992C35.7 19.0992 36 18.3992 36.3 17.5992C36.8 16.3992 37.4 15.1992 37.9 13.9992C38.4 12.7992 38.9 11.5992 39.4 10.4992C39.6 10.1992 39.7 9.79922 39.8 9.49922C40.3 10.8992 40.7 12.2992 41 13.6992C41.5 15.5992 42 17.5992 42.6 19.6992Z" fill="#E2211C"/>
<path d="M95.9 25.6992C96.8 25.6992 97.8 25.6992 98.8 25.6992H101C101.8 25.6992 102.5 25.5992 103.1 25.5992C103.8 25.5992 104.3 25.4992 104.8 25.4992C104.9 25.4992 105 25.4992 105.1 25.4992C105.2 25.9992 105.4 26.3992 105.5 26.8992L106.2 28.8992C106.5 29.8992 106.9 30.6992 107.2 31.3992C107.6 32.0992 108 32.5992 108.5 33.0992C109 33.4992 109.6 33.6992 110.1 33.7992C110.6 33.8992 111.3 33.9992 111.9 33.9992C113.4 33.9992 114.4 33.6992 115.1 32.9992C115.7 32.2992 116 31.4992 116 30.3992C116 30.0992 116 29.7992 116 29.4992V27.0992L114.8 27.2992C114.7 27.2992 114.6 27.2992 114.4 27.2992C113.9 27.2992 113.5 27.0992 113.2 26.5992C112.7 25.8992 112.3 24.9992 111.9 23.6992C111.3 21.7992 110.8 19.8992 110.2 17.9992C109.7 16.0992 109.2 14.1992 108.8 12.4992C108.4 10.7992 107.9 9.19922 107.6 7.79922C107.2 6.29922 106.9 5.09922 106.6 4.29922C106.4 3.69922 106.1 3.09922 106 2.69922C105.8 2.19922 105.5 1.79922 105.1 1.49922C104.8 1.19922 104.3 0.999219 103.9 0.899219C103.5 0.799219 103 0.699219 102.3 0.699219C101.8 0.699219 101.2 0.699219 100.6 0.799219C100.1 0.899219 99.5 0.899219 99 0.999219L96.7 1.49922L96.5 2.09922C96.2 3.39922 95.7 4.79922 95.2 6.39922C94.6 7.99922 94 9.59922 93.3 11.2992C92.6 12.9992 91.9 14.6992 91.1 16.4992C90.3 18.1992 89.6 19.8992 88.9 21.5992C88.3 23.1992 87.7 24.6992 87.1 26.1992C86.6 27.5992 86.2 28.8992 86 29.8992C85.7 31.3992 85.7 32.2992 86.1 32.8992C86.5 33.4992 87.2 33.7992 88.3 33.7992C88.9 33.7992 89.5 33.7992 89.9 33.7992C90.4 33.7992 90.8 33.6992 91.2 33.6992C91.6 33.5992 92 33.5992 92.3 33.4992L93.1 33.3992V32.5992C93.1 31.3992 93.2 30.1992 93.4 28.9992C93.6 27.9992 93.9 26.7992 94.3 25.4992C94.9 25.5992 95.3 25.6992 95.9 25.6992ZM96.5 19.7992C96.8 19.0992 97.1 18.3992 97.4 17.5992C97.9 16.3992 98.5 15.1992 99 13.9992C99.5 12.7992 100 11.5992 100.5 10.4992C100.7 10.1992 100.8 9.79922 101 9.49922C101.5 10.8992 101.9 12.2992 102.2 13.6992C102.7 15.5992 103.2 17.5992 103.7 19.6992C103.4 19.6992 103.1 19.6992 102.8 19.7992C101.9 19.7992 100.9 19.7992 100 19.7992H97.2C96.9 19.7992 96.7 19.7992 96.5 19.7992Z" fill="#E2211C"/>
<path d="M111.9 5.3C111.9 5.6 112 5.9 112 6.2V7L112.8 7.1C113.3 7.2 113.8 7.2 114.5 7.3C115.2 7.4 115.9 7.4 116.8 7.5L121 7.6C121 9 121 10.4 120.9 12.1L120.7 24.1C120.7 26 120.7 27.7 120.7 29.2C120.7 29.8 120.7 30.4 120.7 31C120.8 31.6 120.9 32.1 121 32.4V32.5C121.2 33 121.5 33.4 122 33.7L122.1 33.8C122.5 34 123.2 34.1 124 34.1C124.4 34.1 125 34.1 125.6 34C126.3 34 126.9 33.9 127.5 33.7L128.4 33.5L128.3 32.6C128.2 32.3 128.2 31.9 128.1 31.5C128 31.2 128 30.9 128 30.5C128 30.1 128 29.8 128 29.4C128 28.8 128 28.1 128 27.3C128 26.4 128 25.5 128 24.7V20.2C128 18.2 128 16 128 13.7C128 11.7 128 9.8 128 7.8H131.2C131.9 7.8 132.5 7.7 133.1 7.7C133.7 7.7 134.2 7.6 134.6 7.6C135.3 7.5 136.4 7.3 136.9 6.5C137.2 6 137.3 5.3 137.3 4.4C137.3 4.1 137.3 3.7 137.3 3.3C137.3 2.9 137.2 2.6 137.2 2.3C137.2 2 137.1 1.6 137.1 1.3L136.9 0L135.7 0.4C134.8 0.7 133.4 0.9 131.8 1C130 1.1 127.9 1.1 125.3 1.1H122.6L119.7 1C118.8 1 117.8 1 116.9 1C116 1 115.2 1 114.4 1C113.4 1 112.7 1.3 112.2 1.8C111.8 2.3 111.6 2.9 111.6 3.7V4.6C111.8 4.8 111.8 5.1 111.9 5.3Z" fill="#E2211C"/>
<path d="M139.3 3.80094V3.90094C139.4 4.20094 139.5 4.40094 139.5 4.80094C139.6 5.20094 139.6 5.50094 139.7 6.00094C139.8 6.40094 139.9 6.90094 139.9 7.50094C140 8.10093 140 8.90094 140.1 9.60094C140.2 10.4009 140.2 11.2009 140.2 12.0009C140.2 12.8009 140.2 13.7009 140.2 14.6009C140.2 15.4009 140.2 16.2009 140.2 17.0009C140.2 19.3009 140.1 21.8009 140 24.3009C139.9 26.8009 139.8 29.2009 139.6 31.5009V32.2009L140.3 32.5009C141.1 32.8009 142 33.0009 142.9 33.2009C143.7 33.4009 144.7 33.5009 145.8 33.7009C146.9 33.8009 148.2 33.9009 149.6 33.9009C151.6 33.9009 153.4 33.7009 155 33.3009C156.7 32.9009 158.2 32.2009 159.4 31.3009C160.6 30.4009 161.6 29.1009 162.3 27.7009C163 26.3009 163.3 24.5009 163.3 22.5009C163.3 20.8009 163 19.4009 162.5 18.1009C161.9 16.8009 161.1 15.7009 160.1 14.9009C159.1 14.0009 157.9 13.4009 156.6 13.0009C155.3 12.6009 153.8 12.4009 152.3 12.4009C151 12.4009 149.8 12.5009 148.7 12.7009C148.1 12.8009 147.5 12.9009 146.9 13.0009C146.9 11.3009 146.9 9.70093 146.9 8.40093C146.9 6.70093 146.9 5.20094 146.8 3.90094C146.8 3.40094 146.7 3.10094 146.7 2.80094C146.7 2.30094 146.5 1.90094 146.3 1.60094C146.1 1.20094 145.8 1.00094 145.4 0.800935C144.7 0.400935 143.5 0.500935 142 0.800935C141.2 0.900935 140.3 1.10094 139.4 1.40094L138.4 1.70094L138.7 2.70094C139.1 3.10094 139.2 3.50094 139.3 3.80094ZM146.8 27.5009C146.9 26.7009 146.9 26.0009 147 25.2009C147.1 24.2009 147.1 23.2009 147.1 22.0009L147.2 19.3009C147.6 19.2009 148.1 19.1009 148.6 19.0009C149.4 18.8009 150.4 18.8009 151.5 18.8009C153.2 18.8009 154.4 19.2009 155.2 19.9009C156 20.6009 156.4 21.6009 156.4 23.1009C156.4 23.9009 156.3 24.7009 156 25.2009C155.7 25.8009 155.3 26.2009 154.8 26.6009C154.3 27.0009 153.7 27.3009 152.9 27.5009C152.1 27.7009 151.2 27.8009 150.3 27.8009C149.6 27.8009 149 27.8009 148.5 27.7009C148 27.6009 147.6 27.6009 147.2 27.5009C147 27.5009 146.9 27.5009 146.8 27.5009Z" fill="#E2211C"/>
<path d="M25.2 62.6996C24.7 61.9996 24 61.2996 23.2 60.6996C22.9 60.4996 22.5 60.2996 22.2 60.0996C22.9 59.4996 23.5 58.8996 24 58.0996C24.8 56.7996 25.2 55.2996 25.2 53.6996C25.2 51.8996 24.9 50.3996 24.2 49.1996C23.5 47.9996 22.6 46.9996 21.5 46.3996C20.4 45.6996 19.1 45.1996 17.7 44.9996C16.4 44.7996 14.9 44.5996 13.4 44.5996C10.4 44.5996 6.99998 44.9996 3.19998 45.8996L2.19998 46.0996L2.49998 47.0996C2.59998 47.4996 2.69998 47.8996 2.79998 48.2996C2.89998 48.6996 2.89998 48.9996 2.99998 49.4996C2.99998 49.9996 3.09998 50.3996 3.09998 50.9996C3.19998 51.4996 3.19998 52.0996 3.19998 52.8996C3.29998 54.0996 3.29998 55.2996 3.29998 56.4996V60.1996C3.29998 62.8996 3.29998 65.5996 3.19998 68.1996C3.09998 70.7996 3.09998 73.2996 2.99998 75.7996V76.4996L3.69998 76.6996C4.59998 76.9996 5.49998 77.2996 6.59998 77.4996C7.49998 77.6996 8.49998 77.8996 9.69998 77.9996C10.9 78.1996 12.2 78.1996 13.6 78.1996C15.8 78.1996 17.7 77.8996 19.3 77.4996C20.9 76.9996 22.3 76.2996 23.5 75.2996C24.6 74.2996 25.4 73.1996 26 71.7996C26.5 70.4996 26.8 68.9996 26.8 67.4996C26.8 66.6996 26.7 65.7996 26.5 65.0996C26.1 64.2996 25.7 63.4996 25.2 62.6996ZM16.9 56.9996C16.1 57.7996 14.7 58.0996 12.7 58.0996H10.2C10.2 57.1996 10.2 56.3996 10.1 55.5996C10.1 54.4996 10.1 53.5996 10.1 52.7996C10.1 52.0996 10.1 51.4996 9.99998 50.9996C10.3 50.8996 10.6 50.8996 11 50.8996C11.6 50.7996 12.3 50.7996 13.1 50.7996C14.8 50.7996 16.1 51.0996 17 51.6996C17.7 52.1996 18.1 52.9996 18.1 54.2996C18 55.3996 17.7 56.1996 16.9 56.9996ZM9.99998 69.5996C10.1 68.6996 10.1 67.6996 10.1 66.5996L10.2 63.9996C10.6 63.9996 11 63.9996 11.4 63.9996H13C14 63.9996 14.9 64.0996 15.8 64.1996C16.6 64.2996 17.2 64.4996 17.8 64.8996C18.3 65.1996 18.7 65.5996 19 66.0996C19.3 66.5996 19.4 67.1996 19.4 67.8996C19.4 69.3996 19 70.4996 18.2 71.0996C17.3 71.7996 15.9 72.0996 13.9 72.0996C13.2 72.0996 12.6 72.0996 12.1 71.9996C11.5 71.8996 11 71.7996 10.5 71.6996C10.3 71.6996 10.1 71.5996 9.79998 71.4996C9.89998 70.9996 9.89998 70.2996 9.99998 69.5996Z" fill="#E2211C"/>
<path d="M55.3 49.1C54 47.6 52.4 46.5 50.5 45.7C48.6 44.9 46.4 44.5 43.9 44.5C41.6 44.5 39.4 45 37.5 46C35.7 47 34.1 48.3 32.8 49.9C31.5 51.5 30.5 53.4 29.9 55.5C29.2 57.6 28.9 59.8 28.9 62.1C28.9 64.5 29.2 66.8 29.8 68.8C30.5 70.8 31.4 72.6 32.7 74.1C34 75.6 35.6 76.7 37.5 77.5C39.4 78.3 41.5 78.7 44 78.7C46.3 78.7 48.4 78.2 50.3 77.2C52.2 76.2 53.8 74.9 55.1 73.3C56.4 71.7 57.4 69.8 58.1 67.7C58.8 65.6 59.1 63.4 59.1 61.1C59.1 58.7 58.8 56.5 58.2 54.5C57.5 52.3 56.6 50.5 55.3 49.1ZM51.8 61.3C51.8 63 51.6 64.5 51.1 65.9C50.7 67.2 50.1 68.4 49.4 69.3C48.7 70.2 47.9 70.9 46.9 71.5C46 72 45.1 72.2 44.1 72.2C42.9 72.2 41.8 72 40.9 71.6C40 71.1 39.1 70.5 38.4 69.6C37.7 68.7 37.1 67.6 36.7 66.3C36.3 65 36.1 63.4 36.1 61.7C36.1 60 36.3 58.4 36.8 57.1C37.2 55.8 37.8 54.6 38.5 53.7C39.2 52.8 40.1 52.1 41 51.6C41.9 51.1 42.8 50.9 43.8 50.9C44.9 50.9 46 51.1 46.9 51.6C47.8 52 48.7 52.7 49.3 53.6C50 54.5 50.6 55.6 51 56.9C51.6 58.1 51.8 59.6 51.8 61.3Z" fill="#E2211C"/>
<path d="M88.3 45.6004C87.8 45.3004 87.3 45.1004 86.5 45.1004C85.5 45.0004 84.6 45.0004 83.7 45.0004L81.2 44.9004C80.4 44.9004 79.5 44.9004 78.6 44.9004H75.8C73.6 44.9004 71.6 44.9004 69.7 44.9004C67.8 44.9004 65.8 45.0004 63.6 45.2004L62.4 45.3004L62.8 46.5004C63 47.3004 63.2 48.1004 63.4 49.0004C63.6 49.8004 63.7 50.8004 63.7 51.8004C63.7 52.3004 63.7 53.3004 63.7 54.9004V60.5004C63.7 61.9004 63.7 63.4004 63.6 64.9004C63.6 66.4004 63.5 67.8004 63.4 69.1004C63.3 70.4004 63.3 71.6004 63.2 72.6004C63.2 73.6004 63.2 74.4004 63.2 74.9004C63.2 76.1004 63.4 76.8004 63.8 77.3004C64.2 77.8004 65 78.0004 66.2 78.0004C66.6 78.0004 67.2 78.0004 67.9 77.9004C68.6 77.8004 69.3 77.7004 69.8 77.6004L70.7 77.4004L70.5 76.5004C70.4 76.2004 70.4 75.8004 70.3 75.3004C70.2 74.9004 70.2 74.5004 70.2 74.1004C70.2 73.6004 70.2 73.1004 70.2 72.5004C70.2 68.6004 70.3 64.8004 70.4 61.1004L70.8 51.1004C71.3 51.1004 71.9 51.1004 72.5 51.1004H77.4C78 51.1004 78.7 51.1004 79.3 51.1004C79.9 51.1004 80.5 51.1004 81.1 51.1004C81.3 51.1004 81.6 51.1004 81.8 51.1004C81.8 52.5004 81.8 54.2004 81.7 56.0004C81.7 58.2004 81.6 60.5004 81.5 62.9004C81.4 65.3004 81.4 67.7004 81.3 70.0004C81.3 72.3004 81.3 74.3004 81.3 76.0004C81.3 76.8004 81.6 77.3004 82 77.6004C82.4 77.9004 83 78.0004 84 78.0004C84.4 78.0004 85 78.0004 85.7 77.9004C86.5 77.8004 87.3 77.7004 88 77.4004L88.8 77.1004L89 76.4004C89 76.1004 88.9 75.8004 88.9 75.4004C88.8 75.1004 88.8 74.7004 88.8 74.3004C88.8 73.7004 88.7 73.1004 88.7 72.3004C88.6 70.6004 88.6 68.6004 88.6 66.6004C88.6 64.5004 88.7 62.4004 88.7 60.3004C88.7 59.4004 88.8 58.3004 88.8 57.1004L89 53.4004C89.1 52.1004 89.1 51.0004 89.1 50.0004C89.2 48.9004 89.2 48.2004 89.2 47.7004C89.2 46.4004 88.7 45.8004 88.3 45.6004Z" fill="#E2211C"/>
<path d="M114.6 47.1992C113.5 46.2992 112.2 45.6992 110.6 45.2992C109.1 44.8992 107.5 44.6992 105.7 44.6992C104.3 44.6992 102.5 44.7992 100.6 44.9992C98.7 45.1992 96.7 45.4992 94.8 45.8992L93.7 46.0992L94.1 47.1992C94.4 47.9992 94.6 49.0992 94.8 50.2992C95 51.4992 95.1 52.8992 95.2 54.3992C95.3 55.4992 95.3 56.4992 95.3 57.4992V60.3992C95.3 63.7992 95.3 66.6992 95.2 69.0992C95.1 71.4992 95.1 73.6992 95.1 75.5992C95.1 76.4992 95.4 77.1992 96 77.6992C96.5 77.9992 97.1 78.1992 98 78.1992C98.5 78.1992 98.9 78.1992 99.4 78.0992C99.8 77.9992 100.3 77.9992 100.7 77.8992L103 77.3992L102.8 76.3992C102.7 75.7992 102.6 75.0992 102.5 74.4992C102.4 73.9992 102.3 73.3992 102.3 72.7992C102.2 72.1992 102.2 71.6992 102.2 71.1992V70.0992C102.2 69.5992 102.2 68.9992 102.2 68.4992C102.2 67.8992 102.2 67.2992 102.2 66.7992C102.2 66.6992 102.2 66.5992 102.2 66.5992C102.5 66.6992 102.9 66.6992 103.4 66.6992H104.6C106.4 66.6992 108.1 66.4992 109.7 66.0992C111.3 65.6992 112.8 64.9992 114 64.0992C115.3 63.1992 116.3 61.9992 117 60.5992C117.7 59.1992 118.1 57.3992 118.1 55.3992C118.1 53.5992 117.8 51.9992 117.2 50.5992C116.6 49.2992 115.8 48.0992 114.6 47.1992ZM110.9 55.3992C110.9 56.9992 110.4 58.1992 109.5 58.9992C108.5 59.7992 107 60.1992 104.9 60.1992C104.4 60.1992 104 60.1992 103.6 60.1992C103.2 60.1992 102.9 60.0992 102.5 60.0992C102.4 60.0992 102.3 60.0992 102.2 60.0992C102.2 58.7992 102.2 57.5992 102.1 56.4992C102.1 55.1992 102.1 53.9992 102 53.0992C102 52.2992 101.9 51.5992 101.9 50.9992C102.3 50.8992 102.7 50.8992 103.1 50.8992C104.6 50.7992 106.4 50.6992 107.7 51.0992C108.4 51.2992 109 51.4992 109.5 51.8992C110 52.1992 110.3 52.6992 110.6 53.1992C110.7 53.8992 110.9 54.5992 110.9 55.3992Z" fill="#E2211C"/>
<path d="M146.8 49.1C145.5 47.6 143.9 46.5 142 45.7C140.1 44.9 137.9 44.5 135.4 44.5C133.1 44.5 130.9 45 129 46C127.2 47 125.6 48.3 124.3 49.9C123 51.5 122 53.4 121.4 55.5C120.7 57.6 120.4 59.8 120.4 62.1C120.4 64.5 120.7 66.8 121.3 68.8C122 70.8 122.9 72.6 124.2 74.1C125.5 75.6 127.1 76.7 129 77.5C130.9 78.3 133 78.7 135.5 78.7C137.8 78.7 139.9 78.2 141.8 77.2C143.7 76.2 145.3 74.9 146.6 73.3C147.9 71.7 148.9 69.8 149.6 67.7C150.3 65.6 150.6 63.4 150.6 61.1C150.6 58.7 150.3 56.5 149.7 54.5C149 52.3 148 50.5 146.8 49.1ZM143.3 61.3C143.3 63 143.1 64.5 142.6 65.9C142.2 67.2 141.6 68.4 140.9 69.3C140.2 70.2 139.4 70.9 138.4 71.5C137.5 72 136.6 72.2 135.6 72.2C134.4 72.2 133.3 72 132.4 71.6C131.5 71.1 130.6 70.5 129.9 69.6C129.2 68.7 128.6 67.6 128.2 66.3C127.8 65 127.6 63.4 127.6 61.7C127.6 60 127.8 58.4 128.3 57.1C128.7 55.8 129.3 54.6 130 53.7C130.7 52.8 131.6 52.1 132.5 51.6C133.4 51.1 134.3 50.9 135.3 50.9C136.4 50.9 137.5 51.1 138.4 51.6C139.3 52 140.2 52.7 140.9 53.6C141.6 54.5 142.2 55.6 142.6 56.9C143.1 58.1 143.3 59.6 143.3 61.3Z" fill="#E2211C"/>
<path d="M177.8 71.7992C177.6 70.9992 177.2 70.3992 176.8 69.7992L176.2 68.9992L175.4 69.5992C174.7 70.0992 173.8 70.5992 172.8 71.0992C171.8 71.5992 170.5 71.7992 169 71.7992C166.5 71.7992 164.6 70.9992 163.1 69.2992C161.6 67.4992 160.9 64.9992 160.9 61.6992C160.9 59.9992 161.1 58.3992 161.5 57.0992C161.9 55.7992 162.5 54.6992 163.2 53.7992C163.9 52.8992 164.7 52.1992 165.6 51.7992C166.5 51.2992 167.5 51.0992 168.5 51.0992C169.2 51.0992 169.8 51.0992 170.4 51.1992C171 51.2992 171.5 51.2992 172 51.3992C172.5 51.4992 172.9 51.4992 173.3 51.5992C173.8 51.6992 174.3 51.6992 174.8 51.6992C176 51.6992 176.9 51.0992 177.3 49.9992C177.6 49.1992 177.8 47.8992 177.8 45.9992V44.9992H176.8C176.2 44.9992 175.7 44.9992 175.1 44.9992C174.5 44.8992 173.9 44.8992 173.3 44.8992C172.7 44.7992 172 44.7992 171.3 44.7992C170.6 44.6992 169.7 44.6992 168.8 44.6992C166.3 44.6992 164.1 45.1992 162.2 46.1992C160.3 47.1992 158.7 48.4992 157.4 50.0992C156.2 51.6992 155.2 53.5992 154.5 55.7992C153.9 57.8992 153.6 60.0992 153.6 62.2992C153.6 64.9992 154 67.2992 154.8 69.3992C155.6 71.3992 156.7 73.0992 158.1 74.4992C159.5 75.8992 161.1 76.8992 163 77.5992C164.8 78.2992 166.8 78.5992 168.9 78.5992C170 78.5992 171.1 78.4992 172.1 78.2992C173.2 78.0992 174.1 77.7992 175 77.4992C175.9 77.0992 176.6 76.6992 177.2 76.1992C178.1 75.3992 178.3 74.5992 178.3 73.9992C178.1 73.1992 178 72.5992 177.8 71.7992Z" fill="#E2211C"/>
</g>
<defs>
<clipPath id="clip0_643_973">
<rect width="178.1" height="78.5" fill="white"/>
</clipPath>
</defs>
</svg>
