<svg width="901" height="38" viewBox="0 0 901 38" fill="none" xmlns="http://www.w3.org/2000/svg">
<path d="M21.1 28.2004C21.1 27.9004 21 27.8004 21 27.6004L20.8 26.2004L19.7 26.8004H19.4C19 26.8004 18.7 26.7004 18.5 26.6004C18.4 26.5004 18.1 26.3004 17.6 25.7004C17 25.0004 16.4 24.1004 15.6 23.1004C15 22.2004 14.4 21.2004 13.7 20.3004L15.2 18.5004C15.8 17.7004 16.4 17.0004 17 16.3004C17.6 15.6004 18.1 14.9004 18.5 14.3004C18.9 13.7004 19.3 13.2004 19.5 12.8004C20.1 11.9004 20.4 11.2004 20.4 10.6004C20.4 9.90039 20 9.20039 19.3 8.80039C19 8.60039 18.7 8.40039 18.2 8.30039C17.8 8.10039 17.3 7.90039 16.8 7.70039L16 7.40039L15.6 8.30039C15 9.60039 14.2 10.9004 13.4 12.3004C12.7 13.4004 11.9 14.5004 10.9 15.8004C10.7 15.4004 10.4 15.1004 10.2 14.7004C9.7 13.9004 9.3 13.2004 8.8 12.5004C8.3 11.8004 7.9 11.1004 7.5 10.5004C7.1 9.90039 6.8 9.30039 6.5 8.90039C6.2 8.40039 5.9 8.10039 5.6 8.00039C5.3 7.80039 5 7.70039 4.6 7.70039C3.8 7.70039 3.1 8.00039 2.4 8.40039C1.8 8.70039 1.2 9.10039 0.7 9.70039L0.1 10.3004L0.6 11.0004C1.1 11.6004 1.6 12.3004 2.2 13.1004C2.8 13.8004 3.4 14.6004 4 15.5004C4.6 16.3004 5.2 17.2004 5.8 18.1004C6.3 18.8004 6.7 19.4004 7.2 20.1004C6.7 20.7004 6.1 21.4004 5.6 22.0004C4.9 22.8004 4.2 23.7004 3.6 24.5004C3 25.3004 2.4 26.0004 1.9 26.7004C1.4 27.4004 1 27.9004 0.6 28.4004C0.2 28.9004 0 29.4004 0 29.9004C0 30.4004 0.2 30.8004 0.5 31.1004C0.7 31.3004 1 31.5004 1.3 31.7004C1.8 32.0004 2.4 32.2004 2.9 32.4004C3.2 32.5004 3.5 32.6004 3.8 32.7004L4.5 32.8004L5 32.0004C5.5 31.1004 6.1 30.2004 6.7 29.3004C7.3 28.5004 7.9 27.6004 8.6 26.5004C9.1 25.8004 9.6 25.2004 10.1 24.5004C10.3 24.8004 10.4 25.0004 10.6 25.3004C11 26.0004 11.4 26.6004 11.9 27.3004C12.3 27.9004 12.7 28.5004 13.1 29.1004C13.5 29.6004 13.8 30.1004 14.1 30.4004C14.4 30.8004 14.7 31.1004 15 31.5004C15.3 31.8004 15.6 32.0004 15.9 32.1004C16.2 32.3004 16.6 32.4004 17 32.5004C17.3 32.5004 17.7 32.6004 18.1 32.6004C19.1 32.6004 19.8 32.4004 20.3 32.0004C20.7 31.7004 21.2 31.0004 21.2 29.9004C21.2 29.6004 21.2 29.3004 21.2 29.0004C21.1 28.6004 21.1 28.4004 21.1 28.2004Z" fill="#661B00"/>
<path d="M40.6 10.9004C39.6 9.80039 38.4 8.90039 37 8.30039C35.6 7.70039 34 7.40039 32.1 7.40039C30.4 7.40039 28.8 7.80039 27.3 8.50039C25.9 9.20039 24.7 10.2004 23.8 11.4004C22.9 12.6004 22.1 14.0004 21.6 15.6004C21.1 17.1004 20.8 18.8004 20.8 20.5004C20.8 22.3004 21 24.0004 21.5 25.4004C22 26.9004 22.7 28.2004 23.6 29.3004C24.5001 30.4004 25.7001 31.3004 27.2001 31.9004C28.6001 32.5004 30.2 32.8004 32 32.8004C33.7 32.8004 35.3001 32.4004 36.7001 31.7004C38.1 31.0004 39.3 30.0004 40.3 28.8004C41.3 27.6004 42 26.2004 42.5 24.6004C43 23.1004 43.3 21.4004 43.3 19.7004C43.3 17.9004 43.1 16.3004 42.6 14.8004C42.3 13.3004 41.6 12.0004 40.6 10.9004ZM37.6 20.0004C37.6 21.2004 37.4 22.3004 37.1 23.2004C36.8 24.1004 36.4001 25.0004 35.9001 25.6004C35.4001 26.2004 34.8001 26.7004 34.2001 27.1004C32.9001 27.8004 31.3 27.7004 30.1 27.1004C29.4001 26.8004 28.9 26.3004 28.4 25.7004C27.9 25.1004 27.5001 24.3004 27.2001 23.4004C26.9001 22.5004 26.8 21.4004 26.8 20.1004C26.8 18.9004 27 17.8004 27.3 16.8004C27.6 15.8004 28 15.0004 28.5 14.4004C29 13.8004 29.6 13.3004 30.2001 13.0004C30.8001 12.7004 31.5 12.5004 32.1 12.5004C32.9 12.5004 33.6 12.7004 34.3 13.0004C35 13.3004 35.5 13.7004 36 14.3004C36.5 14.9004 36.9001 15.7004 37.2001 16.6004C37.5 17.7004 37.6 18.8004 37.6 20.0004Z" fill="#661B00"/>
<path d="M61.7 9L61.5 7L60.2999 7.4C59.6999 7.6 58.7 7.8 57.5 7.8C56.2 7.8 54.5999 7.9 52.7999 7.9H50.7999L48.7999 7.8C48.0999 7.8 47.3999 7.8 46.7999 7.8C46.0999 7.8 45.6 7.8 45 7.8C44.2 7.8 43.6 8 43.2 8.5C42.9 8.9 42.7 9.4 42.7 10.1V10.8L42.9 12.9L43.7 13C44 13 44.5 13.1 45 13.1C45.5 13.1 45.9999 13.2 46.5999 13.2L49.4 13.3C49.4 14.2 49.3999 15.2 49.2999 16.3L49.2 25C49.2 26.4 49.2 27.6 49.2 28.7C49.2 29.2 49.2 29.6 49.2 30.1C49.3 30.6 49.3 30.9 49.4 31.2V31.3C49.6 31.7 49.9 32 50.2 32.3L50.2999 32.4C50.6999 32.6 51.1999 32.7 51.7999 32.7C52.0999 32.7 52.5 32.7 53 32.6C53.5 32.6 54 32.5 54.5 32.4L55.4 32.2L55.2 31C55.2 30.7 55.0999 30.5 55.0999 30.2C55.0999 30 55 29.8 55 29.5C55 29.2 55 29 55 28.7C55 28.3 55 27.8 55 27.2C55 26.5 55 25.9 55 25.3V22C55 20.5 55 19 55 17.3C55 16 55 14.6 55 13.3H57.0999C57.5999 13.3 58 13.3 58.5 13.2C58.9 13.2 59.2999 13.2 59.5999 13.1C59.8999 13.1 61 13 61.5 12.2C61.7 11.8 61.9 11.2 61.9 10.5C61.9 10.2 61.9 10 61.9 9.7C61.7 9.5 61.7 9.3 61.7 9Z" fill="#661B00"/>
<path d="M82.9001 29.8009L82.8001 28.8009C82.8001 28.5009 82.8001 28.2009 82.8001 27.9009C82.8001 26.6009 82.7001 25.2009 82.7001 23.7009V19.1009C82.7001 18.4009 82.7001 17.6009 82.7001 16.8009L82.8001 14.2009C82.8001 13.3009 82.9001 12.5009 82.9001 11.8009C82.9001 11.0009 82.9001 10.4009 82.9001 9.90086C82.9001 9.20086 82.7001 8.60087 82.4001 8.30087C81.8001 7.70087 80.8001 7.70087 79.4001 7.90087C78.8001 7.90087 78.3001 8.00087 77.8001 8.10087L77.4001 8.20086L77.2001 8.50087C76.5001 9.50087 75.8001 10.6009 74.9001 12.0009C74.0001 13.3009 73.1001 14.7009 72.1001 16.2009C71.2001 17.7009 70.2001 19.1009 69.3001 20.7009C69.1001 21.0009 68.9001 21.4009 68.7001 21.7009C68.7001 21.6009 68.7001 21.4009 68.7001 21.3009C68.7001 20.8009 68.7001 20.1009 68.8001 19.4009L68.9001 16.5009C68.9001 15.5009 68.9001 14.6009 68.9001 13.8009C68.9001 12.9009 68.9001 12.1009 68.9001 11.4009C68.9001 10.7009 68.9001 10.0009 68.9001 9.50087C68.9001 9.20087 68.8001 7.80087 66.8001 7.80087C66.2001 7.80087 65.7001 7.80087 65.2001 7.90087C64.7001 7.90087 64.1001 8.10086 63.5001 8.20086L62.6001 8.40086L62.8001 9.30087C62.9001 9.60087 62.9001 9.90087 63.0001 10.3009C63.1001 10.5009 63.1001 10.8009 63.1001 11.0009C63.1001 11.2009 63.2001 11.5009 63.2001 11.8009C63.2001 12.1009 63.2001 12.5009 63.2001 12.9009C63.2001 13.8009 63.2001 14.7009 63.2001 15.8009V19.0009C63.2001 20.1009 63.2001 21.2009 63.2001 22.2009C63.2001 23.3009 63.2001 24.3009 63.2001 25.3009C63.2001 26.2009 63.2001 27.1009 63.2001 27.8009V30.3009V30.4009C63.2001 30.8009 63.3001 31.1009 63.5001 31.4009C63.7001 31.7009 64.0001 31.9009 64.4001 32.1009C64.9001 32.3009 65.7001 32.4009 66.7001 32.2009C67.2001 32.2009 67.6001 32.1009 68.1001 32.0009L68.6001 31.9009L68.8001 31.5009C69.0001 31.1009 69.3001 30.5009 69.7001 29.8009C70.1001 29.1009 70.6001 28.2009 71.2001 27.2009C71.8001 26.2009 72.4001 25.2009 73.0001 24.1009C73.7001 23.0009 74.4001 21.8009 75.1001 20.7009C75.8001 19.5009 76.5001 18.4009 77.3001 17.3009C77.4001 17.2009 77.4001 17.1009 77.5001 17.0009C77.5001 17.4009 77.5001 17.8009 77.5001 18.3009C77.5001 19.1009 77.5001 19.8009 77.5001 20.6009V22.6009L77.4001 24.9009C77.4001 25.6009 77.4001 26.3009 77.4001 27.0009C77.4001 27.6009 77.4001 28.2009 77.4001 28.8009V30.0009C77.4001 30.8009 77.6001 31.4009 78.1001 31.8009C78.5001 32.1009 79.1001 32.3009 79.9001 32.3009C80.2001 32.3009 80.6001 32.3009 81.1001 32.2009C81.6001 32.2009 82.2001 32.0009 82.7001 31.8009L83.4001 31.5009L83.0001 30.9009C82.9001 30.6009 82.9001 30.2009 82.9001 29.8009Z" fill="#661B00"/>
<path d="M103.2 9L103 7L101.8 7.4C101.2 7.6 100.2 7.8 99 7.8C97.7 7.8 96.1 7.9 94.3 7.9H92.3L90.3 7.8C89.6 7.8 88.9 7.8 88.3 7.8C87.6 7.8 87.1 7.8 86.5 7.8C85.7 7.8 85.1 8 84.7 8.5C84.4 8.9 84.2 9.4 84.2 10.1V10.8L84.4 12.9L85.2 13C85.5 13 86 13.1 86.5 13.1C87 13.1 87.5 13.2 88.1 13.2L90.9 13.3C90.9 14.2 90.9 15.2 90.8 16.3L90.7 25C90.7 26.4 90.7 27.6 90.7 28.7C90.7 29.2 90.7 29.6 90.7 30.1C90.8 30.6 90.8 30.9 90.9 31.2V31.3C91.1 31.7 91.4 32 91.7 32.3L91.8 32.4C92.2 32.6 92.7 32.7 93.3 32.7C93.6 32.7 94 32.7 94.5 32.6C95 32.6 95.5 32.5 96 32.4L96.9 32.2L96.8 31C96.8 30.7 96.7 30.5 96.7 30.2C96.7 30 96.6 29.8 96.6 29.5C96.6 29.2 96.6 29 96.6 28.7C96.6 28.3 96.6 27.8 96.6 27.2C96.6 26.5 96.6 25.9 96.6 25.3V22C96.6 20.5 96.6 19 96.6 17.3C96.6 16 96.6 14.6 96.6 13.3H98.7C99.2 13.3 99.6 13.3 100.1 13.2C100.5 13.2 100.9 13.2 101.2 13.1C101.5 13.1 102.6 13 103.1 12.2C103.3 11.8 103.5 11.2 103.5 10.5C103.5 10.2 103.5 10 103.5 9.7C103.3 9.5 103.3 9.3 103.2 9Z" fill="#661B00"/>
<path d="M120.7 28.0008C120.7 27.8008 120.6 27.5008 120.6 27.3008L120.4 26.3008L119.4 26.6008C118.6 26.8008 117.8 27.0008 117.1 27.1008C116 27.3008 114.6 27.2008 112.9 27.3008H110.5C110.5 26.3008 110.5 25.4008 110.5 24.6008V22.3008C110.7 22.3008 110.9 22.3008 111.2 22.4008L114.7 22.6008C116.4 22.7008 117.5 22.6008 118.2 22.0008C118.7 21.5008 118.9 20.9008 118.9 19.9008C118.9 19.7008 118.9 19.4008 118.9 19.2008C118.9 19.0008 118.9 18.8008 118.8 18.7008C118.8 18.5008 118.8 18.3008 118.7 18.1008L118.6 17.1008L117.6 17.3008C117.4 17.3008 117.2 17.4008 117 17.4008C116.8 17.4008 116.5 17.4008 116.3 17.5008H115.4C114.2 17.5008 113.1 17.5008 112.2 17.5008C111.6 17.5008 111.1 17.4008 110.5 17.4008C110.5 16.9008 110.5 16.5008 110.5 16.0008C110.5 15.2008 110.5 14.6008 110.5 14.0008C110.5 13.7008 110.5 13.4008 110.5 13.1008C111.3 13.1008 112.1 13.1008 112.9 13.2008C114.1 13.3008 115.2 13.3008 116.3 13.3008C117.5 13.3008 118.3 13.2008 118.9 13.0008C119.3 12.8008 120.1 12.3008 120.1 11.0008C120.1 10.8008 120.1 10.6008 120.1 10.2008C120.1 9.80078 120 9.30078 119.9 8.70078L119.7 7.80078L118.8 7.90078C118.2 8.00078 117.6 8.00078 117 8.10078C116.4 8.10078 115.7 8.10078 114.9 8.10078H113.3C112.7 8.10078 112.1 8.10078 111.5 8.10078C110.9 8.10078 110.3 8.10078 109.7 8.10078C108.4 8.00078 107.4 8.10078 106.6 8.10078C106.1 8.10078 105.6 8.20078 105.2 8.30078L104.2 8.50078L104.5 9.50078C104.6 9.80078 104.7 10.1008 104.7 10.3008V10.4008C104.8 10.6008 104.8 10.8008 104.9 11.1008C105 11.3008 105 11.6008 105 12.0008C105 12.3008 105.1 12.7008 105.1 13.2008C105.1 14.0008 105.2 14.9008 105.2 15.8008C105.2 16.7008 105.2 17.7008 105.2 18.7008C105.2 21.3008 105.2 23.6008 105.2 25.6008C105.2 27.6008 105.1 29.5008 105 31.3008L104.9 32.3008L105.9 32.4008C107.2 32.5008 108.6 32.6008 110.1 32.6008C111.6 32.7008 113 32.7008 114.3 32.7008C115.5 32.7008 116.6 32.7008 117.3 32.7008C118.2 32.7008 118.8 32.6008 119.3 32.5008C120 32.3008 120.5 32.0008 120.7 31.6008C121 31.2008 121.1 30.7008 121.1 30.1008C121.1 29.7008 121.1 29.4008 121 29.1008C120.8 28.5008 120.8 28.2008 120.7 28.0008Z" fill="#661B00"/>
<path d="M143.6 19.2996C144 18.8996 144.4 18.4996 144.6 18.0996C145.3 17.0996 145.6 15.8996 145.6 14.4996C145.6 13.2996 145.4 12.1996 145 11.2996C144.6 10.3996 144 9.59961 143.2 9.09961C142.5 8.59961 141.6 8.19961 140.5 7.89961C139.5 7.69961 138.5 7.59961 137.3 7.59961C136 7.59961 134.7 7.69961 133.5 7.89961C132.4 7.99961 131.5 8.09961 130.7 8.09961H130.1L129.8 8.69961C129.7 8.89961 129.7 9.09961 129.7 9.29961V9.79961C129.7 10.0996 129.7 10.4996 129.7 10.8996C129.8 11.2996 129.8 11.5996 130 11.9996C130.2 12.3996 130.4 12.6996 130.6 12.9996C130.9 13.1996 131.3 13.4996 132 13.4996C132.4 13.4996 132.8 13.4996 133.2 13.3996C133.5 13.2996 133.9 13.2996 134.3 13.1996C134.7 13.0996 135.1 12.9996 135.6 12.9996C136 12.8996 136.5 12.8996 137.1 12.8996C139.5 12.8996 139.9 13.8996 139.9 14.8996C139.9 15.4996 139.8 15.8996 139.6 16.1996C139.4 16.4996 139.1 16.7996 138.8 16.8996C138.4 17.0996 138 17.1996 137.4 17.2996C136.1 17.4996 134.7 17.3996 133.7 17.2996C133.4 17.2996 133.1 17.2996 132.9 17.1996L131.9 17.0996L131.6 18.9996C131.6 19.3996 131.5 19.7996 131.5 20.1996C131.5 20.7996 131.6 21.2996 131.9 21.7996C132.3 22.3996 132.8 22.6996 133.5 22.6996C134 22.6996 134.6 22.6996 135.1 22.5996C135.5 22.4996 136 22.4996 136.7 22.4996C137.4 22.4996 138.1 22.4996 138.6 22.5996C139.1 22.6996 139.5 22.7996 139.8 22.9996C140.1 23.1996 140.3 23.3996 140.4 23.6996C140.6 23.9996 140.6 24.3996 140.6 24.8996C140.6 26.0996 140.2 26.4996 139.8 26.7996C139.2 27.2996 138.4 27.4996 137.3 27.4996C136.5 27.4996 135.8 27.4996 135.3 27.3996C134.7 27.2996 134.2 27.1996 133.7 27.0996C133.3 26.9996 132.8 26.7996 132.4 26.5996C132 26.3996 131.6 26.0996 131.1 25.7996L130.1 25.0996L129.6 26.1996C129.4 26.5996 129.3 26.9996 129.1 27.2996C129 27.5996 128.9 27.8996 128.8 28.2996C128.7 28.6996 128.6 29.0996 128.6 29.4996C128.6 29.8996 128.8 30.5996 129.5 31.1996C130 31.5996 130.6 31.7996 131.4 32.0996C132.1 32.2996 133 32.4996 133.9 32.5996C134.9 32.6996 135.9 32.7996 137 32.7996C138.2 32.7996 139.3 32.5996 140.4 32.2996C141.5 31.9996 142.5 31.4996 143.3 30.7996C144.2 30.0996 144.9 29.2996 145.4 28.2996C145.9 27.2996 146.2 26.0996 146.2 24.7996C146.2 23.0996 145.8 21.6996 145 20.6996C144.7 20.0996 144.2 19.6996 143.6 19.2996Z" fill="#661B00"/>
<path d="M213.7 26.8L212.5 27C212.3 27 211.9 27.1 211.6 26.6C211.3 26.1 211 25.5 210.7 24.6C210.3 23.3 209.9 21.9 209.5 20.5C209.1 19.1 208.8 17.8 208.5 16.5C208.2 15.2 207.9 14.1 207.6 13.1C207.3 12 207.1 11.1 206.8 10.5C206.6 10 206.5 9.6 206.3 9.3C206.1 8.9 205.9 8.6 205.6 8.4C205.3 8.1 204.9 8 204.6 7.9C204 7.7 203 7.7 202.1 7.9C201.7 7.9 201.3 8 200.9 8.1L199.1 8.5L199 9C198.8 9.9 198.5 10.9 198 12.1C197.6 13.2 197.1 14.4 196.6 15.7C196.1 16.9 195.6 18.2 195 19.5C194.4 20.8 193.9 22 193.4 23.2C192.9 24.4 192.5 25.5 192.1 26.5C191.8 27.3 191.6 28.1 191.4 28.7C191.4 28.6 191.3 28.5 191.3 28.4C191.2 28.1 190.9 27.7 190.3 27.5C190 27.4 189.6 27.3 189.1 27.3C189 27.3 188.8 27.3 188.6 27.3C188.6 26.8 188.6 26.1 188.6 25.3C188.6 23.9 188.6 22.1 188.6 20C188.6 18.5 188.6 17.1 188.7 16C188.8 14.9 188.8 13.9 188.9 13.1C189 12.3 189 11.7 189.1 11.3C189.2 10.8 189.2 10.4 189.2 10.1C189.2 9.8 189.2 9.5 189.1 9.2C189 8.9 188.8 8.5 188.4 8.3C188.1 8.1 187.7 7.9 187.2 7.9C186.8 7.8 186.3 7.8 185.6 7.8C185.1 7.8 184.5 7.8 183.8 7.8C183.1 7.8 182.3 7.8 181.5 7.8C180.6 7.8 179.6 7.8 178.4 7.8C177.3 7.8 176 7.9 174.5 7.9L173.3 8L173.6 9.2C173.9 10.5 174 11.7 174 12.9C173.9 14.9 173.7 16.7 173.5 18.3C173.3 19.8 173 21.2 172.7 22.5C172.4 23.7 172 24.7 171.5 25.6C171.1 26.3 170.7 27 170.2 27.6C169.9 27.6 169.7 27.7 169.4 27.8V27.1L168.2 27.3C168 27.3 167.6 27.4 167.3 26.9C167 26.4 166.7 25.8 166.4 24.9C166 23.5 165.6 22.2 165.2 20.8L164.2 16.8C163.9 15.5 163.6 14.4 163.3 13.4C163 12.3 162.8 11.4 162.5 10.8C162.3 10.3 162.2 9.9 162 9.6C161.8 9.2 161.6 8.9 161.3 8.7C161 8.4 160.6 8.3 160.3 8.2C159.7 8 158.7 8 157.8 8.2C157.4 8.2 157 8.3 156.6 8.4L154.8 8.8L154.6 9C154.4 9.9 154.1 10.9 153.6 12.1C153.2 13.2 152.7 14.4 152.2 15.7C151.7 16.9 151.2 18.2 150.6 19.5C150 20.8 149.5 22 149 23.2C148.5 24.4 148.1 25.5 147.7 26.5C147.3 27.6 147.1 28.5 146.9 29.2C146.7 30.4 146.7 31.1 147 31.6C147.3 32.1 148 32.4 148.8 32.4C149.3 32.4 149.7 32.4 150 32.4C150.4 32.4 150.7 32.3 151 32.3C151.3 32.3 151.5 32.2 151.8 32.2L152.6 32.1V31.3C152.6 30.5 152.7 29.6 152.8 28.8C152.9 28.1 153.1 27.3 153.4 26.5C153.6 26.5 153.9 26.5 154.2 26.5C154.9 26.5 155.6 26.5 156.3 26.5H157.9C158.5 26.5 159 26.5 159.4 26.4C159.9 26.4 160.3 26.4 160.7 26.3C160.8 26.6 160.9 26.8 160.9 27.1L161.4 28.6C161.7 29.4 161.9 30 162.1 30.5C162.4 31 162.7 31.5 163.1 31.8C163.5 32.1 163.9 32.3 164.4 32.4C164.8 32.5 165.3 32.6 165.8 32.6C166.4 32.6 167 32.5 167.4 32.3V33.1C167.4 33.7 167.4 34.2 167.4 34.7C167.4 35.2 167.4 35.7 167.5 36.1C167.6 36.7 167.7 37.2 167.9 37.4C168.4 38.1 169.3 38.1 169.6 38.1C170.1 38.1 170.5 38.1 170.9 38C171.3 38 171.6 37.9 171.9 37.8C172.2 37.7 172.5 37.6 172.7 37.5L173.4 37.1L173.2 36.3C173.1 36 173 35.5 172.9 35C172.8 34.6 172.8 34.1 172.7 33.5C172.7 33.2 172.6 32.8 172.6 32.5C172.9 32.5 173.1 32.5 173.4 32.5C174.1 32.5 174.7 32.5 175.4 32.5C176.1 32.5 176.8 32.5 177.5 32.5C178.2 32.5 178.9 32.5 179.5 32.5H181.3C182 32.5 182.6 32.5 183.3 32.5C183.9 32.5 184.6 32.5 185.2 32.5C185.4 32.5 185.6 32.5 185.8 32.5V35.4C185.8 35.8 185.8 36.2 185.9 36.4C186 36.8 186.1 37.1 186.4 37.5C186.7 37.8 187 38 187.4 38C187.7 38.1 188.1 38.1 188.6 38.1C189.2 38.1 189.9 38 190.8 37.8L191.6 37.6L191.5 36.7C191.4 35.4 191.3 34.2 191.3 33.1C191.3 32.7 191.3 32.3 191.3 31.9C191.7 32.3 192.2 32.6 193 32.6C193.5 32.6 193.9 32.6 194.2 32.6C194.6 32.6 194.9 32.5 195.2 32.5C195.5 32.5 195.7 32.4 196 32.4L196.8 32.3V31.5C196.8 30.6 196.9 29.8 197 29C197.1 28.3 197.3 27.5 197.6 26.7C197.8 26.7 198.1 26.7 198.4 26.7C199.1 26.7 199.8 26.7 200.5 26.7H202.1C202.7 26.7 203.2 26.7 203.6 26.6C204.1 26.6 204.5 26.6 204.9 26.5C205 26.8 205.1 27 205.1 27.3L205.6 28.8C205.9 29.6 206.1 30.2 206.3 30.7C206.6 31.2 206.9 31.7 207.3 32C207.7 32.3 208.1 32.5 208.6 32.6C209 32.7 209.5 32.8 210 32.8C211.2 32.8 212 32.5 212.5 31.9C213 31.4 213.2 30.7 213.2 29.9C213.2 29.7 213.2 29.5 213.2 29.3V26.8H213.7ZM183.2 27.2C182.9 27.2 182.5 27.2 182.2 27.2H180.3C179.4 27.2 178.4 27.2 177.4 27.2C177 27.2 176.7 27.2 176.3 27.2C176.5 26.9 176.6 26.5 176.8 26.2C177.2 25.2 177.6 24.1 177.9 22.7C178.2 21.4 178.5 19.8 178.7 18C178.9 16.5 179 14.7 179.1 12.6C179.9 12.6 180.6 12.6 181.4 12.6C182.1 12.6 182.7 12.6 183.3 12.6C183.2 14.2 183.1 15.7 183.1 17.1C183.1 18.7 183 20.3 183 21.9V24.8C183.1 25.6 183.1 26.4 183.2 27.2ZM158 15C158.2 15.8 158.5 16.6 158.6 17.4C158.9 18.7 159.3 20 159.6 21.5C159.5 21.5 159.4 21.5 159.2 21.5C158.5 21.5 157.9 21.5 157.2 21.5H155.2H155.1C155.3 21.1 155.4 20.7 155.6 20.3C156 19.4 156.4 18.5 156.8 17.6C157.2 16.8 157.6 15.9 158 15C158 15.1 157.9 15.1 158 15ZM202.4 15C202.6 15.8 202.9 16.6 203 17.4C203.3 18.7 203.7 20 204 21.5C203.9 21.5 203.8 21.5 203.6 21.5C202.9 21.5 202.3 21.5 201.6 21.5H199.6H199.5C199.7 21.1 199.8 20.7 200 20.3C200.4 19.4 200.8 18.5 201.2 17.6C201.6 16.8 202 15.9 202.4 15C202.4 15.1 202.4 15.1 202.4 15Z" fill="#661B00"/>
<path d="M229 9L228.8 7L227.6 7.4C227 7.6 226 7.8 224.8 7.8C223.5 7.8 221.9 7.9 220.1 7.9H218.1L216.1 7.8C215.4 7.8 214.7 7.8 214.1 7.8C213.4 7.8 212.9 7.8 212.3 7.8C211.5 7.8 210.9 8 210.5 8.5C210.2 8.9 210 9.4 210 10.1V10.7L210.2 12.9L211 13C211.3 13 211.8 13.1 212.3 13.1C212.8 13.1 213.3 13.2 213.9 13.2L216.7 13.3C216.7 14.2 216.7 15.2 216.6 16.3L216.5 25C216.5 26.4 216.5 27.6 216.5 28.7C216.5 29.2 216.5 29.6 216.5 30.1C216.6 30.6 216.6 30.9 216.7 31.2V31.3C216.9 31.7 217.2 32 217.5 32.3L217.6 32.4C218 32.6 218.5 32.7 219.1 32.7C219.4 32.7 219.8 32.7 220.3 32.6C220.8 32.6 221.3 32.5 221.8 32.4L222.6 32.2L222.3 30.5C222.3 30.3 222.2 30.1 222.2 29.8C222.2 29.5 222.2 29.3 222.2 29C222.2 28.6 222.2 28.1 222.2 27.5C222.2 26.8 222.2 26.2 222.2 25.6V22C222.2 20.5 222.2 19 222.2 17.3C222.2 16 222.2 14.6 222.2 13.3H224.3C224.8 13.3 225.2 13.3 225.7 13.2C226.1 13.2 226.5 13.2 226.8 13.1C227.1 13.1 228.2 13 228.7 12.2C228.9 11.8 229.1 11.2 229.1 10.5C229.1 10.2 229.1 10 229.1 9.7C229 9.5 229 9.2 229 9Z" fill="#661B00"/>
<path d="M245.8 18.1992C245.1 17.5992 244.2 17.0992 243.1 16.7992C242.1 16.4992 241 16.2992 239.9 16.2992C239 16.2992 238.1 16.3992 237.2 16.4992C236.9 16.5992 236.5 16.5992 236.2 16.6992C236.2 15.5992 236.2 14.5992 236.2 13.6992C236.2 12.4992 236.2 11.3992 236.1 10.3992C236.1 10.0992 236.1 9.79922 236 9.59922C236 9.19922 235.9 8.89922 235.7 8.59922C235.5 8.29922 235.3 7.99922 235 7.89922C234.4 7.59922 233.5 7.69922 232.4 7.79922C231.8 7.89922 231.2 7.99922 230.5 8.19922L229.5 8.49922L229.8 9.49922C229.9 9.79922 230 10.0992 230 10.2992V10.3992C230.1 10.5992 230.1 10.7992 230.2 11.0992C230.3 11.2992 230.3 11.5992 230.4 11.9992C230.5 12.2992 230.5 12.5992 230.5 13.0992C230.6 13.5992 230.6 14.0992 230.6 14.5992C230.6 15.1992 230.7 15.6992 230.7 16.3992C230.7 16.9992 230.7 17.5992 230.7 18.2992C230.7 18.8992 230.7 19.4992 230.7 19.9992C230.7 21.6992 230.7 23.3992 230.6 25.2992C230.5 27.0992 230.4 28.8992 230.3 30.5992V31.3992L231 31.6992C231.6 31.8992 232.2 32.0992 232.9 32.1992C233.5 32.2992 234.2 32.4992 235.1 32.5992C235.9 32.6992 236.9 32.6992 237.9 32.6992C239.4 32.6992 240.7 32.5992 241.9 32.2992C243.2 31.9992 244.3 31.4992 245.2 30.7992C246.1 30.0992 246.9 29.1992 247.4 28.0992C247.9 26.9992 248.2 25.6992 248.2 24.1992C248.2 22.9992 248 21.7992 247.6 20.8992C247.2 19.5992 246.6 18.7992 245.8 18.1992ZM242.4 24.1992C242.4 24.7992 242.3 25.2992 242.1 25.5992C241.9 25.9992 241.7 26.2992 241.3 26.4992C241 26.7992 240.5 26.9992 240 27.0992C239.5 27.1992 238.8 27.2992 238.2 27.2992C237.7 27.2992 237.3 27.2992 236.9 27.1992C236.6 27.1992 236.3 27.0992 236 27.0992C236 26.5992 236.1 26.0992 236.1 25.5992C236.1 24.8992 236.2 24.0992 236.2 23.2992V21.5992C236.4 21.4992 236.7 21.4992 237 21.3992C237.6 21.2992 238.2 21.1992 239.1 21.1992C240.2 21.1992 241.1 21.3992 241.6 21.8992C242.2 22.4992 242.4 23.1992 242.4 24.1992Z" fill="#661B00"/>
<path d="M274.7 20.9007C274.3 20.3007 273.8 19.8007 273.2 19.4007C273.1 19.3007 272.9 19.2007 272.8 19.1007C273.2 18.7007 273.6 18.3007 273.8 17.8007C274.4 16.8007 274.7 15.7007 274.7 14.4007C274.7 13.1007 274.4 11.9007 273.9 11.0007C273.4 10.1007 272.7 9.30067 271.8 8.80067C271 8.40067 270 8.00067 268.9 7.90067C265.9 7.40067 262.5 7.60067 258.3 8.50067L257.3 8.70067L257.6 9.70067C257.7 10.0007 257.8 10.3007 257.8 10.6007C257.9 10.8007 257.9 11.1007 258 11.5007C258.1 11.8007 258.1 12.1007 258.1 12.5007C258.1 12.9007 258.2 13.3007 258.2 13.8007C258.2 14.7007 258.3 15.5007 258.3 16.4007V19.1007C258.3 21.1007 258.3 23.0007 258.2 24.9007C258.2 26.8007 258.1 28.6007 258 30.4007V31.1007L258.7 31.3007C259.3 31.5007 260.1 31.7007 260.8 31.9007C261.4 32.1007 262.2 32.2007 263.1 32.3007C264 32.4007 265 32.5007 266 32.5007C267.6 32.5007 269.1 32.3007 270.2 31.9007C271.4 31.5007 272.5 31.0007 273.3 30.3007C274.1 29.6007 274.8 28.7007 275.2 27.7007C275.6 26.7007 275.8 25.6007 275.8 24.5007C275.8 23.9007 275.7 23.3007 275.5 22.7007C275.3 22.0007 275 21.4007 274.7 20.9007ZM268.2 16.7007C267.7 17.2007 266.7 17.5007 265.4 17.5007H263.8V16.0007C263.8 15.2007 263.8 14.5007 263.8 14.0007C263.8 13.6007 263.8 13.2007 263.8 12.9007C263.9 12.9007 264.1 12.9007 264.2 12.8007C264.6 12.7007 265.1 12.7007 265.7 12.7007C266.9 12.7007 267.8 12.9007 268.4 13.3007C268.6 13.4007 269.1 13.7007 269.1 15.0007C268.9 15.6007 268.7 16.2007 268.2 16.7007ZM263.6 26.0007C263.6 25.4007 263.7 24.6007 263.7 23.8007V22.2007C263.9 22.2007 264.1 22.2007 264.3 22.2007H265.5C266.2 22.2007 266.9 22.2007 267.5 22.3007C268 22.4007 268.5 22.5007 268.9 22.8007C269.2 23.0007 269.5 23.2007 269.7 23.6007C269.9 23.9007 270 24.3007 270 24.8007C270 25.8007 269.7 26.5007 269.2 26.9007C268.6 27.4007 267.6 27.6007 266.3 27.6007C265.8 27.6007 265.4 27.6007 265 27.5007C264.6 27.4007 264.2 27.4007 263.9 27.3007C263.8 27.3007 263.7 27.3007 263.6 27.2007V26.0007Z" fill="#661B00"/>
<path d="M296.5 10.9004C295.5 9.80039 294.3 8.90039 292.9 8.30039C291.5 7.70039 289.9 7.40039 288 7.40039C286.3 7.40039 284.7 7.80039 283.2 8.50039C281.8 9.20039 280.6 10.2004 279.7 11.4004C278.8 12.6004 278 14.0004 277.5 15.6004C277 17.1004 276.7 18.8004 276.7 20.5004C276.7 22.3004 276.9 24.0004 277.4 25.4004C277.9 26.9004 278.6 28.2004 279.5 29.3004C280.4 30.4004 281.6 31.3004 283.1 31.9004C284.5 32.5004 286.1 32.8004 287.9 32.8004C289.6 32.8004 291.2 32.4004 292.6 31.7004C294 31.0004 295.2 30.0004 296.2 28.8004C297.2 27.6004 297.9 26.2004 298.4 24.6004C298.9 23.1004 299.2 21.4004 299.2 19.7004C299.2 17.9004 299 16.3004 298.5 14.8004C298.2 13.3004 297.5 12.0004 296.5 10.9004ZM293.5 20.0004C293.5 21.2004 293.3 22.3004 293 23.2004C292.7 24.1004 292.3 25.0004 291.8 25.6004C291.3 26.2004 290.7 26.7004 290.1 27.1004C288.8 27.8004 287.2 27.7004 286 27.1004C285.3 26.8004 284.8 26.3004 284.3 25.7004C283.8 25.1004 283.4 24.3004 283.1 23.4004C282.8 22.5004 282.7 21.4004 282.7 20.1004C282.7 18.9004 282.9 17.8004 283.2 16.8004C283.5 15.9004 283.9 15.0004 284.4 14.4004C284.9 13.8004 285.5 13.3004 286.1 13.0004C286.7 12.7004 287.4 12.5004 288 12.5004C288.8 12.5004 289.5 12.7004 290.2 13.0004C290.9 13.3004 291.4 13.7004 291.9 14.3004C292.4 14.9004 292.8 15.7004 293.1 16.6004C293.3 17.7004 293.5 18.8004 293.5 20.0004Z" fill="#661B00"/>
<path d="M320.9 16.8992L321 14.1992C321 13.2992 321.1 12.3992 321.1 11.6992C321.1 10.8992 321.2 10.3992 321.2 9.99922C321.2 8.99922 320.8 8.49922 320.5 8.29922C320.1 7.99922 319.7 7.89922 319.1 7.89922C318.4 7.89922 317.7 7.79922 317.1 7.79922L315.3 7.69922C314.7 7.69922 314.1 7.69922 313.4 7.69922H311.4C309.8 7.69922 308.3 7.69922 306.9 7.69922C305.5 7.69922 304 7.79922 302.4 7.89922L301.2 7.99922L301.6 9.19922C301.8 9.79922 301.9 10.2992 302.1 10.9992C302.2 11.5992 302.3 12.1992 302.3 12.9992C302.3 13.3992 302.3 14.0992 302.3 15.1992V19.2992C302.3 20.3992 302.3 21.3992 302.2 22.4992C302.2 23.5992 302.1 24.5992 302.1 25.4992C302.1 26.4992 302 27.2992 302 28.0992C302 28.8992 302 29.3992 302 29.7992C302 30.6992 302.2 31.2992 302.5 31.6992C303 32.2992 303.8 32.2992 304.4 32.2992C304.7 32.2992 305.1 32.2992 305.7 32.1992C306.2 32.1992 306.7 32.0992 307.1 31.9992L308 31.7992L307.8 30.8992C307.8 30.6992 307.7 30.3992 307.7 29.9992C307.7 29.7992 307.6 29.4992 307.6 29.0992C307.6 28.7992 307.6 28.3992 307.6 27.9992C307.6 25.1992 307.6 22.3992 307.7 19.6992L308 12.6992C308.3 12.6992 308.6 12.6992 309 12.6992H312.6C313.1 12.6992 313.5 12.6992 314 12.6992C314.5 12.6992 314.9 12.6992 315.3 12.6992C315.4 12.6992 315.5 12.6992 315.6 12.6992C315.6 13.6992 315.6 14.7992 315.5 15.9992C315.5 17.5992 315.4 19.2992 315.4 20.9992L315.3 26.0992C315.3 27.7992 315.3 29.1992 315.3 30.3992C315.3 31.0992 315.6 31.4992 315.9 31.7992C316.2 31.9992 316.7 32.0992 317.5 32.0992C317.8 32.0992 318.2 32.0992 318.8 31.9992C319.4 31.9992 320 31.7992 320.5 31.5992L321.3 31.2992L321.2 30.4992C321.2 30.2992 321.1 29.9992 321.1 29.6992C321.1 29.4992 321 29.1992 321 28.8992C321 28.4992 321 27.9992 320.9 27.3992C320.9 26.0992 320.8 24.6992 320.8 23.2992C320.8 21.7992 320.9 20.2992 320.9 18.6992C320.9 18.4992 320.9 17.7992 320.9 16.8992Z" fill="#661B00"/>
<path d="M339.6 9.49961C338.8 8.79961 337.8 8.39961 336.6 8.09961C335.5 7.79961 334.3 7.59961 332.9 7.59961C331.9 7.59961 330.6 7.69961 329.2 7.79961C327.8 7.89961 326.3 8.19961 324.9 8.49961L323.8 8.69961L324.2 9.79961C324.4 10.3996 324.6 11.0996 324.7 11.9996C324.8 12.8996 324.9 13.8996 325 14.8996C325 15.6996 325.1 16.3996 325.1 17.0996V19.1996C325.1 21.6996 325.1 23.7996 325 25.4996C324.9 27.2996 324.9 28.8996 324.9 30.1996C324.9 31.0996 325.3 31.5996 325.6 31.8996C326 32.1996 326.5 32.2996 327.2 32.2996C327.5 32.2996 327.9 32.2996 328.3 32.1996C328.6 32.1996 328.9 32.0996 329.3 32.0996L331.2 31.6996L331 30.6996C330.9 30.1996 330.8 29.7996 330.8 29.2996C330.7 28.8996 330.7 28.4996 330.6 28.0996C330.6 27.6996 330.5 27.2996 330.5 26.9996V26.1996C330.5 25.7996 330.5 25.3996 330.5 24.9996C330.5 24.5996 330.5 24.1996 330.5 23.8996C330.7 23.8996 330.9 23.8996 331.1 23.9996H332C333.3 23.9996 334.6 23.8996 335.8 23.5996C337 23.2996 338.1 22.7996 339.1 22.0996C340.1 21.3996 340.8 20.4996 341.4 19.3996C342 18.2996 342.3 16.9996 342.3 15.4996C342.3 14.0996 342.1 12.8996 341.6 11.8996C341.2 11.0996 340.5 10.1996 339.6 9.49961ZM336.4 15.6996C336.4 16.7996 336.1 17.5996 335.5 18.0996C334.9 18.6996 333.8 18.8996 332.3 18.8996C332 18.8996 331.6 18.8996 331.3 18.8996C331 18.8996 330.8 18.8996 330.6 18.7996C330.6 17.8996 330.6 17.0996 330.6 16.3996C330.6 15.3996 330.6 14.5996 330.5 13.8996C330.5 13.3996 330.5 12.9996 330.4 12.5996C330.6 12.5996 330.8 12.5996 331 12.4996C332.1 12.3996 333.3 12.3996 334.3 12.5996C334.8 12.6996 335.1 12.8996 335.5 13.1996C335.8 13.3996 336 13.6996 336.2 14.0996C336.4 14.6996 336.4 15.0996 336.4 15.6996Z" fill="#661B00"/>
<path d="M363 10.9004C362 9.80039 360.8 8.90039 359.4 8.30039C358 7.70039 356.4 7.40039 354.5 7.40039C352.8 7.40039 351.2 7.80039 349.7 8.50039C348.3 9.20039 347.1 10.2004 346.2 11.4004C345.3 12.6004 344.5 14.0004 344 15.6004C343.5 17.1004 343.2 18.8004 343.2 20.5004C343.2 22.3004 343.4 24.0004 343.9 25.4004C344.4 26.9004 345.1 28.2004 346 29.3004C346.9 30.4004 348.1 31.3004 349.6 31.9004C351 32.5004 352.6 32.8004 354.4 32.8004C356.1 32.8004 357.7 32.4004 359.1 31.7004C360.5 31.0004 361.7 30.0004 362.7 28.8004C363.7 27.6004 364.4 26.2004 364.9 24.6004C365.4 23.1004 365.7 21.4004 365.7 19.7004C365.7 17.9004 365.5 16.3004 365 14.8004C364.7 13.3004 364 12.0004 363 10.9004ZM360 20.0004C360 21.2004 359.8 22.3004 359.5 23.2004C359.2 24.1004 358.8 25.0004 358.3 25.6004C357.8 26.2004 357.2 26.7004 356.6 27.1004C355.3 27.8004 353.7 27.7004 352.5 27.1004C351.8 26.8004 351.3 26.3004 350.8 25.7004C350.3 25.1004 349.9 24.3004 349.6 23.4004C349.3 22.5004 349.2 21.4004 349.2 20.1004C349.2 18.9004 349.4 17.8004 349.7 16.8004C350 15.9004 350.4 15.0004 350.9 14.4004C351.4 13.8004 352 13.3004 352.6 13.0004C353.2 12.7004 353.9 12.5004 354.5 12.5004C355.3 12.5004 356 12.7004 356.7 13.0004C357.4 13.3004 357.9 13.7004 358.4 14.3004C358.9 14.9004 359.3 15.7004 359.6 16.6004C359.9 17.7004 360 18.8004 360 20.0004Z" fill="#661B00"/>
<path d="M384.8 25.9996L384.2 25.1996L383.4 25.7996C382.9 26.1996 382.3 26.4996 381.5 26.8996C380.8 27.1996 379.9 27.3996 378.8 27.3996C377.1 27.3996 375.7 26.7996 374.7 25.5996C373.7 24.3996 373.1 22.5996 373.1 20.1996C373.1 18.9996 373.2 17.8996 373.5 16.8996C373.8 15.9996 374.2 15.1996 374.7 14.5996C375.2 13.9996 375.7 13.4996 376.4 13.1996C377.5 12.6996 378.7 12.6996 379.7 12.7996C380.1 12.7996 380.5 12.8996 380.8 12.9996C381.1 12.9996 381.4 13.0996 381.8 13.1996C382.2 13.1996 382.5 13.2996 382.9 13.2996C383.9 13.2996 384.7 12.7996 385 11.8996C385.2 11.2996 385.4 10.2996 385.4 8.89961V7.89961H384.4C384 7.89961 383.6 7.89961 383.2 7.89961C382.8 7.89961 382.3 7.79961 381.9 7.79961C381.4 7.79961 380.9 7.69961 380.4 7.69961C379.9 7.69961 379.2 7.59961 378.6 7.59961C376.8 7.59961 375.1 7.99961 373.7 8.69961C372.3 9.39961 371.1 10.3996 370.1 11.5996C369.2 12.7996 368.5 14.1996 368 15.7996C367.5 17.2996 367.3 18.8996 367.3 20.5996C367.3 22.5996 367.6 24.2996 368.2 25.8996C368.8 27.3996 369.6 28.6996 370.7 29.6996C371.7 30.6996 373 31.4996 374.4 31.9996C375.8 32.4996 377.2 32.6996 378.8 32.6996C379.6 32.6996 380.4 32.5996 381.2 32.4996C382 32.3996 382.7 32.1996 383.4 31.8996C384.1 31.5996 384.7 31.2996 385.1 30.8996C385.8 30.2996 386 29.5996 386 29.0996C386 28.5996 385.9 28.0996 385.7 27.5996C385.5 26.9996 385.2 26.3996 384.8 25.9996Z" fill="#661B00"/>
<path d="M415.5 29.7992L415.4 28.7992C415.4 28.4992 415.4 28.1992 415.4 27.8992C415.4 26.5992 415.3 25.1992 415.3 23.6992V19.0992C415.3 18.3992 415.3 17.5992 415.3 16.7992L415.4 14.1992C415.4 13.2992 415.5 12.4992 415.5 11.7992C415.5 10.9992 415.5 10.3992 415.5 9.89922C415.5 9.19922 415.3 8.59922 415 8.29922C414.4 7.69922 413.4 7.69922 412 7.89922C411.4 7.89922 410.9 7.99922 410.4 8.09922H410L409.8 8.39922C409.1 9.39922 408.4 10.4992 407.5 11.8992C406.6 13.1992 405.7 14.5992 404.7 16.0992C403.8 17.5992 402.8 18.9992 401.9 20.5992C401.7 20.8992 401.5 21.2992 401.3 21.5992C401.3 21.4992 401.3 21.2992 401.3 21.1992C401.3 20.6992 401.3 19.9992 401.4 19.2992L401.5 16.3992C401.5 15.3992 401.5 14.4992 401.5 13.6992C401.5 12.7992 401.5 11.9992 401.5 11.2992C401.5 10.5992 401.5 9.89922 401.5 9.39922C401.5 9.09922 401.4 7.69922 399.4 7.69922C398.8 7.69922 398.3 7.69922 397.8 7.79922C397.3 7.79922 396.7 7.99922 396.1 8.09922L395.2 8.29922L395.4 9.19922C395.5 9.49922 395.5 9.79922 395.6 10.1992C395.7 10.3992 395.7 10.6992 395.7 10.8992C395.7 11.0992 395.8 11.3992 395.8 11.6992C395.8 11.9992 395.8 12.3992 395.8 12.7992C395.8 13.6992 395.8 14.5992 395.8 15.6992V18.8992C395.8 19.9992 395.8 21.0992 395.8 22.0992C395.8 23.1992 395.8 24.1992 395.8 25.1992C395.8 26.0992 395.8 26.9992 395.8 27.6992V30.1992V30.2992C395.8 30.6992 395.9 30.9992 396.1 31.1992L396.2 31.2992C396.4 31.5992 396.7 31.7992 397.1 31.9992C397.6 32.1992 398.5 32.2992 399.4 32.0992C399.9 32.0992 400.3 31.9992 400.8 31.8992L401.3 31.7992L401.5 31.3992C401.7 30.9992 402 30.3992 402.4 29.6992C402.8 28.9992 403.3 28.0992 403.9 27.0992C404.5 26.0992 405.1 25.0992 405.7 23.9992C406.4 22.8992 407.1 21.6992 407.8 20.5992C408.5 19.3992 409.2 18.2992 410 17.1992C410.1 17.0992 410.1 16.9992 410.2 16.8992C410.2 17.2992 410.2 17.6992 410.2 18.1992C410.2 18.9992 410.2 19.6992 410.2 20.4992V22.4992L410.1 24.7992C410.1 25.4992 410.1 26.1992 410.1 26.8992C410.1 27.4992 410.1 28.0992 410.1 28.6992V29.8992C410.1 30.6992 410.3 31.2992 410.8 31.6992C411.2 31.9992 411.8 32.1992 412.6 32.1992C412.9 32.1992 413.3 32.1992 413.8 32.0992C414.3 32.0992 414.9 31.8992 415.4 31.6992L416.1 31.3992L416 30.5992C415.6 30.5992 415.6 30.1992 415.5 29.7992Z" fill="#661B00"/>
<path d="M438.1 29.1004C438 28.3004 438 27.4004 437.9 26.5004C437.9 25.5004 437.8 24.6004 437.8 23.6004C437.8 22.6004 437.8 21.8004 437.8 21.1004C437.8 18.6004 437.9 16.3004 438 14.5004C438.1 12.6004 438.2 11.2004 438.2 10.3004C438.2 10.0004 438.2 9.70039 438.1 9.40039C438 9.10039 437.8 8.70039 437.3 8.40039C437 8.20039 436.7 8.10039 436.2 8.00039C435.8 7.90039 435.4 7.90039 434.8 7.90039C434.4 7.90039 433.8 7.90039 433.1 7.90039C431.7 7.90039 429.9 7.90039 427.7 7.90039C426.5 7.90039 425.2 8.00039 423.7 8.00039H422.4L422.7 9.20039C422.8 9.70039 422.9 10.1004 422.9 10.5004C422.9 10.9004 423 11.4004 423 12.0004C423 13.1004 423 14.4004 422.9 15.6004C422.8 16.8004 422.7 18.1004 422.5 19.4004C422.2 21.2004 421.9 22.6004 421.5 23.7004C421.2 24.7004 420.8 25.5004 420.5 26.0004C420.1 26.5004 419.8 26.8004 419.7 26.8004C419.3 27.0004 419 27.0004 418.7 27.0004C418.6 27.0004 418.6 27.0004 418.6 27.0004L417.6 26.7004L417.3 27.8004C417.2 28.1004 417.2 28.3004 417.1 28.6004C417.1 28.8004 417 29.1004 417 29.4004C417 29.7004 417 30.0004 417 30.2004C417 31.1004 417.2 31.7004 417.6 32.2004C418 32.6004 418.6 32.7004 419.5 32.7004C420.5 32.7004 421.5 32.5004 422.4 32.0004C423.3 31.5004 424.1 30.7004 424.9 29.6004C425.6 28.6004 426.2 27.2004 426.6 25.6004C427.1 24.0004 427.5 22.1004 427.8 19.8004C428 18.4004 428.1 17.1004 428.2 15.8004C428.3 14.8004 428.3 13.9004 428.4 12.9004C428.6 12.9004 428.8 12.9004 428.9 12.9004C430 12.9004 431 12.9004 432.1 12.9004C432.2 12.9004 432.4 12.9004 432.5 12.9004C432.4 14.5004 432.4 16.1004 432.3 17.6004C432.3 19.4004 432.3 21.3004 432.3 23.2004V27.2004C432.3 28.4004 432.4 29.5004 432.4 30.4004C432.4 31.0004 432.6 31.5004 432.9 31.8004L433 31.9004C433.4 32.2004 433.9 32.4004 434.7 32.4004C435.2 32.4004 435.7 32.4004 436.3 32.3004C436.9 32.2004 437.4 32.1004 437.8 31.9004L438.7 31.6004L438.4 30.7004C438.3 30.5004 438.2 30.0004 438.1 29.1004Z" fill="#661B00"/>
<path d="M461.6 29.8009L461.5 28.8009C461.5 28.5009 461.5 28.2009 461.5 27.9009C461.5 26.6009 461.4 25.2009 461.4 23.7009V19.1009C461.4 18.4009 461.4 17.6009 461.4 16.8009L461.5 14.2009C461.5 13.3009 461.6 12.5009 461.6 11.8009C461.6 11.0009 461.6 10.4009 461.6 9.90086C461.6 9.20086 461.4 8.60087 461.1 8.30087C460.5 7.70087 459.5 7.70087 458.1 7.90087C457.5 7.90087 457 8.00087 456.5 8.10087L456.1 8.20086L455.9 8.50087C455.2 9.50087 454.5 10.6009 453.6 12.0009C452.7 13.3009 451.8 14.7009 450.8 16.2009C449.9 17.7009 448.9 19.1009 448 20.7009C447.8 21.0009 447.6 21.4009 447.4 21.7009C447.4 21.6009 447.4 21.4009 447.4 21.3009C447.4 20.8009 447.4 20.1009 447.5 19.4009L447.6 16.5009C447.6 15.5009 447.6 14.6009 447.6 13.8009C447.6 12.9009 447.6 12.1009 447.6 11.4009C447.6 10.7009 447.6 10.0009 447.6 9.50087C447.6 9.20087 447.5 7.80087 445.5 7.80087C444.9 7.80087 444.4 7.80087 443.9 7.90087C443.4 7.90087 442.8 8.10086 442.2 8.20086L441.3 8.40086L441.5 9.30087C441.6 9.60087 441.6 9.90087 441.7 10.3009C441.8 10.5009 441.8 10.8009 441.8 11.0009C441.8 11.2009 441.9 11.5009 441.9 11.8009C441.9 12.1009 441.9 12.5009 441.9 12.9009C441.9 13.8009 441.9 14.7009 441.9 15.8009V19.0009C441.9 20.1009 441.9 21.2009 441.9 22.2009C441.9 23.3009 441.9 24.3009 441.9 25.3009C441.9 26.2009 441.9 27.1009 441.9 27.8009V30.4009C441.9 30.8009 442 31.1009 442.2 31.3009L442.3 31.4009C442.5 31.7009 442.8 31.9009 443.2 32.1009C443.7 32.3009 444.5 32.4009 445.5 32.2009C446 32.2009 446.4 32.1009 446.9 32.0009L447.4 31.9009L447.6 31.5009C447.8 31.1009 448.1 30.5009 448.5 29.8009C448.9 29.1009 449.4 28.2009 450 27.2009C450.6 26.2009 451.2 25.2009 451.8 24.1009C452.4 23.0009 453.2 21.8009 453.9 20.7009C454.6 19.5009 455.3 18.4009 456.1 17.3009C456.2 17.2009 456.2 17.1009 456.3 17.0009C456.3 17.4009 456.3 17.8009 456.3 18.3009C456.3 19.1009 456.3 19.8009 456.3 20.6009V22.6009L456.2 24.9009C456.2 25.6009 456.2 26.3009 456.2 27.0009C456.2 27.6009 456.2 28.2009 456.2 28.8009V30.0009C456.2 30.8009 456.4 31.4009 456.9 31.8009C457.3 32.1009 457.9 32.3009 458.7 32.3009C459 32.3009 459.4 32.3009 459.9 32.2009C460.4 32.2009 461 32.0009 461.5 31.8009L462.2 31.5009L462.1 30.7009C461.7 30.6009 461.6 30.2009 461.6 29.8009Z" fill="#661B00"/>
<path d="M491.7 10.9004C490.7 9.80039 489.5 8.90039 488.1 8.30039C486.7 7.70039 485.1 7.40039 483.2 7.40039C481.5 7.40039 479.9 7.80039 478.4 8.50039C477 9.20039 475.8 10.2004 474.9 11.4004C474 12.6004 473.2 14.0004 472.7 15.6004C472.2 17.1004 471.9 18.8004 471.9 20.5004C471.9 22.3004 472.1 24.0004 472.6 25.4004C473.1 26.9004 473.8 28.2004 474.7 29.3004C475.6 30.4004 476.8 31.3004 478.3 31.9004C479.7 32.5004 481.3 32.8004 483.1 32.8004C484.8 32.8004 486.4 32.4004 487.8 31.7004C489.2 31.0004 490.4 30.0004 491.4 28.8004C492.4 27.6004 493.1 26.2004 493.6 24.6004C494.1 23.1004 494.4 21.4004 494.4 19.7004C494.4 17.9004 494.2 16.3004 493.7 14.8004C493.4 13.3004 492.6 12.0004 491.7 10.9004ZM488.7 20.0004C488.7 21.2004 488.5 22.3004 488.2 23.2004C487.9 24.1004 487.5 25.0004 487 25.6004C486.5 26.2004 485.9 26.7004 485.3 27.1004C484 27.8004 482.4 27.7004 481.2 27.1004C480.5 26.8004 480 26.3004 479.5 25.7004C479 25.1004 478.6 24.3004 478.3 23.4004C478 22.5004 477.9 21.4004 477.9 20.1004C477.9 18.9004 478.1 17.8004 478.4 16.8004C478.7 15.8004 479.1 15.0004 479.6 14.4004C480.1 13.8004 480.7 13.3004 481.3 13.0004C481.9 12.7004 482.6 12.5004 483.2 12.5004C484 12.5004 484.7 12.7004 485.4 13.0004C486.1 13.3004 486.6 13.7004 487.1 14.3004C487.6 14.9004 488 15.7004 488.3 16.6004C488.5 17.7004 488.7 18.8004 488.7 20.0004Z" fill="#661B00"/>
<path d="M513.5 25.9996L512.9 25.1996L512.1 25.7996C511.6 26.1996 511 26.4996 510.2 26.8996C509.5 27.1996 508.6 27.3996 507.5 27.3996C505.8 27.3996 504.4 26.7996 503.4 25.5996C502.4 24.3996 501.8 22.5996 501.8 20.1996C501.8 18.9996 501.9 17.8996 502.2 16.8996C502.5 15.9996 502.9 15.1996 503.4 14.5996C503.9 13.9996 504.4 13.4996 505.1 13.1996C506.2 12.6996 507.4 12.6996 508.4 12.7996C508.8 12.7996 509.2 12.8996 509.5 12.9996C509.8 12.9996 510.1 13.0996 510.5 13.1996C510.9 13.1996 511.2 13.2996 511.6 13.2996C512.6 13.2996 513.3 12.7996 513.7 11.8996C513.9 11.2996 514.1 10.2996 514.1 8.89961V7.89961H513.1C512.7 7.89961 512.3 7.89961 511.9 7.89961C511.5 7.89961 511 7.79961 510.6 7.79961C510.1 7.79961 509.6 7.69961 509.1 7.69961C508.6 7.69961 507.9 7.59961 507.3 7.59961C505.5 7.59961 503.8 7.99961 502.4 8.69961C501 9.39961 499.8 10.3996 498.8 11.5996C497.9 12.7996 497.2 14.1996 496.7 15.7996C496.2 17.2996 496 18.8996 496 20.5996C496 22.5996 496.3 24.2996 496.9 25.8996C497.5 27.3996 498.3 28.6996 499.4 29.6996C500.4 30.6996 501.7 31.4996 503.1 31.9996C504.5 32.4996 505.9 32.6996 507.5 32.6996C508.3 32.6996 509.1 32.5996 509.9 32.4996C510.7 32.3996 511.4 32.1996 512.1 31.8996C512.8 31.5996 513.4 31.2996 513.8 30.8996C514.5 30.2996 514.7 29.5996 514.7 29.0996C514.7 28.5996 514.6 28.0996 514.4 27.4996C514.1 26.9996 513.8 26.3996 513.5 25.9996Z" fill="#661B00"/>
<path d="M533 12.3C533.3 11.8 533.4 11.3 533.4 10.6C533.4 10.3 533.4 10.1 533.4 9.8L533.1 7L531.9 7.4C531.3 7.6 530.3 7.8 529.1 7.8C527.8 7.8 526.2 7.9 524.4 7.9H522.4L520.4 7.8C519.7 7.8 519.1 7.8 518.4 7.8C517.7 7.8 517.2 7.8 516.6 7.8C515.8 7.8 515.2 8 514.8 8.5C514.5 8.9 514.3 9.4 514.3 10.1V10.8L514.5 12.9L515.3 13C515.6 13 516.1 13.1 516.6 13.1C517.1 13.1 517.6 13.2 518.2 13.2L521 13.3C521 14.2 521 15.2 520.9 16.3L520.8 25C520.8 26.4 520.8 27.6 520.8 28.7C520.8 29.2 520.8 29.6 520.8 30.1C520.8 30.6 520.9 30.9 521 31.3C521.2 31.7 521.5 32 521.8 32.3L521.9 32.4C522.3 32.6 522.8 32.7 523.4 32.7C523.7 32.7 524.1 32.7 524.6 32.6C525.1 32.6 525.6 32.5 526.1 32.4L527 32.2L526.9 31.3C526.9 31 526.8 30.8 526.8 30.5C526.8 30.3 526.7 30.1 526.7 29.8C526.7 29.5 526.7 29.3 526.7 29C526.7 28.6 526.7 28.1 526.7 27.5C526.7 26.8 526.7 26.2 526.7 25.6V22C526.7 20.5 526.7 19 526.7 17.3C526.7 16 526.7 14.6 526.7 13.3H528.8C529.3 13.3 529.7 13.3 530.2 13.2C530.6 13.2 531 13.2 531.3 13.1C531.5 13.1 532.5 13 533 12.3Z" fill="#661B00"/>
<path d="M552.6 26.8L551.4 27C551.2 27 550.8 27.1 550.5 26.6C550.2 26.1 549.9 25.5 549.6 24.6C549.2 23.3 548.8 21.9 548.4 20.5C548 19.1 547.7 17.8 547.4 16.5C547.1 15.2 546.8 14.1 546.5 13.1C546.2 12 546 11.1 545.7 10.5C545.5 10 545.4 9.6 545.2 9.3C545 8.9 544.8 8.6 544.5 8.4C544.2 8.1 543.8 8 543.5 7.9C542.9 7.7 541.9 7.7 541 7.9C540.6 7.9 540.2 8 539.8 8.1L538 8.4L537.8 9C537.6 9.9 537.3 10.9 536.8 12.1C536.4 13.2 535.9 14.4 535.4 15.7C534.9 16.9 534.4 18.2 533.8 19.5C533.2 20.8 532.7 22 532.2 23.2C531.7 24.4 531.3 25.5 530.9 26.5C530.5 27.6 530.3 28.5 530.1 29.2C529.9 30.4 529.9 31.1 530.2 31.6C530.5 32.1 531.2 32.4 532 32.4C532.4 32.4 532.9 32.4 533.2 32.4C533.6 32.4 533.9 32.3 534.2 32.3C534.5 32.3 534.7 32.2 535 32.2L536 32V31.2C536 30.3 536.1 29.5 536.2 28.7C536.3 28 536.5 27.2 536.8 26.4C537 26.4 537.3 26.4 537.6 26.4C538.3 26.4 539 26.4 539.7 26.4H541.3C541.9 26.4 542.4 26.4 542.8 26.3C543.3 26.3 543.7 26.3 544.1 26.2C544.2 26.5 544.3 26.7 544.3 27L544.8 28.5C545 29.2 545.3 29.9 545.5 30.4C545.8 30.9 546.1 31.4 546.5 31.7C546.9 32 547.3 32.2 547.8 32.3C548.2 32.4 548.7 32.5 549.2 32.5C550.4 32.5 551.2 32.2 551.7 31.6C552.2 31.1 552.4 30.4 552.4 29.6C552.4 29.4 552.4 29.2 552.4 29V26.8H552.6ZM541.3 15C541.5 15.8 541.8 16.6 541.9 17.4C542.2 18.7 542.6 20 542.9 21.5C542.8 21.5 542.7 21.5 542.5 21.5C541.8 21.5 541.2 21.5 540.5 21.5H538.5H538.4C538.6 21.1 538.7 20.7 538.9 20.3C539.3 19.4 539.7 18.5 540.1 17.6C540.5 16.8 540.9 15.9 541.3 15C541.2 15.1 541.2 15.1 541.3 15Z" fill="#661B00"/>
<path d="M570.4 20.8995C570 20.2995 569.5 19.7995 568.9 19.3995C568.8 19.2995 568.6 19.1995 568.5 19.0995C568.9 18.6995 569.3 18.2995 569.5 17.7995C570.1 16.7995 570.4 15.6995 570.4 14.3995C570.4 13.0995 570.1 11.8995 569.6 10.9995C569.1 10.0995 568.4 9.2995 567.5 8.7995C566.7 8.2995 565.7 7.8995 564.6 7.6995C561.6 7.1995 558.2 7.3995 554 8.2995L553 8.4995L553.3 9.4995C553.4 9.7995 553.5 10.0995 553.5 10.3995C553.6 10.5995 553.6 10.8995 553.7 11.2995C553.8 11.5995 553.8 11.8995 553.8 12.2995C553.8 12.6995 553.9 13.0995 553.9 13.5995C553.9 14.4995 554 15.2995 554 16.1995V18.8995C554 20.8995 554 22.7995 553.9 24.6995C553.9 26.5995 553.8 28.3995 553.7 30.1995V30.8995L554.4 31.0995C555.1 31.2995 555.8 31.4995 556.5 31.6995C557.2 31.8995 557.9 31.9995 558.8 32.0995C559.7 32.1995 560.7 32.2995 561.7 32.2995C563.3 32.2995 564.8 32.0995 565.9 31.6995C567.1 31.2995 568.2 30.7995 569 30.0995C569.8 29.3995 570.5 28.4995 570.9 27.4995C571.3 26.4995 571.5 25.3995 571.5 24.2995C571.5 23.6995 571.4 23.0995 571.2 22.4995C571.1 21.9995 570.8 21.3995 570.4 20.8995ZM563.9 16.6995C563.4 17.1995 562.4 17.4995 561.1 17.4995H559.5V15.9995C559.5 15.1995 559.5 14.4995 559.5 13.9995C559.5 13.5995 559.5 13.1995 559.5 12.8995C559.6 12.8995 559.8 12.8995 559.9 12.7995C560.3 12.6995 560.8 12.6995 561.4 12.6995C562.6 12.6995 563.5 12.8995 564.1 13.2995C564.3 13.3995 564.8 13.6995 564.8 14.9995C564.7 15.5995 564.5 16.1995 563.9 16.6995ZM559.4 25.9995C559.4 25.3995 559.5 24.5995 559.5 23.7995V22.1995C559.7 22.1995 559.9 22.1995 560.1 22.1995H561.3C562 22.1995 562.7 22.1995 563.3 22.2995C563.8 22.3995 564.3 22.4995 564.7 22.7995C565 22.9995 565.3 23.1995 565.5 23.5995C565.7 23.8995 565.8 24.2995 565.8 24.7995C565.8 25.7995 565.5 26.4995 565 26.8995C564.4 27.3995 563.4 27.5995 562.1 27.5995C561.6 27.5995 561.2 27.5995 560.8 27.4995C560.4 27.3995 560 27.3995 559.7 27.2995C559.6 27.2995 559.5 27.2995 559.4 27.1995C559.3 26.8995 559.4 26.4995 559.4 25.9995Z" fill="#661B00"/>
<path d="M593.8 29.6993L593.7 28.6993C593.7 28.3993 593.7 28.0993 593.7 27.7993C593.7 26.4993 593.6 25.0993 593.6 23.5993V18.9993C593.6 18.2993 593.6 17.4993 593.6 16.6993L593.7 14.0993C593.7 13.1993 593.8 12.3993 593.8 11.6993C593.8 10.8993 593.8 10.2993 593.8 9.7993C593.8 9.0993 593.6 8.4993 593.3 8.1993C592.7 7.5993 591.7 7.5993 590.3 7.7993C589.7 7.7993 589.2 7.8993 588.7 7.9993L588.3 8.0993L588.1 8.3993C587.4 9.3993 586.7 10.4993 585.8 11.8993C584.9 13.2993 584 14.5993 583 16.0993C582.1 17.5993 581.1 18.9993 580.2 20.5993C580 20.8993 579.8 21.2993 579.6 21.5993C579.6 21.4993 579.6 21.2993 579.6 21.1993C579.6 20.6993 579.6 19.9993 579.7 19.2993L579.8 16.3993C579.8 15.3993 579.8 14.4993 579.8 13.6993C579.8 12.7993 579.8 11.9993 579.8 11.2993C579.8 10.5993 579.8 9.8993 579.8 9.3993C579.8 9.0993 579.7 7.6993 577.7 7.6993C577.1 7.6993 576.6 7.6993 576.1 7.7993C575.6 7.7993 575 7.9993 574.4 8.0993L573.5 8.2993L573.7 9.1993C573.8 9.4993 573.8 9.7993 573.9 10.1993C574 10.3993 574 10.6993 574 10.8993C574 11.1993 574.1 11.3993 574.1 11.6993C574.1 11.9993 574.1 12.3993 574.1 12.7993C574.1 13.6993 574.1 14.5993 574.1 15.6993V18.8993C574.1 19.9993 574.1 21.0993 574.1 22.0993C574.1 23.1993 574.1 24.1993 574.1 25.1993C574.1 26.0993 574.1 26.9993 574.1 27.6993V30.1993V30.2993C574.1 30.6993 574.2 30.9993 574.4 31.1993L574.5 31.2993C574.7 31.5993 575 31.7993 575.4 31.9993C575.9 32.1993 576.8 32.2993 577.7 32.0993C578.2 32.0993 578.6 31.9993 579.1 31.8993L579.6 31.7993L579.8 31.3993C580 30.9993 580.3 30.3993 580.7 29.6993C581.1 28.9993 581.6 28.0993 582.2 27.0993C582.8 26.0993 583.4 25.0993 584 23.9993C584.7 22.8993 585.4 21.6993 586.1 20.5993C586.8 19.3993 587.5 18.2993 588.3 17.1993C588.4 17.0993 588.4 16.9993 588.5 16.8993C588.5 17.2993 588.5 17.6993 588.5 18.1993C588.5 18.9993 588.5 19.6993 588.5 20.4993V22.4993L588.4 24.7993C588.4 25.4993 588.4 26.1993 588.4 26.8993C588.4 27.4993 588.4 28.0993 588.4 28.6993V29.8993C588.4 30.6993 588.6 31.2993 589.1 31.6993C589.5 31.9993 590.1 32.1993 590.9 32.1993C591.2 32.1993 591.6 32.1993 592.1 32.0993C592.6 32.0993 593.2 31.8993 593.7 31.6993L594.4 31.3993L594.3 30.5993C593.9 30.5993 593.8 30.1993 593.8 29.6993Z" fill="#661B00"/>
<path d="M614.2 9L614 7L612.8 7.4C612.2 7.6 611.2 7.8 610 7.8C608.7 7.8 607.1 7.9 605.3 7.9H603.3L601.3 7.8C600.6 7.8 600 7.8 599.3 7.8C598.6 7.8 598 7.8 597.5 7.8C596.7 7.8 596.1 8 595.7 8.5C595.4 8.9 595.2 9.4 595.2 10.1V10.8L595.4 12.9L596.2 13C596.5 13 597 13.1 597.5 13.1C598 13.1 598.5 13.2 599.1 13.2L601.9 13.3C601.9 14.2 601.9 15.2 601.8 16.3L601.7 25C601.7 26.4 601.7 27.6 601.7 28.7C601.7 29.2 601.7 29.6 601.7 30.1C601.8 30.6 601.8 30.9 601.9 31.2V31.3C602.1 31.7 602.4 32 602.7 32.3L602.8 32.4C603.2 32.6 603.7 32.7 604.3 32.7C604.6 32.7 605 32.7 605.5 32.6C606 32.6 606.5 32.5 607 32.4L607.9 32.2L607.8 31.3C607.8 31 607.7 30.8 607.7 30.5C607.7 30.3 607.6 30.1 607.6 29.8C607.6 29.5 607.6 29.3 607.6 29C607.6 28.6 607.6 28.1 607.6 27.5C607.6 26.8 607.6 26.2 607.6 25.6V22C607.6 20.5 607.6 19 607.6 17.3C607.6 16 607.6 14.6 607.6 13.3H609.7C610.2 13.3 610.6 13.3 611 13.2C611.4 13.2 611.8 13.2 612.1 13.1C612.4 13.1 613.5 13 614 12.2C614.2 11.8 614.4 11.2 614.4 10.5C614.4 10.2 614.4 10 614.4 9.7C614.2 9.5 614.2 9.3 614.2 9Z" fill="#661B00"/>
<path d="M631 18.1992C630.3 17.5992 629.4 17.0992 628.3 16.7992C627.3 16.4992 626.2 16.2992 625.1 16.2992C624.2 16.2992 623.3 16.3992 622.4 16.4992C622.1 16.5992 621.7 16.5992 621.4 16.6992C621.4 15.5992 621.4 14.5992 621.4 13.6992C621.4 12.4992 621.4 11.3992 621.3 10.3992C621.3 10.0992 621.3 9.79922 621.2 9.59922C621.2 9.19922 621.1 8.89922 620.9 8.59922C620.7 8.29922 620.5 7.99922 620.2 7.89922C619.6 7.59922 618.7 7.69922 617.6 7.79922C617 7.89922 616.4 7.99922 615.7 8.19922L614.7 8.49922L615 9.49922C615.1 9.79922 615.2 10.0992 615.2 10.2992V10.3992C615.3 10.5992 615.3 10.7992 615.4 10.9992C615.5 11.1992 615.5 11.4992 615.6 11.8992C615.7 12.1992 615.7 12.4992 615.7 12.9992C615.8 13.4992 615.8 13.9992 615.8 14.4992C615.8 15.0992 615.9 15.5992 615.9 16.2992C615.9 16.8992 615.9 17.4992 615.9 18.1992C615.9 18.7992 615.9 19.3992 615.9 19.8992C615.9 21.5992 615.9 23.2992 615.8 25.1992C615.7 26.9992 615.6 28.7992 615.5 30.4992V31.1992L616.2 31.4992C616.8 31.6992 617.4 31.8992 618.1 31.9992C618.7 32.0992 619.4 32.2992 620.3 32.3992C621.1 32.4992 622.1 32.4992 623.1 32.4992C624.6 32.4992 625.9 32.3992 627.1 32.0992C628.4 31.7992 629.5 31.2992 630.4 30.5992C631.3 29.8992 632.1 28.9992 632.6 27.8992C633.1 26.7992 633.4 25.4992 633.4 23.9992C633.4 22.7992 633.2 21.5992 632.8 20.6992C632.4 19.5992 631.8 18.7992 631 18.1992ZM627.6 24.1992C627.6 24.7992 627.5 25.2992 627.3 25.5992C627.1 25.9992 626.9 26.2992 626.5 26.4992C626.2 26.7992 625.7 26.9992 625.2 27.0992C624.7 27.1992 624 27.2992 623.4 27.2992C622.9 27.2992 622.5 27.2992 622.1 27.1992C621.8 27.1992 621.5 27.0992 621.2 27.0992C621.2 26.5992 621.3 26.0992 621.3 25.5992C621.3 24.8992 621.4 24.0992 621.4 23.2992V21.5992C621.6 21.4992 621.9 21.4992 622.2 21.3992C622.8 21.2992 623.4 21.1992 624.3 21.1992C625.4 21.1992 626.3 21.3992 626.8 21.8992C627.4 22.4992 627.6 23.1992 627.6 24.1992Z" fill="#661B00"/>
<path d="M662 28.3005C662 28.1005 662 27.9005 661.9 27.7005L661.8 26.8005H660.9C660.6 26.8005 660.4 26.8005 660.2 26.8005C660.1 26.8005 660.1 26.8005 660 26.8005C659.9 26.7005 659.7 26.5005 659.6 26.3005C659.5 26.1005 659.3 25.7005 659 25.2005C658.5 24.2005 658 23.3005 657.6 22.6005C657.2 21.8005 656.8 21.2005 656.5 20.7005C656.1 20.2005 655.8 19.7005 655.5 19.3005C655.4 19.2005 655.3 19.1005 655.2 19.0005C655.6 18.3005 656 17.7005 656.4 17.2005C656.9 16.4005 657.5 15.7005 658 15.0005C658.6 14.3005 659.1 13.7005 659.7 13.0005C660.3 12.3005 661 11.7005 661.7 11.0005L662.4 10.3005L661.7 9.60046C661.5 9.40046 661.4 9.30046 661.2 9.10046L660.8 8.70046C660.6 8.50046 660.4 8.30046 660.1 8.10046C659.1 7.40046 658.3 7.40046 657.8 7.50046C657.1 7.70046 656.4 8.20046 655.7 9.00046C655.2 9.60046 654.8 10.2005 654.3 10.9005C653.8 11.6005 653.3 12.3005 652.8 13.1005C652.3 13.9005 651.9 14.6005 651.4 15.4005C651 16.0005 650.7 16.6005 650.3 17.2005C650.1 17.2005 649.8 17.2005 649.5 17.2005C649.3 17.2005 649.1 17.2005 648.8 17.2005C648.8 16.4005 648.8 15.7005 648.8 15.0005C648.8 14.0005 648.8 13.1005 648.9 12.3005L649 9.70046C649 8.80046 648.4 7.80046 646.8 7.80046C646.3 7.80046 645.9 7.80046 645.5 7.90046C645.1 7.90046 644.7 8.00046 644.3 8.10046C643.9 8.20046 643.5 8.30046 643.2 8.40046L642.2 8.70046L642.5 9.70046C642.6 10.0005 642.7 10.3005 642.8 10.5005C642.9 10.7005 642.9 10.9005 643 11.3005C643.1 11.5005 643.1 11.8005 643.2 12.1005C643.2 12.4005 643.3 12.8005 643.3 13.2005C643.3 14.5005 643.3 15.8005 643.3 17.2005C643.3 18.6005 643.3 20.0005 643.3 21.4005L643.2 25.7005C643.2 27.1005 643.2 28.4005 643.2 29.7005C643.2 30.7005 643.4 31.4005 643.8 31.8005C644.2 32.3005 644.9 32.5005 645.9 32.5005C646.2 32.5005 646.6 32.5005 647.1 32.4005C647.6 32.4005 648 32.3005 648.4 32.2005L649.4 32.0005L649.2 31.0005C649.1 30.8005 649.1 30.5005 649.1 30.3005C649.1 30.1005 649 29.9005 649 29.6005C649 29.3005 649 29.0005 649 28.8005V25.4005C649 24.3005 649 23.2005 649 22.0005C649.1 22.0005 649.2 22.0005 649.3 22.0005C649.6 22.0005 649.9 22.1005 650.2 22.1005C650.4 22.1005 650.5 22.2005 650.7 22.2005C650.9 22.3005 651.1 22.4005 651.2 22.5005C651.5 22.7005 651.9 23.2005 652.4 24.3005C652.9 25.3005 653.5 26.5005 654.2 27.8005C654.6 28.6005 655 29.3005 655.3 29.9005C655.6 30.5005 656 31.0005 656.4 31.4005C656.8 31.8005 657.3 32.1005 657.8 32.3005C658.3 32.5005 658.8 32.5005 659.4 32.5005C660.4 32.5005 661.1 32.3005 661.5 31.8005C662 31.3005 662.2 30.6005 662.2 29.7005C662.2 29.4005 662.2 29.2005 662.2 28.9005C662 28.6005 662 28.4005 662 28.3005Z" fill="#661B00"/>
<path d="M681.8 10.9004C680.8 9.80039 679.6 8.90039 678.2 8.30039C676.8 7.70039 675.2 7.40039 673.3 7.40039C671.6 7.40039 670 7.80039 668.5 8.50039C667.1 9.20039 665.9 10.2004 665 11.4004C664.1 12.6004 663.3 14.0004 662.8 15.6004C662.3 17.1004 662 18.8004 662 20.5004C662 22.3004 662.2 24.0004 662.7 25.4004C663.2 26.9004 663.9 28.2004 664.8 29.3004C665.7 30.4004 666.9 31.3004 668.4 31.9004C669.8 32.5004 671.4 32.8004 673.2 32.8004C674.9 32.8004 676.5 32.4004 677.9 31.7004C679.3 31.0004 680.5 30.0004 681.5 28.8004C682.5 27.6004 683.2 26.2004 683.7 24.6004C684.2 23.1004 684.5 21.4004 684.5 19.7004C684.5 17.9004 684.3 16.3004 683.8 14.8004C683.5 13.3004 682.7 12.0004 681.8 10.9004ZM678.8 20.0004C678.8 21.2004 678.6 22.3004 678.3 23.2004C678 24.1004 677.6 25.0004 677.1 25.6004C676.6 26.2004 676 26.7004 675.4 27.1004C674.1 27.8004 672.5 27.7004 671.3 27.1004C670.6 26.8004 670.1 26.3004 669.6 25.7004C669.1 25.1004 668.7 24.3004 668.4 23.4004C668.1 22.5004 668 21.4004 668 20.1004C668 18.9004 668.2 17.8004 668.5 16.8004C668.8 15.9004 669.2 15.0004 669.7 14.4004C670.2 13.8004 670.8 13.3004 671.4 13.0004C672 12.7004 672.7 12.5004 673.3 12.5004C674.1 12.5004 674.8 12.7004 675.5 13.0004C676.2 13.3004 676.7 13.7004 677.2 14.3004C677.7 14.9004 678.1 15.7004 678.4 16.6004C678.6 17.7004 678.8 18.8004 678.8 20.0004Z" fill="#661B00"/>
<path d="M711.2 29.6995C711.2 29.3995 711.1 29.0995 711.1 28.7995C711.1 28.4995 711.1 28.1995 711.1 27.9995C711.1 25.8995 711.1 23.7995 711.1 21.8995C711.1 19.9995 711.2 18.1995 711.2 16.5995C711.2 14.9995 711.3 13.6995 711.3 12.4995C711.3 11.2995 711.4 10.3995 711.4 9.79946C711.4 9.09946 711.2 8.59946 710.9 8.19946C710.3 7.59946 709.2 7.59946 707.9 7.79946C707.4 7.79946 706.8 7.89946 706.4 7.99946L706 8.09946L705.8 8.39946C704.9 9.79946 704 11.2995 703.2 12.7995C702.4 14.0995 701.7 15.4995 700.8 16.9995C700.3 17.8995 699.8 18.8995 699.3 19.7995C698.9 19.1995 698.6 18.5995 698.2 17.8995C697.5 16.5995 696.9 15.3995 696.3 14.1995C695.7 12.9995 695.2 11.8995 694.7 10.8995C694.2 9.89946 693.9 9.09946 693.6 8.59946C693.3 7.99946 692.8 7.79946 692.5 7.69946C691.7 7.39946 690.7 7.59946 689.6 7.69946C688.9 7.79946 688.3 7.89946 687.7 8.09946L686.6 8.29946L686.9 9.39946C687.2 10.3995 687.4 11.3995 687.5 12.2995C687.6 13.1995 687.6 14.2995 687.6 15.2995C687.6 15.9995 687.6 16.7995 687.6 17.5995C687.6 18.3995 687.6 19.2995 687.6 20.1995C687.6 20.9995 687.6 21.8995 687.6 22.6995C687.6 23.5995 687.6 24.3995 687.6 25.1995C687.6 25.3995 687.6 25.7995 687.5 26.1995L687.4 27.4995C687.4 27.8995 687.4 28.2995 687.3 28.6995C687.3 29.0995 687.3 29.3995 687.3 29.6995C687.3 30.5995 687.5 31.2995 688 31.7995C688.6 32.2995 689.7 32.3995 690.9 32.2995C691.3 32.2995 691.7 32.1995 692.1 32.1995L693 31.9995L692.9 30.3995C692.9 30.1995 692.9 29.9995 692.9 29.6995V28.7995C692.9 26.6995 692.9 24.8995 692.9 23.4995V19.3995C693.3 20.2995 693.7 21.0995 694.1 21.7995C695.1 23.4995 695.8 24.6995 696.3 25.2995C696.6 25.6995 697 25.9995 697.4 26.1995C698 26.4995 699 26.4995 699.9 26.3995C700.2 26.3995 700.5 26.2995 700.9 26.2995C701.2 26.1995 701.5 26.1995 701.8 26.0995L702.4 25.9995L702.8 24.6995C702.9 24.4995 703 24.1995 703.1 23.8995C703.2 23.6995 703.3 23.3995 703.5 23.0995C703.7 22.5995 704 21.9995 704.3 21.3995C704.6 20.7995 705 20.0995 705.3 19.4995C705.4 19.2995 705.5 18.9995 705.7 18.7995C705.7 19.3995 705.7 19.9995 705.7 20.5995V24.8995C705.7 25.2995 705.7 25.6995 705.7 26.2995C705.7 26.7995 705.7 27.2995 705.7 27.8995C705.7 28.3995 705.7 28.8995 705.7 29.3995V30.3995C705.7 31.0995 705.9 31.5995 706.2 31.9995L706.3 32.0995C706.7 32.4995 707.3 32.5995 708.3 32.5995C708.7 32.5995 709.1 32.5995 709.5 32.4995C710 32.3995 710.6 32.2995 711.1 32.0995L711.8 31.7995L711.7 30.9995C711.3 30.4995 711.3 30.0995 711.2 29.6995ZM691.8 14.4995V14.3995C691.8 14.3995 691.9 14.3995 691.8 14.4995Z" fill="#661B00"/>
<path d="M739 29.6995C739 29.3995 738.9 29.0995 738.9 28.7995C738.9 28.4995 738.9 28.1995 738.9 27.9995C738.9 25.8995 738.9 23.7995 738.9 21.8995C738.9 19.9995 739 18.1995 739 16.5995C739 14.9995 739.1 13.6995 739.1 12.4995C739.1 11.2995 739.2 10.3995 739.2 9.79946C739.2 9.09946 739 8.59946 738.7 8.19946C738.1 7.59946 737 7.59946 735.7 7.79946C735.2 7.79946 734.6 7.89946 734.2 7.99946L733.8 8.09946L733.6 8.39946C732.7 9.79946 731.8 11.2995 731 12.7995C730.2 14.0995 729.5 15.4995 728.6 16.9995C728.1 17.8995 727.6 18.8995 727.1 19.7995C726.7 19.1995 726.4 18.5995 726 17.8995C725.3 16.5995 724.7 15.3995 724.1 14.1995C723.5 12.9995 723 11.8995 722.5 10.8995C722 9.89946 721.7 9.09946 721.4 8.59946C721.1 7.99946 720.6 7.79946 720.3 7.69946C719.5 7.39946 718.5 7.59946 717.4 7.69946C716.7 7.79946 716.1 7.89946 715.5 8.09946L714.4 8.29946L714.7 9.39946C715 10.3995 715.2 11.3995 715.3 12.2995C715.4 13.2995 715.4 14.2995 715.4 15.2995C715.4 15.9995 715.4 16.7995 715.4 17.5995C715.4 18.3995 715.4 19.2995 715.4 20.1995C715.4 20.9995 715.4 21.8995 715.4 22.6995C715.4 23.5995 715.4 24.3995 715.4 25.1995C715.4 25.3995 715.4 25.7995 715.3 26.1995L715.2 28.6995C715.2 29.0995 715.2 29.3995 715.2 29.6995C715.2 30.5995 715.4 31.2995 715.9 31.7995C716.5 32.2995 717.6 32.3995 718.8 32.2995C719.2 32.2995 719.6 32.1995 720 32.1995L720.9 31.9995L720.8 30.2995C720.8 30.0995 720.8 29.8995 720.8 29.5995V28.6995C720.8 26.5995 720.8 24.7995 720.8 23.3995V19.2995C721.2 20.1995 721.6 20.9995 722 21.6995C723 23.3995 723.7 24.5995 724.2 25.1995C724.5 25.5995 724.9 25.8995 725.3 26.0995C725.9 26.3995 726.9 26.3995 727.8 26.2995C728.1 26.2995 728.4 26.1995 728.8 26.1995C729.1 26.0995 729.4 26.0995 729.7 25.9995L730.3 25.8995L730.7 24.5995C730.8 24.3995 730.9 24.0995 731 23.8995C731.1 23.6995 731.2 23.3995 731.4 23.0995C731.6 22.5995 731.9 21.9995 732.2 21.3995C732.5 20.7995 732.9 20.0995 733.2 19.4995C733.3 19.2995 733.4 18.9995 733.6 18.7995C733.6 19.3995 733.6 19.9995 733.6 20.5995V24.8995C733.6 25.2995 733.6 25.6995 733.6 26.2995C733.6 26.7995 733.6 27.2995 733.6 27.8995C733.6 28.3995 733.6 28.8995 733.6 29.3995V30.3995C733.6 31.0995 733.8 31.5995 734.1 31.9995L734.2 32.0995C734.6 32.4995 735.2 32.5995 736.2 32.5995C736.6 32.5995 737 32.5995 737.4 32.4995C737.9 32.3995 738.5 32.2995 739 32.0995L739.7 31.7995L739.6 30.9995C739.1 30.4995 739 30.0995 739 29.6995ZM719.5 14.4995V14.3995C719.6 14.3995 719.6 14.3995 719.5 14.4995Z" fill="#661B00"/>
<path d="M758.7 28.0008C758.7 27.8008 758.6 27.5008 758.6 27.3008L758.4 26.3008L757.4 26.6008C756.6 26.8008 755.8 27.0008 755.1 27.1008C754 27.3008 752.6 27.2008 750.9 27.3008H748.5C748.5 26.3008 748.5 25.4008 748.5 24.6008V22.3008C748.7 22.3008 748.9 22.3008 749.2 22.4008L752.7 22.6008C754.4 22.7008 755.5 22.7008 756.2 22.0008C756.7 21.5008 756.9 20.9008 756.9 19.9008C756.9 19.7008 756.9 19.4008 756.9 19.2008L756.6 17.1008L755.6 17.3008C755.4 17.3008 755.2 17.4008 755 17.4008C754.8 17.4008 754.5 17.4008 754.3 17.5008H753.4C752.2 17.5008 751.1 17.5008 750.2 17.5008C749.6 17.5008 749.1 17.4008 748.5 17.4008V16.0008C748.5 15.2008 748.5 14.6008 748.5 14.0008C748.5 13.7008 748.5 13.4008 748.5 13.1008C749.3 13.1008 750.1 13.1008 750.9 13.2008C752.1 13.3008 753.2 13.3008 754.2 13.3008C755.4 13.3008 756.2 13.2008 756.8 13.0008C757.2 12.8008 758 12.3008 758 11.0008C758 10.8008 758 10.6008 758 10.2008C758 9.80078 757.9 9.30078 757.8 8.70078L757.6 7.80078L756.7 7.90078C756.1 8.00078 755.5 8.00078 754.9 8.10078C754.3 8.10078 753.6 8.10078 752.8 8.10078H751.2C750.6 8.10078 750 8.10078 749.4 8.10078C748.8 8.10078 748.2 8.10078 747.6 8.10078C746.3 8.00078 745.3 8.10078 744.5 8.10078C744 8.10078 743.5 8.20078 743.1 8.30078L742.1 8.50078L742.4 9.50078C742.5 9.80078 742.6 10.1008 742.6 10.4008C742.7 10.6008 742.7 10.8008 742.8 11.1008C742.9 11.3008 742.9 11.6008 742.9 12.0008C742.9 12.3008 743 12.7008 743 13.2008C743 14.0008 743.1 14.9008 743.1 15.8008C743.1 16.7008 743.1 17.7008 743.1 18.7008C743.1 21.3008 743.1 23.6008 743.1 25.6008C743.1 27.6008 743 29.5008 742.9 31.3008L742.8 32.3008L743.8 32.4008C745.1 32.5008 746.5 32.6008 748 32.6008C749.5 32.7008 750.9 32.7008 752.2 32.7008C753.4 32.7008 754.5 32.7008 755.2 32.7008C756 32.7008 756.7 32.6008 757.2 32.5008C757.9 32.3008 758.4 32.0008 758.6 31.6008C758.9 31.2008 759 30.7008 759 30.1008C759 29.7008 759 29.4008 758.9 29.1008C758.8 28.5008 758.8 28.2008 758.7 28.0008Z" fill="#661B00"/>
<path d="M780.5 29C780.5 28.1 780.5 27.1 780.4 26C780.4 24.9 780.4 23.7 780.4 22.5V19.2C780.4 18.5 780.4 17.7 780.4 16.9L780.5 14.2C780.5 13.3 780.6 12.5 780.6 11.7C780.6 10.9 780.7 10.3 780.7 9.80003C780.7 8.80003 780.3 8.40003 779.9 8.20003C779.3 7.80003 778.3 7.80003 777 7.90003C776.4 7.90003 775.8 8.00003 775.3 8.10003L774.5 8.30003L774.6 9.10003C774.6 9.70003 774.7 10.4 774.7 10.9C774.7 11.4 774.8 11.9 774.8 12.4C774.8 12.9 774.9 13.3 774.9 13.6V17.2C774.3 17.2 773.8 17.1 773.2 17.1C771.6 17 769.9 17 768.3 17.1C767.9 17.1 767.5 17.1 767 17.2C767 16.9 767 16.6 767 16.3C767 15.4 767.1 14.6 767.1 13.7C767.1 12.8 767.2 11.9 767.2 11.2C767.2 10.4 767.2 9.80003 767.2 9.30003C767.2 8.50003 766.7 8.00003 766 7.90003C765 7.70003 764.2 7.80003 763.2 8.00003C762.6 8.10003 762 8.20003 761.4 8.40003L760.4 8.60003L760.7 9.60003C760.8 9.90003 760.9 10.3 761 10.7C761.1 11 761.2 11.4 761.2 11.9C761.3 12.4 761.3 12.9 761.3 13.6C761.3 14.2 761.4 15 761.4 15.8C761.4 16.4 761.4 17.1 761.4 17.9C761.4 18.7 761.4 19.5 761.4 20.3L761.3 22.8C761.3 23.6 761.3 24.4 761.3 25.1C761.3 25.3 761.3 25.6 761.3 26L761.2 28.4C761.2 28.8 761.2 29.2 761.2 29.5C761.2 30.4 761.3 31.1 761.7 31.5C762.1 32 762.7 32.3 763.6 32.3C763.9 32.3 764.3 32.3 764.9 32.2C765.5 32.2 765.9 32.1 766.4 32L767.3 31.8L767.1 30.9C767.1 30.6 767 30.4 767 30.1C767 29.9 766.9 29.7 766.9 29.4C766.9 29.1 766.9 28.9 766.9 28.6L767 23C767 22.7 767 22.4 767 22.2C767.2 22.2 767.5 22.2 767.7 22.2C768.3 22.2 768.9 22.2 769.6 22.2C771.6 22.2 773.4 22.2 774.9 22.3C774.9 22.3 774.9 22.3 774.9 22.4C774.9 22.8 774.9 23.3 774.9 23.9C774.9 24.5 774.9 25.1 774.9 25.7C774.9 26.3 774.9 26.9 774.9 27.6V30.3C774.9 30.8 775.1 31.3 775.4 31.7C776 32.4 777 32.4 777.3 32.4C777.8 32.4 778.3 32.4 778.8 32.3C779.3 32.2 779.8 32.1 780.2 31.9L781 31.6L780.9 30.8C780.6 30.4 780.6 29.8 780.5 29Z" fill="#661B00"/>
<path d="M800.7 12.2996C801 11.8996 801.1 11.2996 801.1 10.5996C801.1 10.2996 801.1 10.0996 801.1 9.79961C801.1 9.49961 801.1 9.29961 801 9.09961L800.8 7.09961L799.6 7.49961C799 7.69961 798 7.89961 796.8 7.89961C795.5 7.89961 793.9 7.99961 792.1 7.99961H790.1L788.1 7.89961C787.4 7.89961 786.8 7.89961 786.1 7.89961C785.4 7.89961 784.9 7.89961 784.3 7.89961C783.5 7.89961 782.9 8.09961 782.5 8.59961C782.2 8.99961 782 9.49961 782 10.1996V10.7996L782.2 12.9996L783 13.0996C783.3 13.0996 783.8 13.1996 784.3 13.1996C784.8 13.1996 785.3 13.2996 785.9 13.2996L788.7 13.3996C788.7 14.2996 788.7 15.2996 788.6 16.3996L788.5 25.0996C788.5 26.4996 788.5 27.6996 788.5 28.7996C788.5 29.2996 788.5 29.6996 788.5 30.1996C788.6 30.6996 788.6 30.9996 788.7 31.2996V31.3996C788.9 31.7996 789.2 32.0996 789.5 32.3996L789.6 32.4996C790 32.6996 790.5 32.7996 791.1 32.7996C791.4 32.7996 791.8 32.7996 792.3 32.6996C792.8 32.6996 793.3 32.5996 793.8 32.4996L794.6 32.2996L794.3 30.5996C794.3 30.3996 794.2 30.1996 794.2 29.8996C794.2 29.5996 794.2 29.3996 794.2 29.0996C794.2 28.6996 794.2 28.1996 794.2 27.5996C794.2 26.8996 794.2 26.2996 794.2 25.6996V21.9996C794.2 20.4996 794.2 18.9996 794.2 17.2996C794.2 15.9996 794.2 14.5996 794.2 13.2996H796.3C796.8 13.2996 797.2 13.2996 797.6 13.1996C798 13.1996 798.4 13.1996 798.7 13.0996C799.2 13.0996 800.2 12.9996 800.7 12.2996Z" fill="#661B00"/>
<path d="M820.3 26.8L819.1 27C818.9 27 818.6 27.1 818.2 26.6C817.9 26.1 817.6 25.5 817.3 24.6C816.9 23.3 816.5 21.9 816.1 20.5C815.7 19.1 815.4 17.8 815.1 16.5C814.8 15.2 814.5 14.1 814.2 13.1C813.9 12 813.7 11.1 813.4 10.5C813.2 10 813.1 9.6 812.9 9.3C812.7 8.9 812.5 8.6 812.2 8.4C811.9 8.1 811.5 8 811.2 7.9C810.6 7.7 809.6 7.7 808.7 7.9C808.3 7.9 807.9 8 807.5 8.1L805.7 8.5L805.6 9C805.4 9.9 805.1 10.9 804.6 12.1C804.2 13.2 803.7 14.4 803.2 15.7C802.7 16.9 802.2 18.2 801.6 19.5C801 20.8 800.5 22 800 23.2C799.5 24.4 799.1 25.5 798.7 26.5C798.3 27.6 798.1 28.5 797.9 29.2C797.7 30.4 797.7 31.1 798 31.6C798.3 32.1 799 32.4 799.8 32.4C800.2 32.4 800.7 32.4 801 32.4C801.4 32.4 801.7 32.3 802 32.3C802.3 32.3 802.5 32.2 802.8 32.2L803.6 32.1V31.3C803.6 30.4 803.7 29.6 803.8 28.8C803.9 28.1 804.1 27.3 804.4 26.5C804.6 26.5 804.9 26.5 805.2 26.5C805.9 26.5 806.6 26.5 807.3 26.5H808.9C809.5 26.5 810 26.5 810.4 26.4C810.9 26.4 811.3 26.4 811.7 26.3C811.8 26.6 811.9 26.8 811.9 27.1L812.4 28.6C812.6 29.3 812.9 30 813.1 30.5C813.4 31 813.7 31.5 814.1 31.8C814.5 32.1 814.9 32.3 815.4 32.4C815.8 32.5 816.3 32.6 816.8 32.6C818 32.6 818.8 32.3 819.3 31.7C819.8 31.2 820 30.5 820 29.7C820 29.5 820 29.3 820 29.1V26.8H820.3ZM809 15C809.2 15.8 809.5 16.6 809.6 17.4C809.9 18.7 810.3 20 810.6 21.5C810.5 21.5 810.4 21.5 810.2 21.5C809.5 21.5 808.9 21.5 808.2 21.5H806.2H806.1C806.3 21.1 806.4 20.7 806.6 20.3C807 19.4 807.4 18.5 807.8 17.6C808.2 16.8 808.6 15.9 809 15C809 15.1 808.9 15.1 809 15Z" fill="#661B00"/>
<path d="M836.3 9.49961C835.5 8.79961 834.5 8.39961 833.3 8.09961C832.2 7.79961 831 7.59961 829.6 7.59961C828.6 7.59961 827.3 7.69961 825.9 7.79961C824.5 7.89961 823 8.19961 821.6 8.49961L820.5 8.69961L820.9 9.79961C821.1 10.3996 821.3 11.0996 821.4 11.9996C821.5 12.8996 821.6 13.8996 821.7 14.8996C821.7 15.6996 821.8 16.3996 821.8 17.0996V19.1996C821.8 21.6996 821.8 23.7996 821.7 25.4996C821.6 27.2996 821.6 28.8996 821.6 30.1996C821.6 31.0996 822 31.5996 822.3 31.8996C822.7 32.1996 823.2 32.2996 823.9 32.2996C824.2 32.2996 824.6 32.2996 825 32.1996C825.3 32.1996 825.6 32.0996 826 32.0996L827.9 31.6996L827.7 30.6996C827.6 30.1996 827.5 29.7996 827.5 29.2996C827.4 28.8996 827.4 28.4996 827.3 28.0996C827.3 27.6996 827.2 27.2996 827.2 26.9996V26.1996C827.2 25.7996 827.2 25.3996 827.2 24.9996C827.2 24.5996 827.2 24.1996 827.2 23.8996C827.4 23.8996 827.6 23.8996 827.8 23.9996H828.7C830 23.9996 831.3 23.8996 832.5 23.5996C833.7 23.2996 834.8 22.7996 835.8 22.0996C836.8 21.3996 837.5 20.4996 838.1 19.3996C838.7 18.2996 838.9 16.9996 838.9 15.4996C838.9 14.0996 838.7 12.8996 838.2 11.8996C837.8 11.0996 837.1 10.1996 836.3 9.49961ZM833.1 15.6996C833.1 16.7996 832.8 17.5996 832.2 18.0996C831.6 18.6996 830.5 18.8996 829 18.8996C828.7 18.8996 828.3 18.8996 828 18.8996C827.7 18.8996 827.5 18.8996 827.3 18.7996C827.3 17.8996 827.3 17.0996 827.3 16.3996C827.3 15.3996 827.3 14.5996 827.2 13.8996C827.2 13.3996 827.1 12.9996 827.1 12.5996C827.3 12.5996 827.5 12.5996 827.7 12.4996C828.8 12.3996 830 12.3996 831 12.5996C831.5 12.6996 831.8 12.8996 832.2 13.1996C832.5 13.3996 832.7 13.6996 832.9 14.0996C833 14.6996 833.1 15.0996 833.1 15.6996Z" fill="#661B00"/>
<path d="M861.2 29.7992L861.1 28.7992C861.1 28.4992 861.1 28.1992 861.1 27.8992C861.1 26.5992 861 25.1992 861 23.6992V19.0992C861 18.3992 861 17.5992 861 16.7992L861.1 14.1992C861.1 13.2992 861.2 12.4992 861.2 11.7992C861.2 10.9992 861.2 10.3992 861.2 9.89922C861.2 9.19922 861 8.59922 860.7 8.29922C860.1 7.69922 859.1 7.69922 857.7 7.89922C857.1 7.89922 856.6 7.99922 856.1 8.09922L855.7 8.19922L855.5 8.49922C854.8 9.49922 854.1 10.5992 853.2 11.9992C852.3 13.3992 851.4 14.6992 850.4 16.1992C849.5 17.6992 848.5 19.0992 847.6 20.6992C847.4 20.9992 847.2 21.3992 847 21.6992C847 21.5992 847 21.3992 847 21.2992C847 20.7992 847 20.0992 847.1 19.3992L847.2 16.4992C847.2 15.4992 847.2 14.5992 847.2 13.6992C847.2 12.7992 847.2 11.9992 847.2 11.2992C847.2 10.5992 847.2 9.89922 847.2 9.39922C847.2 9.09922 847.1 7.69922 845.1 7.69922C844.5 7.69922 844 7.69922 843.5 7.79922C843 7.79922 842.4 7.99922 841.8 8.09922L840.9 8.29922L841.1 9.19922C841.2 9.49922 841.2 9.79922 841.3 10.1992C841.4 10.3992 841.4 10.6992 841.4 10.8992C841.4 11.1992 841.5 11.3992 841.5 11.6992C841.5 11.9992 841.5 12.3992 841.5 12.7992C841.5 13.6992 841.5 14.5992 841.5 15.6992V18.8992C841.5 19.9992 841.5 21.0992 841.5 22.0992C841.5 23.1992 841.5 24.1992 841.5 25.1992C841.5 26.0992 841.5 26.9992 841.5 27.6992V30.1992V30.2992C841.5 30.6992 841.6 30.9992 841.8 31.2992C842 31.5992 842.3 31.7992 842.7 31.9992C843.2 32.1992 844 32.2992 845 32.0992C845.5 32.0992 845.9 31.9992 846.4 31.8992L846.9 31.7992L847.1 31.3992C847.3 30.9992 847.6 30.3992 848 29.6992C848.4 28.9992 848.9 28.0992 849.5 27.0992C850.1 26.0992 850.7 25.0992 851.3 23.9992C852 22.8992 852.7 21.6992 853.4 20.5992C854.1 19.3992 854.8 18.2992 855.6 17.1992C855.7 17.0992 855.7 16.9992 855.8 16.8992C855.8 17.2992 855.8 17.6992 855.8 18.1992C855.8 18.9992 855.8 19.6992 855.8 20.4992V22.4992L855.7 24.7992C855.7 25.4992 855.7 26.1992 855.7 26.8992C855.7 27.4992 855.7 28.0992 855.7 28.6992V29.8992C855.7 30.6992 855.9 31.2992 856.4 31.6992C856.8 31.9992 857.4 32.1992 858.2 32.1992C858.5 32.1992 858.9 32.1992 859.4 32.0992C859.9 32.0992 860.5 31.8992 861 31.6992L861.7 31.3992L861.6 30.5992C861.3 30.5992 861.2 30.1992 861.2 29.7992Z" fill="#661B00"/>
<path d="M870.3 6.4C870.8 6.8 871.3 7.1 872 7.5C872.7 7.8 873.5 7.9 874.5 7.9C875.4 7.9 876.2 7.7 876.9 7.4C877.6 7.1 878.2 6.7 878.7 6.3C879.2 5.8 879.6 5.3 879.9 4.8C880.2 4.2 880.4 3.6 880.4 3C880.4 2.7 880.3 2.4 880.2 2.2C880.1 2 880.1 1.8 880 1.7L878.7 0L878 1.2C877.6 1.9 877.1 2.4 876.5 2.8C876 3.1 875.5 3.3 874.9 3.3C874.2 3.3 873.4 3.1 873.1 1.4L872.8 0L871.5 0.8C871.1 1.1 870.7 1.3 870.3 1.6C870 1.9 869.7 2.1 869.4 2.4C869 2.8 868.8 3.3 868.8 3.7C868.8 4.1 868.9 4.4 869.1 5C869.5 5.5 869.8 5.9 870.3 6.4Z" fill="#661B00"/>
<path d="M884.7 29.8009L884.6 28.8009C884.6 28.5009 884.6 28.2009 884.6 27.9009C884.6 26.6009 884.5 25.2009 884.5 23.7009V19.1009C884.5 18.4009 884.5 17.6009 884.5 16.8009L884.6 14.2009C884.6 13.3009 884.7 12.5009 884.7 11.8009C884.7 11.0009 884.7 10.4009 884.7 9.90086C884.7 9.20086 884.5 8.60087 884.2 8.30087C883.6 7.70087 882.6 7.70087 881.2 7.90087C880.6 7.90087 880.1 8.00087 879.6 8.10087L879.2 8.20086L879 8.50087C878.3 9.50087 877.6 10.6009 876.7 12.0009C875.8 13.3009 874.9 14.7009 873.9 16.2009C873 17.7009 872 19.1009 871.1 20.7009C870.9 21.0009 870.7 21.4009 870.5 21.7009C870.5 21.6009 870.5 21.4009 870.5 21.3009C870.5 20.8009 870.5 20.1009 870.6 19.4009L870.7 16.5009C870.7 15.5009 870.7 14.6009 870.7 13.8009C870.7 12.9009 870.7 12.1009 870.7 11.4009C870.7 10.7009 870.7 10.0009 870.7 9.50087C870.7 9.20087 870.6 7.80087 868.6 7.80087C868 7.80087 867.5 7.80087 867 7.90087C866.5 7.90087 865.9 8.10086 865.3 8.20086L864.4 8.40086L864.6 9.30087C864.7 9.60087 864.7 9.90087 864.8 10.3009C864.9 10.5009 864.9 10.8009 864.9 11.0009C864.9 11.2009 865 11.5009 865 11.8009C865 12.1009 865 12.5009 865 12.9009C865 13.8009 865 14.7009 865 15.8009V19.0009C865 20.1009 865 21.2009 865 22.2009C865 23.3009 865 24.3009 865 25.3009C865 26.2009 865 27.1009 865 27.8009V30.3009V30.4009C865 30.7009 865.1 31.1009 865.3 31.3009L865.4 31.4009C865.6 31.7009 865.9 31.9009 866.3 32.1009C866.8 32.3009 867.7 32.4009 868.6 32.2009C869.1 32.2009 869.5 32.1009 870 32.0009L870.5 31.9009L870.7 31.5009C870.9 31.1009 871.2 30.5009 871.6 29.8009L873.1 27.2009C873.7 26.2009 874.3 25.2009 874.9 24.1009C875.6 23.0009 876.3 21.8009 877 20.7009C877.7 19.5009 878.4 18.4009 879.2 17.3009C879.3 17.2009 879.3 17.1009 879.4 17.0009C879.4 17.4009 879.4 17.8009 879.4 18.3009C879.4 19.1009 879.4 19.8009 879.4 20.6009V22.6009L879.3 24.9009C879.3 25.6009 879.3 26.3009 879.3 27.0009C879.3 27.6009 879.3 28.2009 879.3 28.8009V30.0009C879.3 30.8009 879.5 31.4009 880 31.8009C880.4 32.1009 881 32.3009 881.8 32.3009C882.1 32.3009 882.5 32.3009 883 32.2009C883.5 32.2009 884.1 32.0009 884.6 31.8009L885.3 31.5009L885.2 30.7009C884.7 30.6009 884.7 30.2009 884.7 29.8009Z" fill="#661B00"/>
<path d="M899.2 9.20039C898 8.00039 896.3 7.40039 894.1 7.40039C893.3 7.40039 892.6 7.40039 892 7.50039C891.4 7.60039 890.9 7.60039 890.5 7.70039C890.1 7.80039 889.6 7.80039 889.2 7.90039C888.8 7.90039 888.4 7.90039 887.9 7.90039L887 7.80039L886.9 8.70039C886.9 8.90039 886.9 9.10039 886.8 9.40039V10.1004C886.8 11.0004 886.9 11.6004 887.1 12.0004C887.4 12.6004 888 13.0004 888.8 13.0004C889.2 13.0004 889.6 13.0004 890 12.9004C890.3 12.8004 890.6 12.7004 891 12.7004C891.4 12.6004 891.7 12.5004 892.2 12.5004C892.6 12.4004 893 12.4004 893.5 12.4004C894.2 12.4004 894.7 12.6004 895 12.9004C895.3 13.2004 895.5 13.7004 895.5 14.2004C895.5 14.7004 895.4 15.0004 895.2 15.4004C895 15.8004 894.7 16.3004 894.4 16.6004C894 17.0004 893.7 17.5004 893.3 17.9004C892.9 18.4004 892.5 18.9004 892.1 19.4004C891.7 20.0004 891.3 20.6004 891.1 21.2004C890.8 21.9004 890.7 22.7004 890.7 23.5004C890.7 24.3004 891 24.7004 891.2 25.0004C891.6 25.4004 892.1 25.6004 892.8 25.6004C893.4 25.6004 893.9 25.5004 894.4 25.4004C894.6 25.3004 894.8 25.2004 895 25.2004L895.5 24.9004V24.3004C895.5 23.8004 895.6 23.4004 895.8 23.0004C896 22.5004 896.3 22.1004 896.7 21.6004C897.1 21.1004 897.5 20.7004 897.9 20.2004C898.4 19.7004 898.9 19.1004 899.3 18.6004C899.8 18.0004 900.1 17.3004 900.4 16.6004C900.7 15.8004 900.9 15.0004 900.9 14.0004C901.1 12.0004 900.5 10.4004 899.2 9.20039Z" fill="#661B00"/>
<path d="M893.4 26.1992C892.9 26.1992 892.4 26.2992 892 26.3992C891.3 26.4992 891.1 26.5992 890.9 26.6992L890.6 26.8992L890.5 27.2992C890.5 27.4992 890.4 27.6992 890.4 27.8992C890.3 28.0992 890.3 28.3992 890.3 28.6992C890.3 28.9992 890.3 29.1992 890.3 29.5992C890.3 30.0992 890.4 30.5992 890.6 30.9992C890.8 31.3992 891.1 31.6992 891.4 31.9992C891.7 32.1992 892.1 32.3992 892.4 32.4992C892.7 32.5992 893.1 32.5992 893.4 32.5992C893.9 32.5992 894.3 32.4992 894.8 32.3992C895.2 32.2992 895.6 32.1992 895.9 31.9992C896.2 31.6992 896.3 31.2992 896.4 30.9992C896.5 30.5992 896.6 30.0992 896.6 29.5992C896.6 28.4992 896.4 27.6992 895.8 27.1992C895.1 26.4992 894.4 26.1992 893.4 26.1992Z" fill="#661B00"/>
</svg>
