<svg width="290" height="223" viewBox="0 0 290 223" fill="none" xmlns="http://www.w3.org/2000/svg">
<g clip-path="url(#clip0_249_538)">
<path d="M39.6945 51.7984C46.4734 21.9966 81.4691 8.735 108.511 4.0127C137.756 -2.42234 170.06 12.185 182.712 39.7113C189.1 52.9973 193.089 66.9195 195.732 81.2577C198.399 95.5469 200.455 110.301 196.123 124.688C193.186 134.255 186.187 143.064 177.108 147.468C167.931 151.75 159.072 154.466 149.038 156.129C130.512 158.845 122.877 143.455 116.465 129.337C110.445 116.614 102.197 104.967 94.0725 93.6629C83.2556 78.6396 69.6734 65.427 52.9586 57.2303C49.3611 55.9335 43.5122 53.5112 39.6945 51.8229V51.7984ZM42.2151 50.5016C66.2717 54.0739 85.2624 70.9323 99.6033 89.5278C108.193 100.661 114.336 114.779 120.674 127.257C124.639 135.16 128.261 144.483 136.116 148.789C144.046 152.949 153.247 149.401 161.421 146.611C173.731 142.158 188.586 137.534 192.281 123.465C195.022 114.705 193.97 105.212 192.599 96.2076C190.984 87.0321 189.222 77.6854 186.75 68.7302C182.272 50.8931 172.874 34.5486 159.977 21.5317C142.553 2.69144 118.251 4.47759 95.6632 11.6467C76.1341 17.4945 55.4058 26.8412 45.1763 45.3634C44.0506 47.4431 43.5611 48.691 42.2151 50.5261V50.5016Z" fill="#FFC079"/>
<path d="M155.156 10.1052C175.273 -3.96376 198.718 -2.81378 219.054 10.3255C222.994 13.1637 225.711 17.3722 227.473 21.6541C233.493 34.3529 234.472 47.4187 235.353 60.9005C237.604 69.6355 236.797 78.5908 235.231 87.3747C234.056 93.9566 232.563 100.416 230.826 106.876C229.308 113.8 226.567 120.504 220.669 125.129C213.23 131.295 200.993 133.203 193.603 126.181C192.404 125.031 193.945 123.098 195.316 123.93C202.193 127.771 210.929 125.153 216.338 120.137C219.103 117.568 221.11 114.24 223.337 110.864C227.962 103.744 228.966 94.9597 229.749 86.6651C230.507 80.3035 229.896 73.9419 230.581 67.5802C231.902 61.2186 230.948 54.7101 229.357 48.4953C227.277 40.2496 225.735 31.7348 221.477 24.786C219.226 21.4094 216.803 18.4488 214.331 15.4148C206.916 4.91807 192.502 3.10744 180.632 5.08934C172.385 6.19039 164.383 9.05313 156.576 12.552C155.058 13.2861 153.761 11.0106 155.181 10.0808L155.156 10.1052Z" fill="#FFC079"/>
<path d="M224.12 19.8434C237.188 18.1551 246.708 21.2136 254.368 32.5422C257.941 37.1911 262.322 41.9623 261.808 48.3974C262.101 54.2697 262.346 60.0196 261 65.5494C260.339 68.2898 259.581 70.9812 259.311 73.7461C260.364 83.8024 255.127 93.1736 250.722 101.909C247.026 111.818 235.426 118.498 225.025 116.124C224.267 115.929 223.777 115.146 223.973 114.387C224.12 113.8 224.609 113.384 225.172 113.311C233.052 112.161 238.412 107.218 243.845 102.055C250.036 96.9171 251.211 88.28 252.484 80.7439C252.777 78.028 254.417 75.5812 255.249 73.0365C255.91 70.394 256.008 67.6781 255.934 64.9866C255.836 59.6526 256.424 54.3675 255.078 49.3761C252.924 44.6293 253.658 39.2219 251.089 34.7199C248.421 30.2422 243.918 27.2816 239.366 25.6668C234.79 23.9295 229.406 23.7093 223.924 22.6572C222.333 22.4125 222.48 19.8923 224.071 19.8434H224.12Z" fill="#FFC079"/>
<path d="M238.045 112.748C243.673 112.626 248.788 115.978 252.875 119.379C257.843 123.342 261.514 128.603 267.73 129.288C271.034 129.582 273.628 126.915 276.149 125.422C277.837 124.346 279.795 123.171 280.97 121.312C282.242 119.574 283.074 117.421 283.711 115.219C284.763 110.839 286.403 105.775 284.885 100.881C282.462 96.2321 282.707 91.2896 281.19 86.4939C279.942 81.7226 278.302 76.878 274.998 73.061C271.572 69.3908 269.272 65.1334 266.164 61.243C265.356 60.4111 260.559 56.0803 258.308 54.441C257.647 53.9761 257.5 53.0218 258.014 52.3857C258.381 51.9208 258.944 51.7495 259.483 51.8718C263.423 52.875 266.824 54.7591 270.202 57.0101C274.142 60.8026 278.106 64.9132 279.893 70.1983C281.728 75.2631 284.445 79.7652 286.427 84.7566C288.189 89.6991 290.71 94.8129 289.413 100.367C289.095 105.628 290.832 111.011 289.413 116.638C288.825 119.428 287.749 122.095 286.231 124.688C277.739 141.351 259.948 132.469 249.718 123.098C245.9 119.795 242.278 116.761 237.751 115.562C236.16 115.17 236.405 112.772 238.045 112.748Z" fill="#FFC079"/>
<path d="M44.1485 56.3739C37.5654 61.1207 31.4228 66.2834 26.0388 72.1557C21.6338 77.4897 13.827 83.9003 15.0996 91.314C16.4456 96.9906 22.784 98.948 26.9688 102.349C34.8245 108.98 43.6835 113.996 52.0042 120.162C56.9477 124.028 61.8911 127.796 67.7156 130.267C73.2464 133.35 77.6025 138.097 82.1055 142.476C84.6996 145.143 88.0278 149.083 90.4262 151.97C94.4641 157.818 101.268 161.781 108.291 159.261C114.776 157.206 119.206 150.33 121.8 142.819C122.045 142.085 122.852 141.669 123.611 141.938C124.247 142.158 124.614 142.77 124.565 143.382C124.247 147.639 123.195 151.97 120.992 155.983C114.85 167.434 99.3097 171.446 90.9401 159.848C84.6017 151.921 77.1376 144.801 68.7924 139.026C65.4152 136.726 62.8211 133.448 59.7376 130.83C56.4827 128.334 52.8852 126.376 49.2388 124.468C41.9949 120.602 35.1916 115.953 27.9722 111.794C15.7114 106.166 5.40844 91.9013 14.8059 79.0312C17.0819 75.4344 19.5536 72.0334 22.4414 68.9015C28.2414 62.76 35.0692 57.4995 42.7046 53.9761C44.2709 53.291 45.4945 55.4197 44.1241 56.4229L44.1485 56.3739Z" fill="#FFC079"/>
<path d="M16.4699 101.566C9.73997 110.472 3.76866 120.994 4.01339 132.371C4.45389 137.754 8.49187 141.008 11.8691 144.556C16.1763 147.908 22.1965 148.324 27.4581 149.988C30.3459 150.844 33.2336 151.774 36.1948 152.239C48.4066 151.799 59.0522 160.313 70.6033 163.078C75.6691 164.424 80.0252 167.556 85.0176 165.574C87.2201 164.742 89.08 163.152 89.594 160.778C89.7898 160.02 90.5484 159.555 91.3071 159.726C91.8699 159.873 92.286 160.313 92.3838 160.852C92.702 162.638 92.3104 164.669 91.356 166.284C88.5661 171.202 82.2767 173.208 76.9661 172.156C70.1872 171.373 66.2471 166.553 60.2758 164.424C52.102 161.047 43.0471 160.485 35.2649 156.227C26.0632 154.147 17.4244 155.273 8.27161 150.306C5.11465 148.911 2.05558 146.171 0.929842 142.599C-1.95792 127.135 1.3214 109.249 14.4876 99.5352C15.7847 98.5321 17.4978 100.343 16.4455 101.566H16.4699Z" fill="#FFC079"/>
<path d="M73.9562 169.073C69.9182 180.206 68.4254 190.727 67.887 202.741C67.5199 205.921 67.887 209.274 66.9325 212.454C65.0237 219.33 56.6785 223.979 49.6794 222.853C42.5823 221.874 38.6912 216.198 34.2861 211.598C32.0347 209.567 29.2937 207.781 27.8743 205.016C24.13 198.483 21.5849 191.559 17.9629 185.001C15.4178 181.184 13.1174 177.196 12.3098 172.572C10.9148 166.553 10.768 159.873 13.1663 154.05C13.46 153.316 14.3165 152.973 15.0507 153.267C15.6136 153.511 15.9562 154.05 15.9317 154.637C15.638 164.718 20.0186 173.428 22.3925 182.922C26.0633 192.342 33.3072 199.804 37.4186 208.931C41.4076 213.898 50.8051 220.113 56.4338 215.023C59.2726 211.206 63.2617 207.512 64.0203 202.3C64.9013 196.77 63.7756 190.727 64.8524 184.634C65.8557 178.615 68.0583 172.792 71.4844 167.801C71.9249 167.14 72.806 166.993 73.4667 167.433C74.0051 167.801 74.2009 168.486 74.0051 169.097L73.9562 169.073Z" fill="#FFC079"/>
<path d="M139.347 15.1701C161.201 21.1157 176.154 51.1133 182.003 71.3727C186.53 88.6959 192.061 108.784 182.37 125.373C179.115 130.707 174.147 135.234 168.078 137.02C167.735 137.118 167.392 136.922 167.27 136.58C167.172 136.261 167.344 135.943 167.637 135.797C173.021 133.423 177.279 129.068 180.045 124.003C191.963 104.013 178.185 57.3771 165.728 39.0262C159.072 29.6061 150.849 19.0849 139.078 16.4179C138.27 16.2956 138.49 14.9498 139.322 15.1701H139.347Z" fill="#FFC079"/>
<path d="M168.763 68.7791C175.517 76.6578 177.377 87.2279 178.699 97.1618C180.265 106.704 179.8 120.602 169.032 124.688C168.347 124.933 167.833 123.954 168.445 123.538C176.643 117.421 177.01 106.851 176.423 97.3576C176.203 92.3906 175.713 87.4236 174.489 82.6279C173.241 77.8567 171.161 73.2323 167.808 69.6355C167.221 69.0483 168.224 68.1185 168.763 68.7791Z" fill="#FFC079"/>
<path d="M106.994 17.4945C90.0591 20.8955 75.9629 30.8295 61.108 39.0018C60.4962 39.3443 59.8354 38.4635 60.3494 37.9741C72.8548 25.8625 90.4017 20.9445 106.7 16.2467C107.508 16.0264 107.851 17.3232 106.994 17.4945Z" fill="#FFC079"/>
<path d="M92.4819 31.5635C83.7697 34.2305 77.26 41.0325 68.6701 43.8708C65.5131 43.4793 72.4389 38.9283 73.3199 38.5124C79.2667 35.2092 85.8743 33.2273 92.0169 30.389C92.8001 30.0465 93.314 31.2943 92.4819 31.588V31.5635Z" fill="#FFC079"/>
<path d="M62.1114 70.345C76.9174 79.129 88.5663 92.2682 97.9148 106.557C102.614 113.751 106.676 121.238 110.298 129.068C114.165 136.531 115.07 148.887 106.089 153.193C105.379 153.487 104.841 152.484 105.477 152.068C112.525 146.905 110.885 137.314 107.557 130.267C100.509 115.023 92.5553 99.7554 81.0777 87.3257C75.3266 81.1354 68.7925 75.6301 61.4752 71.4461C60.741 71.0791 61.3773 69.8801 62.1114 70.345Z" fill="#FFC079"/>
<path d="M71.7047 86.5428C78.2144 91.7055 83.06 98.3608 87.93 104.967C92.5798 111.696 96.8625 118.718 99.3832 126.572C99.6034 127.233 98.649 127.722 98.2574 127.159C91.0136 117.348 86.9511 105.677 79.3891 96.0853C76.9173 92.9289 74.2498 89.8215 70.9705 87.5704C70.2608 87.1056 71.0439 86.0045 71.7292 86.5428H71.7047Z" fill="#FFC079"/>
<path d="M77.6515 158.772C71.3131 155.983 64.73 153.829 58.049 152.019C48.0152 149.229 37.2228 148.813 27.5562 144.409C17.865 140.225 9.10384 128.432 14.0473 117.764C14.3899 117.079 15.4422 117.495 15.2465 118.204C12.1874 132.322 25.9165 142.599 38.2507 145.535C51.6127 148.96 65.3908 152.043 78.141 157.573C78.8996 157.867 78.4346 159.114 77.6515 158.747V158.772Z" fill="#FFC079"/>
<path d="M57.07 144.287C46.9628 141.131 35.216 140.494 26.9932 132.836C24.1544 130.267 22.3434 125.349 24.7662 121.899C25.1578 121.312 26.1122 121.752 25.9164 122.437C24.8396 135.234 47.6481 140.715 57.3882 143.063C58.2202 143.235 57.9021 144.556 57.07 144.311V144.287Z" fill="#FFC079"/>
<path d="M25.6473 164.962C29.0979 181.527 35.1671 200 50.0709 209.567C50.7072 209.91 50.2911 210.937 49.6059 210.766C32.2059 206.068 28.2903 180.255 24.3747 165.231C24.2034 164.424 25.5004 164.155 25.6228 164.987L25.6473 164.962Z" fill="#FFC079"/>
<path d="M37.2963 174.26C37.6634 183.778 43.5858 191.339 46.5714 200.074C46.7672 200.685 45.9841 201.199 45.4946 200.783C41.7748 197.602 40.0372 192.88 38.7402 188.329C37.541 183.705 36.709 179.08 36.0237 174.431C35.9014 173.599 37.2474 173.428 37.2963 174.285V174.26Z" fill="#FFC079"/>
<path d="M244.114 35.0379C247.711 38.39 248.813 43.2347 249.522 47.6634C251.651 61.0717 251.578 75.8748 244.603 87.9619C244.236 88.5736 243.233 88.1821 243.429 87.4726C246.61 74.4557 250.012 61.3164 248.201 47.8591C247.662 43.5038 246.61 38.8305 243.257 36.0167C242.597 35.5028 243.478 34.4507 244.089 35.0624L244.114 35.0379Z" fill="#FFC079"/>
<path d="M242.964 43.6751C243.918 50.4527 247.589 57.6707 244.873 64.4728C244.628 65.0111 243.771 64.9621 243.6 64.3994C241.74 57.6952 244.138 50.6484 241.74 43.9932C241.495 43.1613 242.817 42.8187 242.988 43.6751H242.964Z" fill="#FFC079"/>
<path d="M177.769 20.8955C199.892 41.9134 205.398 74.6269 204.273 103.915C204.248 104.649 203.073 104.747 203 103.964C199.598 75.4833 200.161 42.4272 176.912 21.8253C176.276 21.3115 177.157 20.2838 177.769 20.871V20.8955Z" fill="#FFC079"/>
<path d="M200.846 41.7666C205.521 54.5144 211.59 67.9962 209.779 81.9184C209.706 82.2854 209.387 82.5056 209.02 82.4567C208.751 82.4077 208.555 82.212 208.506 81.9673C206.916 75.2631 206.622 68.5834 205.447 61.8303C204.395 55.1261 202.511 48.4953 199.696 42.2804C199.329 41.5219 200.577 40.9836 200.871 41.7666H200.846Z" fill="#FFC079"/>
<path d="M272.918 80.4747C275.243 87.9864 277.543 95.3757 278.963 103.156C279.575 107.071 279.599 111.353 277.862 115.317C276.246 119.158 272.673 122.657 268.366 122.951C267.657 123.024 267.412 121.972 268.048 121.703C282.511 113.58 275.561 93.4672 271.694 80.8907C271.401 80.1077 272.649 79.6428 272.894 80.4747H272.918Z" fill="#FFC079"/>
<path d="M131.32 28.3827C132.666 28.2604 133.743 28.6274 134.77 29.0923L132.69 33.105C131.687 32.5912 130.757 31.9305 130.072 30.7806C128.873 27.5019 133.278 28.0157 134.893 29.1657C137.487 30.5848 135.358 34.5486 132.764 33.1539C131.173 32.4688 128.138 29.2391 131.344 28.4072L131.32 28.3827Z" fill="#FFC079"/>
<path d="M123.709 36.7018C125.079 39.7602 120.087 42.8921 119.255 39.0751C119.157 38.2188 119.304 37.3135 119.671 36.8975C120.405 35.8698 122.999 34.8667 123.709 36.6773V36.7018Z" fill="#FFC079"/>
<path d="M133.033 42.0358C134.159 43.7241 134.428 44.9475 133.669 46.8559C133.302 47.8102 132.201 48.2995 131.271 47.8347C129.191 46.5379 128.995 43.6996 130.463 41.84C131.149 41.0081 132.47 41.1305 133.033 42.0358Z" fill="#FFC079"/>
<path d="M143.874 37.1177C146.028 36.188 148.622 37.3135 149.258 39.6135C149.503 40.6411 148.72 41.6688 147.667 41.6932C145.636 41.7911 144.682 41.2283 143.434 39.6379C142.724 38.855 142.92 37.5582 143.899 37.0933L143.874 37.1177Z" fill="#FFC079"/>
<path d="M43.7326 72.1312C46.4001 71.6663 48.8228 72.3025 50.7562 74.2354C52.6161 77.3429 47.9174 77.4407 46.1553 76.6088C44.4912 76.2173 40.6001 73.4769 43.7326 72.1067V72.1312Z" fill="#FFC079"/>
<path d="M53.6929 86.2736C54.3047 89.0385 49.973 92.2438 48.7249 88.7938C47.9173 86.0534 52.7384 82.6769 53.6929 86.2736Z" fill="#FFC079"/>
<path d="M36.5375 80.8417C39.2295 79.3492 42.0928 83.1907 39.2295 84.83C36.7578 86.2247 33.8456 82.3588 36.5375 80.8417Z" fill="#FFC079"/>
<path d="M26.4059 85.197C29.465 85.613 29.465 90.3842 26.1857 89.9927C23.3713 89.6257 23.3469 84.8055 26.4059 85.197Z" fill="#FFC079"/>
<path d="M40.9426 93.6629C41.6033 96.6235 37.0514 98.8746 36.1949 95.4491C35.5831 92.7087 40.1595 90.4576 40.9426 93.6629Z" fill="#FFC079"/>
<path d="M201.801 12.7967C204.419 12.0626 207.283 13.1392 208.604 15.5615C208.996 16.369 208.678 17.3477 207.87 17.7392C205.765 18.8158 197.983 14.9498 201.801 12.7967Z" fill="#FFC079"/>
<path d="M212.642 24.6636C213.743 26.4008 212.789 28.7987 210.709 29.1167C209.779 29.2391 208.922 28.6029 208.727 27.6976C208.531 26.9391 208.433 25.9115 208.727 25.52C209.314 24.4923 211.639 23.0977 212.618 24.6636H212.642Z" fill="#FFC079"/>
<path d="M194.949 20.4306C197.543 19.036 201.36 22.5593 198.35 24.5168C195.903 25.9604 191.938 22.1923 194.949 20.4306Z" fill="#FFC079"/>
<path d="M191.204 13.1882C191.571 15.1945 190.103 17.0541 188.023 16.9807C187.019 16.9073 186.261 16.002 186.334 14.9988C186.457 13.1637 187.142 12.4297 188.928 11.9648C189.907 11.6467 190.984 12.1605 191.204 13.1882Z" fill="#FFC079"/>
<path d="M140.987 22.5104C144.192 22.5104 145.098 27.9423 141.378 27.4774C138.588 27.1593 138.148 22.5349 140.987 22.5104Z" fill="#FFC079"/>
<path d="M124.321 22.7551C125.667 25.8625 120.846 27.5263 120.209 24.1742C119.377 21.703 123.415 20.6264 124.321 22.7551Z" fill="#FFC079"/>
</g>
<defs>
<clipPath id="clip0_249_538">
<rect width="290" height="223" fill="white"/>
</clipPath>
</defs>
</svg>
