<svg width="123" height="123" viewBox="0 0 123 123" fill="none" xmlns="http://www.w3.org/2000/svg">
<path d="M121.75 75.2145C108.229 93.015 97.0401 110.685 73.3097 113.387C58.0053 115.112 42.9741 119.181 27.7713 121.941C19.1402 123.5 13.5764 120.711 11.6637 111.127C8.20928 93.8178 2.89776 76.8192 0.431148 59.3842C-0.544284 52.541 3.99137 44.8833 6.30053 37.6774C6.7843 36.1341 8.83518 35.1462 9.61629 33.6045C29.3572 -4.7711 67.0593 4.67287 99.3604 0.590257C102.859 0.157289 109.738 6.35452 110.834 10.5464C115.603 28.9096 118.931 47.6456 122.438 66.323C123.051 69.5847 121.927 73.1581 121.75 75.2145ZM76.5832 37.3084C51.7874 41.3483 28.5272 45.1231 3.11225 49.2667C8.42401 70.7961 12.9982 90.0739 18.1559 109.2C18.8562 111.761 22.9634 115.6 24.8562 115.278C46.7256 111.365 68.4319 106.773 90.566 102.278C85.595 79.2525 81.3447 59.4532 76.5712 37.3321L76.5832 37.3084ZM101.963 5.57517C84.3495 7.62046 69.1313 11.0582 54.0041 10.7266C31.9197 10.2385 24.2713 26.394 11.4304 41.5581C30.9047 38.4883 47.3024 34.6646 63.8877 33.6483C82.2577 32.5228 91.4633 21.1206 101.963 5.57517ZM94.6601 92.6086C96.0251 93.1511 97.3663 93.6816 98.7433 94.2004C104.438 85.5501 114.783 76.9011 114.828 68.2202C114.883 50.6918 109.349 33.1331 105.67 13.2655C99.57 19.7731 95.2683 23.6147 91.9143 28.175C88.788 32.4035 84.0383 37.7768 84.611 42.0015C86.9729 58.996 91.1557 75.7506 94.6601 92.6086Z" fill="#FFC079"/>
</svg>
