<svg width="149" height="149" viewBox="0 0 149 149" fill="none" xmlns="http://www.w3.org/2000/svg">
<path d="M75.0202 1.00345C93.7577 4.48913 113.885 9.49609 127.387 23.9557C147.219 45.0766 154.88 79.121 141.644 105.485C132.149 122.721 115.956 135.601 98.0464 143.296C82.2076 149.972 64.1505 150.563 47.8384 145.186C36.2883 141.272 24.827 135.556 17.1664 125.734C-0.313966 102.945 -4.29216 69.107 4.53676 42.1078C6.19311 37.4406 8.17481 33.0687 10.9995 28.7116C14.0312 24.7238 17.4178 21.2381 21.0707 17.974C35.4602 4.94699 55.6173 -2.89578 75.0202 1.00345ZM74.6949 2.76106C55.8244 -0.783695 37.1757 8.09296 23.8362 21.0018C16.8558 27.338 11.6798 34.6638 8.17481 43.4814C0.928295 60.8803 1.68252 80.8343 7.46495 98.5581C12.8481 116.518 25.0784 132.071 42.056 140.224C59.2258 148.081 79.4125 146.959 96.5971 139.781C113.93 132.647 127.935 118.955 137.814 103.299C153.504 79.0619 143.995 45.7412 125.169 26.053C111.933 12.3467 93.1365 5.98088 74.6949 2.74629V2.76106Z" fill="#FFC079"/>
<path d="M69.8887 53.969C74.9317 52.9499 80.3444 54.9733 83.9529 58.651C89.3508 64.4113 90.0902 72.8448 88.8036 80.3479C86.6592 87.6589 77.1204 92.5625 69.9035 92.1194C65.9993 91.7797 62.3464 90.3913 58.7971 88.8553C50.8555 83.8631 49.2435 72.6528 52.2457 64.3374C55.0703 57.0411 64.0176 52.5954 71.4711 54.1905C72.4916 54.4121 72.3584 55.9334 71.3232 55.9777C63.9584 56.5242 58.3682 61.3687 54.9077 67.4391C53.0738 70.7918 53.6358 74.9864 55.1739 78.3392C56.6379 81.8839 59.5661 84.3062 62.169 86.9648C64.2098 88.8258 67.2267 89.195 69.8739 88.9144C74.0592 88.427 78.4514 87.0091 81.3057 83.804C82.6219 82.1646 83.6127 80.466 84.6923 78.7084C91.2881 68.8865 80.936 55.5937 70.0662 55.7561C68.9866 55.7857 68.8387 54.1758 69.8739 53.969H69.8887Z" fill="#FFC079"/>
<path d="M48.9476 81.3962C50.6631 86.861 55.1146 90.2137 59.8322 93.0052C60.1723 93.212 60.0097 93.788 59.6104 93.788C56.5195 93.8471 53.9462 91.6169 52.2307 89.2832C50.5152 86.8905 49.3321 84.291 48.1934 81.6916C47.9716 81.2042 48.7702 80.8645 48.9476 81.3962Z" fill="#FFC079"/>
<path d="M85.8454 54.8262C89.8827 58.046 94.5264 63.2302 92.9588 68.8132C92.8848 69.0348 92.6334 69.1529 92.4116 69.0643C92.2785 69.02 92.1898 68.9166 92.1454 68.7984C90.8144 63.9244 90.1045 58.371 85.3869 55.4908C84.9285 55.2102 85.4165 54.4865 85.8602 54.8262H85.8454Z" fill="#FFC079"/>
<path d="M96.5969 27.3696C98.8005 29.2306 100.131 31.5347 100.339 34.3557C100.398 35.6407 98.9188 36.5269 97.8096 35.9065C95.2512 34.3557 93.861 31.4313 94.0533 28.4183C94.1568 27.2219 95.68 26.6016 96.5821 27.3696H96.5969Z" fill="#FFC079"/>
<path d="M79.1905 34.488C77.8447 37.5749 74.9609 39.8347 71.6334 40.2187C70.7165 40.2778 69.9179 39.5688 69.8735 38.6531C69.8735 37.4863 70.9383 36.6001 71.6334 35.8764C72.92 34.7096 78.1996 30.5297 79.2496 33.5427C79.3384 33.8677 79.3088 34.2074 79.2053 34.5028L79.1905 34.488Z" fill="#FFC079"/>
<path d="M46.1673 39.3461C45.842 42.3887 43.8307 44.9291 41.2427 46.4504C40.6659 46.8344 40.1631 46.3175 39.749 45.9335C38.4771 44.6781 39.6307 42.8466 41.2427 42.8614L39.2905 43.5999C39.9708 41.1185 41.6124 38.9769 43.9194 37.7953C44.9842 37.2784 46.2709 38.1941 46.1673 39.3461Z" fill="#FFC079"/>
<path d="M115.615 52.6699C115.157 55.6534 112.155 58.0166 109.167 57.6178C108.236 57.4406 107.615 56.5544 107.792 55.6239C108.132 53.5709 115.512 48.2685 115.615 52.6699Z" fill="#FFC079"/>
<path d="M103.666 95.5755C105.662 94.8075 107.57 95.0881 109.374 95.93C112.613 97.4513 111.77 100.523 108.206 100.213C106.209 100.317 100.264 97.9239 103.666 95.5755Z" fill="#FFC079"/>
<path d="M99.1407 116.164C99.9393 118.232 100.989 128.393 97.1738 127.286C96.7893 127.153 96.4935 126.887 96.3012 126.562C94.6005 123.239 94.7188 119.207 96.4343 115.869C97.0259 114.731 98.8301 114.953 99.1555 116.164H99.1407Z" fill="#FFC079"/>
<path d="M64.8454 125.057C66.975 127.523 68.3208 130.049 68.8828 133.195C69.0306 134.125 68.3651 134.982 67.4334 135.086C66.1468 135.159 65.1856 133.948 64.4461 133.121C63.0116 131.688 60.2609 124.54 63.9285 124.569C64.2982 124.629 64.6088 124.806 64.8454 125.057Z" fill="#FFC079"/>
<path d="M55.1732 115.398C52.807 116.845 50.0119 117.008 47.4091 116.358C45.9302 116.018 43.3422 114.792 44.614 112.916C44.8506 112.591 45.1908 112.385 45.5605 112.296C47.1429 111.868 48.5922 111.883 50.1598 111.942C51.6683 112.045 53.162 112.163 54.8183 112.71C56.0014 113.049 56.2084 114.777 55.1584 115.398H55.1732Z" fill="#FFC079"/>
<path d="M20.6118 46.8202C22.6823 47.6473 24.0428 48.9175 25.2851 50.5865C25.6696 51.1477 26.0245 51.7533 26.2612 52.5065C26.6753 53.7177 25.5069 54.9879 24.2647 54.6925C21.3661 53.8949 19.2217 51.517 18.5118 48.563C18.2456 47.3962 19.5175 46.3475 20.6118 46.8202Z" fill="#FFC079"/>
<path d="M39.4085 64.4423C38.3437 66.4658 36.7761 67.7064 34.8387 68.6222C31.319 70.3502 29.4408 67.6326 32.3099 64.9592C33.5669 63.5856 38.8465 60.292 39.5564 63.6004C39.586 63.8958 39.5268 64.1764 39.4085 64.4275V64.4423Z" fill="#FFC079"/>
<path d="M16.6632 76.2119C19.0147 76.2562 20.9224 77.5117 21.6914 79.6533C22.0464 80.8053 21.159 82.0312 19.9464 82.0755C17.6541 82.0312 15.8646 80.6281 15.066 78.4274C14.7111 77.364 15.5393 76.2267 16.6632 76.2119Z" fill="#FFC079"/>
<path d="M36.1256 27.25C35.6819 29.2587 34.5727 30.6175 33.0199 31.74C32.5171 32.0797 31.9551 32.3751 31.2453 32.5376C30.0326 32.833 28.8495 31.6957 29.0861 30.4845C29.7072 27.9441 31.5854 26.1275 34.1439 25.3742C35.2678 25.0788 36.3622 26.1422 36.1256 27.2647V27.25Z" fill="#FFC079"/>
<path d="M133.14 57.6913C132.342 59.7 131.129 60.9702 129.502 62.1223C128.97 62.4768 128.364 62.8017 127.624 62.9937C126.411 63.3629 125.184 62.1961 125.465 60.9702C126.219 58.1787 128.556 56.1405 131.425 55.5645C132.593 55.3429 133.599 56.6131 133.14 57.6913Z" fill="#FFC079"/>
<path d="M124.533 89.5639C126.574 89.7707 128.053 90.7012 129.325 92.0896C129.724 92.5474 130.079 93.0644 130.316 93.7438C130.759 94.9106 129.768 96.2251 128.526 96.1217C125.938 95.8116 123.927 94.1721 122.892 91.7351C122.463 90.6569 123.394 89.4458 124.533 89.5492V89.5639Z" fill="#FFC079"/>
<path d="M113.279 37.0576C113.634 40.0854 108.916 43.4677 107.718 39.6571C107.555 37.5155 108.99 35.8317 111.149 35.3443C112.229 35.1376 113.249 35.9647 113.279 37.0576Z" fill="#FFC079"/>
<path d="M113.988 111.881C116.872 112.058 120.185 117.272 116.177 118.114C113.855 117.951 112.243 116.061 111.977 113.727C111.888 112.619 112.909 111.689 113.988 111.881Z" fill="#FFC079"/>
<path d="M82.9174 14.2378C84.1449 15.833 84.5885 17.2656 84.8104 19.0971C84.8695 19.6879 84.8547 20.3525 84.6921 21.0467C84.4554 22.2578 82.9174 22.8191 81.9413 22.0806C79.7674 20.2787 79.1019 17.1475 80.1815 14.5185C80.6547 13.4255 82.2223 13.2926 82.9026 14.2526L82.9174 14.2378Z" fill="#FFC079"/>
<path d="M138.952 59.2862C141.969 69.1968 144.172 80.6139 139.839 90.4801C139.647 90.8789 138.996 90.7016 139.056 90.2585C140.475 80.0378 142.087 69.4479 138.183 59.5521C137.991 59.0647 138.789 58.7693 138.952 59.2862Z" fill="#FFC079"/>
<path d="M136.29 68.2526C136.423 72.6097 138.301 77.3655 136.216 81.5011C136.024 81.8408 135.491 81.7522 135.418 81.3829C134.604 77.0258 136.556 72.7278 135.491 68.3559C135.388 67.8242 136.261 67.6913 136.29 68.2526Z" fill="#FFC079"/>
<path d="M59.4176 139.325C49.7753 138.468 38.9499 136.105 32.3837 128.395C32.1027 128.055 32.5463 127.553 32.9161 127.79C41.0203 132.989 49.4795 138.453 59.4472 138.512C59.9796 138.512 59.95 139.369 59.4028 139.325H59.4176Z" fill="#FFC079"/>
<path d="M50.6627 131.732C47.5275 130.786 43.1352 130.831 41.4049 127.522C41.257 127.197 41.5676 126.813 41.9225 126.887C45.1761 127.699 47.2909 130.772 50.8106 130.919C51.3578 130.978 51.2247 131.85 50.6775 131.717L50.6627 131.732Z" fill="#FFC079"/>
<path d="M77.2828 7.96108C63.8397 3.32336 49.3911 8.72911 38.8614 17.4285C38.5065 17.7239 37.9889 17.2218 38.2847 16.8673C47.365 5.5536 64.2243 3.2052 77.5342 7.20782C78.037 7.35552 77.8004 8.16786 77.2828 7.97585V7.96108Z" fill="#FFC079"/>
<path d="M11.9457 47.8538C5.27593 62.402 7.08016 78.9294 11.8126 93.7583C11.9605 94.2014 11.2802 94.4968 11.0584 94.0685C3.44212 79.7861 5.30551 62.0919 11.1915 47.5288C11.3837 47.0414 12.1675 47.3516 11.9309 47.8538H11.9457Z" fill="#FFC079"/>
<path d="M100.693 15.2869C109.862 18.8169 119.756 24.0158 124.193 33.2617C124.385 33.6605 123.823 34.0445 123.512 33.7196C116.931 26.4972 110.129 18.9055 100.427 16.0697C99.9243 15.922 100.176 15.1096 100.693 15.3017V15.2869Z" fill="#FFC079"/>
</svg>
