<svg width="106" height="106" viewBox="0 0 106 106" fill="none" xmlns="http://www.w3.org/2000/svg">
<path d="M37.7605 46.9856C34.4969 44.4322 31.2465 42.0844 28.2244 39.4874C23.0003 35.0008 22.0706 26.7877 26.0009 21.2776C29.6161 16.2 36.6532 14.7996 42.7308 18.6084C45.8365 20.5552 48.3267 23.5389 50.8948 26.2482C52.3373 27.7663 53.3553 29.6804 54.8099 31.7566C56.4649 30.294 58.0394 28.958 59.5566 27.5549C63.0081 24.3657 66.8468 22.1116 71.7302 21.9074C80.8486 21.5267 86.4307 27.8536 85.2829 36.8239C84.5407 42.596 82.3694 47.3143 77.2433 50.8265C79.2941 51.7168 80.9952 52.46 82.6963 53.2032C91.0333 56.8494 92.6406 65.8527 86.0689 72.075C78.651 79.0997 67.3542 78.2505 59.9773 70.1105C59.0682 69.1025 58.1878 68.0593 56.968 66.6679C54.2256 74.1284 48.6844 78.4469 42.7826 82.302C39.0038 84.771 34.6696 87.0276 30.2945 84.0662C25.8024 81.0211 24.5349 76.1308 25.2137 70.9429C26.3688 62.1578 30.6769 54.8552 36.4389 48.319C36.8789 47.8196 37.39 47.378 37.7699 46.9995L37.7605 46.9856ZM53.8734 39.4255C53.4337 39.3908 52.9874 39.3525 52.5477 39.3178C52.2816 37.7278 52.28 36.0384 51.7148 34.5627C49.1618 27.9852 45.5249 22.3077 38.0053 20.6081C34.5403 19.8268 30.7512 18.9905 28.3741 22.6528C25.9609 26.3635 25.8158 30.5368 28.1158 34.3428C29.4083 36.4905 31.3723 38.3567 33.3611 39.9355C35.2787 41.4565 37.6026 42.4763 39.7622 43.6784C43.9279 45.9866 43.9898 46.823 40.3018 49.7572C33.6566 55.0418 30.2151 62.2685 28.2938 70.282C27.8756 72.0085 28.1953 74.0683 28.6853 75.8286C30.3612 81.8299 33.5401 83.465 39.3136 81.0705C46.2298 78.2057 50.981 72.99 54.1919 66.3214C54.9606 64.7254 55.7753 63.1554 56.7846 61.1363C58.6129 63.4852 59.9373 65.272 61.3565 66.9835C67.4951 74.3591 77.0317 75.5601 83.9474 69.8608C88.9846 65.7123 88.3956 59.2781 82.4651 56.5522C79.2842 55.0882 75.7377 54.4502 72.3951 53.3164C71.3483 52.9623 70.4218 52.2288 68.9873 51.4132C70.7241 50.4623 71.8495 49.8703 72.9598 49.2438C78.3698 46.1774 82.0141 41.9175 82.5728 35.4466C83.1372 28.9963 78.1477 24.0056 71.6812 24.7225C66.5569 25.2893 62.7809 28.1649 59.6441 31.9896C57.6568 34.4177 55.7894 36.9397 53.8705 39.4152L53.8734 39.4255Z" fill="#FFDFBC"/>
<path d="M60.9531 51.9395C59.2966 54.9754 56.2677 56.3519 53.87 55.1484C51.6602 54.043 50.9176 50.7706 52.3001 48.2626C53.7932 45.56 57.5621 44.1069 59.9183 45.3223C62.0169 46.409 62.456 49.1891 60.957 51.9328L60.9531 51.9395Z" fill="#FFDFBC"/>
</svg>