<svg width="297" height="23" viewBox="0 0 297 23" fill="none" xmlns="http://www.w3.org/2000/svg">
<path d="M15.4 12.1999C15.1 11.6999 14.6 11.1999 14 10.8999C13.9 10.7999 13.8 10.7999 13.7 10.6999C14 10.3999 14.3 10.0999 14.5 9.69989C15 8.79989 15.3 7.79989 15.3 6.69989C15.3 5.49989 15.1 4.49989 14.6 3.69989C14.1 2.89989 13.5 2.19989 12.7 1.79989C12 1.29989 11.1 0.999892 10.1 0.899892C7.7 0.299892 4.7 0.499892 1 1.29989L0 1.59989L0.3 2.59989C0.4 2.89989 0.4 3.09989 0.5 3.39989C0.5 3.59989 0.6 3.79989 0.6 4.19989C0.6 4.39989 0.7 4.69989 0.7 5.09989C0.7 5.39989 0.8 5.79989 0.8 6.29989C0.8 6.99989 0.9 7.79989 0.9 8.49989V10.7999C0.9 12.4999 0.9 14.1999 0.8 15.8999C0.8 17.5999 0.7 19.1999 0.7 20.6999V21.3999L1.4 21.5999C2 21.7999 2.6 21.9999 3.3 22.0999C3.9 22.1999 4.6 22.3999 5.3 22.4999C6.1 22.5999 6.9 22.5999 7.8 22.5999C9.2 22.5999 10.5 22.3999 11.5 22.0999C12.6 21.7999 13.5 21.2999 14.3 20.5999C15.1 19.8999 15.6 19.0999 16 18.2999C16.3 17.3999 16.5 16.4999 16.5 15.3999C16.5 14.7999 16.4 14.2999 16.3 13.7999C16 13.2999 15.8 12.6999 15.4 12.1999ZM9.6 8.49989C9.1 8.89989 8.3 9.09989 7.2 9.09989H5.9V7.89989C5.9 7.19989 5.9 6.59989 5.9 6.09989C5.9 5.79989 5.9 5.49989 5.9 5.29989C6 5.29989 6.1 5.29989 6.2 5.29989C6.6 5.29989 7 5.19989 7.5 5.19989C8.5 5.19989 9.3 5.39989 9.8 5.69989C9.8 5.69989 10.2 5.99989 10.2 6.99989C10.2 7.59989 10 8.09989 9.6 8.49989ZM5.8 16.7999C5.8 16.1999 5.9 15.5999 5.9 14.8999V13.5999C6 13.5999 6.2 13.5999 6.3 13.5999H7.4C8 13.5999 8.6 13.5999 9.1 13.6999C9.6 13.7999 9.9 13.8999 10.3 14.0999C10.6 14.2999 10.8 14.3999 10.9 14.6999C11 14.8999 11.1 15.2999 11.1 15.6999C11.1 16.4999 10.9 17.0999 10.5 17.4999C10 17.8999 9.2 18.0999 8 18.0999C7.6 18.0999 7.2 18.0999 6.9 18.0999C6.5 17.9999 6.2 17.9999 5.9 17.8999H5.8C5.7 17.4999 5.8 17.0999 5.8 16.7999Z" fill="#E2211C"/>
<path d="M32 9.8001C31.3 9.2001 30.5 8.8001 29.6 8.5001C28.1 8.0001 26 8.0001 24.4 8.3001C24.2 8.3001 23.9 8.4001 23.7 8.4001C23.7 7.5001 23.7 6.6001 23.7 5.9001C23.7 4.8001 23.7 3.8001 23.6 3.1001C23.6 2.4001 23.5 1.9001 23.3 1.5001C23.1 1.1001 22.6 0.600098 21.6 0.600098C21.2 0.600098 20.7 0.600098 20.2 0.700098C19.7 0.800098 19.1 0.900098 18.5 1.1001L17.5 1.4001L18 3.0001V3.1001C18 3.2001 18.1 3.4001 18.1 3.6001C18.1 3.8001 18.2 4.0001 18.2 4.3001C18.3 4.6001 18.3 4.9001 18.3 5.3001C18.3 5.7001 18.4 6.2001 18.4 6.7001C18.4 7.2001 18.5 7.7001 18.5 8.3001C18.5 8.8001 18.6 9.3001 18.6 9.9001C18.6 10.4001 18.6 10.9001 18.6 11.4001C18.6 12.8001 18.6 14.4001 18.5 16.0001C18.4 17.6001 18.3 19.1001 18.2 20.6001V21.3001L18.9 21.6001C19.4 21.8001 20 21.9001 20.6 22.1001C21.1 22.2001 21.8 22.3001 22.5 22.4001C23.2 22.5001 24.1 22.5001 25 22.5001C26.3 22.5001 27.5 22.4001 28.5 22.1001C29.6 21.8001 30.6 21.4001 31.4 20.8001C32.2 20.2001 32.9 19.3001 33.4 18.4001C33.9 17.4001 34.1 16.3001 34.1 15.0001C34.1 13.9001 33.9 12.9001 33.5 12.1001C33.3 11.1001 32.7 10.4001 32 9.8001ZM28.9 15.2001C28.9 15.7001 28.8 16.1001 28.7 16.4001C28.5 16.7001 28.3 16.9001 28 17.2001C27.7 17.4001 27.4 17.6001 26.9 17.7001C26.1 17.9001 25 17.9001 24.2 17.8001C23.9 17.8001 23.7 17.7001 23.5 17.7001C23.5 17.3001 23.6 16.9001 23.6 16.5001C23.6 15.9001 23.7 15.2001 23.7 14.5001V13.1001C23.9 13.1001 24.1 13.0001 24.3 13.0001C24.8 12.9001 25.4 12.8001 26.1 12.8001C27.1 12.8001 27.8 13.0001 28.2 13.4001C28.7 13.8001 28.9 14.4001 28.9 15.2001Z" fill="#E2211C"/>
<path d="M40.2 19.5001C40.2 18.8001 40.2 18.0001 40.1 17.1001C40.1 16.2001 40.1 15.2001 40.1 14.2001V11.0001C40.1 9.1001 40.1 7.5001 40.2 6.0001C40.3 4.5001 40.3 3.4001 40.3 2.6001C40.3 1.7001 39.9 1.3001 39.5 1.0001C39 0.700098 38.4 0.600098 37.6 0.700098C37.3 0.700098 37 0.700098 36.8 0.800098C36.5 0.800098 36.2 0.800098 35.9 0.900098C35.6 0.900098 35.4 1.0001 35.2 1.0001L34.3 1.2001L34.4 2.1001C34.4 2.4001 34.5 2.7001 34.5 2.9001C34.5 3.1001 34.6 3.4001 34.6 3.7001C34.6 4.0001 34.7 4.2001 34.7 4.4001C34.7 5.2001 34.8 6.1001 34.8 7.2001C34.8 8.3001 34.8 9.6001 34.8 10.9001C34.8 12.1001 34.8 13.1001 34.8 14.2001C34.8 15.2001 34.8 16.1001 34.7 17.0001C34.7 17.8001 34.7 18.5001 34.7 19.2001C34.7 19.8001 34.7 20.3001 34.7 20.7001C34.7 21.2001 34.9 21.6001 35.1 22.0001C35.6 22.7001 36.6 22.7001 36.9 22.7001C37.3 22.7001 37.8 22.7001 38.2 22.6001C38.7 22.5001 39.1 22.4001 39.5 22.3001L40.2 22.0001L40.3 21.0001C40.2 20.7001 40.2 20.2001 40.2 19.5001Z" fill="#E2211C"/>
<path d="M57.7 16.6999L57.1 15.8999L56.3 16.4999C55.9 16.7999 55.4 17.0999 54.7 17.3999C54.1 17.6999 53.3 17.7999 52.4 17.7999C50.9 17.7999 49.8 17.2999 48.9 16.2999C48 15.1999 47.6 13.6999 47.6 11.6999C47.6 10.5999 47.7 9.6999 48 8.8999C48.3 8.0999 48.6 7.3999 49 6.8999C49.4 6.3999 49.9 5.9999 50.4 5.6999C51.3 5.1999 52.3 5.1999 53.2 5.3999C53.5 5.3999 53.8 5.4999 54.2 5.4999C54.5 5.4999 54.7 5.5999 55.1 5.5999C55.4 5.5999 55.7 5.6999 56.1 5.6999C57 5.6999 57.7 5.1999 58 4.3999C58.2 3.7999 58.3 2.9999 58.3 1.6999V0.699902H57.3C56.9 0.699902 56.6 0.699902 56.3 0.699902C55.9 0.699902 55.5 0.599902 55.1 0.599902C54.7 0.599902 54.2 0.499902 53.8 0.499902C53.3 0.499902 52.8 0.399902 52.2 0.399902C50.6 0.399902 49.1 0.699902 47.8 1.3999C46.6 1.9999 45.5 2.8999 44.6 3.9999C43.8 5.0999 43.2 6.2999 42.7 7.6999C42.3 9.0999 42.1 10.4999 42.1 11.8999C42.1 13.5999 42.4 15.1999 42.9 16.5999C43.4 17.8999 44.2 19.0999 45.1 19.9999C46 20.8999 47.1 21.5999 48.3 21.9999C49.5 22.3999 50.8 22.5999 52.2 22.5999C52.9 22.5999 53.6 22.4999 54.3 22.3999C55 22.2999 55.6 22.0999 56.2 21.8999C56.8 21.6999 57.3 21.2999 57.7 20.9999C58.4 20.3999 58.5 19.7999 58.5 19.2999C58.5 18.8999 58.4 18.3999 58.3 17.8999C58.3 17.5999 58 17.0999 57.7 16.6999Z" fill="#E2211C"/>
<path d="M75.9 3.4999C75.1 2.4999 74 1.6999 72.7 1.1999C71.5 0.699902 70 0.399902 68.4 0.399902C66.9 0.399902 65.4 0.699902 64.2 1.3999C63 1.9999 62 2.8999 61.1 3.9999C60.3 5.0999 59.6 6.2999 59.2 7.6999C58.8 9.0999 58.5 10.4999 58.5 11.9999C58.5 13.5999 58.7 15.0999 59.1 16.3999C59.5 17.6999 60.2 18.8999 61 19.8999C61.8 20.8999 62.9 21.5999 64.2 22.1999C65.4 22.6999 66.9 22.9999 68.4 22.9999C69.9 22.9999 71.3 22.6999 72.6 21.9999C73.8 21.3999 74.9 20.4999 75.8 19.3999C76.7 18.2999 77.3 17.0999 77.8 15.6999C78.2 14.2999 78.5 12.8999 78.5 11.3999C78.5 9.7999 78.3 8.3999 77.9 7.0999C77.4 5.5999 76.8 4.3999 75.9 3.4999ZM73.1 11.4999C73.1 12.4999 73 13.4999 72.7 14.2999C72.5 15.0999 72.1 15.7999 71.7 16.3999C71.3 16.8999 70.8 17.3999 70.3 17.6999C69.2 18.2999 67.8 18.1999 66.8 17.6999C66.2 17.3999 65.8 16.9999 65.4 16.4999C65 15.9999 64.6 15.2999 64.4 14.4999C64.2 13.6999 64 12.6999 64 11.6999C64 10.5999 64.1 9.6999 64.4 8.8999C64.7 8.0999 65 7.3999 65.4 6.7999C65.8 6.2999 66.3 5.8999 66.9 5.5999C67.4 5.2999 68 5.1999 68.5 5.1999C69.2 5.1999 69.8 5.2999 70.4 5.5999C71 5.8999 71.4 6.1999 71.8 6.6999C72.2 7.1999 72.6 7.8999 72.8 8.6999C72.9 9.4999 73.1 10.3999 73.1 11.4999Z" fill="#E2211C"/>
<path d="M132.1 20C132 19.6 132 19.2 131.9 18.7C131.9 18.2 131.8 17.5 131.8 16.8V13L131.9 9.50001C131.9 8.40001 132 7.20001 132 6.10001C132.1 4.90001 132.2 3.70001 132.3 2.30001L132.4 1.50001L131.6 1.30001C131 1.20001 130.4 1.00001 129.8 1.00001C129.2 0.900008 128.6 0.800008 127.8 0.800008C127.1 0.700008 126.3 0.700008 125.4 0.700008C124.2 0.700008 123.1 0.800008 122 1.10001C120.9 1.40001 120 1.80001 119.1 2.30001C118.3 2.90001 117.6 3.70001 117.1 4.60001C116.6 5.50001 116.4 6.70001 116.4 8.00001C116.4 9.50001 116.8 10.9 117.7 12C118.3 12.7 118.9 13.3 119.8 13.7C119.6 13.9 119.5 14.2 119.3 14.5C119.1 14.9 118.8 15.3 118.5 15.9C118.2 16.4 118 16.8 117.8 17.1C117.6 17.4 117.4 17.5 117.4 17.6C117.3 17.7 117.2 17.7 117.2 17.7C117.1 17.7 116.9 17.7 116.7 17.7V17.5L115.5 17.7C115.4 17.7 115.1 17.8 114.8 17.4C114.5 17 114.3 16.4 114 15.7C113.6 14.5 113.3 13.3 112.9 12.1C112.6 10.9 112.3 9.70001 112 8.60001C111.7 7.50001 111.5 6.50001 111.2 5.60001C111 4.70001 110.7 3.90001 110.5 3.30001C110.3 2.90001 110.2 2.50001 110.1 2.30001C109.9 1.90001 109.7 1.60001 109.5 1.40001C109.2 1.20001 108.9 1.00001 108.5 0.900008C108 0.800008 107.1 0.800008 106.3 0.900008C105.9 0.900008 105.6 1.00001 105.2 1.10001L103.5 1.50001L103.3 2.10001C103.1 2.90001 102.8 3.80001 102.5 4.80001C102.1 5.80001 101.7 6.80001 101.3 7.90001C100.9 9.00001 100.4 10.1 99.9 11.2C99.4 12.3 99 13.4 98.5 14.5C98.1 15.5 97.7 16.5 97.4 17.4C97.3 17.6 97.2 17.9 97.2 18.1L97.1 17.6H96.2C95.9 17.6 95.7 17.6 95.6 17.6H95.5C95.4 17.5 95.3 17.4 95.2 17.2C95.1 17 94.9 16.7 94.7 16.3C94.2 15.4 93.8 14.6 93.5 14C93.1 13.3 92.8 12.8 92.5 12.3C92.2 11.8 91.9 11.4 91.6 11.1C91.5 11 91.5 11 91.4 10.9C91.8 10.4 92.1 9.80001 92.4 9.40001C92.9 8.70001 93.3 8.10001 93.8 7.50001C94.3 6.90001 94.8 6.30001 95.3 5.80001C95.8 5.20001 96.4 4.60001 97 4.00001L97.8 3.00001L97 2.30001C96.9 2.20001 96.7 2.00001 96.5 1.90001L96.1 1.60001C95.9 1.40001 95.7 1.30001 95.5 1.10001C94.6 0.400008 93.8 0.500008 93.4 0.600008C92.8 0.700008 92.1 1.20001 91.5 2.00001C91.1 2.50001 90.7 3.10001 90.2 3.70001C89.8 4.30001 89.4 4.90001 88.9 5.60001C88.5 6.30001 88.1 6.90001 87.7 7.60001C87.4 8.10001 87.1 8.60001 86.8 9.10001C86.6 9.10001 86.4 9.10001 86.2 9.10001C86.1 9.10001 85.9 9.10001 85.7 9.10001C85.7 8.50001 85.7 7.80001 85.7 7.30001C85.7 6.40001 85.7 5.60001 85.8 4.90001L86 2.50001C86 1.70001 85.5 0.700008 84 0.700008C83.6 0.700008 83.2 0.700008 82.9 0.800008C82.5 0.800008 82.2 0.900008 81.9 1.00001C81.6 1.10001 81.2 1.20001 80.9 1.20001L79.9 1.50001L80.2 2.50001C80.3 2.80001 80.4 3.00001 80.4 3.20001C80.5 3.40001 80.5 3.60001 80.6 3.90001C80.7 4.10001 80.7 4.30001 80.7 4.60001C80.7 4.90001 80.7 5.20001 80.7 5.60001C80.7 6.70001 80.7 7.80001 80.7 9.10001C80.7 10.3 80.7 11.5 80.7 12.8L80.6 16.5C80.6 17.7 80.6 18.9 80.6 20C80.6 20.9 80.8 21.5 81.1 22C81.5 22.4 82.1 22.6 83 22.6C83.3 22.6 83.6 22.6 84.1 22.5C84.5 22.5 84.9 22.4 85.3 22.3L86.3 22.1L86 21.1C86 20.9 85.9 20.7 85.9 20.5C85.9 20.3 85.8 20.1 85.8 19.9C85.8 19.7 85.8 19.4 85.8 19.2V16.3C85.8 15.4 85.8 14.4 85.8 13.4H85.9C86.2 13.4 86.4 13.4 86.7 13.5C86.9 13.5 87 13.6 87.1 13.6C87.2 13.7 87.4 13.8 87.5 13.8C87.7 14 88.1 14.4 88.5 15.3C88.9 16.2 89.4 17.2 90 18.4C90.4 19.1 90.7 19.7 91 20.2C91.3 20.7 91.6 21.1 91.9 21.5C92.3 21.9 92.7 22.1 93.1 22.3C93.5 22.4 94 22.5 94.6 22.5C95.5 22.5 96.1 22.3 96.5 21.8L96.6 21.7C96.9 22.2 97.5 22.5 98.3 22.5C98.7 22.5 99.1 22.5 99.4 22.5C99.7 22.5 100 22.4 100.2 22.4C100.4 22.4 100.7 22.3 100.9 22.3L101.7 22.2V21.4C101.7 20.7 101.8 19.9 101.9 19.2C102 18.6 102.2 18 102.4 17.3C102.6 17.3 102.8 17.3 103 17.3C103.6 17.3 104.2 17.3 104.9 17.3H106.3C106.8 17.3 107.2 17.3 107.6 17.2C108 17.2 108.3 17.2 108.6 17.1C108.7 17.3 108.7 17.5 108.8 17.7L109.2 19C109.4 19.7 109.6 20.2 109.9 20.7C110.2 21.2 110.5 21.6 110.8 21.9C111.2 22.2 111.6 22.4 112 22.4C112.4 22.5 112.8 22.5 113.2 22.5C114.2 22.5 115 22.3 115.5 21.7C115.6 21.8 115.6 21.9 115.7 22C116.1 22.4 116.8 22.7 117.6 22.7C118.2 22.7 118.7 22.6 119.1 22.4C119.6 22.2 120 21.9 120.4 21.5C120.8 21.1 121.1 20.7 121.4 20.2C121.7 19.7 122 19.1 122.4 18.3C122.8 17.4 123.2 16.7 123.5 16.2C123.8 15.7 124 15.4 124.3 15.1C124.5 14.9 124.7 14.8 124.9 14.7C125.2 14.6 125.5 14.6 125.9 14.6H126.3C126.3 14.9 126.3 15.2 126.3 15.6V19.4C126.3 20 126.3 20.4 126.3 20.6C126.4 21.3 126.6 21.9 127.1 22.2C127.4 22.4 127.9 22.5 128.5 22.5C128.8 22.5 129.1 22.5 129.4 22.4C129.7 22.4 130 22.3 130.2 22.3C130.5 22.2 130.8 22.2 131 22.1L132 21.9L131.7 20.9C132.2 20.7 132.1 20.4 132.1 20ZM127 5.30001C127 5.50001 127 5.80001 126.9 6.20001C126.8 7.20001 126.8 8.50001 126.8 10.1C126.3 10.1 125.6 10.2 124.7 10.2C123.7 10.2 122.9 10 122.4 9.60001C121.9 9.20001 121.7 8.60001 121.7 7.90001C121.7 7.00001 121.9 6.40001 122.4 5.90001C122.9 5.40001 123.8 5.20001 125.1 5.20001C125.5 5.20001 126 5.20001 126.5 5.30001C126.6 5.30001 126.8 5.30001 127 5.30001ZM105.5 9.50001C105.8 8.80001 106.1 8.10001 106.4 7.50001C106.6 8.10001 106.7 8.70001 106.9 9.20001C107.2 10.3 107.5 11.4 107.8 12.6C107.7 12.6 107.7 12.6 107.6 12.6C107 12.6 106.4 12.6 105.9 12.6H104.2C104.3 12.3 104.4 12 104.6 11.7C104.9 11.1 105.2 10.3 105.5 9.50001Z" fill="#E2211C"/>
<path d="M163.7 7.20003C164.2 6.60003 164.6 6.00003 165.1 5.50003C165.6 4.90003 166.1 4.40003 166.7 3.80003L167.4 3.10003L166.7 2.40003C166.6 2.30003 166.4 2.10003 166.2 2.00003L165.8 1.70003C165.6 1.50003 165.4 1.40003 165.2 1.20003C164.3 0.500027 163.6 0.500027 163.1 0.700027C162.5 0.800027 161.9 1.30003 161.3 2.10003C160.5 3.10003 159.7 4.30003 158.8 5.70003C158.1 6.90003 157.5 8.00003 156.8 9.20003C156.7 9.20003 156.5 9.20003 156.4 9.20003C156.3 9.20003 156.2 9.20003 156.1 9.20003V7.40003C156.1 6.50003 156.2 5.70003 156.2 5.00003L156.3 2.70003C156.3 1.90003 155.8 0.900027 154.3 0.900027C153.9 0.900027 153.5 0.900027 153.1 1.00003C152.7 1.00003 152.4 1.10003 152.1 1.20003C151.8 1.30003 151.5 1.30003 151.2 1.40003L150.2 1.60003L150.5 2.60003C150.6 2.80003 150.6 3.10003 150.7 3.40003C150.8 3.60003 150.8 3.80003 150.8 4.00003C150.8 4.20003 150.9 4.50003 150.9 4.80003C150.9 5.10003 150.9 5.40003 150.9 5.70003C150.9 6.40003 150.9 7.10003 150.9 7.90003C150.9 8.30003 150.9 8.80003 150.9 9.30003C150.7 9.30003 150.6 9.30003 150.5 9.30003C150.4 9.30003 150.2 9.30003 150.1 9.30003C149.5 8.10003 148.8 6.90003 148.1 5.80003C147.3 4.40003 146.5 3.20003 145.7 2.20003C145.1 1.40003 144.5 0.900027 143.8 0.800027C143.1 0.600027 142.4 0.800027 141.7 1.30003C141.5 1.50003 141.3 1.60003 141.1 1.80003L140.7 2.10003C140.5 2.20003 140.4 2.40003 140.2 2.50003L139.7 3.00003L140.4 3.70003C141 4.30003 141.6 4.90003 142 5.50003C142.5 6.00003 142.9 6.60003 143.4 7.20003C143.8 7.80003 144.3 8.40003 144.7 9.10003C145 9.60003 145.3 10.1 145.7 10.6C145.6 10.7 145.5 10.8 145.4 10.9C145.1 11.2 144.8 11.6 144.5 12.1C144.2 12.6 143.9 13.1 143.6 13.8C143.3 14.4 142.9 15.2 142.5 16.1C142.3 16.5 142.2 16.8 142 17.1C141.9 17.3 141.8 17.4 141.8 17.4C141.7 17.4 141.6 17.4 141.3 17.4H140.5L140.3 18.2C140.3 18.4 140.2 18.6 140.2 18.8C140.1 19.2 140.1 19.6 140.1 20.1C140.1 20.9 140.3 21.6 140.8 22C141.2 22.4 141.9 22.7 142.7 22.7C143.3 22.7 143.8 22.6 144.2 22.5C144.7 22.3 145.1 22.1 145.4 21.7C145.7 21.4 146 20.9 146.3 20.4C146.5 19.9 146.8 19.3 147.2 18.6L148.6 15.5C149 14.6 149.4 14.2 149.6 14C149.7 13.9 149.8 13.8 150 13.8C150.1 13.7 150.3 13.7 150.4 13.7C150.5 13.7 150.7 13.6 150.9 13.6L150.8 16.5C150.8 17.8 150.7 19 150.7 20.2C150.7 21.1 150.9 21.7 151.3 22.2C151.7 22.6 152.3 22.8 153.2 22.8C153.5 22.8 153.8 22.8 154.2 22.7C154.6 22.7 155 22.6 155.4 22.5L156.4 22.3L156.2 21.3C156.2 21.1 156.1 20.9 156.1 20.7C156.1 20.5 156 20.3 156 20.1C156 19.9 156 19.6 156 19.4C156 18.7 156 17.7 156 16.5C156 15.6 156 14.6 156.1 13.6C156.3 13.6 156.5 13.6 156.7 13.7C156.9 13.7 157 13.8 157.1 13.8C157.2 13.9 157.4 14 157.5 14C157.7 14.2 158.1 14.6 158.5 15.5C158.9 16.4 159.4 17.4 159.9 18.6C160.2 19.3 160.5 19.9 160.8 20.4C161.1 20.9 161.4 21.3 161.7 21.7C162.1 22.1 162.5 22.3 162.9 22.5C163.3 22.6 163.8 22.7 164.4 22.7C165.3 22.7 165.9 22.5 166.3 22C166.7 21.5 166.9 20.9 166.9 20.1C166.9 19.9 166.9 19.6 166.9 19.4C166.9 19.2 166.9 19 166.8 18.9C166.8 18.7 166.8 18.5 166.7 18.4L166.6 17.5H165.7C165.4 17.5 165.3 17.5 165.2 17.5C165.1 17.4 165 17.3 164.9 17.1C164.8 16.9 164.6 16.6 164.4 16.2C164 15.3 163.6 14.6 163.3 13.9C163 13.3 162.7 12.7 162.4 12.3C162.1 11.8 161.8 11.4 161.5 11.1C161.4 11 161.3 10.9 161.3 10.8C161.6 10.3 162 9.70003 162.3 9.30003C162.8 8.50003 163.2 7.80003 163.7 7.20003Z" fill="#E2211C"/>
<path d="M185.7 20.1001L185.6 19.2001C185.6 18.9001 185.6 18.7001 185.6 18.4001C185.6 17.3001 185.5 16.1001 185.5 14.7001V10.7001C185.5 10.1001 185.5 9.4001 185.5 8.7001L185.6 6.5001C185.6 5.7001 185.7 5.0001 185.7 4.4001C185.7 3.7001 185.7 3.2001 185.7 2.7001C185.7 2.0001 185.5 1.5001 185.2 1.2001C184.7 0.700098 183.8 0.600098 182.5 0.800098C182 0.800098 181.5 0.900098 181.1 1.0001H180.7L180.5 1.3001C179.9 2.2001 179.2 3.2001 178.5 4.3001C177.7 5.5001 176.9 6.7001 176.1 8.0001C175.3 9.3001 174.5 10.6001 173.6 11.9001C173.5 12.1001 173.4 12.2001 173.3 12.4001C173.3 11.9001 173.3 11.4001 173.4 10.8001L173.5 8.3001C173.5 7.4001 173.5 6.6001 173.5 5.9001C173.5 5.1001 173.5 4.4001 173.5 3.8001C173.5 3.2001 173.5 2.6001 173.5 2.2001C173.5 1.9001 173.4 0.600098 171.5 0.600098C171 0.600098 170.5 0.600098 170.1 0.700098C169.6 0.700098 169.1 0.800098 168.6 1.0001L167.7 1.2001L167.9 2.1001C168 2.4001 168 2.6001 168.1 2.9001C168.1 3.1001 168.2 3.3001 168.2 3.5001C168.2 3.7001 168.3 4.0001 168.3 4.2001C168.3 4.5001 168.3 4.8001 168.3 5.2001C168.3 6.0001 168.3 6.8001 168.3 7.7001V10.5001C168.3 11.4001 168.3 12.4001 168.3 13.3001C168.3 14.3001 168.3 15.2001 168.3 16.0001C168.3 16.8001 168.3 17.5001 168.3 18.2001V20.4001V20.5001C168.3 20.8001 168.4 21.1001 168.6 21.4001L168.7 21.5001C168.9 21.8001 169.2 22.0001 169.5 22.1001C170 22.3001 170.7 22.3001 171.6 22.2001C172 22.2001 172.4 22.1001 172.8 22.0001L173.3 21.9001L173.5 21.5001C173.7 21.2001 173.9 20.7001 174.2 20.1001C174.6 19.4001 175 18.7001 175.5 17.9001C176 17.1001 176.5 16.2001 177.1 15.2001C177.7 14.2001 178.3 13.2001 178.9 12.2001C179.5 11.2001 180.1 10.3001 180.7 9.3001C180.7 9.5001 180.7 9.7001 180.7 10.0001C180.7 10.7001 180.7 11.3001 180.7 12.0001L180.6 15.8001C180.6 16.4001 180.6 17.0001 180.6 17.6001C180.6 18.1001 180.6 18.6001 180.6 19.1001V20.1001C180.6 20.8001 180.8 21.4001 181.3 21.8001C181.7 22.1001 182.2 22.2001 182.9 22.2001C183.2 22.2001 183.5 22.2001 183.9 22.1001C184.4 22.1001 184.9 21.9001 185.4 21.8001L186.1 21.5001L186 20.7001C185.7 20.7001 185.7 20.4001 185.7 20.1001Z" fill="#E2211C"/>
<path d="M201.8 2.3001C201.1 1.7001 200.2 1.3001 199.1 1.0001C198.1 0.700098 197 0.600098 195.9 0.600098C195 0.600098 193.9 0.700098 192.6 0.800098C191.4 0.900098 190.1 1.1001 188.8 1.4001L187.7 1.6001L188.1 2.7001C188.3 3.2001 188.4 3.9001 188.5 4.6001C188.6 5.4001 188.7 6.2001 188.7 7.2001C188.7 7.9001 188.8 8.5001 188.8 9.1001V10.9001C188.8 13.0001 188.8 14.9001 188.7 16.4001C188.6 17.9001 188.6 19.3001 188.6 20.5001C188.6 21.4001 189 21.8001 189.3 22.1001C189.7 22.4001 190.2 22.5001 190.8 22.5001C191.1 22.5001 191.4 22.5001 191.7 22.4001C192 22.4001 192.3 22.3001 192.5 22.3001L194.3 21.9001L194.1 20.9001C194 20.5001 194 20.1001 193.9 19.7001C193.8 19.4001 193.8 19.0001 193.8 18.7001C193.8 18.3001 193.7 18.0001 193.7 17.7001V17.0001C193.7 16.6001 193.7 16.3001 193.7 16.0001C193.7 15.7001 193.7 15.4001 193.7 15.1001C193.8 15.1001 194 15.1001 194.1 15.1001H194.9C196.1 15.1001 197.2 15.0001 198.2 14.7001C199.3 14.4001 200.3 14.0001 201.1 13.4001C202 12.8001 202.6 12.0001 203.1 11.0001C203.6 10.0001 203.9 8.9001 203.9 7.5001C203.9 6.3001 203.7 5.2001 203.3 4.3001C203.2 3.6001 202.6 2.9001 201.8 2.3001ZM198.9 7.8001C198.9 8.7001 198.6 9.4001 198.1 9.8001C197.6 10.3001 196.7 10.5001 195.4 10.5001C195.1 10.5001 194.8 10.5001 194.6 10.5001C194.4 10.5001 194.2 10.5001 194.1 10.4001C194.1 9.7001 194.1 9.0001 194.1 8.4001C194.1 7.5001 194.1 6.8001 194 6.2001C194 5.8001 194 5.5001 193.9 5.2001C194 5.2001 194.2 5.2001 194.3 5.2001C195.2 5.1001 196.3 5.1001 197.1 5.3001C197.5 5.4001 197.8 5.5001 198.1 5.8001C198.3 6.0001 198.5 6.2001 198.7 6.5001C198.8 6.9001 198.9 7.3001 198.9 7.8001Z" fill="#E2211C"/>
<path d="M223.4 19.4L223.3 16.7C223.3 15.7 223.3 14.7 223.3 13.6V10.7C223.3 10.1 223.3 9.39996 223.3 8.69996L223.4 6.39996C223.4 5.59996 223.5 4.89996 223.5 4.19996C223.5 3.49996 223.6 2.99996 223.6 2.49996C223.6 1.59996 223.2 1.19996 222.9 0.999963C222.3 0.599963 221.4 0.599963 220.3 0.799963C219.8 0.799963 219.3 0.899963 218.8 0.999963L218 1.19996L218.2 3.69996C218.2 4.09996 218.3 4.49996 218.3 4.99996C218.3 5.39996 218.4 5.69996 218.4 5.99996V8.99996C217.9 8.99996 217.5 8.89996 217.1 8.89996C215.7 8.79996 214.2 8.79996 212.8 8.89996C212.5 8.89996 212.2 8.89996 211.8 8.89996C211.8 8.69996 211.8 8.49996 211.8 8.19996C211.8 7.39996 211.9 6.69996 211.9 5.89996C211.9 5.09996 212 4.39996 212 3.69996C212 2.99996 212 2.49996 212 2.09996C212 1.39996 211.5 0.799963 210.8 0.699963C209.9 0.599963 209.1 0.599963 208.3 0.799963C207.8 0.899963 207.3 0.999963 206.8 1.09996L205.8 1.29996L206.1 2.29996C206.2 2.59996 206.3 2.89996 206.3 3.29996C206.4 3.59996 206.4 3.89996 206.5 4.29996C206.6 4.69996 206.6 5.19996 206.6 5.79996C206.6 6.29996 206.7 6.99996 206.7 7.69996C206.7 8.29996 206.7 8.89996 206.7 9.59996C206.7 10.3 206.7 11 206.7 11.7L206.6 13.9C206.6 14.6 206.6 15.3 206.6 15.9C206.6 16.1 206.6 16.4 206.6 16.7L206.5 18.8C206.5 19.2 206.5 19.5 206.5 19.7C206.5 20.5 206.6 21.1 207 21.6C207.4 22.1 208 22.3 208.8 22.3C209.1 22.3 209.5 22.3 209.9 22.2C210.4 22.2 210.8 22.1 211.2 22L212.1 21.8L211.8 20.2C211.8 20 211.7 19.8 211.7 19.6C211.7 19.4 211.7 19.1 211.7 18.9V17.6L211.8 14C211.8 13.8 211.8 13.6 211.8 13.4C212 13.4 212.1 13.4 212.3 13.4C212.8 13.4 213.4 13.4 214 13.4C215.7 13.4 217.2 13.4 218.5 13.5C218.5 13.9 218.5 14.3 218.5 14.8C218.5 15.3 218.5 15.8 218.5 16.4C218.5 16.9 218.5 17.5 218.5 18V20.4C218.5 20.9 218.7 21.3 218.9 21.7C219.4 22.4 220.4 22.4 220.7 22.4C221.1 22.4 221.6 22.4 222 22.3C222.5 22.2 222.9 22.1 223.3 22L224.1 21.7L224 20.9C223.5 20.7 223.5 20.1 223.4 19.4Z" fill="#E2211C"/>
<path d="M242.9 3.4999C242.1 2.4999 241 1.6999 239.7 1.1999C238.5 0.699902 237 0.399902 235.4 0.399902C233.9 0.399902 232.4 0.699902 231.2 1.3999C230 1.9999 229 2.8999 228.1 3.9999C227.3 5.0999 226.6 6.2999 226.2 7.6999C225.8 9.0999 225.5 10.4999 225.5 11.9999C225.5 13.5999 225.7 15.0999 226.1 16.3999C226.5 17.6999 227.2 18.8999 228 19.8999C228.8 20.8999 229.9 21.5999 231.2 22.1999C232.4 22.6999 233.9 22.9999 235.4 22.9999C236.9 22.9999 238.3 22.6999 239.6 21.9999C240.8 21.3999 241.9 20.4999 242.8 19.3999C243.7 18.2999 244.3 17.0999 244.8 15.6999C245.2 14.2999 245.5 12.8999 245.5 11.3999C245.5 9.7999 245.3 8.3999 244.9 7.0999C244.4 5.5999 243.8 4.3999 242.9 3.4999ZM240.1 11.4999C240.1 12.4999 240 13.4999 239.7 14.2999C239.5 15.0999 239.1 15.7999 238.7 16.3999C238.3 16.8999 237.8 17.3999 237.3 17.6999C236.2 18.2999 234.8 18.1999 233.8 17.6999C233.2 17.3999 232.8 16.9999 232.4 16.4999C232 15.9999 231.6 15.2999 231.4 14.4999C231.2 13.6999 231 12.6999 231 11.6999C231 10.5999 231.1 9.6999 231.4 8.8999C231.7 8.0999 232 7.3999 232.4 6.7999C232.8 6.2999 233.3 5.8999 233.9 5.5999C234.4 5.2999 235 5.1999 235.5 5.1999C236.2 5.1999 236.8 5.2999 237.4 5.5999C238 5.8999 238.4 6.1999 238.8 6.6999C239.2 7.1999 239.6 7.8999 239.8 8.6999C239.9 9.4999 240.1 10.3999 240.1 11.4999Z" fill="#E2211C"/>
<path d="M279.3 2L279.1 0L278 0.4C277.4 0.6 276.6 0.7 275.6 0.7C274.5 0.7 273.1 0.8 271.5 0.8H269.8H268C267.4 0.8 266.8 0.8 266.2 0.8C265.6 0.8 265.1 0.8 264.6 0.8C263.9 0.8 263.3 1 263 1.4C262.9 1.6 262.8 1.7 262.7 1.9V1.8V0.8H261.7C261.3 0.8 261 0.8 260.7 0.8C260.3 0.8 259.9 0.7 259.5 0.7C259.1 0.7 258.6 0.6 258.2 0.6C257.7 0.6 257.2 0.5 256.6 0.5C255 0.5 253.5 0.8 252.2 1.5C251 2.2 249.9 3 249 4.1C248.2 5.2 247.6 6.4 247.1 7.8C246.7 9.2 246.5 10.6 246.5 12C246.5 13.7 246.8 15.3 247.3 16.7C247.8 18 248.6 19.2 249.5 20.1C250.4 21 251.5 21.7 252.7 22.1C253.9 22.5 255.2 22.7 256.6 22.7C257.3 22.7 258 22.6 258.7 22.5C259.4 22.4 260 22.2 260.6 22C261.2 21.8 261.7 21.4 262.1 21.1C262.8 20.5 262.9 19.9 262.9 19.4C262.9 19 262.8 18.5 262.7 18C262.5 17.5 262.3 17 262 16.6L261.4 15.8L260.6 16.4C260.2 16.7 259.7 17 259 17.3C258.4 17.6 257.6 17.7 256.7 17.7C255.2 17.7 254.1 17.2 253.2 16.2C252.3 15.1 251.9 13.6 251.9 11.6C251.9 10.5 252 9.6 252.3 8.8C252.6 8 252.9 7.3 253.3 6.8C253.7 6.3 254.2 5.9 254.7 5.6C255.6 5.1 256.6 5.1 257.5 5.3C257.8 5.3 258.1 5.4 258.5 5.4C258.8 5.4 259 5.5 259.4 5.5C259.7 5.5 260 5.6 260.4 5.6C261.3 5.6 262 5.1 262.3 4.3C262.4 4.1 262.4 3.8 262.5 3.5C262.5 3.6 262.5 3.7 262.5 3.7L262.6 5.1L263.4 5.2C263.7 5.2 264.1 5.3 264.5 5.3C264.9 5.3 265.4 5.4 266 5.4L268.3 5.5C268.3 6.3 268.3 7.1 268.2 8L268.1 15.6C268.1 16.8 268.1 17.9 268.1 18.8C268.1 19.2 268.1 19.6 268.1 20C268.1 20.4 268.2 20.7 268.3 21V21.1C268.5 21.5 268.7 21.8 269 22L269.1 22.1C269.4 22.3 269.9 22.3 270.5 22.3C270.8 22.3 271.1 22.3 271.5 22.2C272 22.2 272.4 22.1 272.8 22L273.7 21.8L273.5 20.9C273.5 20.7 273.4 20.5 273.4 20.2C273.4 20 273.3 19.8 273.3 19.6C273.3 19.4 273.3 19.2 273.3 18.9C273.3 18.5 273.3 18.1 273.3 17.6C273.3 17 273.3 16.5 273.3 15.9V13C273.3 11.7 273.3 10.3 273.3 8.9C273.3 7.8 273.3 6.6 273.3 5.5H275C275.4 5.5 275.8 5.5 276.2 5.4C276.6 5.4 276.9 5.4 277.2 5.3C277.5 5.3 278.5 5.2 278.9 4.4C279.1 4 279.2 3.5 279.2 2.9C279.2 2.7 279.2 2.4 279.2 2.2L279.3 2Z" fill="#E2211C"/>
<path d="M295.6 12.0001C295.2 11.1001 294.7 10.4001 294 9.8001C293.3 9.2001 292.5 8.8001 291.6 8.5001C290.1 8.0001 288 8.0001 286.4 8.3001C286.2 8.3001 285.9 8.4001 285.7 8.4001C285.7 7.5001 285.7 6.6001 285.7 5.9001C285.7 4.8001 285.7 3.9001 285.6 3.0001C285.6 2.7001 285.6 2.5001 285.5 2.3001C285.5 1.9001 285.4 1.7001 285.2 1.4001C285 1.1001 284.8 0.900098 284.5 0.800098C284 0.500098 283.1 0.600098 282.1 0.700098C281.6 0.800098 281 0.900098 280.4 1.1001L279.4 1.4001L279.7 2.4001C279.8 2.6001 279.8 2.9001 279.9 3.1001V3.2001C280 3.3001 280 3.5001 280 3.8001C280 4.0001 280.1 4.2001 280.1 4.6001C280.1 4.9001 280.2 5.2001 280.2 5.5001C280.3 5.9001 280.3 6.3001 280.3 6.8001C280.3 7.3001 280.4 7.8001 280.4 8.3001C280.4 8.8001 280.4 9.4001 280.4 9.9001C280.4 10.4001 280.4 10.9001 280.4 11.4001C280.4 12.9001 280.4 14.4001 280.3 16.0001C280.2 17.6001 280.1 19.1001 280 20.6001V21.3001L280.7 21.6001C281.2 21.8001 281.8 21.9001 282.4 22.1001C282.9 22.2001 283.6 22.3001 284.3 22.4001C285 22.5001 285.9 22.5001 286.8 22.5001C288.1 22.5001 289.3 22.4001 290.3 22.1001C291.4 21.8001 292.4 21.4001 293.2 20.8001C294 20.2001 294.7 19.3001 295.2 18.4001C295.7 17.4001 295.9 16.3001 295.9 15.0001C296.2 13.8001 296 12.8001 295.6 12.0001ZM286.2 17.8001C286 17.8001 285.7 17.7001 285.5 17.7001C285.5 17.3001 285.6 16.9001 285.6 16.5001C285.6 15.9001 285.7 15.2001 285.7 14.5001V13.1001C285.9 13.1001 286.1 13.0001 286.3 13.0001C286.8 12.9001 287.4 12.9001 288.1 12.9001C289.1 12.9001 289.8 13.1001 290.2 13.5001C290.6 13.9001 290.8 14.4001 290.8 15.3001C290.8 15.8001 290.7 16.2001 290.6 16.5001C290.4 16.8001 290.2 17.0001 289.9 17.3001C289.6 17.5001 289.3 17.7001 288.8 17.8001C288.1 17.9001 287 17.9001 286.2 17.8001Z" fill="#E2211C"/>
</svg>
