<svg width="509" height="40" viewBox="0 0 509 40" fill="none" xmlns="http://www.w3.org/2000/svg">
<g clip-path="url(#clip0_643_209)">
<path d="M27.1 21.2C26.5 20.3 25.7 19.5 24.7 18.8C24.6 18.8 24.6 18.7 24.5 18.7C24.9 18.2 25.3 17.7 25.7 17.1C26.7 15.5 27.1 13.7 27.1 11.8C27.1 9.7 26.7 7.9 25.9 6.5C25.1 5 24 3.9 22.6 3.1C21.3 2.3 19.8 1.7 18.1 1.4C16.6 1.2 15 1 13.3 1C10 1 6.2 1.5 2 2.4L0 2.9L0.5 4.9C0.6 5.3 0.7 5.8 0.8 6.2C0.9 6.6 1 6.9 1.1 7.4V7.5C1.2 7.9 1.2 8.3 1.3 8.8V8.9C1.4 9.4 1.4 10.1 1.4 10.9C1.5 12.2 1.5 13.5 1.5 14.7V18.7C1.5 21.6 1.5 24.6 1.4 27.4C1.3 30.2 1.3 33 1.2 35.7L1.1 37.2L2.5 37.7C3.5 38 4.6 38.4 5.7 38.6C6.7 38.8 7.9 39 9.2 39.2C10.6 39.4 12 39.5 13.6 39.5C16.1 39.5 18.3 39.2 20.1 38.6C22 38 23.6 37.2 25 36C26.3 34.8 27.3 33.4 27.9 31.9C28.5 30.4 28.8 28.7 28.8 26.9C28.8 25.9 28.7 24.9 28.4 24C28.1 23 27.7 22 27.1 21.2ZM16.6 14.8C15.9 15.4 14.6 15.8 12.7 15.8H10.9C10.9 15.2 10.9 14.6 10.9 14C10.9 12.8 10.9 11.8 10.9 10.9C10.9 10.5 10.9 10.1 10.9 9.7C11 9.7 11 9.7 11.1 9.7C11.7 9.6 12.5 9.6 13.3 9.6C15.4 9.6 16.5 10 17 10.4C17.2 10.5 17.7 10.9 17.7 12.5C17.6 13.4 17.2 14.1 16.6 14.8ZM10.6 29.2C10.7 28.2 10.7 27.1 10.7 25.9V24C10.8 24 11 24 11.1 24H13C14 24 15 24.1 15.9 24.2C16.6 24.3 17.3 24.5 17.8 24.8C18.2 25 18.5 25.3 18.7 25.7L18.8 25.8C19 26.1 19.1 26.7 19.1 27.3C19.1 29.3 18.4 29.9 18.1 30.1C17.3 30.7 15.9 31 14 31C13.3 31 12.6 31 12.1 30.9C11.5 30.8 11 30.7 10.5 30.6C10.5 30.2 10.5 29.7 10.6 29.2Z" fill="#E2211C"/>
<path d="M55.5001 17C54.3001 16 52.9001 15.2 51.3001 14.7C49.8001 14.2 48.1001 14 46.3001 14C44.9001 14 43.5001 14.1 42.2001 14.3C41.9001 14.3 41.6001 14.4 41.3001 14.5C41.3001 13.1 41.3001 11.7 41.3001 10.6C41.3001 8.69995 41.3001 7.09995 41.2001 5.69995C41.2001 4.39995 41.0001 3.49995 40.7001 2.89995C40.3001 2.09995 39.4001 1.19995 37.5001 1.19995C36.8001 1.19995 35.9001 1.29995 35.0001 1.39995C34.1001 1.49995 33.1001 1.69995 32.1001 1.99995L30.1001 2.49995L30.7001 4.49995C30.8001 4.89995 30.9001 5.29995 31.0001 5.69995L31.1001 5.89995C31.2001 6.09995 31.2001 6.29995 31.3001 6.59995V6.79995C31.4001 7.09995 31.4001 7.49995 31.5001 7.89995V7.99995C31.6001 8.39995 31.7001 8.89995 31.7001 9.59995C31.8001 10.3 31.8001 11.1 31.8001 12C31.9001 12.8 31.9001 13.7 31.9001 14.7C32.0001 15.6 32.0001 16.5 32.0001 17.4C32.0001 18.2999 32.0001 19.2 32.0001 20C32.0001 22.5 31.9001 25.1 31.8001 27.9C31.7001 30.6 31.5001 33.2999 31.4001 35.7999L31.3001 37.2999L32.7001 37.7999C33.6001 38.0999 34.6001 38.3999 35.7001 38.5999C36.6001 38.7999 37.7001 39 39.0001 39.2C40.3001 39.2999 41.7001 39.4 43.2001 39.4C45.4001 39.4 47.5001 39.2 49.3001 38.7C51.3001 38.2 53.0001 37.4 54.5001 36.4C56.0001 35.3 57.1001 33.7999 57.9001 32.0999C58.7001 30.3999 59.1001 28.4 59.1001 26.1C59.1001 24.2 58.8001 22.4 58.1001 21C57.6001 19.2999 56.7001 18 55.5001 17ZM49.6001 26.4C49.6001 27.1999 49.5001 27.7999 49.2001 28.4C49.0001 28.9 48.6001 29.3 48.2001 29.6C47.7001 30 47.2001 30.1999 46.5001 30.4C45.7001 30.6 44.8001 30.7 43.8001 30.7C43.1001 30.7 42.5001 30.7 42.0001 30.6C41.7001 30.6 41.4001 30.5 41.1001 30.5C41.1001 29.9 41.2001 29.2999 41.2001 28.7999C41.3001 27.7999 41.3001 26.6 41.3001 25.4L41.4001 23.2C41.7001 23.1 42.0001 23.1 42.3001 23C43.1001 22.7999 44.1001 22.7 45.2001 22.7C46.8001 22.7 47.9001 23 48.7001 23.7C49.3001 24.2 49.6001 25.1 49.6001 26.4Z" fill="#E2211C"/>
<path d="M69.4999 33.9C69.4999 32.7 69.3999 31.4 69.3999 29.7999C69.3999 28.2999 69.3999 26.5999 69.3999 24.7999V19.1C69.3999 15.9 69.4999 13.1 69.5999 10.6C69.6999 8.09995 69.7999 6.09995 69.7999 4.69995C69.7999 2.89995 68.8999 2.09995 68.2999 1.79995C67.6999 1.39995 66.8999 1.19995 65.9999 1.19995C65.6999 1.19995 65.2999 1.19995 64.7999 1.19995C64.2999 1.19995 63.8999 1.19995 63.3999 1.29995C62.8999 1.29995 62.4999 1.39995 61.9999 1.49995C61.5999 1.59995 61.1999 1.59995 60.7999 1.69995L58.8999 2.09995L59.1999 3.99995C59.2999 4.49995 59.3999 4.99995 59.3999 5.39995C59.4999 5.79995 59.4999 6.19995 59.5999 6.69995C59.6999 7.09995 59.6999 7.59995 59.6999 7.89995C59.7999 9.19995 59.7999 10.8 59.7999 12.7C59.7999 14.6 59.7999 16.7 59.7999 19C59.7999 21 59.7999 22.8 59.7999 24.6C59.7999 26.3 59.6999 27.9 59.6999 29.4C59.6999 30.7999 59.6999 31.9999 59.6999 33.0999C59.6999 34.1999 59.6999 35 59.6999 35.7C59.6999 36.6 59.9999 37.3999 60.4999 38.0999C61.4999 39.2999 63.1999 39.2999 63.6999 39.2999C64.4999 39.2999 65.2999 39.1999 66.0999 39.0999C66.8999 39 67.6999 38.7999 68.2999 38.5L69.7999 38L69.5999 36.4C69.5999 35.8 69.5999 35 69.4999 33.9Z" fill="#E2211C"/>
<path d="M99.5 28.8L98.3 27.2L96.7 28.5C96 29 95.1 29.5 94 30C93 30.5 91.7 30.7 90.2 30.7C87.8 30.7 85.9 29.9 84.5 28.2C83 26.4 82.3 23.8 82.3 20.5C82.3 18.7 82.5 17.1 82.9 15.7C83.3 14.4 83.9 13.3 84.6 12.4C85.3 11.5 86.1 10.9 87 10.4C87.9 10 88.8 9.7 89.8 9.7C90.5 9.7 91.1 9.7 91.8 9.8C92.4 9.9 92.9 9.9 93.4 10H93.5C94 10.1 94.4 10.1 94.8 10.2H95C95.6 10.3 96.1 10.3 96.7 10.3C98.4 10.3 99.7 9.4 100.3 7.9C100.7 6.9 100.9 5.4 100.9 3.2V1.2H98.9C98.3 1.2 97.7 1.2 97.1 1.2C96.5 1.1 95.8 1.1 95.2 1.1C94.5 1 93.7 1 93 1C91.9 1 91 1 89.9 1C87.1 1 84.5 1.6 82.3 2.8C80.1 3.9 78.3 5.4 76.8 7.3C75.4 9.1 74.3 11.3 73.5 13.8C72.8 16.1 72.5 18.6 72.5 21.1C72.5 24.1 72.9 26.8 73.8 29.2C74.7 31.5 76 33.5 77.6 35.1C79.2 36.7 81.1 37.9 83.3 38.7C85.4 39.4 87.7 39.8 90.1 39.8C91.3 39.8 92.6 39.7 93.8 39.5C95 39.3 96.1 39 97.1 38.6C98.2 38.2 99.1 37.6 99.7 37C100.9 35.9 101.2 34.7 101.2 33.9C101.2 33.1 101.1 32.3 100.8 31.4C100.5 30.4 100.1 29.5 99.5 28.8Z" fill="#E2211C"/>
<path d="M130.7 6.20005C129.2 4.50005 127.4 3.10005 125.2 2.20005C123 1.30005 120.5 0.800049 117.7 0.800049C115 0.800049 112.5 1.40005 110.3 2.50005C108.2 3.60005 106.3 5.10005 104.9 7.00005C103.4 8.80005 102.3 11 101.5 13.4C100.7 15.8 100.3 18.3 100.3 20.8C100.3 23.5 100.7 26.1 101.4 28.4C102.2 30.7 103.3 32.8 104.7 34.5C106.2 36.2001 108 37.5 110.2 38.5C112.4 39.4001 114.8 39.9001 117.6 39.9001C120.3 39.9001 122.7 39.3 124.9 38.2001C127.1 37.1001 128.9 35.6001 130.4 33.7001C131.9 31.8001 133 29.7 133.8 27.3C134.6 24.9 135 22.4 135 19.9C135 17.2 134.6 14.7 134 12.4C133.3 9.90005 132.2 7.90005 130.7 6.20005ZM125.3 20.1C125.3 21.8001 125.1 23.4 124.6 24.8C124.2 26.2 123.6 27.3001 122.9 28.2001C122.2 29.1 121.4 29.8 120.5 30.3C119.7 30.8 118.8 31 117.9 31C116.7 31 115.7 30.8 114.8 30.4C113.9 30 113.1 29.3 112.4 28.5C111.7 27.6 111.1 26.5 110.7 25.2001C110.3 23.8001 110.1 22.2001 110.1 20.5C110.1 18.7001 110.3 17.1 110.8 15.7C111.2 14.3 111.8 13.2 112.5 12.3C113.2 11.4 114 10.7 114.9 10.3C115.8 9.80005 116.6 9.60005 117.6 9.60005C118.7 9.60005 119.7 9.80005 120.7 10.3C121.6 10.7 122.4 11.3 123 12.2C123.7 13.1 124.3 14.2 124.7 15.5C125.1 16.8 125.3 18.3001 125.3 20.1Z" fill="#E2211C"/>
<path d="M227 34.6C226.9 34 226.8 33.2 226.7 32.4C226.6 31.5 226.6 30.4 226.6 29.1V22.5L226.7 16.6C226.8 14.7 226.8 12.7 226.9 10.8C227 8.8 227.2 6.6 227.3 4.3L227.4 2.6L225.8 2.2C224.8 2 223.7 1.8 222.6 1.6C221.6 1.4 220.5 1.3 219.2 1.2C218.1 1 216.7 1 215.2 1C213.1 1 211.2 1.2 209.4 1.7C207.5 2.1 205.8 2.9 204.4 3.9C202.9 4.9 201.7 6.3 200.9 8C200.1 9.6 199.7 11.6 199.7 13.9C199.7 16.6 200.5 19 202 21C202.9 22.1 204 23.1 205.3 23.8C205.1 24.1 204.9 24.5 204.6 24.9C204.2 25.5 203.7 26.3 203.2 27.3C202.7 28.1 202.3 28.8 202 29.3C201.7 29.7 201.4 30 201.3 30.1C201.2 30.2 201.1 30.2 201 30.3C200.8 30.3 200.6 30.3 200.3 30.3V30.1L198.8 30.3H198.6L198 30.4C197.9 30.4 197.9 30.4 197.8 30.4C197.6 30.4 197.5 30.4 197.2 30C196.7 29.3 196.3 28.4 195.9 27.1C195.3 25.1 194.7 23 194.1 21C193.6 18.9 193 16.9 192.6 15C192.1 13.1 191.7 11.4 191.3 9.8C190.9 8.1 190.5 6.8 190.1 5.8C189.8 5.1 189.6 4.5 189.4 4C189.1 3.3 188.7 2.8 188.2 2.4C187.7 2 187.1 1.7 186.4 1.5C185.9 1.4 185.3 1.3 184.5 1.3C183.9 1.3 183.2 1.4 182.6 1.5C182 1.6 181.4 1.7 180.7 1.8L177.7 2.4L177.4 3.6C177.1 4.9 176.6 6.5 176 8.1C175.4 9.8 174.7 11.6 173.9 13.5C173.1 15.3 172.3 17.2 171.5 19.1C170.7 21 169.9 22.9 169.1 24.7C168.4 26.5 167.7 28.1 167.2 29.7C167.2 29.8 167.2 29.8 167.1 29.9H165.4C164.9 29.9 164.6 29.9 164.5 29.8H164.4C164.3 29.7 164.1 29.5 164 29.3C163.8 28.9 163.5 28.4 163.2 27.8C162.4 26.3 161.7 24.9 161.2 23.9C160.6 22.7 160 21.8 159.5 21C159 20.2 158.4 19.5 157.9 18.9C157.8 18.8 157.8 18.8 157.7 18.7C158.3 17.8 158.8 17 159.3 16.3C160.1 15.2 160.9 14.1 161.7 13.1C162.5 12.1 163.4 11.1 164.3 10.2C165.2 9.2 166.2 8.2 167.2 7.2L168.6 5.8L167.2 4.4C166.9 4.1 166.7 3.9 166.4 3.6L165.7 3C165.4 2.7 165.1 2.4 164.7 2.1C163.1 0.9 161.7 0.9 160.8 1.2C159.6 1.5 158.5 2.3 157.4 3.6C156.7 4.5 156 5.4 155.2 6.5C154.5 7.5 153.8 8.6 153 9.8C152.3 10.9 151.6 12.1 150.9 13.3C150.4 14.1 149.9 14.9 149.5 15.7C149.2 15.7 148.9 15.7 148.7 15.7C148.5 15.7 148.4 15.7 148.2 15.7C148.2 14.7 148.2 13.7 148.2 12.8C148.2 11.3 148.3 9.9 148.3 8.7C148.3 7.3 148.4 6 148.4 4.8C148.4 3.2 147.4 1.4 144.7 1.4C144 1.4 143.3 1.5 142.7 1.6C142.1 1.7 141.5 1.8 141 1.9C140.4 2 139.8 2.2 139.3 2.3L137.3 2.8L137.9 4.8C138 5.2 138.2 5.6 138.3 6.1C138.4 6.4 138.5 6.7 138.6 7V7.2C138.7 7.5 138.8 7.9 138.8 8.3C138.9 8.8 138.9 9.3 138.9 9.9C138.9 11.8 138.9 13.8 138.9 15.9C138.9 18 138.9 20.1 138.9 22.3L138.8 28.7C138.8 30.8 138.8 32.8 138.8 34.7C138.8 36.3 139.1 37.4 139.8 38.3C140.5 39.1 141.7 39.5 143.2 39.5C143.7 39.5 144.3 39.5 145 39.4C145.7 39.3 146.4 39.2 147.1 39.1L149.1 38.7L148.6 36.7C148.5 36.4 148.5 36 148.4 35.6C148.3 35.3 148.3 35 148.3 34.7C148.3 34.3 148.3 33.9 148.3 33.5V28.5C148.3 27 148.3 25.5 148.3 23.9C148.7 23.9 149.1 24 149.4 24H149.6C149.9 24 150.1 24.1 150.2 24.2C150.4 24.3 150.7 24.4 150.8 24.6C151.2 24.9 151.8 25.6 152.5 27.1C153.2 28.6 154.1 30.4 155.1 32.4C155.7 33.6 156.3 34.7 156.7 35.5C157.2 36.4 157.8 37.1 158.4 37.8C159.1 38.5 159.8 38.9 160.6 39.2C161.4 39.5 162.2 39.6 163.2 39.6C164.7 39.6 165.9 39.2 166.7 38.4C167.2 39 168.1 39.6 169.7 39.6C170.4 39.6 171 39.6 171.5 39.5C172.1 39.5 172.6 39.4 173 39.3C173.4 39.2 173.8 39.2 174.2 39.1L175.8 38.8V37.1C175.8 35.9 175.9 34.6 176.2 33.4C176.4 32.5 176.6 31.5 176.9 30.3C177.2 30.3 177.4 30.3 177.7 30.3C178.7 30.3 179.8 30.3 180.9 30.3H183.4C184.2 30.3 185 30.2 185.7 30.2C186.3 30.2 186.8 30.1 187.3 30.1C187.4 30.4 187.5 30.7 187.6 30.9L188.4 33.1C188.8 34.3 189.1 35.2 189.6 36C190.1 36.9 190.6 37.5 191.3 38.1C192 38.6 192.7 38.9 193.4 39.1C194.1 39.3 194.8 39.4 195.6 39.4C197.3 39.4 198.5 39 199.4 38.2L199.5 38.3L199.6 38.4C200.4 39.2 201.6 39.6 203.1 39.6C204.1 39.6 205 39.4 205.8 39.1C206.6 38.8 207.4 38.3 208.1 37.5C208.7 36.9 209.3 36.1 209.9 35.2C210.4 34.3 211 33.2 211.7 32C212.4 30.5 213.1 29.3 213.6 28.4C214.2 27.4 214.6 26.9 214.9 26.6C215.2 26.3 215.5 26.1 215.8 26C216.2 25.9 216.7 25.8 217.4 25.8H217.9C217.9 26.3 217.9 26.7 217.9 27.2V33.7C217.9 34.7 217.9 35.4 218 35.9C218.1 37.3 218.6 38.2 219.5 38.8C220.1 39.2 221 39.4 222 39.4C222.5 39.4 223.1 39.4 223.6 39.3C224.1 39.2 224.6 39.2 225.1 39.1C225.6 39 226.1 38.9 226.5 38.8L228.5 38.4L228 36.4C227.3 35.8 227.1 35.2 227 34.6ZM217.7 9.8C217.7 10.1 217.6 10.5 217.6 11C217.5 12.6 217.4 14.8 217.4 17.5C216.6 17.6 215.5 17.6 214.1 17.6C212.4 17.6 211.1 17.2 210.4 16.6C209.7 15.9 209.3 15 209.3 13.9C209.3 12.5 209.7 11.4 210.4 10.7C211.1 10 212.7 9.6 214.8 9.6C215.5 9.6 216.3 9.6 217.1 9.7C217.3 9.7 217.5 9.7 217.7 9.8ZM184.7 21.9C183.7 21.9 182.8 21.9 181.8 21.9H179.4C179.5 21.5 179.7 21.2 179.9 20.8C180.5 19.5 181 18.1 181.6 16.8C182 15.9 182.4 15 182.8 14.1C183 14.8 183.2 15.6 183.4 16.3C183.7 18.1 184.2 20 184.7 21.9Z" fill="#E2211C"/>
<path d="M281.2 12.9001C282 11.9001 282.8 10.9001 283.6 9.90008C284.4 9.00008 285.4 8.00008 286.4 6.90008L287.8 5.50008L286.4 4.10008C286.1 3.80008 285.9 3.60008 285.6 3.30008C285.4 3.10008 285.2 2.90008 284.9 2.70008C284.6 2.40008 284.3 2.10008 283.9 1.80008C282.3 0.600079 281 0.600079 280.1 0.800079C279 1.10008 277.9 1.90008 276.8 3.30008C275.4 5.10008 274 7.10008 272.6 9.50008C271.5 11.4001 270.4 13.4001 269.3 15.4001C269.1 15.4001 269 15.4001 268.8 15.4001C268.7 15.4001 268.6 15.4001 268.5 15.4001L268.6 12.6001C268.7 11.1001 268.7 9.70008 268.7 8.50008C268.7 7.10008 268.8 5.80008 268.8 4.60008C268.8 3.00008 267.8 1.20008 265.1 1.20008C264.4 1.20008 263.7 1.30008 263.1 1.40008C262.5 1.50008 261.9 1.60008 261.4 1.70008C260.9 1.80008 260.4 1.90008 260 2.00008L257.9 2.40008L258.5 4.50008C258.6 4.90008 258.7 5.30008 258.8 5.70008V5.80008C258.9 6.10008 259 6.40008 259 6.70008C259.1 7.10008 259.1 7.50008 259.1 8.00008V8.10008C259.2 8.50008 259.2 9.10008 259.2 9.70008C259.2 10.9001 259.2 12.1001 259.2 13.4001C259.2 14.1001 259.2 14.8001 259.2 15.5001C259 15.5001 258.9 15.5001 258.7 15.5001C258.5 15.5001 258.3 15.5001 258.1 15.5001C257.1 13.5001 256 11.5001 254.8 9.60008C253.4 7.20008 252 5.20008 250.7 3.40008C249.6 2.00008 248.5 1.10008 247.4 0.900079C246.5 0.700079 245.2 0.700079 243.5 1.90008C243.2 2.20008 242.8 2.40008 242.6 2.70008L241.9 3.30008C241.6 3.60008 241.3 3.80008 241.1 4.10008L239.7 5.50008L241.1 6.90008C242.1 7.90008 243.1 8.90008 243.9 9.90008C244.7 10.8001 245.5 11.8001 246.2 12.8001C247 13.8001 247.7 14.9001 248.5 16.1001C249 16.8001 249.5 17.7001 250.1 18.5001C250 18.6001 249.9 18.7001 249.8 18.8001C249.3 19.4001 248.8 20.0001 248.3 20.8001C247.8 21.6001 247.2 22.6001 246.7 23.7001C246.1 24.8001 245.5 26.1001 244.8 27.6001C244.5 28.3001 244.2 28.8001 244 29.1001L243.9 29.2001C243.8 29.4001 243.7 29.5001 243.6 29.6001C243.5 29.6001 243.2 29.6001 242.8 29.6001H241.2L240.8 31.1001C240.7 31.4001 240.7 31.8001 240.6 32.2001C240.5 32.8001 240.4 33.6001 240.4 34.3001C240.4 35.8001 240.8 36.9001 241.6 37.8001C242.4 38.6001 243.6 39.0001 245.1 39.0001C246.1 39.0001 247 38.9001 247.7 38.6001C248.6 38.3001 249.3 37.8001 249.9 37.1001C250.5 36.5001 251 35.7001 251.5 34.8001C251.9 34.0001 252.4 33.0001 253 31.7001C253.9 29.7001 254.7 27.9001 255.3 26.5001C256 25.0001 256.6 24.3001 257 24.0001C257.2 23.9001 257.4 23.7001 257.6 23.6001C257.8 23.5001 258 23.4001 258.2 23.4001C258.4 23.4001 258.6 23.3001 258.8 23.3001L258.7 27.9001C258.6 30.1001 258.6 32.2001 258.6 34.3001C258.6 35.9001 258.9 37.0001 259.5 37.8001L259.6 37.9001C260.4 38.6001 261.5 39.0001 263 39.0001C263.5 39.0001 264.1 39.0001 264.8 38.9001C265.6 38.8001 266.3 38.7001 266.9 38.6001L268.9 38.1001L268.4 36.1001C268.3 35.8001 268.3 35.4001 268.2 35.0001C268.1 34.7001 268.1 34.4001 268.1 34.1001C268.1 33.7001 268.1 33.3001 268.1 32.9001C268.1 31.7001 268.1 30.0001 268.1 27.9001C268.1 26.4001 268.2 24.9001 268.2 23.3001C268.5 23.3001 268.7 23.4001 269 23.4001C269.3 23.5001 269.5 23.5001 269.7 23.6001C269.9 23.7001 270.1 23.8001 270.3 24.0001C270.7 24.3001 271.2 25.0001 271.9 26.4001C272.6 27.9001 273.4 29.7001 274.4 31.7001C275 32.9001 275.5 34.0001 275.9 34.8001C276.4 35.7001 276.9 36.4001 277.4 37.0001L277.5 37.1001C278.1 37.7001 278.9 38.2001 279.7 38.5001C280.5 38.8001 281.3 38.9001 282.3 38.9001C283.9 38.9001 285.1 38.5001 285.8 37.6001C286.6 36.8001 287 35.6001 287 34.1001C287 33.7001 287 33.3001 286.9 32.9001C286.9 32.6001 286.8 32.3001 286.8 32.0001C286.8 31.7001 286.7 31.4001 286.7 31.1001L286.5 29.3001H284.7C284.2 29.3001 284 29.3001 283.9 29.3001C283.8 29.2001 283.7 29.0001 283.5 28.8001C283.4 28.6001 283.1 28.1001 282.7 27.2001C282 25.7001 281.3 24.4001 280.8 23.3001C280.2 22.2001 279.7 21.2001 279.2 20.5001C278.7 19.7001 278.1 18.9001 277.7 18.4001C277.6 18.3001 277.5 18.2001 277.4 18.1001C277.9 17.2001 278.4 16.4001 278.9 15.7001C279.6 15.1001 280.4 14.0001 281.2 12.9001Z" fill="#E2211C"/>
<path d="M319 34.7999L318.9 33.2999C318.9 32.7999 318.9 32.3999 318.9 31.9999C318.8 30.0999 318.8 27.9999 318.8 25.6999V18.7999C318.8 17.7999 318.8 16.5999 318.8 15.2999L318.9 11.4999C319 10.1999 319 8.99993 319 7.89993C319 6.69993 319 5.79993 319 4.99993C319 3.79993 318.7 2.89993 318 2.19993C317 1.29993 315.4 1.19993 313.1 1.49993C312.2 1.59993 311.4 1.69993 310.7 1.79993L309.9 1.99993L309.4 2.69993C308.4 4.19993 307.3 5.89993 305.9 7.89993C304.6 9.89993 303.2 11.9999 301.8 14.1999C300.4 16.3999 299 18.5999 297.6 20.7999C297.6 20.2999 297.6 19.6999 297.7 19.0999L297.8 14.7999C297.8 13.2999 297.8 11.8999 297.8 10.6999C297.8 9.39993 297.8 8.19993 297.8 7.19993C297.8 6.09993 297.8 5.19993 297.8 4.39993C297.8 2.99993 296.8 1.39993 294.1 1.39993C293.2 1.39993 292.4 1.49993 291.7 1.59993C290.9 1.69993 290 1.79993 289 2.09993L287.2 2.59993L287.5 4.39993C287.6 4.89993 287.7 5.29993 287.7 5.69993V5.89993C287.8 6.19993 287.8 6.59993 287.9 6.89993C288 7.29993 288 7.69993 288 8.09993C288 8.49993 288 9.09993 288 9.69993C288 10.9999 288 12.3999 288 14.0999V18.8999C288 20.4999 288 22.0999 288 23.7999C288 25.3999 288 26.9999 288 28.3999C288 29.7999 288 30.9999 288 32.1999V35.8999V36.0999C288.1 36.6999 288.2 37.1999 288.5 37.6999L288.6 37.8999C289 38.3999 289.5 38.7999 290.1 39.0999C291 39.4999 292.2 39.4999 293.9 39.3999C294.6 39.3999 295.3 39.2999 296 39.0999L296.9 38.8999L297.3 37.9999C297.6 37.3999 298 36.5999 298.6 35.4999C299.2 34.3999 300 33.0999 300.8 31.6999C301.6 30.2999 302.5 28.6999 303.6 26.9999C304.6 25.2999 305.7 23.5999 306.8 21.8999C307.6 20.4999 308.5 19.1999 309.3 17.7999V17.8999C309.3 19.0999 309.3 20.1999 309.3 21.3999V24.3999L309.2 27.8999C309.2 28.9999 309.2 29.9999 309.2 31.0999C309.2 31.9999 309.2 32.8999 309.2 33.6999V35.4999C309.2 36.8999 309.6 37.8999 310.3 38.5999L310.4 38.6999C311.1 39.2999 312 39.4999 313.4 39.4999C313.9 39.4999 314.5 39.4999 315.2 39.3999C316 39.2999 316.9 39.0999 317.8 38.7999L319.3 38.2999L319.1 36.6999C319.1 35.8999 319 35.3999 319 34.7999Z" fill="#E2211C"/>
<path d="M346.5 4.0001C345.2 3.0001 343.6 2.2001 341.9 1.8001C340.2 1.3001 338.3 1.1001 336.3 1.1001C334.7 1.1001 332.8 1.2001 330.6 1.4001C328.4 1.6001 326.3 1.9001 324.1 2.4001L321.9 2.9001L322.6 5.0001C322.9 5.9001 323.1 7.0001 323.3 8.3001C323.5 9.6001 323.6 11.1001 323.7 12.7001C323.8 13.9001 323.8 15.0001 323.8 16.0001V19.0001C323.8 22.7001 323.8 25.9001 323.7 28.5001C323.6 31.2001 323.6 33.5001 323.6 35.6001C323.6 37.2001 324.3 38.1001 324.8 38.5001L324.9 38.6001C325.6 39.1001 326.5 39.3001 327.6 39.3001C328.1 39.3001 328.7 39.3001 329.3 39.2001C329.8 39.1001 330.3 39.1001 330.8 39.0001L334.2 38.3001L333.8 36.4001C333.7 35.7001 333.6 35.1001 333.5 34.3001C333.4 33.7001 333.3 33.1001 333.3 32.5001C333.2 31.9001 333.2 31.3001 333.2 30.9001V29.7001C333.2 29.1001 333.2 28.5001 333.2 27.9001C333.2 27.5001 333.2 27.2001 333.2 26.8001C333.3 26.8001 333.4 26.8001 333.5 26.8001H335C337 26.8001 338.9 26.6001 340.8 26.2001C342.7 25.7001 344.4 25.0001 345.8 23.9001C347.3 22.8001 348.5 21.4001 349.4 19.7001C350.3 18.0001 350.7 16.0001 350.7 13.6001C350.7 11.5001 350.3 9.6001 349.6 8.1001C349 6.5001 347.9 5.1001 346.5 4.0001ZM341 13.7001C341 15.2001 340.6 16.3001 339.8 17.0001C338.9 17.8001 337.4 18.1001 335.4 18.1001C334.9 18.1001 334.4 18.1001 334 18.1001C333.8 18.1001 333.6 18.1001 333.4 18.0001C333.4 16.8001 333.4 15.8001 333.3 14.9001C333.3 13.4001 333.3 12.2001 333.2 11.1001C333.2 10.6001 333.1 10.1001 333.1 9.7001C333.2 9.7001 333.4 9.7001 333.5 9.7001C335.1 9.6001 336.9 9.5001 338.2 9.9001C338.8 10.1001 339.3 10.3001 339.8 10.7001C340.2 11.0001 340.5 11.3001 340.7 11.8001C340.9 12.3001 341 12.9001 341 13.7001ZM331.4 10.0001C331.3 10.0001 331.3 10.0001 331.2 10.0001H331.4Z" fill="#E2211C"/>
<path d="M383.7 33.6C383.7 32.2 383.6 30.7001 383.6 29C383.6 27.3 383.6 25.5 383.6 23.8V18.8C383.6 17.8 383.6 16.6 383.6 15.3L383.8 11.3C383.9 9.90005 383.9 8.70005 383.9 7.60005C384 6.40005 384 5.50005 384 4.80005C384 3.10005 383.1 2.30005 382.6 1.90005C382 1.50005 381.2 1.30005 380.2 1.30005C379.5 1.30005 378.7 1.40005 377.9 1.40005C377 1.50005 376.1 1.60005 375.3 1.80005L373.7 2.20005L373.8 3.90005C373.9 4.90005 373.9 5.80005 374 6.70005C374.1 7.40005 374.1 8.10005 374.1 9.00005C374.2 9.70005 374.2 10.3 374.2 10.7V15.5C373.5 15.5 372.9 15.4 372.2 15.4C369.7 15.3 367.2 15.3 364.7 15.4C364.3 15.4 363.8 15.4 363.3 15.5C363.3 15.2 363.3 15 363.3 14.7C363.4 13.4 363.4 12.1 363.4 10.8C363.5 9.40005 363.5 8.20005 363.5 7.00005C363.5 5.80005 363.5 4.90005 363.5 4.20005C363.5 2.80005 362.6 1.80005 361.2 1.60005C359.7 1.30005 358.3 1.50005 356.9 1.70005C356 1.90005 355.1 2.00005 354.2 2.20005L352.1 2.70005L352.7 4.80005C352.8 5.30005 353 5.80005 353.1 6.40005V6.50005C353.2 7.00005 353.3 7.60005 353.4 8.20005C353.5 8.90005 353.5 9.70005 353.6 10.7C353.7 11.6 353.7 12.7 353.7 14C353.7 14.9 353.7 16 353.7 17.2C353.7 18.4 353.7 19.6 353.7 20.8L353.6 24.6C353.6 25.8001 353.6 27 353.6 28.1C353.6 28.5 353.6 28.9 353.6 29.4C353.6 30 353.5 30.6 353.5 31.2001L353.4 33C353.4 33.6 353.3 34.2 353.3 34.6C353.3 36.1 353.6 37.1 354.1 38C354.6 38.6 355.5 39.4001 357.3 39.4001C357.8 39.4001 358.4 39.4 359.2 39.3C360.1 39.2001 360.8 39.1 361.5 39L363.3 38.6L363 36.8C362.9 36.4 362.9 36 362.8 35.6C362.7 35.3 362.7 35 362.7 34.7001C362.7 34.3 362.7 33.9001 362.7 33.5V31.2001L362.9 25.1C362.9 24.8001 362.9 24.6 362.9 24.4C363.1 24.4 363.3 24.4 363.5 24.4C364.4 24.4 365.4 24.4 366.4 24.4C369.2 24.4 371.7 24.5 373.9 24.6C373.9 25.2001 373.9 25.8 373.9 26.5C373.9 27.3 373.9 28.2001 373.9 29.2001C373.9 30.1 373.9 31 373.9 32V36.1C373.9 37 374.2 37.8 374.7 38.5C375.7 39.7001 377.4 39.7001 377.9 39.7001C378.7 39.7001 379.5 39.6 380.3 39.5C381.1 39.4001 381.9 39.2001 382.5 38.9001L384.1 38.4001L383.9 36.8C383.8 35.7001 383.7 34.8 383.7 33.6Z" fill="#E2211C"/>
<path d="M417 6.20005C415.5 4.50005 413.7 3.10005 411.5 2.20005C409.3 1.30005 406.8 0.800049 404 0.800049C401.3 0.800049 398.8 1.40005 396.6 2.50005C394.5 3.60005 392.6 5.10005 391.2 7.00005C389.7 8.80005 388.6 11 387.8 13.4C387 15.8 386.6 18.3 386.6 20.8C386.6 23.5 387 26.1 387.7 28.4C388.5 30.7 389.6 32.8 391 34.5C392.5 36.2001 394.3 37.5 396.5 38.5C398.7 39.4001 401.1 39.9001 403.9 39.9001C406.6 39.9001 409 39.3 411.2 38.2001C413.4 37.1001 415.2 35.6001 416.7 33.7001C418.2 31.8001 419.3 29.7 420.1 27.3C420.9 24.9 421.3 22.4 421.3 19.9C421.3 17.2 420.9 14.7 420.3 12.4C419.6 9.90005 418.5 7.90005 417 6.20005ZM411.6 20.1C411.6 21.8001 411.4 23.4 410.9 24.8C410.5 26.2 409.9 27.3001 409.2 28.2001C408.5 29.1 407.7 29.8 406.8 30.3C406 30.8 405.1 31 404.2 31C403 31 402 30.8 401.1 30.4C400.2 30 399.4 29.3 398.7 28.5C398 27.6 397.4 26.5 397 25.2001C396.6 23.8001 396.4 22.2001 396.4 20.5C396.4 18.7001 396.6 17.1 397.1 15.7C397.5 14.3 398.1 13.2 398.8 12.3C399.5 11.4 400.3 10.7 401.2 10.3C402.1 9.80005 402.9 9.60005 403.9 9.60005C405 9.60005 406 9.80005 407 10.3C407.9 10.7 408.7 11.3 409.3 12.2C410 13.1 410.6 14.2 411 15.5C411.4 16.8 411.6 18.3001 411.6 20.1Z" fill="#E2211C"/>
<path d="M507.4 20.8C506.7 19.3 505.8 18 504.6 17C503.4 16 502 15.2 500.4 14.7C498.9 14.2 497.2 14 495.4 14C494 14 492.6 14.1 491.3 14.3C491 14.4 490.7 14.4 490.4 14.5C490.4 13 490.4 11.7 490.4 10.6C490.4 8.7 490.4 7.1 490.3 5.7C490.3 5.2 490.2 4.8 490.2 4.4C490.1 3.8 490 3.2 489.7 2.8C489.4 2.3 488.9 1.8 488.3 1.6C487.3 1.1 485.9 1.2 484.1 1.5C483.2 1.6 482.2 1.8 481.2 2.1L479.4 2.6L479.2 0L476.8 0.8C475.9 1.1 474.5 1.3 472.8 1.4C470.9 1.5 468.5 1.5 465.8 1.5H462.9L459.8 1.4C458.8 1.4 457.7 1.4 456.8 1.4C455.8 1.4 454.9 1.4 454.1 1.4C452.8 1.4 451.8 1.8 451.1 2.5V1.4H449.1C448.5 1.4 447.9 1.4 447.3 1.4C446.7 1.3 446 1.3 445.4 1.3C444.7 1.2 443.9 1.2 443.2 1.2C442.2 1 441.2 1 440.2 1C437.4 1 434.8 1.6 432.6 2.8C430.4 3.9 428.6 5.4 427.1 7.3C425.7 9.1 424.6 11.3 423.8 13.8C423.1 16.2 422.8 18.6 422.8 21.1C422.8 24.1 423.2 26.8 424.1 29.2C425 31.5 426.3 33.5 427.9 35.1C429.5 36.7 431.4 37.9 433.6 38.7C435.7 39.4 438 39.8 440.4 39.8C441.6 39.8 442.9 39.7 444.1 39.5C445.3 39.3 446.4 39 447.4 38.6C448.5 38.2 449.4 37.6 450 37C451.2 35.9 451.5 34.7 451.5 33.9C451.5 33.1 451.4 32.3 451.1 31.4C450.8 30.5 450.4 29.6 449.8 28.9L448.6 27.3L447 28.6C446.3 29.1 445.4 29.7 444.3 30.2C443.3 30.7 442 30.9 440.5 30.9C438.1 30.9 436.2 30.1 434.8 28.4C433.3 26.6 432.6 24 432.6 20.7C432.6 18.9 432.8 17.3 433.2 15.9C433.6 14.6 434.2 13.5 434.9 12.6C435.6 11.7 436.4 11.1 437.3 10.6C438.2 10.2 439.1 9.9 440.1 9.9C440.8 9.9 441.4 9.9 442.1 10C442.7 10.1 443.2 10.1 443.7 10.2H443.8C444.3 10.3 444.7 10.3 445.1 10.4H445.3C445.9 10.5 446.4 10.5 447 10.5C448.6 10.5 449.9 9.7 450.5 8.2L450.6 9.6L452.2 9.8C452.7 9.9 453.3 9.9 454.1 10C454.8 10.1 455.7 10.1 456.6 10.2L460.3 10.3C460.3 11.5 460.3 12.9 460.2 14.3L460 27.4C460 29.5 460 31.3 460 33C460 33.7 460 34.4 460.1 35V35.1C460.2 35.8 460.3 36.4 460.4 36.8L460.5 37C460.8 37.7 461.3 38.3 461.9 38.7L462.1 38.8C462.7 39.1 463.5 39.3 464.6 39.3C465.1 39.3 465.7 39.3 466.4 39.2C467.2 39.2 468 39 468.7 38.8L470.4 38.3L470.1 36.6C470 36.2 470 35.8 469.9 35.4C469.8 35.1 469.8 34.8 469.8 34.5C469.8 34.1 469.8 33.8 469.8 33.4C469.8 32.8 469.8 32 469.8 31.1C469.8 30.1 469.8 29.1 469.8 28.2V23.3C469.8 21.1 469.8 18.8 469.8 16.3C469.8 14.4 469.8 12.6 469.8 10.8H472.4C473.1 10.8 473.8 10.7 474.4 10.7C475.1 10.7 475.6 10.6 476.1 10.6C476.7 10.5 478.4 10.4 479.3 8.9C479.7 8.2 479.9 7.3 479.9 6.2C479.9 5.8 479.9 5.4 479.8 4.9C479.8 4.5 479.7 4.1 479.7 3.8C479.7 3.7 479.7 3.7 479.7 3.6L480 4.6C480.1 5 480.2 5.4 480.3 5.8L480.4 6C480.5 6.2 480.5 6.5 480.6 6.8V6.9C480.7 7.3 480.8 7.6 480.8 8.1V8.2C480.9 8.6 481 9.1 481 9.8C481.1 10.5 481.1 11.2 481.2 12.1C481.3 12.9 481.3 13.8 481.3 14.7C481.3 15.6 481.3 16.5 481.3 17.5C481.3 18.4 481.3 19.3 481.3 20.1C481.3 22.6 481.2 25.2 481.1 28C481 30.7 480.8 33.4 480.7 35.9L480.6 37.4L482 37.9C482.9 38.2 483.9 38.5 485 38.7C485.9 38.9 487 39.1 488.3 39.3C489.6 39.4 491 39.5 492.5 39.5C494.7 39.5 496.8 39.3 498.6 38.8C500.6 38.3 502.3 37.5 503.8 36.5C505.3 35.4 506.4 33.9 507.2 32.2C508 30.5 508.4 28.5 508.4 26.2C508.4 24 508.1 22.3 507.4 20.8ZM498.7 26.4C498.7 27.2 498.6 27.8 498.3 28.4C498.1 28.9 497.7 29.3 497.3 29.6C496.8 30 496.3 30.2 495.6 30.4C494.8 30.6 493.9 30.7 492.9 30.7C492.2 30.7 491.6 30.7 491.1 30.6C490.8 30.6 490.5 30.5 490.2 30.5C490.2 29.9 490.3 29.3 490.3 28.8C490.4 27.8 490.4 26.6 490.4 25.3L490.5 23.1C490.8 23 491 23 491.3 22.9C492.1 22.7 493.1 22.7 494.3 22.7C495.9 22.7 497 23 497.8 23.7C498.4 24.2 498.7 25.1 498.7 26.4Z" fill="#E2211C"/>
</g>
<defs>
<clipPath id="clip0_643_209">
<rect width="508.4" height="39.8" fill="white"/>
</clipPath>
</defs>
</svg>
