<svg width="268" height="88" viewBox="0 0 268 88" fill="none" xmlns="http://www.w3.org/2000/svg">
<path d="M28.6 39.3998C28.5 38.2998 28.4 37.0998 28.3 35.7998C28.2 34.4998 28.2 33.0998 28.2 31.7998C28.2 30.4998 28.2 29.2998 28.2 28.2998C28.2 24.7998 28.3 21.7998 28.4 19.1998C28.6 16.4998 28.7 14.5998 28.7 13.3998C28.7 12.9998 28.6 12.5998 28.5 12.2998C28.4 11.9998 28.2 11.4998 27.6 11.1998C27.3 10.9998 26.8 10.7998 26.2 10.6998C25.7 10.5998 25.1 10.4998 24.3 10.4998C23.7 10.4998 22.9 10.3998 22 10.4998C20.1 10.3998 17.6 10.3998 14.6 10.4998C13 10.4998 11.2 10.5998 9.09999 10.6998L7.89999 10.7998L8.19999 11.9998C8.29999 12.5998 8.39999 13.2998 8.49999 13.8998C8.59999 14.4998 8.59999 15.1998 8.59999 15.9998C8.59999 17.5998 8.49999 19.2998 8.39999 20.9998C8.29999 22.6998 8.09999 24.4998 7.79999 26.1998C7.39999 28.6998 6.99999 30.6998 6.49999 32.0998C5.99999 33.4998 5.49999 34.5998 4.99999 35.3998C4.59999 36.0998 4.09999 36.4998 3.69999 36.6998C3.09999 36.9998 2.59999 37.0998 2.09999 36.8998C1.99999 36.8998 1.89999 36.8998 1.89999 36.7998L0.899988 36.4998L0.599988 37.5998C0.499988 37.9998 0.399988 38.2998 0.399988 38.6998C0.299988 38.9998 0.299988 39.3998 0.299988 39.7998C0.299988 40.1998 0.299988 40.4998 0.299988 40.8998C0.299988 41.9998 0.499988 42.7998 1.09999 43.2998C1.59999 43.6998 2.29999 43.9998 3.39999 43.9998C4.79999 43.9998 6.09999 43.6998 7.19999 42.9998C8.39999 42.3998 9.49999 41.2998 10.4 39.8998C11.3 38.4998 12.1 36.6998 12.8 34.4998C13.5 32.2998 14.1 29.6998 14.5 26.4998C14.8 24.5998 15 22.7998 15.1 21.0998C15.2 19.6998 15.3 18.1998 15.3 16.7998C15.6 16.7998 16 16.7998 16.4 16.7998C17.9 16.6998 19.4 16.6998 20.8 16.7998C21.1 16.7998 21.5 16.7998 21.8 16.7998C21.7 19.0998 21.6 21.3998 21.6 23.6998C21.6 26.1998 21.6 28.7998 21.6 31.4998V36.9998C21.6 38.5998 21.7 40.0998 21.7 41.3998C21.7 42.1998 21.9 42.6998 22.3 43.0998L22.4 43.1998C22.8 43.5998 23.5 43.7998 24.6 43.7998C25.3 43.7998 26 43.6998 26.7 43.5998C27.5 43.4998 28.2 43.2998 28.7 43.0998L29.6 42.7998L29.4 41.8998C28.8 41.2998 28.7 40.4998 28.6 39.3998Z" fill="#E2211C"/>
<path d="M58.2 43.5C58.9 43.4 59.6 43.3 60.3 43L61 42.7V42C60.9 41.5 60.9 40.9 60.9 40.4L60.8 39C60.8 38.5 60.8 38.1 60.8 37.8C60.7 36 60.7 34 60.7 32V25.7C60.7 24.7 60.7 23.7 60.7 22.5L60.8 19C60.9 17.8 60.9 16.7 60.9 15.7C60.9 14.6 60.9 13.8 60.9 13.1C60.9 12.2 60.7 11.6 60.3 11.2C59.6 10.5 58.3 10.5 56.4 10.7C55.6 10.8 54.9 10.9 54.3 11L53.9 11.1L53.7 11.4C52.8 12.8 51.7 14.3 50.5 16.2C49.3 18 48 19.9 46.7 22C45.4 24 44.1 26.1 42.8 28.1C42.3 29 41.7 29.9 41.2 30.7C41.2 30.1 41.2 29.4 41.2 28.7C41.2 28 41.3 27.1 41.3 26.1L41.4 22.1C41.4 20.7 41.4 19.5 41.4 18.3C41.4 17.1 41.4 16 41.4 15C41.4 14 41.4 13.1 41.4 12.5C41.4 12 41.2 10.6 38.9 10.6C38.2 10.6 37.4 10.6 36.8 10.7C36.1 10.8 35.3 10.9 34.5 11.1L33.6 11.3L33.8 12.2C33.9 12.7 34 13.1 34 13.5C34.1 13.8 34.1 14.2 34.2 14.5C34.3 14.9 34.3 15.3 34.3 15.7C34.3 16.1 34.3 16.6 34.3 17.3C34.3 18.5 34.3 19.8 34.3 21.3V25.7C34.3 27.2 34.3 28.7 34.3 30.2C34.3 31.7 34.3 33.1 34.3 34.4C34.3 35.7 34.3 36.8 34.3 37.9V41.4C34.3 41.8 34.5 42.2 34.6 42.5L34.7 42.6C35 43 35.3 43.2 35.7 43.4C36.4 43.7 37.4 43.7 38.8 43.6C39.4 43.6 40.1 43.5 40.6 43.4L41.1 43.3L41.3 42.9C41.6 42.4 42 41.6 42.5 40.6C43.1 39.6 43.8 38.4 44.5 37.1C45.3 35.8 46.1 34.4 47 32.8C47.9 31.3 48.9 29.7 49.9 28.1C50.9 26.5 51.9 24.9 52.9 23.4C53.2 22.9 53.5 22.4 53.8 22C53.8 23 53.8 24 53.8 25C53.8 26.1 53.8 27.1 53.8 28.2V30.9L53.7 34.1C53.7 35.1 53.7 36.1 53.7 37C53.7 37.9 53.7 38.7 53.7 39.4V41C53.7 42 54 42.7 54.5 43.2C55 43.6 55.7 43.8 56.7 43.8C57.1 43.6 57.6 43.6 58.2 43.5Z" fill="#E2211C"/>
<path d="M84.8 35.1004C85.2 35.0004 85.7 34.9004 86.1 34.8004L86.7 34.7004L87.2 33.1004C87.3 32.8004 87.4 32.4004 87.6 32.1004C87.7 31.7004 87.9 31.4004 88.1 31.0004C88.4 30.3004 88.8 29.5004 89.2 28.7004C89.6 27.9004 90.1 27.0004 90.6 26.0004C91 25.2004 91.4 24.5004 91.8 23.7004C91.8 25.1004 91.8 26.4004 91.8 27.6004V33.5004C91.8 34.0004 91.8 34.6004 91.8 35.4004C91.8 36.1004 91.8 36.8004 91.8 37.6004C91.8 38.3004 91.8 39.0004 91.8 39.6004V41.0004C91.8 41.8004 92 42.4004 92.4 42.9004L92.5 43.0004C93 43.4004 93.7 43.6004 95.1 43.6004C95.6 43.6004 96.1 43.6004 96.7 43.5004C97.4 43.4004 98.1 43.2004 98.8 42.9004L99.5 42.6004L99.4 41.8004C99.3 41.3004 99.2 40.8004 99.2 40.3004C99.1 39.9004 99.1 39.5004 99.1 39.0004C99.1 38.5004 99.1 38.2004 99.1 37.8004C99.1 34.9004 99.1 32.1004 99.1 29.5004C99.2 26.8004 99.2 24.4004 99.2 22.2004C99.3 20.0004 99.3 18.1004 99.3 16.6004C99.4 15.0004 99.4 13.8004 99.4 12.9004C99.4 12.0004 99.2 11.4004 98.8 11.0004C98.4 10.6004 97.8 10.4004 96.9 10.4004C96.3 10.4004 95.6 10.4004 94.9 10.5004C94.2 10.6004 93.5 10.7004 92.9 10.8004L92.2 11.0004L92 11.3004C90.8 13.3004 89.5 15.3004 88.4 17.4004C87.4 19.2004 86.3 21.1004 85.1 23.2004C84.3 24.7004 83.5 26.2004 82.7 27.6004C82.1 26.6004 81.5 25.5004 80.9 24.4004C80 22.7004 79.1 21.0004 78.3 19.4004C77.5 17.7004 76.7 16.2004 76.1 14.9004C75.5 13.5004 74.9 12.5004 74.6 11.7004C74.2 11.0004 73.7 10.7004 73.3 10.6004C72.3 10.3004 70.9 10.4004 69.5 10.7004C68.6 10.8004 67.7 11.0004 66.9 11.2004L65.8 11.4004L66.1 12.5004C66.6 14.0004 66.9 15.4004 66.9 16.6004C67 17.9004 67.1 19.3004 67.1 20.8004C67.1 21.8004 67.1 22.8004 67.1 24.0004C67.1 25.1004 67.1 26.3004 67.1 27.5004C67.1 28.7004 67.1 29.8004 67.1 31.0004C67.1 32.2004 67.1 33.3004 67.1 34.4004C67.1 34.7004 67.1 35.2004 67 35.8004L66.8 39.2004C66.8 39.8004 66.8 40.2004 66.8 40.5004C66.8 41.7004 67.1 42.5004 67.7 43.1004C68.2 43.6004 69 43.8004 70 43.8004C70.4 43.8004 71 43.8004 71.5 43.7004C72.1 43.7004 72.6 43.6004 73.2 43.5004L74.1 43.3004L73.9 41.3004C73.9 41.0004 73.9 40.7004 73.9 40.3004V39.1004C73.9 36.2004 73.9 33.8004 73.9 31.8004V24.5004C74.7 26.3004 75.5 27.9004 76.3 29.2004C77.6 31.5004 78.6 33.1004 79.3 34.0004C79.7 34.5004 80.2 34.9004 80.7 35.2004C81.5 35.6004 82.7 35.6004 83.9 35.5004C84 35.2004 84.4 35.1004 84.8 35.1004ZM72.6 19.4004V19.3004C72.6 19.3004 72.6 19.3004 72.6 19.4004Z" fill="#E2211C"/>
<path d="M129.6 14.6C128.3 13.1 126.7 12 124.8 11.2C122.9 10.4 120.7 10 118.2 10C115.9 10 113.7 10.5 111.8 11.5C110 12.5 108.4 13.8 107.1 15.4C105.8 17 104.8 18.9 104.2 21C103.5 23.1 103.2 25.3 103.2 27.6C103.2 30 103.5 32.3 104.1 34.3C104.8 36.3 105.7 38.1 107 39.6C108.3 41.1 109.9 42.2 111.8 43C113.7 43.8 115.8 44.2 118.3 44.2C120.6 44.2 122.8 43.7 124.6 42.7C126.5 41.7 128.1 40.4 129.4 38.8C130.7 37.2 131.7 35.3 132.4 33.2C133.1 31.1 133.4 28.9 133.4 26.6C133.4 24.2 133.1 22 132.5 20C131.9 17.9 130.9 16.1 129.6 14.6ZM126.1 26.9C126.1 28.6 125.9 30.1 125.4 31.5C125 32.8 124.4 34 123.7 34.9C123 35.8 122.2 36.5 121.2 37.1C120.3 37.6 119.4 37.8 118.4 37.8C117.2 37.8 116.1 37.6 115.2 37.2C114.3 36.7 113.4 36.1 112.7 35.2C112 34.3 111.4 33.2 111 31.9C110.6 30.6 110.4 29 110.4 27.3C110.4 25.6 110.6 24 111.1 22.7C111.5 21.3 112.1 20.2 112.8 19.3C113.5 18.4 114.4 17.7 115.3 17.2C116.2 16.7 117.1 16.5 118.1 16.5C119.2 16.5 120.3 16.7 121.2 17.2C122.1 17.6 123 18.3 123.7 19.2C124.4 20.1 125 21.2 125.4 22.5C125.9 23.6 126.1 25.1 126.1 26.9Z" fill="#E2211C"/>
<path d="M163.8 39.2004C163.8 37.9004 163.7 36.5004 163.7 35.0004C163.7 33.4004 163.7 31.8004 163.7 30.2004V25.6004C163.7 24.7004 163.7 23.6004 163.7 22.4004L163.9 18.7004C164 17.5004 164 16.3004 164 15.3004C164.1 14.2004 164.1 13.4004 164.1 12.7004C164.1 11.6004 163.6 11.0004 163.2 10.8004C162.4 10.3004 161.1 10.3004 159.4 10.5004C158.6 10.6004 157.8 10.7004 157.2 10.8004L156.4 11.0004L156.5 11.8004C156.6 12.7004 156.6 13.5004 156.7 14.3004C156.8 15.0004 156.8 15.6004 156.8 16.4004C156.9 17.1004 156.9 17.6004 156.9 18.0004V23.3004C156 23.2004 155.1 23.2004 154.2 23.1004C152 23.0004 149.7 23.0004 147.4 23.1004C146.7 23.1004 146 23.2004 145.2 23.2004C145.2 22.7004 145.3 22.1004 145.3 21.5004C145.4 20.3004 145.4 19.1004 145.4 17.9004C145.5 16.7004 145.5 15.5004 145.5 14.4004C145.5 13.3004 145.5 12.5004 145.5 11.9004C145.5 11.1004 144.9 10.4004 144.1 10.3004C142.8 10.1004 141.6 10.2004 140.4 10.4004C139.6 10.5004 138.8 10.7004 138 10.9004L137 11.1004L137.3 12.1004C137.4 12.6004 137.6 13.1004 137.7 13.7004C137.8 14.2004 137.9 14.8004 138 15.4004C138.1 16.0004 138.1 16.8004 138.2 17.7004C138.3 18.5004 138.3 19.6004 138.3 20.8004C138.3 21.7004 138.3 22.6004 138.3 23.7004C138.3 24.8004 138.3 25.9004 138.3 27.1004L138.2 30.6004C138.2 31.7004 138.2 32.8004 138.2 33.7004C138.2 34.0004 138.2 34.5004 138.2 35.0004L138 38.3004C138 38.8004 138 39.3004 138 39.7004C138 40.9004 138.2 41.7004 138.6 42.3004C139.1 42.9004 139.8 43.2004 140.9 43.2004C141.3 43.2004 141.9 43.2004 142.6 43.1004C143.4 43.0004 144 42.9004 144.6 42.8004L145.5 42.6004L145.3 41.7004C145.2 41.4004 145.2 41.0004 145.1 40.6004C145 40.3004 145 40.0004 145 39.6004C145 39.2004 145 38.8004 145 38.4004V36.3004L145.2 30.7004C145.2 30.2004 145.2 29.7004 145.3 29.2004C145.7 29.2004 146.1 29.2004 146.6 29.2004C147.4 29.2004 148.3 29.2004 149.3 29.2004C152.2 29.2004 154.8 29.3004 157 29.4004C157 29.5004 157 29.7004 157 29.8004C157 30.4004 157 31.1004 157 31.9004C157 32.7004 157 33.5004 157 34.4004C157 35.3004 157 36.1004 157 37.0004V40.7004C157 41.3004 157.2 41.9004 157.6 42.3004C158 42.8004 158.8 43.1004 159.9 43.1004C160.5 43.1004 161.2 43.0004 161.9 42.9004C162.6 42.8004 163.3 42.6004 163.8 42.4004L164.6 42.1004L164.5 41.3004C163.9 41.3004 163.9 40.4004 163.8 39.2004Z" fill="#E2211C"/>
<path d="M195.7 39.2004C195.7 37.9004 195.6 36.5004 195.6 35.0004C195.6 33.4004 195.6 31.8004 195.6 30.2004V25.6004C195.6 24.7004 195.6 23.6004 195.6 22.4004L195.8 18.7004C195.9 17.5004 195.9 16.3004 195.9 15.3004C196 14.2004 196 13.4004 196 12.7004C196 11.6004 195.5 11.0004 195.1 10.8004C194.3 10.3004 193 10.3004 191.3 10.5004C190.5 10.6004 189.7 10.7004 189.1 10.8004L188.3 11.0004L188.4 11.8004C188.5 12.7004 188.5 13.5004 188.6 14.3004C188.7 15.0004 188.7 15.6004 188.7 16.4004C188.8 17.1004 188.8 17.6004 188.8 18.0004V23.3004C187.9 23.2004 187 23.2004 186.1 23.1004C183.9 23.0004 181.6 23.0004 179.3 23.1004C178.6 23.1004 177.9 23.2004 177.1 23.2004C177.1 22.7004 177.2 22.1004 177.2 21.5004C177.3 20.3004 177.3 19.1004 177.3 17.9004C177.4 16.7004 177.4 15.5004 177.4 14.4004C177.4 13.3004 177.4 12.5004 177.4 11.9004C177.4 11.1004 176.8 10.4004 176 10.3004C174.7 10.1004 173.5 10.2004 172.3 10.4004C171.5 10.5004 170.7 10.7004 169.9 10.9004L168.9 11.1004L169.2 12.1004C169.3 12.6004 169.5 13.1004 169.6 13.7004C169.7 14.2004 169.8 14.8004 169.9 15.4004C170 16.0004 170 16.8004 170.1 17.7004C170.2 18.6004 170.2 19.6004 170.2 20.8004C170.2 21.7004 170.2 22.6004 170.2 23.7004C170.2 24.8004 170.2 25.9004 170.2 27.1004L170.1 30.6004C170.1 31.7004 170.1 32.8004 170.1 33.7004C170.1 34.0004 170.1 34.5004 170.1 35.0004L169.9 38.3004C169.9 38.8004 169.9 39.3004 169.9 39.7004C169.9 40.9004 170.1 41.7004 170.5 42.3004C171 42.9004 171.7 43.2004 172.8 43.2004C173.2 43.2004 173.8 43.2004 174.5 43.1004C175.3 43.0004 175.9 42.9004 176.5 42.8004L177.4 42.6004L177.2 41.7004C177.1 41.4004 177.1 41.0004 177 40.6004C176.9 40.3004 176.9 40.0004 176.9 39.7004C176.9 39.3004 176.9 38.9004 176.9 38.5004V36.4004L177.1 30.8004C177.1 30.3004 177.1 29.8004 177.1 29.3004C177.5 29.3004 177.9 29.3004 178.4 29.3004C179.2 29.3004 180.1 29.3004 181 29.3004C183.9 29.3004 186.5 29.4004 188.7 29.5004C188.7 29.6004 188.7 29.8004 188.7 29.9004C188.7 30.5004 188.7 31.2004 188.7 32.0004C188.7 32.8004 188.7 33.6004 188.7 34.5004C188.7 35.4004 188.7 36.2004 188.7 37.1004V40.8004C188.7 41.4004 188.9 42.0004 189.3 42.4004C189.7 42.9004 190.5 43.2004 191.6 43.2004C192.2 43.2004 192.9 43.1004 193.6 43.0004C194.3 42.9004 195 42.7004 195.5 42.5004L196.3 42.2004L196.2 41.4004C195.9 41.3004 195.8 40.4004 195.7 39.2004Z" fill="#E2211C"/>
<path d="M222.2 24.5998C221.2 23.7998 220 23.0998 218.7 22.6998C217.4 22.2998 215.9 22.0998 214.4 22.0998C213.1 22.0998 211.9 22.1998 210.8 22.3998C210.2 22.4998 209.6 22.5998 209 22.6998C209 20.9998 209 19.3998 209 18.0998C209 16.3998 209 14.8998 208.9 13.6998C208.9 12.5998 208.7 11.8998 208.5 11.3998C208.3 10.8998 207.7 10.2998 206.3 10.2998C205.7 10.2998 204.9 10.3998 204.1 10.4998C203.3 10.5998 202.4 10.7998 201.5 10.9998L200.5 11.2998L200.8 12.2998C200.9 12.6998 201 13.0998 201.1 13.3998V13.4998C201.2 13.6998 201.3 13.9998 201.3 14.3998C201.4 14.6998 201.4 15.0998 201.5 15.5998C201.6 15.9998 201.6 16.4998 201.7 17.1998C201.8 17.8998 201.8 18.5998 201.8 19.3998C201.9 20.1998 201.9 20.9998 201.9 21.8998C202 22.6998 202 23.5998 202 24.3998C202 25.1998 202 25.9998 202 26.7998C202 29.0998 201.9 31.4998 201.8 34.0998C201.7 36.5998 201.6 38.9998 201.4 41.2998V42.0998L202.1 42.3998C202.9 42.6998 203.8 42.8998 204.7 43.0998C205.5 43.2998 206.5 43.3998 207.6 43.5998C208.7 43.6998 210 43.7998 211.4 43.7998C213.4 43.7998 215.2 43.5998 216.8 43.1998C218.5 42.7998 220 42.0998 221.2 41.1998C222.4 40.2998 223.4 38.9998 224.1 37.5998C224.8 36.1998 225.1 34.3998 225.1 32.3998C225.1 30.6998 224.8 29.2998 224.3 27.9998C224 26.5998 223.2 25.4998 222.2 24.5998ZM218.2 32.6998C218.2 33.4998 218.1 34.2998 217.8 34.8998C217.5 35.4998 217.1 35.8998 216.6 36.2998C216.1 36.6998 215.5 36.9998 214.7 37.1998C213.9 37.3998 213 37.4998 212.1 37.4998C211.4 37.4998 210.8 37.4998 210.3 37.3998C209.8 37.2998 209.4 37.2998 209 37.1998C208.9 37.1998 208.8 37.1998 208.7 37.0998C208.8 36.2998 208.8 35.5998 208.9 34.7998C209 33.8998 209 32.7998 209 31.6998L209.1 28.9998C209.5 28.8998 210 28.7998 210.5 28.6998C211.3 28.4998 212.2 28.3998 213.4 28.3998C215.1 28.3998 216.3 28.7998 217.1 29.4998C217.8 30.0998 218.2 31.1998 218.2 32.6998Z" fill="#E2211C"/>
<path d="M234.9 18.2003C235 15.9003 235.1 14.1003 235.1 12.8003C235.1 11.6003 234.6 11.1003 234.2 10.8003C233.6 10.4003 232.7 10.3003 231.5 10.4003C231.1 10.4003 230.6 10.4003 230.2 10.5003C229.8 10.5003 229.3 10.6003 228.9 10.6003C228.5 10.7003 228.2 10.7003 227.8 10.8003L226.9 11.0003L227 12.0003C227.1 12.4003 227.1 12.9003 227.2 13.3003C227.3 13.7003 227.3 14.1003 227.4 14.5003C227.5 14.9003 227.5 15.3003 227.5 15.7003C227.6 16.9003 227.6 18.4003 227.6 20.2003C227.6 22.0003 227.6 23.9003 227.6 25.9003C227.6 27.7003 227.6 29.4003 227.6 31.0003C227.6 32.6003 227.5 34.0003 227.5 35.4003C227.5 36.7003 227.5 37.8003 227.5 38.8003C227.5 39.8003 227.5 40.6003 227.5 41.1003C227.5 41.7003 227.7 42.3003 228.1 42.7003C228.5 43.2003 229.3 43.5003 230.4 43.5003C231 43.5003 231.7 43.4003 232.4 43.3003C233.1 43.2003 233.8 43.0003 234.3 42.8003L235 42.5003L234.9 41.7003C234.8 41.1003 234.8 40.3003 234.8 39.3003C234.8 38.2003 234.7 37.0003 234.7 35.6003C234.7 34.2003 234.7 32.7003 234.7 31.0003V26.0003C234.7 23.1003 234.8 20.4003 234.9 18.2003Z" fill="#E2211C"/>
<path d="M267.2 42C267.1 41.5 267.1 40.9 267.1 40.4L267 39C267 38.5 267 38.1 267 37.8C266.9 36 266.9 34.1 266.9 32V25.7C266.9 24.7 266.9 23.7 266.9 22.5L267 19C267.1 17.8 267.1 16.7 267.1 15.7C267.1 14.6 267.1 13.8 267.1 13.1C267.1 12.2 266.9 11.6 266.5 11.2C265.8 10.5 264.5 10.5 262.6 10.7C261.8 10.8 261.1 10.9 260.5 11L260.1 11.1L259.9 11.4C259 12.8 257.9 14.3 256.7 16.2C255.5 18 254.2 19.9 252.9 22C251.6 24 250.3 26.1 249 28.1C248.5 29 247.9 29.9 247.4 30.7C247.4 30.1 247.4 29.4 247.4 28.7C247.4 28 247.5 27.1 247.5 26.1L247.6 22.1C247.6 20.7 247.6 19.5 247.6 18.3C247.6 17.1 247.6 16 247.6 15C247.6 14 247.6 13.1 247.6 12.5C247.6 12 247.4 10.6 245.1 10.6C244.4 10.6 243.6 10.6 243 10.7C242.3 10.8 241.5 10.9 240.7 11.1L239.8 11.3L240 12.2C240.1 12.7 240.2 13.1 240.2 13.5C240.3 13.8 240.3 14.2 240.4 14.5C240.5 14.9 240.5 15.3 240.5 15.7C240.5 16.1 240.5 16.6 240.5 17.3C240.5 18.5 240.5 19.8 240.5 21.3V25.7C240.5 27.2 240.5 28.7 240.5 30.2C240.5 31.7 240.5 33.1 240.5 34.4C240.5 35.7 240.5 36.8 240.5 37.9V41.4C240.5 41.8 240.7 42.2 240.9 42.6C241.2 43 241.5 43.2 241.9 43.4C242.6 43.7 243.6 43.7 245 43.6C245.6 43.6 246.3 43.5 246.8 43.4L247.3 43.3L247.5 42.9C247.8 42.4 248.2 41.6 248.7 40.6C249.3 39.6 250 38.4 250.7 37.1C251.5 35.8 252.3 34.4 253.2 32.8C254.1 31.3 255.1 29.7 256.1 28.1C257.1 26.5 258.1 24.9 259.1 23.4C259.4 22.9 259.7 22.4 260 22C260 23 260 24 260 25C260 26.1 260 27.1 260 28.2V30.9L259.9 34.1C259.9 35.1 259.9 36.1 259.9 37C259.9 37.9 259.9 38.7 259.9 39.4V41C259.9 42 260.2 42.7 260.7 43.2C261.2 43.6 261.9 43.8 262.9 43.8C263.3 43.8 263.9 43.8 264.5 43.7C265.2 43.6 265.9 43.5 266.6 43.2L267.3 42.9L267.2 42Z" fill="#E2211C"/>
<path d="M248 7.9C248.6 8.4 249.3 8.9 250.2 9.3C251.1 9.7 252.2 9.9 253.4 9.9C254.6 9.9 255.6 9.7 256.6 9.3C257.5 8.9 258.3 8.4 259 7.8C259.7 7.2 260.2 6.5 260.6 5.8C261 5 261.2 4.2 261.2 3.5C261.2 3.1 261.1 2.8 261 2.5C260.9 2.2 260.8 2 260.7 1.8L259.4 0.1L258.7 1.3C258.1 2.3 257.4 3.1 256.6 3.6C255.9 4.1 255.1 4.4 254.2 4.4C253.1 4.4 251.8 4.1 251.4 1.5L250.9 0L249.6 0.8C249 1.2 248.5 1.5 248 1.9C247.6 2.2 247.2 2.6 246.9 3C246.4 3.5 246.2 4 246.2 4.6C246.2 5 246.3 5.5 246.6 6.2C246.9 6.8 247.4 7.3 248 7.9Z" fill="#E2211C"/>
<path d="M23.2 63.8004C24 62.9004 24.8 61.9004 25.6 61.1004C26.4 60.2004 27.3 59.3004 28.3 58.3004L29 57.6004L28.3 56.9004C28.1 56.7004 27.8 56.5004 27.6 56.2004L27 55.7004C26.7 55.4004 26.5 55.2004 26.1 54.9004C25 54.0004 23.9 54.0004 23.3 54.2004C22.4 54.4004 21.6 55.0004 20.7 56.1004C20.1 56.9004 19.4 57.8004 18.8 58.7004C18.2 59.6004 17.5 60.6004 16.8 61.7004C16.2 62.7004 15.5 63.8004 14.9 64.9004C14.4 65.8004 13.8 66.7004 13.3 67.6004C12.9 67.6004 12.5 67.6004 12 67.6004C11.6 67.6004 11.2 67.6004 10.7 67.5004C10.7 66.3004 10.7 65.1004 10.7 64.0004C10.7 62.6004 10.8 61.4004 10.8 60.3004C10.8 59.0004 10.9 57.9004 10.9 56.7004C10.9 56.2004 10.7 54.4004 8.3 54.4004C7.7 54.4004 7.1 54.4004 6.6 54.5004C6 54.7004 5.5 54.7004 5 54.8004C4.5 54.9004 4 55.0004 3.5 55.2004L2.5 55.5004L2.8 56.5004C2.9 56.9004 3 57.3004 3.2 57.6004C3.3 57.9004 3.4 58.2004 3.5 58.6004C3.6 58.9004 3.7 59.3004 3.7 59.7004C3.8 60.2004 3.8 60.7004 3.8 61.3004C3.8 63.0004 3.8 64.8004 3.8 66.8004C3.8 68.7004 3.8 70.6004 3.8 72.6004L3.7 78.5004C3.7 80.4004 3.7 82.3004 3.7 84.0004C3.7 85.3004 3.9 86.1004 4.4 86.7004C4.9 87.2004 5.7 87.5004 6.9 87.5004C7.3 87.5004 7.9 87.5004 8.5 87.4004C9.1 87.3004 9.7 87.2004 10.3 87.1004L11.3 86.9004L11.1 85.9004C11 85.6004 11 85.2004 10.9 84.9004C10.8 84.6004 10.8 84.3004 10.8 84.0004C10.8 83.6004 10.8 83.2004 10.8 82.8004V78.2004C10.8 76.6004 10.8 74.9004 10.9 73.1004C11.2 73.1004 11.4 73.1004 11.7 73.2004C12.2 73.2004 12.6 73.3004 13 73.4004C13.3 73.4004 13.6 73.5004 13.8 73.6004C14.1 73.7004 14.3 73.9004 14.6 74.0004C15.2 74.5004 15.8 75.4004 16.4 76.6004C17.1 78.0004 17.9 79.6004 18.8 81.4004C19.4 82.6004 19.9 83.5004 20.3 84.2004C20.7 85.0004 21.2 85.6004 21.7 86.1004C22.2 86.6004 22.8 87.0004 23.4 87.2004C24 87.4004 24.7 87.5004 25.5 87.5004C26.7 87.5004 27.6 87.2004 28.1 86.6004C28.7 86.0004 28.9 85.1004 28.9 84.0004C28.9 83.6004 28.9 83.3004 28.9 83.0004C28.9 82.7004 28.8 82.4004 28.8 82.2004C28.8 81.9004 28.7 81.6004 28.7 81.4004L28.6 80.5004H27.7C27.3 80.5004 27 80.5004 26.7 80.4004C26.5 80.4004 26.4 80.3004 26.3 80.2004C26.1 80.0004 25.9 79.8004 25.7 79.5004C25.5 79.1004 25.2 78.6004 24.9 78.0004C24.2 76.6004 23.6 75.4004 23 74.4004C22.5 73.4004 21.9 72.5004 21.5 71.8004C21 71.1004 20.6 70.5004 20.1 70.0004C19.9 69.8004 19.7 69.6004 19.4 69.4004C20.1 68.4004 20.7 67.4004 21.3 66.6004C21.8 65.7004 22.5 64.7004 23.2 63.8004Z" fill="#E2211C"/>
<path d="M52.9 81.9002C52.8 81.6002 52.8 81.3002 52.7 81.0002L52.5 80.0002L51.5 80.3002C50.4 80.6002 49.3 80.8002 48.3 81.0002C46.8 81.2002 44.9 81.2002 42.5 81.3002H38.8C38.8 79.8002 38.9 78.5002 38.9 77.2002L39 73.6002C39.4 73.6002 39.9 73.7002 40.3 73.7002L42.8 73.9002L45.1 74.0002C45.8 74.0002 46.5 74.0002 47.1 74.0002C48.2 74.0002 49 73.8002 49.6 73.2002C50.2 72.6002 50.4 71.8002 50.4 70.6002C50.4 70.3002 50.4 70.0002 50.4 69.7002C50.4 69.4002 50.3 69.2002 50.3 68.9002L50.1 67.1002L49.1 67.3002C48.8 67.4002 48.5 67.4002 48.2 67.4002C47.9 67.4002 47.5 67.5002 47.2 67.5002H46C44.3 67.5002 42.9 67.5002 41.6 67.5002C40.7 67.5002 39.8 67.4002 39 67.4002L38.9 65.2002C38.9 64.2002 38.9 63.2002 38.9 62.4002C38.9 61.8002 38.9 61.2002 38.8 60.7002C40.1 60.7002 41.3 60.8002 42.5 60.8002C44 61.0002 45.5 61.0002 47 61.0002C48.6 61.0002 49.7 60.9002 50.4 60.6002C50.9 60.4002 51.8 59.8002 51.8 58.2002C51.8 58.0002 51.8 57.6002 51.8 57.1002C51.8 56.5002 51.7 55.9002 51.5 55.1002L51.3 54.2002L50.4 54.3002C49.6 54.4002 48.7 54.5002 48 54.6002C47.2 54.6002 46.2 54.6002 45.1 54.6002H42.9C42.1 54.6002 41.3 54.6002 40.4 54.6002C39.6 54.6002 38.8 54.6002 38 54.6002C36.2 54.5002 34.9 54.5002 33.7 54.6002C33 54.6002 32.4 54.7002 31.8 54.8002L30.8 55.0002L31.1 56.0002C31.2 56.4002 31.3 56.8002 31.4 57.1002V57.2002C31.5 57.5002 31.6 57.8002 31.7 58.2002C31.8 58.5002 31.8 59.0002 31.9 59.4002C32 59.9002 32 60.4002 32.1 61.0002C32.2 62.1002 32.2 63.3002 32.2 64.6002C32.2 65.9002 32.2 67.2002 32.2 68.6002C32.2 72.1002 32.2 75.3002 32.2 78.0002C32.2 80.7002 32.1 83.4002 31.9 85.8002L31.8 86.8002L32.8 86.9002C34.6 87.0002 36.5 87.2002 38.5 87.2002C40.5 87.3002 42.5 87.3002 44.2 87.3002C45.9 87.3002 47.3 87.3002 48.4 87.3002C49.5 87.3002 50.4 87.2002 51.1 87.0002C52 86.8002 52.5 86.4002 52.8 85.9002C53.1 85.4002 53.3 84.8002 53.3 84.1002C53.3 83.6002 53.3 83.1002 53.2 82.8002C53 82.6002 52.9 82.2002 52.9 81.9002Z" fill="#E2211C"/>
<path d="M76.8 63.8004C77.6 62.9004 78.4 61.9004 79.2 61.1004C80 60.2004 80.9 59.3004 81.9 58.3004L82.6 57.6004L81.9 56.9004C81.7 56.7004 81.4 56.5004 81.2 56.2004L80.6 55.7004C80.3 55.4004 80.1 55.2004 79.7 54.9004C78.5 54.0004 77.5 54.0004 76.8 54.2004C75.9 54.4004 75.1 55.0004 74.2 56.1004C73.6 56.9004 72.9 57.8004 72.3 58.7004C71.7 59.6004 71 60.6004 70.3 61.7004C69.7 62.7004 69 63.8004 68.4 64.9004C67.9 65.8004 67.3 66.7004 66.8 67.6004C66.4 67.6004 66 67.6004 65.5 67.6004C65.1 67.6004 64.7 67.6004 64.2 67.5004C64.2 66.3004 64.2 65.1004 64.2 64.0004C64.2 62.6004 64.3 61.4004 64.3 60.3004C64.3 59.0004 64.4 57.9004 64.4 56.7004C64.4 56.2004 64.2 54.4004 61.8 54.4004C61.2 54.4004 60.6 54.4004 60.1 54.5004C59.5 54.6004 59 54.6004 58.5 54.7004C58 54.8004 57.5 54.9004 57 55.1004L56 55.4004L56.3 56.4004C56.4 56.8004 56.5 57.2004 56.7 57.5004C56.8 57.8004 56.9 58.1004 57 58.6004C57.1 58.9004 57.2 59.3004 57.2 59.7004C57.3 60.2004 57.3 60.7004 57.3 61.3004C57.3 63.0004 57.3 64.8004 57.3 66.8004C57.3 68.7004 57.3 70.6004 57.3 72.6004L57.2 78.5004C57.2 80.4004 57.2 82.3004 57.2 84.0004C57.2 85.3004 57.4 86.1004 57.9 86.7004C58.4 87.2004 59.2 87.5004 60.4 87.5004C60.8 87.5004 61.4 87.5004 62 87.4004C62.6 87.3004 63.2 87.2004 63.8 87.1004L64.8 86.9004L64.6 85.9004C64.5 85.6004 64.5 85.2004 64.4 84.9004C64.3 84.6004 64.3 84.3004 64.3 84.0004C64.3 83.6004 64.3 83.2004 64.3 82.8004V78.2004C64.3 76.6004 64.3 74.9004 64.4 73.1004C64.7 73.1004 64.9 73.1004 65.2 73.2004C65.7 73.2004 66.1 73.3004 66.5 73.4004C66.8 73.4004 67.1 73.5004 67.3 73.6004C67.6 73.7004 67.8 73.9004 68.1 74.0004C68.7 74.5004 69.3 75.4004 69.9 76.6004C70.6 78.0004 71.4 79.6004 72.3 81.4004C72.9 82.6004 73.4 83.5004 73.8 84.2004C74.2 85.0004 74.7 85.6004 75.2 86.1004C75.7 86.6004 76.3 87.0004 76.9 87.2004C77.5 87.4004 78.2 87.5004 79 87.5004C80.2 87.5004 81.1 87.2004 81.6 86.6004C82.2 86.0004 82.4 85.1004 82.4 84.0004C82.4 83.6004 82.4 83.3004 82.4 83.0004C82.4 82.7004 82.3 82.4004 82.3 82.2004C82.3 81.9004 82.2 81.6004 82.2 81.4004L82.1 80.5004H81.2C80.8 80.5004 80.5 80.5004 80.2 80.4004C80 80.4004 79.9 80.3004 79.8 80.2004C79.6 80.0004 79.4 79.8004 79.2 79.5004C79 79.1004 78.7 78.6004 78.4 78.0004C77.7 76.6004 77.1 75.4004 76.5 74.4004C76 73.4004 75.4 72.5004 75 71.8004C74.5 71.1004 74.1 70.5004 73.6 70.0004C73.4 69.8004 73.2 69.6004 72.9 69.4004C73.6 68.4004 74.2 67.4004 74.8 66.6004C75.3 65.7004 76 64.7004 76.8 63.8004Z" fill="#E2211C"/>
<path d="M106.2 79.3998L105.6 78.5998L104.8 79.1998C104.1 79.6998 103.2 80.1998 102.2 80.6998C101.2 81.1998 99.9 81.3998 98.4 81.3998C95.9 81.3998 94 80.5998 92.5 78.8998C91 77.0998 90.3 74.5998 90.3 71.2998C90.3 69.5998 90.5 67.9998 90.9 66.6998C91.3 65.3998 91.9 64.2998 92.6 63.3998C93.3 62.4998 94.1 61.7998 95 61.3998C95.9 60.8998 96.9 60.6998 97.9 60.6998C98.6 60.6998 99.2 60.6998 99.8 60.7998C100.4 60.8998 100.9 60.8998 101.4 60.9998C101.9 61.0998 102.3 61.0998 102.7 61.1998C103.2 61.2998 103.7 61.2998 104.2 61.2998C105.4 61.2998 106.3 60.6998 106.7 59.5998C107 58.7998 107.2 57.4998 107.2 55.5998V54.5998H106.2C105.6 54.5998 105.1 54.5998 104.5 54.5998C103.9 54.4998 103.3 54.4998 102.7 54.4998C102.1 54.3998 101.4 54.3998 100.7 54.3998C100 54.2998 99.1 54.2998 98.2 54.2998C95.7 54.2998 93.5 54.7998 91.6 55.7998C89.7 56.7998 88.1 58.0998 86.8 59.6998C85.6 61.2998 84.6 63.1998 83.9 65.3998C83.3 67.4998 83 69.6998 83 71.8998C83 74.5998 83.4 76.8998 84.2 78.9998C85 80.9998 86.1 82.6998 87.5 84.0998C88.9 85.4998 90.5 86.4998 92.4 87.1998C94.2 87.8998 96.2 88.1998 98.3 88.1998C99.4 88.1998 100.5 88.0998 101.5 87.8998C102.6 87.6998 103.5 87.3998 104.4 87.0998C105.3 86.6998 106 86.2998 106.6 85.7998C107.5 84.9998 107.7 84.1998 107.7 83.5998C107.7 82.9998 107.6 82.2998 107.3 81.5998C107 80.8998 106.7 79.8998 106.2 79.3998Z" fill="#E2211C"/>
</svg>
