<svg width="619" height="72" viewBox="0 0 619 72" fill="none" xmlns="http://www.w3.org/2000/svg">
<path d="M46.3 63.3002C46.1 61.6002 46 59.7002 45.9 57.6002C45.8 55.5002 45.7 53.3002 45.7 51.2002C45.7 49.1002 45.6 47.2002 45.6 45.6002C45.6 40.1002 45.7 35.2002 45.9 31.2002C46.2 27.0002 46.3 23.9002 46.3 22.0002C46.3 21.3002 46.2 20.7002 46 20.1002C45.8 19.5002 45.4 18.7002 44.3 18.1002C43.7 17.7002 43 17.5002 42 17.3002C41.2 17.1002 40.2 17.0002 38.9 17.0002C37.9 17.0002 36.7 16.9002 35.2 16.9002C32.1 16.8002 28.1 16.8002 23.3 16.9002C20.8 16.9002 17.8 17.0002 14.6 17.2002L12.2 17.3002L12.7 19.6002C12.9 20.6002 13.1 21.6002 13.2 22.5002C13.3 23.4002 13.3 24.5002 13.3 25.8002C13.3 28.3002 13.2 31.0002 13 33.7002C12.8 36.4002 12.5 39.2002 12 42.0002C11.4 45.9002 10.7 49.0002 9.9 51.4002C9.2 53.6002 8.4 55.4002 7.6 56.5002C6.8 57.7002 6.1 58.2002 5.7 58.4002C5 58.9002 4.3 59.0002 3.6 58.8002C3.5 58.8002 3.4 58.7002 3.3 58.7002L1.3 58.0002L0.8 60.1002C0.6 60.7002 0.5 61.3002 0.4 61.8002C0.3 62.3002 0.2 63.0002 0.2 63.6002C0 64.3002 0 64.9002 0 65.4002C0 67.3002 0.4 68.6002 1.3 69.5002L1.4 69.6002C2.3 70.4002 3.5 70.7002 5.4 70.7002C7.6 70.7002 9.8 70.2002 11.7 69.1002C13.7 68.1002 15.5 66.3002 17 64.0002C18.4 61.8002 19.7 58.8002 20.8 55.3002C21.9 51.8002 22.8 47.6002 23.5 42.6002C23.9 39.6002 24.2 36.7002 24.4 33.9002C24.5 31.8002 24.7 29.6002 24.8 27.4002C25.2 27.4002 25.7 27.4002 26.2 27.4002C28.6 27.3002 30.9 27.3002 33.1 27.4002C33.5 27.4002 33.9 27.4002 34.2 27.4002C34.1 31.0002 33.9 34.5002 33.9 37.9002C33.9 41.9002 33.8 46.0002 33.8 50.2002V59.0002C33.8 61.6002 33.9 63.9002 34 66.1002C34.1 67.4002 34.4 68.4002 35.1 69.1002L35.3 69.3002C36.1 70.0002 37.2 70.3002 39 70.3002C40.1 70.3002 41.3 70.2002 42.5 70.0002C43.8 69.8002 44.9 69.5002 45.8 69.2002L47.6 68.6002L47.1 66.8002C46.7 66.4002 46.5 65.4002 46.3 63.3002Z" fill="#E2211C"/>
<path d="M97.6999 64.8998L97.5999 62.6998C97.5999 61.9998 97.5 61.2998 97.5 60.6998C97.4 57.8998 97.4 54.7998 97.4 51.4998V41.3998C97.4 39.8998 97.4 38.1998 97.5 36.2998L97.5999 30.6998C97.6999 28.7998 97.8 27.0998 97.8 25.3998C97.8 23.6998 97.9 22.2998 97.9 21.1998C97.9 19.6998 97.4999 18.5998 96.6999 17.7998C95.9999 17.0998 94.9 16.7998 93.5 16.7998C92.5999 16.7998 91.5 16.8998 90.3 16.9998C89.1 17.0998 87.9 17.1998 86.9 17.3998L86.0999 17.5998L85.5999 18.2998C84.1999 20.4998 82.4999 22.9998 80.5999 25.8998C78.6999 28.7998 76.6999 31.8998 74.5999 35.0998C72.4999 38.2998 70.5 41.5998 68.4 44.8998C67.8 45.7998 67.2999 46.7998 66.6999 47.6998C66.6999 47.0998 66.6999 46.5998 66.6999 45.9998C66.6999 44.7998 66.8 43.3998 66.8 41.7998L66.9 35.4998C66.9 33.2998 67 31.2998 67 29.4998C67 27.5998 67.0999 25.7998 67.0999 24.2998C67.0999 22.6998 67.1999 21.2998 67.1999 20.2998C67.1999 19.6998 67 16.7998 62.7 16.7998C61.5 16.7998 60.2999 16.8998 59.2999 16.9998C58.1999 17.0998 56.9 17.2998 55.5 17.6998L53.7 18.1998L54 19.9998C54.1 20.6998 54.2999 21.3998 54.2999 21.8998V22.0998C54.3999 22.5998 54.4999 23.0998 54.5999 23.6998C54.6999 24.1998 54.6999 24.8998 54.7999 25.5998C54.7999 26.2998 54.9 27.0998 54.9 28.0998C54.9 29.9998 54.8999 32.0998 54.7999 34.4998V41.5998C54.7999 43.9998 54.8 46.3998 54.7 48.6998C54.7 51.0998 54.5999 53.2998 54.5999 55.4998C54.5999 57.4998 54.6 59.3998 54.5 60.9998V66.3998V66.5998C54.6 67.2998 54.7999 67.9998 55.0999 68.5998L55.2 68.7998C55.6 69.3998 56.2 69.8998 57 70.1998C58.1 70.6998 59.6999 70.7998 62.0999 70.4998C63.0999 70.3998 64.1 70.2998 65 70.0998L65.9 69.8998L66.3 68.9998C66.7 68.0998 67.2999 66.8998 68.1999 65.3998C69.0999 63.7998 70.2 61.8998 71.4 59.7998C72.6 57.6998 74 55.3998 75.4 52.9998C76.9 50.4998 78.4 47.9998 80 45.4998C81.6 42.8998 83.1999 40.3998 84.6999 37.9998C84.8999 37.5998 85.2 37.2998 85.4 36.8998C85.4 37.9998 85.4 39.0998 85.3 40.2998C85.3 41.9998 85.2999 43.6998 85.1999 45.2998V49.6998L85.0999 54.7998C85.0999 56.3998 85.1 57.8998 85 59.3998C85 60.7998 85 61.9998 84.9 63.2998V65.8998C84.9 67.5998 85.4 68.8998 86.3 69.6998L86.4 69.7998C87.3 70.4998 88.3999 70.7998 90.1999 70.7998C90.8999 70.7998 91.8 70.6998 92.8 70.6998C93.9 70.5998 95.1 70.2998 96.3 69.8998L98 68.9998L97.8 67.3998C97.8 66.4998 97.6999 65.6998 97.6999 64.8998Z" fill="#E2211C"/>
<path d="M158.2 64.7998C158.1 64.1998 158 63.4998 158 62.7998C158 62.0998 157.9 61.4998 157.9 60.9998C157.9 56.2998 157.9 51.8998 158 47.6998C158.1 43.4998 158.2 39.5998 158.2 36.0998C158.3 32.5998 158.4 29.6998 158.4 27.1998C158.5 24.5998 158.5 22.6998 158.5 21.2998C158.5 19.7998 158.1 18.6998 157.4 17.9998C156.7 17.1998 155.6 16.8998 154.2 16.8998C153.2 16.8998 152.1 16.9998 151 17.0998C149.8 17.1998 148.7 17.3998 147.7 17.5998L146.9 17.7998L146.5 18.4998C144.5 21.5998 142.6 24.8998 140.7 28.0998C139.1 30.8998 137.3 33.9998 135.5 37.2998C134.3 39.4998 133.2 41.5998 132.1 43.6998C131.3 42.2998 130.4 40.7998 129.6 39.2998C128.2 36.4998 126.8 33.8998 125.4 31.2998C124.1 28.5998 122.9 26.1998 121.8 24.0998C120.7 21.8998 120 20.1998 119.4 18.9998C118.7 17.7998 117.8 17.2998 117.1 17.0998C116.5 16.8998 115.8 16.7998 115.2 16.7998C113.9 16.7998 112.4 16.8998 110.9 17.1998C109.5 17.3998 108.1 17.6998 106.7 17.9998L104.5 18.4998L105.2 20.5998C105.9 22.8998 106.4 25.0998 106.5 27.0998C106.7 29.1998 106.8 31.3998 106.8 33.6998C106.8 35.1998 106.8 36.8998 106.7 38.6998C106.7 40.4998 106.7 42.3998 106.6 44.2998C106.6 46.1998 106.6 47.9998 106.5 49.7998C106.5 51.6998 106.4 53.4998 106.4 55.1998C106.4 55.6998 106.4 56.3998 106.3 57.1998V57.2998C106.3 58.1998 106.2 59.0998 106.2 60.0998C106.2 60.9998 106.1 61.8998 106.1 62.6998C106.1 63.5998 106 64.2998 106 64.7998C106 66.7998 106.5 68.1998 107.6 69.1998C108.5 69.9998 109.8 70.3998 111.5 70.3998C112.2 70.3998 113 70.3998 113.9 70.2998C114.8 70.1998 115.7 70.0998 116.5 69.9998L118.3 69.6998L118.1 67.8998C118.1 67.2998 118 66.7998 118 66.0998C118 65.5998 117.9 65.0998 117.9 64.5998V62.5998C117.9 57.9998 117.8 54.0998 117.8 50.8998V41.1998C118.9 43.3998 119.8 45.3998 120.8 47.0998C122.9 50.7998 124.5 53.2998 125.6 54.6998C126.3 55.5998 127.1 56.1998 127.9 56.6998C128.8 57.0998 129.8 57.2998 131.1 57.2998C131.8 57.2998 132.5 57.1998 133.3 57.0998C134 56.9998 134.7 56.8998 135.4 56.7998C136.1 56.6998 136.8 56.4998 137.5 56.3998L138.6 56.1998L139.5 53.4998C139.7 52.9998 139.9 52.3998 140.1 51.8998C140.3 51.3998 140.6 50.7998 140.9 50.0998C141.4 48.9998 142 47.7998 142.7 46.4998C143.4 45.1998 144.1 43.6998 144.9 42.1998C145.3 41.4998 145.7 40.6998 146.1 39.9998C146.1 41.5998 146.1 43.0998 146.1 44.5998V53.9998C146.1 54.7998 146.1 55.7998 146 57.0998C146 58.1998 146 59.3998 145.9 60.5998C145.9 61.6998 145.9 62.7998 145.8 63.7998V65.8998C145.8 67.2998 146.2 68.3998 146.9 69.1998L147.1 69.3998C147.9 70.0998 149.2 70.4998 151.4 70.4998C152.1 70.4998 153 70.3998 154 70.2998C155.1 70.1998 156.3 69.8998 157.4 69.3998L158.8 68.7998L158.5 67.2998C158.4 66.3998 158.2 65.5998 158.2 64.7998ZM115.9 31.3998V31.1998C115.9 31.2998 115.9 31.2998 115.9 31.3998Z" fill="#E2211C"/>
<path d="M207 23.6996C204.9 21.2996 202.3 19.3996 199.3 18.0996C196.3 16.7996 192.7 16.0996 188.7 16.0996C184.9 16.0996 181.5 16.8996 178.4 18.4996C175.4 20.0996 172.8 22.1996 170.8 24.7996C168.7 27.3996 167.2 30.3996 166.1 33.7996C165 37.1996 164.5 40.6996 164.5 44.3996C164.5 48.2996 165 51.8996 166 55.1996C167.1 58.4996 168.6 61.2996 170.7 63.6996C172.8 66.0996 175.4 67.8996 178.4 69.2996C181.4 70.5996 184.9 71.1996 188.8 71.1996C192.6 71.1996 196 70.3996 199 68.7996C202 67.1996 204.6 65.0996 206.7 62.4996C208.8 59.8996 210.4 56.7996 211.5 53.4996C212.6 50.0996 213.1 46.5996 213.1 42.8996C213.1 38.9996 212.6 35.3996 211.6 32.1996C210.6 28.8996 209 25.9996 207 23.6996ZM200.7 43.3996C200.7 45.9996 200.4 48.3996 199.7 50.5996C199.1 52.6996 198.2 54.4996 197.1 55.8996C196 57.2996 194.7 58.3996 193.3 59.1996C192 59.8996 190.5 60.2996 189 60.2996C187.2 60.2996 185.5 59.9996 184.1 59.2996C182.7 58.5996 181.4 57.5996 180.3 56.1996C179.2 54.7996 178.3 53.0996 177.7 50.9996C177.1 48.8996 176.7 46.4996 176.7 43.7996C176.7 41.0996 177 38.6996 177.7 36.5996C178.4 34.4996 179.3 32.6996 180.4 31.2996C181.5 29.8996 182.8 28.7996 184.3 28.0996C185.7 27.3996 187.1 26.9996 188.6 26.9996C190.3 26.9996 192 27.3996 193.4 28.0996C194.9 28.7996 196.1 29.6996 197.1 31.0996C198.2 32.4996 199.1 34.1996 199.7 36.2996C200.3 38.2996 200.7 40.6996 200.7 43.3996Z" fill="#E2211C"/>
<path d="M261.4 63.0998C261.4 61.0998 261.3 58.8998 261.3 56.3998C261.3 53.8998 261.3 51.2998 261.2 48.7998V41.4998C261.2 39.9998 261.2 38.2998 261.3 36.3998L261.6 30.5998C261.7 28.5998 261.8 26.7998 261.8 25.1998C261.9 23.4998 261.9 22.0998 261.9 21.0998C261.9 19.0998 261 18.0998 260.3 17.6998C259.5 17.1998 258.6 16.9998 257.3 16.9998C256.3 16.9998 255.2 17.0998 254 17.1998C252.7 17.2998 251.5 17.4998 250.4 17.6998L248.8 18.0998L248.9 19.7998C249 21.1998 249.1 22.4998 249.2 23.7998C249.3 24.7998 249.4 25.8998 249.4 27.1998C249.5 28.2998 249.5 29.0998 249.5 29.6998L249.4 37.6998C248.1 37.5998 246.8 37.4998 245.5 37.4998C241.9 37.2998 238.3 37.2998 234.7 37.3998C233.8 37.3998 232.8 37.4998 231.7 37.4998C231.7 36.7998 231.8 36.0998 231.8 35.2998C231.9 33.3998 232 31.4998 232 29.5998C232.1 27.5998 232.2 25.7998 232.2 23.9998C232.2 22.1998 232.3 20.8998 232.3 19.9998C232.3 18.3998 231.3 17.2998 229.7 16.9998C229 16.8998 228.4 16.7998 227.8 16.7998C226.5 16.7998 225.1 16.8998 223.7 17.1998C222.4 17.3998 221.1 17.6998 219.9 17.9998L217.8 18.4998L218.4 20.5998C218.6 21.2998 218.8 22.0998 219 22.9998V23.0998C219.2 23.7998 219.4 24.6998 219.5 25.7998C219.6 26.7998 219.7 27.9998 219.8 29.4998C219.9 30.7998 219.9 32.4998 219.9 34.3998C219.9 35.7998 219.9 37.2998 219.8 39.0998C219.8 40.7998 219.8 42.5998 219.7 44.3998L219.6 49.8998C219.6 51.6998 219.5 53.3998 219.5 54.8998C219.5 55.3998 219.5 56.0998 219.4 56.8998C219.4 57.6998 219.3 58.5998 219.3 59.5998L219.2 62.2998C219.2 63.1998 219.1 63.8998 219.1 64.5998C219.1 66.5998 219.4 67.8998 220.1 68.8998C220.9 69.9998 222.3 70.4998 224.1 70.4998C224.8 70.4998 225.7 70.4998 226.9 70.3998C228.1 70.2998 229.2 70.0998 230.1 69.8998L231.9 69.4998L231.6 67.6998C231.5 67.0998 231.4 66.5998 231.3 65.8998C231.2 65.4998 231.2 64.9998 231.1 64.3998C231.1 63.7998 231 63.1998 231 62.5998V59.1998L231.3 50.2998C231.3 49.5998 231.3 48.8998 231.4 48.2998C231.9 48.2998 232.5 48.2998 233.1 48.2998C234.4 48.2998 235.8 48.1998 237.3 48.1998C241.7 48.1998 245.7 48.2998 249.2 48.4998C249.2 48.5998 249.2 48.6998 249.2 48.7998C249.2 49.7998 249.2 50.8998 249.1 52.1998C249.1 53.3998 249.1 54.7998 249 56.1998C249 57.5998 249 58.8998 248.9 60.2998V66.1998C248.9 67.2998 249.2 68.1998 249.9 69.0998C250.7 70.0998 252 70.4998 253.9 70.4998C254.9 70.4998 256.1 70.3998 257.2 70.1998C258.4 69.9998 259.4 69.6998 260.3 69.3998L261.9 68.7998L261.7 67.1998C261.6 66.2998 261.5 64.8998 261.4 63.0998Z" fill="#E2211C"/>
<path d="M312.2 63.0998C312.2 61.0998 312.1 58.8998 312.1 56.3998C312.1 53.8998 312.1 51.2998 312 48.7998V41.4998C312 39.9998 312 38.2998 312.1 36.3998L312.4 30.5998C312.5 28.5998 312.6 26.7998 312.6 25.1998C312.7 23.4998 312.7 22.0998 312.7 21.0998C312.7 19.0998 311.8 18.0998 311.1 17.6998C310.3 17.1998 309.4 16.9998 308.1 16.9998C307.1 16.9998 306 17.0998 304.8 17.1998C303.5 17.2998 302.3 17.4998 301.2 17.6998L299.6 18.0998L299.7 19.7998C299.8 21.1998 299.9 22.4998 300 23.7998C300.1 24.7998 300.2 25.8998 300.2 27.1998C300.3 28.2998 300.3 29.0998 300.3 29.6998L300.2 37.6998C298.9 37.5998 297.6 37.4998 296.3 37.4998C292.7 37.2998 289.1 37.2998 285.5 37.3998C284.6 37.3998 283.6 37.4998 282.5 37.4998C282.5 36.7998 282.6 36.0998 282.6 35.2998C282.7 33.3998 282.8 31.4998 282.8 29.5998C282.9 27.5998 283 25.7998 283 23.9998C283 22.1998 283.1 20.8998 283.1 19.9998C283.1 18.3998 282.1 17.2998 280.5 16.9998C279.8 16.8998 279.2 16.7998 278.6 16.7998C277.3 16.7998 275.9 16.8998 274.5 17.1998C273.2 17.3998 271.9 17.6998 270.7 17.9998L268.6 18.4998L269.2 20.5998C269.4 21.2998 269.6 22.0998 269.8 22.9998V23.0998C270 23.7998 270.2 24.6998 270.3 25.7998C270.4 26.7998 270.5 27.9998 270.6 29.4998C270.7 30.7998 270.7 32.4998 270.7 34.3998C270.7 35.7998 270.7 37.2998 270.6 39.0998C270.6 40.7998 270.6 42.5998 270.5 44.3998L270.4 49.8998C270.4 51.6998 270.3 53.3998 270.3 54.8998C270.3 55.3998 270.3 56.0998 270.2 56.8998C270.2 57.6998 270.1 58.5998 270.1 59.5998L270 62.2998C270 63.1998 269.9 63.8998 269.9 64.5998C269.9 66.5998 270.2 67.8998 270.9 68.8998C271.7 69.9998 273.1 70.4998 274.9 70.4998C275.6 70.4998 276.5 70.4998 277.7 70.3998C278.9 70.2998 280 70.0998 280.9 69.8998L282.7 69.4998L282.4 67.6998C282.3 67.0998 282.2 66.5998 282.1 65.8998C282 65.4998 282 64.9998 281.9 64.3998C281.9 63.7998 281.8 63.1998 281.8 62.5998V59.1998L282.1 50.2998C282.1 49.5998 282.1 48.8998 282.2 48.2998C282.7 48.2998 283.3 48.2998 283.9 48.2998C285.2 48.2998 286.6 48.1998 288.1 48.1998C292.5 48.1998 296.5 48.2998 300 48.4998C300 48.5998 300 48.6998 300 48.7998C300 49.7998 300 50.8998 299.9 52.1998C299.9 53.3998 299.9 54.7998 299.8 56.1998C299.8 57.5998 299.8 58.8998 299.7 60.2998V66.1998C299.7 67.2998 300 68.1998 300.7 69.0998C301.5 70.0998 302.8 70.4998 304.7 70.4998C305.7 70.4998 306.9 70.3998 308 70.1998C309.2 69.9998 310.2 69.6998 311.1 69.3998L312.7 68.7998L312.5 67.1998C312.4 66.2998 312.3 64.8998 312.2 63.0998Z" fill="#E2211C"/>
<path d="M374.4 63.5004C374.4 61.8004 374.3 59.8004 374.3 57.6004C374.3 55.3004 374.2 52.9004 374.2 50.4004V42.1004C374.2 37.5004 374.3 33.3004 374.5 29.7004C374.7 26.0004 374.8 23.1004 374.8 21.1004C374.8 19.1004 373.9 18.1004 373.1 17.6004C372.3 17.1004 371.3 16.9004 370.2 16.9004C369.8 16.9004 369.2 16.9004 368.5 17.0004C367.8 17.0004 367.2 17.1004 366.5 17.1004C365.8 17.1004 365.1 17.2004 364.4 17.3004C363.8 17.4004 363.2 17.5004 362.7 17.6004L360.8 18.0004L361.1 19.9004C361.2 20.6004 361.3 21.3004 361.5 22.0004C361.6 22.6004 361.7 23.2004 361.8 23.9004C361.9 24.6004 362 25.2004 362 25.8004C362.1 27.7004 362.2 30.1004 362.2 32.9004C362.2 35.7004 362.3 38.8004 362.3 42.0004C362.3 44.9004 362.3 47.6004 362.2 50.2004C362.2 52.7004 362.1 55.0004 362.1 57.2004C362.1 59.2004 362.1 61.0004 362 62.6004C362 64.2004 361.9 65.4004 361.9 66.3004C361.9 67.4004 362.2 68.3004 362.9 69.2004C363.7 70.2004 365 70.6004 366.9 70.6004C367.9 70.6004 369.1 70.5004 370.2 70.3004C371.4 70.1004 372.4 69.8004 373.3 69.5004L374.8 69.0004L374.6 67.4004C374.5 66.4004 374.5 65.1004 374.4 63.5004Z" fill="#E2211C"/>
<path d="M354.2 39.5996C352.6 38.1996 350.7 37.1996 348.5 36.4996C346.4 35.7996 344 35.4996 341.5 35.4996C339.4 35.4996 337.5 35.6996 335.7 35.8996C334.9 35.9996 334.1 36.1996 333.4 36.2996C333.4 33.6996 333.4 31.4996 333.4 29.3996C333.4 26.6996 333.4 24.2996 333.3 22.2996C333.2 20.5996 333 19.3996 332.6 18.4996C332.2 17.5996 331.1 16.5996 328.7 16.5996C327.7 16.5996 326.5 16.6996 325.2 16.8996C323.9 17.0996 322.5 17.3996 321.1 17.7996L319.1 18.2996L319.7 20.2996C319.9 20.8996 320 21.4996 320.2 21.9996L320.3 22.1996C320.4 22.4996 320.5 22.8996 320.6 23.3996V23.5996C320.7 24.0996 320.8 24.6996 320.9 25.2996V25.3996C321 25.9996 321.1 26.7996 321.2 27.7996C321.3 28.7996 321.4 29.9996 321.4 31.2996C321.5 32.4996 321.6 33.7996 321.6 35.1996C321.7 36.4996 321.7 37.7996 321.7 39.1996C321.7 40.4996 321.8 41.7996 321.8 42.9996C321.8 46.5996 321.7 50.4996 321.5 54.4996C321.3 58.4996 321.1 62.3996 320.9 65.9996L320.8 67.4996L322.2 67.9996C323.4 68.3996 324.9 68.7996 326.4 69.1996C327.7 69.4996 329.3 69.7996 331.1 69.9996C332.9 70.1996 335 70.2996 337.2 70.2996C340.4 70.2996 343.3 69.9996 345.9 69.2996C348.7 68.5996 351.1 67.5996 353.1 66.0996C355.1 64.5996 356.7 62.5996 357.8 60.1996C358.9 57.7996 359.5 54.9996 359.5 51.7996C359.5 49.0996 359 46.6996 358.1 44.6996C357.2 42.6996 355.9 40.9996 354.2 39.5996ZM347.1 52.5996C347.1 53.8996 346.9 54.9996 346.5 55.8996C346.1 56.6996 345.5 57.3996 344.7 57.9996C343.9 58.5996 343 58.9996 341.9 59.2996C340.7 59.5996 339.3 59.6996 337.8 59.6996C336.8 59.6996 335.8 59.6996 335 59.5996C334.2 59.4996 333.5 59.3996 332.9 59.2996H332.8C332.9 58.1996 333 57.0996 333 55.9996C333.1 54.4996 333.2 52.7996 333.2 50.9996L333.3 47.0996C333.9 46.9996 334.5 46.7996 335.2 46.6996C336.4 46.3996 337.9 46.2996 339.7 46.2996C342.3 46.2996 344.2 46.8996 345.4 47.9996C346.6 48.7996 347.1 50.3996 347.1 52.5996Z" fill="#E2211C"/>
<path d="M392.5 10.7C393 11.7 393.7 12.6 394.7 13.5C395.6 14.3 396.8 15.1 398.3 15.7C399.8 16.3 401.6 16.6 403.6 16.6C405.5 16.6 407.2 16.3 408.8 15.6C410.3 15 411.6 14.1 412.7 13.1C413.8 12.1 414.7 11 415.3 9.8C416 8.5 416.3 7.2 416.3 6C416.3 5.4 416.2 4.8 416 4.3C415.9 3.9 415.7 3.5 415.5 3.1L412.9 0L411.4 2.5C410.5 4 409.4 5.2 408.2 6.1C407.1 6.9 405.9 7.2 404.6 7.2C402.9 7.2 401.1 6.7 400.5 2.9L399.9 0L397.4 1.6C396.5 2.2 395.6 2.7 394.9 3.3C394.2 3.9 393.5 4.5 393 5.1C392.2 6 391.8 6.9 391.8 7.9C391.8 8.6 392 9.5 392.4 10.6L392.5 10.7Z" fill="#E2211C"/>
<path d="M425.8 64.7998L425.7 62.5998C425.7 61.8998 425.6 61.1998 425.6 60.5998C425.5 57.7998 425.5 54.6998 425.5 51.3998V41.3998C425.5 39.8998 425.5 38.1998 425.6 36.2998L425.7 30.6998C425.8 28.7998 425.9 27.0998 425.9 25.3998C425.9 23.6998 426 22.2998 426 21.1998C426 19.6998 425.6 18.5998 424.8 17.7998C424.1 17.0998 423 16.7998 421.6 16.7998C420.7 16.7998 419.6 16.8998 418.4 16.9998C417.2 17.0998 416 17.1998 415 17.3998L414.2 17.5998L413.7 18.2998C412.2 20.4998 410.6 22.9998 408.7 25.8998C406.8 28.7998 404.8 31.8998 402.7 35.0998C400.7 38.1998 398.6 41.4998 396.5 44.8998C395.9 45.7998 395.4 46.7998 394.8 47.6998C394.8 47.0998 394.8 46.5998 394.8 45.9998C394.8 44.7998 394.9 43.3998 394.9 41.7998L395 35.4998C395 33.2998 395.1 31.2998 395.1 29.4998C395.1 27.5998 395.2 25.7998 395.2 24.2998C395.2 22.6998 395.3 21.2998 395.3 20.2998C395.3 19.6998 395.1 16.7998 390.8 16.7998C389.6 16.7998 388.4 16.8998 387.4 16.9998C386.3 17.0998 385 17.2998 383.6 17.6998L381.8 18.1998L382.1 19.9998C382.2 20.6998 382.4 21.3998 382.4 21.8998V22.0998C382.5 22.5998 382.6 23.0998 382.7 23.6998C382.8 24.1998 382.8 24.8998 382.9 25.5998C382.9 26.2998 383 27.0998 383 28.0998C383 29.9998 383 32.0998 382.9 34.4998V41.5998C382.9 43.8998 382.9 46.2998 382.8 48.6998C382.8 51.0998 382.7 53.2998 382.7 55.4998C382.7 57.4998 382.7 59.3998 382.6 60.9998V66.3998V66.5998C382.7 67.2998 382.9 67.9998 383.2 68.5998L383.3 68.7998C383.7 69.3998 384.3 69.8998 385.1 70.1998C386.2 70.6998 387.9 70.7998 390.2 70.4998C391.2 70.3998 392.2 70.2998 393.1 70.0998L394 69.8998L394.4 68.9998C394.8 68.0998 395.4 66.8998 396.3 65.3998C397.2 63.7998 398.3 61.8998 399.5 59.7998C400.7 57.6998 402.1 55.3998 403.5 52.9998C405 50.5998 406.5 48.0998 408.1 45.4998C409.6 42.9998 411.2 40.4998 412.8 37.9998C413 37.5998 413.3 37.2998 413.5 36.8998C413.5 37.9998 413.5 39.0998 413.4 40.2998C413.4 41.9998 413.4 43.5998 413.3 45.2998V49.6998L413.2 54.7998C413.2 56.3998 413.2 57.8998 413.1 59.3998C413.1 60.7998 413.1 61.9998 413 63.2998V65.8998C413 67.5998 413.5 68.8998 414.4 69.6998L414.5 69.7998C415.4 70.4998 416.5 70.7998 418.3 70.7998C419 70.7998 419.9 70.6998 420.9 70.6998C422 70.5998 423.2 70.2998 424.4 69.8998L425.9 69.3998L425.7 67.7998C425.9 66.4998 425.8 65.6998 425.8 64.7998Z" fill="#E2211C"/>
<path d="M483.8 32.3995C485 30.8995 486.3 29.4995 487.6 28.0995C488.9 26.6995 490.4 25.1995 491.9 23.6995L493.3 22.2995L491.9 20.8995C491.5 20.4995 491.2 20.1995 490.7 19.7995C490.4 19.4995 490.1 19.2995 489.7 18.8995C489.3 18.4995 488.8 18.0995 488.3 17.6995C486.3 16.1995 484.5 16.1995 483.4 16.4995C481.9 16.7995 480.5 17.8995 479 19.6995C478 20.8995 477 22.3995 475.9 23.8995C474.9 25.3995 473.8 26.9995 472.7 28.6995C471.7 30.3995 470.6 32.0995 469.6 33.7995C468.8 35.1995 468 36.4995 467.2 37.7995C466.6 37.7995 466.1 37.7995 465.4 37.7995C464.9 37.7995 464.4 37.7995 463.8 37.6995C463.8 35.8995 463.8 34.1995 463.8 32.5995C463.8 30.3995 463.9 28.3995 463.9 26.6995C463.9 24.6995 464 22.7995 464 20.9995C464 19.0995 462.8 16.9995 459.5 16.9995C458.5 16.9995 457.6 17.0995 456.6 17.1995C455.7 17.2995 454.9 17.3995 454.1 17.5995C453.2 17.7995 452.4 17.9995 451.7 18.1995L449.6 18.6995L450.2 20.6995C450.4 21.2995 450.6 21.8995 450.8 22.4995C451 22.8995 451.1 23.3995 451.2 23.9995V24.1995C451.4 24.6995 451.5 25.2995 451.5 25.8995C451.6 26.5995 451.6 27.3995 451.6 28.3995C451.6 31.0995 451.6 33.9995 451.5 37.0995C451.5 40.1995 451.5 43.2995 451.4 46.3995L451.3 55.6995C451.3 58.7995 451.3 61.6995 451.2 64.4995C451.2 66.5995 451.6 67.9995 452.4 69.0995C453.3 70.0995 454.7 70.4995 456.7 70.4995C457.4 70.4995 458.3 70.3995 459.3 70.3995C460.3 70.2995 461.3 70.0995 462.2 69.8995L464.2 69.4995L463.7 67.4995C463.6 66.9995 463.5 66.4995 463.4 65.8995C463.3 65.4995 463.3 64.9995 463.2 64.3995C463.2 63.7995 463.1 63.1995 463.1 62.5995V55.1995C463.1 52.7995 463.1 50.1995 463.2 47.4995C463.4 47.4995 463.7 47.4995 463.9 47.5995H464C464.7 47.5995 465.3 47.6995 465.8 47.7995H466C466.4 47.8995 466.8 47.9995 467.1 48.0995C467.5 48.2995 467.9 48.4995 468.2 48.7995C469.1 49.4995 470 50.8995 470.9 52.7995C472 54.9995 473.3 57.5995 474.8 60.4995C475.7 62.2995 476.5 63.7995 477.2 64.9995C477.9 66.1995 478.7 67.2995 479.5 68.0995C480.4 68.9995 481.3 69.5995 482.4 69.9995C483.4 70.3995 484.6 70.4995 485.9 70.4995C487.9 70.4995 489.4 69.9995 490.4 68.9995C491.4 67.9995 491.8 66.4995 491.8 64.5995C491.8 63.9995 491.8 63.4995 491.7 62.8995C491.7 62.3995 491.6 61.9995 491.6 61.5995C491.6 61.0995 491.5 60.6995 491.5 60.2995L491.3 58.4995H490C489.4 58.4995 488.9 58.4995 488.5 58.3995C488.3 58.3995 488.2 58.2995 488 58.1995C487.7 57.8995 487.4 57.5995 487.1 57.1995C486.8 56.6995 486.4 55.8995 485.9 54.8995C484.8 52.5995 483.8 50.6995 482.9 49.1995C482 47.4995 481.2 46.0995 480.4 45.0995C479.6 43.8995 478.9 42.8995 478.2 42.1995C477.9 41.8995 477.7 41.5995 477.4 41.3995C478.4 39.8995 479.3 38.4995 480.2 37.1995C481.4 35.3995 482.6 33.8995 483.8 32.3995Z" fill="#E2211C"/>
<path d="M531 60.9C530.9 60.4 530.8 59.9 530.7 59.5L530.2 57.5L528.2 58.1C526.4 58.6 524.7 58.9 523.1 59.2C521.5 59.4 519.6 59.5 517.5 59.5C516.4 59.5 515.2 59.5 513.9 59.6H508.5C508.6 57.4 508.6 55.4 508.6 53.5C508.6 51.7 508.7 50 508.7 48.3C509.2 48.4 509.8 48.4 510.4 48.5L514.5 48.8C515.8 48.8 517 48.9 518.2 48.9C519.4 48.9 520.5 49 521.4 49C523.3 49 524.7 48.6 525.7 47.6C526.7 46.6 527.1 45.2 527.1 43.2C527.1 42.7 527.1 42.2 527 41.7C527 41.3 526.9 40.9 526.9 40.5C526.9 40.1 526.8 39.7 526.8 39.3L526.5 37.2L524.4 37.6C523.9 37.7 523.5 37.7 523 37.8C522.5 37.8 522 37.9 521.4 37.9H519.5C516.9 37.9 514.5 37.9 512.5 37.8C511.2 37.7 509.9 37.7 508.7 37.6C508.7 36.5 508.6 35.5 508.6 34.5C508.6 32.9 508.6 31.4 508.5 30.1C508.5 29.3 508.4 28.6 508.4 27.8C510.2 27.8 512.1 27.9 513.9 28C516.5 28.1 519 28.2 521.2 28.2C523.9 28.2 525.6 28 526.7 27.5C527.6 27.1 529.1 26 529.1 23.3C529.1 23 529.1 22.4 529 21.5C528.9 20.6 528.8 19.5 528.5 18.3L528.1 16.5L526.2 16.8C524.9 17 523.6 17.1 522.3 17.2C521 17.2 519.4 17.3 517.7 17.3H514.2C512.9 17.3 511.5 17.2 510.3 17.2C509 17.2 507.7 17.1 506.5 17.1C505.3 17.1 504.2 17 503.2 17C501.9 17 500.7 17 499.7 17.1C498.6 17.2 497.5 17.3 496.6 17.5L494.6 18L495.2 20C495.4 20.6 495.5 21.2 495.7 21.8L495.8 22C496 22.4 496.1 22.9 496.2 23.5C496.3 24 496.4 24.7 496.5 25.4C496.6 26.1 496.7 27 496.8 28C496.9 29.7 496.9 31.7 496.9 33.8C496.9 35.8 497 38 497 40.2C497 45.8 497 50.8 496.9 55.2C496.9 59.5 496.7 63.7 496.5 67.6L496.4 69.5L498.3 69.7C501.1 69.9 504.2 70.1 507.4 70.2C510.6 70.3 513.7 70.4 516.5 70.4C519.2 70.4 521.4 70.4 523.1 70.3C524.9 70.2 526.4 70.1 527.4 69.8C528.9 69.4 529.8 68.8 530.4 67.9C530.9 67.1 531.2 66 531.2 64.8C531.2 64 531.1 63.3 531 62.6C531.2 62 531.1 61.4 531 60.9Z" fill="#E2211C"/>
<path d="M577.3 61.5997C577.3 61.0997 577.2 60.6997 577.2 60.2997L577 58.5997H575.2C574.6 58.5997 574.1 58.5997 573.7 58.4997C573.5 58.4997 573.4 58.3997 573.2 58.2997C572.9 57.9997 572.6 57.6997 572.3 57.2997C572 56.7997 571.6 55.9997 571.1 54.9997C570 52.6997 569 50.7997 568.1 49.2997C567.2 47.5997 566.4 46.1997 565.6 45.1997C564.8 43.9997 564.1 42.9997 563.4 42.2997C563.1 41.9997 562.9 41.6997 562.6 41.4997C563.6 39.9997 564.5 38.5997 565.4 37.2997C566.6 35.5997 567.8 33.9997 569 32.5997C570.2 31.0997 571.5 29.6997 572.8 28.2997C574.1 26.8997 575.6 25.3997 577.1 23.8997L578.5 22.4997L577.1 21.0997C576.7 20.6997 576.4 20.3997 575.9 19.9997C575.6 19.6997 575.3 19.4997 574.9 19.0997C574.5 18.6997 574 18.2997 573.5 17.8997C571.5 16.3997 569.7 16.3997 568.6 16.6997C567.1 16.9997 565.7 18.0997 564.2 19.8997C563.2 21.0997 562.2 22.4997 561.1 24.0997C560.1 25.5997 559 27.1997 557.9 28.8997C556.9 30.4997 555.9 32.1997 554.8 33.9997C554 35.3997 553.2 36.6997 552.4 37.9997C551.8 37.9997 551.2 37.9997 550.6 37.9997C550.1 37.9997 549.6 37.9997 549 37.8997C549 36.1997 549 34.3997 549 32.7997C549 30.5997 549.1 28.5997 549.1 26.8997C549.1 24.8997 549.2 22.9997 549.2 21.1997C549.2 19.2997 548 17.1997 544.7 17.1997C543.7 17.1997 542.8 17.2997 541.8 17.3997C540.9 17.4997 540.1 17.5997 539.3 17.7997C538.4 17.9997 537.6 18.1997 536.9 18.3997L534.9 18.8997L535.5 20.8997C535.7 21.4997 535.9 22.0997 536.1 22.6997C536.3 23.0997 536.4 23.5997 536.5 24.1997V24.3997C536.7 24.8997 536.8 25.4997 536.8 26.0997C536.9 26.7997 536.9 27.6997 536.9 28.5997C536.9 31.3997 536.9 34.2997 536.8 37.2997C536.8 40.2997 536.8 43.3997 536.7 46.5997L536.6 55.8997C536.6 58.9997 536.6 61.8997 536.5 64.6997C536.5 66.7997 536.9 68.1997 537.7 69.2997C538.6 70.2997 540 70.6997 542 70.6997C542.7 70.6997 543.6 70.5997 544.6 70.5997C545.6 70.4997 546.6 70.2997 547.5 70.0997L549.5 69.6997L549 67.6997C548.9 67.1997 548.8 66.6997 548.7 66.0997C548.6 65.6997 548.6 65.1997 548.5 64.5997C548.5 63.9997 548.4 63.3997 548.4 62.7997V55.3997C548.4 52.9997 548.4 50.3997 548.5 47.6997C548.7 47.6997 549 47.6997 549.2 47.7997H549.3C550 47.7997 550.6 47.8997 551.1 47.9997H551.3C551.7 48.0997 552.1 48.1997 552.4 48.2997C552.8 48.4997 553.2 48.6997 553.5 48.9997C554.4 49.6997 555.3 51.0997 556.2 52.9997C557.3 55.1997 558.6 57.7997 560.1 60.6997C561 62.4997 561.8 63.9997 562.5 65.1997C563.2 66.3997 564 67.4997 564.8 68.2997C565.7 69.1997 566.6 69.7997 567.7 70.1997C568.7 70.5997 569.9 70.6997 571.2 70.6997C573.2 70.6997 574.7 70.1997 575.7 69.1997C576.7 68.1997 577.1 66.6997 577.1 64.7997C577.1 64.1997 577.1 63.6997 577 63.0997C577.4 62.3997 577.4 61.8997 577.3 61.5997Z" fill="#E2211C"/>
<path d="M617.6 60C617.2 58.8 616.6 57.6 615.9 56.7L614.7 55.1L613.1 56.4C612.1 57.2 610.7 58 609 58.8C607.4 59.5 605.4 59.9 603.1 59.9C599.2 59.9 596.3 58.6 594.1 56C591.8 53.3 590.6 49.3 590.6 44.1C590.6 41.4 590.9 38.9 591.6 36.9C592.3 34.9 593.2 33.1 594.3 31.8C595.4 30.5 596.6 29.4 598 28.7C599.4 28 600.9 27.7 602.4 27.7C603.5 27.7 604.4 27.8 605.4 27.9C606.3 28 607.1 28.1 607.8 28.2H607.9C608.6 28.3 609.3 28.4 609.9 28.5H610.1C610.9 28.6 611.7 28.7 612.5 28.7C614.6 28.7 616.2 27.6 616.9 25.7C617.4 24.3 617.7 22.2 617.7 19.1V17.1H615.7C614.8 17.1 613.9 17.1 613.1 17C612.2 16.9 611.2 16.8 610.2 16.8C609.2 16.7 608.1 16.6 607 16.6C605.8 16.5 604.5 16.5 603 16.5C599 16.5 595.4 17.3 592.3 19C589.3 20.6 586.7 22.7 584.6 25.4C582.6 28 581 31.1 580 34.5C579 37.8 578.5 41.4 578.5 44.9C578.5 49.2 579.1 53 580.4 56.4C581.7 59.7 583.5 62.5 585.8 64.6C588 66.8 590.7 68.5 593.7 69.6C596.7 70.7 599.9 71.2 603.3 71.2C605 71.2 606.8 71 608.5 70.7C610.2 70.4 611.8 70 613.2 69.4C614.7 68.8 615.9 68.1 616.8 67.2C618.3 65.8 618.7 64.4 618.7 63.4C618.2 62.3 618 61.2 617.6 60Z" fill="#E2211C"/>
</svg>
