<svg width="386" height="385" viewBox="0 0 386 385" fill="none" xmlns="http://www.w3.org/2000/svg">
<path d="M78.4463 222.031C79.357 219.103 80.235 216.165 81.1805 213.248C82.1807 210.17 83.3042 207.175 80.9553 204.108C80.1566 203.066 79.8819 201.61 79.4299 200.322C77.3447 194.347 74.4805 188.938 68.9107 185.412C68.1524 184.931 67.541 184.214 66.8768 183.589C65.222 182.037 65.0301 180.551 66.4791 178.792C69.0215 175.703 71.6679 172.704 74.2612 169.659C74.6814 169.165 75.064 168.644 75.0822 168.095C74.9989 167.28 74.5592 166.166 74.9253 165.73C75.3224 165.256 76.4721 165.411 77.2942 165.293C77.3599 165.454 77.4233 165.614 77.4869 165.777C78.875 164.128 80.3051 162.509 81.607 160.792C81.7946 160.547 81.5104 159.644 81.1781 159.359C79.5655 157.976 77.8475 156.719 76.1977 155.38C75.6514 154.936 75.0244 154.458 74.7524 153.854C74.5058 153.299 74.4655 152.42 74.7524 151.931C74.9703 151.564 75.9158 151.341 76.4259 151.477C79.2001 152.218 81.3506 153.987 83.3261 155.993C83.678 156.351 84.009 156.727 84.5827 157.347C85.8106 155.09 88.7427 153.997 87.9901 150.804C87.8822 150.345 87.7176 149.8 87.3895 149.51C84.5414 147.018 81.6582 144.567 78.7666 142.126C77.8013 141.311 76.6695 140.665 75.8319 139.744C75.3941 139.264 75.4281 138.355 75.2492 137.638C75.9039 137.597 76.6315 137.353 77.2018 137.553C80.7698 138.804 83.2941 141.456 85.7535 144.163C86.2539 144.714 86.7355 145.281 87.4894 146.144C87.3032 141.366 87.1255 137.1 83.4649 133.793C80.9557 131.526 78.7285 128.944 76.4395 126.446C75.763 125.709 74.6341 124.829 75.5262 123.719C76.5194 122.483 77.6568 123.488 78.4299 124.153C80.6764 126.091 82.7944 128.175 85.2575 130.478C84.9382 128.785 84.5658 127.434 84.4466 126.061C84.1482 122.556 82.9435 119.419 81.1242 116.427C80.0519 114.667 79.251 112.728 78.4787 110.807C78.2769 110.306 78.6418 109.577 78.7457 108.954C79.38 109.202 80.3244 109.265 80.5937 109.725C82.0659 112.246 83.3758 114.865 84.8487 117.662C85.0864 116.348 85.1863 115.159 85.5275 114.046C86.0434 112.368 86.659 110.713 87.3908 109.12C87.5672 108.735 88.4536 108.353 88.8451 108.482C89.2301 108.608 89.6284 109.385 89.6275 109.871C89.6226 110.815 89.3749 111.766 89.1697 112.702C88.836 114.234 88.3941 115.744 88.1166 117.283C87.7157 119.502 87.812 121.665 88.5996 123.85C89.3991 126.071 89.8862 128.404 90.6271 131.12C91.5539 128.993 92.3286 127.208 93.1056 125.424C93.8548 123.71 94.5119 121.948 95.4168 120.321C95.7252 119.768 96.6716 119.571 97.3265 119.213C97.5592 119.864 98.0444 120.538 97.9856 121.158C97.5821 125.351 95.7291 129.047 93.4537 132.46C91.8356 134.885 91.0195 137.231 91.8017 140.09C92.037 140.947 92.0187 141.875 92.1518 143.086C94.1936 140.657 96.0573 138.437 97.9233 136.219C98.3452 135.714 98.6974 135.119 99.2116 134.734C99.5347 134.491 100.283 134.341 100.504 134.536C100.828 134.817 101.042 135.488 100.949 135.917C100.805 136.574 100.358 137.163 100.217 137.893C103.051 134.27 105.949 130.694 108.706 127.011C116.62 116.432 124.634 105.925 132.313 95.1793C141.018 82.9926 149.318 70.514 157.956 58.2801C162.562 51.7555 167.472 45.4401 172.345 39.1109C173.694 37.3619 175.582 36.1884 177.875 35.9393C180.617 35.6386 182.772 36.9624 184.758 38.5995C187.847 41.1419 190.913 43.7087 193.939 46.3263C194.766 47.0407 195.289 47.0726 196.064 46.2571C197.423 44.826 198.902 43.5114 200.332 42.1511C201.035 41.4843 201.81 41.1679 202.591 41.9612C203.333 42.713 202.958 43.4742 202.377 44.1133C200.848 45.7888 199.284 47.4354 197.564 49.2744C198.942 50.3963 200.01 51.2704 201.238 52.2683C202.305 51.1267 203.284 50.0483 204.295 49.0033C207.108 46.0928 209.818 43.0696 212.783 40.3218C216.38 36.9871 219.577 36.8668 223.347 39.9929C225.14 41.4774 226.682 43.394 227.934 45.372C229.892 48.4686 229.656 51.6863 227.258 54.5269C224.583 57.6995 221.777 60.7582 219.036 63.877C218.545 64.4378 218.1 65.0379 217.551 65.7232C219.948 67.723 222.224 69.643 224.516 71.5366C234.121 79.4642 243.761 87.3498 253.331 95.3196C265.84 105.738 279.064 115.155 292.969 123.603C309.093 133.397 323.697 145.153 337.66 157.769C346.046 165.344 354.895 172.348 364.377 178.524C364.966 178.909 365.511 179.372 366.043 179.841C371.362 184.531 371.985 189.722 367.648 195.354C358.718 206.943 349.741 218.494 340.674 229.976C330.509 242.851 320.28 255.674 309.976 268.435C301.803 278.556 293.478 288.555 285.219 298.607C284.994 298.88 284.692 299.122 284.558 299.434C283.913 300.921 282.742 301.132 281.297 300.968C274.408 300.175 267.52 299.35 260.617 298.661C245.457 297.15 230.292 295.717 215.13 294.24C211.662 293.903 208.125 293.772 205.101 291.694C202.765 290.088 200.47 288.429 198.143 286.808C189.088 280.505 179.977 274.284 170.977 267.9C156.851 257.876 143.767 246.675 132.451 233.48C126.346 226.36 119.896 219.559 111.866 214.507C109.468 212.997 106.992 211.611 104.587 210.119C103.78 209.619 103.28 209.759 102.659 210.449C97.3092 216.407 90.8537 220.907 83.7201 224.431C81.9023 225.329 80.7374 226.45 80.1238 228.357C79.629 229.897 78.9807 231.41 78.2307 232.844C74.671 239.656 71.061 246.442 67.4333 253.216C67.1966 253.66 66.701 254.15 66.2482 254.247C65.8081 254.339 64.9492 254.065 64.8374 253.748C64.638 253.191 64.6533 252.365 64.9416 251.851C69.0536 244.511 72.6565 236.936 75.789 229.129C76.3667 227.688 76.4384 226.427 75.9126 224.928C73.1735 217.097 70.5387 209.23 67.9016 201.361C67.4689 200.069 67.2361 198.711 66.8778 197.394C66.5709 196.262 66.5825 195.198 67.8399 194.717C69.2077 194.194 69.5692 195.348 69.9977 196.256C73.2752 203.209 75.3313 210.564 77.0959 218.013C77.4092 219.334 77.714 220.659 78.0209 221.983C78.1593 222.004 78.2956 222.027 78.434 222.049L78.4463 222.031ZM95.2038 197.142C99.7761 199.856 104.188 202.47 108.592 205.097C110.938 206.496 113.322 207.838 115.593 209.354C123.918 214.919 130.735 222.151 137.381 229.526C145.979 239.069 155.06 248.122 165.426 255.708C179.473 265.986 193.805 275.874 207.987 285.967C208.92 286.631 209.484 286.53 210.317 285.835C220.589 277.294 230.892 268.786 241.192 260.276C242.576 259.135 243.989 258.033 245.546 256.783C242.98 254.838 240.627 253.05 238.272 251.264C238.366 251.136 238.461 251.003 238.556 250.875C239.014 251.15 239.484 251.41 239.928 251.705C241.699 252.878 243.489 254.031 245.221 255.26C246.089 255.876 246.762 256.038 247.782 255.41C250.825 253.536 253.973 253.66 256.966 255.543C258.238 256.341 259.467 257.316 260.451 258.44C268.516 267.641 275.786 277.403 281.273 288.399C282.207 290.271 283.099 292.167 284.079 294.19C284.461 293.719 284.751 293.378 285.023 293.025C293.522 282.065 302.038 271.119 310.515 260.143C319.951 247.923 329.332 235.66 338.775 223.446C346.049 214.038 353.408 204.693 360.671 195.274C361.801 193.807 362.779 192.174 363.55 190.494C364.535 188.35 363.984 186.308 362.385 184.617C361.624 183.814 360.773 183.068 359.866 182.436C358.163 181.252 356.35 180.226 354.653 179.036C344.033 171.575 334.011 163.373 324.448 154.598C316.79 147.571 308.81 140.933 299.891 135.545C284.017 125.952 268.648 115.623 254.172 104.032C240.897 93.4008 227.805 82.5375 214.67 71.7295C213.588 70.8386 213.032 70.6852 212.057 71.8882C208.772 75.9354 205.397 79.9145 201.975 83.8458C199.109 87.1388 195.981 87.7236 192.023 85.8881C191.521 85.6554 191.032 85.3814 190.559 85.0896C185.749 82.1404 182.096 78.0336 179.147 73.3073C176.523 69.1015 176.886 65.9398 180.257 62.2899C183.107 59.2018 186.06 56.2092 188.965 53.173C189.37 52.7485 189.765 52.3179 190.307 51.7382C187.028 49.1183 183.961 46.5623 180.772 44.1675C179.205 42.9939 177.86 43.1767 176.357 44.4728C175.404 45.2964 174.456 46.1758 173.716 47.1817C171.257 50.5234 168.891 53.9309 166.494 57.3179C154.27 74.5815 142.159 91.9272 129.785 109.08C122.974 118.518 115.772 127.673 108.646 136.878C103.72 143.242 98.6001 149.456 93.6237 155.785C93.1553 156.379 93.0981 157.3 92.8528 158.069C92.9875 158.108 93.12 158.144 93.2546 158.183C95.2671 155.652 97.2509 153.099 99.3033 150.601C100.041 149.701 100.829 148.381 102.259 149.497C103.668 150.599 102.469 151.65 101.85 152.499C99.1988 156.14 96.44 159.7 93.7715 163.324C93.3805 163.854 93.0775 164.57 93.0369 165.218C92.7732 169.409 92.6002 173.61 92.3753 177.804C92.3557 178.181 92.1766 178.551 92.0708 178.922L92.7708 179.077C94.8987 176.521 97.0243 173.963 99.1523 171.411C100.707 169.547 102.209 167.638 103.874 165.876C104.262 165.461 105.201 165.565 105.887 165.428C105.933 166.033 106.209 166.745 105.984 167.225C105.131 169.05 104.396 171.043 103.103 172.528C100.025 176.069 96.6501 179.349 93.4082 182.745C92.7951 183.388 91.8867 184.012 91.7273 184.774C91.1448 187.543 90.8027 190.362 90.4368 193.176C90.3923 193.517 90.6673 194.082 90.9539 194.225C91.2011 194.348 91.726 194.09 92.0304 193.866C92.3894 193.603 92.6202 193.173 92.9452 192.857C96.1901 189.676 99.4371 186.493 102.704 183.332C103.471 182.592 104.375 182.276 105.253 183.139C106.141 184.015 105.747 184.904 105.086 185.705C102.899 188.356 100.716 191.01 98.4891 193.628C97.5143 194.773 96.4421 195.835 95.2148 197.148L95.2038 197.142ZM211.993 288.793C234.508 291.204 256.866 293.065 279.015 297.985C278.144 296.113 277.374 294.532 276.666 292.925C271.884 282.101 265.275 272.416 257.89 263.259C253.997 258.433 251.352 258.382 246.442 262.195C237.573 269.085 228.682 275.949 219.795 282.817C217.248 284.785 214.686 286.732 211.993 288.793ZM193.307 54.3524C189.756 58.1503 186.296 61.7666 182.939 65.4763C181.379 67.198 181.3 69.1842 182.453 71.2365C184.647 75.1491 187.643 78.3163 191.265 80.9204C195.006 83.6108 197.788 83.5561 200.927 80.1722C204.293 76.5461 207.34 72.6231 210.519 68.827C210.573 68.7649 210.539 68.6327 210.562 68.3544C209.324 67.3591 208.008 66.3039 206.609 65.1785C205.151 66.9463 203.821 68.5334 202.522 70.141C201.38 71.554 200.362 73.0833 199.12 74.4029C197.477 76.1511 195.843 76.4512 193.784 75.2705C192.18 74.3498 190.62 73.2405 189.318 71.9354C186.964 69.5684 186.989 67.9928 189.155 65.4848C191.238 63.0743 193.399 60.7279 195.52 58.3483C195.878 57.9469 196.217 57.5311 196.592 57.0947C196.005 56.5465 195.549 56.0821 195.051 55.6664C194.553 55.2507 194.011 54.8816 193.301 54.3505L193.307 54.3524ZM204.268 54.6771C204.912 55.2793 205.182 55.5736 205.492 55.8127C206.406 56.5221 207.27 57.5881 208.287 57.769C208.941 57.8848 209.826 56.6848 210.61 56.0776C210.689 56.0147 210.766 55.911 210.854 55.9059C211.274 55.866 211.872 55.676 212.074 55.8735C212.362 56.1586 212.566 56.8122 212.434 57.1716C212.162 57.9165 211.594 58.5465 211.255 59.2743C211.101 59.6086 211.023 60.2523 211.214 60.4266C212.424 61.5412 213.717 62.5627 214.768 63.4373C218.01 59.9704 221.137 56.7503 224.109 53.3892C225.409 51.9192 225.658 50.0414 225.142 48.0903C223.643 42.401 218.142 40.2667 214.272 44.0452C210.843 47.3915 207.691 51.0169 204.27 54.6749L204.268 54.6771ZM85.989 191.027C87.2736 187.191 87.2662 183.834 84.8894 180.704C83.6108 179.017 82.5357 177.175 81.3432 175.423C80.7932 174.613 80.1739 173.851 79.4624 172.907C77.3043 175.46 75.3303 177.793 73.3562 180.123C76.7061 184.874 81.6055 187.528 85.9869 191.03L85.989 191.027ZM83.5437 219.625C89.4131 216.188 94.4271 211.938 99.1692 207.089C96.6799 205.544 94.3603 204.121 92.0573 202.675C90.1628 201.482 90.0526 201.467 88.6468 203.233C88.3187 203.646 88.1374 204.205 87.9848 204.724C86.8862 208.459 85.8222 212.201 84.7235 215.936C84.3607 217.175 83.9391 218.396 83.5437 219.625ZM203.916 62.9563C202.843 62.078 201.799 61.2934 200.84 60.4178C200.126 59.7663 199.67 59.9601 199.095 60.5968C197.469 62.3983 195.803 64.1623 194.135 65.9243C191.263 68.9508 191.372 69.4268 195.219 71.1671C196.199 71.6096 196.954 71.5198 197.629 70.6904C199.664 68.1846 201.703 65.6788 203.918 62.9583L203.916 62.9563ZM87.7665 179.256C87.9568 175.954 88.0558 172.879 88.3296 169.821C88.516 167.747 87.2024 166.557 86.0902 164.955C84.713 166.61 83.4623 168.059 82.2933 169.572C82.0996 169.824 82.1054 170.445 82.2849 170.73C84.0171 173.498 85.8084 176.23 87.7644 179.258L87.7665 179.256ZM81.4626 195.637C82.2264 198.203 82.893 200.438 83.6617 203.021C85.3045 198.063 85.2365 197.833 81.4626 195.637Z" fill="#FFC079"/>
<path d="M167.73 193.194C170.613 195.889 173.644 198.449 176.352 201.309C182.396 207.702 189.376 212.805 197.014 217.107C199.827 218.693 202.486 220.564 205.135 222.419C208.682 224.908 211.001 228.491 213.536 231.919C214.972 233.865 217.01 235.367 218.771 237.076C219.029 237.326 219.258 237.607 219.501 237.872C219.114 237.992 218.701 238.268 218.34 238.214C215.356 237.75 213.148 235.994 211.407 233.671C208.317 229.545 204.842 225.822 200.526 222.976C197.402 220.917 194.214 218.948 190.994 217.041C186.084 214.127 181.612 210.669 177.714 206.509C169.456 197.697 160.497 189.653 151.123 182.066C143.18 175.638 135.213 169.23 127.07 163.06C124.156 160.852 120.699 159.363 117.482 157.563C116.838 157.202 115.826 156.984 116.406 156.011C116.602 155.682 117.666 155.59 118.197 155.779C124.023 157.847 129.335 160.927 134.111 164.786C145.53 174.006 156.806 183.4 168.138 192.726C168.004 192.884 167.869 193.037 167.734 193.194L167.73 193.194Z" fill="#FFC079"/>
<path d="M216.117 118.882C230.836 127.912 245.304 139.658 260.068 150.981C272.915 160.833 285.498 171.029 298.355 180.87C302.758 184.242 307.629 187.002 312.293 190.031C315.098 191.854 317.977 193.601 319.815 196.514C320.26 197.222 321.462 198.229 320.212 198.938C319.017 199.615 318.863 198.08 318.486 197.383C316.873 194.38 314.328 192.463 311.318 191.092C308.098 189.63 304.594 188.627 301.663 186.727C297.355 183.935 293.408 180.574 289.372 177.37C280.494 170.326 271.723 163.145 262.787 156.176C249.979 146.189 237.016 136.404 224.228 126.391C220.976 123.845 218.136 120.77 216.115 118.88L216.117 118.882Z" fill="#FFC079"/>
<path d="M243.113 177.935C242.651 177.753 242.11 177.663 241.736 177.368C233.53 170.856 225.282 164.393 217.169 157.769C207.801 150.117 198.71 142.116 189.211 134.637C179.236 126.784 168.905 119.38 158.753 111.748C157.058 110.475 155.457 109.071 153.865 107.666C153.551 107.388 153.485 106.831 153.305 106.404C153.763 106.417 154.328 106.258 154.666 106.466C158.196 108.626 161.928 110.542 165.144 113.104C172.465 118.938 179.476 125.156 186.709 131.107C195.034 137.954 203.456 144.68 211.837 151.46C220.139 158.177 228.448 164.885 236.737 171.616C238.584 173.113 240.377 174.682 242.184 176.226C242.598 176.58 242.984 176.969 243.383 177.343C243.293 177.542 243.199 177.741 243.109 177.939L243.113 177.935Z" fill="#FFC079"/>
<path d="M249.802 182.293C251.92 183.532 254.045 184.758 256.151 186.015C268.108 193.154 278.298 202.49 288.327 212.008C291.298 214.828 294.052 217.874 296.907 220.818C297.544 221.476 298.105 222.208 297.224 223.025C296.342 223.84 295.733 223.017 295.184 222.478C291.028 218.402 286.875 214.322 282.761 210.205C272.855 200.298 262.303 191.184 250.434 183.675C250.06 183.438 249.77 183.067 249.439 182.757C249.561 182.605 249.685 182.45 249.807 182.297L249.802 182.293Z" fill="#FFC079"/>
<path d="M237.378 207.201C245.516 214.756 255.085 220.286 264.243 226.422C268.374 229.189 271.953 232.774 275.808 235.957C278.722 238.366 281.677 240.721 284.598 243.123C284.859 243.338 284.977 243.723 285.162 244.029C284.717 244.059 284.157 244.28 283.847 244.09C280.616 242.114 277.239 240.317 274.265 238.003C268.277 233.345 262.207 228.818 256.057 224.375C251.044 220.753 246.682 216.229 242.051 212.082C240.376 210.583 238.762 209.019 237.121 207.485C237.208 207.391 237.291 207.298 237.376 207.203L237.378 207.201Z" fill="#FFC079"/>
<path d="M198.344 175.848C176.267 162.645 158.142 144.503 138.543 128.205C138.645 128.025 138.747 127.849 138.848 127.669C139.359 127.839 139.963 127.892 140.37 128.201C143.743 130.769 147.308 133.144 150.389 136.033C161.632 146.576 173.467 156.397 185.751 165.689C189.788 168.744 193.832 171.787 197.867 174.84C198.14 175.046 198.373 175.305 198.624 175.54C198.53 175.64 198.439 175.746 198.346 175.846L198.344 175.848Z" fill="#FFC079"/>
<path d="M208.137 111.354C206.346 110.208 204.539 109.076 202.76 107.912C191.956 100.853 181.401 93.4606 171.712 84.8968C171.256 84.4948 170.767 84.1175 170.386 83.6527C170.142 83.3533 170.069 82.9104 169.92 82.5303C170.362 82.5649 170.905 82.4478 171.23 82.6606C173.054 83.8449 174.881 85.0335 176.602 86.359C186.941 94.3115 197.254 102.301 207.572 110.28C207.862 110.505 208.11 110.779 208.378 111.03C208.298 111.138 208.218 111.246 208.142 111.354L208.137 111.354Z" fill="#FFC079"/>
<path d="M213.108 188.397C209.759 186.539 207.499 183.827 204.719 181.573C207.052 182.048 212.151 186.104 213.108 188.397Z" fill="#FFC079"/>
</svg>
