<svg width="218" height="79" viewBox="0 0 218 79" fill="none" xmlns="http://www.w3.org/2000/svg">
<g clip-path="url(#clip0_643_71)">
<path d="M9.5 4.5C9.7 5.3 9.8 6.3 9.8 7.3C9.8 7.8 9.8 8.8 9.8 10.4V16C9.8 17.4 9.8 18.9 9.7 20.4C9.7 21.9 9.6 23.3 9.5 24.6C9.4 25.9 9.4 27.1 9.3 28.1C9.3 29.1 9.3 29.9 9.3 30.4C9.3 31.6 9.5 32.3 9.9 32.8C10.3 33.3 11.1 33.5 12.3 33.5C12.7 33.5 13.3 33.5 14 33.4C14.7 33.3 15.4 33.2 15.9 33.1L16.8 32.9L16.6 32C16.5 31.7 16.5 31.3 16.4 30.8C16.3 30.4 16.3 30 16.3 29.6C16.3 29.1 16.3 28.6 16.3 28C16.3 24.1 16.4 20.3 16.5 16.6C16.6 13.2 16.8 9.9 16.9 6.6C17.4 6.6 18 6.6 18.6 6.6H23.5C24.1 6.6 24.8 6.6 25.4 6.6C26 6.6 26.6 6.6 27.2 6.6C27.4 6.6 27.7 6.6 27.9 6.6C27.9 8 27.9 9.7 27.8 11.5C27.8 13.7 27.7 16 27.6 18.4L27.4 25.5C27.4 27.8 27.4 29.8 27.4 31.5C27.4 32.3 27.7 32.8 28.1 33.1C28.5 33.4 29.1 33.5 30.1 33.5C30.5 33.5 31.1 33.5 31.8 33.4C32.6 33.3 33.4 33.2 34.1 32.9L34.9 32.6L35.1 32C35.1 31.7 35 31.4 35 31C34.9 30.7 34.9 30.3 34.9 29.9C34.9 29.3 34.8 28.7 34.8 27.9C34.7 26.2 34.7 24.2 34.7 22.2C34.7 20.1 34.8 18 34.8 15.9C34.8 15 34.9 13.9 34.9 12.7L35 8.9C35.1 7.6 35.1 6.5 35.1 5.5C35.2 4.4 35.2 3.7 35.2 3.2C35.2 2 34.7 1.5 34.3 1.2C33.8 0.9 33.3 0.7 32.5 0.7C31.5 0.6 30.6 0.6 29.7 0.6L27.2 0.5C26.4 0.5 25.5 0.5 24.6 0.5H22C19.8 0.5 17.8 0.5 15.9 0.5C14 0.5 12 0.6 9.8 0.8L8.5 0.9L8.9 2C9.1 2.8 9.3 3.6 9.5 4.5Z" fill="#E2211C"/>
<path d="M40.3 3.4V3.5C40.4 3.7 40.5 4 40.5 4.3V4.4C40.6 4.7 40.6 5.1 40.7 5.6C40.9 6 41 6.5 41 7.2C41.1 7.9 41.1 8.6 41.1 9.4C41.2 10.2 41.2 11 41.2 11.9C41.3 12.7 41.3 13.6 41.3 14.4C41.3 15.2 41.3 16 41.3 16.8C41.3 19.1 41.2 21.5 41.1 24.1C41 26.6 40.9 29 40.7 31.3V32.1L41.4 32.4C42.2 32.7 43.1 32.9 44 33.1C44.8 33.3 45.8 33.4 46.9 33.6C48 33.7 49.3 33.8 50.7 33.8C52.7 33.8 54.5 33.6 56.1 33.2C57.8 32.8 59.3 32.1 60.5 31.2C61.7 30.3 62.7 29 63.4 27.6C64.1 26.2 64.4 24.4 64.4 22.4C64.4 20.7 64.1 19.3 63.6 18C63 16.7 62.2 15.6 61.2 14.8C60.2 13.9 59 13.3 57.7 12.9C56.4 12.5 54.9 12.3 53.4 12.3C52.1 12.3 50.9 12.4 49.8 12.6C49.2 12.7 48.6 12.8 48 12.9C48 11.2 48 9.6 48 8.3C48 6.6 48 5.1 47.9 3.9C47.9 2.8 47.7 2.1 47.5 1.6C47.3 1.1 46.7 0.5 45.3 0.5C44.7 0.5 43.9 0.6 43.1 0.7C42.3 0.8 41.4 1 40.5 1.2L39.5 1.5L39.8 2.5C40.2 2.7 40.3 3.1 40.3 3.4ZM47.8 27.1C47.9 26.3 47.9 25.6 48 24.8C48.1 23.9 48.1 22.8 48.1 21.7L48.2 19C48.6 18.9 49.1 18.8 49.6 18.7C50.4 18.5 51.3 18.4 52.5 18.4C54.2 18.4 55.4 18.8 56.2 19.5C57 20.2 57.4 21.2 57.4 22.7C57.4 23.5 57.3 24.3 57 24.8C56.7 25.4 56.3 25.8 55.8 26.2C55.3 26.6 54.7 26.9 53.9 27.1C53.1 27.3 52.2 27.4 51.3 27.4C50.6 27.4 50 27.4 49.5 27.3C49 27.2 48.6 27.2 48.2 27.1C48 27.1 47.9 27.1 47.8 27.1Z" fill="#E2211C"/>
<path d="M66.4 3.40008C66.5 3.80008 66.5 4.20008 66.6 4.60008C66.7 5.00008 66.7 5.40008 66.7 5.80008C66.8 7.00008 66.8 8.50008 66.8 10.3001C66.8 12.1001 66.8 14.0001 66.8 16.0001C66.8 17.8001 66.8 19.5001 66.8 21.1001C66.8 22.7001 66.7 24.1001 66.7 25.5001C66.7 26.8001 66.7 27.9001 66.7 28.9001C66.7 29.9001 66.7 30.7001 66.7 31.2001C66.7 31.8001 66.9 32.4001 67.3 32.8001C67.7 33.3001 68.5 33.6001 69.6 33.6001C70.2 33.6001 70.9 33.5001 71.6 33.4001C72.3 33.3001 73 33.1001 73.5 32.9001L74.2 32.6001L74.1 31.8001C74 31.2001 74 30.4001 74 29.4001C74 28.3001 73.9 27.1001 73.9 25.7001C73.9 24.3001 73.9 22.8001 73.9 21.1001V16.0001C73.9 13.1001 74 10.4001 74.1 8.20008C74.2 5.90008 74.3 4.10008 74.3 2.80008C74.3 1.60008 73.8 1.10008 73.4 0.800082C72.8 0.400082 71.9 0.300082 70.7 0.400082C70.3 0.400082 69.8 0.400082 69.4 0.500082C69 0.500082 68.5 0.600082 68.1 0.600082C67.7 0.700082 67.3 0.700082 67 0.800082L66.1 1.00008L66.2 1.90008C66.3 2.50008 66.3 2.90008 66.4 3.40008Z" fill="#E2211C"/>
<path d="M87 33.5999C88.1 33.5999 89.3 33.5999 90.7 33.5999C92.1 33.5999 93.4 33.5999 94.8 33.5999H103.6C106.6 33.5999 109.1 33.5999 111.1 33.4999C113.2 33.3999 114.8 33.2999 116 33.0999L117.2 32.9999L116.8 31.8999C116.8 31.7999 116.8 31.5999 116.7 31.2999C116.7 30.8999 116.6 30.3999 116.6 29.7999C116.6 29.1999 116.5 28.5999 116.5 27.9999V26.3999C116.5 23.6999 116.5 21.2999 116.5 18.9999C116.6 16.6999 116.6 14.6999 116.6 12.7999C116.7 10.8999 116.7 9.09989 116.7 7.49989C116.8 5.79989 116.8 4.29989 116.8 2.79989C116.8 1.89989 116.5 1.19989 115.9 0.799889C115.1 0.199889 113.7 0.199889 112.1 0.399889C111.4 0.499889 110.7 0.599889 110.1 0.699889L109.3 0.899889V1.79989C109.3 2.49989 109.4 3.19989 109.4 3.89989L109.5 5.69989C109.5 6.29989 109.5 6.79989 109.5 7.19989C109.5 11.2999 109.5 15.1999 109.4 18.6999C109.4 21.7999 109.3 24.5999 109.3 27.1999C108.3 27.1999 107.2 27.2999 106 27.2999C104.7 27.2999 103.2 27.2999 101.4 27.3999C101.4 25.0999 101.4 22.9999 101.4 20.7999C101.5 18.2999 101.5 15.9999 101.6 13.7999C101.7 11.5999 101.7 9.59989 101.7 7.79989C101.8 5.89989 101.8 4.29989 101.8 2.99989C101.8 2.09989 101.5 1.39989 101 0.999889C100.5 0.599889 99.9 0.399889 99.1 0.399889C98.5 0.399889 97.9 0.399889 97.2 0.499889C96.5 0.499889 95.8 0.599889 95.1 0.799889L94.3 0.999889V1.79989C94.3 2.39989 94.4 3.09989 94.4 3.89989C94.4 4.59989 94.4 5.39989 94.4 6.49989C94.4 7.49989 94.4 8.69989 94.4 10.0999C94.4 11.3999 94.4 12.7999 94.4 14.3999C94.4 15.9999 94.4 17.5999 94.4 19.2999C94.4 20.9999 94.4 22.5999 94.3 24.1999C94.3 25.3999 94.2 26.4999 94.2 27.3999C92.4 27.3999 90.8 27.2999 89.4 27.2999C88.2 27.2999 87 27.1999 86 27.1999C86.1 25.5999 86.1 23.9999 86.2 22.1999C86.3 20.0999 86.4 17.7999 86.5 15.5999C86.6 13.2999 86.7 11.0999 86.7 8.79989C86.8 6.49989 86.8 4.39989 86.8 2.29989C86.8 1.59989 86.5 1.09989 85.9 0.799889C85.5 0.499889 84.9 0.399889 84 0.399889C83.2 0.399889 82.5 0.399889 81.8 0.499889C81.7 0.699889 81 0.899889 80.1 0.999889L79.2 1.19989L79.3 2.09989C79.4 2.49989 79.4 2.99989 79.5 3.49989C79.6 3.89989 79.6 4.19989 79.7 4.69989C79.8 5.09989 79.8 5.59989 79.8 6.19989C79.8 6.69989 79.8 7.39989 79.8 8.09989C79.8 10.2999 79.8 12.4999 79.7 14.7999C79.6 17.0999 79.6 19.2999 79.5 21.3999C79.4 23.4999 79.4 25.2999 79.3 26.8999C79.2 28.4999 79.2 29.6999 79.2 30.3999C79.2 31.3999 79.4 32.1999 79.9 32.6999C80.4 33.1999 81.1 33.3999 82.2 33.4999C82.6 33.4999 83.2 33.5999 84 33.4999C85 33.5999 86 33.5999 87 33.5999Z" fill="#E2211C"/>
<path d="M122.6 3.99993C122.7 4.49994 122.8 5.09994 122.9 5.69993C123 6.29993 123 7.09994 123.1 7.99994C123.2 8.89993 123.2 9.89994 123.2 11.0999C123.2 11.9999 123.2 12.8999 123.2 13.9999C123.2 15.0999 123.2 16.1999 123.2 17.3999L123.1 20.8999C123.1 21.9999 123.1 23.0999 123.1 24.0999C123.1 24.3999 123.1 24.8999 123.1 25.3999C123.1 25.8999 123 26.4999 123 27.0999L122.9 28.7999C122.9 29.2999 122.9 29.7999 122.9 30.1999C122.9 31.3999 123.1 32.1999 123.5 32.7999C124 33.3999 124.7 33.6999 125.8 33.6999C126.2 33.6999 126.8 33.6999 127.5 33.5999C128.3 33.4999 128.9 33.3999 129.5 33.2999L130.4 33.0999L130.2 32.1999C130.1 31.8999 130.1 31.4999 130 31.0999C129.9 30.7999 129.9 30.4999 129.9 30.0999C129.9 29.6999 129.9 29.2999 129.9 28.8999V26.7999L130.1 21.1999C130.1 20.6999 130.1 20.1999 130.1 19.6999C130.5 19.6999 130.9 19.6999 131.4 19.6999C132.2 19.6999 133.1 19.6999 134 19.6999C136.9 19.6999 139.5 19.7999 141.7 19.8999C141.7 19.9999 141.7 20.0999 141.7 20.2999C141.7 20.8999 141.7 21.5999 141.7 22.3999C141.7 23.1999 141.7 23.9999 141.7 24.8999C141.7 25.7999 141.7 26.5999 141.7 27.4999V31.1999C141.7 31.7999 141.9 32.3999 142.3 32.7999C142.7 33.2999 143.5 33.5999 144.6 33.5999C145.2 33.5999 145.9 33.4999 146.6 33.3999C147.3 33.2999 148 33.0999 148.5 32.8999L149.3 32.5999L149.2 31.7999C149.1 31.1999 149 30.3999 149 29.1999C149 27.8999 148.9 26.4999 148.9 24.9999C148.9 23.3999 148.9 21.7999 148.9 20.1999V15.5999C148.9 14.6999 148.9 13.5999 148.9 12.3999L149.1 8.69993C149.2 7.49994 149.2 6.29994 149.2 5.29994C149.3 4.19994 149.3 3.39994 149.3 2.69993C149.3 1.49993 148.8 0.999935 148.4 0.799935C147.6 0.299935 146.3 0.299935 144.6 0.499935C143.8 0.599935 143 0.699935 142.4 0.799935L141.6 0.999935L141.7 1.79993C141.8 2.69993 141.8 3.49994 141.9 4.29994C142 4.99994 142 5.59994 142 6.39994C142.1 7.09994 142.1 7.59994 142.1 7.99994V13.2999C141.2 13.1999 140.3 13.1999 139.4 13.0999C137.1 12.9999 134.9 12.9999 132.6 13.0999C131.9 13.0999 131.2 13.1999 130.4 13.1999C130.4 12.6999 130.5 12.0999 130.5 11.4999C130.6 10.2999 130.6 9.09994 130.6 7.89994C130.7 6.69993 130.7 5.49994 130.7 4.39994C130.7 3.29994 130.7 2.49993 130.7 1.89993C130.7 1.09993 130.1 0.399935 129.3 0.299935C128 0.099935 126.8 0.199935 125.6 0.399935C124.8 0.499935 124 0.699935 123.2 0.899935L122.2 1.09993L122.5 2.09993C122.3 2.89993 122.4 3.39993 122.6 3.99993Z" fill="#E2211C"/>
<path d="M156.9 29.5C158.2 31 159.8 32.1 161.7 32.9C163.6 33.7 165.7 34.1 168.2 34.1C170.5 34.1 172.6 33.6 174.5 32.6C176.4 31.6 178 30.3 179.3 28.7C180.6 27.1 181.6 25.2 182.3 23.1C183 21 183.3 18.8 183.3 16.5C183.3 14.1 183 11.9 182.4 9.9C181.8 7.8 180.8 6.1 179.6 4.6C178.3 3.1 176.7 1.9 174.8 1.2C172.9 0.4 170.7 0 168.2 0C165.9 0 163.7 0.5 161.8 1.5C160 2.5 158.4 3.8 157.1 5.4C155.8 7 154.8 8.9 154.2 11C153.5 13.1 153.2 15.3 153.2 17.6C153.2 20 153.5 22.3 154.1 24.3C154.7 26.3 155.7 28 156.9 29.5ZM160.4 17.2C160.4 15.5 160.6 13.9 161.1 12.6C161.5 11.2 162.1 10.1 162.8 9.2C163.5 8.3 164.4 7.6 165.3 7.1C167.3 6.1 169.5 6.2 171.3 7.1C172.2 7.5 173.1 8.2 173.8 9.1C174.5 10 175.1 11.1 175.5 12.4C175.9 13.7 176.1 15.2 176.1 16.9C176.1 18.6 175.9 20.1 175.4 21.5C175 22.8 174.4 24 173.7 24.9C173 25.8 172.2 26.5 171.2 27.1C170.3 27.6 169.4 27.8 168.4 27.8C167.2 27.8 166.1 27.6 165.2 27.2C164.3 26.7 163.4 26.1 162.7 25.2C162 24.3 161.4 23.2 161 21.9C160.6 20.4 160.4 18.9 160.4 17.2Z" fill="#E2211C"/>
<path d="M187.3 3.3C187.4 3.6 187.5 3.9 187.6 4.3C187.7 4.6 187.7 5 187.8 5.5C187.9 6 187.9 6.5 188 7.1C188.1 8.2 188.1 9.4 188.1 10.7C188.1 12 188.1 13.3 188.1 14.7C188.1 18.2 188.1 21.4 188.1 24.1C188.1 26.8 188 29.5 187.8 31.9L187.7 32.9L188.7 33C190.5 33.1 192.4 33.3 194.4 33.3C196.4 33.4 198.4 33.4 200.1 33.4C201.8 33.4 203.2 33.4 204.3 33.4C205.4 33.4 206.3 33.3 207 33.1C207.9 32.9 208.4 32.5 208.7 32C209 31.5 209.2 30.9 209.2 30.1C209.2 29.6 209.2 29.1 209.1 28.8C209.1 28.4 209 28 209 27.7C208.9 27.4 208.9 27.1 208.8 26.8L208.6 25.8L207.6 26.1C206.5 26.4 205.4 26.6 204.4 26.8C202.9 27 201 27 198.6 27.1H194.9C194.9 25.7 195 24.3 195 23L195.1 19.4C195.5 19.4 196 19.5 196.4 19.5L198.9 19.7L201.2 19.8C201.9 19.8 202.6 19.8 203.2 19.8C204.3 19.8 205.1 19.6 205.7 19C206.3 18.4 206.5 17.6 206.5 16.4C206.5 16.1 206.5 15.8 206.5 15.5C206.5 15.2 206.4 15 206.4 14.8C206.4 14.5 206.3 14.3 206.3 14L206.2 13L205.2 13.2C204.9 13.3 204.6 13.3 204.3 13.3C204 13.3 203.6 13.4 203.3 13.4H202C200.3 13.4 198.9 13.4 197.6 13.4C196.7 13.4 195.8 13.3 195 13.3C195 12.5 195 11.8 194.9 11.1C194.9 10.1 194.9 9.1 194.9 8.3C194.9 7.7 194.9 7.1 194.8 6.6C196 6.6 197.3 6.7 198.5 6.7C200.1 6.8 201.7 6.8 203.1 6.8C205.2 6.8 206 6.6 206.5 6.4C207 6.2 207.9 5.5 207.9 4C207.9 3.8 207.9 3.4 207.9 2.9C207.9 2.3 207.8 1.6 207.6 0.9L207.4 0L206.5 0.1C205.7 0.2 204.8 0.3 204.1 0.4C203.3 0.4 202.3 0.4 201.2 0.4H199C198.2 0.4 197.3 0.4 196.5 0.4C195.7 0.4 194.9 0.4 194.1 0.4C194.1 0.4 194.1 0.4 194 0.4C192.2 0.3 190.9 0.3 189.7 0.4C189 0.4 188.4 0.5 187.8 0.6L186.8 0.8L187.1 1.8C187.2 2.2 187.3 2.6 187.4 2.9L187.3 3.3Z" fill="#E2211C"/>
<path d="M56.2 70.7999L55 70.9999C54.9 70.9999 54.8 70.9999 54.6 70.9999C54.1 70.9999 53.7 70.7999 53.4 70.2999C52.9 69.5999 52.5 68.6999 52.1 67.3999C51.5 65.4999 51 63.5999 50.4 61.6999C49.9 59.7999 49.4 57.8999 49 56.1999C48.6 54.4999 48.1 52.8999 47.8 51.4999C47.4 49.9999 47.1 48.7999 46.8 47.9999C46.6 47.3999 46.3 46.7999 46.2 46.3999C46 45.8999 45.7 45.4999 45.3 45.1999C45 44.8999 44.5 44.6999 44 44.5999C43.2 44.3999 42 44.3999 40.8 44.5999C40.3 44.6999 39.7 44.6999 39.2 44.7999L36.9 45.2999L36.7 45.8999C36.4 47.1999 35.9 48.5999 35.4 50.1999C34.8 51.7999 34.2 53.3999 33.5 55.0999C32.8 56.7999 32.1 58.4999 31.3 60.2999C30.5 61.9999 29.8 63.6999 29.1 65.3999C28.5 66.9999 27.9 68.4999 27.3 69.9999C26.8 71.3999 26.4 72.6999 26.2 73.6999C26.1 73.9999 26.1 74.2999 26.1 74.4999C26.1 74.3999 26.1 74.2999 26.1 74.1999C26.1 73.7999 26.1 73.4999 26.1 73.1999C26.1 72.8999 26 72.5999 26 72.3999C26 72.0999 25.9 71.7999 25.9 71.5999L25.8 70.6999H24.9C24.5 70.6999 24.2 70.6999 23.9 70.5999C23.7 70.5999 23.6 70.4999 23.5 70.3999C23.3 70.1999 23.1 69.9999 22.9 69.6999C22.7 69.3999 22.4 68.7999 22.1 68.1999C21.4 66.7999 20.8 65.5999 20.2 64.5999C19.7 63.5999 19.1 62.6999 18.7 61.9999C18.2 61.2999 17.8 60.6999 17.3 60.1999C17.1 59.9999 16.9 59.7999 16.6 59.5999C17.3 58.5999 17.9 57.5999 18.5 56.7999C19.2 55.6999 20 54.6999 20.7 53.7999C21.5 52.8999 22.3 51.8999 23.1 51.0999C23.9 50.1999 24.8 49.2999 25.8 48.2999L26.5 47.5999L25.8 46.8999C25.6 46.6999 25.3 46.4999 25.1 46.1999L24.5 45.6999C24.2 45.3999 24 45.1999 23.6 44.8999C22.4 43.9999 21.4 43.9999 20.7 44.1999C19.8 44.3999 19 44.9999 18.1 46.0999C17.5 46.8999 16.8 47.7999 16.2 48.6999C15.6 49.5999 14.9 50.5999 14.2 51.6999C13.6 52.6999 12.9 53.7999 12.3 54.8999C11.8 55.7999 11.2 56.6999 10.7 57.5999C10.3 57.5999 9.9 57.5999 9.4 57.5999C9 57.5999 8.6 57.5999 8.1 57.4999C8.1 56.2999 8.1 55.0999 8.1 53.9999C8.1 52.5999 8.2 51.3999 8.2 50.2999C8.2 48.9999 8.3 47.8999 8.3 46.6999C8.3 46.1999 8.1 44.3999 5.7 44.3999C5.1 44.3999 4.5 44.3999 4 44.4999C3.4 44.5999 2.9 44.5999 2.4 44.6999C2 44.9999 1.5 45.0999 1 45.1999L0 45.4999L0.3 46.4999C0.4 46.8999 0.5 47.2999 0.7 47.5999C0.8 47.8999 0.9 48.1999 1 48.5999C1.1 48.8999 1.2 49.2999 1.2 49.6999C1.3 50.1999 1.3 50.6999 1.3 51.2999C1.3 52.9999 1.3 54.7999 1.3 56.7999C1.3 58.6999 1.3 60.5999 1.3 62.5999L1.2 68.4999C1.2 70.3999 1.2 72.2999 1.2 73.9999C1.2 75.2999 1.4 76.0999 1.9 76.6999C2.4 77.1999 3.2 77.4999 4.4 77.4999C4.8 77.4999 5.4 77.4999 6 77.3999C6.6 77.2999 7.2 77.1999 7.8 77.0999L8.8 76.8999L8.6 75.8999C8.5 75.5999 8.5 75.1999 8.4 74.8999C8.3 74.5999 8.3 74.2999 8.3 73.9999C8.3 73.5999 8.3 73.1999 8.3 72.7999V68.1999C8.3 66.5999 8.3 64.8999 8.4 63.0999C8.7 63.0999 8.9 63.0999 9.2 63.1999C9.7 63.1999 10.1 63.2999 10.5 63.3999C10.8 63.3999 11.1 63.4999 11.3 63.5999C11.6 63.6999 11.8 63.8999 12.1 63.9999C12.7 64.4999 13.3 65.3999 13.9 66.5999C14.6 67.9999 15.4 69.5999 16.3 71.3999C16.9 72.4999 17.4 73.4999 17.8 74.1999C18.2 74.9999 18.7 75.5999 19.2 76.0999C19.7 76.5999 20.3 76.9999 20.9 77.1999C21.5 77.3999 22.2 77.4999 23 77.4999C24.2 77.4999 25.1 77.1999 25.6 76.5999C26 76.1999 26.3 75.5999 26.4 74.8999C26.4 75.5999 26.4 76.0999 26.7 76.4999C27.1 77.0999 27.8 77.3999 28.9 77.3999C29.5 77.3999 30.1 77.3999 30.5 77.3999C31 77.3999 31.4 77.2999 31.8 77.2999C32.2 77.1999 32.6 77.1999 32.9 77.0999L33.7 76.9999V76.1999C33.7 74.9999 33.8 73.7999 34 72.5999C34.2 71.5999 34.5 70.3999 34.9 69.0999C35.3 69.0999 35.8 69.0999 36.3 69.1999C37.2 69.1999 38.2 69.1999 39.2 69.1999H41.4C42.2 69.1999 42.9 69.0999 43.5 69.0999C44.2 69.0999 44.7 68.9999 45.2 68.9999C45.3 68.9999 45.4 68.9999 45.5 68.9999C45.6 69.4999 45.8 69.8999 45.9 70.3999L46.6 72.3999C46.9 73.3999 47.3 74.1999 47.6 74.8999C48 75.5999 48.4 76.0999 48.9 76.5999C49.4 76.9999 50 77.1999 50.5 77.3999C51 77.4999 51.7 77.5999 52.3 77.5999C53.8 77.5999 54.8 77.2999 55.5 76.5999C56.1 75.8999 56.4 75.0999 56.4 73.9999C56.4 73.6999 56.4 73.3999 56.4 73.0999V70.7999H56.2ZM43.8 63.2999C43.5 63.2999 43.2 63.2999 42.9 63.3999C42 63.3999 41.1 63.3999 40.1 63.3999H37.3C37.1 63.3999 36.9 63.3999 36.6 63.3999C36.9 62.6999 37.2 61.9999 37.5 61.2999C38 60.0999 38.6 58.8999 39.1 57.5999C39.6 56.3999 40.1 55.1999 40.6 54.0999C40.8 53.7999 40.9 53.3999 41.1 53.0999C41.6 54.4999 42 55.8999 42.3 57.2999C42.8 59.1999 43.3 61.1999 43.8 63.2999Z" fill="#E2211C"/>
<path d="M78.6 45.0001C77.9 44.4001 76.6 44.4001 74.7 44.6001C73.9 44.7001 73.1 44.8001 72.5 44.9001L71.7 45.1001L71.8 46.0001C71.9 47.1001 72 48.2001 72 49.1001C72.1 50.0001 72.1 51.0001 72.1 52.0001C72.1 52.9001 72.1 53.9001 72.1 54.9001V57.6001C71.9 57.8001 71.7 58.0001 71.4 58.2001C71 58.5001 70.5 58.9001 69.9 59.2001C69.4 59.5001 68.7 59.8001 67.9 60.0001C67.1 60.2001 66.3 60.3001 65.3 60.3001C63.9 60.3001 63 60.0001 62.6 59.4001C62.2 58.7001 62 57.5001 62 56.0001C62 55.2001 62 54.5001 62 53.7001L62.1 51.3001C62.1 50.5001 62.2 49.8001 62.2 49.1001C62.2 48.4001 62.2 47.7001 62.2 47.1001C62.2 46.2001 62 45.6001 61.5 45.2001C61.1 44.8001 60.4 44.6001 59.6 44.6001C58.8 44.6001 58 44.7001 57.3 44.8001L54 45.4001L54.3 46.4001C54.6 47.4001 54.8 48.3001 54.9 49.2001C55 50.1001 55.1 51.0001 55.1 51.8001C55.1 52.6001 55.1 53.4001 55.1 54.4001C55.1 55.4001 55.1 56.4001 55.1 57.4001C55.2 60.5001 56 62.9001 57.5 64.5001C59.1 66.1001 61.5 66.9001 64.6 66.9001C65.9 66.9001 67.1 66.8001 68.1 66.5001C69.1 66.2001 70 65.9001 70.8 65.5001C71.3 65.2001 71.7 65.0001 72.1 64.7001V65.7001C72.1 66.5001 72.1 67.3001 72.1 68.3001C72.1 69.2001 72.1 70.1001 72.1 71.1001C72.1 72.0001 72.1 72.8001 72.1 73.6001V75.4001C72.1 76.2001 72.3 76.8001 72.8 77.2001C73.3 77.6001 73.9 77.8001 74.9 77.8001C75.4 77.8001 75.9 77.8001 76.5 77.7001C77.1 77.6001 77.9 77.4001 78.7 77.2001L79.4 77.0001V76.0001C79.4 76.0001 79.4 75.7001 79.4 75.3001C79.4 74.9001 79.3 74.5001 79.3 74.1001C79.3 73.6001 79.3 73.1001 79.3 72.5001C79.3 72.0001 79.3 71.5001 79.3 71.2001V62.5001C79.3 60.5001 79.3 58.6001 79.3 57.1001C79.4 55.5001 79.4 54.1001 79.4 52.9001C79.5 51.6001 79.5 50.5001 79.5 49.6001C79.6 48.6001 79.6 47.7001 79.6 46.9001C79.3 46.5001 79.3 45.5001 78.6 45.0001Z" fill="#E2211C"/>
<path d="M106.3 71.9C106.2 71.6 106.2 71.2999 106.1 71L105.9 70L104.9 70.3C103.8 70.6 102.7 70.7999 101.7 71C100.2 71.2 98.3 71.2 95.9 71.3H92.2C92.2 69.8 92.3 68.4999 92.3 67.1999L92.4 63.5999C92.8 63.5999 93.3 63.7 93.7 63.7L96.2 63.9L98.5 64C99.2 64 99.9 64 100.5 64C101.6 64 102.4 63.8 103 63.2C103.6 62.6 103.8 61.7999 103.8 60.5999C103.8 60.2999 103.8 60 103.7 59.7C103.7 59.4 103.6 59.2 103.6 59C103.6 58.7 103.5 58.5 103.5 58.2L103.4 57.2L102.4 57.4C102.1 57.5 101.8 57.5 101.5 57.5C101.2 57.5 100.8 57.5999 100.5 57.5999H99.3C97.6 57.5999 96.2 57.5999 94.9 57.5999C94 57.5999 93.1 57.5 92.3 57.5L92.2 55.2999C92.2 54.2999 92.2 53.3 92.2 52.5C92.2 51.9 92.2 51.2999 92.1 50.7999C93.4 50.7999 94.6 50.9 95.8 50.9C97.4 51 99 51 100.4 51C102 51 103.1 50.8999 103.8 50.5999C104.3 50.3999 105.2 49.8 105.2 48.2C105.2 48 105.2 47.5999 105.2 47.0999C105.2 46.4999 105.1 45.8999 104.9 45.0999L104.7 44.2L103.8 44.2999C103 44.3999 102.1 44.4999 101.4 44.5999C100.6 44.5999 99.6 44.5999 98.5 44.5999H96.3C95.5 44.5999 94.7 44.5999 93.8 44.5999C93 44.5999 92.1 44.5999 91.4 44.5999C89.6 44.4999 88.3 44.4999 87.1 44.5999C86.4 44.5999 85.8 44.6999 85.2 44.7999L84.2 45L84.5 46C84.6 46.4 84.7 46.7999 84.8 47.0999V47.2C84.9 47.5 85 47.8 85.1 48.2C85.2 48.5 85.2 49 85.3 49.4C85.4 49.9 85.4 50.4 85.5 51C85.6 52.1 85.6 53.2999 85.6 54.5999C85.6 55.8999 85.6 57.1999 85.6 58.5999C85.6 62.0999 85.6 65.2999 85.6 68C85.6 70.7 85.5 73.4 85.3 75.8L85.2 76.8L86.2 76.9C88 77 89.9 77.1999 91.9 77.1999C93.9 77.2999 95.9 77.3 97.6 77.3C99.3 77.3 100.7 77.3 101.8 77.3C102.9 77.3 103.8 77.2 104.5 77C105.4 76.7999 105.9 76.4 106.2 75.9C106.5 75.4 106.7 74.7999 106.7 74.0999C106.7 73.5999 106.7 73.1 106.6 72.8C106.4 72.6 106.4 72.3 106.3 71.9Z" fill="#E2211C"/>
<path d="M131.2 69.4001L130.6 68.6L129.8 69.2C129.1 69.7 128.2 70.2 127.2 70.7C126.2 71.2 124.9 71.4001 123.4 71.4001C120.9 71.4001 119 70.6001 117.5 68.9001C116 67.1001 115.3 64.6 115.3 61.3C115.3 59.6 115.5 58.0001 115.9 56.7001C116.3 55.4001 116.9 54.3001 117.6 53.4001C118.3 52.5001 119.1 51.8001 120 51.4001C120.9 50.9001 121.9 50.7001 122.9 50.7001C123.6 50.7001 124.2 50.7 124.8 50.8C125.4 50.9 125.9 50.9 126.4 51C126.9 51.1 127.3 51.1001 127.7 51.2001C128.2 51.3001 128.7 51.3 129.2 51.3C130.4 51.3 131.3 50.7 131.7 49.6C132 48.8 132.2 47.5 132.2 45.6V44.6H131.2C130.6 44.6 130.1 44.6 129.5 44.6C128.9 44.5 128.3 44.5 127.7 44.5C127.1 44.4 126.4 44.4001 125.7 44.4001C125 44.3001 124.1 44.3 123.2 44.3C120.7 44.3 118.5 44.8 116.6 45.8C114.7 46.8 113.1 48.1001 111.8 49.7001C110.6 51.3001 109.6 53.2001 108.9 55.4001C108.3 57.5001 108 59.7001 108 61.9001C108 64.6001 108.4 66.9 109.2 69C110 71 111.1 72.7 112.5 74.1C113.9 75.5 115.5 76.5 117.4 77.2C119.2 77.9 121.2 78.2 123.3 78.2C124.4 78.2 125.5 78.1001 126.5 77.9001C127.6 77.7001 128.5 77.4 129.4 77.1C130.3 76.7 131 76.3001 131.6 75.8001C132.5 75.0001 132.7 74.2 132.7 73.6C132.7 73 132.6 72.3 132.3 71.6C132 70.7 131.6 70.0001 131.2 69.4001Z" fill="#E2211C"/>
<path d="M158.3 45.9001C158.3 45.6001 158.2 45.2001 158.2 44.9001L158.1 43.6001L156.9 44.0001C156 44.3001 154.6 44.5001 153 44.6001C151.2 44.7001 149.1 44.7001 146.5 44.7001H143.8L141 44.6001C140.1 44.6001 139.1 44.5001 138.2 44.6001C137.3 44.6001 136.5 44.6001 135.7 44.6001C134.7 44.6001 134 44.9001 133.5 45.4001C133.1 45.9001 132.9 46.5001 132.9 47.3001V48.2001L133.2 50.7001L134 50.8001C134.5 50.9001 135 50.9001 135.7 51.0001C136.4 51.1001 137.1 51.1001 137.9 51.2001L142.1 51.3001C142.1 52.7001 142.1 54.2001 142 55.8001L141.8 67.8001C141.8 69.7001 141.8 71.4001 141.8 72.9001C141.8 73.5001 141.8 74.1001 141.8 74.7001C141.9 75.3001 142 75.8001 142.1 76.1001V76.2001C142.3 76.7001 142.7 77.1001 143.1 77.4001L143.2 77.5001C143.6 77.7001 144.3 77.8001 145.1 77.8001C145.5 77.8001 146.1 77.8001 146.7 77.7001C147.4 77.7001 148 77.6001 148.6 77.4001L149.5 77.1001L149.4 76.2001C149.3 75.9001 149.3 75.5001 149.2 75.1001C149.1 74.8001 149.1 74.5001 149.1 74.1001C149.1 73.7001 149.1 73.4001 149.1 73.0001C149.1 72.4001 149.1 71.7001 149.1 70.9001C149.1 70.0001 149.1 69.1001 149.1 68.3001V63.8001C149.1 61.8001 149.1 59.6001 149.1 57.3001C149.1 55.3001 149.1 53.4001 149.1 51.4001H152.3C153 51.4001 153.6 51.3001 154.2 51.3001C154.8 51.3001 155.3 51.2001 155.7 51.2001C156.4 51.1001 157.5 50.9001 158 50.1001C158.3 49.6001 158.4 48.9001 158.4 48.0001C158.4 47.7001 158.4 47.3001 158.4 46.9001C158.4 46.5001 158.3 46.2001 158.3 45.9001Z" fill="#E2211C"/>
<path d="M183.3 62.2999C182.8 61.5999 182.1 60.9 181.3 60.2999C181 60.0999 180.6 59.9 180.3 59.7C181 59.1 181.6 58.5 182.1 57.7C182.9 56.4 183.3 54.9 183.3 53.2999C183.3 51.4999 183 49.9999 182.3 48.7999C181.6 47.5999 180.7 46.6 179.6 46C178.5 45.3 177.2 44.7999 175.8 44.5999C174.5 44.3999 173 44.2 171.5 44.2C168.5 44.2 165.1 44.6 161.3 45.5L160.3 45.7L160.6 46.7C160.7 47.1 160.8 47.5 160.9 47.9C161 48.3 161 48.5999 161.1 49.0999C161.2 49.4999 161.2 49.9 161.3 50.5C161.4 51 161.4 51.6 161.4 52.4C161.5 53.6 161.5 54.8 161.5 56V59.7C161.5 62.4 161.5 65.0999 161.4 67.6999C161.3 70.2999 161.3 72.8 161.2 75.3V76L161.9 76.1999C162.8 76.4999 163.7 76.7999 164.8 77C165.7 77.2 166.7 77.4 167.9 77.5C169.1 77.7 170.4 77.6999 171.8 77.6999C174 77.6999 175.9 77.4 177.5 77C179.1 76.5 180.5 75.8 181.7 74.8C182.8 73.8 183.6 72.7 184.2 71.3C184.7 70 185 68.5 185 67C185 66.2 184.9 65.3999 184.7 64.5999C184.2 63.7999 183.8 63 183.3 62.2999ZM174.9 56.5999C174.1 57.3999 172.7 57.7 170.7 57.7H168.2C168.2 56.8 168.2 56 168.1 55.2C168.1 54.1 168.1 53.2 168.1 52.4C168.1 51.7 168.1 51.0999 168 50.5999C168.3 50.4999 168.6 50.5 169 50.5C169.6 50.4 170.3 50.4 171.1 50.4C172.8 50.4 174.1 50.6999 175 51.2999C175.7 51.7999 176.1 52.6 176.1 53.9C176.1 54.9 175.7 55.7999 174.9 56.5999ZM168 69.1999C168.1 68.2999 168.1 67.2999 168.1 66.1999L168.2 63.5999C168.6 63.5999 169 63.5999 169.4 63.5999H171.1C172.1 63.5999 173 63.6999 173.9 63.7999C174.7 63.9 175.3 64.1 175.9 64.5C176.4 64.7999 176.8 65.1999 177.1 65.6999C177.4 66.1999 177.5 66.7999 177.5 67.5C177.5 69 177.1 70.0999 176.3 70.6999C175.4 71.3999 174 71.6999 172 71.6999C171.3 71.6999 170.7 71.6999 170.2 71.5999C169.6 71.4999 169.1 71.4 168.6 71.3C168.4 71.3 168.2 71.1999 167.9 71.0999C168 70.5999 168 69.8999 168 69.1999Z" fill="#E2211C"/>
<path d="M216.2 53.9C215.6 51.8 214.6 50.1 213.4 48.6C212.1 47.1 210.5 45.9 208.6 45.2C206.7 44.4 204.5 44 202 44C199.7 44 197.5 44.5 195.6 45.5C193.8 46.5 192.2 47.8 190.9 49.4C189.6 51 188.6 52.9 188 55C187.3 57.1 187 59.3 187 61.6C187 64 187.3 66.3 187.9 68.3C188.6 70.3 189.5 72.1 190.8 73.6C192.1 75.1 193.7 76.2 195.6 77C197.5 77.8 199.6 78.2 202.1 78.2C204.4 78.2 206.5 77.7 208.4 76.7C210.3 75.7 211.9 74.4 213.2 72.8C214.5 71.2 215.5 69.3 216.2 67.2C216.9 65.1 217.2 62.9 217.2 60.6C217.1 58.2 216.8 55.9 216.2 53.9ZM209.9 60.9C209.9 62.6 209.7 64.1 209.2 65.5C208.8 66.8 208.2 68 207.5 68.9C206.8 69.8 206 70.5 205 71.1C204.1 71.6 203.2 71.8 202.2 71.8C201 71.8 199.9 71.6 199 71.2C198.1 70.7 197.2 70.1 196.5 69.2C195.8 68.3 195.2 67.2 194.8 65.9C194.4 64.6 194.2 63 194.2 61.3C194.2 59.6 194.4 58 194.9 56.7C195.3 55.4 195.9 54.2 196.6 53.3C197.3 52.4 198.2 51.7 199.1 51.2C200 50.7 201 50.5 201.9 50.5C203 50.5 204.1 50.7 205 51.2C205.9 51.6 206.8 52.3 207.5 53.2C208.2 54.1 208.8 55.2 209.2 56.5C209.7 57.6 209.9 59.2 209.9 60.9Z" fill="#E2211C"/>
</g>
<defs>
<clipPath id="clip0_643_71">
<rect width="217.1" height="78.1" fill="white"/>
</clipPath>
</defs>
</svg>
