<svg width="688" height="56" viewBox="0 0 688 56" fill="none" xmlns="http://www.w3.org/2000/svg">
<path d="M42.8 21.3L43.1 15.4C43.2 13.4 43.3 11.5 43.3 10C43.4 8.3 43.4 7.1 43.4 6.3C43.4 4.3 42.5 3.3 41.8 2.8C41 2.3 40 2 38.8 1.9C37.2 1.8 35.8 1.7 34.4 1.7L30.5 1.6C29.2 1.6 27.8 1.5 26.4 1.5H21.9C18.5 1.5 15.2 1.5 12.1 1.6C9.1 1.6 5.8 1.8 2.4 2.1L0 2.2L0.7 4.6C1.1 5.8 1.4 7.1 1.7 8.5C2 9.8 2.2 11.2 2.2 12.9C2.2 13.7 2.3 15.3 2.3 17.8V26.8C2.3 29.1 2.3 31.5 2.2 33.8C2.2 36.1 2.1 38.4 1.9 40.5C1.8 42.6 1.7 44.4 1.6 46.1C1.6 47.8 1.5 49 1.5 49.8C1.5 51.8 1.8 53 2.6 53.9C3.6 55.1 5.4 55.2 6.7 55.2C7.4 55.2 8.3 55.2 9.5 55.1C10.7 55 11.7 54.8 12.6 54.6L14.4 54.2L14 52.2C13.9 51.7 13.8 51.1 13.7 50.3C13.6 49.8 13.6 49.1 13.5 48.4C13.5 47.6 13.4 46.8 13.4 45.9C13.4 39.7 13.5 33.6 13.7 27.8C13.9 22.6 14.1 17.4 14.3 12.2C15 12.2 15.8 12.2 16.6 12.2H24.4C25.4 12.2 26.4 12.2 27.5 12.3C28.5 12.3 29.5 12.3 30.4 12.4C30.7 12.4 30.9 12.4 31.1 12.4C31.1 14.6 31 17 31 19.8C31 23.3 30.9 27 30.7 30.8C30.6 34.6 30.5 38.4 30.4 42C30.4 45.6 30.3 48.8 30.3 51.5C30.3 53 30.9 53.8 31.4 54.2L31.5 54.3C32.2 54.8 33.2 55 35 55C35.7 55 36.6 55 37.8 54.9C39.1 54.8 40.4 54.5 41.6 54.1L43.1 53.6L42.9 52C42.9 51.6 42.8 51 42.7 50.3C42.6 49.9 42.6 49.3 42.5 48.5C42.5 47.6 42.4 46.6 42.4 45.3C42.3 42.5 42.3 39.5 42.3 36.2C42.3 32.9 42.4 29.5 42.5 26.2C42.7 24.9 42.8 23.2 42.8 21.3Z" fill="#E2211C"/>
<path d="M105.2 48.2001C105.2 46.5001 105.1 44.5001 105.1 42.3001C105.1 40.0001 105 37.6001 105 35.1001V26.8001C105 22.2001 105.1 18.0001 105.3 14.4001C105.5 10.7001 105.6 7.8001 105.6 5.8001C105.6 3.8001 104.7 2.8001 103.9 2.3001C103.1 1.8001 102.1 1.6001 101 1.6001C100.6 1.6001 100 1.6001 99.3001 1.7001C98.6001 1.7001 98.0001 1.8001 97.3001 1.9001C96.6001 1.9001 95.9001 2.0001 95.2001 2.1001C94.6001 2.2001 94.0001 2.3001 93.5001 2.4001L91.6001 2.8001L91.9001 4.7001C92.0001 5.4001 92.1001 6.1001 92.3001 6.8001C92.4001 7.4001 92.5001 8.0001 92.6001 8.7001C92.7001 9.4001 92.8001 10.0001 92.8001 10.6001C92.9001 12.5001 93.0001 14.9001 93.0001 17.7001C93.0001 20.5001 93.1001 23.6001 93.1001 26.8001C93.1001 29.7001 93.1001 32.4001 93.0001 35.0001C93.0001 37.5001 92.9001 39.8001 92.9001 42.0001C92.9001 44.0001 92.9001 45.8001 92.8001 47.4001C92.8001 49.0001 92.7001 50.2001 92.7001 51.1001C92.7001 52.2001 93.0001 53.1001 93.7001 54.0001C94.5001 55.0001 95.8001 55.5001 97.7001 55.5001C98.7001 55.5001 99.9001 55.4001 101 55.2001C102.2 55.0001 103.2 54.7001 104.1 54.4001L105.6 53.9001L105.4 52.3001C105.3 51.1001 105.2 49.8001 105.2 48.2001Z" fill="#E2211C"/>
<path d="M84.9999 24.2C83.3999 22.8 81.4999 21.8 79.2999 21.1C77.1999 20.4 74.7999 20.1 72.2999 20.1C70.1999 20.1 68.2999 20.2999 66.4999 20.5C65.6999 20.6 64.8999 20.7999 64.1999 20.9C64.1999 18.2999 64.1999 16.1 64.1999 14C64.1999 11.3 64.1999 8.89995 64.0999 6.89995C63.9999 5.19995 63.7999 3.99995 63.3999 3.09995C62.9999 2.19995 61.8999 1.19995 59.4999 1.19995C58.4999 1.19995 57.2999 1.29995 55.9999 1.49995C54.6999 1.69995 53.2999 1.99995 51.8999 2.39995L49.8999 2.89995L50.4999 4.89995C50.6999 5.49995 50.7999 6.09995 50.9999 6.59995L50.8999 6.99995C50.9999 7.29995 51.0999 7.69995 51.1999 8.19995V8.39995C51.2999 8.89995 51.3999 9.49995 51.4999 10.1V10.2C51.5999 10.8 51.6999 11.6 51.7999 12.6C51.8999 13.6 51.9999 14.8 51.9999 16.1C52.0999 17.3 52.1999 18.6 52.1999 20C52.2999 21.2999 52.2999 22.6 52.2999 24C52.2999 25.2999 52.3999 26.5999 52.3999 27.7999C52.3999 31.4 52.2999 35.2999 52.0999 39.2999C51.8999 43.2999 51.6999 47.2 51.4999 50.7999L51.3999 52.2999L52.7999 52.7999C53.9999 53.2 55.4999 53.5999 56.9999 54C58.2999 54.2999 59.8999 54.5999 61.6999 54.7999C63.4999 55 65.5999 55.0999 67.7999 55.0999C70.9999 55.0999 73.8999 54.7999 76.4999 54.0999C79.2999 53.3999 81.6999 52.4 83.6999 50.9C85.6999 49.4 87.2999 47.4 88.3999 45C89.4999 42.5999 90.0999 39.7999 90.0999 36.5999C90.0999 33.8999 89.5999 31.5 88.6999 29.5C87.9999 27.4 86.5999 25.6 84.9999 24.2ZM68.4999 44.4C67.4999 44.4 66.4999 44.3999 65.6999 44.2999C64.8999 44.2 64.1999 44.0999 63.5999 44H63.4999C63.5999 42.9 63.6999 41.7999 63.6999 40.7C63.7999 39.2 63.8999 37.5 63.8999 35.7L63.9999 31.7999C64.5999 31.6999 65.1999 31.5 65.8999 31.4C67.0999 31.1 68.5999 31 70.3999 31C72.9999 31 74.8999 31.6 76.0999 32.7C77.1999 33.7 77.7999 35.2999 77.7999 37.5C77.7999 38.7999 77.5999 39.9 77.1999 40.7C76.7999 41.5 76.1999 42.2 75.3999 42.7999C74.5999 43.3999 73.6999 43.7999 72.5999 44.0999C71.3999 44.2999 70.0999 44.4 68.4999 44.4Z" fill="#E2211C"/>
<path d="M173.3 51.1001C173.3 50.4001 173.2 49.6001 173.2 48.7001L173.1 45.9001V43.4001C173.1 39.2001 173.1 35.2001 173.2 31.7001C173.3 28.1001 173.4 24.8001 173.4 21.8001C173.5 18.8001 173.6 15.9001 173.6 13.4001C173.7 10.8001 173.7 8.3001 173.7 6.0001C173.7 4.0001 172.9 3.0001 172.1 2.5001C171.3 1.9001 170.2 1.6001 169 1.6001C168 1.6001 166.9 1.7001 165.8 1.8001C164.6 1.9001 163.5 2.1001 162.5 2.3001L160.8 2.6001L160.9 4.3001C160.9 5.4001 161 6.6001 161.1 7.6001L161.2 10.5001C161.2 11.4001 161.3 12.3001 161.3 12.9001C161.3 19.4001 161.3 25.6001 161.2 31.2001C161.2 36.0001 161.1 40.4001 161 44.3001C159.5 44.4001 157.9 44.4001 156.1 44.5001C154.1 44.5001 151.8 44.6001 149.2 44.6001C149.2 41.2001 149.2 37.8001 149.3 34.6001C149.4 30.7001 149.5 27.0001 149.6 23.5001C149.7 20.0001 149.8 16.8001 149.8 13.9001C149.9 10.9001 149.9 8.3001 149.9 6.2001C149.9 4.6001 149.4 3.4001 148.4 2.7001C147.6 2.0001 146.5 1.7001 145.1 1.7001C144.2 1.7001 143.1 1.7001 142.1 1.8001C140.9 1.9001 139.8 2.0001 138.7 2.3001L137.1 2.7001L137.2 4.3001C137.2 5.2001 137.3 6.3001 137.3 7.6001C137.3 8.7001 137.4 10.0001 137.4 11.7001C137.4 13.3001 137.5 15.3001 137.5 17.5001C137.5 19.5001 137.5 21.8001 137.4 24.4001C137.4 26.9001 137.4 29.5001 137.3 32.2001C137.3 34.8001 137.3 37.4001 137.2 40.0001C137.2 41.7001 137.1 43.3001 137.1 44.7001C134.4 44.7001 131.9 44.6001 129.8 44.6001C128 44.5001 126.3 44.5001 124.8 44.4001C124.9 42.0001 125 39.5001 125.1 36.9001C125.3 33.5001 125.5 29.9001 125.6 26.4001C125.7 22.9001 125.9 19.3001 126 15.6001C126.1 12.0001 126.1 8.5001 126.1 5.3001C126.1 4.1001 125.5 3.1001 124.6 2.5001C123.9 2.0001 122.8 1.8001 121.3 1.8001C120 1.8001 118.8 1.9001 117.8 2.0001C116.9 2.1001 115.7 2.4001 114.4 2.6001L112.6 3.0001L112.8 4.8001C112.9 5.5001 113 6.2001 113.1 6.9001V7.1001C113.2 7.6001 113.3 8.2001 113.4 8.9001C113.5 9.5001 113.6 10.3001 113.6 11.2001C113.6 12.1001 113.7 13.1001 113.7 14.2001C113.7 17.6001 113.7 21.2001 113.6 24.9001C113.5 28.6001 113.4 32.1001 113.3 35.4001C113.2 38.7001 113.1 41.6001 113 44.2001C112.9 46.7001 112.9 48.6001 112.9 49.7001C112.9 51.4001 113.3 52.7001 114 53.6001L114.1 53.7001C114.9 54.5001 116.2 55.0001 118.1 55.1001C118.8 55.2001 119.7 55.2001 121 55.2001C122.3 55.2001 123.9 55.3001 125.6 55.3001C127.4 55.3001 129.4 55.4001 131.4 55.4001C133.6 55.4001 135.8 55.5001 138 55.5001H152C156.7 55.5001 160.8 55.4001 164 55.3001C167.3 55.2001 170 55.0001 171.9 54.7001L174.3 54.3001L173.6 52.1001C173.3 51.7001 173.3 51.5001 173.3 51.1001Z" fill="#E2211C"/>
<path d="M223.9 47.8001C223.9 45.8001 223.8 43.6001 223.8 41.1001C223.8 38.7001 223.8 36.1001 223.7 33.5001V26.2001C223.7 24.7001 223.7 23.0001 223.8 21.1001L224.1 15.3001C224.2 13.3001 224.3 11.5001 224.3 9.9001C224.4 8.2001 224.4 6.8001 224.4 5.8001C224.4 3.8001 223.5 2.8001 222.8 2.4001C222 1.9001 221.1 1.7001 219.8 1.7001C218.8 1.7001 217.7 1.8001 216.5 1.9001C215.2 2.0001 214 2.2001 212.9 2.4001L211.3 2.8001L211.4 4.5001C211.5 5.9001 211.6 7.2001 211.7 8.5001C211.8 9.5001 211.9 10.6001 211.9 11.9001C212 13.0001 212 13.8001 212 14.5001L211.9 22.5001C210.6 22.4001 209.3 22.3001 208 22.3001C204.4 22.1001 200.8 22.1001 197.2 22.2001C196.3 22.2001 195.3 22.3001 194.2 22.3001C194.2 21.6001 194.3 20.9001 194.3 20.1001C194.4 18.2001 194.5 16.3001 194.5 14.4001C194.6 12.4001 194.7 10.6001 194.7 8.8001C194.7 7.1001 194.8 5.7001 194.8 4.8001C194.8 3.2001 193.8 2.1001 192.2 1.8001C191.5 1.7001 190.9 1.6001 190.3 1.6001C189 1.6001 187.6 1.7001 186.2 2.0001C184.9 2.2001 183.6 2.5001 182.3 2.8001L180.2 3.3001L180.8 5.4001C181 6.1001 181.2 6.9001 181.4 7.8001V7.9001C181.6 8.6001 181.8 9.5001 181.9 10.6001C182 11.6001 182.1 12.8001 182.2 14.3001C182.3 15.7001 182.3 17.3001 182.3 19.2001C182.3 20.6001 182.3 22.1001 182.2 23.9001C182.2 25.6001 182.2 27.4001 182.1 29.2001L182 34.7001C182 36.5001 181.9 38.2001 181.9 39.7001C181.9 40.2001 181.9 40.9001 181.8 41.7001C181.8 42.5001 181.7 43.4001 181.7 44.4001L181.6 47.1001C181.6 48.0001 181.5 48.7001 181.5 49.4001C181.5 51.4001 181.8 52.7001 182.5 53.7001C183.3 54.8001 184.7 55.3001 186.5 55.3001C187.2 55.3001 188.1 55.3001 189.3 55.2001C190.5 55.1001 191.6 54.9001 192.5 54.7001L194.3 54.3001L194 52.5001C193.9 51.9001 193.8 51.4001 193.7 50.7001C193.6 50.3001 193.6 49.8001 193.5 49.2001C193.5 48.6001 193.4 48.0001 193.4 47.4001V44.0001L193.5 39.6001C193.5 38.1001 193.6 36.6001 193.6 35.1001C193.6 34.4001 193.6 33.7001 193.7 33.1001C194.2 33.1001 194.8 33.1001 195.4 33.1001C196.7 33.1001 198.1 33.0001 199.6 33.0001C204 33.0001 208 33.1001 211.5 33.3001C211.5 33.4001 211.5 33.5001 211.5 33.6001C211.5 34.6001 211.5 35.7001 211.4 37.0001C211.4 38.2001 211.4 39.5001 211.3 41.0001C211.3 42.4001 211.3 43.7001 211.2 45.1001V51.1001C211.2 52.2001 211.5 53.1001 212.2 54.0001C213 55.0001 214.3 55.5001 216.2 55.5001C217.2 55.5001 218.4 55.4001 219.5 55.2001C220.7 55.0001 221.7 54.7001 222.6 54.4001L224.2 53.9001L224 52.3001C224.1 51.0001 224 49.6001 223.9 47.8001Z" fill="#E2211C"/>
<path d="M272.9 8.29995C270.8 5.89995 268.2 3.99995 265.2 2.69995C262.2 1.39995 258.6 0.699951 254.6 0.699951C250.8 0.699951 247.4 1.49995 244.3 3.09995C241.3 4.69995 238.7 6.79995 236.7 9.39995C234.6 12 233.1 15 232 18.4C230.9 21.7999 230.4 25.2999 230.4 29C230.4 32.9 230.9 36.5 231.9 39.7999C233 43.0999 234.5 45.8999 236.6 48.2999C238.7 50.7 241.3 52.5 244.3 53.9C247.3 55.2 250.8 55.7999 254.7 55.7999C258.5 55.7999 261.9 55 264.9 53.4C267.9 51.8 270.5 49.6999 272.6 47.0999C274.7 44.5 276.3 41.3999 277.4 38.0999C278.5 34.6999 279 31.2 279 27.5C279 23.6 278.5 20 277.5 16.7999C276.4 13.5999 274.9 10.7 272.9 8.29995ZM266.5 28.1C266.5 30.7 266.2 33.0999 265.5 35.2999C264.9 37.3999 264 39.1999 262.9 40.5999C261.8 42 260.5 43.1 259.1 43.9C257.8 44.6 256.3 45 254.8 45C253 45 251.3 44.7 249.9 44C248.5 43.2999 247.2 42.3 246.1 40.9C245 39.5 244.1 37.7999 243.5 35.7C242.9 33.6 242.5 31.2 242.5 28.5C242.5 25.7999 242.8 23.4 243.5 21.2999C244.2 19.1999 245.1 17.4 246.2 16C247.3 14.6 248.6 13.5 250.1 12.8C251.5 12.1 252.9 11.7 254.4 11.7C256.1 11.7 257.8 12.1 259.2 12.8C260.6 13.5 261.9 14.5 262.9 15.8C264 17.2 264.9 18.9 265.5 21C266.2 23 266.5 25.4 266.5 28.1Z" fill="#E2211C"/>
<path d="M319.8 45.6001C319.7 45.1001 319.6 44.6001 319.5 44.2001L319 42.1001L317 42.7001C315.2 43.2001 313.5 43.5001 311.9 43.8001C310.3 44.0001 308.4 44.1001 306.3 44.1001C305.2 44.1001 304 44.1001 302.7 44.2001H297.3C297.4 42.0001 297.4 40.0001 297.4 38.1001L297.5 32.9001C298 33.0001 298.6 33.0001 299.2 33.1001L303.3 33.4001C304.6 33.4001 305.8 33.5001 307 33.5001C308.2 33.5001 309.3 33.6001 310.2 33.6001C312.1 33.6001 313.5 33.2001 314.5 32.2001C315.5 31.2001 315.9 29.8001 315.9 27.8001C315.9 27.3001 315.9 26.8001 315.8 26.3001C315.8 25.9001 315.7 25.5001 315.7 25.1001C315.7 24.7001 315.6 24.3001 315.6 23.9001L315.3 21.8001L313.2 22.2001C312.8 22.3001 312.3 22.3001 311.8 22.4001C311.3 22.4001 310.8 22.5001 310.2 22.5001H308.3C305.7 22.5001 303.3 22.5001 301.3 22.4001C300 22.3001 298.7 22.3001 297.5 22.2001C297.5 21.1001 297.4 20.0001 297.4 19.1001C297.4 17.4001 297.4 16.0001 297.3 14.7001C297.3 13.9001 297.2 13.2001 297.2 12.4001C299 12.4001 300.9 12.5001 302.7 12.6001C305.3 12.7001 307.8 12.8001 310 12.8001C312.7 12.8001 314.4 12.6001 315.5 12.1001C316.4 11.7001 317.9 10.6001 317.9 7.9001C317.9 7.6001 317.9 7.0001 317.8 6.1001C317.7 5.2001 317.6 4.1001 317.3 2.9001L316.9 1.1001L315 1.4001C313.7 1.6001 312.4 1.7001 311.1 1.8001C309.8 1.8001 308.2 1.9001 306.5 1.9001H303C301.7 1.9001 300.3 1.8001 299.1 1.8001C297.8 1.8001 296.5 1.7001 295.3 1.7001C294.1 1.7001 293 1.6001 292 1.6001C290.7 1.6001 289.5 1.6001 288.5 1.7001C287.4 1.8001 286.3 1.9001 285.4 2.1001L283.4 2.6001L284 4.6001C284.2 5.2001 284.3 5.8001 284.5 6.4001L284.6 6.6001C284.8 7.0001 284.9 7.5001 285 8.1001C285.1 8.6001 285.2 9.3001 285.3 10.0001C285.4 10.7001 285.5 11.6001 285.6 12.6001C285.7 14.3001 285.7 16.3001 285.7 18.4001C285.7 20.4001 285.8 22.6001 285.8 24.8001C285.8 30.4001 285.8 35.5001 285.7 39.8001C285.7 44.1001 285.5 48.3001 285.3 52.2001L285.2 54.1001L287.1 54.3001C289.9 54.5001 293 54.7001 296.2 54.8001C299.4 54.9001 302.5 55.0001 305.3 55.0001C308 55.0001 310.2 55.0001 311.9 54.9001C313.7 54.8001 315.2 54.7001 316.3 54.4001C317.7 54.0001 318.7 53.4001 319.3 52.5001C319.8 51.7001 320.1 50.7001 320.1 49.4001C320.1 48.6001 320 47.9001 319.9 47.2001C320 46.6001 320 46.1001 319.8 45.6001Z" fill="#E2211C"/>
<path d="M431.4 43.2999L429 43.7999C429 43.7999 428.8 43.7999 428.5 43.7999C428 43.7999 427.4 43.6999 426.9 42.7999C426.2 41.7999 425.5 40.2999 424.9 38.3999C424 35.4999 423.1 32.3999 422.3 29.3999C421.5 26.2999 420.8 23.3999 420.1 20.6999C419.4 17.8999 418.7 15.3999 418.1 13.1999C417.5 10.7999 417 8.89988 416.4 7.49988C416 6.49988 415.7 5.69988 415.4 4.99988C415 4.09988 414.5 3.49988 413.9 2.99988C413.3 2.49988 412.6 2.09988 411.7 1.89988C411 1.69988 410.2 1.59988 409.2 1.59988C408.3 1.59988 407.4 1.69988 406.5 1.79988C405.6 1.89988 404.8 1.99988 403.9 2.19988L399.8 2.99988L399.5 4.19988C399 6.19988 398.3 8.39988 397.4 10.8999C396.5 13.3999 395.5 15.9999 394.3 18.6999C393.2 21.3999 392 24.0999 390.8 26.8999C389.6 29.6999 388.4 32.3999 387.3 34.9999C386.3 37.5999 385.3 39.9999 384.5 42.2999C384 43.7999 383.6 45.0999 383.2 46.3999V46.2999C383.2 45.7999 383.1 45.3999 383.1 44.9999L382.9 43.1999H381.1C380.5 43.1999 380 43.1999 379.6 43.0999C379.4 43.0999 379.3 42.9999 379.1 42.8999C378.8 42.5999 378.5 42.2999 378.2 41.8999C377.9 41.3999 377.5 40.5999 377 39.5999C375.8 37.2999 374.9 35.3999 374 33.8999C373.1 32.1999 372.3 30.7999 371.5 29.7999C370.7 28.5999 370 27.5999 369.3 26.8999C369 26.5999 368.8 26.2999 368.5 26.0999C369.5 24.5999 370.4 23.1999 371.3 21.8999C372.5 20.1999 373.7 18.5999 374.9 17.1999C376.1 15.6999 377.4 14.2999 378.7 12.8999C380 11.4999 381.5 9.99988 383 8.49988L384.4 7.09988L383 5.49988C382.6 5.09988 382.3 4.79988 381.8 4.39988C381.5 4.09988 381.2 3.89988 380.8 3.49988C380.4 3.09988 379.9 2.69988 379.4 2.29988C377.4 0.799878 375.6 0.799878 374.5 1.09988C373 1.39988 371.6 2.49988 370.1 4.29988C369.1 5.49988 368.1 6.99988 367 8.49988C366 9.99988 364.9 11.5999 363.8 13.2999C362.8 14.9999 361.7 16.6999 360.7 18.3999C359.9 19.7999 359.1 21.0999 358.3 22.3999C357.7 22.3999 357.1 22.3999 356.5 22.3999C356 22.3999 355.5 22.3999 354.9 22.2999C354.9 20.4999 354.9 18.7999 354.9 17.1999C354.9 14.9999 355 12.9999 355 11.2999C355 9.29988 355.1 7.39988 355.1 5.59988C355.1 3.69988 353.9 1.59988 350.6 1.59988C349.6 1.59988 348.7 1.69988 347.7 1.79988C346.8 1.89988 346 1.99988 345.2 2.19988C344.3 2.39988 343.5 2.59988 342.8 2.79988L341 3.29988L341.6 5.29988C341.8 5.89988 342 6.49988 342.2 7.09988C342.4 7.49988 342.5 7.99988 342.6 8.59988V8.79988C342.7 9.29988 342.9 9.89988 342.9 10.4999C343 11.1999 343 11.9999 343 12.9999C343 15.6999 343 18.5999 342.9 21.6999C342.9 24.7999 342.9 27.8999 342.8 30.9999L342.7 40.2999C342.7 43.3999 342.7 46.3999 342.6 49.0999C342.6 51.1999 343 52.5999 343.8 53.6999C344.7 54.6999 346.1 55.0999 348.2 55.0999C348.9 55.0999 349.8 55.0999 350.8 54.8999C351.8 54.7999 352.8 54.5999 353.7 54.3999L355.7 53.9999L355.2 51.9999C355.1 51.4999 355 50.9999 354.9 50.3999C354.8 49.9999 354.8 49.4999 354.7 48.8999C354.7 48.2999 354.6 47.6999 354.6 47.0999V39.6999C354.6 37.2999 354.6 34.6999 354.7 31.9999C354.9 31.9999 355.2 31.9999 355.4 32.0999H355.5C356.2 32.0999 356.8 32.1999 357.3 32.2999H357.5C357.9 32.3999 358.3 32.4999 358.6 32.5999C359 32.7999 359.4 32.9999 359.7 33.2999C360.6 33.9999 361.5 35.3999 362.4 37.2999C363.5 39.4999 364.8 42.0999 366.3 44.9999C367.2 46.7999 368 48.2999 368.7 49.4999C369.4 50.6999 370.2 51.7999 371 52.5999C371.9 53.4999 372.8 54.0999 373.9 54.4999C374.9 54.8999 376.1 54.9999 377.4 54.9999C379.4 54.9999 380.9 54.4999 381.9 53.4999C382.2 53.1999 382.4 52.8999 382.6 52.4999C382.7 52.7999 382.8 52.9999 382.9 53.2999C383.6 54.3999 384.9 54.9999 386.8 54.9999C387.8 54.9999 388.7 54.9999 389.4 54.8999C390.2 54.7999 390.9 54.7999 391.5 54.6999C392.1 54.5999 392.7 54.4999 393.2 54.3999L394.8 54.0999V52.3999C394.8 50.4999 395 48.6999 395.3 46.7999C395.6 45.2999 396 43.4999 396.6 41.5999C397.2 41.5999 397.8 41.6999 398.5 41.6999C400 41.6999 401.5 41.7999 403.2 41.7999H406.8C408 41.7999 409.1 41.6999 410.1 41.6999C411.1 41.6999 412.1 41.5999 412.9 41.5999C413 41.5999 413.1 41.5999 413.1 41.5999C413.3 42.1999 413.5 42.8999 413.7 43.4999L414.8 46.6999C415.3 48.2999 415.9 49.5999 416.4 50.6999C417 51.7999 417.7 52.7999 418.6 53.4999C419.4 54.1999 420.4 54.5999 421.3 54.7999C422.2 54.9999 423.2 55.0999 424.3 55.0999C426.8 55.0999 428.5 54.4999 429.6 53.2999C430.6 52.0999 431.2 50.6999 431.2 48.9999C431.2 48.4999 431.2 47.9999 431.1 47.5999V43.2999H431.4ZM410.7 31.4999C410.4 31.4999 410 31.4999 409.7 31.5999C408.3 31.5999 406.8 31.6999 405.3 31.6999H400.9C400.7 31.6999 400.6 31.6999 400.4 31.6999C400.8 30.7999 401.2 29.7999 401.6 28.7999C402.4 26.7999 403.3 24.8999 404.1 22.9999C404.9 20.9999 405.8 19.1999 406.5 17.3999C406.6 17.1999 406.7 16.9999 406.8 16.7999C407.4 18.6999 407.9 20.4999 408.4 22.3999C409.1 25.2999 409.9 28.2999 410.7 31.4999Z" fill="#E2211C"/>
<path d="M466.9 2.4C466.2 1.8 465.2 1.5 463.8 1.5C462.8 1.5 461.7 1.6 460.5 1.7C459.2 1.8 458 2 456.9 2.2L455.2 2.6L455.3 4.3C455.4 6.1 455.6 7.7 455.6 9.3C455.7 10.8 455.7 12.3 455.7 13.9C455.7 15.3 455.8 16.9 455.8 18.5V22.6C455.5 22.8 455.2 23.1 454.9 23.4C454.3 23.9 453.5 24.5 452.6 25C451.8 25.5 450.7 25.9 449.6 26.3C448.4 26.6 447.1 26.8 445.6 26.8C443.5 26.8 442.2 26.4 441.6 25.5C440.8 24.3 440.5 22.5 440.5 20.2C440.5 19 440.5 17.8 440.6 16.6L440.7 12.8C440.7 11.5 440.8 10.4 440.8 9.2C440.8 8 440.9 6.9 440.9 6C440.9 4.5 440.5 3.4 439.6 2.6C438.8 1.9 437.7 1.5 436.3 1.5C435 1.5 433.7 1.6 432.5 1.9C431.4 2.1 430.2 2.4 428.9 2.7L426.8 3.2L427.5 5.3C428 6.8 428.3 8.3 428.5 9.7C428.7 11.1 428.8 12.5 428.8 13.7C428.8 14.9 428.8 16.3 428.7 17.8C428.7 19.3 428.7 20.9 428.7 22.6C428.8 27.6 430.1 31.5 432.6 34.1C435.2 36.7 439.1 38.1 444.2 38.1C446.3 38.1 448.3 37.9 449.9 37.4C451.5 36.9 452.9 36.4 454.2 35.8C454.7 35.5 455.2 35.2 455.7 34.9V35.7C455.7 36.9 455.7 38.2 455.6 39.8C455.6 41.3 455.6 42.7 455.5 44.2C455.5 45.6 455.5 46.9 455.4 48.1V50.9C455.4 52.2 455.8 53.3 456.5 54.1L456.6 54.2C457.4 54.9 458.6 55.3 460.2 55.3C461 55.3 461.8 55.2 462.9 55.1C463.9 54.9 465.1 54.7 466.4 54.3L467.8 53.9V52.4C467.8 52.3 467.8 52 467.7 51.3C467.7 50.7 467.6 50.1 467.6 49.3C467.6 48.5 467.6 47.6 467.5 46.8C467.5 46 467.4 45.3 467.4 44.7V30.6C467.4 27.4 467.4 24.5 467.5 22C467.6 19.5 467.7 17.2 467.7 15.3C467.8 13.3 467.9 11.5 467.9 10.1C468 8.5 468 7.1 468 5.9C468.2 5.2 468.2 3.5 466.9 2.4Z" fill="#E2211C"/>
<path d="M511 45.6001C510.9 45.1001 510.8 44.6001 510.7 44.2001L510.2 42.1001L508.2 42.7001C506.4 43.2001 504.7 43.5001 503.1 43.8001C501.5 44.0001 499.6 44.1001 497.5 44.1001C496.4 44.1001 495.2 44.1001 493.9 44.2001H488.5C488.6 42.0001 488.6 40.0001 488.6 38.1001L488.7 32.9001C489.2 33.0001 489.8 33.0001 490.4 33.1001L494.5 33.4001C495.8 33.4001 497 33.5001 498.2 33.5001C499.4 33.5001 500.5 33.6001 501.4 33.6001C503.3 33.6001 504.7 33.2001 505.7 32.2001C506.7 31.2001 507.1 29.8001 507.1 27.8001C507.1 27.3001 507.1 26.8001 507 26.3001C507 25.9001 506.9 25.5001 506.9 25.1001C506.9 24.7001 506.8 24.3001 506.8 23.9001L506.5 21.8001L504.4 22.2001C504 22.3001 503.5 22.3001 503 22.4001C502.5 22.4001 502 22.5001 501.4 22.5001H499.5C496.9 22.5001 494.5 22.5001 492.5 22.4001C491.2 22.3001 489.9 22.3001 488.7 22.2001C488.7 21.1001 488.6 20.0001 488.6 19.1001C488.6 17.4001 488.6 15.9001 488.5 14.7001C488.5 13.9001 488.4 13.2001 488.4 12.4001C490.2 12.4001 492.1 12.5001 493.9 12.6001C496.5 12.7001 499 12.8001 501.2 12.8001C503.9 12.8001 505.6 12.6001 506.7 12.1001C507.6 11.7001 509.1 10.6001 509.1 7.9001C509.1 7.6001 509.1 7.0001 509 6.1001C508.9 5.2001 508.8 4.1001 508.5 2.9001L508.1 1.1001L506.2 1.4001C504.9 1.6001 503.6 1.7001 502.3 1.8001C501 1.8001 499.4 1.9001 497.7 1.9001H494.2C492.9 1.9001 491.5 1.8001 490.3 1.8001C489 1.8001 487.7 1.7001 486.5 1.7001C485.3 1.7001 484.2 1.6001 483.2 1.6001C481.9 1.6001 480.7 1.6001 479.7 1.7001C478.6 1.8001 477.5 1.9001 476.6 2.1001L474.6 2.6001L475.2 4.6001C475.4 5.2001 475.5 5.8001 475.7 6.4001L475.8 6.6001C476 7.0001 476.1 7.5001 476.2 8.1001C476.3 8.6001 476.4 9.3001 476.5 10.0001C476.6 10.7001 476.7 11.6001 476.8 12.6001C476.9 14.3001 476.9 16.3001 476.9 18.4001C476.9 20.4001 477 22.6001 477 24.8001C477 30.4001 477 35.5001 476.9 39.8001C476.9 44.1001 476.7 48.3001 476.5 52.2001L476.4 54.1001L478.3 54.3001C481.1 54.5001 484.2 54.7001 487.4 54.8001C490.6 54.9001 493.7 55.0001 496.5 55.0001C499.2 55.0001 501.4 55.0001 503.1 54.9001C504.9 54.8001 506.4 54.7001 507.4 54.4001C508.8 54.0001 509.8 53.4001 510.4 52.5001C510.9 51.7001 511.2 50.7001 511.2 49.4001C511.2 48.6001 511.1 47.9001 511 47.2001C511.2 46.6001 511.2 46.1001 511 45.6001Z" fill="#E2211C"/>
<path d="M550.6 41.3001L549.4 39.7001L547.8 41.0001C546.8 41.8001 545.4 42.6001 543.7 43.4001C542.1 44.1001 540.1 44.5001 537.8 44.5001C533.9 44.5001 531 43.2001 528.8 40.6001C526.5 37.9001 525.3 33.9001 525.3 28.7001C525.3 26.0001 525.6 23.5001 526.3 21.5001C527 19.5001 527.9 17.7001 529 16.4001C530.1 15.1001 531.3 14.0001 532.7 13.3001C534.1 12.6001 535.6 12.3001 537.1 12.3001C538.2 12.3001 539.1 12.4001 540.1 12.5001C541 12.6001 541.8 12.7001 542.5 12.8001H542.6C543.3 12.9001 544 13.0001 544.6 13.1001H544.8C545.6 13.2001 546.4 13.3001 547.2 13.3001C549.3 13.3001 550.9 12.2001 551.6 10.3001C552.1 8.9001 552.4 6.8001 552.4 3.7001V1.7001H550.4C549.5 1.7001 548.6 1.7001 547.8 1.6001C546.9 1.5001 545.9 1.4001 545 1.4001C544 1.3001 542.9 1.2001 541.8 1.2001C540.6 1.1001 539.3 1.1001 537.8 1.1001C533.8 1.1001 530.2 1.9001 527.1 3.6001C524.1 5.2001 521.5 7.3001 519.4 10.0001C517.4 12.6001 515.8 15.7001 514.8 19.1001C513.8 22.4001 513.3 26.0001 513.3 29.5001C513.3 33.8001 513.9 37.6001 515.2 41.0001C516.5 44.3001 518.3 47.1001 520.6 49.2001C522.8 51.4001 525.5 53.1001 528.5 54.2001C531.5 55.3001 534.7 55.8001 538.1 55.8001C539.8 55.8001 541.6 55.6001 543.3 55.3001C545 55.0001 546.6 54.6001 548 54.0001C549.5 53.4001 550.7 52.6001 551.6 51.8001C553.1 50.4001 553.5 49.0001 553.5 48.0001C553.5 47.0001 553.3 45.9001 552.9 44.7001C551.9 43.4001 551.3 42.3001 550.6 41.3001Z" fill="#E2211C"/>
<path d="M593.8 4.1L593.4 0L591 0.8C589.6 1.3 587.5 1.6 584.9 1.7C582.1 1.8 578.6 1.8 574.6 1.8H570.3L565.8 1.7C564.3 1.7 562.8 1.6 561.4 1.6C560 1.6 558.7 1.5 557.5 1.5C555.8 1.5 554.6 2 553.8 2.9C553.1 3.7 552.7 4.8 552.7 6.3V7.6V7.8C552.7 8.3 552.8 8.7 552.8 9.1C552.8 9.6 552.9 10.1 552.9 10.6L553.1 12.2L554.7 12.4C555.4 12.5 556.3 12.6 557.5 12.7C558.6 12.8 559.8 12.9 561.1 13L567.4 13.2C567.4 15.3 567.3 17.5 567.3 19.9L567.2 29.6C567.2 32.8 567.1 35.9 567.1 39C567.1 42 567 44.7 567 47.1C567 48.1 567 49.1 567.1 49.9V50C567.2 51 567.4 51.7 567.5 52.3L567.6 52.5C568 53.4 568.6 54 569.3 54.5L569.5 54.6C570.3 55 571.3 55.2 572.8 55.2C573.5 55.2 574.4 55.2 575.3 55.1C576.4 55 577.5 54.9 578.4 54.6L580 54L579.7 52.3C579.6 51.7 579.5 51.2 579.4 50.5C579.3 50.1 579.3 49.6 579.2 49C579.2 48.4 579.1 47.9 579.1 47.3C579.1 46.4 579.1 45.3 579 43.9C579 42.5 579 41 578.9 39.7V32.5C578.9 29.3 578.9 25.9 579 22.2C579 19.2 579.1 16.2 579.1 13.3H583.8C584.9 13.3 585.9 13.2 586.8 13.2C587.8 13.2 588.5 13.1 589.2 13.1C591.2 12.9 592.4 12.3 593.2 11.1C593.7 10.2 594 9.1 594 7.6C594 7 594 6.4 593.9 5.8C593.9 5.1 593.8 4.6 593.8 4.1Z" fill="#E2211C"/>
<path d="M633.5 30.1C632.7 28.9 631.5 27.7999 630.2 26.9C629.8 26.6 629.4 26.4 629 26.2C630 25.3 630.8 24.4 631.4 23.2999C632.7 21.0999 633.4 18.7 633.4 16C633.4 13.1 632.8 10.6 631.7 8.69995C630.6 6.69995 629.1 5.09995 627.2 4.09995C625.4 2.99995 623.3 2.19995 621 1.79995C618.8 1.39995 616.5 1.19995 614.1 1.19995C609.4 1.19995 603.9 1.89995 597.9 3.19995L595.9 3.59995L596.4 5.59995C596.6 6.29995 596.7 6.89995 596.9 7.59995C597 8.09995 597.1 8.69995 597.2 9.39995V9.49995C597.3 10.1 597.4 10.8 597.4 11.6V11.7C597.5 12.5 597.6 13.5 597.6 14.7C597.7 16.6 597.7 18.5 597.7 20.2999V26.1C597.7 30.4 597.7 34.7 597.6 38.9C597.5 43.1 597.4 47.0999 597.3 51L597.2 52.5L598.6 53C600 53.5 601.6 53.8999 603.2 54.2999C604.6 54.5999 606.3 54.9 608.2 55.2C610.1 55.4 612.3 55.5999 614.5 55.5999C618 55.5999 621.1 55.2 623.7 54.4C626.4 53.6 628.6 52.3999 630.5 50.7999C632.3 49.2 633.7 47.2999 634.5 45.0999C635.3 43 635.8 40.5999 635.8 38.0999C635.8 36.7999 635.6 35.3999 635.3 34.0999C634.9 32.5999 634.3 31.3 633.5 30.1ZM619.5 20.9C618.3 22 616.2 22.6 613.2 22.6H609.6C609.6 21.3 609.5 20.2 609.5 19.1C609.5 17.4 609.5 15.9 609.4 14.6C609.4 13.7 609.3 12.8 609.3 12.1C609.7 12 610 12 610.4 11.9C611.4 11.8 612.5 11.7 613.7 11.7C616.4 11.7 618.3 12.1 619.6 13C620 13.2 621.1 14 621.1 16.8C621.3 18.5 620.7 19.7999 619.5 20.9ZM609.3 41.2999C609.4 39.8999 609.5 38.2999 609.5 36.5L609.6 32.7999C610.1 32.7999 610.6 32.7999 611.1 32.7999H613.8C615.4 32.7999 616.8 32.8999 618.2 33.0999C619.4 33.2999 620.4 33.5999 621.2 34.0999C621.9 34.5 622.5 35.0999 622.9 35.7999L623 35.9C623.4 36.6 623.6 37.5 623.6 38.5999C623.6 40.8999 623 42.4 621.8 43.4C620.4 44.4 618.2 44.9 615.3 44.9C614.2 44.9 613.3 44.8999 612.4 44.7999C611.5 44.7 610.7 44.5 610 44.2999C609.8 44.2 609.5 44.1999 609.3 44.0999C609.1 43.2999 609.2 42.2999 609.3 41.2999Z" fill="#E2211C"/>
<path d="M685.9 16.9C684.9 13.5999 683.3 10.7 681.3 8.29995C679.2 5.89995 676.6 3.99995 673.6 2.69995C670.6 1.39995 667 0.699951 663 0.699951C659.2 0.699951 655.8 1.49995 652.7 3.09995C649.7 4.69995 647.1 6.79995 645.1 9.39995C643 12 641.5 15 640.4 18.4C639.3 21.7999 638.8 25.2999 638.8 29C638.8 32.9 639.3 36.5 640.3 39.7999C641.4 43.0999 642.9 45.8999 645 48.2999C647.1 50.7 649.7 52.5 652.7 53.9C655.7 55.2 659.2 55.7999 663.1 55.7999C666.9 55.7999 670.3 55 673.3 53.4C676.3 51.8 678.9 49.6999 681 47.0999C683.1 44.5 684.7 41.3999 685.8 38.0999C686.9 34.6999 687.4 31.2 687.4 27.5C687.4 23.7 686.9 20.1 685.9 16.9ZM675 28.1C675 30.7 674.7 33.0999 674 35.2999C673.4 37.3999 672.5 39.1999 671.4 40.5999C670.3 42 669 43.1 667.6 43.9C666.3 44.6 664.8 45 663.3 45C661.5 45 659.8 44.7 658.4 44C657 43.2999 655.7 42.3 654.6 40.9C653.5 39.5 652.6 37.7999 652 35.7C651.4 33.6 651 31.2 651 28.5C651 25.7999 651.3 23.4 652 21.2999C652.7 19.1999 653.6 17.4 654.7 16C655.8 14.6 657.1 13.5 658.6 12.8C660 12.1 661.4 11.7 662.9 11.7C664.6 11.7 666.3 12.1 667.7 12.8C669.1 13.5 670.4 14.5 671.5 15.8C672.6 17.2 673.5 18.9 674.1 21C674.7 23 675 25.4 675 28.1Z" fill="#E2211C"/>
</svg>
