<svg width="196" height="211" viewBox="0 0 196 211" fill="none" xmlns="http://www.w3.org/2000/svg">
<path d="M163.923 91.5477C163.98 91.8589 163.813 92.1784 163.957 92.4415C166.952 98.3263 166.827 104.552 165.632 110.906C163.972 120.367 160.907 129.342 156.62 137.961C155.499 140.285 153.786 142.363 152.346 144.521C151.963 145.072 151.494 145.671 151.247 146.262C150.247 149.432 148.56 152.181 146.321 154.547C145.373 155.522 145.271 156.376 145.584 157.573C146.202 159.743 146.908 161.864 147.391 163.994C147.76 165.502 148.13 167.01 148.228 168.438C148.464 171.159 147.479 173.523 145.303 175.171C142.21 177.435 139.165 179.787 135.409 181.046C132.625 182.001 130.042 183.529 127.306 184.571C124.395 185.71 121.484 186.848 118.525 187.898C115.255 189.005 112.032 190.2 108.706 190.996C99.5714 193.262 90.341 195.353 80.8517 195.305C80.1813 195.33 79.4629 195.268 78.7446 195.205C74.1231 194.886 73.0121 193.898 71.3371 189.799C69.165 184.375 67.751 178.879 66.8632 173.094C66.6941 172.161 66.1657 171.196 65.5579 170.503C58.2819 162.63 51.3087 154.477 45.8578 145.149C44.329 142.566 42.6646 139.943 41.1358 137.36C36.5495 129.61 33.9973 121.203 32.7293 112.434C30.5966 97.2978 30.3872 82.1345 34.1205 67.0921C35.413 62.1657 37.2965 57.4857 39.7229 52.9644C44.2898 44.6485 50.567 37.7902 58.0514 32.0951C62.3156 28.8476 66.4357 25.3369 71.5562 23.4447C76.3656 21.6089 81.2793 20.172 86.2892 18.9104C89.3924 18.123 92.5458 18.6763 95.5008 19.9083C106.275 24.3831 113.367 32.1285 117.049 43.2236C119.432 50.6976 120.794 58.3889 122.02 66.0404C123.012 72.2239 124.451 78.3907 126.154 84.4134C126.82 86.6708 128.42 88.7591 129.875 90.5842C131.611 92.7121 132.544 92.543 134.712 90.6717C136.489 89.1284 138.13 87.5454 140.003 86.1775C142.227 84.6174 144.635 83.1847 147.099 82.0632C151.677 80.0123 156.38 81.3131 159.659 85.2182C160.083 85.7841 160.634 86.1662 161.098 86.5964C162.146 88.3025 163.011 89.8813 163.923 91.5477ZM48.1297 138.888C52.2857 147.101 57.3335 154.028 62.4293 161.043C65.9169 165.745 70.1689 169.346 75.8617 170.788C83.1835 172.707 90.5887 172.072 97.9291 170.902C101.711 170.313 105.524 169.365 109.154 168.289C114.865 166.644 120.76 165.125 126.272 162.905C138.258 157.937 146.551 148.72 151.71 137.115C155.924 127.739 158.461 117.798 160.184 107.62C161.021 102.486 160.119 97.5079 158.283 92.6986C157.393 90.4495 156.153 88.3926 153.995 86.9517C152.525 85.9326 151.168 85.5359 149.445 86.1374C145.425 87.5409 141.925 89.6858 138.761 92.4446C137.59 93.4282 136.37 94.3241 135.006 94.957C132.367 96.1746 129.725 96.1392 127.28 94.172C124.786 92.1172 122.196 89.887 121.273 86.7441C119.627 81.0326 118.069 75.2731 116.822 69.4571C115.519 63.33 114.838 57.0901 113.399 50.9234C112.434 46.6632 110.982 42.5556 109.092 38.6881C105.513 31.5273 99.7341 26.597 92.0281 23.9765C90.6226 23.492 88.9624 23.3751 87.5424 23.6968C82.4761 24.6472 77.5143 25.9964 72.8094 28.2311C66.2543 31.2511 60.6911 35.666 55.5916 40.5111C46.9463 48.6664 41.2727 58.5005 38.6669 70.189C36.4098 80.4323 36.2118 90.688 36.868 101.046C37.7372 114.708 40.6405 127.712 48.1297 138.888ZM70.7434 173.934C72.0989 177.866 73.1745 181.495 74.4255 185.029C74.8746 186.265 75.5867 187.357 76.0358 188.593C76.6853 190.404 78.0511 191.024 79.8387 190.957C83.8128 190.719 87.6991 190.529 91.6648 190.067C101.599 188.845 111.019 185.852 120.479 182.724C125.385 181.063 130.169 178.557 134.874 176.322C137.163 175.297 139.299 173.785 141.492 172.584C143.333 171.575 143.985 169.85 143.511 167.944C142.828 165.239 141.921 162.543 141.094 159.576C140.265 160.144 139.651 160.48 139.085 160.904C134.869 164.239 130.181 166.921 125.004 168.502C117.482 170.797 109.92 173.228 102.237 174.814C91.8022 176.994 81.6195 177.554 70.7434 173.934Z" fill="#FFC079"/>
<path d="M95.4586 116.844C97.8205 116.577 99.9171 115.2 102.983 115.802C97.2338 118.836 91.8021 120.785 86.0447 123.596C88.1705 120.608 91.09 119.693 93.0905 118.141C91.4593 111.623 89.8845 105.417 88.2052 98.8117C84.6154 99.7516 81.4266 101.84 77.7429 103.858C79.063 110.432 80.2473 116.966 81.6718 123.939C80.7613 123.525 79.9948 123.375 79.7547 122.936C78.842 121.27 77.8813 119.516 77.3675 117.745C76.3712 113.844 75.6381 109.799 74.6731 105.539C70.981 107.333 67.5688 109.43 64.1252 111.886C65.0422 116.058 65.9111 120.143 66.8677 124.179C66.6923 124.275 66.4688 124.284 66.2934 124.38C64.1569 121.103 63.1606 117.202 61.7655 113.406C60.2661 113.999 58.9901 114.584 57.6662 115.081C57.5701 114.906 57.474 114.73 57.3299 114.467C58.0232 113.859 58.6204 113.076 59.4495 112.508C60.9802 111.556 61.3853 110.422 60.9195 108.739C60.3326 106.21 60.0088 103.537 59.5096 100.96C59.3968 100.337 59.236 99.6273 58.9791 98.7419C56.3479 100.183 53.892 101.528 51.4362 102.873C51.3402 102.697 51.1564 102.57 51.0603 102.395C52.5346 101.131 53.8648 99.6045 55.5709 98.5561C58.3692 96.7956 59.1397 94.6633 58.5277 91.4641C57.7862 87.1956 57.7547 82.7662 57.3557 78.0821C52.7322 81.2983 48.3239 84.2827 44.0033 87.2191C43.8195 87.0917 43.7234 86.9163 43.4916 86.7012C43.9615 86.1018 44.471 85.3667 45.0369 84.9427C48.3844 82.3113 51.6838 79.5922 55.1274 77.1362C56.7855 76.0001 57.4537 74.722 57.4661 72.6629C57.6079 66.8845 58.1089 61.1374 58.6099 55.3903C58.6558 54.2251 59.1966 53.1308 59.7374 52.0364C60.6752 54.3732 59.913 56.7289 59.957 59.0992C60.0009 61.4694 59.7734 63.7603 59.7693 66.0428C59.7255 68.4611 59.6818 70.8794 59.6944 73.6088C62.0876 72.9822 63.825 71.5747 65.6669 70.5659C67.5088 69.5572 69.4383 68.5004 71.3679 67.4437C71.6915 65.3282 72.0151 63.2127 72.2907 61.0095C72.5142 61.0011 72.7376 60.9928 72.8734 61.0324C73.1157 62.724 73.406 64.5032 73.7047 66.5059C77.9481 65.094 82.1038 63.7302 86.3473 62.3183C86.9715 58.67 86.4702 54.84 88.4832 51.2292C88.6086 54.581 88.7341 57.9328 88.8282 61.6437C91.4532 61.2322 93.767 60.8771 96.0809 60.522C96.177 60.6974 96.1373 60.8332 96.2334 61.0086C95.0848 61.4096 94.072 61.8503 92.9234 62.2513C91.6871 62.7003 90.4509 63.1493 88.9034 63.6548C89.0958 68.7941 89.2881 73.9335 89.4491 79.432C94.4276 78.5297 99.0219 76.9257 104.546 77.435C99.2809 79.0641 94.6783 80.4447 89.8126 81.9693C89.8441 86.3987 90.4895 90.4918 90.9679 94.9044C94.9252 94.2193 98.6905 93.1833 102.627 94.3338C100.808 94.7599 98.9015 95.234 97.0825 95.6601C95.224 96.2219 93.5011 96.8234 91.4671 97.4813C92.0772 104.216 93.9235 110.502 95.4586 116.844ZM71.3325 70.0854C67.7365 72.0548 64.6271 73.8718 61.3338 75.5614C60.0182 76.2819 59.6444 77.0567 59.7426 78.4851C60.1333 82.9457 60.476 87.3187 60.8667 91.7793C60.9398 92.5374 61.2364 93.2871 61.4536 94.3082C65.344 91.8355 69.0194 89.5946 72.559 87.314C72.0785 81.6484 71.7337 76.0225 71.3325 70.0854ZM73.9324 69.0035C74.413 74.6691 74.574 80.1677 75.7165 85.5848C79.632 83.7824 83.1487 82.0844 86.7134 80.4742C86.6485 75.1511 86.4562 70.0117 86.4309 64.5528C82.1875 65.9647 78.2155 67.4559 73.9324 69.0035ZM63.4903 109.269C67.5561 106.7 71.0081 104.468 74.46 102.235C73.9503 98.1816 73.4489 94.3516 72.8828 89.9871C68.8566 92.4201 65.1813 94.661 61.3785 97.0857C62.0636 101.043 62.7884 104.865 63.4903 109.269ZM88.1842 95.8588C87.6661 91.582 87.2922 87.5682 86.8138 83.1556C82.8982 84.958 79.4693 86.6079 76.2157 88.1617C76.1511 92.4157 77.0953 98.5114 77.9683 100.314C81.2699 98.8475 84.7072 97.421 88.1842 95.8588Z" fill="#FFC079"/>
<path d="M134.073 146.547C138.084 140.131 142.463 133.971 145.971 127.261C149.352 120.735 151.726 113.62 154.643 106.663C157.004 114.72 143.52 140.689 134.073 146.547Z" fill="#FFC079"/>
<path d="M96.9855 127.751C100.947 124.784 109.162 121.881 111.909 122.315C108.889 125.337 100.682 128.463 96.9855 127.751Z" fill="#FFC079"/>
<path d="M72.2734 153.827C72.5448 153.907 73.0398 153.977 73.0878 154.065C74.0256 156.402 74.8276 158.699 75.6776 161.084C75.734 161.395 75.4479 162.122 75.0971 162.314C74.7463 162.506 74.0676 162.308 73.748 162.141C72.046 160.907 71.1917 156.016 72.2734 153.827Z" fill="#FFC079"/>
<path d="M80.2804 164.492C77.5091 163.387 76.9222 160.858 78.7139 158.509C80.5204 160.142 80.5956 162.153 80.2804 164.492Z" fill="#FFC079"/>
<path d="M116.098 131.422C114.131 133.867 111.945 134.039 109.391 133.955C110.879 131.886 112.116 131.437 116.098 131.422Z" fill="#FFC079"/>
<path d="M86.8189 165.814C84.8246 166.336 84.1208 165.467 83.8472 164.135C83.7428 163.736 84.0769 163.097 84.34 162.953C84.6908 162.761 85.4572 162.911 85.6013 163.174C86.1214 163.915 86.3783 164.801 86.8189 165.814Z" fill="#FFC079"/>
</svg>
