<svg width="278" height="303" viewBox="0 0 278 303" fill="none" xmlns="http://www.w3.org/2000/svg">
<path d="M182.846 267.32C188.377 256.072 194.208 244.728 199.739 233.481L272.218 88.5706C273.344 86.3813 271.262 84.5566 269.46 84.6365C269.369 83.8348 268.976 83.1298 268.18 82.7206C238.344 65.8732 207.99 50.5213 177.744 34.47C163.517 26.9047 149.392 19.1404 134.96 11.9732C130.781 9.82474 125.22 5.95939 121.667 10.4234C121.99 8.32526 118.8 7.18867 117.476 9.2756C92.7101 49.1319 70.0311 90.3125 47.4544 131.294C36.3195 151.486 25.3837 171.781 14.6469 192.178C13.2145 194.964 11.4809 197.847 10.1453 200.935C9.94625 200.833 9.74723 200.73 9.74723 200.73C8.5531 200.116 7.63232 201.908 8.82645 202.522C9.02547 202.624 9.22449 202.726 9.42351 202.828C6.54208 209.902 5.55974 217.197 12.7988 223.183C19.3442 228.561 28.9196 231.47 36.1867 234.954C46.6381 240.075 57.1918 244.997 67.6433 250.118L132.945 281.674C142.003 286.079 159.364 299.784 169.461 291.891C175.925 286.659 179.163 274.485 182.846 267.32ZM152.425 284.895C141.053 281.565 129.23 273.726 118.58 268.503L84.7352 252.111C73.4877 246.581 62.1378 241.249 50.8903 235.719C42.0311 231.417 25.9678 226.933 18.8366 220.248C14.4806 215.996 13.6381 210.782 14.7004 205.289C17.0886 206.517 19.6759 207.847 22.0642 209.075C23.4573 209.791 24.5827 207.602 23.1896 206.886C20.6023 205.556 18.015 204.226 15.2287 202.793C17.9335 193.616 24.8458 184.085 28.3187 177.819C29.0348 176.426 29.8533 174.834 30.5694 173.44C30.7685 173.543 30.6662 173.742 30.8652 173.844C32.4574 174.663 33.9472 175.68 35.5394 176.498C36.9326 177.215 37.9556 175.224 36.5625 174.508C34.9703 173.69 33.3781 172.871 31.6837 172.252C31.4846 172.15 31.2856 172.047 31.1833 172.246C33.8433 167.072 36.7024 161.999 39.3624 156.825L39.5614 156.927C40.6533 157.74 41.8474 158.354 42.9448 158.666C42.9448 158.666 42.9448 158.666 43.1438 158.769C44.1389 159.28 44.935 159.69 45.9301 160.201C47.3233 160.917 48.4487 158.728 47.0555 158.012C46.0604 157.5 45.162 157.29 44.1669 156.779C43.9679 156.676 43.7689 156.574 43.6666 156.773C42.3701 156.358 41.375 155.847 39.9763 155.631C41.8178 152.048 43.7561 148.767 45.5977 145.185C46.8254 142.797 48.2521 140.511 49.3775 138.321C51.0664 139.441 53.0622 139.964 55.2682 139.588C56.6726 139.304 56.5982 137.001 55.1939 137.286C53.5905 137.468 51.9928 137.15 50.4006 136.331C53.362 131.06 56.4256 125.59 59.387 120.318C60.3821 120.83 61.1782 121.239 62.1733 121.751C63.3674 122.365 64.2882 120.573 63.0941 119.96C62.099 119.448 61.3029 119.039 60.3078 118.527C62.8599 114.052 65.5143 109.378 68.0664 104.903C69.5563 105.92 71.1485 106.739 72.6439 107.256C73.8381 107.87 74.6565 106.277 73.5647 105.465C72.0749 104.447 70.5794 103.93 68.9872 103.111C72.0509 97.6412 75.0123 92.3699 78.0759 86.8996C79.3668 87.8148 80.5609 88.4287 81.954 89.1448C83.1482 89.7587 84.069 87.9675 82.8748 87.3536C81.6807 86.7398 80.2875 86.0236 78.9911 85.6088C81.7479 80.7355 84.6069 75.6633 87.3636 70.7901C88.2564 71.5006 89.4506 72.1145 90.548 72.427C91.8444 72.8418 92.6629 71.2497 91.4688 70.6358C90.4737 70.1243 89.2795 69.5104 88.2844 68.9989C91.854 63.0338 95.4237 57.0688 98.7943 51.0014C99.8917 51.3139 100.58 52.4225 101.478 52.6327C102.274 53.042 103.178 52.7518 104.082 52.4617C105.492 51.6768 106.316 49.5843 104.525 48.6635C103.53 48.152 102.615 49.4428 103.206 50.2501C103.206 50.2501 102.905 50.3468 102.803 50.5458C102.2 50.7392 101.506 50.131 101.108 49.9264C100.71 49.7217 100.113 49.4148 99.715 49.2102C102.472 44.337 105.229 39.4637 107.985 34.5905C109.378 35.3067 110.772 36.0228 112.165 36.739C113.558 37.4552 114.581 35.4649 113.188 34.7488C111.795 34.0326 110.601 33.4188 109.207 32.7026C111.35 29.0235 113.192 25.4411 115.335 21.762C118.519 23.399 121.601 25.2349 124.888 26.6728C126.281 27.389 127.406 25.1998 126.013 24.4836C122.931 22.6476 119.644 21.2097 116.46 19.5728C118.194 16.6898 119.723 14.2048 121.155 11.4185C121.252 11.7198 121.451 11.8221 121.65 11.9244C133.431 14.4582 145.538 23.7012 156.183 29.4249C168.022 35.7624 179.861 42.1 192.001 48.3408C216.475 61.4251 240.745 74.9075 265.827 87.2981C266.026 87.4004 266.225 87.5027 266.526 87.406C243.49 133.687 220.255 179.866 197.321 225.947C191.791 237.195 185.959 248.539 180.429 259.787L173.261 274.219C171.625 277.403 169.988 280.587 168.55 283.874C162.694 288.412 157.287 288.652 152.425 284.895Z" fill="#FFDFBC"/>
<path d="M215.399 86.0335C217.15 81.6494 214.897 77.2206 211.321 74.8787C206.652 71.7239 200.836 72.7597 195.514 74.3015C194.973 68.9911 193.431 63.6695 189.166 60.2189C185.003 56.5694 178.709 55.5983 173.871 58.6467C161.267 67.0128 171.595 83.1416 179.824 90.1393C179.511 91.2367 179.898 92.4421 181.195 92.8569C190.577 95.1637 211.063 97.8949 215.399 86.0335ZM206.359 88.9349C199.02 91.9554 190.03 90.3536 182.439 88.9676C182.343 88.6663 182.343 88.6663 182.246 88.3649C177.611 82.208 169.894 74.2152 174.39 65.9586C177.05 60.784 183.452 61.0558 187.114 64.6997C190.481 67.94 191.227 72.8524 191.677 77.3612C191.751 79.6639 194.952 79.7998 195.475 77.804C199.284 77.2461 203.298 76.2902 207.085 77.7337C213.766 79.9102 212.392 86.5003 206.359 88.9349Z" fill="#FFDFBC"/>
<path d="M222.07 124.94C185.746 106.519 148.427 87.5861 110.562 72.6506C108.868 72.0311 107.742 74.2203 109.232 75.2378C144.636 95.4502 182.978 112.393 220.024 128.92C222.611 130.25 224.657 126.27 222.07 124.94Z" fill="#FFDFBC"/>
<path d="M209.179 150.017C191.876 140.115 173.355 131.601 155.54 122.695C137.725 113.788 119.722 103.779 101.185 96.7659C99.4903 96.1465 98.3649 98.3357 99.8548 99.3532C116.647 110.25 135.372 118.366 153.187 127.272C171.201 136.281 188.909 145.887 207.235 153.798C209.624 155.026 211.766 151.347 209.179 150.017Z" fill="#FFDFBC"/>
<path d="M200.109 173.535C164.501 153.721 126.465 136.181 89.118 119.75C87.5258 118.932 86.1958 121.519 87.788 122.337C123.498 141.953 160.511 161.482 197.96 177.714C200.849 178.948 202.895 174.967 200.109 173.535Z" fill="#FFDFBC"/>
<path d="M180.497 199.938C162.785 190.832 145.174 181.528 127.762 172.326C110.453 162.924 93.2629 151.823 75.3342 144.116C74.14 143.503 72.7189 145.288 74.0097 146.203C88.9939 157.68 106.809 166.587 123.322 175.579C141.524 185.691 159.732 195.302 178.446 204.419C181.13 206.05 183.483 201.472 180.497 199.938Z" fill="#FFDFBC"/>
<path d="M173.851 230.489C137.748 210.169 100.73 191.139 64.121 171.314C62.3298 170.393 60.8975 173.179 62.5864 174.299C97.8763 195.711 134.269 216.935 171.702 234.668C174.392 235.799 176.438 231.819 173.851 230.489Z" fill="#FFDFBC"/>
<path d="M140.731 265.548C135.261 262.484 129.285 259.915 123.712 257.05C121.921 256.13 120.489 258.916 122.28 259.837C127.75 262.9 133.317 266.265 139.095 268.732C141.284 269.857 142.921 266.673 140.731 265.548Z" fill="#FFDFBC"/>
<path d="M37.1403 194.431C32.5572 192.578 27.8718 190.925 23.1864 189.271C21.6909 188.754 20.6678 190.744 22.061 191.46C26.8431 193.415 31.4262 195.268 36.3106 197.024C37.607 197.439 38.6357 194.948 37.1403 194.431Z" fill="#FFDFBC"/>
</svg>
