<svg width="330" height="34" viewBox="0 0 330 34" fill="none" xmlns="http://www.w3.org/2000/svg">
<path d="M18.1 26.2999L18 25.3999C18 25.0999 18 24.8999 18 24.5999C18 23.4999 17.9 22.2999 17.9 20.8999V16.8999C17.9 16.2999 17.9 15.5999 17.9 14.8999L18 12.6999C18 11.8999 18.1 11.1999 18.1 10.5999C18.1 9.8999 18.1 9.3999 18.1 8.8999C18.1 8.1999 17.9 7.6999 17.6 7.3999C17.1 6.8999 16.2 6.7999 14.9 6.9999C14.4 6.9999 13.9 7.0999 13.5 7.1999H13L12.8 7.4999C12.2 8.3999 11.5 9.3999 10.8 10.4999C10 11.6999 9.2 12.9999 8.4 14.2999C7.6 15.5999 6.7 16.8999 5.9 18.1999C5.8 18.3999 5.7 18.4999 5.6 18.6999C5.6 18.1999 5.6 17.6999 5.7 17.0999L5.8 14.5999C5.8 13.6999 5.8 12.8999 5.8 12.1999C5.8 11.3999 5.8 10.6999 5.8 10.0999C5.8 9.4999 5.8 8.8999 5.8 8.4999C5.8 8.1999 5.7 6.8999 3.8 6.8999C3.3 6.8999 2.8 6.8999 2.4 6.9999C2 6.9999 1.5 7.0999 0.9 7.1999L0 7.4999L0.2 8.3999C0.3 8.6999 0.3 8.8999 0.4 9.1999C0.4 9.3999 0.5 9.5999 0.5 9.7999C0.5 9.9999 0.6 10.2999 0.6 10.4999C0.6 10.7999 0.6 11.0999 0.6 11.4999C0.6 12.2999 0.6 13.0999 0.6 13.9999V16.7999C0.6 17.6999 0.6 18.6999 0.6 19.5999C0.6 20.5999 0.6 21.4999 0.6 22.2999C0.6 23.0999 0.6 23.7999 0.6 24.4999V26.7999C0.6 27.0999 0.7 27.3999 0.9 27.7999C1.1 28.0999 1.4 28.2999 1.7 28.3999C2.2 28.5999 2.9 28.5999 3.8 28.4999C4.2 28.4999 4.6 28.3999 5 28.2999L5.5 28.1999L5.7 27.7999C5.9 27.4999 6.1 26.9999 6.4 26.3999C6.8 25.6999 7.2 24.9999 7.7 24.1999C8.2 23.3999 8.7 22.4999 9.3 21.4999C9.9 20.4999 10.5 19.4999 11.1 18.4999C11.7 17.4999 12.3 16.5999 12.9 15.5999C12.9 15.7999 12.9 15.9999 12.9 16.2999C12.9 16.9999 12.9 17.5999 12.9 18.2999V19.9999L12.8 21.9999C12.8 22.5999 12.8 23.1999 12.8 23.7999C12.8 24.2999 12.8 24.7999 12.8 25.2999V26.2999C12.8 26.9999 13 27.5999 13.5 27.9999C13.9 28.2999 14.4 28.3999 15.1 28.3999C15.4 28.3999 15.7 28.3999 16.1 28.2999C16.6 28.2999 17.1 28.0999 17.6 27.9999L18.3 27.6999L18.2 26.8999C18.1 26.8999 18.1 26.5999 18.1 26.2999Z" fill="#E2211C"/>
<path d="M39.8 28.9999C39.8 28.0999 39.8 27.0999 39.8 26.0999C39.8 25.5999 39.7 25.2999 39.6 24.9999C39.5 24.6999 39.2 24.3999 38.7 24.1999C38.3 23.9999 37.9 23.9999 37.6 23.9999C37.5 23.9999 37.4 23.9999 37.3 23.9999C37.3 23.5999 37.3 22.9999 37.3 22.3999C37.3 21.1999 37.3 19.5999 37.3 17.7999C37.3 16.4999 37.3 15.2999 37.4 14.2999C37.5 13.2999 37.5 12.4999 37.6 11.7999C37.7 11.0999 37.7 10.5999 37.7 10.1999C37.8 9.6999 37.8 9.3999 37.8 9.0999C37.8 8.7999 37.8 8.4999 37.7 8.2999C37.6 7.9999 37.4 7.5999 37 7.3999C36.5 7.1999 36.2 6.9999 35.7 6.9999C35.3 6.8999 34.9 6.8999 34.3 6.8999C33.8 6.8999 33.3 6.8999 32.7 6.8999C32.1 6.8999 31.4 6.8999 30.7 6.8999C29.9 6.8999 29 6.8999 28 6.8999C27 6.8999 25.9 6.9999 24.6 6.9999H23.4L23.7 8.1999C24 9.2999 24.1 10.3999 24 11.3999C23.9 13.1999 23.8 14.6999 23.6 16.0999C23.4 17.3999 23.2 18.6999 22.9 19.6999C22.6 20.6999 22.3 21.5999 21.9 22.3999C21.6 22.9999 21.2 23.5999 20.8 24.0999C20.2 24.1999 19.7 24.2999 19.3 24.5999C18.9 24.9999 18.6 25.5999 18.6 26.3999V29.0999C18.6 29.5999 18.6 30.0999 18.6 30.4999C18.6 30.9999 18.6 31.3999 18.7 31.6999C18.8 32.2999 18.9 32.6999 19.1 32.8999C19.6 33.4999 20.4 33.4999 20.7 33.4999C21.1 33.4999 21.5 33.4999 21.8 33.3999C22.1 33.3999 22.4 33.2999 22.7 33.1999C23 33.0999 23.2 32.9999 23.4 32.8999L24.1 32.4999L24 31.7999C23.9 31.4999 23.8 31.0999 23.8 30.6999C23.7 30.3999 23.7 29.8999 23.6 29.3999C23.6 29.1999 23.6 28.8999 23.5 28.5999C23.7 28.5999 23.9 28.5999 24.1 28.5999C24.7 28.5999 25.2 28.5999 25.9 28.5999C26.5 28.5999 27.1 28.5999 27.7 28.5999C28.3 28.5999 28.9 28.5999 29.4 28.5999H31C31.6 28.5999 32.1 28.5999 32.7 28.5999C33.3 28.5999 33.8 28.5999 34.4 28.5999C34.5 28.5999 34.7 28.5999 34.8 28.5999V30.9999C34.8 31.3999 34.8 31.6999 34.9 31.8999C35 32.2999 35.1 32.5999 35.4 32.8999C35.7 33.1999 36 33.2999 36.3 33.3999C36.6 33.4999 36.9 33.4999 37.4 33.4999C38 33.4999 38.6 33.3999 39.4 33.1999L40.2 32.9999L40 32.1999C39.9 30.9999 39.8 29.9999 39.8 28.9999ZM32.1 23.8999C31.8 23.8999 31.6 23.8999 31.3 23.8999H29.7C28.9 23.8999 28 23.8999 27.1 23.8999C26.9 23.8999 26.6 23.8999 26.4 23.8999C26.5 23.6999 26.6 23.3999 26.7 23.1999C27.1 22.3999 27.4 21.2999 27.7 20.1999C28 18.9999 28.2 17.6999 28.4 16.0999C28.6 14.7999 28.7 13.1999 28.8 11.4999C29.4 11.4999 30.1 11.4999 30.7 11.4999C31.2 11.4999 31.8 11.4999 32.3 11.4999C32.2 12.8999 32.2 14.1999 32.1 15.2999C32.1 16.6999 32 18.0999 32 19.4999V21.9999C32.1 22.5999 32.1 23.1999 32.1 23.8999Z" fill="#E2211C"/>
<path d="M91.7 25.5999C91.6 24.8999 91.6 24.1999 91.5 23.2999C91.5 22.3999 91.4 21.5999 91.4 20.6999C91.4 19.7999 91.4 19.0999 91.4 18.4999C91.4 16.2999 91.4 14.2999 91.5 12.6999C91.6 10.9999 91.7 9.7999 91.7 8.9999C91.7 8.6999 91.7 8.3999 91.6 8.1999C91.5 7.8999 91.3 7.4999 90.9 7.2999C90.6 7.0999 90.3 6.9999 89.9 6.8999C89.5 6.9999 89.1 6.9999 88.6 6.8999C88.2 6.8999 87.7 6.8999 87.1 6.8999C85.9 6.8999 84.3 6.8999 82.3 6.8999C81.3 6.8999 80.1 6.9999 78.8 6.9999L77.6 7.0999L77.9 8.2999C78 8.5999 78.1 8.9999 78.1 9.3999C78.1 9.7999 78.2 10.1999 78.2 10.6999C78.2 11.6999 78.2 12.7999 78.1 13.8999C78 14.9999 77.9 16.0999 77.7 17.1999C77.4 18.6999 77.2 19.9999 76.9 20.8999C76.6 21.7999 76.3 22.3999 76 22.8999C75.7 23.3999 75.4 23.4999 75.3 23.5999C75 23.6999 74.8 23.7999 74.5 23.6999L73.4 23.2999V23.3999C73.2 22.9999 72.9 22.4999 72.7 21.7999C72.3 20.5999 72 19.3999 71.6 18.1999C71.3 16.9999 71 15.7999 70.7 14.6999C70.4 13.5999 70.2 12.5999 69.9 11.6999C69.7 10.6999 69.4 9.9999 69.2 9.3999C69 8.9999 68.9 8.5999 68.8 8.3999C68.6 7.9999 68.4 7.6999 68.2 7.4999C67.9 7.2999 67.6 7.0999 67.2 6.9999C66.7 6.8999 65.8 6.8999 65 6.9999C64.6 6.9999 64.3 7.0999 63.9 7.1999L62.2 7.5999L62 8.1999C61.8 8.9999 61.5 9.8999 61.2 10.8999C60.8 11.8999 60.4 12.8999 60 13.9999C59.6 15.0999 59.1 16.1999 58.6 17.2999C58.1 18.3999 57.7 19.4999 57.2 20.5999C56.8 21.5999 56.4 22.5999 56.1 23.4999C55.8 24.1999 55.7 24.8999 55.5 25.3999C55.5 25.1999 55.4 24.9999 55.4 24.7999C55.4 24.5999 55.3 24.3999 55.3 24.1999L55.1 23.1999L54.1 23.4999C53.4 23.6999 52.7 23.7999 52.1 23.8999C51.2 23.9999 49.9 23.9999 48.5 24.0999H46.5C46.5 23.2999 46.5 22.5999 46.5 21.8999V19.9999C46.7 19.9999 46.8 19.9999 47 19.9999L50.1 20.1999C51.6 20.2999 52.6 20.1999 53.3 19.5999C53.7 19.1999 53.9 18.5999 53.9 17.6999C53.9 17.4999 53.9 17.2999 53.9 17.0999L53.7 15.0999L52.7 15.2999C52.5 15.2999 52.3 15.3999 52.1 15.3999C51.9 15.3999 51.7 15.3999 51.5 15.4999H50.7C49.6 15.4999 48.7 15.4999 47.9 15.4999C47.4 15.4999 47 15.4999 46.6 15.3999V14.2999C46.6 13.5999 46.6 12.9999 46.6 12.4999C46.6 12.2999 46.6 11.9999 46.6 11.7999C47.3 11.7999 47.9 11.7999 48.6 11.8999C49.6 11.9999 50.6 11.9999 51.5 11.9999C52.6 11.9999 53.3 11.8999 53.8 11.6999C54.2 11.4999 54.9 10.9999 54.9 9.7999C54.9 9.6999 54.9 9.3999 54.9 9.0999C54.9 8.6999 54.8 8.2999 54.7 7.7999L54.5 6.8999L53.6 6.9999C53.1 7.0999 52.6 7.0999 52.1 7.1999C51.6 7.1999 51 7.1999 50.3 7.1999H48.9C48.4 7.1999 47.8 7.1999 47.3 7.1999C46.8 7.1999 46.3 7.1999 45.8 7.1999C44.6 7.1999 43.8 7.1999 43.1 7.1999C42.6 7.1999 42.2 7.2999 41.8 7.3999L40.8 7.5999L41.1 8.5999C41.2 8.7999 41.2 9.0999 41.3 9.2999V9.3999C41.4 9.5999 41.4 9.7999 41.5 9.9999C41.5 10.1999 41.6 10.4999 41.6 10.6999C41.6 10.9999 41.7 11.2999 41.7 11.6999C41.7 12.3999 41.8 13.1999 41.8 13.9999C41.8 14.7999 41.8 15.6999 41.8 16.5999C41.8 18.8999 41.8 20.8999 41.8 22.5999C41.8 24.2999 41.7 25.9999 41.6 27.5999L41.5 28.5999L42.5 28.6999C43.6 28.7999 44.9 28.8999 46.2 28.8999C47.5 28.9999 48.7 28.9999 49.9 28.9999C51 28.9999 51.9 28.9999 52.6 28.9999C53.4 28.9999 53.9 28.8999 54.4 28.7999C55 28.5999 55.5 28.2999 55.7 27.9999C55.8 27.8999 55.8 27.7999 55.8 27.7999C55.8 27.9999 55.9 28.1999 56 28.2999C56.3 28.7999 56.9 29.0999 57.7 29.0999C58.1 29.0999 58.5 29.0999 58.8 29.0999C59.1 29.0999 59.4 28.9999 59.6 28.9999C59.9 28.9999 60.1 28.8999 60.3 28.8999L61.1 28.7999V27.9999C61.1 27.2999 61.2 26.4999 61.3 25.7999C61.4 25.1999 61.6 24.5999 61.8 23.8999C62 23.8999 62.2 23.8999 62.4 23.8999C63 23.8999 63.6 23.8999 64.3 23.8999H65.7C66.2 23.8999 66.6 23.8999 67 23.7999C67.4 23.7999 67.7 23.7999 68 23.6999C68.1 23.8999 68.1 24.0999 68.2 24.2999L68.6 25.5999C68.8 26.2999 69 26.7999 69.3 27.1999C69.6 27.6999 69.9 28.0999 70.2 28.3999C70.6 28.6999 71 28.8999 71.4 28.8999C72.2 29.0999 73.3 29.0999 74 28.7999C74.4 28.9999 74.8 29.0999 75.5 29.0999C76.4 29.0999 77.3 28.8999 78.1 28.4999C78.9 28.0999 79.7 27.3999 80.3 26.3999C80.9 25.4999 81.4 24.2999 81.8 22.8999C82.2 21.4999 82.6 19.7999 82.9 17.7999C83.1 16.5999 83.2 15.3999 83.3 14.2999C83.4 13.4999 83.4 12.6999 83.4 11.8999C83.5 11.8999 83.6 11.8999 83.8 11.8999C84.8 11.8999 85.7 11.8999 86.6 11.8999C86.7 11.8999 86.8 11.8999 86.8 11.8999C86.7 13.2999 86.7 14.5999 86.7 15.8999C86.7 17.4999 86.7 19.1999 86.7 20.7999V23.9999C86.7 24.9999 86.7 25.9999 86.8 26.7999C86.8 27.3999 87 27.7999 87.3 28.0999L87.4 28.1999C87.7 28.4999 88.2 28.5999 89 28.5999C89.4 28.5999 89.9 28.5999 90.4 28.4999C90.9 28.3999 91.4 28.2999 91.8 28.1999L92.7 27.8999L91.9 26.9999C91.8 26.8999 91.8 26.4999 91.7 25.5999ZM64.3 15.6999C64.6 14.9999 64.9 14.2999 65.2 13.6999C65.4 14.2999 65.5 14.8999 65.7 15.3999C66 16.4999 66.3 17.5999 66.6 18.7999C66.5 18.7999 66.5 18.7999 66.4 18.7999C65.8 18.7999 65.2 18.7999 64.7 18.7999H63C63.1 18.4999 63.2 18.1999 63.4 17.8999C63.6 17.2999 64 16.4999 64.3 15.6999Z" fill="#E2211C"/>
<path d="M108.4 15.9998C107.7 15.3998 106.9 14.9998 106 14.6998C104.4 14.1998 102.4 14.1998 100.8 14.4998C100.6 14.4998 100.3 14.5998 100.1 14.5998C100.1 13.6998 100.1 12.7998 100.1 12.0998C100.1 10.9998 100.1 9.9998 100 9.1998C100 8.8998 100 8.6998 99.9 8.4998C99.9 8.0998 99.8 7.8998 99.6 7.5998C99.4 7.2998 99.2 7.0998 98.9 6.9998C98.4 6.6998 97.5 6.7998 96.5 6.8998C96 6.9998 95.5 7.0998 94.9 7.2998L93.9 7.5998L94.2 8.5998C94.3 8.7998 94.3 9.0998 94.4 9.2998V9.3998C94.5 9.4998 94.5 9.6998 94.5 9.9998C94.5 10.1998 94.6 10.3998 94.6 10.7998C94.7 11.0998 94.7 11.3998 94.7 11.6998C94.8 12.0998 94.8 12.4998 94.8 12.9998C94.8 13.4998 94.9 13.9998 94.9 14.4998C94.9 14.9998 94.9 15.5998 94.9 16.0998C94.9 16.5998 94.9 17.0998 94.9 17.5998C94.9 18.9998 94.9 20.5998 94.8 22.1998C94.7 23.7998 94.6 25.2998 94.5 26.7998V27.5998L95.2 27.8998C95.7 28.0998 96.3 28.1998 96.9 28.3998C97.4 28.4998 98.1 28.5998 98.8 28.6998C99.5 28.7998 100.4 28.7998 101.3 28.7998C102.6 28.7998 103.8 28.6998 104.8 28.3998C105.9 28.0998 106.9 27.6998 107.7 27.0998C108.5 26.4998 109.2 25.5998 109.7 24.6998C110.2 23.6998 110.4 22.5998 110.4 21.2998C110.4 20.1998 110.2 19.1998 109.8 18.3998C109.6 17.2998 109 16.5998 108.4 15.9998ZM105.2 21.3998C105.2 21.8998 105.1 22.2998 105 22.5998C104.8 22.8998 104.6 23.0998 104.3 23.3998C104 23.5998 103.7 23.7998 103.2 23.8998C102.4 24.0998 101.3 24.0998 100.5 23.9998C100.2 23.9998 100 23.8998 99.8 23.8998C99.8 23.4998 99.9 23.0998 99.9 22.6998C99.9 22.0998 100 21.3998 100 20.6998V19.2998C100.2 19.2998 100.4 19.1998 100.6 19.1998C101.1 19.0998 101.7 19.0998 102.4 19.0998C103.4 19.0998 104.1 19.2998 104.5 19.6998C105 19.9998 105.2 20.5998 105.2 21.3998Z" fill="#E2211C"/>
<path d="M129.2 25.6001L129.1 22.9001C129.1 21.9001 129.1 20.9001 129.1 19.8001V16.9001C129.1 16.3001 129.1 15.6001 129.1 14.9001L129.2 12.6001C129.2 11.8001 129.3 11.1001 129.3 10.4001C129.3 9.70006 129.4 9.20006 129.4 8.70006C129.4 7.80006 129 7.40006 128.7 7.20006C128.1 6.80006 127.2 6.80006 126.1 7.00006C125.6 7.00006 125.1 7.10006 124.6 7.20006L123.8 7.40006L123.9 8.20006C123.9 8.80006 124 9.30006 124 9.80006C124 10.2001 124.1 10.6001 124.1 11.1001C124.1 11.5001 124.2 11.8001 124.2 12.1001V15.1001C123.7 15.1001 123.3 15.0001 122.9 15.0001C121.5 14.9001 120 14.9001 118.6 15.0001C118.3 15.0001 118 15.0001 117.6 15.0001C117.6 14.8001 117.6 14.6001 117.6 14.3001C117.6 13.5001 117.7 12.8001 117.7 12.0001C117.7 11.2001 117.8 10.5001 117.8 9.80006C117.8 9.10006 117.8 8.60006 117.8 8.20006C117.8 7.50006 117.3 6.90006 116.6 6.80006C115.7 6.70006 115 6.70006 114.1 6.90006C113.6 7.00006 113.1 7.10006 112.6 7.20006L111.6 7.40006L111.9 8.40006C112 8.70006 112.1 9.00006 112.1 9.40006C112.2 9.70006 112.2 10.0001 112.3 10.4001C112.4 10.8001 112.4 11.3001 112.4 11.9001C112.4 12.4001 112.5 13.1001 112.5 13.8001C112.5 14.4001 112.5 15.0001 112.5 15.7001C112.5 16.4001 112.5 17.1001 112.5 17.8001L112.4 20.0001C112.4 20.7001 112.4 21.4001 112.4 22.0001C112.4 22.2001 112.4 22.5001 112.4 22.8001L112.3 24.9001C112.3 25.3001 112.3 25.6001 112.3 25.8001C112.3 26.6001 112.4 27.2001 112.8 27.7001C113.2 28.2001 113.8 28.4001 114.6 28.4001C114.9 28.4001 115.3 28.4001 115.7 28.3001C116.2 28.3001 116.6 28.2001 117 28.1001L117.9 27.9001L117.6 26.3001C117.6 26.1001 117.5 25.9001 117.5 25.7001C117.5 25.5001 117.5 25.2001 117.5 25.0001V23.7001L117.6 20.1001C117.6 19.9001 117.6 19.7001 117.6 19.5001C117.8 19.5001 117.9 19.5001 118.1 19.5001C118.6 19.5001 119.2 19.5001 119.8 19.5001C121.5 19.5001 123 19.5001 124.3 19.6001C124.3 20.0001 124.3 20.4001 124.3 20.9001C124.3 21.4001 124.3 21.9001 124.3 22.5001C124.3 23.0001 124.3 23.6001 124.3 24.1001V26.5001C124.3 27.0001 124.5 27.4001 124.7 27.8001C125.2 28.5001 126.2 28.5001 126.5 28.5001C126.9 28.5001 127.4 28.5001 127.8 28.4001C128.3 28.3001 128.7 28.2001 129.1 28.1001L129.9 27.8001L129.8 27.0001C129.3 26.8001 129.2 26.3001 129.2 25.6001Z" fill="#E2211C"/>
<path d="M145.9 15.9998C145.2 15.3998 144.4 14.9998 143.5 14.6998C141.9 14.1998 139.9 14.1998 138.3 14.4998C138.1 14.4998 137.8 14.5998 137.6 14.5998C137.6 13.6998 137.6 12.7998 137.6 12.0998C137.6 10.9998 137.6 10.0998 137.5 9.2998C137.5 8.5998 137.4 8.0998 137.2 7.6998C137 7.2998 136.5 6.7998 135.5 6.7998C135.1 6.7998 134.6 6.7998 134.1 6.8998C133.6 6.9998 133 7.0998 132.4 7.2998L131.4 7.5998L131.9 9.2998V9.3998C131.9 9.4998 132 9.6998 132 9.8998C132 10.0998 132.1 10.2998 132.1 10.5998C132.2 10.8998 132.2 11.1998 132.2 11.5998C132.2 11.9998 132.3 12.4998 132.3 12.9998C132.3 13.4998 132.4 13.9998 132.4 14.5998C132.4 15.0998 132.5 15.5998 132.5 16.1998C132.5 16.6998 132.5 17.1998 132.5 17.6998C132.5 19.1998 132.5 20.6998 132.4 22.2998C132.3 23.8998 132.2 25.3998 132.1 26.8998V27.5998L132.8 27.8998C133.3 28.0998 133.9 28.1998 134.5 28.3998C135 28.4998 135.7 28.5998 136.4 28.6998C137.1 28.7998 138 28.7998 138.9 28.7998C140.2 28.7998 141.4 28.6998 142.4 28.3998C143.5 28.0998 144.5 27.6998 145.3 27.0998C146.1 26.4998 146.8 25.5998 147.3 24.6998C147.8 23.6998 148 22.5998 148 21.2998C148 20.1998 147.8 19.1998 147.4 18.3998C147.1 17.2998 146.6 16.5998 145.9 15.9998ZM142.7 21.3998C142.7 21.8998 142.6 22.2998 142.5 22.5998C142.3 22.8998 142.1 23.0998 141.8 23.3998C141.5 23.5998 141.2 23.7998 140.7 23.8998C139.9 24.0998 138.8 24.0998 138 23.9998C137.7 23.9998 137.5 23.8998 137.3 23.8998C137.3 23.4998 137.4 23.0998 137.4 22.6998C137.4 22.0998 137.5 21.3998 137.5 20.6998V19.2998C137.7 19.2998 137.9 19.1998 138.1 19.1998C138.6 19.0998 139.2 18.9998 139.9 18.9998C140.9 18.9998 141.6 19.1998 142 19.5998C142.5 19.9998 142.7 20.5998 142.7 21.3998Z" fill="#E2211C"/>
<path d="M154.1 25.6998C154.1 24.9998 154.1 24.1998 154 23.2998C154 22.3998 154 21.3998 154 20.3998V17.0998C154 15.1998 154 13.5998 154.1 12.0998C154.2 10.5998 154.2 9.4998 154.2 8.6998C154.2 7.7998 153.8 7.3998 153.4 7.0998C152.9 6.7998 152.3 6.7998 151.5 6.7998C151.2 6.7998 150.9 6.7998 150.7 6.8998C150.4 6.8998 150.1 6.9998 149.8 6.9998C149.5 6.9998 149.3 7.0998 149.1 7.0998L148.2 7.2998L148.3 8.1998C148.3 8.4998 148.4 8.7998 148.4 8.9998C148.4 9.1998 148.5 9.4998 148.5 9.7998C148.5 10.0998 148.6 10.2998 148.6 10.4998C148.6 11.2998 148.7 12.1998 148.7 13.2998C148.7 14.3998 148.7 15.6998 148.7 16.9998C148.7 18.1998 148.7 19.1998 148.7 20.2998L148.6 23.0998C148.6 23.8998 148.6 24.5998 148.6 25.2998C148.6 25.8998 148.6 26.3998 148.6 26.7998C148.6 27.2998 148.8 27.6998 149 28.0998C149.5 28.7998 150.5 28.7998 150.8 28.7998C151.2 28.7998 151.7 28.7998 152.1 28.6998C152.6 28.5998 153 28.4998 153.4 28.3998L154.1 28.0998L154 27.2998C154.1 26.8998 154.1 26.3998 154.1 25.6998Z" fill="#E2211C"/>
<path d="M161.8 5.9C162.2 6.3 162.7 6.6 163.3 6.9C163.9 7.2 164.7 7.3 165.5 7.3C166.3 7.3 167 7.2 167.7 6.9C168.3 6.6 168.9 6.3 169.3 5.9C169.8 5.5 170.1 5 170.4 4.5C170.7 4 170.8 3.4 170.8 2.9C170.8 2.6 170.8 2.4 170.7 2.2C170.6 2 170.6 1.9 170.5 1.7L169.2 0L168.5 1.2C168.2 1.8 167.7 2.2 167.3 2.6C166.9 2.9 166.4 3 166 3C165.4 3 164.8 2.8 164.5 1.4L164.2 0L162.9 0.8C162.5 1 162.2 1.3 161.9 1.5C161.6 1.7 161.3 2 161.1 2.2C160.7 2.6 160.6 3 160.6 3.5C160.6 3.8 160.7 4.2 160.9 4.7C161.1 5.1 161.4 5.5 161.8 5.9Z" fill="#E2211C"/>
<path d="M174.6 26.2999L174.5 25.3999C174.5 25.0999 174.5 24.8999 174.5 24.5999C174.5 23.4999 174.4 22.1999 174.4 20.8999V16.8999C174.4 16.2999 174.4 15.5999 174.4 14.8999L174.5 12.6999C174.5 11.8999 174.6 11.1999 174.6 10.5999C174.6 9.8999 174.6 9.3999 174.6 8.8999C174.6 8.1999 174.4 7.6999 174.1 7.3999C173.6 6.8999 172.7 6.7999 171.4 6.9999C170.9 6.9999 170.4 7.0999 170 7.1999L169.6 7.2999L169.4 7.5999C168.8 8.4999 168.1 9.4999 167.4 10.5999C166.6 11.7999 165.8 12.9999 165 14.2999C164.2 15.5999 163.4 16.8999 162.5 18.1999C162.4 18.3999 162.3 18.4999 162.2 18.6999C162.2 18.1999 162.2 17.6999 162.3 17.0999L162.4 14.5999C162.4 13.6999 162.4 12.8999 162.4 12.1999C162.4 11.3999 162.4 10.6999 162.4 10.0999C162.4 9.4999 162.4 8.8999 162.4 8.4999C162.4 8.1999 162.3 6.8999 160.4 6.8999C159.9 6.8999 159.4 6.8999 159 6.9999C158.5 6.9999 158 7.0999 157.5 7.2999L156.6 7.4999L156.8 8.3999C156.9 8.6999 156.9 8.8999 157 9.1999C157 9.3999 157.1 9.5999 157.1 9.7999C157.1 9.9999 157.2 10.2999 157.2 10.4999C157.2 10.7999 157.2 11.0999 157.2 11.4999C157.2 12.2999 157.2 13.0999 157.2 13.9999V16.7999C157.2 17.6999 157.2 18.6999 157.2 19.5999C157.2 20.5999 157.2 21.4999 157.2 22.2999C157.2 23.0999 157.2 23.7999 157.2 24.4999V26.6999V26.7999C157.2 27.0999 157.3 27.3999 157.5 27.7999C157.7 28.0999 158 28.2999 158.3 28.3999C158.8 28.5999 159.5 28.5999 160.4 28.4999C160.8 28.4999 161.2 28.3999 161.6 28.2999L162.1 28.1999L162.3 27.7999C162.5 27.4999 162.7 26.9999 163 26.3999C163.4 25.6999 163.8 24.9999 164.3 24.1999C164.8 23.3999 165.3 22.4999 165.9 21.4999C166.5 20.4999 167.1 19.4999 167.7 18.4999C168.3 17.4999 168.9 16.5999 169.5 15.5999C169.5 15.7999 169.5 15.9999 169.5 16.2999C169.5 16.9999 169.5 17.5999 169.5 18.2999L169.4 22.0999C169.4 22.6999 169.4 23.2999 169.4 23.8999C169.4 24.3999 169.4 24.8999 169.4 25.3999V26.3999C169.4 27.0999 169.6 27.6999 170.1 28.0999C170.5 28.3999 171 28.4999 171.7 28.4999C172 28.4999 172.3 28.4999 172.7 28.3999C173.2 28.3999 173.7 28.1999 174.2 28.0999L174.9 27.7999L174.8 26.9999C174.6 26.8999 174.6 26.5999 174.6 26.2999Z" fill="#E2211C"/>
<path d="M197.6 8.4002C196.9 7.8002 196 7.4002 194.9 7.1002C193.9 6.8002 192.8 6.7002 191.7 6.7002C190.8 6.7002 189.7 6.8002 188.4 6.9002C187.2 7.0002 185.9 7.2002 184.6 7.5002L183.5 7.7002L183.9 8.8002C184.1 9.3002 184.2 10.0002 184.3 10.7002C184.4 11.5002 184.5 12.3002 184.5 13.3002C184.5 14.0002 184.6 14.6002 184.6 15.2002V17.0002C184.6 19.1002 184.6 21.0002 184.5 22.5002C184.4 24.0002 184.4 25.4002 184.4 26.6002C184.4 27.5002 184.8 27.9002 185.1 28.2002C185.5 28.5002 186 28.6002 186.6 28.6002C186.9 28.6002 187.2 28.6002 187.5 28.5002C187.8 28.5002 188.1 28.4002 188.3 28.4002L190.1 28.0002L189.9 27.0002C189.8 26.6002 189.8 26.2002 189.7 25.8002C189.6 25.5002 189.6 25.1002 189.6 24.8002C189.6 24.4002 189.5 24.1002 189.5 23.8002V23.1002C189.5 22.7002 189.5 22.4002 189.5 22.1002C189.5 21.8002 189.5 21.5002 189.5 21.3002C189.6 21.3002 189.8 21.3002 189.9 21.3002H190.7C191.9 21.3002 193 21.2002 194 20.9002C195.1 20.6002 196.1 20.2002 196.9 19.6002C197.8 19.0002 198.4 18.2002 198.9 17.2002C199.4 16.2002 199.7 15.1002 199.7 13.7002C199.7 12.5002 199.5 11.4002 199.1 10.5002C199 9.8002 198.4 9.0002 197.6 8.4002ZM194.6 14.0002C194.6 14.9002 194.3 15.6002 193.8 16.0002C193.3 16.5002 192.4 16.7002 191.1 16.7002C190.8 16.7002 190.5 16.7002 190.3 16.7002C190.1 16.7002 189.9 16.7002 189.8 16.6002C189.8 15.9002 189.8 15.2002 189.8 14.6002C189.8 13.7002 189.8 13.0002 189.7 12.4002C189.7 12.0002 189.7 11.7002 189.6 11.4002C189.7 11.4002 189.9 11.4002 190 11.4002C190.9 11.3002 192 11.3002 192.8 11.5002C193.2 11.6002 193.5 11.7002 193.8 12.0002C194 12.2002 194.2 12.4002 194.4 12.7002C194.6 13.1002 194.6 13.5002 194.6 14.0002Z" fill="#E2211C"/>
<path d="M229.5 17.0999C229.8 16.7999 230.1 16.4999 230.3 16.0999C230.9 15.1999 231.2 14.0999 231.2 12.8999C231.2 11.7999 231 10.7999 230.6 10.0999C230.2 9.29988 229.7 8.59988 229 8.09988C228.3 7.59988 227.5 7.29988 226.6 6.99988C224.7 6.59988 222.4 6.59988 220.5 6.89988C219.6 6.99988 218.7 7.09988 218 7.09988H217.4L217.1 7.69988C217 7.89988 217 8.09988 217 8.29988V8.69988C217 8.99988 217 9.29988 217 9.69988C217 9.99988 217.1 10.2999 217.2 10.6999C217.3 10.9999 217.5 11.2999 217.8 11.5999C218 11.7999 218.5 12.0999 219.1 12.0999C219.4 12.0999 219.8 12.0999 220.2 11.9999C220.5 11.8999 220.8 11.8999 221.1 11.7999C221.4 11.6999 221.8 11.6999 222.2 11.5999C222.6 11.4999 223 11.4999 223.5 11.4999C225.8 11.4999 225.8 12.4999 225.8 13.0999C225.8 13.5999 225.7 13.8999 225.6 14.1999C225.4 14.4999 225.2 14.6999 224.9 14.7999C224.6 14.9999 224.2 15.0999 223.7 15.0999C222.6 15.2999 221.3 15.1999 220.5 15.0999C220.3 15.0999 220 15.0999 219.8 14.9999L218.8 14.8999L218.5 16.6999C218.5 17.0999 218.4 17.3999 218.4 17.6999C218.4 18.1999 218.5 18.6999 218.7 19.0999C219 19.5999 219.6 19.8999 220.2 19.8999C220.7 19.8999 221.1 19.8999 221.6 19.7999C222 19.7999 222.4 19.6999 222.9 19.6999C223.5 19.6999 224.1 19.6999 224.6 19.7999C225 19.8999 225.4 19.9999 225.6 20.1999C225.8 20.2999 226 20.4999 226.1 20.6999C226.2 20.8999 226.3 21.2999 226.3 21.6999C226.3 22.6999 225.9 22.9999 225.7 23.2999C225.2 23.6999 224.5 23.8999 223.6 23.8999C222.9 23.8999 222.3 23.8999 221.9 23.7999C221.4 23.6999 221 23.5999 220.6 23.4999C220.2 23.3999 219.9 23.1999 219.5 23.0999C219.1 22.8999 218.8 22.6999 218.4 22.3999L217.4 21.6999L217 22.9999C216.8 23.2999 216.7 23.6999 216.6 23.9999C216.5 24.2999 216.4 24.5999 216.3 24.8999C216.3 24.8999 216.3 24.8999 216.3 24.9999C216.3 24.8999 216.3 24.6999 216.2 24.5999C216.2 24.3999 216.1 24.1999 216.1 23.9999L215.9 22.9999L214.9 23.2999C214.2 23.4999 213.5 23.5999 212.9 23.6999C212 23.7999 210.7 23.7999 209.3 23.8999H207.3C207.3 23.0999 207.3 22.3999 207.3 21.6999V19.7999C207.5 19.7999 207.6 19.7999 207.8 19.7999L210.9 19.9999C212.4 20.0999 213.4 19.9999 214.1 19.3999C214.5 18.9999 214.7 18.3999 214.7 17.4999C214.7 17.2999 214.7 17.0999 214.7 16.8999L214.4 14.8999L213.4 15.0999C213.2 15.0999 213 15.1999 212.8 15.1999C212.6 15.1999 212.4 15.1999 212.2 15.2999H211.4C210.3 15.2999 209.4 15.2999 208.6 15.2999C208.1 15.2999 207.7 15.2999 207.3 15.1999V14.0999C207.3 13.3999 207.3 12.7999 207.3 12.2999C207.3 12.0999 207.3 11.7999 207.3 11.5999C208 11.5999 208.6 11.5999 209.3 11.6999C210.3 11.7999 211.3 11.7999 212.2 11.7999C213.3 11.7999 214 11.6999 214.5 11.4999C214.9 11.2999 215.6 10.7999 215.6 9.59988C215.6 9.49988 215.6 9.19988 215.6 8.89988C215.6 8.49988 215.5 8.09988 215.4 7.59988L215.2 6.69988L214.3 6.79988C213.8 6.89988 213.3 6.89988 212.8 6.99988C212.3 6.99988 211.7 6.99988 211 6.99988H209.6C209.1 6.99988 208.6 6.99988 208 6.99988C207.5 6.99988 207 6.99988 206.5 6.99988C205.3 6.99988 204.5 6.99988 203.8 6.99988C203.3 6.99988 202.9 7.09988 202.5 7.19988L201.5 7.39988L201.8 8.39988C201.9 8.59988 201.9 8.89988 202 9.09988V9.19988C202.1 9.39988 202.1 9.59988 202.2 9.79988C202.2 9.99988 202.3 10.2999 202.3 10.4999C202.3 10.7999 202.4 11.0999 202.4 11.4999C202.4 12.1999 202.5 12.9999 202.5 13.7999C202.5 14.5999 202.5 15.4999 202.5 16.3999C202.5 18.6999 202.5 20.6999 202.5 22.3999C202.5 24.0999 202.4 25.7999 202.3 27.3999L202.2 28.3999L203.2 28.4999C204.3 28.5999 205.6 28.6999 206.9 28.6999C208.2 28.7999 209.4 28.7999 210.6 28.7999C211.7 28.7999 212.6 28.7999 213.3 28.7999C214.1 28.7999 214.6 28.6999 215.1 28.5999C215.7 28.3999 216.2 28.0999 216.4 27.7999C216.6 27.5999 216.7 27.1999 216.7 26.8999C216.8 27.1999 217 27.4999 217.4 27.6999C217.8 27.9999 218.4 28.2999 219.1 28.4999C219.7 28.6999 220.5 28.7999 221.3 28.8999C222.1 28.9999 223.1 28.9999 224 28.9999C225 28.9999 226 28.8999 227 28.5999C228 28.2999 228.8 27.8999 229.6 27.2999C230.4 26.6999 231 25.9999 231.5 25.0999C232 24.1999 232.2 23.1999 232.2 21.9999C232.2 20.4999 231.8 19.2999 231.1 18.2999C230.4 17.7999 229.9 17.3999 229.5 17.0999Z" fill="#E2211C"/>
<path d="M248.4 13.8999C248.6 13.1999 248.9 12.4999 249 11.8999C249.2 11.1999 249.3 10.6999 249.4 10.1999C249.5 9.5999 249.6 9.1999 249.6 8.8999C249.6 7.6999 248.9 7.2999 248.6 7.1999C248.2 6.9999 247.7 6.8999 247 6.8999C246.7 6.8999 246.4 6.8999 246.2 6.9999C245.9 6.9999 245.7 7.0999 245.6 7.0999C245.4 7.0999 245.2 7.1999 245 7.1999L244.3 7.3999V8.0999C244.3 8.7999 244.1 9.6999 244 10.6999C243.8 11.6999 243.6 12.7999 243.3 13.8999C243 14.9999 242.7 15.9999 242.3 17.0999C242.2 17.2999 242.2 17.4999 242.1 17.5999C242 17.2999 241.8 16.9999 241.7 16.6999C241.2 15.5999 240.7 14.5999 240.2 13.6999C239.7 12.6999 239.2 11.7999 238.7 10.8999C238.2 9.9999 237.8 9.2999 237.4 8.5999C237.1 8.0999 236.8 7.6999 236.6 7.4999C236 6.8999 234.9 6.6999 233.7 7.2999C233.4 7.4999 233.1 7.5999 232.8 7.7999C232.5 7.9999 232.2 8.2999 231.8 8.4999L231.1 8.9999L231.6 9.6999C233 11.6999 234.4 13.7999 235.7 16.0999C236.9 18.1999 238 20.4999 239.1 22.8999C238.5 23.4999 237.9 23.5999 237.5 23.5999C237.3 23.5999 237.1 23.5999 236.9 23.4999C236.8 23.4999 236.6 23.3999 236.3 23.1999L235.4 22.6999L234.9 23.5999C234.7 23.9999 234.5 24.4999 234.3 24.8999C234.1 25.3999 234 25.7999 234 26.2999C234 27.6999 234.8 28.1999 235.3 28.3999C235.9 28.6999 236.6 28.7999 237.4 28.7999C238.4 28.7999 239.3 28.5999 240.1 28.0999C240.9 27.6999 241.6 26.9999 242.3 26.2999C243 25.4999 243.6 24.5999 244.2 23.4999C244.8 22.4999 245.4 21.1999 246 19.8999C246.2 19.3999 246.5 18.6999 246.8 17.9999C247.1 17.2999 247.4 16.5999 247.6 15.8999C248 15.2999 248.2 14.5999 248.4 13.8999Z" fill="#E2211C"/>
<path d="M266 25.5998C265.9 24.8998 265.9 24.1998 265.8 23.2998C265.8 22.3998 265.7 21.5998 265.7 20.6998C265.7 19.7998 265.7 19.0998 265.7 18.4998C265.7 16.2998 265.7 14.2998 265.8 12.6998C265.9 10.9998 266 9.7998 266 8.9998C266 8.6998 266 8.3998 265.9 8.1998C265.8 7.8998 265.6 7.4998 265.2 7.2998C264.9 7.0998 264.6 6.9998 264.2 6.8998C263.9 6.7998 263.4 6.7998 262.9 6.7998C262.5 6.7998 262 6.7998 261.4 6.7998C260.2 6.7998 258.6 6.7998 256.6 6.7998C255.6 6.7998 254.4 6.8998 253.1 6.8998L252 7.0998L252.3 8.2998C252.4 8.6998 252.4 9.0998 252.5 9.3998C252.5 9.7998 252.6 10.1998 252.6 10.6998C252.6 11.6998 252.6 12.6998 252.5 13.8998C252.4 14.9998 252.3 16.0998 252.1 17.1998C251.8 18.6998 251.6 19.9998 251.3 20.8998C251 21.7998 250.7 22.3998 250.4 22.8998C250.1 23.3998 249.8 23.4998 249.7 23.5998C249.4 23.6998 249.2 23.7998 248.9 23.6998L247.8 23.2998L247.5 24.2998C247.4 24.4998 247.4 24.7998 247.4 24.9998C247.4 25.1998 247.3 25.4998 247.3 25.7998C247.3 26.0998 247.3 26.2998 247.3 26.4998C247.3 27.2998 247.5 27.8998 247.9 28.2998C248.3 28.5998 248.8 28.7998 249.6 28.7998C250.5 28.7998 251.4 28.5998 252.2 28.1998C253 27.7998 253.8 27.0998 254.4 26.0998C255 25.1998 255.5 23.9998 255.9 22.5998C256.3 21.1998 256.7 19.4998 257 17.4998C257.2 16.2998 257.3 15.0998 257.4 13.9998C257.5 13.1998 257.5 12.3998 257.5 11.5998C257.6 11.5998 257.7 11.5998 257.9 11.5998C258.9 11.5998 259.8 11.5998 260.7 11.5998C260.8 11.5998 260.9 11.5998 260.9 11.5998C260.8 12.9998 260.8 14.2998 260.8 15.5998C260.8 17.1998 260.8 18.8998 260.8 20.4998V23.9998C260.8 24.9998 260.8 25.9998 260.9 26.7998C260.9 27.3998 261.1 27.7998 261.4 28.0998L261.5 28.1998C261.9 28.4998 262.3 28.5998 263.1 28.5998C263.5 28.5998 264 28.5998 264.5 28.4998C265 28.3998 265.5 28.2998 265.9 28.1998L266.8 27.8998L266.5 26.9998C266.2 26.8998 266.1 26.4998 266 25.5998Z" fill="#E2211C"/>
<path d="M282.7 15.9998C282 15.3998 281.2 14.9998 280.3 14.6998C278.7 14.1998 276.7 14.1998 275.1 14.4998C274.9 14.4998 274.6 14.5998 274.4 14.5998C274.4 13.6998 274.4 12.7998 274.4 12.0998C274.4 10.9998 274.4 9.9998 274.3 9.1998C274.3 8.8998 274.3 8.6998 274.2 8.4998C274.2 8.0998 274.1 7.8998 273.9 7.5998C273.7 7.2998 273.5 7.0998 273.2 6.9998C272.7 6.6998 271.8 6.7998 270.8 6.8998C270.3 6.9998 269.7 7.0998 269.1 7.2998L268.1 7.5998L268.4 8.5998C268.5 8.7998 268.5 9.0998 268.6 9.2998V9.3998C268.7 9.4998 268.7 9.6998 268.7 9.9998C268.7 10.1998 268.8 10.3998 268.8 10.7998C268.8 11.0998 268.9 11.3998 268.9 11.6998C269 12.0998 269 12.4998 269 12.9998C269 13.4998 269.1 13.9998 269.1 14.4998C269.1 14.9998 269.1 15.5998 269.1 16.0998C269.1 16.5998 269.1 17.0998 269.1 17.5998C269.1 19.0998 269.1 20.5998 269 22.1998C268.9 23.7998 268.8 25.2998 268.7 26.7998V27.4998L269.4 27.7998C269.9 27.9998 270.5 28.0998 271.1 28.2998C271.6 28.3998 272.3 28.4998 273 28.5998C273.7 28.6998 274.6 28.6998 275.5 28.6998C276.8 28.6998 278 28.5998 279 28.2998C280.1 27.9998 281.1 27.5998 281.9 26.9998C282.7 26.3998 283.4 25.4998 283.9 24.5998C284.4 23.5998 284.6 22.4998 284.6 21.1998C284.6 20.0998 284.4 19.0998 284 18.2998C284 17.2998 283.4 16.5998 282.7 15.9998ZM279.6 21.3998C279.6 21.8998 279.5 22.2998 279.4 22.5998C279.2 22.8998 279 23.0998 278.7 23.3998C278.4 23.5998 278.1 23.7998 277.6 23.8998C276.8 24.0998 275.7 24.0998 274.9 23.9998C274.6 23.9998 274.4 23.8998 274.2 23.8998C274.2 23.4998 274.3 23.0998 274.3 22.6998C274.3 22.0998 274.4 21.3998 274.4 20.6998V19.2998C274.6 19.2998 274.8 19.1998 275 19.1998C275.5 19.0998 276.1 19.0998 276.8 19.0998C277.8 19.0998 278.5 19.2998 278.9 19.6998C279.4 19.9998 279.6 20.5998 279.6 21.3998Z" fill="#E2211C"/>
<path d="M293 15.3001C293 14.2001 293 13.0001 293 11.9001H294.7C295.1 11.9001 295.5 11.9001 295.9 11.8001C296.3 11.8001 296.6 11.8001 296.9 11.7001C297.2 11.7001 298.2 11.6001 298.6 10.8001C298.8 10.4001 298.9 9.9001 298.9 9.3001C298.9 9.1001 298.9 8.8001 298.9 8.6001C298.9 8.4001 298.9 8.2001 298.8 8.0001L298.6 6.1001L297.4 6.5001C296.8 6.7001 296 6.8001 295 6.8001C294 7.0001 292.6 7.0001 291 7.0001H289.3L287.5 6.9001C286.9 6.9001 286.3 6.9001 285.7 6.9001C285.1 6.9001 284.6 6.9001 284.1 6.9001C283.4 6.9001 282.8 7.1001 282.5 7.5001C282.2 7.9001 282 8.4001 282 9.0001L282.2 11.5001L283 11.6001C283.3 11.6001 283.7 11.7001 284.1 11.7001C284.5 11.7001 285 11.8001 285.6 11.8001L287.9 11.9001C287.9 12.7001 287.9 13.5001 287.8 14.4001L287.7 22.0001C287.7 23.2001 287.7 24.3001 287.7 25.2001C287.7 25.6001 287.7 26.0001 287.7 26.4001C287.7 26.8001 287.8 27.1001 287.9 27.4001V27.5001C288.1 27.9001 288.3 28.2001 288.6 28.4001L288.7 28.5001C289 28.7001 289.5 28.7001 290.1 28.7001C290.4 28.7001 290.7 28.7001 291.1 28.6001C291.6 28.6001 292 28.5001 292.4 28.4001L293.2 28.2001L292.9 26.6001C292.9 26.4001 292.8 26.2001 292.8 26.0001C292.8 25.8001 292.8 25.6001 292.8 25.3001C292.8 24.9001 292.8 24.5001 292.8 24.0001C292.8 23.4001 292.8 22.9001 292.8 22.3001V19.4001C293 18.2001 293 16.8001 293 15.3001Z" fill="#E2211C"/>
<path d="M315.8 23.5002L314.6 23.7002C314.5 23.7002 314.2 23.8002 313.9 23.4002C313.6 23.0002 313.4 22.4002 313.1 21.7002C312.7 20.5002 312.4 19.3002 312.1 18.1002C311.8 16.9002 311.5 15.7002 311.2 14.6002C310.9 13.5002 310.7 12.5002 310.4 11.6002C310.2 10.7002 309.9 9.9002 309.7 9.3002C309.5 8.9002 309.4 8.5002 309.3 8.3002C309.1 7.9002 308.9 7.6002 308.7 7.4002C308.4 7.2002 308.1 7.0002 307.7 6.9002C307.2 6.8002 306.3 6.8002 305.5 6.9002C305.1 6.9002 304.8 7.0002 304.4 7.1002L302.7 7.5002L302.5 8.1002C302.3 8.9002 302 9.8002 301.7 10.8002C301.3 11.8002 300.9 12.8002 300.5 13.9002C300.1 15.0002 299.6 16.1002 299.1 17.2002C298.6 18.3002 298.1 19.4002 297.7 20.5002C297.3 21.5002 296.9 22.5002 296.6 23.4002C296.3 24.3002 296 25.1002 295.9 25.8002C295.7 26.8002 295.7 27.5002 296 28.0002C296.3 28.5002 296.9 28.8002 297.7 28.8002C298.1 28.8002 298.5 28.8002 298.8 28.8002C299.1 28.8002 299.4 28.7002 299.6 28.7002C299.9 28.7002 300.1 28.6002 300.3 28.6002L301.1 28.5002V27.7002C301.1 27.0002 301.2 26.2002 301.3 25.5002C301.4 24.9002 301.6 24.3002 301.8 23.6002C302 23.6002 302.2 23.6002 302.4 23.6002C303 23.6002 303.6 23.6002 304.3 23.6002H305.7C306.2 23.6002 306.6 23.6002 307 23.5002C307.4 23.5002 307.7 23.5002 308 23.4002C308.1 23.6002 308.1 23.8002 308.2 24.0002L308.6 25.3002C308.8 26.0002 309 26.5002 309.3 26.9002C309.6 27.4002 309.9 27.8002 310.2 28.1002C310.6 28.4002 311 28.6002 311.4 28.6002C311.8 28.7002 312.2 28.7002 312.6 28.7002C313.6 28.7002 314.4 28.5002 314.9 27.9002C315.3 27.4002 315.6 26.8002 315.6 26.0002C315.6 25.8002 315.6 25.6002 315.6 25.4002L315.8 23.5002ZM304.9 15.7002C305.2 15.0002 305.5 14.3002 305.8 13.7002C306 14.3002 306.1 14.9002 306.3 15.4002C306.6 16.5002 306.9 17.6002 307.2 18.8002C307.1 18.8002 307.1 18.8002 307 18.8002C306.4 18.8002 305.8 18.8002 305.3 18.8002H303.6C303.7 18.5002 303.8 18.2002 304 17.9002C304.2 17.3002 304.5 16.5002 304.9 15.7002Z" fill="#E2211C"/>
<path d="M329.2 8.7002L329 6.2002L327.8 6.6002C327.2 6.8002 326.4 6.9002 325.4 6.9002C324.3 6.9002 322.9 7.0002 321.3 7.0002H319.6L317.8 6.9002C317.2 6.9002 316.6 6.9002 316 6.9002C315.4 6.9002 314.9 6.9002 314.4 6.9002C313.7 6.9002 313.1 7.1002 312.8 7.5002C312.5 7.9002 312.3 8.4002 312.3 9.0002V9.6002L312.4 10.1002C312.4 10.3002 312.4 10.5002 312.5 10.7002L312.6 11.5002L313.4 11.6002C313.7 11.6002 314.1 11.7002 314.5 11.7002C314.9 11.7002 315.4 11.8002 316 11.8002L318.3 11.9002C318.3 12.7002 318.3 13.5002 318.2 14.4002L318 22.0002C318 23.2002 318 24.3002 318 25.2002C318 25.6002 318 26.0002 318 26.4002C318 26.8002 318.1 27.1002 318.2 27.4002V27.5002C318.4 27.9002 318.6 28.2002 318.9 28.4002L319 28.5002C319.3 28.7002 319.8 28.7002 320.4 28.7002C320.7 28.7002 321 28.7002 321.4 28.6002C321.9 28.6002 322.3 28.5002 322.7 28.4002L323.6 28.1002L323.5 27.2002C323.5 27.0002 323.4 26.8002 323.4 26.5002C323.4 26.3002 323.3 26.1002 323.3 25.9002C323.3 25.7002 323.3 25.5002 323.3 25.2002C323.3 24.8002 323.3 24.4002 323.3 23.9002C323.3 23.3002 323.3 22.8002 323.3 22.2002V19.3002C323.3 18.0002 323.3 16.6002 323.3 15.2002C323.3 14.1002 323.3 12.9002 323.3 11.8002H325C325.4 11.8002 325.8 11.8002 326.2 11.7002C326.6 11.7002 326.9 11.7002 327.2 11.6002C327.5 11.6002 328.5 11.5002 328.9 10.7002C329.1 10.3002 329.2 9.8002 329.2 9.2002C329.2 9.2002 329.2 9.0002 329.2 8.7002Z" fill="#E2211C"/>
</svg>
