<svg width="565" height="59" viewBox="0 0 565 59" fill="none" xmlns="http://www.w3.org/2000/svg">
<path d="M31.6 45.4999L31.5 43.9999C31.5 43.4999 31.5 43.0999 31.5 42.6999C31.4 40.7999 31.4 38.6999 31.4 36.3999V29.4999C31.4 28.4999 31.4 27.2999 31.4 25.9999L31.5 22.1999C31.6 20.8999 31.6 19.6999 31.6 18.5999C31.6 17.3999 31.6 16.4999 31.6 15.6999C31.6 14.4999 31.3 13.5999 30.6 12.8999C29.6 11.9999 28 11.8999 25.7 12.1999C24.8 12.2999 24 12.3999 23.3 12.4999L22.5 12.6999L22 13.3999C21 14.8999 19.9 16.5999 18.5 18.5999C17.2 20.5999 15.8 22.6999 14.4 24.8999C13 26.9999 11.6 29.2999 10.2 31.4999C10.2 30.9999 10.2 30.3999 10.3 29.7999L10.4 25.4999C10.4 23.9999 10.4 22.5999 10.4 21.3999C10.4 20.0999 10.4 18.8999 10.4 17.8999C10.4 16.7999 10.4 15.8999 10.4 15.0999C10.4 13.6999 9.4 12.0999 6.7 12.0999C6 11.9999 5.2 11.9999 4.5 12.0999C3.7 12.1999 2.8 12.2999 1.8 12.5999L0 13.0999L0.3 14.8999C0.4 15.3999 0.5 15.7999 0.5 16.1999V16.3999C0.6 16.6999 0.6 17.0999 0.7 17.3999C0.8 17.7999 0.8 18.1999 0.8 18.5999C0.8 18.9999 0.8 19.5999 0.8 20.1999C0.8 21.4999 0.8 22.8999 0.8 24.5999V29.3999C0.8 30.9999 0.8 32.5999 0.8 34.2999C0.8 35.8999 0.8 37.4999 0.8 38.8999C0.8 40.2999 0.8 41.4999 0.8 42.6999V46.3999V46.5999C0.9 47.1999 1 47.6999 1.3 48.1999L1.4 48.3999C1.8 48.8999 2.3 49.2999 2.9 49.5999C3.8 49.9999 5 50.0999 6.7 49.8999C7.4 49.8999 8.1 49.7999 8.8 49.5999L9.7 49.3999L10.1 48.4999C10.4 47.8999 10.8 47.0999 11.4 45.9999C12 44.8999 12.8 43.5999 13.6 42.1999C14.4 40.7999 15.3 39.1999 16.4 37.4999C17.4 35.7999 18.5 34.0999 19.6 32.3999C20.4 30.9999 21.3 29.6999 22.1 28.2999V28.3999C22.1 29.5999 22.1 30.6999 22.1 31.8999V34.8999L22 38.3999C22 39.4999 22 40.4999 22 41.5999C22 42.4999 22 43.3999 22 44.1999V45.9999C22 47.3999 22.4 48.3999 23.1 49.0999L23.2 49.1999C23.9 49.7999 24.8 49.9999 26.2 49.9999C26.7 49.9999 27.3 49.9999 28 49.8999C28.8 49.7999 29.7 49.5999 30.6 49.2999L32.1 48.7999L31.9 47.1999C31.6 46.6999 31.6 46.0999 31.6 45.4999Z" fill="#E2211C"/>
<path d="M68.9001 50.2999C68.9001 48.6999 68.9001 46.9999 68.9001 45.2999C68.9001 44.4999 68.8 43.7999 68.5 43.2999C68.2001 42.7999 67.7 42.0999 66.7 41.7999C66.2 41.5999 65.5 41.4999 64.7 41.4999C64.6 41.4999 64.6 41.4999 64.5 41.4999C64.5 40.7999 64.5 39.9999 64.4001 38.9999C64.4001 36.8999 64.4001 34.1999 64.4001 31.0999C64.4001 28.7999 64.4001 26.7999 64.5 25.1999C64.6 23.4999 64.7001 22.0999 64.8001 20.8999C64.9001 19.6999 65 18.7999 65 18.1999C65.1 17.3999 65.2 16.7999 65.2 16.2999C65.2 15.7999 65.1 15.2999 65 14.7999C64.8 14.2999 64.5 13.5999 63.6 13.0999C63.1 12.7999 62.5 12.4999 61.7001 12.3999C61 11.9999 60.2001 11.9999 59.2001 11.8999C58.4001 11.8999 57.5 11.7999 56.5 11.8999C55.5 11.8999 54.3 11.8999 53 11.8999C51.7001 11.8999 50.1001 11.8999 48.4001 11.8999C46.7001 11.8999 44.7 11.9999 42.5 12.0999L40.1 12.1999L40.6 14.4999C41 16.3999 41.2 18.1999 41.1 19.8999C40.9 22.8999 40.7 25.5999 40.3 27.9999C40 30.2999 39.6 32.3999 39.1 34.1999C38.6 35.8999 38.1001 37.4999 37.4001 38.6999C36.9001 39.6999 36.3 40.5999 35.6 41.3999C34.5 41.5999 33.7 41.7999 33.1 42.2999C32.3 42.9999 31.8 44.0999 31.8 45.4999V50.1999C31.8 50.9999 31.8 51.7999 31.8 52.6999C31.8 53.4999 31.9 54.1999 31.9 54.7999C32 55.7999 32.3001 56.4999 32.7001 57.0999C33.6001 58.1999 35.1 58.1999 35.6 58.1999C36.3 58.1999 37 58.0999 37.6 57.9999C38.1 57.8999 38.6 57.7999 39.1 57.6999H39.2001C39.7001 57.4999 40.1 57.3999 40.5 57.1999L42 56.4999L41.6 54.8999C41.5 54.3999 41.3001 53.7999 41.2001 52.9999C41.1 52.3999 41.0001 51.6999 40.9001 50.7999C40.9001 50.4999 40.8 50.0999 40.8 49.7999C41 49.7999 41.3 49.7999 41.5 49.7999C42.5 49.7999 43.5 49.7999 44.5 49.7999C45.5 49.7999 46.6 49.7999 47.6 49.7999C48.6 49.7999 49.6 49.7999 50.6 49.7999H53.3C54.3 49.7999 55.2 49.7999 56.3 49.7999C57.3 49.7999 58.2001 49.7999 59.2001 49.7999C59.3001 49.7999 59.5 49.7999 59.6 49.7999V53.6999C59.6 54.3999 59.6 54.8999 59.7001 55.2999C59.8001 55.9999 60.1 56.5999 60.5 56.9999L60.6 57.0999C61.1 57.5999 61.6 57.8999 62.3 57.9999C62.8 58.0999 63.4 58.1999 64.2 58.1999C65.2 58.1999 66.3 57.9999 67.6 57.6999L69.3001 57.2999L69.1 55.5999C69 53.6999 68.9001 51.8999 68.9001 50.2999ZM55 38.1999C55 39.0999 55 40.0999 55.1 41.0999C54.8 41.0999 54.4 41.0999 54.1 41.0999H51.3C49.9 41.0999 48.4001 41.0999 46.9001 41.0999C46.6001 41.0999 46.4 41.0999 46.1 41.0999C46.2 40.7999 46.3 40.5999 46.5 40.2999C47.2 38.7999 47.7001 37.0999 48.2001 34.9999C48.7001 32.9999 49.1001 30.5999 49.4001 27.8999C49.7001 25.6999 49.9 23.0999 50 20.2999C51 20.2999 52.0001 20.1999 52.9001 20.2999C53.7001 20.2999 54.5 20.2999 55.3 20.2999C55.2 22.5999 55.1 24.5999 55 26.5999C54.9 28.9999 54.9001 31.3999 54.9001 33.7999L55 38.1999Z" fill="#E2211C"/>
<path d="M157.8 44.3998C157.7 43.1998 157.6 41.8998 157.5 40.4998C157.4 38.9998 157.4 37.5998 157.4 36.0998C157.4 34.5998 157.4 33.3998 157.4 32.2998C157.4 28.4998 157.5 25.1998 157.6 22.4998C157.8 19.5998 157.9 17.4998 157.9 16.0998C157.9 15.5998 157.8 15.0998 157.7 14.5998C157.5 14.0998 157.2 13.3998 156.3 12.8998C155.8 12.5998 155.2 12.3998 154.5 12.2998C153.9 12.1998 153.2 12.0998 152.3 12.0998C151.6 12.0998 150.8 12.0998 149.8 12.0998C147.7 11.9998 144.9 11.9998 141.6 12.0998C139.9 12.0998 137.8 12.1998 135.6 12.2998L133.2 12.3998L133.7 14.6998C133.8 15.3998 133.9 15.9998 134 16.5998C134.1 17.1998 134.1 17.9998 134.1 18.7998C134.1 20.4998 134 22.2998 133.9 24.1998C133.8 25.9998 133.6 27.8998 133.2 29.7998C132.8 32.3998 132.3 34.5998 131.8 36.0998C131.3 37.5998 130.8 38.6998 130.3 39.3998C129.8 40.1998 129.4 40.3998 129.2 40.4998C128.7 40.6998 128.4 40.7998 128 40.6998C127.9 40.6998 127.9 40.6998 127.8 40.5998L126 39.9998C125.6 39.3998 125.3 38.5998 125 37.5998C124.4 35.5998 123.8 33.4998 123.2 31.4998C122.7 29.3998 122.1 27.3998 121.7 25.4998C121.2 23.5998 120.8 21.8998 120.4 20.2998C120 18.5998 119.6 17.2998 119.2 16.2998C118.9 15.5998 118.7 14.9998 118.5 14.4998C118.2 13.7998 117.8 13.2998 117.3 12.8998C116.8 12.4998 116.2 12.1998 115.5 11.9998C115 11.8998 114.4 11.7998 113.6 11.7998C113 11.7998 112.3 11.8998 111.6 11.9998C111 12.0998 110.4 12.1998 109.7 12.2998L106.7 12.8998L106.4 14.0998C106.1 15.3998 105.6 16.9998 105 18.5998C104.4 20.2998 103.7 22.0998 102.9 23.9998C102.1 25.7998 101.3 27.6998 100.5 29.5998C99.7 31.4998 98.9 33.3998 98.1 35.1998C97.4 36.9998 96.7 38.5998 96.2 40.1998C95.9 40.8998 95.7 41.5998 95.6 42.1998C95.6 41.9998 95.5 41.6998 95.5 41.4998L95 39.6998L93 40.2998C91.8 40.5998 90.7 40.8998 89.6 40.9998C88 41.1998 85.9 41.1998 83.4 41.2998H80.3C80.3 39.9998 80.3 38.8998 80.3 37.7998L80.4 34.8998C80.6 34.8998 80.7 34.8998 80.9 34.9998L83.7 35.1998L86.2 35.2998C87 35.2998 87.8 35.2998 88.4 35.2998C89.9 35.2998 90.9 34.9998 91.8 34.1998C92.6 33.3998 93 32.2998 93 30.7998C93 30.3998 93 30.0998 92.9 29.6998C92.9 29.3998 92.8 29.0998 92.8 28.8998C92.8 28.5998 92.7 28.2998 92.7 28.0998L92.4 25.9998L90.3 26.3998C90 26.4998 89.7 26.4998 89.4 26.4998C89.1 26.4998 88.7 26.5998 88.3 26.5998H87C85.2 26.5998 83.6 26.5998 82.2 26.5998C81.5 26.5998 80.8 26.4998 80.2 26.4998C80.2 25.9998 80.2 25.3998 80.2 24.8998C80.2 23.7998 80.2 22.6998 80.2 21.8998C80.2 21.5998 80.2 21.2998 80.2 20.9998C81.2 20.9998 82.2 21.0998 83.3 21.0998C85.1 21.1998 86.8 21.1998 88.4 21.1998C90.3 21.1998 91.6 21.0998 92.4 20.6998C93.7 20.0998 94.5 18.8998 94.5 17.1998C94.5 16.9998 94.5 16.4998 94.4 15.8998C94.4 15.1998 94.3 14.4998 94.1 13.5998L93.7 11.7998L91.8 12.0998C90.9 12.1998 90 12.2998 89.2 12.3998C88.3 12.3998 87.2 12.3998 86.1 12.3998H83.7C82.8 12.3998 81.9 12.2998 81 12.3998C80.1 12.3998 79.2 12.3998 78.4 12.3998C77.5 12.3998 76.8 12.3998 76.1 12.3998C75.2 12.3998 74.4 12.3998 73.7 12.4998C72.9 12.4998 72.1 12.5998 71.5 12.7998L69.5 13.2998L70.1 15.2998C70.2 15.6998 70.3 16.0998 70.4 16.4998L70.5 16.6998C70.6 16.9998 70.7 17.2998 70.8 17.6998C70.9 17.9998 70.9 18.4998 71 18.8998C71.1 19.3998 71.1 19.9998 71.2 20.5998C71.3 21.7998 71.3 23.0998 71.3 24.4998C71.3 25.8998 71.3 27.3998 71.3 28.8998C71.3 32.7998 71.3 36.1998 71.3 39.1998C71.3 42.1998 71.2 44.9998 71 47.6998L70.9 49.5998L72.8 49.7998C74.7 49.9998 76.9 50.0998 79.1 50.0998C81.3 50.1998 83.4 50.1998 85.4 50.1998C87.3 50.1998 88.8 50.1998 90 50.1998C91.3 50.1998 92.3 49.9998 93.1 49.8998C94.1 49.5998 94.9 49.1998 95.4 48.4998C95.5 48.5998 95.5 48.6998 95.6 48.8998C96 49.5998 96.9 50.3998 98.8 50.3998C99.5 50.3998 100.1 50.3998 100.7 50.2998C101.3 50.2998 101.8 50.1998 102.2 50.0998C102.6 49.9998 103 49.9998 103.4 49.8998L105 49.5998V47.8998C105 46.6998 105.1 45.3998 105.4 44.1998C105.6 43.2998 105.8 42.2998 106.1 41.0998C106.4 41.0998 106.6 41.0998 106.9 41.0998C107.9 41.0998 109 41.0998 110.1 41.0998H112.6C113.4 41.0998 114.2 40.9998 114.9 40.9998C115.5 40.9998 116 40.8998 116.5 40.8998C116.6 41.1998 116.7 41.4998 116.8 41.6998L117.6 43.8998C118 45.0998 118.4 45.9998 118.8 46.7998C119.3 47.6998 119.8 48.2998 120.5 48.8998C121.2 49.3998 121.9 49.6998 122.6 49.8998C123.3 50.0998 124 50.1998 124.8 50.1998C125.7 50.1998 126.5 50.0998 127.1 49.8998C127.7 50.1998 128.6 50.3998 129.6 50.3998C131.2 50.3998 132.8 49.9998 134.2 49.2998C135.6 48.4998 136.9 47.2998 138.1 45.5998C139.1 43.9998 140 41.9998 140.8 39.4998C141.6 37.0998 142.2 34.0998 142.7 30.6998C143 28.5998 143.2 26.5998 143.3 24.6998C143.4 23.3998 143.5 22.0998 143.5 20.8998C143.6 20.8998 143.7 20.8998 143.9 20.8998C145.5 20.7998 147.1 20.7998 148.6 20.8998H148.7C148.6 23.0998 148.5 25.2998 148.5 27.4998C148.5 30.2998 148.5 33.0998 148.5 35.9998V41.9998C148.5 43.7998 148.6 45.3998 148.6 46.8998C148.7 47.8998 148.9 48.6998 149.5 49.3998L149.7 49.5998C150.4 50.1998 151.3 50.3998 152.7 50.3998C153.5 50.3998 154.3 50.2998 155.2 50.1998C156.1 50.0998 156.9 49.8998 157.6 49.5998L159.4 48.9998L158.9 47.1998C158 46.4998 157.9 45.7998 157.8 44.3998ZM114 32.5998C113 32.5998 112.1 32.5998 111.1 32.5998H108.7C108.8 32.1998 109 31.8998 109.2 31.4998C109.8 30.1998 110.3 28.7998 110.9 27.4998C111.3 26.5998 111.7 25.6998 112.1 24.7998C112.3 25.4998 112.5 26.2998 112.7 26.9998C113 28.7998 113.5 30.6998 114 32.5998Z" fill="#E2211C"/>
<path d="M186.3 27.6998C185.1 26.6998 183.7 25.8998 182.1 25.3998C180.6 24.8998 178.9 24.6998 177.1 24.6998C175.7 24.6998 174.3 24.7998 173 24.9998C172.7 25.0998 172.4 25.0998 172.1 25.1998C172.1 23.6998 172.1 22.3998 172.1 21.2998C172.1 19.3998 172.1 17.7998 172 16.3998C172 15.8998 171.9 15.4998 171.9 15.1998C171.8 14.5998 171.7 13.9998 171.4 13.5998C171.1 13.0998 170.6 12.5998 170 12.3998C169 11.8998 167.6 11.9998 165.8 12.2998C164.9 12.3998 163.9 12.5998 162.9 12.8998L160.9 13.3998L161.5 15.3998C161.6 15.7998 161.7 16.1998 161.8 16.5998L161.9 16.7998C162 16.9998 162 17.2998 162.1 17.5998V17.6998C162.2 18.0998 162.3 18.3998 162.3 18.8998V18.9998C162.4 19.3998 162.5 19.8998 162.5 20.5998C162.6 21.2998 162.6 21.9998 162.7 22.8998C162.8 23.6998 162.8 24.5998 162.8 25.4998C162.8 26.3998 162.8 27.2998 162.8 28.2998C162.8 29.1998 162.8 30.0998 162.8 30.8998C162.8 33.3998 162.7 35.9998 162.6 38.7998C162.5 41.4998 162.3 44.1998 162.2 46.6998L162.1 48.1998L163.5 48.6998C164.4 48.9998 165.4 49.2998 166.5 49.4998C167.4 49.6998 168.5 49.8998 169.8 50.0998C171.1 50.1998 172.5 50.2998 174 50.2998C176.2 50.2998 178.3 50.0998 180.1 49.5998C182.1 49.0998 183.8 48.2998 185.3 47.2998C186.8 46.1998 187.9 44.6998 188.7 42.9998C189.5 41.2998 189.9 39.2998 189.9 36.9998C189.9 35.0998 189.6 33.2998 188.9 31.8998C188.4 29.9998 187.5 28.6998 186.3 27.6998ZM180.4 37.1998C180.4 37.9998 180.3 38.5998 180 39.1998C179.8 39.6998 179.4 40.0998 179 40.3998C178.5 40.7998 177.9 40.9998 177.3 41.1998C176.5 41.3998 175.6 41.4998 174.6 41.4998C173.9 41.4998 173.3 41.4998 172.8 41.3998C172.5 41.3998 172.2 41.2998 171.9 41.2998C171.9 40.6998 172 40.0998 172 39.5998C172.1 38.5998 172.1 37.3998 172.1 36.0998L172.2 33.8998C172.5 33.7998 172.7 33.7998 173 33.6998C173.8 33.4998 174.8 33.4998 176 33.4998C177.6 33.4998 178.7 33.7998 179.5 34.4998C180.1 34.8998 180.4 35.7998 180.4 37.1998Z" fill="#E2211C"/>
<path d="M222.1 44.2999C222.1 42.8999 222 41.3999 222 39.6999C222 37.9999 222 36.1999 222 34.4999V29.4999C222 28.4999 222 27.2999 222 25.9999L222.2 21.9999C222.3 20.5999 222.3 19.3999 222.3 18.2999C222.4 17.0999 222.4 16.1999 222.4 15.4999C222.4 13.7999 221.5 12.9999 221 12.5999C219.9 11.8999 218.3 11.8999 216.3 12.0999C215.4 12.1999 214.5 12.2999 213.7 12.4999L212.1 12.8999L212.2 14.5999C212.3 15.5999 212.3 16.4999 212.4 17.3999C212.5 18.0999 212.5 18.7999 212.5 19.6999C212.6 20.3999 212.6 20.9999 212.6 21.3999V26.1999C211.9 26.1999 211.3 26.0999 210.6 26.0999C208.1 25.9999 205.6 25.9999 203.1 26.0999C202.7 26.0999 202.2 26.0999 201.7 26.1999C201.7 25.8999 201.7 25.6999 201.7 25.3999C201.8 24.0999 201.8 22.7999 201.8 21.4999C201.9 20.0999 201.9 18.8999 201.9 17.6999C201.9 16.4999 201.9 15.5999 201.9 14.8999C201.9 13.4999 201 12.4999 199.6 12.2999C198.1 12.0999 196.7 12.1999 195.3 12.4999C194.4 12.6999 193.5 12.7999 192.6 12.9999L190.5 13.4999L191.1 15.5999C191.2 16.0999 191.4 16.5999 191.5 17.1999V17.2999C191.6 17.7999 191.7 18.3999 191.8 18.9999C191.9 19.6999 191.9 20.4999 192 21.4999C192.1 22.3999 192.1 23.4999 192.1 24.7999C192.1 25.6999 192.1 26.7999 192.1 27.9999C192.1 29.1999 192.1 30.3999 192.1 31.5999L192 35.3999C192 36.5999 192 37.7999 192 38.8999C192 39.2999 192 39.6999 192 40.1999L191.8 43.7999C191.8 44.3999 191.7 44.9999 191.7 45.3999C191.7 46.8999 191.9 47.8999 192.5 48.7999C193.2 49.6999 194.3 50.1999 195.7 50.1999C196.2 50.1999 196.9 50.1999 197.6 50.0999C198.5 49.9999 199.2 49.8999 199.9 49.7999L201.7 49.3999L201.4 47.5999C201.3 47.1999 201.3 46.7999 201.2 46.3999C201.1 46.0999 201.1 45.7999 201.1 45.4999C201.1 45.0999 201.1 44.6999 201.1 44.2999V41.9999L201.3 35.8999C201.3 35.5999 201.3 35.3999 201.3 35.1999C201.5 35.1999 201.7 35.1999 201.9 35.1999C202.8 35.1999 203.8 35.1999 204.8 35.1999C207.6 35.1999 210.1 35.2999 212.3 35.3999C212.3 35.9999 212.3 36.5999 212.3 37.2999C212.3 38.0999 212.3 38.9999 212.3 39.9999C212.3 40.8999 212.3 41.7999 212.3 42.7999V46.8999C212.3 47.7999 212.6 48.5999 213.1 49.2999C214.1 50.4999 215.8 50.4999 216.3 50.4999C217.1 50.4999 217.9 50.3999 218.7 50.2999C219.5 50.1999 220.3 49.9999 220.9 49.6999L222.5 49.0999L222.3 47.4999C222.2 46.4999 222.1 45.4999 222.1 44.2999Z" fill="#E2211C"/>
<path d="M250.6 27.6999C249.4 26.6999 248 25.8999 246.4 25.3999C244.9 24.8999 243.2 24.6999 241.4 24.6999C240 24.6999 238.6 24.7999 237.3 24.9999C237 24.9999 236.7 25.0999 236.4 25.1999C236.4 23.7999 236.4 22.3999 236.4 21.2999C236.4 19.3999 236.4 17.7999 236.3 16.3999C236.3 15.0999 236.1 14.1999 235.8 13.5999C235.4 12.7999 234.5 11.8999 232.6 11.8999C231.9 11.8999 231 11.9999 230.1 12.0999C229.2 12.1999 228.2 12.3999 227.2 12.6999L225.2 13.1999L225.8 15.1999C225.9 15.5999 226 15.9999 226.1 16.3999L226.2 16.5999C226.3 16.7999 226.3 16.9999 226.4 17.2999V17.4999C226.5 17.7999 226.5 18.1999 226.6 18.5999V18.6999C226.7 19.0999 226.8 19.5999 226.8 20.2999C226.9 20.9999 226.9 21.7999 226.9 22.6999C227 23.4999 227 24.3999 227 25.3999C227.1 26.2999 227.1 27.1999 227.1 28.0999C227.1 28.9999 227.1 29.8999 227.1 30.6999C227.1 33.1999 227 35.7999 226.9 38.5999C226.8 41.2999 226.6 43.9999 226.5 46.4999L226.4 47.9999L227.8 48.4999C228.7 48.7999 229.7 49.0999 230.8 49.2999C231.7 49.4999 232.8 49.6999 234.1 49.8999C235.4 49.9999 236.8 50.0999 238.3 50.0999C240.5 50.0999 242.6 49.8999 244.4 49.3999C246.4 48.8999 248.1 48.0999 249.6 47.0999C251.1 45.9999 252.2 44.4999 253 42.7999C253.8 41.0999 254.2 39.0999 254.2 36.7999C254.2 34.8999 253.9 33.0999 253.2 31.6999C252.8 29.9999 251.8 28.6999 250.6 27.6999ZM244.7 37.1999C244.7 37.9999 244.6 38.5999 244.3 39.1999C244.1 39.6999 243.7 40.0999 243.3 40.3999C242.8 40.7999 242.2 40.9999 241.6 41.1999C240.8 41.3999 239.9 41.4999 238.9 41.4999C238.2 41.4999 237.6 41.4999 237.1 41.3999C236.8 41.3999 236.5 41.2999 236.2 41.2999C236.2 40.6999 236.3 40.0999 236.3 39.5999C236.4 38.5999 236.4 37.3999 236.4 36.1999L236.5 33.9999C236.8 33.8999 237.1 33.8999 237.4 33.7999C238.2 33.5999 239.2 33.4999 240.3 33.4999C241.9 33.4999 243 33.7999 243.8 34.4999C244.4 34.8999 244.7 35.7999 244.7 37.1999Z" fill="#E2211C"/>
<path d="M264.7 44.5999C264.7 43.3999 264.6 42.0999 264.6 40.4999C264.6 38.9999 264.6 37.2999 264.6 35.4999V29.7999C264.6 26.5999 264.7 23.7999 264.8 21.2999C264.9 18.7999 265 16.7999 265 15.3999C265 13.5999 264.1 12.7999 263.5 12.4999C262.9 12.0999 262.1 11.8999 261.2 11.8999C260.9 11.8999 260.5 11.8999 260 11.8999C259.5 11.8999 259.1 11.8999 258.6 11.9999C258.1 11.9999 257.7 12.0999 257.2 12.1999C256.8 12.2999 256.4 12.2999 256 12.3999L254.1 12.7999L254.4 14.6999C254.5 15.1999 254.6 15.6999 254.6 16.0999C254.7 16.4999 254.7 16.8999 254.8 17.3999C254.9 17.7999 254.9 18.2999 254.9 18.5999C255 19.8999 255 21.4999 255 23.3999C255 25.2999 255 27.3999 255 29.6999C255 31.6999 255 33.4999 255 35.2999C255 36.9999 254.9 38.5999 254.9 40.0999C254.9 41.4999 254.9 42.6999 254.9 43.7999C254.9 44.8999 254.9 45.6999 254.9 46.3999C254.9 47.2999 255.2 48.0999 255.7 48.7999C256.7 49.9999 258.4 49.9999 258.9 49.9999C259.7 49.9999 260.5 49.8999 261.3 49.7999C262.1 49.6999 262.9 49.4999 263.5 49.1999L265 48.6999L264.8 47.0999C264.8 46.4999 264.7 45.6999 264.7 44.5999Z" fill="#E2211C"/>
<path d="M275.9 8.6999C276.3 9.3999 276.8 10.0999 277.5 10.7999C278.2 11.3999 279 11.8999 280.1 12.3999C281.2 12.7999 282.5 13.0999 284 13.0999C285.4 13.0999 286.7 12.8999 287.8 12.3999C288.9 11.8999 289.9 11.2999 290.7 10.5999C291.5 9.8999 292.2 8.9999 292.6 8.0999C293.1 7.0999 293.3 6.0999 293.3 5.1999C293.3 4.6999 293.2 4.1999 293 3.7999C292.9 3.4999 292.8 3.1999 292.6 2.8999L290.3 -0.100098L288.8 2.3999C288.2 3.3999 287.5 4.0999 286.8 4.5999C286.1 4.9999 285.4 5.2999 284.7 5.2999C283.8 5.2999 282.9 5.0999 282.5 2.8999L282 -9.76548e-05L279.5 1.5999C278.9 1.9999 278.3 2.3999 277.7 2.7999C277.2 3.1999 276.7 3.6999 276.3 4.0999C275.6 4.7999 275.3 5.5999 275.3 6.4999C275.3 7.0999 275.5 7.7999 275.8 8.5999L275.9 8.6999Z" fill="#E2211C"/>
<path d="M299.9 45.4999L299.8 43.9999C299.8 43.4999 299.8 43.0999 299.8 42.6999C299.7 40.7999 299.7 38.6999 299.7 36.3999V29.4999C299.7 28.4999 299.7 27.2999 299.7 25.9999L299.8 22.1999C299.9 20.8999 299.9 19.6999 299.9 18.5999C299.9 17.3999 299.9 16.4999 299.9 15.6999C299.9 14.4999 299.6 13.5999 298.9 12.8999C297.9 11.9999 296.3 11.8999 294 12.1999C293.1 12.2999 292.3 12.3999 291.6 12.4999L290.8 12.6999L290.3 13.3999C289.3 14.8999 288.2 16.5999 286.8 18.5999C285.5 20.5999 284.1 22.6999 282.7 24.8999C281.3 27.0999 279.9 29.2999 278.5 31.4999C278.5 30.9999 278.5 30.3999 278.6 29.7999L278.7 25.4999C278.7 23.9999 278.7 22.5999 278.7 21.3999C278.7 20.0999 278.7 18.8999 278.7 17.8999C278.7 16.7999 278.7 15.8999 278.7 15.0999C278.7 13.6999 277.7 12.0999 275 12.0999C274.1 12.0999 273.3 12.1999 272.6 12.2999C271.8 12.3999 270.9 12.4999 269.9 12.7999L268.1 13.2999L268.4 15.0999C268.5 15.5999 268.6 15.9999 268.6 16.3999V16.5999C268.7 16.8999 268.7 17.2999 268.8 17.5999C268.9 17.9999 268.9 18.3999 268.9 18.7999C268.9 19.1999 268.9 19.7999 268.9 20.3999C268.9 21.6999 268.9 23.0999 268.9 24.7999V29.5999C268.9 31.1999 268.9 32.7999 268.9 34.4999C268.9 36.0999 268.9 37.6999 268.9 39.0999C268.9 40.4999 268.9 41.6999 268.9 42.8999V46.5999V46.7999C269 47.3999 269.1 47.8999 269.4 48.3999L269.5 48.5999C269.9 49.0999 270.4 49.4999 271 49.7999C271.9 50.1999 273.1 50.1999 274.8 50.0999C275.5 50.0999 276.2 49.9999 276.9 49.7999L277.8 49.5999L278.2 48.6999C278.5 48.0999 278.9 47.2999 279.5 46.1999C280.1 45.0999 280.9 43.7999 281.7 42.3999C282.5 40.9999 283.4 39.3999 284.5 37.6999C285.5 35.9999 286.6 34.2999 287.7 32.5999C288.5 31.1999 289.4 29.8999 290.2 28.4999V28.5999C290.2 29.7999 290.2 30.8999 290.2 32.0999V35.0999L290.1 38.5999C290.1 39.6999 290.1 40.6999 290.1 41.7999C290.1 42.6999 290.1 43.5999 290.1 44.3999V45.9999C290.1 47.3999 290.5 48.3999 291.2 49.0999L291.3 49.1999C292 49.7999 292.9 49.9999 294.3 49.9999C294.8 49.9999 295.4 49.9999 296.1 49.8999C296.9 49.7999 297.8 49.5999 298.7 49.2999L300.2 48.7999L300 47.1999C300 46.6999 300 46.0999 299.9 45.4999Z" fill="#E2211C"/>
<path d="M339.2 14.7999C337.9 13.7999 336.3 12.9999 334.6 12.5999C332.9 12.0999 331 11.8999 329 11.8999C327.4 11.8999 325.5 11.9999 323.3 12.1999C321.2 12.3999 319 12.6999 316.8 13.1999L314.6 13.6999L315.3 15.7999C315.6 16.6999 315.8 17.7999 316 19.0999C316.2 20.3999 316.3 21.8999 316.4 23.4999C316.5 24.6999 316.5 25.7999 316.5 26.7999V29.8999C316.5 33.5999 316.5 36.7999 316.4 39.3999C316.3 42.0999 316.3 44.3999 316.3 46.4999C316.3 48.0999 317 48.9999 317.5 49.3999L317.6 49.4999C318.3 49.9999 319.2 50.1999 320.3 50.1999C320.8 50.1999 321.4 50.1999 322 50.0999C322.5 49.9999 323 49.9999 323.5 49.8999L326.9 49.1999L326.5 47.2999C326.4 46.5999 326.3 45.9999 326.2 45.1999C326.1 44.5999 326 43.9999 326 43.3999C325.9 42.7999 325.9 42.1999 325.9 41.7999V40.5999C325.9 39.9999 325.9 39.3999 325.9 38.7999C325.9 38.3999 325.9 38.0999 325.9 37.6999C326 37.6999 326.1 37.6999 326.2 37.6999H327.7C329.7 37.6999 331.6 37.4999 333.5 37.0999C335.4 36.5999 337.1 35.8999 338.5 34.7999C340 33.6999 341.2 32.2999 342.1 30.5999C343 28.8999 343.4 26.8999 343.4 24.4999C343.4 22.3999 343 20.4999 342.3 18.9999C341.7 17.1999 340.6 15.7999 339.2 14.7999ZM333.7 24.3999C333.7 25.8999 333.3 26.9999 332.5 27.6999C331.6 28.4999 330.1 28.7999 328.1 28.7999C327.6 28.7999 327.1 28.7999 326.7 28.7999C326.5 28.7999 326.3 28.7999 326.1 28.6999C326.1 27.4999 326.1 26.4999 326 25.5999C326 24.0999 326 22.8999 325.9 21.7999C325.9 21.2999 325.8 20.7999 325.8 20.3999C325.9 20.3999 326.1 20.3999 326.2 20.3999C327.7 20.2999 329.6 20.1999 330.9 20.5999C331.5 20.7999 332 20.9999 332.5 21.3999C332.9 21.6999 333.2 21.9999 333.4 22.4999C333.6 22.9999 333.7 23.5999 333.7 24.3999ZM324.1 20.6999C324 20.6999 324 20.6999 323.9 20.6999H324.1Z" fill="#E2211C"/>
<path d="M394.1 29.6997C394.6 29.1997 394.9 28.6997 395.3 28.1997C396.3 26.5997 396.9 24.6997 396.9 22.5997C396.9 20.6997 396.6 18.9997 395.9 17.5997C395.2 16.0997 394.2 14.9997 393 14.0997C391.8 13.1997 390.4 12.5997 388.8 12.1997C387.3 11.7997 385.7 11.6997 383.9 11.6997C381.9 11.6997 379.9 11.7997 378.2 12.0997C376.6 12.2997 375.2 12.3997 374 12.3997H372.8L372.3 13.4997C372.1 13.7997 372 14.1997 372 14.5997V15.3997C372 15.8997 372 16.4997 372.1 16.9997V17.0997C372.2 17.6997 372.3 18.2997 372.5 18.7997L372.6 18.8997C372.9 19.4997 373.2 20.0997 373.7 20.4997C374.1 20.8997 374.9 21.4997 376.2 21.4997C376.8 21.4997 377.4 21.3997 378.1 21.2997H378.2C378.7 21.1997 379.2 21.0997 379.8 20.9997C380.4 20.8997 381 20.7997 381.7 20.6997C382.3 20.5997 383.1 20.4997 383.9 20.4997C387.6 20.4997 387.6 21.9997 387.6 22.9997C387.6 23.6997 387.5 24.2997 387.2 24.6997C386.9 25.0997 386.6 25.3997 386.1 25.5997C385.6 25.8997 384.9 26.0997 384.2 26.1997C383.3 26.2997 382.4 26.3997 381.5 26.3997C380.4 26.3997 379.5 26.3997 378.8 26.2997H378.7C378.3 26.2997 377.9 26.1997 377.5 26.1997L375.6 25.8997L375 29.1997V29.2997C374.9 29.8997 374.9 30.4997 374.9 31.0997C374.9 32.0997 375.1 32.8997 375.5 33.5997L375.6 33.6997C376.2 34.6997 377.2 35.2997 378.4 35.2997C379.2 35.2997 380 35.2997 380.8 35.1997C381.4 35.0997 382.2 35.0997 383.1 35.0997C384.2 35.0997 385.1 35.1997 385.9 35.2997C386.6 35.3997 387.1 35.5997 387.6 35.8997C387.9 36.0997 388.1 36.2997 388.3 36.5997L388.4 36.6997C388.5 36.8997 388.7 37.3997 388.7 38.1997C388.7 39.6997 388.1 40.2997 387.7 40.5997C386.9 41.1997 385.7 41.4997 384.3 41.4997C383.2 41.4997 382.1 41.4997 381.4 41.3997C380.6 41.2997 379.8 41.0997 379.1 40.8997C378.5 40.6997 377.9 40.4997 377.3 40.1997C376.7 39.8997 376.1 39.4997 375.4 39.0997L373.5 37.7997L372.5 39.8997C372.2 40.4997 372 41.0997 371.8 41.6997C371.7 41.8997 371.7 42.0997 371.6 42.2997C371.6 42.0997 371.5 41.9997 371.5 41.7997L371 39.6997L369 40.2997C367.8 40.5997 366.7 40.8997 365.6 40.9997C364 41.1997 361.9 41.1997 359.4 41.2997H356.3C356.3 40.0997 356.3 38.8997 356.3 37.7997L356.4 34.8997C356.6 34.8997 356.7 34.8997 356.9 34.9997L359.7 35.1997L362.2 35.2997C363 35.2997 363.8 35.2997 364.4 35.2997C365.9 35.2997 366.9 34.9997 367.8 34.1997C368.6 33.3997 369 32.2997 369 30.7997C369 30.3997 369 30.0997 368.9 29.6997C368.9 29.3997 368.8 29.0997 368.8 28.8997C368.8 28.5997 368.7 28.2997 368.7 28.0997L368.4 25.9997L366.3 26.3997C366 26.4997 365.7 26.4997 365.4 26.4997C365.1 26.4997 364.7 26.5997 364.3 26.5997H363C361.2 26.5997 359.6 26.5997 358.2 26.5997C357.5 26.5997 356.8 26.4997 356.2 26.4997C356.2 25.9997 356.2 25.3997 356.2 24.8997C356.2 23.7997 356.2 22.6997 356.2 21.8997C356.2 21.5997 356.2 21.2997 356.2 20.9997C357.2 20.9997 358.2 21.0997 359.3 21.0997C361.1 21.1997 362.8 21.1997 364.4 21.1997C366.3 21.1997 367.6 21.0997 368.4 20.6997C369.7 20.0997 370.5 18.8997 370.5 17.1997C370.5 16.9997 370.5 16.4997 370.4 15.8997C370.4 15.1997 370.3 14.3997 370.1 13.5997L369.7 11.7997L367.8 12.0997C366.9 12.1997 366 12.2997 365.2 12.3997C364.3 12.3997 363.2 12.3997 362.1 12.3997H359.7C358.8 12.3997 357.9 12.2997 357 12.3997C356.1 12.3997 355.2 12.3997 354.4 12.3997C353.5 12.3997 352.8 12.3997 352.1 12.3997C351.2 12.3997 350.4 12.3997 349.7 12.4997C348.9 12.4997 348.1 12.5997 347.5 12.7997L345.5 13.2997L346.1 15.2997C346.2 15.6997 346.3 16.0997 346.4 16.4997L346.5 16.6997C346.6 16.9997 346.7 17.2997 346.8 17.6997C346.9 17.9997 346.9 18.4997 347 18.8997C347.1 19.3997 347.1 19.9997 347.2 20.5997C347.3 21.7997 347.3 23.0997 347.3 24.4997C347.3 25.8997 347.3 27.3997 347.3 28.8997C347.3 32.7997 347.3 36.1997 347.3 39.1997C347.3 42.1997 347.2 44.9997 347 47.6997L346.9 49.5997L348.8 49.7997C350.7 49.9997 352.9 50.0997 355.1 50.0997C357.3 50.1997 359.4 50.1997 361.4 50.1997C363.3 50.1997 364.8 50.1997 366 50.1997C367.3 50.1997 368.3 49.9997 369.1 49.8997C370.2 49.5997 371.1 49.0997 371.5 48.2997C371.7 47.9997 371.8 47.6997 371.9 47.3997C372.1 47.6997 372.4 47.9997 372.8 48.2997C373.5 48.8997 374.5 49.2997 375.8 49.6997C376.9 49.9997 378.2 50.2997 379.7 50.3997C381.1 50.5997 382.7 50.6997 384.4 50.6997C386.2 50.6997 387.9 50.3997 389.6 49.8997C391.3 49.3997 392.8 48.5997 394.1 47.5997C395.5 46.5997 396.6 45.2997 397.4 43.6997C398.3 42.0997 398.7 40.2997 398.7 38.2997C398.7 35.6997 398 33.4997 396.8 31.7997C395.5 30.8997 394.9 30.2997 394.1 29.6997Z" fill="#E2211C"/>
<path d="M425.3 28.1C425.8 26.8 426.2 25.6 426.6 24.4C427 23.1 427.4 22 427.7 20.9C428 19.8 428.3 18.7 428.5 18C428.7 17 428.8 16.3 428.8 15.7C428.8 13.6 427.5 12.8 426.9 12.5C426.2 12.2 425.3 12 424.1 12C423.6 12 423.1 12 422.6 12.1C422.2 12.1 421.8 12.2 421.5 12.3C421.1 12.4 420.8 12.4 420.5 12.5L419.1 12.9L419 14.4C418.9 15.6 418.7 17.1 418.4 18.8C418.1 20.5 417.7 22.3 417.1 24.2C416.6 26.1 416 27.9 415.4 29.7C415.4 29.8 415.3 29.9 415.3 29.9C415.2 29.6 415 29.3 414.9 29C414.1 27.2 413.2 25.4 412.3 23.8C411.5 22.1 410.6 20.5 409.8 19C409 17.5 408.2 16.2 407.5 15C407 14.1 406.5 13.5 406 13.1C405.5 12.6 404.6 12.1 403.2 12.1C402.4 12.1 401.6 12.3 400.8 12.7C400.3 13 399.8 13.3 399.2 13.6C398.6 14 398.1 14.4 397.5 14.9L396.1 16.1L397.2 17.6C399.6 21 402 24.7 404.2 28.6C406.2 32.2 408.1 36 409.9 40C409 40.9 408.1 41 407.5 41C407.1 41 406.8 41 406.5 40.9C406.4 40.9 406.1 40.8 405.6 40.5L403.8 39.5L402.8 41.3C402.4 42 402.1 42.8 401.8 43.6C401.5 44.5 401.4 45.3 401.4 46.1C401.4 47.9 402.3 49.3 403.7 49.9C404.7 50.4 406 50.6 407.5 50.6C409.2 50.6 410.8 50.2 412.3 49.4C413.7 48.6 414.9 47.6 416.1 46.2C417.2 44.9 418.3 43.3 419.4 41.4C420.4 39.6 421.5 37.5 422.6 35.2C423 34.3 423.5 33.2 424 32C424.3 30.6 424.8 29.3 425.3 28.1Z" fill="#E2211C"/>
<path d="M456.7 44.3999C456.6 43.1999 456.5 41.8999 456.4 40.4999C456.3 38.9999 456.3 37.5999 456.3 36.0999C456.3 34.5999 456.3 33.3999 456.3 32.2999C456.3 28.4999 456.4 25.1999 456.5 22.4999C456.7 19.5999 456.8 17.4999 456.8 16.0999C456.8 15.5999 456.7 15.0999 456.6 14.5999C456.4 14.0999 456.1 13.3999 455.2 12.8999C454.7 12.5999 454.1 12.3999 453.4 12.2999C452.8 12.1999 452.1 12.0999 451.2 12.0999C450.5 12.0999 449.7 12.0999 448.7 12.0999C446.6 11.9999 443.8 11.9999 440.5 12.0999C438.8 12.0999 436.7 12.1999 434.5 12.2999L432.1 12.3999L432.6 14.6999C432.7 15.3999 432.8 15.9999 432.9 16.5999C433 17.1999 433 17.8999 433 18.7999C433 20.4999 432.9 22.2999 432.8 24.1999C432.7 25.9999 432.5 27.8999 432.1 29.7999C431.7 32.3999 431.2 34.5999 430.7 36.0999C430.2 37.5999 429.7 38.6999 429.2 39.3999C428.7 40.1999 428.3 40.3999 428.1 40.4999C427.6 40.6999 427.3 40.7999 426.9 40.6999C426.8 40.6999 426.8 40.6999 426.7 40.5999L424.6 39.8999L424.1 41.9999C424 42.3999 423.9 42.7999 423.8 43.1999C423.7 43.5999 423.7 43.9999 423.6 44.4999C423.6 44.8999 423.5 45.3999 423.5 45.7999C423.5 47.2999 423.8 48.2999 424.6 48.9999L424.7 49.0999C425.4 49.6999 426.4 49.9999 427.9 49.9999C429.5 49.9999 431.1 49.5999 432.5 48.8999C433.9 48.0999 435.2 46.8999 436.4 45.1999C437.4 43.5999 438.3 41.5999 439.1 39.0999C439.9 36.6999 440.5 33.6999 441 30.2999C441.3 28.1999 441.5 26.1999 441.6 24.2999C441.7 22.9999 441.8 21.6999 441.8 20.4999C441.9 20.4999 442 20.4999 442.2 20.4999C443.8 20.3999 445.4 20.3999 446.9 20.4999H447C446.9 22.6999 446.8 24.8999 446.8 27.0999C446.8 29.8999 446.8 32.6999 446.8 35.5999V41.5999C446.8 43.3999 446.9 44.9999 446.9 46.4999C447 47.4999 447.2 48.2999 447.8 48.9999L448 49.1999C448.7 49.7999 449.6 49.9999 451 49.9999C451.8 49.9999 452.6 49.8999 453.5 49.7999C454.4 49.6999 455.2 49.4999 455.9 49.1999L457.7 48.5999L457.2 46.7999C457 46.4999 456.8 45.7999 456.7 44.3999Z" fill="#E2211C"/>
<path d="M485.2 27.6998C484 26.6998 482.6 25.8998 481 25.3998C479.5 24.8998 477.8 24.6998 476 24.6998C474.6 24.6998 473.2 24.7998 471.9 24.9998C471.6 25.0998 471.3 25.0998 471 25.1998C471 23.6998 471 22.3998 471 21.2998C471 19.3998 471 17.7998 470.9 16.3998C470.9 15.8998 470.8 15.4998 470.8 15.1998C470.7 14.5998 470.6 13.9998 470.3 13.5998C470 13.0998 469.5 12.5998 468.9 12.3998C467.9 11.8998 466.5 11.9998 464.7 12.2998C463.8 12.3998 462.8 12.5998 461.8 12.8998L459.8 13.3998L460.4 15.3998C460.5 15.7998 460.6 16.1998 460.7 16.5998L460.8 16.7998C460.9 16.9998 460.9 17.2998 461 17.5998V17.7998C461.1 18.1998 461.2 18.4998 461.2 18.9998V19.0998C461.3 19.4998 461.4 19.9998 461.4 20.6998C461.5 21.3998 461.5 22.0998 461.6 22.9998C461.7 23.7998 461.7 24.6998 461.7 25.5998C461.7 26.4998 461.7 27.3998 461.7 28.3998C461.7 29.2998 461.7 30.1998 461.7 30.9998C461.7 33.4998 461.6 36.0998 461.5 38.8998C461.4 41.5998 461.2 44.2998 461.1 46.7998L461 48.2998L462.4 48.7998C463.3 49.0998 464.3 49.3998 465.4 49.5998C466.3 49.7998 467.4 49.9998 468.7 50.1998C470 50.2998 471.4 50.3998 472.9 50.3998C475.1 50.3998 477.2 50.1998 479 49.6998C481 49.1998 482.7 48.3998 484.2 47.3998C485.7 46.2998 486.8 44.7998 487.6 43.0998C488.4 41.3998 488.8 39.3998 488.8 37.0998C488.8 35.1998 488.5 33.3998 487.8 31.9998C487.4 29.9998 486.4 28.6998 485.2 27.6998ZM479.3 37.1998C479.3 37.9998 479.2 38.5998 478.9 39.1998C478.7 39.6998 478.3 40.0998 477.9 40.3998C477.4 40.7998 476.8 40.9998 476.2 41.1998C475.4 41.3998 474.5 41.4998 473.5 41.4998C472.8 41.4998 472.2 41.4998 471.7 41.3998C471.4 41.3998 471.1 41.2998 470.8 41.2998C470.8 40.6998 470.9 40.0998 470.9 39.5998C471 38.5998 471 37.3998 471 36.0998L471.1 33.8998C471.4 33.7998 471.6 33.7998 471.9 33.6998C472.7 33.4998 473.7 33.4998 474.9 33.4998C476.5 33.4998 477.7 33.7998 478.4 34.4998C479 34.8998 479.3 35.7998 479.3 37.1998Z" fill="#E2211C"/>
<path d="M502.9 26.7997C502.9 24.8997 502.9 23.0997 502.9 21.2997H505.6C506.3 21.2997 507 21.1997 507.6 21.1997C508.3 21.1997 508.8 21.0997 509.3 21.0997C509.9 20.9997 511.6 20.8997 512.5 19.4997V19.3997C512.9 18.6997 513.1 17.7997 513.1 16.6997C513.1 16.2997 513.1 15.8997 513 15.3997C513 14.9997 512.9 14.5997 512.9 14.2997L512.6 10.6997L510.2 11.4997C509.3 11.7997 507.9 11.9997 506.2 12.0997C504.3 12.1997 501.9 12.1997 499.2 12.1997H496.3L493.2 12.0997C492.2 12.0997 491.1 12.0997 490.2 12.0997C489.2 12.0997 488.3 12.0997 487.5 12.0997C486.2 12.0997 485.2 12.4997 484.5 13.2997C483.9 13.9997 483.6 14.8997 483.6 15.9997V16.8997L484 20.5997L485.6 20.7997C486.1 20.8997 486.7 20.8997 487.5 20.9997C488.2 21.0997 489.1 21.0997 490 21.1997L493.7 21.2997C493.7 22.4997 493.7 23.8997 493.6 25.2997L493.4 38.3997C493.4 40.4997 493.4 42.2997 493.4 43.9997C493.4 44.6997 493.4 45.3997 493.5 45.9997V46.0997C493.6 46.7997 493.7 47.3997 493.8 47.7997L493.9 47.9997C494.2 48.6997 494.7 49.2997 495.3 49.6997L495.5 49.7997C496.1 50.0997 496.9 50.1997 498 50.1997C498.5 50.1997 499.1 50.1997 499.8 50.0997C500.6 50.0997 501.4 49.8997 502.1 49.6997L503.8 49.1997L503.5 47.4997C503.4 47.0997 503.4 46.6997 503.3 46.2997C503.2 45.9997 503.2 45.6997 503.2 45.2997C503.2 44.8997 503.2 44.5997 503.2 44.1997C503.2 43.5997 503.2 42.7997 503.2 41.8997C503.2 40.8997 503.2 39.8997 503.2 38.9997V34.0997C502.9 31.6997 502.9 29.2997 502.9 26.7997Z" fill="#E2211C"/>
<path d="M541.9 40.5999L539.6 40.9999C539.5 40.9999 539.5 40.9999 539.4 40.9999C539.2 40.9999 539.1 40.9999 538.8 40.5999C538.3 39.8999 537.9 38.9999 537.5 37.6999C536.9 35.6999 536.3 33.5999 535.7 31.5999C535.2 29.4999 534.6 27.4999 534.2 25.5999C533.7 23.6999 533.3 21.9999 532.9 20.3999C532.5 18.6999 532.1 17.3999 531.7 16.3999C531.4 15.6999 531.2 15.0999 531 14.5999C530.7 13.8999 530.3 13.3999 529.8 12.9999C529.3 12.5999 528.7 12.2999 528 12.0999C527.5 11.9999 526.9 11.8999 526.1 11.8999C525.5 11.8999 524.8 11.9999 524.1 12.0999C523.5 12.1999 522.9 12.2999 522.2 12.3999L519.2 12.9999L518.9 14.1999C518.6 15.4999 518.1 17.0999 517.5 18.6999C516.9 20.3999 516.2 22.1999 515.4 24.0999C514.6 25.8999 513.8 27.7999 513 29.6999C512.2 31.5999 511.4 33.4999 510.6 35.2999C509.9 37.0999 509.2 38.6999 508.7 40.2999C508.1 41.8999 507.7 43.2999 507.5 44.4999C507.1 46.3999 507.2 47.4999 507.7 48.4999C508.1 49.1999 509 49.9999 510.9 49.9999C511.6 49.9999 512.2 49.9999 512.8 49.8999C513.4 49.8999 513.9 49.7999 514.3 49.6999C514.7 49.5999 515.1 49.5999 515.5 49.4999L517.1 49.1999V47.4999C517.1 46.2999 517.2 44.9999 517.4 43.7999C517.6 42.8999 517.8 41.8999 518.1 40.6999C518.4 40.6999 518.6 40.6999 518.9 40.6999C519.9 40.6999 521 40.6999 522.1 40.6999H524.6C525.4 40.6999 526.2 40.5999 526.9 40.5999C527.5 40.5999 528 40.4999 528.5 40.4999C528.6 40.7999 528.7 41.0999 528.8 41.2999L529.6 43.4999C530 44.6999 530.4 45.5999 530.8 46.3999C531.3 47.2999 531.8 47.8999 532.5 48.4999C533.2 48.9999 533.9 49.2999 534.6 49.4999C535.3 49.6999 536 49.7999 536.8 49.7999C538.7 49.7999 540 49.2999 540.9 48.3999C541.7 47.4999 542.1 46.2999 542.1 44.9999C542.1 44.6999 542.1 44.2999 542.1 43.9999L541.9 40.5999ZM526.4 32.5999C525.4 32.5999 524.5 32.5999 523.5 32.5999H521.1C521.2 32.1999 521.4 31.8999 521.6 31.4999C522.2 30.1999 522.7 28.7999 523.3 27.4999C523.7 26.5999 524.1 25.6999 524.5 24.7999C524.7 25.4999 524.9 26.2999 525.1 26.9999C525.4 28.7999 525.9 30.6999 526.4 32.5999Z" fill="#E2211C"/>
<path d="M564.9 15.3997C564.9 14.9997 564.8 14.5997 564.8 14.2997L564.5 10.6997L562.1 11.4997C561.2 11.7997 559.8 11.9997 558.1 12.0997C556.2 12.1997 553.8 12.1997 551.1 12.1997H548.2L545.1 12.0997C544.1 12.0997 543 12.0997 542.1 12.0997C541.1 12.0997 540.2 12.0997 539.4 12.0997C538.1 12.0997 537.1 12.4997 536.4 13.1997C535.8 13.8997 535.5 14.7997 535.5 15.8997V16.7997V16.9997C535.5 17.2997 535.6 17.5997 535.6 17.8997C535.6 18.2997 535.7 18.5997 535.7 18.8997L535.9 20.4997L537.5 20.6997C538 20.7997 538.6 20.7997 539.4 20.8997C540.1 20.9997 541 20.9997 541.9 21.0997L545.6 21.1997C545.6 22.3997 545.6 23.7997 545.5 25.1997L545.3 38.2997C545.3 40.3997 545.3 42.1997 545.3 43.8997C545.3 44.5997 545.3 45.2997 545.4 45.8997V45.9997C545.5 46.6997 545.6 47.2997 545.7 47.6997L545.8 47.8997C546.1 48.5997 546.6 49.1997 547.2 49.5997L547.4 49.6997C548 49.9997 548.8 50.0997 549.9 50.0997C550.4 50.0997 551 50.0997 551.7 49.9997C552.5 49.9997 553.3 49.7997 554 49.5997L555.7 49.0997L555.4 47.3997C555.3 46.9997 555.3 46.5997 555.2 46.1997C555.1 45.8997 555.1 45.5997 555.1 45.2997C555.1 44.8997 555.1 44.5997 555.1 44.1997C555.1 43.5997 555.1 42.7997 555.1 41.8997C555.1 40.8997 555.1 39.8997 555.1 38.9997V34.0997C555.1 31.8997 555.1 29.5997 555.1 27.0997C555.1 25.1997 555.1 23.3997 555.1 21.5997H557.8C558.5 21.5997 559.2 21.4997 559.8 21.4997C560.5 21.4997 561 21.3997 561.5 21.3997C562.1 21.2997 563.8 21.1997 564.7 19.6997C565.1 18.9997 565.3 18.0997 565.3 16.9997C565 16.2997 565 15.8997 564.9 15.3997Z" fill="#E2211C"/>
</svg>
