<svg width="301" height="299" viewBox="0 0 301 299" fill="none" xmlns="http://www.w3.org/2000/svg">
<path d="M227.875 153.59C219.277 141.458 207.955 132.933 194.685 128.611C195.952 119.261 198.491 110.514 197.968 101.95C197.24 90.0763 195.305 78.0302 191.946 66.6324C182.358 34.0186 148.847 17.4498 116.679 28.6674C95.7408 35.9543 80.7417 50.3203 69.7985 69.1362C52.266 99.2492 50.6966 131.746 55.315 165.367C59.0558 192.676 68.4331 216.494 89.7487 235.345C119.002 261.224 150.788 274.106 190.009 261.383C237.369 246.037 256.104 193.402 227.893 153.585L227.875 153.59ZM192.004 255.663C153.375 269.775 122.056 257.46 92.8653 231.915C70.6198 212.436 62.6533 187.274 59.2359 159.459C55.2249 126.816 58.0693 95.4074 76.4515 67.1072C88.4845 48.5793 104.586 35.0712 127.012 30.8596C152.308 26.1136 177.096 38.7676 185.437 62.955C190.273 76.9841 191.579 92.3491 193.525 107.228C194.148 111.98 191.984 117.208 190.575 122.067C189.379 126.165 186.55 128.301 181.842 128.827C171.741 129.977 163.715 135.419 156.315 142.194C153.736 144.561 150.055 146.633 146.661 147.052C124.83 149.798 105.211 144.644 88.743 129.429C87.464 128.245 86.0928 127.161 83.1399 124.647C76.3501 149.19 77.8407 171.648 87.6428 193.304C99.044 218.494 117.807 235.995 145.429 246.016C145.13 238.213 144.699 231.86 144.682 225.494C144.658 208.894 143.527 192.137 145.396 175.736C146.442 166.518 151.059 156.769 156.681 149.194C171.833 128.799 194.831 127.575 213.985 144.767C251.746 178.664 239.699 238.224 192.011 255.651L192.004 255.663ZM142.012 239.284C103.32 226.638 74.1174 177.411 86.0631 133.296C104.337 148.032 124.779 154.811 149.555 150.717C133.52 179.523 139.863 209.461 142.012 239.284Z" fill="#FFC079"/>
<path d="M152.131 130.046C166.212 129.489 175.034 122.533 177.097 109.639C180.08 91.0727 175.67 74.2108 163.045 60.0986C153.205 49.0855 140.503 44.6251 126.236 48.8008C103.138 55.5553 88.6187 71.5718 81.6979 94.3019C80.7853 97.2919 82.4781 102.366 84.7636 104.771C89.2774 109.546 95.05 113.151 98.4917 115.837C116.522 126.069 133.664 130.778 152.142 130.053L152.131 130.046ZM87.7395 88.8871C93.7572 75.6025 102.913 64.9134 115.538 57.5059C134.249 46.5374 153.669 51.3514 165.054 69.7378C172.468 81.7113 174.98 94.8111 172.888 108.703C171.484 118.047 166.559 123.423 156.953 124.967C136.949 128.2 118.81 122.307 100.678 112.216C98.2586 110.417 94.9955 108.105 91.8706 105.642C83.9924 99.4141 83.5448 98.0956 87.7281 88.8802L87.7395 88.8871Z" fill="#FFC079"/>
<path d="M213.744 219.348C225.347 208.102 227.905 192.931 219.267 179.324C214.4 171.663 207.27 165.437 201.169 158.572C200.748 158.956 200.315 159.334 199.894 159.718C198.948 159.142 198.016 158.544 197.056 157.991C182.693 149.741 177.697 150.638 168.848 164.34C158.775 179.953 154.19 197.123 157.044 215.694C158.913 227.824 165.298 233.066 177.473 233.255C191.376 233.48 203.709 229.096 213.763 219.344L213.744 219.348ZM182.489 228.732C167.762 230.067 161.49 224.691 160.695 209.793C159.871 194.253 164.207 180.008 171.38 167.676C178.535 155.911 181.671 154.913 192.82 160.616C201.839 165.226 209.642 171.346 214.997 180.131C223.155 193.525 220.971 207.517 209.106 217.808C201.48 224.415 192.474 227.823 182.489 228.732Z" fill="#FFC079"/>
<path d="M129.059 43.9273C108.583 39.2831 70.4381 76.4288 75.4646 96.8984C83.9457 68.8549 101.754 51.5125 129.059 43.9273Z" fill="#FFC079"/>
<path d="M171.818 253.521C181.934 255.863 211.094 243.815 217.577 234.515C202.42 240.821 186.775 247.313 171.818 253.521Z" fill="#FFC079"/>
<path d="M156.261 158.589C165.926 146.164 178.591 140.233 194.375 141.087C182.661 133.744 158.411 144.936 156.261 158.589Z" fill="#FFC079"/>
<path d="M145.724 142.56C131.046 144.02 117.413 140.554 104.249 134.594C112.717 144.038 135.998 148.64 145.724 142.56Z" fill="#FFC079"/>
<path d="M177.987 146.877C184.221 147.154 190.867 147.448 197.561 147.74C191.866 142.543 182.389 142.386 177.987 146.877Z" fill="#FFC079"/>
</svg>
