<svg width="1920" height="1306" viewBox="0 0 1920 1306" fill="none" xmlns="http://www.w3.org/2000/svg">
<g opacity="0.2">
<line y1="38.8167" x2="753.737" y2="38.8167" stroke="#FFC079" stroke-width="2"/>
<line y1="669.518" x2="753.737" y2="669.518" stroke="#FFC079" stroke-width="2"/>
<line y1="354.168" x2="753.737" y2="354.168" stroke="#FFC079" stroke-width="2"/>
<line y1="984.87" x2="753.737" y2="984.87" stroke="#FFC079" stroke-width="2"/>
<line y1="73.8557" x2="753.737" y2="73.8557" stroke="#FFC079" stroke-width="2"/>
<line y1="704.558" x2="753.737" y2="704.558" stroke="#FFC079" stroke-width="2"/>
<line y1="389.208" x2="753.737" y2="389.208" stroke="#FFC079" stroke-width="2"/>
<line y1="1019.91" x2="753.737" y2="1019.91" stroke="#FFC079" stroke-width="2"/>
<line y1="108.895" x2="753.737" y2="108.895" stroke="#FFC079" stroke-width="2"/>
<line y1="739.597" x2="753.737" y2="739.597" stroke="#FFC079" stroke-width="2"/>
<line y1="424.247" x2="753.737" y2="424.247" stroke="#FFC079" stroke-width="2"/>
<line y1="1054.95" x2="753.737" y2="1054.95" stroke="#FFC079" stroke-width="2"/>
<line y1="143.936" x2="753.737" y2="143.936" stroke="#FFC079" stroke-width="2"/>
<line y1="774.636" x2="753.737" y2="774.636" stroke="#FFC079" stroke-width="2"/>
<line y1="459.284" x2="753.737" y2="459.284" stroke="#FFC079" stroke-width="2"/>
<line y1="1089.99" x2="753.737" y2="1089.99" stroke="#FFC079" stroke-width="2"/>
<line y1="178.973" x2="753.737" y2="178.973" stroke="#FFC079" stroke-width="2"/>
<line y1="809.676" x2="753.737" y2="809.676" stroke="#FFC079" stroke-width="2"/>
<line y1="494.323" x2="753.737" y2="494.323" stroke="#FFC079" stroke-width="2"/>
<line y1="1125.03" x2="753.737" y2="1125.03" stroke="#FFC079" stroke-width="2"/>
<line y1="214.012" x2="753.737" y2="214.012" stroke="#FFC079" stroke-width="2"/>
<line y1="844.715" x2="753.737" y2="844.715" stroke="#FFC079" stroke-width="2"/>
<line y1="529.364" x2="753.737" y2="529.364" stroke="#FFC079" stroke-width="2"/>
<line y1="1160.07" x2="753.737" y2="1160.07" stroke="#FFC079" stroke-width="2"/>
<line y1="249.051" x2="753.737" y2="249.051" stroke="#FFC079" stroke-width="2"/>
<line y1="879.753" x2="753.737" y2="879.753" stroke="#FFC079" stroke-width="2"/>
<line y1="564.402" x2="753.737" y2="564.402" stroke="#FFC079" stroke-width="2"/>
<line y1="1195.1" x2="753.737" y2="1195.1" stroke="#FFC079" stroke-width="2"/>
<line y1="284.09" x2="753.737" y2="284.09" stroke="#FFC079" stroke-width="2"/>
<line y1="914.792" x2="753.737" y2="914.792" stroke="#FFC079" stroke-width="2"/>
<line y1="599.442" x2="753.737" y2="599.442" stroke="#FFC079" stroke-width="2"/>
<line y1="1230.14" x2="753.737" y2="1230.14" stroke="#FFC079" stroke-width="2"/>
<line y1="319.129" x2="753.737" y2="319.129" stroke="#FFC079" stroke-width="2"/>
<line y1="949.832" x2="753.737" y2="949.832" stroke="#FFC079" stroke-width="2"/>
<line y1="634.481" x2="753.737" y2="634.481" stroke="#FFC079" stroke-width="2"/>
<line y1="1265.18" x2="753.737" y2="1265.18" stroke="#FFC079" stroke-width="2"/>
<line x1="393.391" y1="1306" x2="393.391" y2="4.37115e-08" stroke="#FFC079" stroke-width="2"/>
<line x1="78.0352" y1="1306" x2="78.0351" y2="4.37115e-08" stroke="#FFC079" stroke-width="2"/>
<line x1="708.738" y1="1306" x2="708.738" y2="4.37115e-08" stroke="#FFC079" stroke-width="2"/>
<line x1="428.426" y1="1306" x2="428.426" y2="4.37115e-08" stroke="#FFC079" stroke-width="2"/>
<line x1="113.078" y1="1306" x2="113.078" y2="4.37115e-08" stroke="#FFC079" stroke-width="2"/>
<line x1="743.781" y1="1306" x2="743.781" y2="4.37115e-08" stroke="#FFC079" stroke-width="2"/>
<line x1="463.465" y1="1306" x2="463.465" y2="4.37115e-08" stroke="#FFC079" stroke-width="2"/>
<line x1="148.117" y1="1306" x2="148.117" y2="4.37115e-08" stroke="#FFC079" stroke-width="2"/>
<line x1="498.504" y1="1306" x2="498.504" y2="4.37115e-08" stroke="#FFC079" stroke-width="2"/>
<line x1="183.152" y1="1306" x2="183.152" y2="4.37115e-08" stroke="#FFC079" stroke-width="2"/>
<line x1="533.543" y1="1306" x2="533.543" y2="4.37115e-08" stroke="#FFC079" stroke-width="2"/>
<line x1="218.191" y1="1306" x2="218.191" y2="4.37115e-08" stroke="#FFC079" stroke-width="2"/>
<line x1="568.582" y1="1306" x2="568.582" y2="4.37115e-08" stroke="#FFC079" stroke-width="2"/>
<line x1="253.23" y1="1306" x2="253.23" y2="4.37115e-08" stroke="#FFC079" stroke-width="2"/>
<line x1="603.621" y1="1306" x2="603.621" y2="4.37115e-08" stroke="#FFC079" stroke-width="2"/>
<line x1="288.27" y1="1306" x2="288.269" y2="4.37115e-08" stroke="#FFC079" stroke-width="2"/>
<line x1="7.95703" y1="1306" x2="7.95697" y2="4.37115e-08" stroke="#FFC079" stroke-width="2"/>
<line x1="638.66" y1="1306" x2="638.66" y2="4.37115e-08" stroke="#FFC079" stroke-width="2"/>
<line x1="323.309" y1="1306" x2="323.309" y2="4.37115e-08" stroke="#FFC079" stroke-width="2"/>
<line x1="42.9961" y1="1306" x2="42.996" y2="4.37115e-08" stroke="#FFC079" stroke-width="2"/>
<line x1="673.703" y1="1306" x2="673.703" y2="4.37115e-08" stroke="#FFC079" stroke-width="2"/>
<line x1="358.348" y1="1306" x2="358.348" y2="4.37115e-08" stroke="#FFC079" stroke-width="2"/>
<line x1="755.652" y1="38.8164" x2="1509.39" y2="38.8164" stroke="#FFC079" stroke-width="2"/>
<line x1="755.652" y1="669.518" x2="1509.39" y2="669.518" stroke="#FFC079" stroke-width="2"/>
<line x1="755.652" y1="354.168" x2="1509.39" y2="354.168" stroke="#FFC079" stroke-width="2"/>
<line x1="755.652" y1="984.869" x2="1509.39" y2="984.869" stroke="#FFC079" stroke-width="2"/>
<line x1="755.652" y1="73.8555" x2="1509.39" y2="73.8555" stroke="#FFC079" stroke-width="2"/>
<line x1="755.652" y1="704.557" x2="1509.39" y2="704.557" stroke="#FFC079" stroke-width="2"/>
<line x1="755.652" y1="389.207" x2="1509.39" y2="389.207" stroke="#FFC079" stroke-width="2"/>
<line x1="755.652" y1="1019.91" x2="1509.39" y2="1019.91" stroke="#FFC079" stroke-width="2"/>
<line x1="755.652" y1="108.895" x2="1509.39" y2="108.895" stroke="#FFC079" stroke-width="2"/>
<line x1="755.652" y1="739.597" x2="1509.39" y2="739.597" stroke="#FFC079" stroke-width="2"/>
<line x1="755.652" y1="424.247" x2="1509.39" y2="424.247" stroke="#FFC079" stroke-width="2"/>
<line x1="755.652" y1="1054.95" x2="1509.39" y2="1054.95" stroke="#FFC079" stroke-width="2"/>
<line x1="755.652" y1="143.934" x2="1509.39" y2="143.934" stroke="#FFC079" stroke-width="2"/>
<line x1="755.652" y1="774.636" x2="1509.39" y2="774.636" stroke="#FFC079" stroke-width="2"/>
<line x1="755.652" y1="459.284" x2="1509.39" y2="459.284" stroke="#FFC079" stroke-width="2"/>
<line x1="755.652" y1="1089.99" x2="1509.39" y2="1089.99" stroke="#FFC079" stroke-width="2"/>
<line x1="755.652" y1="178.971" x2="1509.39" y2="178.971" stroke="#FFC079" stroke-width="2"/>
<line x1="755.652" y1="809.675" x2="1509.39" y2="809.675" stroke="#FFC079" stroke-width="2"/>
<line x1="755.652" y1="494.323" x2="1509.39" y2="494.323" stroke="#FFC079" stroke-width="2"/>
<line x1="755.652" y1="1125.03" x2="1509.39" y2="1125.03" stroke="#FFC079" stroke-width="2"/>
<line x1="755.652" y1="214.012" x2="1509.39" y2="214.012" stroke="#FFC079" stroke-width="2"/>
<line x1="755.652" y1="844.715" x2="1509.39" y2="844.715" stroke="#FFC079" stroke-width="2"/>
<line x1="755.652" y1="529.362" x2="1509.39" y2="529.362" stroke="#FFC079" stroke-width="2"/>
<line x1="755.652" y1="1160.07" x2="1509.39" y2="1160.07" stroke="#FFC079" stroke-width="2"/>
<line x1="755.652" y1="249.051" x2="1509.39" y2="249.051" stroke="#FFC079" stroke-width="2"/>
<line x1="755.652" y1="879.753" x2="1509.39" y2="879.753" stroke="#FFC079" stroke-width="2"/>
<line x1="755.652" y1="564.402" x2="1509.39" y2="564.402" stroke="#FFC079" stroke-width="2"/>
<line x1="755.652" y1="1195.1" x2="1509.39" y2="1195.1" stroke="#FFC079" stroke-width="2"/>
<line x1="755.652" y1="284.09" x2="1509.39" y2="284.09" stroke="#FFC079" stroke-width="2"/>
<line x1="755.652" y1="914.792" x2="1509.39" y2="914.792" stroke="#FFC079" stroke-width="2"/>
<line x1="755.652" y1="599.441" x2="1509.39" y2="599.441" stroke="#FFC079" stroke-width="2"/>
<line x1="755.652" y1="1230.14" x2="1509.39" y2="1230.14" stroke="#FFC079" stroke-width="2"/>
<line x1="755.652" y1="319.129" x2="1509.39" y2="319.129" stroke="#FFC079" stroke-width="2"/>
<line x1="755.652" y1="949.831" x2="1509.39" y2="949.831" stroke="#FFC079" stroke-width="2"/>
<line x1="755.652" y1="634.481" x2="1509.39" y2="634.481" stroke="#FFC079" stroke-width="2"/>
<line x1="755.652" y1="1265.18" x2="1509.39" y2="1265.18" stroke="#FFC079" stroke-width="2"/>
<line x1="1149.04" y1="1306" x2="1149.04" y2="4.37115e-08" stroke="#FFC079" stroke-width="2"/>
<line x1="833.691" y1="1306" x2="833.691" y2="4.37115e-08" stroke="#FFC079" stroke-width="2"/>
<line x1="1464.39" y1="1306" x2="1464.39" y2="4.37115e-08" stroke="#FFC079" stroke-width="2"/>
<line x1="1184.08" y1="1306" x2="1184.08" y2="4.37115e-08" stroke="#FFC079" stroke-width="2"/>
<line x1="868.73" y1="1306" x2="868.73" y2="4.37115e-08" stroke="#FFC079" stroke-width="2"/>
<line x1="1499.43" y1="1306" x2="1499.43" y2="4.37115e-08" stroke="#FFC079" stroke-width="2"/>
<line x1="1219.12" y1="1306" x2="1219.12" y2="4.37115e-08" stroke="#FFC079" stroke-width="2"/>
<line x1="903.77" y1="1306" x2="903.769" y2="4.37115e-08" stroke="#FFC079" stroke-width="2"/>
<line x1="1254.16" y1="1306" x2="1254.16" y2="4.37115e-08" stroke="#FFC079" stroke-width="2"/>
<line x1="938.805" y1="1306" x2="938.805" y2="4.37115e-08" stroke="#FFC079" stroke-width="2"/>
<line x1="1289.2" y1="1306" x2="1289.2" y2="4.37115e-08" stroke="#FFC079" stroke-width="2"/>
<line x1="973.844" y1="1306" x2="973.844" y2="4.37115e-08" stroke="#FFC079" stroke-width="2"/>
<line x1="1324.23" y1="1306" x2="1324.23" y2="4.37115e-08" stroke="#FFC079" stroke-width="2"/>
<line x1="1008.88" y1="1306" x2="1008.88" y2="4.37115e-08" stroke="#FFC079" stroke-width="2"/>
<line x1="1359.28" y1="1306" x2="1359.28" y2="4.37115e-08" stroke="#FFC079" stroke-width="2"/>
<line x1="1043.92" y1="1306" x2="1043.92" y2="4.37115e-08" stroke="#FFC079" stroke-width="2"/>
<line x1="763.613" y1="1306" x2="763.613" y2="4.37115e-08" stroke="#FFC079" stroke-width="2"/>
<line x1="1394.32" y1="1306" x2="1394.32" y2="4.37115e-08" stroke="#FFC079" stroke-width="2"/>
<line x1="1078.96" y1="1306" x2="1078.96" y2="4.37115e-08" stroke="#FFC079" stroke-width="2"/>
<line x1="798.652" y1="1306" x2="798.652" y2="4.37115e-08" stroke="#FFC079" stroke-width="2"/>
<line x1="1429.36" y1="1306" x2="1429.36" y2="4.37115e-08" stroke="#FFC079" stroke-width="2"/>
<line x1="1114" y1="1306" x2="1114" y2="4.37115e-08" stroke="#FFC079" stroke-width="2"/>
<line x1="1509.11" y1="38.8164" x2="2262.84" y2="38.8164" stroke="#FFC079" stroke-width="2"/>
<line x1="1509.11" y1="669.518" x2="2262.84" y2="669.518" stroke="#FFC079" stroke-width="2"/>
<line x1="1509.11" y1="354.168" x2="2262.84" y2="354.168" stroke="#FFC079" stroke-width="2"/>
<line x1="1509.11" y1="984.869" x2="2262.84" y2="984.869" stroke="#FFC079" stroke-width="2"/>
<line x1="1509.11" y1="73.8555" x2="2262.84" y2="73.8555" stroke="#FFC079" stroke-width="2"/>
<line x1="1509.11" y1="704.557" x2="2262.84" y2="704.557" stroke="#FFC079" stroke-width="2"/>
<line x1="1509.11" y1="389.207" x2="2262.84" y2="389.207" stroke="#FFC079" stroke-width="2"/>
<line x1="1509.11" y1="1019.91" x2="2262.84" y2="1019.91" stroke="#FFC079" stroke-width="2"/>
<line x1="1509.11" y1="108.895" x2="2262.84" y2="108.895" stroke="#FFC079" stroke-width="2"/>
<line x1="1509.11" y1="739.597" x2="2262.84" y2="739.597" stroke="#FFC079" stroke-width="2"/>
<line x1="1509.11" y1="424.247" x2="2262.84" y2="424.247" stroke="#FFC079" stroke-width="2"/>
<line x1="1509.11" y1="1054.95" x2="2262.84" y2="1054.95" stroke="#FFC079" stroke-width="2"/>
<line x1="1509.11" y1="143.934" x2="2262.84" y2="143.934" stroke="#FFC079" stroke-width="2"/>
<line x1="1509.11" y1="774.636" x2="2262.84" y2="774.636" stroke="#FFC079" stroke-width="2"/>
<line x1="1509.11" y1="459.284" x2="2262.84" y2="459.284" stroke="#FFC079" stroke-width="2"/>
<line x1="1509.11" y1="1089.99" x2="2262.84" y2="1089.99" stroke="#FFC079" stroke-width="2"/>
<line x1="1509.11" y1="178.971" x2="2262.84" y2="178.971" stroke="#FFC079" stroke-width="2"/>
<line x1="1509.11" y1="809.675" x2="2262.84" y2="809.675" stroke="#FFC079" stroke-width="2"/>
<line x1="1509.11" y1="494.323" x2="2262.84" y2="494.323" stroke="#FFC079" stroke-width="2"/>
<line x1="1509.11" y1="1125.03" x2="2262.84" y2="1125.03" stroke="#FFC079" stroke-width="2"/>
<line x1="1509.11" y1="214.012" x2="2262.84" y2="214.012" stroke="#FFC079" stroke-width="2"/>
<line x1="1509.11" y1="844.715" x2="2262.84" y2="844.715" stroke="#FFC079" stroke-width="2"/>
<line x1="1509.11" y1="529.362" x2="2262.84" y2="529.362" stroke="#FFC079" stroke-width="2"/>
<line x1="1509.11" y1="1160.07" x2="2262.84" y2="1160.07" stroke="#FFC079" stroke-width="2"/>
<line x1="1509.11" y1="249.051" x2="2262.84" y2="249.051" stroke="#FFC079" stroke-width="2"/>
<line x1="1509.11" y1="879.753" x2="2262.84" y2="879.753" stroke="#FFC079" stroke-width="2"/>
<line x1="1509.11" y1="564.402" x2="2262.84" y2="564.402" stroke="#FFC079" stroke-width="2"/>
<line x1="1509.11" y1="1195.1" x2="2262.84" y2="1195.1" stroke="#FFC079" stroke-width="2"/>
<line x1="1509.11" y1="284.09" x2="2262.84" y2="284.09" stroke="#FFC079" stroke-width="2"/>
<line x1="1509.11" y1="914.792" x2="2262.84" y2="914.792" stroke="#FFC079" stroke-width="2"/>
<line x1="1509.11" y1="599.441" x2="2262.84" y2="599.441" stroke="#FFC079" stroke-width="2"/>
<line x1="1509.11" y1="1230.14" x2="2262.84" y2="1230.14" stroke="#FFC079" stroke-width="2"/>
<line x1="1509.11" y1="319.129" x2="2262.84" y2="319.129" stroke="#FFC079" stroke-width="2"/>
<line x1="1509.11" y1="949.831" x2="2262.84" y2="949.831" stroke="#FFC079" stroke-width="2"/>
<line x1="1509.11" y1="634.481" x2="2262.84" y2="634.481" stroke="#FFC079" stroke-width="2"/>
<line x1="1509.11" y1="1265.18" x2="2262.84" y2="1265.18" stroke="#FFC079" stroke-width="2"/>
<line x1="1902.5" y1="1306" x2="1902.5" y2="4.37115e-08" stroke="#FFC079" stroke-width="2"/>
<line x1="1587.14" y1="1306" x2="1587.14" y2="4.37115e-08" stroke="#FFC079" stroke-width="2"/>
<line x1="1622.18" y1="1306" x2="1622.18" y2="4.37115e-08" stroke="#FFC079" stroke-width="2"/>
<line x1="1657.22" y1="1306" x2="1657.22" y2="4.37115e-08" stroke="#FFC079" stroke-width="2"/>
<line x1="1692.26" y1="1306" x2="1692.26" y2="4.37115e-08" stroke="#FFC079" stroke-width="2"/>
<line x1="1727.3" y1="1306" x2="1727.3" y2="4.37115e-08" stroke="#FFC079" stroke-width="2"/>
<line x1="1762.34" y1="1306" x2="1762.34" y2="4.37115e-08" stroke="#FFC079" stroke-width="2"/>
<line x1="1797.38" y1="1306" x2="1797.38" y2="4.37115e-08" stroke="#FFC079" stroke-width="2"/>
<line x1="1517.07" y1="1306" x2="1517.07" y2="4.37115e-08" stroke="#FFC079" stroke-width="2"/>
<line x1="1832.42" y1="1306" x2="1832.42" y2="4.37115e-08" stroke="#FFC079" stroke-width="2"/>
<line x1="1552.11" y1="1306" x2="1552.11" y2="4.37115e-08" stroke="#FFC079" stroke-width="2"/>
<line x1="1867.46" y1="1306" x2="1867.46" y2="4.37115e-08" stroke="#FFC079" stroke-width="2"/>
</g>
</svg>
