<svg width="146" height="31" viewBox="0 0 146 31" fill="none" xmlns="http://www.w3.org/2000/svg">
<path d="M15.7 2.49998C14.9 1.79998 13.9 1.39998 12.7 1.09998C11.6 0.799976 10.4 0.599976 9 0.599976C8 0.599976 6.7 0.699976 5.3 0.799976C4 0.899976 2.5 1.19998 1.1 1.49998L0 1.69998L0.4 2.79998C0.5 3.39998 0.7 4.09998 0.9 4.99998C1 5.89998 1.1 6.89998 1.1 7.89998C1.1 8.69998 1.2 9.39998 1.2 10.1V12.2C1.2 14.7 1.2 16.8 1.1 18.5C1 20.3 1 21.9 1 23.3C1 24.2 1.4 24.7 1.7 25C2.1 25.3 2.6 25.4 3.3 25.4C3.6 25.4 4 25.4 4.4 25.3C4.7 25.3 5 25.2 5.4 25.2L7.3 24.8L7.1 23.8C7 23.3 6.9 22.9 6.9 22.4C6.8 22 6.8 21.6 6.7 21.2C6.7 20.8 6.6 20.4 6.6 20.1V19.3C6.6 18.9 6.6 18.5 6.6 18.1C6.6 17.7 6.6 17.3 6.6 17C6.8 17 7 17 7.2 17.1H8.1C9.4 17.1 10.7 17 11.9 16.7C13.1 16.4 14.2 15.9 15.2 15.2C16.2 14.5 16.9 13.6 17.5 12.5C18.1 11.4 18.3 10.1 18.3 8.59998C18.3 7.19998 18.1 5.99998 17.6 4.99998C17.3 3.99998 16.6 3.19998 15.7 2.49998ZM12.6 8.69998C12.6 9.79998 12.3 10.6 11.7 11.1C11 11.7 9.9 12 8.5 12C8.2 12 7.8 12 7.5 12C7.2 12 7 12 6.8 11.9C6.8 11 6.8 10.2 6.8 9.49998C6.8 8.49998 6.8 7.69998 6.7 6.99998C6.7 6.49998 6.6 6.09998 6.6 5.69998C6.8 5.69998 7 5.69998 7.2 5.59998C8.3 5.49998 9.5 5.49998 10.5 5.69998C11 5.79998 11.3 5.99998 11.7 6.29998C12 6.49998 12.2 6.79998 12.4 7.19998C12.5 7.59998 12.6 8.09998 12.6 8.69998Z" fill="#E2211C"/>
<path d="M37 20.9C37 20.7 36.9 20.4 36.9 20.2L36.7 19.2L35.7 19.5C34.9 19.7 34.1 19.9 33.4 20C32.3 20.2 30.9 20.1 29.2 20.2H26.8C26.8 19.2 26.8 18.3 26.8 17.5V15.2C27 15.2 27.2 15.2 27.5 15.3L29.4 15.4L31.1 15.5C32.8 15.6 33.9 15.6 34.6 14.9C35.1 14.4 35.3 13.8 35.3 12.8C35.3 12.6 35.3 12.3 35.3 12.1L34.9 10L33.9 10.2C33.7 10.2 33.5 10.3 33.3 10.3C33.1 10.3 32.8 10.3 32.6 10.4H31.7C30.5 10.4 29.4 10.4 28.5 10.4C27.9 10.4 27.4 10.3 26.8 10.3V8.90001C26.8 8.10001 26.8 7.50001 26.8 6.90001C26.8 6.60001 26.8 6.30001 26.8 6.00001C27.6 6.00001 28.4 6.00001 29.2 6.10001C30.4 6.20001 31.5 6.20001 32.6 6.20001C33.8 6.20001 34.6 6.10001 35.1 5.90001C35.5 5.70001 36.3 5.20001 36.3 3.90001C36.3 3.70001 36.3 3.50001 36.3 3.10001C36.3 2.70001 36.2 2.20001 36.1 1.60001L35.9 0.700012L35 0.800012C34.4 0.900012 33.8 0.900012 33.2 1.00001C32.6 1.00001 31.9 1.00001 31.1 1.00001H29.5C28.9 1.00001 28.3 1.00001 27.7 1.00001C27.1 1.00001 26.5 1.00001 25.9 1.00001C24.6 1.00001 23.6 1.00001 22.8 1.00001C22.3 1.00001 21.8 1.10001 21.4 1.20001L20.4 1.40001L20.7 2.40001C20.8 2.70001 20.9 3.00001 20.9 3.20001V3.30001C21 3.50001 21 3.70001 21.1 4.00001C21 4.10001 21 4.40001 21 4.70001C21 5.00001 21.1 5.40001 21.1 5.90001C21.1 6.70001 21.2 7.60001 21.2 8.50001C21.2 9.40001 21.2 10.4 21.2 11.4C21.2 14 21.2 16.3 21.2 18.3C21.2 20.3 21.1 22.2 21 24V25L22 25.1C23.3 25.2 24.7 25.3 26.2 25.3C27.7 25.4 29.1 25.4 30.4 25.4C31.6 25.4 32.7 25.4 33.4 25.4C34.2 25.4 34.9 25.3 35.4 25.2C36.1 25 36.6 24.7 36.8 24.3C37.1 23.9 37.2 23.4 37.2 22.8C37.2 22.4 37.2 22.1 37.1 21.8C37.1 21.4 37 21.2 37 20.9Z" fill="#E2211C"/>
<path d="M60.1 28.4C60.1 28.1 60.1 27.7 60.1 27.4C60.1 26.5 60.1 25.7 60.2 24.8C60.3 23.9 60.3 23 60.3 22.1C60.3 21.4 60.2 21 60 20.8C59.8 20.5 59.4 20.2 58.6 20.2C58.4 20.2 58.1 20.2 58 20.2C57.8 20.2 57.7 20.2 57.6 20.2V13.3C57.6 12.3 57.6 11.4 57.6 10.6C57.6 9.10001 57.7 7.60001 57.8 6.30001C57.9 4.90001 57.9 3.80001 57.9 2.80001C57.9 1.90001 57.5 1.40001 57.2 1.20001C56.6 0.700012 55.6 0.700012 54.2 0.900012C53.6 1.00001 53.1 1.00001 52.7 1.10001L51.9 1.30001V2.20001C51.9 2.70001 52 3.20001 52 3.60001L52.1 4.90001C52.1 5.40001 52.1 5.80001 52.1 6.10001C52.1 7.50001 52.1 8.80001 52.1 10.2C52.1 11.6 52.1 12.9 52.1 14.3C52.1 15.6 52.1 16.9 52.1 18.1C52.1 19 52.1 19.8 52.1 20.5C51.8 20.5 51.5 20.5 51.1 20.5H48.6C47.6 20.5 46.7 20.5 45.9 20.5C45.5 20.5 45.1 20.5 44.8 20.5C44.8 19.3 44.9 18 44.9 16.8L45.1 12C45.2 10.4 45.2 8.80001 45.3 7.20001C45.4 5.60001 45.4 4.00001 45.4 2.50001C45.4 1.90001 45.1 1.40001 44.7 1.10001C44.3 0.900012 43.8 0.700012 43.1 0.700012C42.5 0.700012 41.9 0.800012 41.3 0.900012C40.8 1.00001 40.3 1.10001 39.7 1.20001L38.6 1.40001L38.9 2.40001C39 2.70001 39 2.90001 39.1 3.20001C39.2 3.40001 39.2 3.60001 39.3 3.90001C39.3 4.20001 39.4 4.50001 39.4 4.80001C39.4 5.10001 39.5 5.50001 39.5 5.90001C39.5 6.60001 39.6 7.50001 39.6 8.60001C39.6 9.60001 39.6 10.7 39.6 11.9C39.6 13 39.5 14.2 39.5 15.4C39.5 16.6 39.4 17.7 39.4 18.7C39.4 18.9 39.4 19.2 39.4 19.6L39.2 22V23C39.2 23.3 39.2 23.5 39.2 23.7C39.2 24 39.3 24.3 39.5 24.6L39.6 24.7C39.8 25 40.2 25.2 40.5 25.3C40.8 25.4 41.2 25.5 41.7 25.5C42.3 25.5 42.9 25.6 43.4 25.6L44.8 25.7C45.3 25.7 45.8 25.7 46.3 25.7H48C48.6 25.7 49.3 25.7 50 25.7C50.8 25.7 51.5 25.7 52.2 25.7C53 25.7 53.7 25.7 54.3 25.7C54.5 25.7 54.7 25.7 54.8 25.7C54.8 26.1 54.7 26.4 54.7 26.7C54.6 27.4 54.6 28 54.6 28.4C54.6 29.3 54.8 29.9 55 30.2C55.5 30.9 56.4 31 57.1 31C57.4 31 57.7 31 58.1 30.9C58.5 30.9 59 30.8 59.4 30.6L60.2 30.4L60.1 29.6C60.2 29.1 60.2 28.8 60.1 28.4Z" fill="#E2211C"/>
<path d="M77.9 20.9C77.9 20.7 77.8 20.4 77.8 20.2L77.6 19.2L76.6 19.5C75.8 19.7 75 19.9 74.3 20C73.2 20.2 71.8 20.1 70.1 20.2H67.7C67.7 19.2 67.7 18.3 67.7 17.5V15.2C67.9 15.2 68.1 15.2 68.4 15.3L70.3 15.4L72 15.5C73.7 15.6 74.8 15.6 75.5 14.9C76 14.4 76.2 13.8 76.2 12.8C76.2 12.6 76.2 12.3 76.2 12.1L75.8 10L74.8 10.2C74.6 10.2 74.4 10.3 74.2 10.3C74 10.3 73.7 10.3 73.5 10.4H72.6C71.4 10.4 70.3 10.4 69.4 10.4C68.8 10.4 68.3 10.3 67.7 10.3V8.90001C67.7 8.10001 67.7 7.50001 67.7 6.90001C67.7 6.60001 67.7 6.30001 67.7 6.00001C68.5 6.00001 69.3 6.00001 70.1 6.10001C71.3 6.20001 72.4 6.20001 73.5 6.20001C74.7 6.20001 75.5 6.10001 76 5.90001C76.4 5.70001 77.2 5.20001 77.2 3.90001C77.2 3.70001 77.2 3.50001 77.2 3.10001C77.2 2.70001 77.1 2.20001 77 1.60001L76.8 0.700012L75.9 0.800012C75.3 0.900012 74.7 0.900012 74.1 1.00001C73.5 1.00001 72.8 1.00001 72 1.00001H70.4C69.8 1.00001 69.2 1.00001 68.6 1.00001C68 1.00001 67.4 1.00001 66.8 1.00001C65.5 1.00001 64.5 1.00001 63.7 1.00001C63.2 1.00001 62.7 1.10001 62.3 1.20001L61.3 1.40001L61.6 2.40001C61.7 2.70001 61.8 3.00001 61.8 3.20001V3.30001C61.9 3.50001 61.9 3.70001 62 4.00001C62.1 4.20001 62.1 4.50001 62.1 4.90001C62.1 5.20001 62.2 5.60001 62.2 6.10001C62.2 6.90001 62.3 7.80001 62.3 8.70001C62.3 9.60001 62.3 10.6 62.3 11.6C62.3 14.2 62.3 16.5 62.3 18.5C62.3 20.5 62.2 22.4 62.1 24.2L62 25.2L63 25.3C64.3 25.4 65.7 25.5 67.2 25.5C68.7 25.6 70.1 25.6 71.4 25.6C72.6 25.6 73.7 25.6 74.4 25.6C75.2 25.6 75.9 25.5 76.4 25.4C77.1 25.2 77.6 24.9 77.8 24.5C78.1 24.1 78.2 23.6 78.2 23C78.2 22.6 78.2 22.3 78.1 22C78 21.4 77.9 21.2 77.9 20.9Z" fill="#E2211C"/>
<path d="M99.2 9.90001L99.3 7.20001C99.3 6.30001 99.4 5.40001 99.4 4.70001C99.4 3.90001 99.5 3.40001 99.5 3.00001C99.5 2.00001 99.1 1.50001 98.8 1.30001C98.4 1.00001 98 0.900012 97.4 0.900012C96.7 0.900012 96 0.800012 95.4 0.800012L93.6 0.700012C93 0.700012 92.4 0.700012 91.7 0.700012H89.7C88.1 0.700012 86.6 0.700012 85.2 0.700012C83.8 0.700012 82.3 0.800012 80.7 0.900012L79.4 1.00001L79.7 2.20001C79.9 2.80001 80 3.30001 80.2 4.00001C80.3 4.60001 80.4 5.20001 80.4 6.00001C80.4 6.30001 80.4 7.10001 80.4 8.20001V12.3C80.4 13.4 80.4 14.4 80.3 15.5C80.3 16.6 80.2 17.6 80.2 18.5C80.2 19.5 80.1 20.3 80.1 21.1C80.1 21.9 80.1 22.4 80.1 22.8C80.1 23.7 80.3 24.3 80.6 24.7C81.1 25.3 81.9 25.3 82.5 25.3C82.8 25.3 83.2 25.3 83.8 25.2C84.3 25.2 84.8 25.1 85.2 25L86.1 24.8L86 24C86 23.8 85.9 23.5 85.9 23.1C85.9 22.9 85.8 22.6 85.8 22.2C85.8 21.9 85.8 21.5 85.8 21.1C85.8 18.2 85.8 15.5 85.9 12.8L86.2 5.80001C86.5 5.80001 86.8 5.80001 87.2 5.80001H90.8C91.3 5.80001 91.7 5.80001 92.2 5.80001C92.7 5.80001 93.1 5.80001 93.5 5.80001C93.6 5.80001 93.7 5.80001 93.8 5.80001C93.8 6.80001 93.8 7.90001 93.7 9.10001C93.7 10.7 93.6 12.4 93.6 14.1L93.5 19.2C93.5 20.9 93.5 22.3 93.5 23.5C93.5 24.2 93.8 24.6 94.1 24.9C94.4 25.1 94.9 25.2 95.7 25.2C96 25.2 96.4 25.2 97 25.1C97.6 25.1 98.2 24.9 98.7 24.7L99.5 24.4L99.4 23.6C99.4 23.4 99.3 23.1 99.3 22.8C99.3 22.6 99.2 22.3 99.2 22C99.2 21.6 99.2 21.1 99.1 20.5C99.1 19.3 99 17.9 99 16.4C99 14.9 99.1 13.4 99.1 11.8C99.1 11.5 99.2 10.7 99.2 9.90001Z" fill="#E2211C"/>
<path d="M119.6 0L118.4 0.4C117.8 0.6 116.8 0.8 115.6 0.8C114.3 0.8 112.7 0.9 110.9 0.9H108.9L106.9 0.8C106.2 0.8 105.5 0.8 104.9 0.8C104.2 0.8 103.7 0.8 103.1 0.8C102.3 0.8 101.7 1 101.3 1.5C101 1.9 100.8 2.4 100.8 3.1V3.7V3.8C100.8 4 100.8 4.2 100.9 4.4L101 5.9L101.8 6C102.1 6 102.6 6.1 103.1 6.1C103.6 6.1 104.1 6.2 104.8 6.2L107.6 6.3C107.6 7.2 107.6 8.2 107.5 9.3L107.4 18C107.4 19.4 107.4 20.6 107.4 21.7C107.4 22.2 107.4 22.6 107.4 23.1C107.4 23.6 107.5 23.9 107.6 24.3C107.8 24.7 108.1 25 108.4 25.3L108.5 25.4C108.9 25.6 109.4 25.7 110 25.7C110.3 25.7 110.7 25.7 111.2 25.6C111.7 25.6 112.2 25.5 112.7 25.4L113.6 25.2L113.5 24.3C113.5 24 113.4 23.8 113.4 23.5C113.4 23.3 113.3 23.1 113.3 22.8C113.3 22.5 113.3 22.3 113.3 22C113.3 21.6 113.3 21.1 113.3 20.5C113.3 19.8 113.3 19.2 113.3 18.6V15C113.3 13.5 113.3 12 113.3 10.3C113.3 9 113.3 7.6 113.3 6.3H115.4C115.9 6.3 116.3 6.3 116.8 6.2C117.2 6.2 117.6 6.2 117.9 6.1C118.2 6.1 119.3 6 119.8 5.2C120 4.8 120.2 4.2 120.2 3.5C120.2 3.2 120.2 3 120.2 2.6L119.6 0Z" fill="#E2211C"/>
<path d="M136.5 11.1C135.8 10.5 134.9 10 133.8 9.70001C132 9.10001 129.7 9.10001 127.9 9.40001C127.6 9.50001 127.2 9.50001 126.9 9.60001C126.9 8.50001 126.9 7.50001 126.9 6.60001C126.9 5.40001 126.9 4.30001 126.8 3.40001C126.8 2.60001 126.7 2.00001 126.5 1.60001C126.3 1.20001 125.8 0.700012 124.6 0.700012C124.1 0.700012 123.6 0.700012 123 0.800012C122.4 0.900012 121.8 1.00001 121.1 1.20001L120.1 1.50001L120.6 3.30001V3.40001C120.7 3.50001 120.7 3.70001 120.8 4.00001C120.9 4.20001 120.9 4.50001 120.9 4.80001C121 5.10001 121 5.40001 121 5.90001C121 6.40001 121.1 6.90001 121.1 7.50001C121.1 8.10001 121.2 8.60001 121.2 9.30001C121.2 9.90001 121.3 10.5 121.3 11.1C121.3 11.7 121.3 12.3 121.3 12.8C121.3 14.5 121.3 16.2 121.2 18.1C121.1 19.9 121 21.7 120.9 23.4V24.1L121.6 24.4C122.2 24.6 122.8 24.8 123.5 24.9C124.1 25 124.8 25.2 125.7 25.3C126.5 25.4 127.5 25.4 128.5 25.4C130 25.4 131.3 25.3 132.5 25C133.8 24.7 134.9 24.2 135.8 23.5C136.7 22.8 137.5 21.9 138 20.8C138.5 19.7 138.8 18.4 138.8 16.9C138.8 15.7 138.6 14.5 138.2 13.6C137.9 12.6 137.3 11.8 136.5 11.1ZM133.2 17.2C133.2 17.8 133.1 18.3 132.9 18.6C132.7 19 132.5 19.3 132.1 19.5C131.8 19.8 131.3 20 130.8 20.1C130.3 20.2 129.6 20.3 129 20.3C128.5 20.3 128.1 20.3 127.7 20.2C127.4 20.2 127.1 20.1 126.8 20.1C126.8 19.6 126.9 19.1 126.9 18.6C126.9 17.9 127 17.1 127 16.3V14.6C127.2 14.5 127.5 14.5 127.8 14.4C128.3 14.3 129 14.2 129.8 14.2C130.9 14.2 131.8 14.4 132.3 14.9C132.9 15.5 133.2 16.2 133.2 17.2Z" fill="#E2211C"/>
<path d="M145.9 23.9C145.9 23.5 145.8 22.9 145.8 22.2C145.8 21.4 145.8 20.5 145.7 19.5C145.7 18.5 145.7 17.4 145.7 16.2V12.4C145.7 10.3 145.7 8.40001 145.8 6.70001C145.9 5.00001 145.9 3.70001 145.9 2.80001C145.9 1.80001 145.5 1.40001 145.1 1.10001C144.6 0.800012 143.9 0.700012 143 0.800012C142.7 0.800012 142.3 0.800012 142.1 0.900012C141.8 0.900012 141.5 1.00001 141.1 1.00001C140.8 1.00001 140.5 1.10001 140.3 1.10001L139.4 1.30001L139.5 2.20001C139.5 2.50001 139.6 2.80001 139.7 3.10001C139.7 3.40001 139.8 3.70001 139.8 4.00001C139.8 4.30001 139.9 4.60001 139.9 4.80001C139.9 5.70001 140 6.70001 140 8.00001C140 9.30001 140 10.7 140 12.2C140 13.5 140 14.8 140 15.9L139.9 19.1C139.9 20 139.9 20.9 139.9 21.6C139.9 22.3 139.9 22.9 139.9 23.3C139.9 23.8 140.1 24.3 140.4 24.7C141 25.4 142 25.4 142.3 25.4C142.8 25.4 143.3 25.4 143.8 25.3C144.3 25.2 144.8 25.1 145.2 24.9L145.9 24.6V23.9Z" fill="#E2211C"/>
</svg>
