<svg width="170" height="170" viewBox="0 0 170 170" fill="none" xmlns="http://www.w3.org/2000/svg">
<circle cx="85.0002" cy="85" r="67.069" transform="rotate(18.6569 85.0002 85)" fill="#E2211C"/>
<path d="M45.7128 116.777C46.2797 114.899 47.6177 113.61 48.9784 112.297C50.8607 110.465 52.7203 108.587 54.5572 106.709C54.784 106.482 55.1015 106.03 55.0108 105.826C54.3531 104.039 55.0788 102.681 56.3941 101.437C56.1674 101.165 55.9406 100.916 55.7365 100.69C54.081 98.9027 54.0583 97.07 55.7818 95.3278C58.798 92.2733 61.8369 89.2641 64.8757 86.2322C75.0355 76.0958 85.218 65.9368 95.3777 55.8004C95.7179 55.4611 96.0808 55.099 96.4209 54.7823C98.0991 53.1985 99.9133 53.1985 101.637 54.7597C101.886 54.9859 102.136 55.2122 102.408 55.4837C102.793 55.1669 103.111 54.7597 103.542 54.556C104.199 54.2619 105.107 53.7189 105.628 53.9451C107.261 54.6239 107.941 53.5152 108.803 52.6328C110.481 50.9585 112.182 49.3068 113.815 47.6099C114.972 46.4107 116.196 45.3473 117.829 44.8269C118.509 44.8269 119.19 44.8269 119.87 44.8269C121.888 45.5057 123.521 46.5917 124.134 48.7638C124.746 50.9133 124.179 52.7686 122.614 54.3298C120.256 56.7055 117.874 59.0586 115.516 61.4343C115.289 61.6605 115.04 62.0678 115.085 62.3393C115.38 64.6924 115.357 64.8282 113.724 66.7514C113.951 67.0003 114.201 67.2718 114.45 67.5433C115.992 69.2402 115.992 71.0729 114.382 72.7472C112.931 74.2405 111.456 75.6886 110.005 77.1366C98.1898 88.9473 86.3519 100.735 74.5139 112.546C71.8152 115.239 70.5679 115.261 67.7785 112.772C67.0528 113.225 66.3498 113.745 65.5788 114.085C65.1025 114.288 64.3995 114.379 63.9459 114.198C63.0388 113.813 62.5852 114.243 62.041 114.809C59.9092 116.981 57.6641 119.04 55.6004 121.28C52.0399 125.126 46.5972 123.022 45.8488 118.994C45.8262 118.927 45.7581 118.881 45.7128 118.813C45.7128 118.135 45.7128 117.456 45.7128 116.777ZM65.7375 110.691C65.42 110.374 65.1705 110.103 64.9211 109.831C63.6965 108.609 62.4492 107.41 61.2699 106.143C60.703 105.532 60.6803 104.831 61.2926 104.242C61.8822 103.699 62.5399 103.79 63.1295 104.288C63.3563 104.491 63.5604 104.695 63.7872 104.921C65.8962 107.025 68.0053 109.107 70.0917 111.234C70.7947 111.935 71.3163 112.026 72.0647 111.279C85.4901 97.8619 98.9155 84.4674 112.364 71.0729C113.112 70.3263 113.044 69.8059 112.318 69.1045C110.209 67.0681 108.145 64.9639 106.082 62.8823C105.81 62.6108 105.538 62.3619 105.288 62.0904C104.698 61.4569 104.54 60.7555 105.22 60.0994C105.855 59.4885 106.513 59.6242 107.125 60.1899C107.556 60.5971 107.987 61.027 108.418 61.4569C109.506 62.5882 110.595 63.7195 111.683 64.8282C112.908 63.8553 112.953 63.5837 112.069 62.6787C110.232 60.846 108.372 59.0133 106.558 57.158C105.9 56.5019 105.356 56.3435 104.676 57.1128C102.249 59.8052 102 58.8097 100.163 57.0222C99.165 56.0267 98.9835 56.0267 97.9857 57.0222C84.651 70.3036 71.339 83.6076 58.027 96.889C56.9611 97.9524 56.9611 98.0882 58.027 99.1516C60.2494 101.369 60.2721 101.392 58.095 103.564C57.392 104.265 57.392 104.763 58.095 105.442C59.9546 107.252 61.7688 109.107 63.6284 110.94C64.5129 111.845 64.6716 111.822 65.7375 110.691ZM113.18 59.9184C115.788 57.3164 118.441 54.7823 120.981 52.1351C122.07 51.0038 121.911 49.3295 120.845 48.2887C119.779 47.2479 118.101 47.1574 116.967 48.266C114.382 50.8001 111.819 53.4021 109.211 56.0041C110.549 57.3164 111.842 58.6061 113.18 59.9184ZM56.8931 108.179C54.3304 110.736 51.7678 113.248 49.2732 115.804C48.1166 116.981 48.1166 118.655 49.1598 119.764C50.2484 120.918 51.9946 121.008 53.1965 119.832C55.7818 117.32 58.3218 114.763 60.8844 112.229C59.5464 110.849 58.2537 109.56 56.8931 108.179Z" fill="white" stroke="white"/>
</svg>
