<svg width="319" height="67" viewBox="0 0 319 67" fill="none" xmlns="http://www.w3.org/2000/svg">
<path d="M34.1 5.30001C32.3 3.90001 30.1 2.80001 27.7 2.20001C25.3 1.50001 22.6 1.20001 19.8 1.20001C17.5 1.20001 14.8 1.30001 11.6 1.60001C8.4 2.00001 5.3 2.50001 2.2 3.10001L0 3.60001L0.7 5.70001C1.1 7.00001 1.5 8.70001 1.8 10.7C2.1 12.7 2.3 14.8 2.4 17.1C2.5 18.8 2.5 20.5 2.5 22V26.5C2.5 31.9 2.4 36.5 2.3 40.4C2.2 44.3 2.1 47.7 2.1 50.7C2.1 52.3 2.6 53.5 3.6 54.2L3.7 54.3C4.5 54.9 5.6 55.2 7.2 55.2C7.9 55.2 8.7 55.1 9.5 55C10.2 54.9 10.9 54.8 11.6 54.7L15.6 53.9L15.2 52C15 51 14.9 50 14.7 49C14.6 48.1 14.5 47.3 14.4 46.4C14.3 45.5 14.3 44.7 14.3 43.9V42C14.3 41.2 14.4 40.3 14.4 39.4C14.4 38.5 14.5 37.6 14.5 36.8C14.9 36.9 15.4 36.9 15.9 36.9H18C20.8 36.9 23.6 36.6 26.2 36C28.9 35.3 31.2 34.3 33.3 32.8C35.4 31.3 37 29.4 38.2 27.1C39.4 24.8 40 21.9 40 18.7C40 15.7 39.5 13.1 38.5 11C37.4 8.70001 36 6.80001 34.1 5.30001ZM27.5 18.8C27.5 21.3 26.8 23 25.4 24.3C24 25.6 21.6 26.2 18.3 26.2C17.6 26.2 16.8 26.2 16.2 26.1C15.6 26.1 15 26 14.6 25.9H14.5C14.5 23.9 14.4 22.1 14.4 20.5C14.4 18.4 14.4 16.5 14.3 15.1C14.2 14.1 14.2 13.1 14.1 12.2C14.6 12.1 15.1 12.1 15.6 12.1C16.7 12 17.9 12 19.1 12C20.5 12 21.7 12.1 22.8 12.4C23.8 12.7 24.7 13.1 25.4 13.7C26.1 14.2 26.6 14.8 27 15.7C27.3 16.4 27.5 17.5 27.5 18.8Z" fill="#E2211C"/>
<path d="M80.4001 45.6C80.3001 45.1 80.2001 44.6 80.1001 44.2L79.6001 42.1L77.6001 42.7C75.8001 43.2 74.1001 43.5 72.5001 43.8C70.9001 44 69.0001 44.1 66.9001 44.1C65.8001 44.1 64.6001 44.1 63.3001 44.2H58.0001C58.1001 42 58.1001 40 58.1001 38.1L58.2001 32.9C58.7001 33 59.3001 33 59.9001 33.1L64.0001 33.4C65.3001 33.4 66.5001 33.5 67.7001 33.5C68.9001 33.5 70.0001 33.6 70.9001 33.6C72.8001 33.6 74.2001 33.2 75.2001 32.2C76.2001 31.2 76.6001 29.8 76.6001 27.8C76.6001 27.3 76.6001 26.8 76.5001 26.3C76.5001 25.9 76.4001 25.5 76.4001 25.1C76.4001 24.7 76.3001 24.3 76.3001 23.9L76.0001 21.8L73.9001 22.2C73.4001 22.3 73.0001 22.3 72.5001 22.4C72.0001 22.4 71.5001 22.5 70.9001 22.5H69.0001C66.4001 22.5 64.0001 22.5 62.0001 22.4C60.7001 22.3 59.4001 22.3 58.2001 22.2C58.2001 21.1 58.1001 20.1 58.1001 19.1C58.1001 17.4 58.1001 16 58.0001 14.7C58.0001 13.9 57.9001 13.2 57.9001 12.4C59.7001 12.4 61.6001 12.5 63.4001 12.6C66.0001 12.7 68.5001 12.8 70.7001 12.8C73.4001 12.8 75.1001 12.6 76.2001 12.1C77.1001 11.7 78.6001 10.6 78.6001 7.90001C78.6001 7.60001 78.6001 7.00001 78.5001 6.10001C78.4001 5.20001 78.3001 4.10001 78.0001 2.90001L77.6001 1.10001L75.7001 1.40001C74.4001 1.60001 73.1001 1.70001 71.8001 1.80001C70.5001 1.80001 68.9001 1.90001 67.2001 1.90001H63.7001C62.4001 1.90001 61.0001 1.80001 59.8001 1.80001C58.5001 1.80001 57.1001 1.70001 56.0001 1.70001C54.8001 1.70001 53.7001 1.60001 52.7001 1.60001C51.4001 1.60001 50.2001 1.60001 49.2001 1.70001C48.1001 1.80001 47.0001 1.90001 46.1001 2.10001L44.1001 2.60001L44.7001 4.60001C44.9001 5.20001 45.0001 5.80001 45.2001 6.40001L45.3001 6.60001C45.5001 7.00001 45.6001 7.50001 45.7001 8.10001C45.8001 8.60001 45.9001 9.30001 46.0001 10C46.1001 10.7 46.2001 11.6 46.3001 12.6C46.4001 14.3 46.4001 16.2 46.4001 18.4C46.4001 20.4 46.5001 22.6 46.5001 24.8C46.5001 30.4 46.5001 35.5 46.4001 39.8C46.4001 44.1 46.2001 48.3 46.0001 52.2L45.9001 54.1L47.8001 54.3C50.6001 54.5 53.7001 54.7 56.9001 54.8C60.1001 54.9 63.2001 55 66.0001 55C68.7001 55 70.9001 55 72.6001 54.9C74.4001 54.8 75.9001 54.7 76.9001 54.4C78.4001 54 79.3001 53.4 79.9001 52.5C80.4001 51.7 80.7001 50.7 80.7001 49.4C80.7001 48.6 80.6001 47.9 80.5001 47.2C80.6001 46.6 80.6001 46.1 80.4001 45.6Z" fill="#E2211C"/>
<path d="M131.5 48.2C131.5 46.8 131.3 46 130.8 45.3C130.4 44.7 129.6 44.1 128 44.1C127.5 44.1 127 44.1 126.5 44.2C126.1 44.2 125.8 44.2 125.4 44.2V28.8C125.4 26.7 125.5 24.7 125.5 22.8C125.5 19.5 125.7 16.3 125.8 13.3C126 10.3 126.1 7.80001 126.1 5.80001C126.1 4.00001 125.3 3.00001 124.7 2.50001C123.9 1.90001 122.9 1.60001 121.6 1.60001C120.7 1.60001 119.6 1.70001 118.4 1.80001C117.2 1.90001 116.1 2.10001 115.1 2.30001L113.4 2.60001L113.5 4.30001C113.5 5.40001 113.6 6.50001 113.7 7.50001C113.7 8.40001 113.8 9.30001 113.8 10.4C113.8 11.4 113.9 12.3 113.9 13C113.9 16 113.9 19 113.8 22C113.8 25 113.8 28 113.7 31C113.7 33.9 113.7 36.7 113.6 39.3C113.6 41.2 113.5 43 113.5 44.8C112.8 44.8 112 44.8 111.2 44.9H106C103.8 44.9 101.9 44.9 100.2 44.8C99.3 44.8 98.4 44.7 97.6 44.7C97.7 42 97.7 39.2 97.8 36.4L98.2 25.9C98.3 22.4 98.5 18.9 98.6 15.5C98.7 12 98.8 8.50001 98.8 5.30001C98.8 4.00001 98.2 3.00001 97.2 2.40001C96.4 1.90001 95.4 1.70001 93.9 1.70001C92.6 1.70001 91.3 1.80001 90.1 2.10001C89.1 2.30001 87.9 2.60001 86.6 2.90001L84.5 3.40001L85.1 5.50001C85.3 6.10001 85.4 6.60001 85.6 7.10001V7.20001C85.8 7.50001 85.9 8.00001 86 8.60001C86.1 9.20001 86.2 9.90001 86.3 10.6C86.4 11.3 86.5 12.1 86.5 13.1C86.6 14.7 86.6 16.7 86.6 19C86.6 21.3 86.6 23.7 86.5 26.2C86.5 28.7 86.4 31.3 86.3 33.9C86.3 36.4 86.2 38.9 86.1 41.1C86.1 41.6 86.1 42.3 86 43C86 43.7 85.9 44.5 85.9 45.3L85.8 47.7V49.9C85.8 50.4 85.8 51 85.9 51.4C86 52.1 86.2 52.7 86.6 53.2L86.7 53.4C87.2 54 87.8 54.4 88.6 54.6C89.3 54.8 90.1 55 91.1 55.1C92.5 55.2 93.7 55.2 94.8 55.2C95.9 55.2 96.9 55.3 97.9 55.3C98.9 55.3 100 55.4 101.1 55.4H104.8C106.1 55.4 107.6 55.4 109.1 55.3C110.7 55.3 112.4 55.3 113.9 55.2C115.5 55.2 117.1 55.2 118.6 55.1C119.1 55.1 119.6 55.1 120 55.1C119.9 56 119.8 56.8 119.8 57.6C119.7 59.2 119.6 60.4 119.6 61.2C119.6 63.1 119.9 64.3 120.5 65.1C121.5 66.5 123.5 66.7 124.9 66.7C125.5 66.7 126.2 66.6 127.1 66.5C128 66.4 129 66.2 129.9 65.9L131.5 65.4L131.3 63.7C131.2 63.1 131.1 62.4 131.1 61.6C131.1 60.9 131 60.1 131 59.3C131 57.4 131.1 55.5 131.2 53.7C131.4 52.2 131.5 50.2 131.5 48.2Z" fill="#E2211C"/>
<path d="M169.9 45.6C169.8 45.1 169.7 44.6 169.6 44.2L169.1 42.2L167.1 42.8C165.3 43.3 163.6 43.6 162 43.9C160.4 44.1 158.5 44.2 156.4 44.2C155.3 44.2 154.1 44.2 152.8 44.3H147.4C147.5 42.1 147.5 40.1 147.5 38.2L147.6 33C148.1 33.1 148.7 33.1 149.3 33.2L153.4 33.5C154.7 33.5 155.9 33.6 157.1 33.6C158.3 33.6 159.4 33.7 160.3 33.7C162.2 33.7 163.6 33.3 164.6 32.3C165.6 31.3 166 29.9 166 27.9C166 27.4 166 26.9 165.9 26.4C165.9 26 165.8 25.6 165.8 25.2C165.8 24.8 165.7 24.4 165.7 24L165.4 21.9L163.3 22.3C162.8 22.4 162.4 22.4 161.9 22.5C161.4 22.5 160.9 22.6 160.3 22.6H158.4C155.8 22.6 153.4 22.6 151.4 22.5C150.1 22.4 148.8 22.4 147.6 22.3C147.6 21.2 147.5 20.2 147.5 19.2C147.5 17.5 147.5 16.1 147.4 14.8C147.4 14 147.3 13.3 147.3 12.5C149.1 12.5 151 12.6 152.8 12.7C155.4 12.8 157.9 12.9 160.1 12.9C162.8 12.9 164.5 12.7 165.6 12.2C166.5 11.8 168 10.7 168 8.00001C168 7.70001 168 7.10001 167.9 6.20001C167.8 5.30001 167.7 4.20001 167.4 3.00001L167 1.20001L165.2 1.50001C163.9 1.70001 162.6 1.80001 161.3 1.90001C160 1.90001 158.4 2.00001 156.7 2.00001H153.2C151.9 2.00001 150.5 1.90001 149.3 1.90001C148 1.90001 146.6 1.80001 145.5 1.80001C144.3 1.80001 143.2 1.70001 142.2 1.70001C140.9 1.70001 139.7 1.70001 138.7 1.80001C137.6 1.90001 136.5 2.00001 135.6 2.20001L133.6 2.70001L134.2 4.70001C134.4 5.30001 134.5 5.90001 134.7 6.50001L134.8 6.70001C135 7.10001 135.1 7.60001 135.2 8.20001C135.3 8.70001 135.4 9.40001 135.5 10.1C135.6 10.8 135.7 11.7 135.8 12.7C135.9 14.4 135.9 16.3 135.9 18.4C135.9 20.4 136 22.6 136 24.8C136 30.4 136 35.5 135.9 39.8C135.9 44.1 135.7 48.3 135.5 52.2L135.4 54.1L137.3 54.3C140.1 54.5 143.2 54.7 146.4 54.8C149.6 54.9 152.7 55 155.5 55C158.2 55 160.4 55 162.1 54.9C163.9 54.8 165.4 54.7 166.4 54.4C167.9 54 168.8 53.4 169.4 52.5C169.9 51.7 170.2 50.7 170.2 49.4C170.2 48.6 170.1 47.9 170 47.2C170.1 46.6 170 46.1 169.9 45.6Z" fill="#E2211C"/>
<path d="M216.5 21.3C216.6 19.3 216.7 17.3 216.8 15.3C216.9 13.3 217 11.4 217 9.89999C217.1 8.19999 217.1 6.99999 217.1 6.19999C217.1 4.19999 216.2 3.19999 215.5 2.69999C214.7 2.19999 213.7 1.89999 212.5 1.79999C210.9 1.69999 209.5 1.59999 208.1 1.59999L204.2 1.49999C202.9 1.49999 201.5 1.39999 200.1 1.39999H195.6C192.1 1.39999 188.8 1.39999 185.8 1.49999C182.8 1.49999 179.5 1.69999 176.1 1.99999L173.6 2.19999L174.3 4.59999C174.7 5.79999 175 7.09999 175.3 8.49999C175.6 9.79999 175.8 11.2 175.8 12.9C175.8 13.4 175.9 14.7 175.9 17.8V26.8C175.9 29.1 175.9 31.4 175.8 33.8C175.8 36.2 175.7 38.4 175.5 40.5C175.4 42.6 175.3 44.4 175.2 46.1C175.2 47.8 175.1 49 175.1 49.8C175.1 51.8 175.4 53 176.2 53.9C177.2 55.1 179 55.2 180.3 55.2C181 55.2 181.9 55.2 183.1 55.1C184.3 55 185.3 54.8 186.2 54.6L188 54.2L187.7 52.4C187.6 51.9 187.5 51.3 187.4 50.5C187.3 50 187.3 49.3 187.2 48.6C187.2 47.8 187.1 47 187.1 46.1C187.1 39.9 187.2 33.8 187.4 28C187.6 22.8 187.8 17.6 188 12.4C188.7 12.4 189.5 12.4 190.3 12.4H198.1C199.1 12.4 200.1 12.4 201.2 12.5C202.2 12.5 203.2 12.5 204.1 12.6C204.4 12.6 204.6 12.6 204.8 12.6C204.8 14.8 204.7 17.2 204.7 20C204.7 23.5 204.6 27.2 204.4 31C204.3 34.8 204.2 38.6 204.1 42.2C204.1 45.8 204 49 204 51.7C204 53.2 204.6 54 205.1 54.4L205.2 54.5C205.9 55 206.9 55.2 208.7 55.2C209.4 55.2 210.3 55.2 211.5 55.1C212.8 55 214.1 54.7 215.3 54.3L216.8 53.8L216.6 52.2C216.6 51.8 216.5 51.2 216.4 50.5C216.3 50.1 216.3 49.5 216.2 48.7C216.2 47.8 216.1 46.8 216.1 45.5C216 42.8 216 39.7 216 36.4C216 33.1 216.1 29.7 216.2 26.4C216.4 24.9 216.5 23.2 216.5 21.3Z" fill="#E2211C"/>
<path d="M261.5 4.1C261.5 3.6 261.4 3.1 261.4 2.5L261.1 0L258.7 0.8C257.3 1.3 255.2 1.6 252.6 1.7C249.8 1.8 246.3 1.8 242.3 1.8H238L233.5 1.7C232 1.7 230.6 1.6 229.2 1.6H229.1C227.7 1.6 226.4 1.5 225.2 1.5C223.5 1.5 222.3 2 221.5 2.9C220.8 3.7 220.4 4.8 220.4 6.3V7.6V7.8C220.4 8.3 220.5 8.7 220.5 9.1C220.5 9.6 220.6 10.1 220.6 10.6L220.8 12.2L222.4 12.4C223.1 12.5 224 12.6 225.2 12.7C226.3 12.8 227.5 12.9 228.8 13L235.1 13.2C235.1 15.3 235 17.5 235 19.9L234.7 38.9C234.7 41.9 234.6 44.6 234.6 47C234.6 48 234.6 49 234.7 49.8V49.9C234.8 50.9 235 51.6 235.1 52.2L235.2 52.4C235.6 53.3 236.2 53.9 236.9 54.4L237.1 54.5C237.9 54.9 238.9 55.1 240.4 55.1C241.1 55.1 242 55.1 242.9 55C244 54.9 245.1 54.8 246 54.5L247.7 54L247.4 52.3C247.3 51.7 247.2 51.2 247.1 50.5C247 50.1 247 49.6 246.9 49C246.9 48.4 246.8 47.9 246.8 47.3C246.8 46.4 246.8 45.3 246.7 43.9C246.7 42.5 246.7 41 246.6 39.7V32.5C246.6 29.3 246.6 25.9 246.7 22.2C246.7 19.3 246.8 16.3 246.8 13.3H251.5C252.6 13.3 253.6 13.2 254.5 13.2C255.5 13.2 256.2 13.1 256.9 13.1C258.9 12.9 260.1 12.3 260.9 11.1C261.4 10.2 261.7 9.1 261.7 7.6C261.7 7 261.7 6.4 261.6 5.8C261.5 5.1 261.5 4.6 261.5 4.1Z" fill="#E2211C"/>
<path d="M318.7 51.9C318.6 51 318.5 49.7 318.5 48.1C318.5 46.4 318.4 44.4 318.4 42.2C318.4 39.9 318.3 37.5 318.3 35V26.7C318.3 22 318.4 17.9 318.6 14.3C318.8 10.6 318.9 7.7 318.9 5.7C318.9 3.7 318 2.7 317.2 2.2C316.4 1.7 315.4 1.5 314.3 1.5C313.9 1.5 313.3 1.5 312.6 1.6C311.9 1.6 311.3 1.7 310.6 1.7C309.9 1.8 309.2 1.8 308.5 1.9C307.9 2 307.3 2.1 306.8 2.2L305 2.7L305.3 4.6C305.4 5.3 305.5 6 305.7 6.7C305.8 7.3 305.9 7.9 306 8.6C306.1 9.3 306.2 9.9 306.2 10.5C306.3 12.4 306.4 14.8 306.4 17.6C306.4 20.4 306.5 23.5 306.5 26.7C306.5 29.6 306.5 32.3 306.4 34.9C306.4 37.4 306.3 39.7 306.3 41.9C306.3 43.9 306.3 45.8 306.2 47.3C306.2 48.9 306.1 50.1 306.1 51C306.1 52.1 306.4 53 307.1 53.9C307.9 54.9 309.2 55.3 311.1 55.3C312.1 55.3 313.3 55.2 314.4 55C315.6 54.8 316.6 54.5 317.5 54.2L319 53.7L318.7 51.9Z" fill="#E2211C"/>
<path d="M298.3 24.2C296.7 22.8 294.8 21.8 292.6 21.1C290.5 20.4 288.1 20.1 285.6 20.1C283.5 20.1 281.6 20.3 279.8 20.5C279 20.6 278.2 20.8 277.5 20.9C277.5 18.3 277.5 16.1 277.5 14C277.5 11.3 277.5 8.90001 277.4 6.90001C277.3 5.20001 277.1 4.00001 276.7 3.10001C276.3 2.20001 275.2 1.20001 272.8 1.20001C271.8 1.20001 270.6 1.30001 269.3 1.50001C268 1.70001 266.6 2.00001 265.2 2.40001L263.2 2.90001L263.8 4.90001C264 5.50001 264.1 6.10001 264.3 6.60001L264.4 6.80001C264.5 7.10001 264.6 7.50001 264.7 8.00001V8.20001C264.8 8.70001 264.9 9.30001 265 9.90001V10C265.1 10.6 265.2 11.4 265.3 12.4C265.4 13.4 265.5 14.6 265.5 15.9C265.6 17.1 265.7 18.4 265.7 19.8C265.8 21.1 265.8 22.4 265.8 23.8C265.8 25.1 265.9 26.4 265.9 27.6C265.9 31.3 265.8 35.1 265.6 39.1C265.4 43.1 265.2 47 265 50.6L264.9 52.1L266.3 52.6C267.5 53 269 53.4 270.5 53.8C271.8 54.1 273.4 54.4 275.2 54.6C277 54.8 279.1 54.9 281.3 54.9C284.5 54.9 287.4 54.6 290 53.9C292.8 53.2 295.2 52.2 297.2 50.7C299.2 49.2 300.8 47.2 301.9 44.8C303 42.4 303.6 39.6 303.6 36.4C303.6 33.7 303.1 31.3 302.2 29.3C301.3 27.4 300 25.6 298.3 24.2ZM291.2 37.3C291.2 38.6 291 39.7 290.6 40.5C290.2 41.3 289.6 42 288.8 42.6C288 43.2 287.1 43.6 286 43.9C284.8 44.2 283.4 44.3 281.9 44.3C280.9 44.3 279.9 44.3 279.1 44.2C278.3 44.1 277.6 44 277 43.9H276.9C277 42.8 277.1 41.7 277.1 40.6C277.2 39.1 277.3 37.4 277.3 35.6L277.4 31.7C278 31.6 278.6 31.4 279.3 31.3C280.5 31 282 30.9 283.8 30.9C286.4 30.9 288.3 31.5 289.5 32.6C290.7 33.5 291.2 35.1 291.2 37.3Z" fill="#E2211C"/>
</svg>
