<svg width="437" height="300" viewBox="0 0 437 300" fill="none" xmlns="http://www.w3.org/2000/svg">
<path d="M29.7461 264.534C29.6979 263.042 29.7965 261.471 29.4548 260.138C28.1433 254.208 29.002 248.431 31.8288 243.486C39.104 230.633 49.2809 222.092 64.7057 221.146C68.7285 220.866 72.8307 220.734 76.0474 218.614C75.8355 214.365 75.5562 210.342 75.6499 206.307C75.7409 195.254 80.3913 186.667 88.8986 179.598C101.265 169.492 114.37 161.453 128.086 153.843C139.014 147.741 149.465 140.758 160.008 134.295C166.668 130.123 173.26 126.177 179.84 121.858C191.906 114.002 203.745 106.078 215.89 98.3691C224.966 92.7002 234.279 87.4716 243.207 81.8821C252.576 76.0544 261.56 69.8659 271.008 64.185C281.551 57.722 291.935 50.9656 303.76 47.2238C313.665 44.1413 323.171 44.8796 331.874 50.7956C332.791 51.4379 333.854 52.0009 335.223 52.7779C340.923 48.9354 344.856 43.5819 346.956 36.9437C348.989 30.5316 351.939 24.762 356.868 20.1976C366.355 11.0809 377.158 10.3587 388.863 14.4604C390.526 15.0787 391.986 16.3755 393.367 17.5255C395.598 19.544 397.761 21.7887 399.991 23.8072C402.833 26.254 403.901 29.2807 403.716 32.7958C403.598 36.0848 403.56 39.5206 403.149 42.9684C402.381 49.2649 398.864 53.6343 393.116 55.9852C388.328 58.0064 383.143 59.2938 378.197 61.0215C369.624 63.7623 361.993 67.8913 356.322 74.9435C354.811 76.7095 352.995 78.2614 351.686 79.349C351.47 84.2091 351.535 88.5375 351.08 92.9573C350.048 102.622 344.775 110.408 338.811 117.619C335.868 121.298 331.319 123.76 327.38 126.649C314.898 135.489 302.19 144.262 289.482 153.035C279.11 160.164 268.726 166.921 258.196 173.757C246.344 181.307 234.175 188.27 222.244 195.674C216.826 198.985 211.725 202.883 206.319 206.567C200.179 210.647 193.734 214.514 187.594 218.595C176.849 225.736 166.568 233.385 155.812 240.154C148.498 244.87 140.731 249.451 132.623 252.7C123.408 256.357 113.792 256.817 104.795 251.06C102.736 249.708 100.315 248.741 98.3232 247.163C96.4104 245.731 95.0052 243.835 93.0009 241.884C91.4347 244.249 89.7891 246.468 88.3697 248.753C87.66 249.896 86.9503 251.039 86.4667 252.249C80.6832 265.054 69.6881 271.382 57.117 275.148C49.5719 277.333 42.0099 276.681 35.4221 271.518C34.7315 270.943 33.6801 270.753 32.696 270.337C31.6517 268.056 30.6989 266.295 29.7461 264.534ZM98.2603 238.28C102.69 243.662 108.753 246.452 115.141 247.739C121.45 248.879 127.833 247.703 133.85 244.447C143.243 239.365 152.171 233.776 160.929 227.52C171.582 219.859 182.779 212.852 193.897 205.699C209.54 195.338 225.263 185.124 240.986 174.91C248.006 170.352 255.197 166.462 262.139 161.758C277.702 151.25 293.266 140.743 308.445 129.874C317.496 123.459 326.706 117.338 334.193 108.734C339.594 102.587 342.655 95.6187 342.921 87.6957C343.094 83.8076 342.216 79.7295 340.897 75.8896C339.817 72.49 337.416 69.805 335.669 66.5763C330.575 56.8106 319.591 51.9389 308.837 54.1529C297.416 56.5377 288.15 63.258 278.329 68.9509C263.09 77.9547 248.328 87.8391 233.327 97.2833C224.251 102.952 215.323 108.542 206.248 114.21C187.657 125.786 169.079 137.735 150.329 149.018C138.613 156.116 126.419 162.333 114.079 168.63C105.341 173.169 97.5433 179.095 89.9839 185.461C86.7913 188.327 83.9163 191.78 83.6085 196.12C82.988 202.337 83.1134 208.53 82.9452 214.882C88.5944 214.102 88.8853 206.925 94.7727 206.586C94.8882 207.851 95.0711 208.891 94.9485 209.716C93.9189 214.826 91.1354 218.799 86.2802 221.046C79.7312 224.02 73.0355 227.074 65.4975 227.168C53.3377 227.486 45.0445 234.249 38.9385 244.003C36.3137 248.269 35.2721 253.007 36.3334 258.124C37.7123 263.829 40.8714 266.863 46.6483 267.721C51.1475 268.323 55.4638 267.885 59.4264 265.741C73.7296 257.812 72.1875 260.923 80.5092 245.797C81.3536 244.201 82.3449 242.527 83.4949 241.146C86.5719 237.015 90.1928 233.538 94.9806 231.517C97.7812 230.381 100.74 229.539 103.503 231.839C103.782 235.861 99.9059 236.061 98.2603 238.28ZM339.91 56.8824C343.276 61.7014 346.416 66.4531 349.783 71.2722C350.223 71.034 350.81 70.7164 351.091 70.1846C358.487 61.0608 368.57 56.554 379.368 53.368C382.101 52.4584 384.835 51.5489 387.568 50.6393C392.741 48.9789 395.243 45.5383 395.808 39.9203C396.496 33.477 395.22 28.6651 390.589 23.9616C384.564 17.7351 374.637 15.5172 367.005 19.6462C360.547 23.14 355.709 28.224 354.085 35.7428C352.596 42.8092 349.048 48.5236 343.757 53.4729C342.821 54.5485 341.366 55.7154 339.91 56.8824Z" fill="#FFC079"/>
<path d="M88.6174 191.703C91.8101 188.837 94.6347 188.447 97.3246 188.509C102.998 188.475 108.346 189.945 112.795 193.609C119.169 199.078 124.369 205.182 127.244 213.302C129.71 220.315 132.324 227.249 132.791 234.775C132.93 236.786 132.257 239.048 131.877 241.151C131.742 241.603 130.421 242.318 129.822 242.263C129.223 242.207 128.52 241.259 128.349 240.593C127.928 239.113 128.027 237.542 127.979 236.05C127.293 226.366 125.793 216.933 120.815 208.432C115.678 199.639 108.412 194.274 98.2944 193.107C95.2989 192.831 92.3708 192.328 88.6174 191.703Z" fill="#FFC079"/>
<path d="M135.752 229.378C131.25 221.759 132.037 213.744 129.76 205.68C136.158 211.894 139.209 223.144 135.752 229.378Z" fill="#FFC079"/>
<path d="M142.683 208.174C146.802 210.878 147.57 216.155 145.073 222.059C142.176 220.211 141.249 214.641 142.683 208.174Z" fill="#FFC079"/>
<path d="M327.86 95.2752C329.552 99.1031 328.779 102.936 327.555 106.634C327.353 107.312 326.02 107.654 325.366 108.198C324.889 107.317 323.734 106.235 323.79 105.636C324.574 102.176 325.652 98.5571 326.662 95.1646C327.035 95.1525 327.408 95.1405 327.86 95.2752Z" fill="#FFC079"/>
<path d="M321.725 101.82C321.754 105.029 321.93 108.16 321.812 111.448C321.781 112.793 321.162 114.456 319.353 113.917C318.674 113.715 317.948 112.021 318.07 111.196C318.28 108.427 318.794 105.872 319.456 103.237C319.658 102.558 320.392 102.161 320.82 101.55C321.046 101.618 321.419 101.606 321.725 101.82Z" fill="#FFC079"/>
<path d="M182.004 198.094C182.29 200.026 182.791 201.652 182.692 203.223C182.637 203.822 181.848 204.819 181.328 204.91C180.662 205.081 179.305 204.677 179.066 204.236C178.474 202.09 177.95 199.718 177.731 197.56C177.719 197.187 178.813 196.405 179.186 196.393C180.17 196.809 181.087 197.451 182.004 198.094Z" fill="#FFC079"/>
<path d="M188.765 199.369C185.348 197.612 185.784 194.911 185.699 192.3C185.687 191.927 186.409 191.157 186.929 191.066C187.448 190.974 188.433 191.39 188.591 191.684C189.195 194.203 190.985 196.46 188.765 199.369Z" fill="#FFC079"/>
<path d="M310.885 117.551C311.058 113.662 312.092 111.016 314.233 107.96C315.588 112.919 314.566 115.938 310.885 117.551Z" fill="#FFC079"/>
<path d="M56.3485 258.299C50.9687 258.174 49.3374 256.211 49.9387 251.712C53.6127 252.19 53.7211 255.547 56.3485 258.299Z" fill="#FFC079"/>
<path d="M61.4426 256.492C59.5538 255.806 58.2089 255.775 57.8119 255.041C56.9505 253.8 56.45 252.173 55.8821 250.773C55.8027 250.626 57.1909 249.686 57.1909 249.686C58.2664 250.622 59.3419 251.557 60.1239 252.652C60.6004 253.533 60.7833 254.572 61.4426 256.492Z" fill="#FFC079"/>
<path d="M193.944 195.618C192.912 193.71 192.198 192.389 191.086 190.334C192.804 190.353 194.057 189.865 194.668 190.293C196.288 191.883 195.669 193.546 193.944 195.618Z" fill="#FFC079"/>
<path d="M307.228 119.909C306.195 118.001 306 116.588 307.976 115.33C310.432 117.416 309.35 118.571 307.228 119.909Z" fill="#FFC079"/>
<path d="M376.192 47.4976C374.267 45.6931 374.354 43.7491 374.587 41.7257C374.722 41.2733 375.59 40.424 375.816 40.4913C376.495 40.6934 377.479 41.1096 377.65 41.7761C378.388 43.8428 377.623 45.5847 376.192 47.4976Z" fill="#FFC079"/>
<path d="M381.691 39.7789C384.081 42.0909 383.169 43.9123 381.377 46.2101C379.574 43.5804 379.141 41.7278 381.691 39.7789Z" fill="#FFC079"/>
<path d="M368.787 51.6939C368.794 49.6031 368.88 47.659 369.077 44.5168C372.011 47.4833 371.63 49.5861 370.505 51.713C369.759 51.7371 369.239 51.8286 368.787 51.6939Z" fill="#FFC079"/>
</svg>
