<svg width="209" height="123" viewBox="0 0 209 123" fill="none" xmlns="http://www.w3.org/2000/svg">
<g clip-path="url(#clip0_643_866)">
<path d="M4.5 30.3992C5.9 31.7992 7.5 32.7992 9.4 33.4992C11.2 34.1992 13.2 34.4992 15.3 34.4992C16.4 34.4992 17.5 34.3992 18.5 34.1992C19.6 33.9992 20.5 33.6992 21.4 33.3992C22.3 32.9992 23 32.5992 23.6 32.0992C24.5 31.2992 24.7 30.4992 24.7 29.8992C24.7 29.2992 24.6 28.5992 24.3 27.8992C24.1 27.0992 23.7 26.4992 23.3 25.8992L22.6 24.9992L21.8 25.5992C21.1 26.0992 20.2 26.5992 19.2 27.0992C18.2 27.5992 16.9 27.7992 15.4 27.7992C12.9 27.7992 11 26.9992 9.5 25.2992C8 23.4992 7.3 20.9992 7.3 17.6992C7.3 15.9992 7.5 14.3992 7.9 13.0992C8.3 11.7992 8.9 10.6992 9.6 9.79922C10.3 8.89922 11.1 8.19922 12 7.79922C12.9 7.29922 13.9 7.09922 14.9 7.09922C15.6 7.09922 16.2 7.09922 16.8 7.19922C17.4 7.29922 17.9 7.29922 18.4 7.39922C18.9 7.49922 19.3 7.49922 19.7 7.59922C20.2 7.69922 20.7 7.69922 21.2 7.69922C22.4 7.69922 23.3 7.09922 23.7 5.99922C24 5.19922 24.2 3.89922 24.2 1.99922V0.999219H23.2C22.6 0.999219 22.1 0.999219 21.5 0.999219C20.9 0.899219 20.3 0.899219 19.7 0.899219C19.1 0.799219 18.4 0.799219 17.7 0.799219C17 0.699219 16.1 0.699219 15.2 0.699219C12.7 0.699219 10.5 1.19922 8.6 2.19922C6.7 3.09922 5.1 4.39922 3.8 5.99922C2.6 7.59922 1.6 9.49922 0.9 11.6992C0.3 13.7992 0 15.8992 0 18.1992C0 20.8992 0.4 23.1992 1.2 25.2992C2 27.2992 3.1 28.9992 4.5 30.3992Z" fill="#E2211C"/>
<path d="M28.3 32.4992L28.2 33.4992L29.2 33.5992C31 33.6992 32.9 33.8992 34.9 33.8992C36.9 33.9992 38.9 33.9992 40.6 33.9992C42.3 33.9992 43.7 33.9992 44.8 33.9992C45.9 33.9992 46.8 33.8992 47.5 33.6992C48.4 33.4992 48.9 33.0992 49.2 32.5992C49.5 32.0992 49.7 31.4992 49.7 30.7992C49.7 30.2992 49.7 29.7992 49.6 29.4992C49.6 29.0992 49.5 28.6992 49.5 28.3992C49.4 28.0992 49.4 27.7992 49.3 27.4992L49.1 26.4992L48.1 26.7992C47 27.0992 45.9 27.2992 44.9 27.4992C43.4 27.6992 41.5 27.6992 39.1 27.7992H35.4C35.4 26.2992 35.5 24.9992 35.5 23.6992L35.6 20.0992C36 20.0992 36.5 20.1992 36.9 20.1992L39.4 20.3992L41.7 20.4992C42.4 20.4992 43.1 20.4992 43.7 20.4992C44.8 20.4992 45.6 20.2992 46.2 19.6992C46.8 19.0992 47 18.2992 47 17.0992C47 16.7992 47 16.4992 47 16.1992C47 15.8992 46.9 15.6992 46.9 15.4992L46.7 13.6992L45.7 13.8992C45.4 13.9992 45.1 13.9992 44.8 13.9992C44.5 13.9992 44.1 14.0992 43.8 14.0992H42.6C40.9 14.0992 39.5 14.0992 38.2 14.0992C37.3 14.0992 36.4 13.9992 35.6 13.9992L35.5 11.7992C35.5 10.7992 35.5 9.79922 35.5 8.99922C35.5 8.39922 35.5 7.79922 35.4 7.29922C36.7 7.29922 37.9 7.39922 39.1 7.39922C40.7 7.49922 42.3 7.49922 43.7 7.49922C45.3 7.49922 46.4 7.39922 47.1 7.09922C47.6 6.89922 48.5 6.29922 48.5 4.69922C48.5 4.49922 48.5 4.09922 48.5 3.59922C48.5 2.99922 48.4 2.39922 48.2 1.59922L48 0.699219L47.1 0.799219C46 0.899219 45.2 0.999219 44.4 0.999219C43.6 0.999219 42.6 0.999219 41.5 0.999219H39.3C38.5 0.999219 37.7 0.999219 36.8 0.999219C36 0.999219 35.1 0.999219 34.4 0.999219C32.6 0.899219 31.3 0.899219 30.1 0.999219C29.4 0.999219 28.8 1.09922 28.2 1.19922L27.2 1.39922L27.5 2.39922C27.6 2.79922 27.7 3.19922 27.8 3.49922V3.59922C27.9 3.89922 28 4.19922 28.1 4.59922C28.2 4.89922 28.2 5.39922 28.3 5.79922C28.4 6.29922 28.4 6.79922 28.5 7.39922C28.6 8.49922 28.6 9.69922 28.6 10.9992C28.6 12.2992 28.6 13.5992 28.6 14.9992C28.6 18.4992 28.6 21.6992 28.6 24.3992C28.5 27.3992 28.5 29.9992 28.3 32.4992Z" fill="#E2211C"/>
<path d="M53.2 3.99981C53.3 4.29981 53.4 4.59981 53.5 5.09981C53.6 5.39981 53.7 5.79981 53.7 6.19981C53.8 6.69981 53.8 7.19981 53.8 7.79981C53.8 9.49981 53.8 11.2998 53.8 13.2998C53.8 15.1998 53.8 17.0998 53.8 19.0998L53.7 24.9998C53.7 26.8998 53.7 28.7998 53.7 30.4998C53.7 31.7998 53.9 32.5998 54.4 33.1998C54.9 33.6998 55.7 33.9998 56.9 33.9998C57.3 33.9998 57.9 33.9998 58.5 33.8998C59.1 33.7998 59.7 33.6998 60.3 33.5998L61.3 33.3998L61.1 32.3998C61 32.0998 61 31.6998 60.9 31.3998C60.8 31.0998 60.8 30.7998 60.8 30.4998C60.8 30.0998 60.8 29.6998 60.8 29.2998V24.6998C60.8 23.0998 60.8 21.3998 60.9 19.5998C61.2 19.5998 61.4 19.5998 61.7 19.6998C62.2 19.6998 62.6 19.7998 63 19.8998C63.3 19.8998 63.6 19.9998 63.8 20.0998C64.1 20.1998 64.3 20.3998 64.6 20.4998C65.2 20.9998 65.8 21.8998 66.4 23.0998C67.1 24.4998 67.9 26.0998 68.8 27.8998C69.4 28.9998 69.9 29.9998 70.3 30.6998C70.7 31.4998 71.2 32.0998 71.7 32.5998C72.2 33.0998 72.8 33.4998 73.4 33.6998C74 33.8998 74.7 33.9998 75.5 33.9998C76.7 33.9998 77.6 33.6998 78.1 33.0998C78.7 32.4998 78.9 31.5998 78.9 30.4998C78.9 30.0998 78.9 29.7998 78.9 29.4998C78.9 29.1998 78.8 28.8998 78.8 28.6998C78.8 28.3998 78.7 28.0998 78.7 27.8998L78.6 26.9998H77.7C77.3 26.9998 77 26.9998 76.7 26.8998C76.5 26.8998 76.4 26.7998 76.3 26.6998C76.1 26.4998 75.9 26.2998 75.7 25.9998C75.5 25.5998 75.2 25.0998 74.9 24.4998C74 23.1998 73.4 21.9998 72.8 20.9998C72.3 19.9998 71.7 19.0998 71.3 18.3998C70.8 17.6998 70.4 17.0998 69.9 16.5998C69.7 16.3998 69.5 16.1998 69.2 15.9998C69.9 14.9998 70.5 13.9998 71.1 13.1998C71.8 12.0998 72.6 11.0998 73.3 10.1998C74.1 9.29981 74.9 8.29981 75.7 7.49981C76.5 6.59981 77.4 5.69981 78.4 4.69981L79.2 3.99981L78.5 3.29981C78.3 3.09981 78 2.89981 77.8 2.59981L77.2 2.09981C76.9 1.79981 76.7 1.59981 76.3 1.29981C75.1 0.39981 74.1 0.39981 73.4 0.59981C72.5 0.79981 71.7 1.39981 70.8 2.49981C70.2 3.29981 69.5 4.19981 68.9 5.09981C68.3 5.99981 67.6 6.99981 66.9 8.09981C66.3 9.09981 65.6 10.1998 65 11.2998C64.5 12.1998 63.9 13.0998 63.4 13.9998C63 13.9998 62.6 13.9998 62.1 13.9998C61.7 13.9998 61.3 13.9998 60.8 13.8998C60.8 12.6998 60.8 11.4998 60.8 10.3998C60.8 8.99981 60.9 7.69981 60.9 6.69981C60.9 5.39981 61 4.29981 61 3.09981C61 2.59981 60.8 0.79981 58.4 0.79981C57.8 0.79981 57.2 0.79981 56.7 0.89981C56.1 0.99981 55.6 0.99981 55.1 1.09981C54.6 1.19981 54.1 1.29981 53.6 1.49981L52.6 1.79981L52.9 2.79981C53 3.29981 53.1 3.69981 53.2 3.99981Z" fill="#E2211C"/>
<path d="M81.6 6.29922C81.8 7.49922 81.9 8.89922 82 10.3992C82.1 11.4992 82.1 12.4992 82.1 13.4992V16.3992C82.1 19.7992 82.1 22.6992 82 25.0992C81.9 27.4992 81.9 29.6992 81.9 31.5992C81.9 32.4992 82.2 33.1992 82.8 33.6992C83.3 33.9992 83.9 34.1992 84.8 34.1992C85.3 34.1992 85.7 34.1992 86.2 34.0992C86.6 33.9992 87.1 33.9992 87.5 33.8992L89.8 33.3992L89.6 32.3992C89.5 31.7992 89.4 31.0992 89.3 30.4992C89.2 29.9992 89.1 29.3992 89.1 28.7992C89 28.1992 89 27.6992 89 27.1992V26.0992C89 25.5992 89 24.9992 89 24.4992C89 23.8992 89 23.2992 89 22.7992C89 22.6992 89 22.5992 89 22.5992C89.3 22.6992 89.7 22.6992 90.2 22.6992H91.4C93.2 22.6992 94.9 22.4992 96.5 22.0992C98.1 21.6992 99.6 20.9992 100.8 20.0992C102.1 19.1992 103.1 17.9992 103.8 16.5992C104.5 15.1992 104.9 13.3992 104.9 11.3992C104.9 9.59922 104.6 7.99922 104 6.59922C103.4 5.19922 102.5 4.09922 101.4 3.19922C100.3 2.29922 99 1.69922 97.4 1.29922C95.9 0.899219 94.3 0.699219 92.5 0.699219C91.1 0.699219 89.4 0.799219 87.4 0.999219C85.5 1.19922 83.5 1.49922 81.6 1.89922L80.5 2.09922L80.9 3.19922C81.2 3.99922 81.4 5.09922 81.6 6.29922ZM88.7 7.09922C89.1 6.99922 89.5 6.99922 89.9 6.89922C91.4 6.79922 93.2 6.69922 94.5 7.09922C95.2 7.29922 95.8 7.49922 96.3 7.89922C96.8 8.19922 97.1 8.69922 97.4 9.19922C97.7 9.79922 97.8 10.4992 97.8 11.2992C97.8 12.8992 97.3 14.0992 96.4 14.8992C95.4 15.6992 93.9 16.0992 91.8 16.0992C91.3 16.0992 90.9 16.0992 90.5 16.0992C90.1 16.0992 89.8 15.9992 89.4 15.9992C89.3 15.9992 89.2 15.9992 89.1 15.9992C89.1 14.6992 89.1 13.4992 89 12.3992C89 11.0992 89 9.89922 88.9 8.99922C88.8 8.39922 88.8 7.69922 88.7 7.09922Z" fill="#E2211C"/>
<path d="M108.9 3.60039C109 4.00039 109.1 4.30039 109.2 4.70039C109.3 5.00039 109.3 5.50039 109.4 5.90039C109.5 6.40039 109.5 6.90039 109.6 7.50039C109.7 8.60039 109.7 9.80039 109.7 11.1004C109.7 12.4004 109.7 13.7004 109.7 15.1004C109.7 18.6004 109.7 21.8004 109.7 24.5004C109.7 27.2004 109.6 29.9004 109.4 32.3004L109.3 33.3004L110.3 33.4004C112.1 33.5004 114 33.7004 116 33.7004C118 33.8004 120 33.8004 121.7 33.8004C123.4 33.8004 124.8 33.8004 125.9 33.8004C127 33.8004 127.9 33.7004 128.6 33.5004C129.5 33.3004 130 32.9004 130.3 32.4004C130.6 31.9004 130.8 31.3004 130.8 30.6004C130.8 30.1004 130.8 29.6004 130.7 29.3004C130.7 28.9004 130.6 28.5004 130.6 28.2004C130.5 27.9004 130.5 27.6004 130.4 27.3004L130.2 26.3004L129.2 26.6004C128.1 26.9004 127 27.1004 126 27.3004C124.5 27.5004 122.6 27.5004 120.2 27.6004H116.5C116.5 26.1004 116.6 24.7004 116.6 23.5004L116.7 19.9004C117.1 19.9004 117.6 20.0004 118 20.0004L120.5 20.2004L122.8 20.3004C123.5 20.3004 124.2 20.3004 124.8 20.3004C125.9 20.3004 126.7 20.1004 127.3 19.5004C127.9 18.9004 128.1 18.1004 128.1 16.9004C128.1 16.6004 128.1 16.3004 128 16.0004L127.7 13.4004L126.7 13.6004C126.4 13.7004 126.1 13.7004 125.8 13.7004C125.5 13.7004 125.1 13.8004 124.8 13.8004H123.6C121.9 13.8004 120.5 13.8004 119.2 13.8004C118.3 13.8004 117.4 13.7004 116.6 13.7004L116.5 11.5004C116.5 10.5004 116.5 9.50039 116.5 8.70039C116.5 8.10039 116.5 7.50039 116.4 7.00039C117.7 7.00039 118.9 7.10039 120.1 7.10039C121.7 7.20039 123.3 7.20039 124.7 7.20039C126.3 7.20039 127.4 7.10039 128.1 6.80039C128.6 6.60039 129.5 6.00039 129.5 4.40039C129.5 4.20039 129.5 3.80039 129.5 3.30039C129.5 2.70039 129.4 2.10039 129.2 1.30039L129 0.400391L128.1 0.500391C127.3 0.600391 126.4 0.700391 125.6 0.800391C124.8 0.800391 123.8 0.800391 122.7 0.800391H120.5C119.7 0.800391 118.8 0.800391 118 0.800391C117.2 0.800391 116.4 0.800391 115.6 0.800391C113.8 0.700391 112.5 0.700391 111.3 0.800391C110.6 0.800391 110 0.900391 109.4 1.00039L108.4 1.20039L108.7 2.20039C108.7 2.90039 108.8 3.30039 108.9 3.60039Z" fill="#E2211C"/>
<path d="M130.8 7L131.6 7.1C132.1 7.2 132.6 7.2 133.3 7.3C134 7.4 134.7 7.4 135.6 7.5L139.8 7.6C139.8 9 139.8 10.5 139.7 12.1L139.5 24.1C139.5 26 139.5 27.7 139.5 29.2C139.5 29.8 139.5 30.4 139.5 31C139.6 31.6 139.7 32.1 139.8 32.4V32.5C140 33 140.4 33.4 140.8 33.7L140.9 33.8C141.3 34 142 34.1 142.8 34.1C143.2 34.1 143.8 34.1 144.4 34C145.1 34 145.7 33.9 146.3 33.7L147.2 33.5L147.1 32.6C147 32.3 147 31.9 146.9 31.5C146.8 31.2 146.8 30.9 146.8 30.5C146.8 30.1 146.8 29.8 146.8 29.4C146.8 28.8 146.8 28.1 146.8 27.3C146.8 26.4 146.8 25.5 146.8 24.7V20.2C146.8 18.2 146.8 16 146.8 13.7C146.8 11.7 146.8 9.8 146.8 7.8H150C150.7 7.8 151.3 7.7 151.9 7.7C152.5 7.7 153 7.6 153.4 7.6C154.6 7.5 155.3 7.1 155.7 6.5C156 6 156.1 5.3 156.1 4.4C156.1 4.1 156.1 3.7 156.1 3.3C156.1 2.9 156 2.6 156 2.3C156 2 155.9 1.6 155.9 1.3L155.6 0L154.4 0.4C153.5 0.7 152.1 0.9 150.5 1C148.7 1.1 146.6 1.1 144 1.1H141.3L138.5 1C137.6 1 136.6 0.9 135.7 1C134.8 1 134 1 133.2 1C132.2 1 131.5 1.3 131 1.8C130.6 2.3 130.4 2.9 130.4 3.7V4.6L130.8 7Z" fill="#E2211C"/>
<path d="M184.1 3.80013C184.2 4.20013 184.2 4.60013 184.3 5.00013C184.4 5.40013 184.4 5.80013 184.4 6.20013C184.5 7.40013 184.5 8.90013 184.5 10.7001C184.5 12.5001 184.5 14.4001 184.5 16.4001C184.5 18.2001 184.5 19.9001 184.5 21.5001C184.5 23.1001 184.4 24.5001 184.4 25.9001C184.4 27.2001 184.4 28.3001 184.4 29.3001C184.4 30.3001 184.4 31.1001 184.4 31.6001C184.4 32.2001 184.6 32.8001 185 33.2001C185.4 33.7001 186.2 34.0001 187.3 34.0001C187.9 34.0001 188.6 33.9001 189.3 33.8001C190 33.7001 190.7 33.5001 191.2 33.3001L191.9 33.0001L191.8 32.2001C191.7 31.6001 191.7 30.8001 191.7 29.8001C191.7 28.7001 191.6 27.5001 191.6 26.1001C191.6 24.7001 191.6 23.2001 191.6 21.5001V16.3001C191.6 13.3001 191.7 10.7001 191.8 8.50013C191.9 6.20013 192 4.40013 192 3.10013C192 1.90013 191.5 1.40013 191.1 1.10013C190.5 0.70013 189.6 0.60013 188.4 0.70013C188 0.70013 187.5 0.70013 187.1 0.800131C186.7 0.800131 186.2 0.90013 185.8 0.90013C185.4 1.00013 185 1.00013 184.7 1.10013L183.8 1.30013L183.9 2.20013C183.9 2.90013 184 3.30013 184.1 3.80013Z" fill="#E2211C"/>
<path d="M158 3.80078V3.90078C158.1 4.10078 158.2 4.40078 158.2 4.70078V4.80078C158.3 5.10078 158.3 5.50078 158.4 6.00078C158.5 6.40078 158.5 6.90078 158.6 7.60078C158.7 8.30078 158.7 9.00078 158.7 9.80078C158.8 10.6008 158.8 11.4008 158.8 12.3008C158.9 13.1008 158.9 14.0008 158.9 14.8008C158.9 15.6008 158.9 16.4008 158.9 17.2008C158.9 19.5008 158.8 21.9008 158.7 24.5008C158.6 27.0008 158.5 29.4008 158.3 31.7008V32.4008L159 32.7008C159.8 33.0008 160.7 33.2008 161.6 33.4008C162.4 33.6008 163.4 33.8008 164.5 33.9008C165.6 34.0008 166.9 34.1008 168.3 34.1008C170.3 34.1008 172.1 33.9008 173.7 33.5008C175.4 33.1008 176.9 32.4008 178.1 31.5008C179.3 30.6008 180.3 29.3008 181 27.9008C181.7 26.5008 182 24.7008 182 22.7008C182 21.0008 181.7 19.6008 181.2 18.3008C180.6 17.0008 179.8 15.9008 178.8 15.1008C177.8 14.2008 176.6 13.6008 175.3 13.2008C174 12.8008 172.5 12.6008 171 12.6008C169.7 12.6008 168.5 12.7008 167.4 12.9008C166.8 13.0008 166.2 13.1008 165.6 13.2008C165.6 11.5008 165.6 9.90078 165.6 8.60078C165.6 6.90078 165.6 5.40078 165.5 4.20078C165.5 3.10078 165.3 2.40078 165.1 1.90078C164.9 1.40078 164.3 0.800781 162.9 0.800781C162.3 0.800781 161.5 0.900781 160.7 1.00078C159.9 1.10078 159 1.30078 158.1 1.60078L157.1 1.90078L157.4 2.90078C157.8 3.10078 157.9 3.50078 158 3.80078ZM165.5 27.5008C165.6 26.7008 165.6 26.0008 165.7 25.2008C165.8 24.3008 165.8 23.2008 165.8 22.1008L165.9 19.4008C166.3 19.3008 166.8 19.2008 167.3 19.1008C168.1 18.9008 169 18.8008 170.2 18.8008C171.9 18.8008 173.1 19.2008 173.9 19.9008C174.7 20.6008 175.1 21.6008 175.1 23.1008C175.1 23.9008 175 24.7008 174.7 25.2008C174.4 25.8008 174 26.2008 173.5 26.6008C173 27.0008 172.4 27.3008 171.6 27.5008C170.8 27.7008 169.9 27.8008 169 27.8008C168.3 27.8008 167.7 27.8008 167.2 27.7008C166.7 27.6008 166.3 27.6008 165.9 27.5008C165.7 27.5008 165.6 27.5008 165.5 27.5008Z" fill="#E2211C"/>
<path d="M23.8 62.6996C23.3 61.9996 22.6 61.2996 21.8 60.6996C21.5 60.4996 21.1 60.2996 20.8 60.0996C21.5 59.4996 22.1 58.8996 22.6 58.0996C23.4 56.7996 23.8 55.2996 23.8 53.6996C23.8 51.8996 23.5 50.3996 22.8 49.1996C22 47.9996 21.1 47.0996 20 46.3996C18.9 45.6996 17.6 45.1996 16.2 44.9996C14.9 44.7996 13.4 44.5996 11.9 44.5996C8.90001 44.5996 5.50001 44.9996 1.70001 45.8996L0.700012 46.0996L1.00001 47.0996C1.10001 47.4996 1.20001 47.8996 1.30001 48.2996C1.40001 48.6996 1.40001 48.9996 1.50001 49.4996C1.50001 49.9996 1.60001 50.3996 1.60001 50.9996C1.70001 51.4996 1.70001 52.0996 1.70001 52.8996C1.80001 54.0996 1.80001 55.2996 1.80001 56.4996V60.1996C1.80001 62.8996 1.80001 65.5996 1.70001 68.1996C1.60001 70.7996 1.60001 73.2996 1.50001 75.7996V76.4996L2.20001 76.6996C3.10001 76.9996 4.00001 77.2996 5.10001 77.4996C6.00001 77.6996 7.00001 77.8996 8.20001 77.9996C9.40001 78.1996 10.7 78.1996 12.1 78.1996C14.3 78.1996 16.2 77.8996 17.8 77.4996C19.4 76.9996 20.8 76.2996 22 75.2996C23.1 74.2996 23.9 73.1996 24.5 71.7996C25 70.4996 25.3 68.9996 25.3 67.4996C25.3 66.6996 25.2 65.7996 25 65.0996C24.6 64.2996 24.3 63.4996 23.8 62.6996ZM15.4 56.9996C14.6 57.7996 13.2 58.0996 11.2 58.0996H8.80001C8.80001 57.1996 8.80001 56.3996 8.70001 55.5996C8.70001 54.4996 8.70001 53.5996 8.70001 52.7996C8.70001 52.0996 8.70001 51.4996 8.60001 50.9996C8.90001 50.8996 9.20001 50.8996 9.60001 50.8996C10.2 50.7996 10.9 50.7996 11.7 50.7996C13.4 50.7996 14.7 51.0996 15.6 51.6996C16.3 52.1996 16.7 52.9996 16.7 54.2996C16.6 55.3996 16.2 56.2996 15.4 56.9996ZM8.50001 69.5996C8.60001 68.6996 8.60001 67.6996 8.60001 66.5996L8.70001 63.9996C9.10001 63.9996 9.50001 63.9996 9.90001 63.9996H11.6C12.6 63.9996 13.5 64.0996 14.4 64.1996C15.2 64.2996 15.8 64.4996 16.4 64.8996C16.9 65.1996 17.3 65.5996 17.6 66.0996C17.9 66.5996 18 67.1996 18 67.8996C18 69.3996 17.6 70.4996 16.8 71.0996C15.9 71.7996 14.5 72.0996 12.5 72.0996C11.8 72.0996 11.2 72.0996 10.7 71.9996C10 71.9996 9.50001 71.8996 9.00001 71.7996C8.80001 71.7996 8.60001 71.6996 8.30001 71.5996C8.40001 70.9996 8.50001 70.2996 8.50001 69.5996Z" fill="#E2211C"/>
<path d="M70.4 74.6002C71.4 73.4002 72.4 72.0002 73.3 70.4002C74.2 68.8002 75.2 66.9002 76.2 64.8002C76.6 63.9002 77 63.0002 77.4 61.9002C77.8 60.8002 78.3 59.7002 78.7 58.6002C79.1 57.4002 79.5 56.3002 79.8 55.2002C80.2 54.1002 80.5 53.0002 80.8 52.0002C81.1 51.0002 81.3 50.1002 81.5 49.3002C81.7 48.5002 81.8 47.8002 81.8 47.4002C81.8 46.0002 81 45.4002 80.6 45.3002C80 45.0002 79.3 44.9002 78.3 44.9002C77.8 44.9002 77.4 44.9002 77.1 45.0002C76.7 45.0002 76.4 45.1002 76.1 45.1002C75.8 45.2002 75.5 45.2002 75.2 45.3002L74.5 45.5002V46.2002C74.4 47.3002 74.3 48.7002 73.9 50.3002C73.6 51.9002 73.2 53.6002 72.7 55.3002C72.2 57.0002 71.7 58.7002 71.1 60.4002C70.8 61.2002 70.6 61.9002 70.3 62.5002C69.9 61.6002 69.5 60.7002 69.1 59.8002C68.3 58.1002 67.5 56.5002 66.8 55.1002C66 53.6002 65.3 52.1002 64.5 50.7002C63.7 49.3002 63 48.1002 62.4 47.1002C62 46.4002 61.6 45.8002 61.2 45.5002C60.4 44.7002 58.9 44.5002 57.3 45.2002C56.8 45.4002 56.4 45.7002 55.9 46.0002C55.4 46.3002 54.9 46.7002 54.4 47.1002L54.3 47.2002C54.1 47.0002 53.8 46.8002 53.6 46.5002L53 46.0002C52.7 45.7002 52.5 45.5002 52.1 45.2002C50.9 44.3002 49.9 44.3002 49.2 44.5002C48.3 44.7002 47.5 45.3002 46.6 46.4002C46 47.2002 45.3 48.1002 44.7 49.0002C44.1 49.9002 43.4 50.9002 42.7 52.0002C42.1 53.0002 41.4 54.1002 40.8 55.2002C40.3 56.1002 39.7 57.0002 39.2 57.9002C38.8 57.9002 38.4 57.9002 37.9 57.9002C37.5 57.9002 37.1 57.9002 36.6 57.8002C36.6 56.6002 36.6 55.4002 36.6 54.3002C36.6 52.9002 36.7 51.6002 36.7 50.6002C36.7 49.3002 36.8 48.2002 36.8 47.0002C36.8 46.5002 36.6 44.7002 34.2 44.7002C33.6 44.7002 33 44.7002 32.5 44.8002C31.9 44.9002 31.4 44.9002 30.9 45.0002C30.4 45.1002 29.9 45.2002 29.4 45.4002L28.4 45.7002L28.7 46.7002C28.8 47.1002 28.9 47.5002 29.1 47.8002C29.2 48.1002 29.3 48.4002 29.4 48.9002C29.5 49.2002 29.6 49.6002 29.6 50.0002C29.7 50.5002 29.7 51.0002 29.7 51.6002C29.7 53.3002 29.7 55.1002 29.7 57.1002C29.7 59.0002 29.7 60.9002 29.7 62.9002L29.6 69.0002C29.6 70.9002 29.6 72.8002 29.6 74.5002C29.6 75.8002 29.8 76.6002 30.3 77.2002C30.8 77.7002 31.6 78.0002 32.8 78.0002C33.2 78.0002 33.8 78.0002 34.4 77.9002C35 77.8002 35.6 77.7002 36.2 77.6002L37.2 77.4002L37 76.4002C36.9 76.1002 36.9 75.7002 36.8 75.4002C36.7 75.1002 36.7 74.8002 36.7 74.5002C36.7 74.1002 36.7 73.7002 36.7 73.3002V68.7002C36.7 67.1002 36.7 65.4002 36.8 63.6002C37.1 63.6002 37.3 63.6002 37.6 63.7002C38.1 63.7002 38.5 63.8002 38.9 63.9002C39.2 63.9002 39.5 64.0002 39.7 64.1002C40 64.2002 40.2 64.4002 40.5 64.5002C41.1 65.0002 41.7 65.9002 42.3 67.1002C43 68.5002 43.8 70.1002 44.7 71.9002C45.3 73.0002 45.8 74.0002 46.2 74.7002C46.6 75.5002 47.1 76.1002 47.6 76.6002C48.1 77.1002 48.7 77.5002 49.3 77.7002C49.9 77.9002 50.6 78.0002 51.4 78.0002C52.6 78.0002 53.5 77.7002 54 77.1002C54.6 76.5002 54.8 75.6002 54.8 74.5002C54.8 74.1002 54.8 73.8002 54.8 73.5002C54.8 73.2002 54.7 72.9002 54.7 72.7002C54.7 72.4002 54.6 72.1002 54.6 71.9002L54.5 71.0002H53.6C53.2 71.0002 52.9 71.0002 52.6 70.9002C52.4 70.9002 52.3 70.8002 52.2 70.7002C52 70.5002 51.8 70.3002 51.6 70.0002C51.4 69.7002 51.1 69.2002 50.8 68.5002C50 67.2002 49.4 66.0002 48.8 65.0002C48.3 64.0002 47.7 63.1002 47.3 62.4002C46.8 61.7002 46.4 61.1002 45.9 60.6002C45.7 60.4002 45.5 60.2002 45.2 60.0002C45.9 59.0002 46.5 58.0002 47.1 57.2002C47.8 56.1002 48.6 55.1002 49.3 54.2002C50.1 53.3002 50.9 52.3002 51.7 51.5002C52.5 50.6002 53.4 49.7002 54.4 48.7002C56.6 51.8002 58.8 55.2002 60.8 58.7002C62.8 62.1002 64.6 65.8002 66.3 69.7002C65.4 70.8002 64.3 71.3002 63.1 71.3002C62.7 71.3002 62.3 71.3002 62 71.2002C61.8 71.2002 61.5 71.0002 61 70.7002L60.1 70.2002L59.6 71.1002C59.2 71.7002 59 72.4002 58.7 73.1002C58.5 73.8002 58.3 74.5002 58.3 75.1002C58.3 76.9002 59.3 77.6002 59.9 77.9002C60.7 78.3002 61.8 78.5002 63 78.5002C64.4 78.5002 65.8 78.2002 67 77.5002C68.3 76.7002 69.4 75.8002 70.4 74.6002Z" fill="#E2211C"/>
<path d="M104.7 77.4008C105.6 77.0008 106.3 76.6008 106.9 76.1008C107.8 75.3008 108 74.5008 108 73.9008C108 73.3008 107.9 72.6008 107.6 71.9008C107.4 71.1008 107 70.5008 106.6 69.9008L106 69.1008L105.2 69.7008C104.5 70.2008 103.6 70.7008 102.6 71.2008C101.6 71.7008 100.3 71.9008 98.8 71.9008C96.3 71.9008 94.4 71.1008 92.9 69.4008C91.4 67.6008 90.7 65.1008 90.7 61.8008C90.7 60.1008 90.9 58.5008 91.3 57.2008C91.7 55.9008 92.3 54.8008 93 53.9008C93.7 53.0008 94.5 52.3008 95.4 51.9008C96.3 51.4008 97.3 51.2008 98.3 51.2008C99 51.2008 99.6 51.2008 100.2 51.3008C100.8 51.4008 101.3 51.4008 101.8 51.5008C102.3 51.6008 102.7 51.6008 103.1 51.7008C103.6 51.8008 104.1 51.8008 104.6 51.8008C105.8 51.8008 106.7 51.2008 107.1 50.1008C107.4 49.3008 107.6 48.0008 107.6 46.1008V45.1008H106.6C106 45.1008 105.5 45.1008 104.9 45.1008C104.3 45.0008 103.7 45.0008 103.1 45.0008C102.5 44.9008 101.8 44.9008 101.1 44.9008C100.4 44.8008 99.5 44.8008 98.6 44.8008C96.1 44.8008 93.9 45.3008 92 46.3008C90.1 47.3008 88.5 48.6008 87.2 50.2008C86 51.8008 85 53.7008 84.3 55.9008C83.7 58.0008 83.4 60.2008 83.4 62.4008C83.4 65.1008 83.8 67.4008 84.6 69.5008C85.4 71.5008 86.5 73.2008 87.9 74.6008C89.3 76.0008 90.9 77.0008 92.8 77.7008C94.6 78.4008 96.6 78.7008 98.7 78.7008C99.8 78.7008 100.9 78.6008 101.9 78.4008C102.8 78.0008 103.8 77.7008 104.7 77.4008Z" fill="#E2211C"/>
<path d="M130.3 64.6008C130.3 65.3008 130.3 65.9008 130.3 66.8008C130.3 67.6008 130.3 68.4008 130.3 69.3008C130.3 70.2008 130.3 71.0008 130.3 71.9008V75.6008C130.3 76.2008 130.5 76.8008 130.9 77.2008C131.3 77.7008 132.1 78.0008 133.2 78.0008C133.8 78.0008 134.5 77.9008 135.2 77.8008C135.9 77.7008 136.6 77.5008 137.1 77.3008L137.9 77.0008L137.8 76.2008C137.7 75.7008 137.6 74.8008 137.6 73.6008C137.6 72.3008 137.5 70.9008 137.5 69.4008C137.5 67.8008 137.5 66.2008 137.5 64.6008V60.0008C137.5 59.1008 137.5 58.0008 137.5 56.8008L137.7 53.1008C137.8 51.9008 137.8 50.7008 137.8 49.7008C137.9 48.6008 137.9 47.8008 137.9 47.1008C137.9 45.9008 137.4 45.4008 137 45.2008C136.2 44.7008 134.9 44.7008 133.2 44.9008C132.4 45.0008 131.6 45.1008 131 45.2008L130.2 45.4008L130.3 46.2008C130.4 47.1008 130.4 47.9008 130.5 48.7008C130.6 49.4008 130.6 50.0008 130.6 50.8008C130.7 51.5008 130.7 52.0008 130.7 52.4008V57.7008C129.8 57.6008 128.9 57.6008 128 57.5008C125.8 57.4008 123.5 57.4008 121.2 57.5008C120.5 57.5008 119.8 57.6008 119 57.6008C119 57.1008 119.1 56.5008 119.1 55.9008C119.2 54.7008 119.2 53.5008 119.2 52.3008C119.3 51.1008 119.3 49.9008 119.3 48.8008C119.3 47.7008 119.3 46.9008 119.3 46.3008C119.3 45.5008 118.7 44.8008 117.9 44.7008C116.6 44.5008 115.4 44.6008 114.2 44.8008C113.4 44.9008 112.6 45.1008 111.8 45.3008L110.8 45.5008L111.1 46.5008C111.2 47.0008 111.4 47.5008 111.5 48.1008C111.6 48.6008 111.7 49.2008 111.8 49.8008C111.9 50.4008 111.9 51.2008 112 52.1008C112.1 52.9008 112.1 54.0008 112.1 55.2008C112.1 56.1008 112.1 57.0008 112.1 58.1008C112.1 59.2008 112.1 60.3008 112.1 61.5008L112 65.0008C112 66.1008 112 67.2008 112 68.1008C112 68.4008 112 68.9008 112 69.4008L111.8 72.7008C111.8 73.2008 111.8 73.7008 111.8 74.1008C111.8 75.3008 112 76.1008 112.4 76.7008C112.9 77.3008 113.6 77.6008 114.7 77.6008C115.1 77.6008 115.7 77.6008 116.4 77.5008C117.2 77.4008 117.8 77.3008 118.4 77.2008L119.3 77.0008L119.1 76.1008C119 75.8008 119 75.4008 118.9 75.0008C118.8 74.7008 118.8 74.4008 118.8 74.1008C118.8 73.7008 118.8 73.3008 118.8 72.9008V70.8008L119 65.2008C119 64.7008 119 64.2008 119 63.7008C119.4 63.7008 119.8 63.7008 120.3 63.7008C121.1 63.7008 122 63.7008 122.9 63.7008C125.8 63.7008 128.4 63.8008 130.6 63.9008C130.3 64.4008 130.3 64.5008 130.3 64.6008Z" fill="#E2211C"/>
<path d="M163.2 77.0004C165.1 76.0004 166.7 74.7004 168 73.1004C169.3 71.5004 170.3 69.6004 171 67.5004C171.7 65.4004 172 63.2004 172 60.9004C172 58.5004 171.7 56.3004 171.1 54.3004C170.5 52.2004 169.5 50.5004 168.3 49.0004C167 47.5004 165.4 46.3004 163.5 45.6004C161.6 44.8004 159.4 44.4004 156.9 44.4004C154.6 44.4004 152.4 44.9004 150.5 45.9004C148.7 46.9004 147.1 48.2004 145.8 49.8004C144.5 51.4004 143.5 53.3004 142.9 55.4004C142.2 57.5004 141.9 59.7004 141.9 62.0004C141.9 64.4004 142.2 66.7004 142.8 68.7004C143.5 70.7004 144.4 72.5004 145.7 74.0004C147 75.5004 148.6 76.6004 150.5 77.4004C152.4 78.2004 154.5 78.6004 157 78.6004C159.2 78.5004 161.4 78.0004 163.2 77.0004ZM153.9 71.5004C153 71.0004 152.1 70.4004 151.4 69.5004C150.7 68.6004 150.1 67.5004 149.7 66.2004C149.3 64.9004 149.1 63.3004 149.1 61.6004C149.1 59.9004 149.3 58.3004 149.8 57.0004C150.2 55.7004 150.8 54.5004 151.5 53.6004C152.2 52.7004 153.1 52.0004 154 51.5004C154.9 51.0004 155.9 50.8004 156.8 50.8004C157.9 50.8004 159 51.0004 159.9 51.5004C160.8 51.9004 161.7 52.6004 162.4 53.5004C163.1 54.4004 163.7 55.5004 164.1 56.8004C164.5 58.1004 164.7 59.6004 164.7 61.3004C164.7 63.0004 164.5 64.5004 164 65.9004C163.6 67.2004 163 68.4004 162.3 69.3004C161.6 70.2004 160.8 70.9004 159.8 71.5004C158.9 72.0004 158 72.2004 157 72.2004C155.9 72.2004 154.8 71.9004 153.9 71.5004Z" fill="#E2211C"/>
<path d="M182.4 40.6004C182.7 41.2004 183.1 41.7004 183.7 42.3004C184.3 42.8004 185 43.3004 185.9 43.7004C186.8 44.1004 187.9 44.3004 189.1 44.3004C190.3 44.3004 191.3 44.1004 192.3 43.7004C193.2 43.3004 194 42.8004 194.7 42.2004C195.4 41.6004 195.9 40.9004 196.3 40.2004C196.7 39.4004 196.9 38.6004 196.9 37.9004C196.9 37.5004 196.8 37.2004 196.7 36.9004C196.6 36.6004 196.5 36.4004 196.4 36.2004L195.1 34.5004L194.4 35.7004C193.8 36.7004 193.1 37.5004 192.3 38.0004C191.6 38.5004 190.8 38.8004 189.9 38.8004C188.8 38.8004 187.5 38.5004 187.1 35.9004L186.8 34.4004L185.5 35.2004C184.9 35.6004 184.4 35.9004 183.9 36.3004C183.5 36.6004 183.1 37.0004 182.8 37.4004C182.3 37.9004 182.1 38.4004 182.1 39.0004C182 39.4004 182.1 39.9004 182.4 40.6004Z" fill="#E2211C"/>
<path d="M183 77.5994L183.2 77.1994C183.5 76.6994 183.9 75.8994 184.4 74.8994C185 73.8994 185.7 72.6994 186.4 71.3994C187.2 70.0994 188 68.6994 188.9 67.0994C189.8 65.5994 190.8 63.9994 191.8 62.3994C192.8 60.7994 193.8 59.1994 194.8 57.6994C195.1 57.1994 195.4 56.6994 195.7 56.2994C195.7 57.2994 195.7 58.2994 195.7 59.2994C195.7 60.3994 195.7 61.3994 195.7 62.4994V65.1994L195.6 68.3994C195.6 69.3994 195.6 70.3994 195.6 71.2994C195.6 72.1994 195.6 72.9994 195.6 73.6994V75.2994C195.6 76.2994 195.9 76.9994 196.4 77.4994C196.9 77.8994 197.6 78.0994 198.6 78.0994C199 78.0994 199.6 78.0994 200.2 77.9994C200.9 77.8994 201.6 77.7994 202.3 77.4994L203 77.1994L202.9 76.3994C202.8 75.8994 202.8 75.2994 202.8 74.7994L202.7 73.3994C202.7 72.8994 202.7 72.4994 202.7 72.1994C202.6 70.3994 202.6 68.4994 202.6 66.3994V60.0994C202.6 59.0994 202.6 58.0994 202.6 56.8994L202.7 53.3994C202.8 52.1994 202.8 51.0994 202.8 50.0994C202.8 48.9994 202.8 48.1994 202.8 47.4994C202.8 46.5994 202.6 45.9994 202.2 45.5994C201.5 44.8994 200.2 44.8994 198.3 45.0994C197.5 45.1994 196.8 45.2994 196.2 45.3994L195.8 45.4994L195.6 45.7994C194.7 47.1994 193.6 48.6994 192.4 50.5994C191.2 52.3994 189.9 54.2994 188.6 56.3994C187.3 58.3994 186 60.4994 184.7 62.4994C184.2 63.3994 183.6 64.1994 183.1 65.0994C183.1 64.4994 183.1 63.7994 183.1 63.0994C183.1 62.3994 183.2 61.4994 183.2 60.4994L183.3 56.4994C183.3 55.0994 183.3 53.8994 183.3 52.6994C183.3 51.4994 183.3 50.3994 183.3 49.3994C183.3 48.3994 183.3 47.4994 183.3 46.8994C183.3 46.3994 183.1 44.9994 180.8 44.9994C180.1 44.9994 179.3 44.9994 178.7 45.0994C178 45.1994 177.2 45.2994 176.4 45.4994L175.5 45.6994L175.7 46.5994C175.8 47.0994 175.9 47.4994 175.9 47.8994C176 48.1994 176 48.5994 176.1 48.8994C176.2 49.2994 176.2 49.6994 176.2 50.0994C176.2 50.4994 176.2 50.9994 176.2 51.6994C176.2 52.8994 176.2 54.1994 176.2 55.6994V60.0994C176.2 61.5994 176.2 63.0994 176.2 64.5994C176.2 66.0994 176.2 67.4994 176.2 68.7994C176.2 70.0994 176.2 71.1994 176.2 72.2994V75.7994C176.2 76.1994 176.4 76.5994 176.6 76.9994C176.9 77.3994 177.2 77.5994 177.6 77.7994C178.3 78.0994 179.3 78.0994 180.7 77.9994C181.3 77.9994 182 77.8994 182.5 77.7994L183 77.5994Z" fill="#E2211C"/>
<path d="M23.8 106.7C23.3 106 22.6 105.3 21.8 104.7C21.5 104.5 21.1 104.3 20.8 104.1C21.5 103.5 22.1 102.9 22.6 102.1C23.4 100.8 23.8 99.2996 23.8 97.6996C23.8 95.8996 23.5 94.3996 22.8 93.1996C22 91.9996 21.1 91.0996 20 90.3996C18.9 89.6996 17.6 89.1996 16.2 88.9996C14.9 88.7996 13.4 88.5996 11.9 88.5996C8.90001 88.5996 5.50001 88.9996 1.70001 89.8996L0.700012 90.0996L1.00001 91.0996C1.10001 91.4996 1.20001 91.8996 1.30001 92.2996C1.40001 92.6996 1.40001 92.9996 1.50001 93.4996C1.50001 93.9996 1.60001 94.3996 1.60001 94.9996C1.70001 95.4996 1.70001 96.0996 1.70001 96.8996C1.80001 98.0996 1.80001 99.2996 1.80001 100.5V104.2C1.80001 106.9 1.80001 109.6 1.70001 112.2C1.60001 114.8 1.60001 117.3 1.50001 119.8V120.5L2.20001 120.7C3.10001 121 4.00001 121.3 5.10001 121.5C6.00001 121.7 7.00001 121.9 8.20001 122C9.40001 122.2 10.7 122.2 12.1 122.2C14.3 122.2 16.2 121.9 17.8 121.5C19.4 121 20.8 120.3 22 119.3C23.1 118.3 23.9 117.2 24.5 115.8C25 114.5 25.3 113 25.3 111.5C25.3 110.7 25.2 109.8 25 109.1C24.6 108.3 24.3 107.5 23.8 106.7ZM15.4 101C14.6 101.8 13.2 102.1 11.2 102.1H8.80001C8.80001 101.2 8.80001 100.4 8.70001 99.5996C8.70001 98.4996 8.70001 97.5996 8.70001 96.7996C8.70001 96.0996 8.70001 95.4996 8.60001 94.9996C8.90001 94.8996 9.20001 94.8996 9.60001 94.8996C10.2 94.7996 10.9 94.7996 11.7 94.7996C13.4 94.7996 14.7 95.0996 15.6 95.6996C16.3 96.1996 16.7 96.9996 16.7 98.2996C16.6 99.3996 16.2 100.3 15.4 101ZM8.50001 113.6C8.60001 112.7 8.60001 111.7 8.60001 110.6L8.70001 108C9.10001 108 9.50001 108 9.90001 108H11.6C12.6 108 13.5 108.1 14.4 108.2C15.2 108.3 15.8 108.5 16.4 108.9C16.9 109.2 17.3 109.6 17.6 110.1C17.9 110.6 18 111.2 18 111.9C18 113.4 17.6 114.5 16.8 115.1C15.9 115.8 14.5 116.1 12.5 116.1C11.8 116.1 11.2 116.1 10.7 116C10.1 115.9 9.60001 115.8 9.10001 115.7C8.90001 115.7 8.70001 115.6 8.40001 115.5C8.40001 115 8.50001 114.3 8.50001 113.6Z" fill="#E2211C"/>
<path d="M62.6 96.5997C62.7 94.2997 62.8 92.4997 62.8 91.1997C62.8 89.9997 62.3 89.4997 61.9 89.1997C61.3 88.7997 60.4 88.6997 59.2 88.7997C58.8 88.7997 58.3 88.7997 57.9 88.8997C57.5 88.8997 57 88.9997 56.6 88.9997C56.2 89.0997 55.8 89.0997 55.5 89.1997L54.6 89.3997L54.7 90.2997C54.8 90.6997 54.8 91.1997 54.9 91.5997C55 91.9997 55 92.3997 55.1 92.7997C55.2 93.1997 55.2 93.5997 55.2 93.9997C55.3 95.1997 55.3 96.6997 55.3 98.4997C55.3 100.3 55.3 102.2 55.3 104.2C55.3 106 55.3 107.7 55.3 109.3C55.3 110.9 55.2 112.3 55.2 113.7C55.2 115 55.2 116.1 55.2 117.1C55.2 118.1 55.2 118.9 55.2 119.4C55.2 120 55.4 120.6 55.8 121C56.2 121.5 57 121.8 58.1 121.8C58.7 121.8 59.4 121.7 60.1 121.6C60.8 121.5 61.5 121.3 62 121.1L62.7 120.8L62.6 120C62.5 119.4 62.5 118.6 62.5 117.6C62.5 116.5 62.4 115.3 62.4 113.9C62.4 112.5 62.4 111 62.4 109.3V104.1C62.4 101.5 62.5 98.8997 62.6 96.5997Z" fill="#E2211C"/>
<path d="M50 103.101C49 102.301 47.8 101.601 46.5 101.201C45.2 100.801 43.7 100.601 42.2 100.601C40.9 100.601 39.7 100.701 38.6 100.901C38 101.001 37.4 101.101 36.8 101.201C36.8 99.5008 36.8 97.9008 36.8 96.6008C36.8 94.9008 36.8 93.4008 36.7 92.2008C36.7 91.2008 36.5 90.4008 36.3 89.9008C36.1 89.4008 35.5 88.8008 34.1 88.8008C33.5 88.8008 32.7 88.9008 31.9 89.0008C31.1 89.1008 30.2 89.3008 29.3 89.5008L28.3 89.8008L28.6 90.8008C28.7 91.2008 28.8 91.6008 28.9 91.9008V92.0008C29 92.2008 29.1 92.5008 29.1 92.9008C29.2 93.2008 29.2 93.6008 29.3 94.1008C29.4 94.5008 29.4 95.0008 29.5 95.7008C29.6 96.4008 29.6 97.1008 29.6 97.9008C29.7 98.7008 29.7 99.5008 29.7 100.401C29.8 101.201 29.8 102.101 29.8 102.901C29.8 103.701 29.8 104.501 29.8 105.301C29.8 107.601 29.7 110.001 29.6 112.601C29.5 115.101 29.4 117.501 29.2 119.801V120.501L29.9 120.801C30.7 121.101 31.6 121.301 32.5 121.501C33.3 121.701 34.3 121.801 35.4 122.001C36.5 122.101 37.8 122.201 39.2 122.201C41.2 122.201 43 122.001 44.6 121.601C46.3 121.201 47.8 120.501 49 119.601C50.2 118.701 51.2 117.401 51.9 116.001C52.6 114.601 52.9 112.801 52.9 110.801C52.9 109.101 52.6 107.701 52.1 106.401C51.8 105.001 51 103.901 50 103.101ZM39.8 115.801C39.1 115.801 38.5 115.801 38 115.701C37.5 115.601 37.1 115.601 36.7 115.501C36.6 115.501 36.5 115.501 36.4 115.401C36.5 114.601 36.5 113.901 36.6 113.101C36.7 112.101 36.7 111.101 36.7 110.001L36.8 107.301C37.2 107.201 37.7 107.101 38.2 107.001C39 106.801 39.9 106.701 41.1 106.701C42.8 106.701 44 107.101 44.8 107.801C45.6 108.501 46 109.501 46 111.001C46 111.801 45.9 112.601 45.6 113.201C45.3 113.801 44.9 114.201 44.4 114.601C43.9 115.001 43.3 115.301 42.5 115.501C41.7 115.701 40.8 115.801 39.8 115.801Z" fill="#E2211C"/>
<path d="M93.3 89.6004C92.8 89.3004 92.3 89.1004 91.5 89.1004C90.5 89.0004 89.6 89.0004 88.7 89.0004L86.2 88.9004C85.4 88.9004 84.5 88.9004 83.6 88.9004H80.8C78.6 88.9004 76.6 88.9004 74.7 88.9004C72.8 88.9004 70.8 89.0004 68.6 89.2004L67.4 89.3004L67.8 90.5004C68 91.3004 68.2 92.1004 68.4 93.0004C68.6 93.8004 68.7 94.8004 68.7 95.8004C68.7 96.3004 68.7 97.3004 68.7 98.9004V104.5C68.7 105.9 68.7 107.4 68.6 108.9C68.6 110.4 68.5 111.8 68.4 113.1C68.3 114.4 68.3 115.6 68.2 116.6C68.2 117.6 68.2 118.4 68.2 118.9C68.2 120.1 68.4 120.8 68.8 121.3C69.2 121.8 70 122 71.2 122C71.6 122 72.2 122 72.9 121.9C73.6 121.8 74.3 121.7 74.8 121.6L75.7 121.4L75.5 120.5C75.4 120.2 75.4 119.8 75.3 119.3C75.2 118.9 75.2 118.5 75.2 118.1C75.2 117.6 75.2 117.1 75.2 116.5C75.2 112.6 75.3 108.8 75.4 105.1C75.5 101.7 75.7 98.4004 75.8 95.1004C76.3 95.1004 76.9 95.1004 77.5 95.1004H82.4C83 95.1004 83.7 95.1004 84.3 95.1004C84.9 95.1004 85.5 95.1004 86.1 95.1004C86.3 95.1004 86.6 95.1004 86.8 95.1004C86.8 96.5004 86.8 98.2004 86.7 100C86.7 102.2 86.6 104.5 86.5 106.9L86.3 114C86.3 116.3 86.3 118.3 86.3 120C86.3 120.8 86.6 121.3 87 121.6C87.4 121.9 88 122 89 122C89.4 122 90 122 90.7 121.9C91.5 121.8 92.3 121.7 93 121.4L93.8 121.1L93.7 120.3C93.7 120 93.6 119.7 93.6 119.3C93.5 119 93.5 118.6 93.5 118.2C93.5 117.6 93.4 117 93.4 116.2C93.3 114.5 93.3 112.5 93.3 110.5C93.3 108.4 93.4 106.3 93.4 104.2C93.4 103.3 93.5 102.2 93.5 101L93.7 97.3004C93.8 96.0004 93.8 94.9004 93.8 93.9004C93.9 92.8004 93.9 92.1004 93.9 91.6004C94.2 90.4004 93.7 89.8004 93.3 89.6004Z" fill="#E2211C"/>
<path d="M121.1 116.399C121 116.099 121 115.799 120.9 115.499L120.7 114.499L119.7 114.799C118.6 115.099 117.5 115.299 116.5 115.499C115 115.699 113.1 115.699 110.7 115.799H107C107 114.299 107.1 112.999 107.1 111.699L107.2 108.099C107.6 108.099 108.1 108.199 108.5 108.199L111 108.399C111.8 108.399 112.6 108.499 113.3 108.499C114 108.499 114.7 108.499 115.3 108.499C116.4 108.499 117.2 108.299 117.8 107.699C118.4 107.099 118.6 106.299 118.6 105.099C118.6 104.799 118.6 104.499 118.6 104.199C118.6 103.899 118.5 103.699 118.5 103.499C118.5 103.199 118.4 102.999 118.4 102.699L118.3 101.699L117.3 101.899C117 101.999 116.7 101.999 116.4 101.999C116.1 101.999 115.7 102.099 115.4 102.099H114.2C112.5 102.099 111.1 102.099 109.8 102.099C108.9 102.099 108 101.999 107.2 101.999C107.2 101.199 107.2 100.499 107.1 99.7992C107.1 98.7992 107.1 97.7992 107.1 96.9992C107.1 96.3992 107.1 95.7992 107 95.2992C108.2 95.2992 109.5 95.3992 110.7 95.3992C112.3 95.4992 113.9 95.4992 115.3 95.4992C117.5 95.4992 118.2 95.2992 118.7 95.0992C119.2 94.8992 120.1 94.2992 120.1 92.6992C120.1 92.4992 120.1 92.0992 120.1 91.5992C120.1 90.9992 120 90.3992 119.8 89.5992L119.6 88.6992L118.7 88.7992C117.9 88.8992 117 88.9992 116.3 89.0992C115.5 89.0992 114.5 89.0992 113.4 89.0992H111.2C110.4 89.0992 109.5 89.0992 108.7 89.0992C107.9 89.0992 107.1 88.9992 106.3 89.0992C104.5 88.9992 103.2 88.9992 102 89.0992C101.3 89.0992 100.7 89.1992 100.1 89.2992L99.1 89.4992L99.4 90.4992C99.5 90.8992 99.6 91.2992 99.7 91.5992V91.6992C99.8 91.9992 99.9 92.2992 100 92.6992C100.1 93.0992 100.1 93.4992 100.2 93.8992C100.3 94.3992 100.3 94.8992 100.4 95.4992C100.5 96.5992 100.5 97.7992 100.5 99.0992C100.5 100.399 100.5 101.699 100.5 103.099C100.5 106.599 100.5 109.799 100.5 112.499C100.5 115.199 100.4 117.899 100.2 120.299L100.1 121.299L101.1 121.399C102.9 121.499 104.8 121.699 106.8 121.699C108.8 121.799 110.8 121.799 112.5 121.799C114.2 121.799 115.6 121.799 116.7 121.799C117.8 121.799 118.7 121.699 119.4 121.499C120.3 121.299 120.8 120.899 121.1 120.399C121.4 119.899 121.6 119.299 121.6 118.499C121.6 117.999 121.6 117.499 121.5 117.199C121.2 116.999 121.2 116.699 121.1 116.399Z" fill="#E2211C"/>
<path d="M147.5 89.4004C147.1 89.1004 146.5 88.9004 145.7 88.9004C145.1 88.9004 144.4 88.9004 143.6 89.0004C142.8 89.1004 142 89.2004 141.4 89.3004L140.6 89.5004L140.7 90.4004C140.8 91.5004 140.9 92.6004 140.9 93.6004C141 94.5004 141 95.5004 141 96.5004C141 97.4004 141 98.4004 141 99.4004V102.1C140.8 102.3 140.6 102.5 140.3 102.7C139.9 103 139.4 103.4 138.8 103.7C138.3 104 137.6 104.3 136.8 104.5C136 104.7 135.2 104.8 134.2 104.8C132.8 104.8 131.9 104.5 131.5 103.9C131 103.1 130.7 102 130.7 100.4C130.7 99.6004 130.7 98.9004 130.7 98.1004L130.8 95.7004C130.8 94.9004 130.9 94.2004 130.9 93.5004C130.9 92.8004 130.9 92.1004 130.9 91.5004C130.9 90.6004 130.7 90.0004 130.2 89.6004C129.8 89.2004 129.1 89.0004 128.3 89.0004C127.5 89.0004 126.7 89.1004 126 89.2004L122.7 89.9004L123 90.9004C123.3 91.9004 123.5 92.8004 123.6 93.7004C123.7 94.6004 123.8 95.5004 123.8 96.3004C123.8 97.1004 123.8 97.9004 123.8 98.9004C123.8 99.9004 123.8 100.9 123.8 101.9C123.9 105 124.7 107.4 126.2 109C127.8 110.6 130.2 111.4 133.3 111.4C134.6 111.4 135.8 111.3 136.8 111C137.8 110.7 138.7 110.4 139.5 110C140 109.7 140.4 109.5 140.8 109.2V110.2C140.8 111 140.8 111.8 140.8 112.8C140.8 113.7 140.8 114.6 140.8 115.6C140.8 116.5 140.8 117.3 140.8 118.1V119.9C140.8 120.7 141 121.3 141.5 121.7C142 122.1 142.6 122.3 143.6 122.3C144.1 122.3 144.6 122.3 145.2 122.2C145.8 122.1 146.6 121.9 147.4 121.7L148.1 121.5V120.8C148.1 120.8 148.1 120.6 148.1 120.2V120.1C148.1 119.7 148 119.3 148 118.9C148 118.4 148 117.9 148 117.3C148 116.8 148 116.3 148 116V107.3C148 105.3 148 103.4 148 101.9C148.1 100.3 148.1 98.9004 148.1 97.7004C148.2 96.4004 148.2 95.3004 148.2 94.4004C148.3 93.4004 148.3 92.5004 148.3 91.7004C148.2 91.0004 148.2 89.9004 147.5 89.4004Z" fill="#E2211C"/>
<path d="M173.9 98.1998C174.7 97.2998 175.5 96.2998 176.3 95.4998C177.1 94.5998 178 93.6998 179 92.6998L179.7 91.9998L179 91.2998C178.8 91.0998 178.5 90.8998 178.3 90.5998L177.7 90.0998C177.4 89.7998 177.2 89.5998 176.8 89.2998C175.6 88.3998 174.6 88.3998 173.9 88.5998C173 88.7998 172.2 89.3998 171.3 90.4998C170.7 91.2998 170 92.1998 169.4 93.0998C168.8 93.9998 168.1 94.9998 167.4 96.0998C166.8 97.0998 166.1 98.1998 165.5 99.2998C165 100.2 164.4 101.1 163.9 102C163.5 102 163.1 102 162.6 102C162.2 102 161.8 102 161.3 101.9C161.3 100.7 161.3 99.4998 161.3 98.3998C161.3 96.9998 161.4 95.6998 161.4 94.6998C161.4 93.3998 161.5 92.2998 161.5 91.0998C161.5 90.5998 161.3 88.7998 158.9 88.7998C158.3 88.7998 157.7 88.7998 157.2 88.8998C156.6 88.9998 156.1 88.9998 155.6 89.0998C155.1 89.1998 154.6 89.2998 154.1 89.4998L153.1 89.7998L153.4 90.7998C153.5 91.1998 153.6 91.5998 153.8 91.8998C153.9 92.1998 154 92.4998 154.1 92.9998C154.2 93.2998 154.3 93.6998 154.3 94.0998C154.4 94.5998 154.4 95.0998 154.4 95.6998C154.4 97.3998 154.4 99.1998 154.4 101.2C154.4 103.1 154.4 105 154.4 107L154.3 112.9C154.3 114.8 154.3 116.7 154.3 118.4C154.3 119.7 154.5 120.5 155 121.1C155.5 121.6 156.3 121.9 157.5 121.9C157.9 121.9 158.5 121.9 159.1 121.8C159.7 121.7 160.3 121.6 160.9 121.5L161.9 121.3L161.7 120.3C161.6 120 161.6 119.6 161.5 119.3C161.4 119 161.4 118.7 161.4 118.4C161.4 118 161.4 117.6 161.4 117.2V112.6C161.4 111 161.4 109.2 161.5 107.5C161.8 107.5 162 107.5 162.3 107.6C162.8 107.6 163.2 107.7 163.6 107.8C163.9 107.8 164.2 107.9 164.4 108C164.7 108.1 164.9 108.3 165.2 108.4C165.8 108.9 166.4 109.8 167 111C167.7 112.4 168.5 114 169.4 115.8C170 116.9 170.5 117.9 170.9 118.6C171.3 119.4 171.8 120 172.3 120.5C172.8 121 173.4 121.4 174 121.6C174.6 121.8 175.3 121.9 176.1 121.9C177.3 121.9 178.2 121.6 178.7 121C179.3 120.4 179.5 119.5 179.5 118.4C179.5 118 179.5 117.7 179.5 117.4C179.5 117.1 179.4 116.8 179.4 116.6C179.4 116.3 179.3 116 179.3 115.8L179.2 114.9H178C177.6 114.9 177.3 114.9 177 114.8C176.8 114.8 176.7 114.7 176.6 114.6C176.4 114.4 176.2 114.2 176 113.9C175.8 113.6 175.5 113.1 175.2 112.4C174.5 111 173.9 109.8 173.3 108.8C172.8 107.8 172.2 106.9 171.8 106.2C171.3 105.5 170.9 104.9 170.4 104.4C170.2 104.2 170 104 169.7 103.8C170.4 102.8 171 101.8 171.6 101C172.4 100.1 173.1 99.0998 173.9 98.1998Z" fill="#E2211C"/>
<path d="M208.7 120.4C208.6 119.9 208.6 119.3 208.6 118.8L208.5 117.4C208.5 116.9 208.5 116.5 208.5 116.1C208.4 114.3 208.4 112.4 208.4 110.3V104C208.4 103 208.4 102 208.4 100.8L208.5 97.2998C208.6 96.0998 208.6 94.9998 208.6 93.9998C208.6 92.8998 208.6 92.0998 208.6 91.3998C208.6 90.4998 208.4 89.8998 208 89.4998C207.3 88.7998 206 88.7998 204.1 88.9998C203.3 89.0998 202.6 89.1998 202 89.2998L201.6 89.3998L201.4 89.6998C200.5 91.0998 199.4 92.5998 198.2 94.4998C197 96.2998 195.7 98.1998 194.4 100.3C193.1 102.3 191.8 104.4 190.5 106.4C190 107.3 189.4 108.1 188.9 109C188.9 108.4 188.9 107.7 188.9 107C188.9 106.3 189 105.4 189 104.4L189.1 100.4C189.1 98.9998 189.1 97.7998 189.1 96.5998C189.1 95.3998 189.1 94.2998 189.1 93.2998C189.1 92.2998 189.1 91.3998 189.1 90.7998C189.1 90.2998 188.9 88.8998 186.6 88.8998C185.9 88.8998 185.1 88.8998 184.5 88.9998C183.8 89.0998 183 89.1998 182.2 89.3998L181.3 89.5998L181.5 90.4998C181.6 90.9998 181.7 91.3998 181.7 91.7998C181.8 92.0998 181.8 92.4998 181.9 92.7998C182 93.1998 182 93.5998 182 93.9998C182 94.3998 182 94.8998 182 95.5998C182 96.7998 182 98.0998 182 99.5998V104C182 105.5 182 107 182 108.5C182 110 182 111.4 182 112.7C182 114 182 115.1 182 116.2V119.7C182 120.1 182.2 120.5 182.4 120.9C182.6 121.3 183 121.5 183.4 121.7C184.1 122 185.1 122 186.5 121.9C187.1 121.9 187.8 121.8 188.3 121.7L188.8 121.6L189 121.2C189.3 120.7 189.7 119.9 190.2 118.9C190.8 117.9 191.5 116.7 192.2 115.4C193 114.1 193.8 112.7 194.7 111.1C195.6 109.6 196.6 108 197.6 106.4C198.6 104.8 199.6 103.2 200.6 101.7C200.9 101.2 201.2 100.7 201.5 100.3C201.5 101.3 201.5 102.3 201.5 103.3C201.5 104.4 201.5 105.4 201.5 106.5V109.2L201.4 112.4C201.4 113.4 201.4 114.4 201.4 115.3C201.4 116.2 201.4 117 201.4 117.7V119.3C201.4 120.3 201.7 121 202.2 121.5C202.7 121.9 203.4 122.1 204.4 122.1C204.8 122.1 205.4 122.1 206 122C206.7 121.9 207.4 121.8 208.1 121.5L208.8 121.2L208.7 120.4Z" fill="#E2211C"/>
</g>
<defs>
<clipPath id="clip0_643_866">
<rect width="208.8" height="122.3" fill="white"/>
</clipPath>
</defs>
</svg>
