<svg width="1009" height="72" viewBox="0 0 1009 72" fill="none" xmlns="http://www.w3.org/2000/svg">
<path d="M37.7 56.7004L36.5 55.0004L34.9 56.3004C33.9 57.1004 32.5 57.9004 30.8 58.7004C29.2 59.4004 27.2 59.8004 24.9 59.8004C21 59.8004 18.1 58.5004 15.9 55.9004C13.6 53.2004 12.4 49.2004 12.4 44.0004C12.4 41.3004 12.7 38.8004 13.4 36.8004C14.1 34.8004 15 33.0004 16.1 31.7004C17.2 30.4004 18.4 29.3004 19.8 28.6004C21.2 27.9004 22.7 27.6004 24.2 27.6004C25.3 27.6004 26.2 27.7004 27.2 27.8004C28.1 27.9004 28.9 28.0004 29.6 28.1004H29.7C30.4 28.2004 31.1 28.3004 31.7 28.4004H31.9C32.7 28.5004 33.5 28.6004 34.3 28.6004C36.4 28.6004 38 27.5004 38.7 25.6004C39.2 24.2004 39.5 22.1004 39.5 19.0004V17.0004H37.5C36.6 17.0004 35.7 17.0004 34.9 16.9004C34 16.8004 33 16.7004 32.1 16.7004C31.1 16.6004 30 16.5004 28.9 16.5004C27.7 16.4004 26.4 16.4004 24.9 16.4004C20.9 16.4004 17.3 17.2004 14.2 18.9004C11.2 20.5004 8.6 22.6004 6.5 25.3004C4.5 27.9004 2.9 31.0004 1.9 34.4004C0.5 37.7004 0 41.2004 0 44.8004C0 49.1004 0.6 52.9004 1.9 56.3004C3.2 59.6004 5 62.4004 7.3 64.5004C9.6 66.6004 12.2 68.4004 15.2 69.5004C18.2 70.6004 21.4 71.1004 24.8 71.1004C26.5 71.1004 28.3 70.9004 30 70.6004C31.7 70.3004 33.3 69.9004 34.7 69.3004C36.2 68.7004 37.4 68.0004 38.3 67.1004C39.8 65.7004 40.2 64.3004 40.2 63.3004C40.2 62.3004 40 61.2004 39.6 60.0004C39.1 58.8004 38.5 57.6004 37.7 56.7004Z" fill="#E2211C"/>
<path d="M79.5001 60.9004C79.4001 60.4004 79.3001 59.9004 79.2001 59.5004L78.7001 57.4004L76.7001 58.0004C74.9001 58.5004 73.2001 58.8004 71.6001 59.1004C70.0001 59.3004 68.1001 59.4004 66.0001 59.4004C64.9001 59.4004 63.7001 59.4004 62.4001 59.5004H57.0001C57.1001 57.3004 57.1001 55.3004 57.1001 53.4004L57.2001 48.2004C57.7001 48.3004 58.3001 48.3004 58.9001 48.4004C60.3001 48.5004 61.6001 48.6004 63.0001 48.7004C64.3001 48.7004 65.5001 48.8004 66.7001 48.8004C67.9001 48.8004 69.0001 48.9004 69.9001 48.9004C71.8001 48.9004 73.2001 48.5004 74.2001 47.5004C75.2001 46.5004 75.6001 45.1004 75.6001 43.1004C75.6001 42.6004 75.6001 42.1004 75.5001 41.6004C75.5001 41.2004 75.4001 40.8004 75.4001 40.4004C75.4001 40.0004 75.3001 39.6004 75.3001 39.2004L75.0001 37.1004L72.9001 37.5004C72.5001 37.6004 72.0001 37.6004 71.5001 37.7004C71.0001 37.7004 70.5001 37.8004 69.9001 37.8004H68.0001C65.4001 37.8004 63.0001 37.8004 61.0001 37.7004C59.7001 37.6004 58.4001 37.6004 57.2001 37.5004C57.2001 36.4004 57.1001 35.4004 57.1001 34.4004C57.1001 32.7004 57.1001 31.3004 57.0001 30.0004C57.0001 29.2004 56.9001 28.5004 56.9001 27.7004C58.7001 27.7004 60.6001 27.8004 62.4001 27.9004C65.0001 28.0004 67.5001 28.1004 69.7001 28.1004C72.4001 28.1004 74.1001 27.9004 75.2001 27.4004C76.1001 27.0004 77.6001 25.9004 77.6001 23.2004C77.6001 22.9004 77.6001 22.3004 77.5001 21.4004C77.4001 20.5004 77.3001 19.4004 77.0001 18.2004L76.6001 16.4004L74.7001 16.7004C73.4001 16.9004 72.1001 17.0004 70.8001 17.1004C69.5001 17.1004 67.9001 17.2004 66.2001 17.2004H62.7001C61.4001 17.2004 60.0001 17.1004 58.8001 17.1004C57.5001 17.1004 56.2001 17.0004 55.0001 17.0004C53.8001 17.0004 52.7001 16.9004 51.7001 16.9004C50.4001 16.9004 49.2001 16.9004 48.2001 17.0004C47.1001 17.1004 46.0001 17.2004 45.1001 17.4004L43.1001 17.9004L43.7001 19.9004C43.9001 20.5004 44.0001 21.1004 44.2001 21.7004L44.3001 21.9004C44.5001 22.3004 44.6001 22.8004 44.7001 23.4004C44.8001 23.9004 44.9001 24.6004 45.0001 25.3004C45.1001 26.0004 45.2001 26.9004 45.3001 27.9004C45.4001 29.6004 45.4001 31.5004 45.4001 33.7004C45.4001 35.7004 45.5001 37.9004 45.5001 40.1004C45.5001 45.7004 45.5001 50.8004 45.4001 55.1004C45.4001 59.4004 45.2001 63.6004 45.0001 67.5004L44.9001 69.4004L46.8001 69.6004C49.6001 69.8004 52.7001 70.0004 55.9001 70.1004C59.1001 70.2004 62.2001 70.3004 65.0001 70.3004C67.7001 70.3004 69.9001 70.3004 71.6001 70.2004C73.4001 70.2004 74.9001 70.0004 76.0001 69.7004C77.5001 69.3004 78.4001 68.7004 79.0001 67.8004C79.5001 67.0004 79.8001 66.0004 79.8001 64.7004C79.8001 63.9004 79.7001 63.2004 79.6001 62.5004C79.7001 62.0004 79.6001 61.4004 79.5001 60.9004Z" fill="#E2211C"/>
<path d="M117.5 32.4005C118.7 30.9005 120 29.5005 121.3 28.1005C122.6 26.7005 124.1 25.2005 125.6 23.7005L127 22.3005L125.6 20.9005C125.2 20.5005 124.9 20.2005 124.4 19.8005C124.1 19.5005 123.8 19.3005 123.4 18.9005C123 18.5005 122.5 18.1005 122 17.7005C120 16.2005 118.2 16.2005 117.1 16.5005C115.6 16.8005 114.2 17.9005 112.7 19.7005C111.7 20.9005 110.7 22.3005 109.6 23.9005C108.6 25.4005 107.5 27.0005 106.4 28.7005C105.4 30.3005 104.3 32.0005 103.3 33.8005C102.5 35.2005 101.7 36.5005 100.9 37.8005C100.3 37.8005 99.6999 37.8005 99.0999 37.8005C98.5999 37.8005 98.0999 37.8005 97.4999 37.7005C97.4999 35.9005 97.4999 34.2005 97.4999 32.6005C97.4999 30.4005 97.5999 28.4005 97.5999 26.7005C97.5999 24.7005 97.6999 22.8005 97.6999 21.0005C97.6999 19.1005 96.4999 17.0005 93.1999 17.0005C92.1999 17.0005 91.2999 17.1005 90.2999 17.2005C89.3999 17.3005 88.5999 17.4005 87.7999 17.6005C86.8999 17.8005 86.0999 18.0005 85.3999 18.2005L83.3999 18.7005L83.9999 20.7005C84.1999 21.3005 84.3999 21.9005 84.5999 22.5005C84.7999 22.9005 84.8999 23.4005 84.9999 24.0005V24.2005C85.1999 24.7005 85.2999 25.3005 85.2999 25.9005C85.3999 26.6005 85.3999 27.5005 85.3999 28.4005C85.3999 31.2005 85.3999 34.1005 85.2999 37.1005C85.2999 40.1005 85.2999 43.3005 85.1999 46.4005L85.0999 55.7005C85.0999 58.7005 85.0999 61.7005 84.9999 64.5005C84.9999 66.6005 85.3999 68.0005 86.1999 69.1005C87.0999 70.1005 88.4999 70.5005 90.5999 70.5005C91.2999 70.5005 92.1999 70.4005 93.1999 70.3005C94.1999 70.2005 95.1999 70.0005 96.0999 69.8005L98.0999 69.4005L97.5999 67.4005C97.4999 66.9005 97.3999 66.4005 97.2999 65.8005C97.1999 65.4005 97.1999 64.9005 97.0999 64.3005C97.0999 63.7005 96.9999 63.1005 96.9999 62.5005V55.2005C96.9999 52.7005 96.9999 50.2005 97.0999 47.5005C97.2999 47.5005 97.5999 47.5005 97.7999 47.6005H97.8999C98.5999 47.6005 99.1999 47.7005 99.6999 47.8005H99.8999C100.3 47.9005 100.7 48.0005 101 48.1005C101.4 48.3005 101.8 48.5005 102.1 48.8005C103 49.5005 103.9 50.9005 104.8 52.8005C105.9 55.0005 107.2 57.6005 108.7 60.5005C109.6 62.3005 110.4 63.8005 111.1 65.0005C111.8 66.3005 112.6 67.3005 113.4 68.1005C114.3 69.0005 115.2 69.6005 116.3 70.0005C117.3 70.4005 118.5 70.5005 119.8 70.5005C121.8 70.5005 123.3 70.0005 124.3 69.0005C125.3 68.0005 125.7 66.5005 125.7 64.6005C125.7 64.0005 125.7 63.5005 125.6 62.9005C125.6 62.4005 125.5 62.0005 125.5 61.6005C125.5 61.1005 125.4 60.7005 125.4 60.3005L125.2 58.5005H123.4C122.8 58.5005 122.3 58.5005 121.9 58.4005C121.7 58.4005 121.6 58.3005 121.4 58.2005C121.1 57.9005 120.8 57.6005 120.5 57.2005C120.2 56.7005 119.8 55.9005 119.3 54.9005C118.2 52.6005 117.2 50.7005 116.3 49.2005C115.4 47.5005 114.6 46.1005 113.8 45.1005C113 43.9005 112.3 42.9005 111.6 42.2005C111.3 41.9005 111.1 41.6005 110.8 41.4005C111.8 39.9005 112.7 38.5005 113.6 37.2005C115.1 35.4005 116.3 33.9005 117.5 32.4005Z" fill="#E2211C"/>
<path d="M162.1 20.6996C160.3 19.2996 158.1 18.1996 155.7 17.5996C153.3 16.9996 150.6 16.5996 147.8 16.5996C145.5 16.5996 142.8 16.6996 139.6 16.9996C136.5 17.2996 133.4 17.7996 130.3 18.3996L128.1 18.8996L128.8 20.9996C129.2 22.2996 129.6 23.8996 129.9 25.8996C130.2 27.8996 130.4 29.9996 130.5 32.2996C130.6 33.9996 130.6 35.6996 130.6 37.1996V41.6996C130.6 47.0996 130.5 51.6996 130.4 55.5996C130.3 59.4996 130.2 62.8996 130.2 65.8996C130.2 67.4996 130.7 68.6996 131.7 69.3996L131.8 69.4996C132.6 70.0996 133.7 70.3996 135.3 70.3996C136 70.3996 136.8 70.2996 137.6 70.1996C138.3 70.0996 139 69.9996 139.7 69.8996L143.7 69.0996L143.3 67.1996C143.1 66.1996 143 65.1996 142.8 64.1996C142.7 63.2996 142.6 62.4996 142.5 61.5996C142.4 60.6996 142.4 59.8996 142.4 59.0996V57.2996C142.4 56.4996 142.5 55.5996 142.5 54.6996C142.5 53.7996 142.6 52.8996 142.6 52.0996C143 52.1996 143.5 52.1996 144 52.1996H146.1C148.9 52.1996 151.7 51.8996 154.3 51.2996C157 50.5996 159.3 49.5996 161.4 48.0996C163.5 46.5996 165.1 44.6996 166.3 42.3996C167.5 40.0996 168.1 37.1996 168.1 33.9996C168.1 30.9996 167.6 28.3996 166.6 26.2996C165.4 23.9996 164 22.0996 162.1 20.6996ZM155.5 34.0996C155.5 36.5996 154.8 38.2996 153.4 39.5996C152 40.8996 149.6 41.4996 146.3 41.4996C145.6 41.4996 144.8 41.4996 144.2 41.3996C143.6 41.3996 143 41.2996 142.5 41.1996H142.4C142.4 39.1996 142.3 37.3996 142.3 35.7996C142.3 33.6996 142.3 31.7996 142.2 30.3996C142.1 29.3996 142.1 28.3996 142 27.4996C142.5 27.3996 143 27.3996 143.5 27.3996C144.6 27.2996 145.8 27.2996 147 27.2996C148.4 27.2996 149.6 27.3996 150.7 27.6996C151.7 27.9996 152.6 28.3996 153.3 28.9996C154 29.4996 154.5 30.0996 154.9 30.9996C155.3 31.6996 155.5 32.7996 155.5 34.0996Z" fill="#E2211C"/>
<path d="M208.4 60.9004C208.3 60.4004 208.2 59.9004 208.1 59.5004L207.6 57.4004L205.6 58.0004C203.8 58.5004 202.1 58.8004 200.5 59.1004C198.9 59.3004 197 59.4004 194.9 59.4004C193.8 59.4004 192.6 59.4004 191.3 59.5004H186C186.1 57.3004 186.1 55.3004 186.1 53.4004L186.2 48.2004C186.7 48.3004 187.3 48.3004 187.9 48.4004C189.3 48.5004 190.6 48.6004 192 48.7004C193.3 48.7004 194.5 48.8004 195.7 48.8004C196.9 48.8004 198 48.9004 198.9 48.9004C200.8 48.9004 202.2 48.5004 203.2 47.5004C204.2 46.5004 204.6 45.1004 204.6 43.1004C204.6 42.6004 204.6 42.1004 204.5 41.6004C204.5 41.2004 204.4 40.8004 204.4 40.4004C204.4 40.0004 204.3 39.6004 204.3 39.2004L204 37.1004L201.9 37.5004C201.5 37.6004 201 37.6004 200.5 37.7004C200 37.7004 199.5 37.8004 198.9 37.8004H197C194.4 37.8004 192 37.8004 190 37.7004C188.7 37.6004 187.4 37.6004 186.2 37.5004C186.2 36.4004 186.1 35.4004 186.1 34.4004C186.1 32.7004 186.1 31.3004 186 30.0004C186 29.2004 185.9 28.5004 185.9 27.7004C187.7 27.7004 189.6 27.8004 191.4 27.9004C194 28.0004 196.5 28.1004 198.7 28.1004C201.4 28.1004 203.1 27.9004 204.2 27.4004C205.1 27.0004 206.6 25.9004 206.6 23.2004C206.6 22.9004 206.6 22.3004 206.5 21.4004C206.4 20.5004 206.3 19.4004 206 18.2004L205.6 16.4004L203.7 16.7004C202.4 16.9004 201.1 17.0004 199.8 17.1004C198.5 17.1004 196.9 17.2004 195.2 17.2004H191.7C190.4 17.2004 189 17.1004 187.8 17.1004C186.5 17.1004 185.2 17.0004 184 17.0004C182.8 17.0004 181.7 16.9004 180.7 16.9004C179.4 16.9004 178.2 16.9004 177.2 17.0004C176.1 17.1004 175 17.2004 174.1 17.4004L172.1 17.9004L172.7 19.9004C172.9 20.5004 173 21.1004 173.2 21.7004L173.3 21.9004C173.5 22.3004 173.6 22.8004 173.7 23.4004C173.8 23.9004 173.9 24.6004 174 25.3004C174.1 26.0004 174.2 26.9004 174.3 27.9004C174.4 29.6004 174.4 31.6004 174.4 33.7004C174.4 35.7004 174.5 37.9004 174.5 40.1004C174.5 45.7004 174.5 50.8004 174.4 55.1004C174.4 59.4004 174.2 63.6004 174 67.5004L173.9 69.4004L175.8 69.6004C178.6 69.8004 181.7 70.0004 184.9 70.1004C188.1 70.2004 191.2 70.3004 194 70.3004C196.7 70.3004 198.9 70.3004 200.6 70.2004C202.4 70.2004 203.9 70.0004 205 69.7004C206.5 69.3004 207.4 68.7004 208 67.8004C208.5 67.0004 208.8 66.0004 208.8 64.7004C208.8 63.9004 208.7 63.2004 208.6 62.5004C208.6 62.0004 208.6 61.4004 208.4 60.9004Z" fill="#E2211C"/>
<path d="M248.7 19.5008C248.7 19.0008 248.6 18.5008 248.6 17.9008L248.4 15.3008L246 16.1008C244.6 16.6008 242.5 16.9008 239.9 17.0008C237.1 17.1008 233.6 17.1008 229.6 17.1008H225.3L220.8 17.0008C219.3 17.0008 217.8 16.9008 216.4 16.9008C215 16.9008 213.7 16.8008 212.5 16.8008C210.8 16.8008 209.6 17.3008 208.8 18.2008C208.1 19.0008 207.7 20.1008 207.7 21.6008V22.9008V23.1008C207.7 23.6008 207.8 24.0008 207.8 24.4008C207.8 24.9008 207.9 25.4008 207.9 25.9008L208.1 27.5008L209.7 27.7008C210.4 27.8008 211.3 27.9008 212.5 28.0008C213.6 28.1008 214.8 28.2008 216.1 28.3008L222.4 28.5008C222.4 30.6008 222.3 32.8008 222.3 35.2008L222 54.2008C222 57.2008 221.9 59.9008 221.9 62.3008C221.9 63.3008 221.9 64.3008 222 65.1008V65.2008C222.1 66.2008 222.3 66.9008 222.4 67.5008L222.5 67.7008C222.9 68.6008 223.5 69.2008 224.2 69.7008L224.4 69.8008C225.2 70.2008 226.2 70.4008 227.7 70.4008C228.4 70.4008 229.3 70.4008 230.2 70.3008C231.3 70.2008 232.4 70.1008 233.3 69.8008L235 69.3008L234.7 67.6008C234.6 67.0008 234.5 66.5008 234.4 65.8008C234.3 65.4008 234.3 64.9008 234.2 64.3008C234.2 63.8008 234.1 63.2008 234.1 62.6008C234.1 61.7008 234.1 60.6008 234 59.2008C234 57.8008 234 56.3008 233.9 55.0008V47.8008C233.9 44.6008 233.9 41.1008 234 37.5008C234 34.5008 234.1 31.5008 234.1 28.6008H238.8C239.9 28.6008 240.9 28.5008 241.8 28.5008C242.8 28.5008 243.5 28.4008 244.2 28.4008C246.2 28.2008 247.4 27.6008 248.2 26.4008C248.7 25.5008 249 24.4008 249 22.9008C249 22.3008 249 21.7008 248.9 21.1008C248.8 20.5008 248.8 19.9008 248.7 19.5008Z" fill="#E2211C"/>
<path d="M285.6 39.5996C284 38.1996 282.1 37.1996 279.9 36.4996C277.8 35.7996 275.4 35.4996 272.9 35.4996C270.8 35.4996 268.9 35.6996 267.1 35.8996C266.3 35.9996 265.5 36.1996 264.8 36.2996C264.8 33.6996 264.8 31.4996 264.8 29.3996C264.8 26.6996 264.8 24.2996 264.7 22.2996C264.6 20.5996 264.4 19.3996 264 18.4996C263.6 17.5996 262.5 16.5996 260.1 16.5996C259.1 16.5996 257.9 16.6996 256.6 16.8996C255.3 17.0996 253.9 17.3996 252.5 17.7996L250.5 18.2996L251.1 20.2996C251.3 20.8996 251.4 21.4996 251.6 21.9996L251.7 22.1996C251.8 22.4996 251.9 22.8996 252 23.3996V23.5996C252.1 24.0996 252.2 24.6996 252.3 25.2996V25.3996C252.4 25.9996 252.5 26.7996 252.6 27.7996C252.7 28.7996 252.8 29.9996 252.8 31.2996C252.9 32.4996 253 33.7996 253 35.1996C253.1 36.4996 253.1 37.7996 253.1 39.1996C253.1 40.4996 253.2 41.7996 253.2 42.9996C253.2 46.5996 253.1 50.4996 252.9 54.4996C252.7 58.4996 252.5 62.3996 252.3 65.9996L252.2 67.4996L253.6 67.9996C254.8 68.3996 256.3 68.7996 257.8 69.1996C259.1 69.4996 260.7 69.7996 262.5 69.9996C264.3 70.1996 266.4 70.2996 268.6 70.2996C271.8 70.2996 274.7 69.9996 277.3 69.2996C280.1 68.5996 282.5 67.5996 284.5 66.0996C286.5 64.5996 288.1 62.5996 289.2 60.1996C290.3 57.7996 290.9 54.9996 290.9 51.7996C290.9 49.0996 290.4 46.6996 289.5 44.6996C288.5 42.6996 287.2 40.9996 285.6 39.5996ZM269.1 59.6996C268 59.6996 267.1 59.6996 266.3 59.5996C265.5 59.4996 264.8 59.3996 264.2 59.2996H264.1C264.2 58.1996 264.3 57.0996 264.3 55.9996C264.4 54.4996 264.5 52.7996 264.5 50.9996L264.6 47.0996C265.2 46.9996 265.8 46.7996 266.5 46.6996C267.7 46.3996 269.2 46.2996 271 46.2996C273.6 46.2996 275.5 46.8996 276.7 47.9996C277.8 48.9996 278.4 50.5996 278.4 52.7996C278.4 54.0996 278.2 55.1996 277.8 55.9996C277.4 56.7996 276.8 57.4996 276 58.0996C275.2 58.6996 274.3 59.0996 273.2 59.3996C272 59.5996 270.7 59.6996 269.1 59.6996Z" fill="#E2211C"/>
<path d="M305.8 63.5004C305.8 61.8004 305.7 59.8004 305.7 57.6004C305.7 55.4004 305.6 53.0004 305.6 50.4004V42.1004C305.6 37.4004 305.7 33.2004 305.9 29.7004C306.1 25.9004 306.2 23.1004 306.2 21.1004C306.2 19.1004 305.3 18.1004 304.5 17.6004C303.7 17.1004 302.7 16.9004 301.6 16.9004C301.2 16.9004 300.6 16.9004 299.9 17.0004C299.2 17.0004 298.6 17.1004 297.9 17.1004C297.2 17.1004 296.5 17.2004 295.8 17.3004C295.2 17.4004 294.6 17.5004 294.1 17.6004L292.2 18.0004L292.5 19.9004C292.6 20.6004 292.7 21.3004 292.9 22.0004C293 22.6004 293.1 23.2004 293.2 23.9004C293.3 24.6004 293.4 25.2004 293.4 25.8004C293.5 27.7004 293.6 30.1004 293.6 32.9004C293.6 35.8004 293.7 38.8004 293.7 42.0004C293.7 44.8004 293.7 47.6004 293.6 50.2004C293.6 52.7004 293.5 55.0004 293.5 57.2004C293.5 59.2004 293.5 61.0004 293.4 62.6004C293.4 64.2004 293.3 65.4004 293.3 66.3004C293.3 67.4004 293.6 68.3004 294.3 69.2004C295.1 70.2004 296.4 70.7004 298.3 70.7004C299.3 70.7004 300.5 70.6004 301.6 70.4004C302.8 70.2004 303.8 69.9004 304.7 69.6004L306.2 69.1004L306 67.5004C305.9 66.4004 305.8 65.1004 305.8 63.5004Z" fill="#E2211C"/>
<path d="M367.7 45.5C366.9 44.3 365.7 43.2 364.4 42.3C364 42 363.6 41.8 363.2 41.6C364.2 40.7 365 39.8 365.6 38.7C366.9 36.5 367.6 34.1 367.6 31.4C367.6 28.5 367 26 365.9 24.1C364.8 22.1 363.3 20.5 361.4 19.4C359.6 18.3 357.5 17.5 355.2 17.1C353 16.7 350.7 16.5 348.3 16.5C343.6 16.5 338.1 17.2 332 18.5L330 19L330.5 21C330.7 21.7 330.8 22.3 331 23C331.1 23.5 331.2 24.1 331.3 24.8V24.9C331.4 25.5 331.5 26.2 331.5 27V27.1C331.6 27.9 331.7 28.9 331.7 30.1C331.8 32 331.8 33.9 331.8 35.7V41.5C331.8 45.8 331.8 50.1 331.7 54.3C331.6 58.4 331.5 62.4 331.4 66.4L331.3 67.9L332.7 68.4C334.1 68.9 335.7 69.3 337.3 69.7C338.7 70 340.4 70.3 342.3 70.6C344.2 70.8 346.3 71 348.6 71C352.1 71 355.2 70.6 357.8 69.8C360.5 69 362.7 67.8 364.6 66.2C366.4 64.6 367.8 62.7 368.6 60.5C369.4 58.4 369.9 56 369.9 53.5C369.9 52.2 369.7 50.8 369.4 49.5C369.1 48 368.5 46.6 367.7 45.5ZM353.7 36.3C352.5 37.4 350.4 38 347.4 38H343.8C343.8 36.7 343.7 35.6 343.7 34.5C343.7 32.8 343.7 31.3 343.6 30C343.6 29.1 343.5 28.2 343.5 27.5C343.9 27.4 344.2 27.4 344.6 27.3C345.6 27.2 346.7 27.1 347.9 27.1C350.6 27.1 352.5 27.5 353.8 28.4C354.2 28.6 355.3 29.4 355.3 32.2C355.5 33.8 354.9 35.2 353.7 36.3ZM343.4 56.6C343.5 55.2 343.6 53.6 343.6 51.8C343.6 50.6 343.7 49.4 343.7 48.1C344.2 48.1 344.7 48.1 345.2 48.1H347.9C349.5 48.1 350.9 48.2 352.3 48.4C353.5 48.6 354.5 48.9 355.3 49.4C356 49.8 356.6 50.4 357 51.1L357.1 51.2C357.5 51.9 357.7 52.8 357.7 53.9C357.7 56.2 357.1 57.7 355.9 58.7C354.5 59.7 352.3 60.2 349.4 60.2C348.4 60.2 347.4 60.2 346.5 60.1C345.6 60 344.8 59.8 344.1 59.6C343.9 59.5 343.6 59.5 343.4 59.4C343.3 58.6 343.4 57.6 343.4 56.6Z" fill="#E2211C"/>
<path d="M457.9 17.4001C457 16.9001 455.8 16.7001 454.2 16.7001C453.5 16.7001 452.8 16.8001 452.1 16.9001C451.5 17.0001 451 17.0001 450.6 17.1001C450 17.2001 449.6 17.3001 449.1 17.4001L447.7 17.8001L447.6 19.3001C447.5 21.1001 447.2 23.2001 446.7 25.8001C446.2 28.3001 445.6 31.0001 444.8 33.8001C444.1 36.5001 443.2 39.2001 442.3 41.8001C442 42.7001 441.7 43.5001 441.4 44.3001C440.9 43.2001 440.4 42.0001 439.9 40.9001C438.7 38.3001 437.4 35.7001 436.2 33.4001C435 31.0001 433.7 28.6001 432.5 26.5001C431.3 24.3001 430.2 22.4001 429.2 20.7001C428.5 19.5001 427.9 18.7001 427.2 18.1001C426.3 17.3001 425.2 16.9001 423.7 16.9001C422.7 16.9001 421.7 17.2001 420.6 17.7001C419.8 18.1001 419.1 18.5001 418.4 19.0001C417.6 19.5001 416.9 20.1001 416.2 20.7001C415.9 20.4001 415.6 20.2001 415.3 19.9001C415 19.6001 414.7 19.4001 414.3 19.0001C413.9 18.6001 413.4 18.2001 412.9 17.8001C410.9 16.3001 409.1 16.3001 408 16.6001C406.5 16.9001 405.1 18.0001 403.6 19.8001C402.6 21.1001 401.5 22.5001 400.5 24.0001C399.5 25.5001 398.4 27.1001 397.3 28.8001C396.3 30.4001 395.2 32.1001 394.2 33.9001C393.4 35.3001 392.6 36.6001 391.8 37.9001C391.2 37.9001 390.6 37.9001 390 37.9001C389.5 37.9001 389 37.9001 388.4 37.8001C388.4 36.0001 388.4 34.3001 388.4 32.7001C388.4 30.5001 388.5 28.5001 388.5 26.8001C388.5 24.8001 388.6 22.9001 388.6 21.1001C388.6 19.2001 387.4 17.1001 384.1 17.1001C383.1 17.1001 382.2 17.2001 381.2 17.3001C380.3 17.4001 379.5 17.5001 378.7 17.7001C377.8 17.9001 377 18.1001 376.3 18.3001L374.3 18.8001L374.9 20.8001C375.1 21.4001 375.3 22.0001 375.5 22.6001C375.7 23.0001 375.8 23.5001 375.9 24.1001V24.3001C376.1 24.8001 376.2 25.4001 376.2 26.0001C376.3 26.7001 376.3 27.6001 376.3 28.5001C376.3 31.2001 376.3 34.1001 376.2 37.2001C376.2 40.2001 376.2 43.3001 376.1 46.5001L376 55.8001C376 58.8001 376 61.8001 375.9 64.6001C375.9 66.7001 376.3 68.1001 377.1 69.2001C378 70.2001 379.4 70.6001 381.5 70.6001C382.2 70.6001 383.1 70.6001 384.1 70.4001C385.1 70.3001 386.1 70.1001 387 69.9001L389 69.5001L388.5 67.5001C388.4 67.0001 388.3 66.5001 388.2 65.9001C388.1 65.5001 388.1 65.0001 388 64.4001C388 63.8001 387.9 63.2001 387.9 62.6001V55.3001C387.9 52.8001 387.9 50.2001 388 47.6001C388.2 47.6001 388.5 47.6001 388.7 47.7001H388.8C389.5 47.7001 390.1 47.8001 390.6 47.9001H390.8C391.2 48.0001 391.6 48.1001 391.9 48.2001C392.3 48.4001 392.7 48.6001 393 48.9001C393.9 49.6001 394.8 51.0001 395.7 52.9001C396.8 55.1001 398.1 57.7001 399.6 60.6001C400.5 62.4001 401.3 63.9001 402 65.1001C402.7 66.4001 403.5 67.4001 404.3 68.2001C405.2 69.1001 406.1 69.7001 407.2 70.1001C408.2 70.5001 409.4 70.6001 410.7 70.6001C412.7 70.6001 414.2 70.1001 415.2 69.1001C416.2 68.1001 416.6 66.6001 416.6 64.7001C416.6 64.1001 416.6 63.6001 416.5 63.0001C416.5 62.5001 416.4 62.1001 416.4 61.7001C416.4 61.2001 416.3 60.8001 416.3 60.4001L416.1 58.6001H414.3C413.7 58.6001 413.2 58.6001 412.8 58.5001C412.6 58.5001 412.5 58.4001 412.3 58.3001C412 58.0001 411.7 57.7001 411.4 57.3001C411.1 56.8001 410.7 56.0001 410.2 55.0001C409.1 52.7001 408.1 50.8001 407.2 49.3001C406.3 47.7001 405.5 46.2001 404.7 45.2001C403.9 44.0001 403.2 43.0001 402.5 42.3001C402.2 42.0001 402 41.8001 401.7 41.5001C402.7 40.0001 403.6 38.6001 404.5 37.3001C405.7 35.6001 406.9 34.0001 408.1 32.6001C409.3 31.1001 410.6 29.7001 411.9 28.3001C413.1 27.0001 414.5 25.6001 415.9 24.1001C419.3 28.9001 422.6 34.1001 425.7 39.6001C428.8 45.0001 431.7 50.8001 434.3 56.8001C433 58.3001 431.5 59.0001 429.8 59.0001C429.2 59.0001 428.6 58.9001 428.1 58.8001C427.8 58.7001 427.3 58.6001 426.6 58.1001L424.8 57.1001L423.8 58.9001C423.2 59.9001 422.8 61.0001 422.4 62.1001C422 63.2001 421.8 64.4001 421.8 65.4001C421.8 68.5001 423.6 69.7001 424.6 70.2001C426 70.8001 427.7 71.2001 429.7 71.2001C432 71.2001 434.2 70.6001 436.2 69.5001C438.1 68.5001 439.9 66.9001 441.5 65.0001C443.1 63.1001 444.7 60.8001 446.2 58.2001C447.7 55.6001 449.2 52.6001 450.8 49.2001C451.4 47.8001 452.1 46.3001 452.8 44.6001C453.5 42.8001 454.2 41.1001 454.9 39.3001C455.6 37.5001 456.2 35.6001 456.7 33.9001C457.3 32.1001 457.8 30.4001 458.3 28.8001C458.8 27.2001 459.1 25.7001 459.4 24.6001C459.7 23.2001 459.9 22.2001 459.9 21.4001C460.1 18.7001 458.6 17.7001 457.9 17.4001Z" fill="#E2211C"/>
<path d="M499.3 56.7L498.1 55.1L496.5 56.4C495.5 57.2 494.1 58 492.4 58.8C490.8 59.5 488.8 59.9 486.5 59.9C482.6 59.9 479.7 58.6 477.5 56C475.2 53.3 474 49.3 474 44.1C474 41.4 474.3 38.9 475 36.9C475.7 34.9 476.6 33.1 477.7 31.8C478.8 30.4 480 29.4 481.4 28.7C482.8 28 484.3 27.7 485.8 27.7C486.9 27.7 487.8 27.8 488.8 27.9C489.7 28 490.5 28.1 491.2 28.2H491.3C492 28.3 492.7 28.4 493.3 28.5H493.5C494.3 28.6 495.1 28.7 495.9 28.7C498 28.7 499.6 27.6 500.3 25.7C500.8 24.3 501.1 22.2 501.1 19.1V17.1H499.1C498.2 17.1 497.3 17.1 496.5 17C495.6 16.9 494.6 16.8 493.7 16.8C492.7 16.7 491.6 16.6 490.5 16.6C489.3 16.5 488 16.5 486.5 16.5C482.5 16.5 478.9 17.3 475.8 19C472.8 20.6 470.2 22.7 468.1 25.4C466.1 28 464.5 31.1 463.5 34.5C462.5 37.8 462 41.4 462 44.9C462 49.2 462.6 53 463.9 56.4C465.2 59.7 467 62.5 469.3 64.6C471.5 66.8 474.2 68.5 477.2 69.6C480.2 70.7 483.4 71.2 486.8 71.2C488.5 71.2 490.3 71 492 70.7C493.7 70.4 495.3 70 496.7 69.4C498.2 68.8 499.4 68.1 500.3 67.2C501.8 65.8 502.2 64.4 502.2 63.4C502.2 62.4 502 61.3 501.6 60.1C500.6 58.8 500.1 57.6 499.3 56.7Z" fill="#E2211C"/>
<path d="M548.5 63.1004C548.5 61.1004 548.4 58.9004 548.4 56.4004C548.4 54.0004 548.4 51.4004 548.3 48.8004V41.5004C548.3 40.0004 548.3 38.3004 548.4 36.4004L548.7 30.6004C548.8 28.6004 548.9 26.8004 548.9 25.2004C549 23.5004 549 22.1004 549 21.1004C549 19.1004 548.1 18.1004 547.4 17.7004C546.6 17.2004 545.7 17.0004 544.4 17.0004C543.4 17.0004 542.3 17.1004 541.1 17.2004C539.8 17.3004 538.6 17.5004 537.5 17.7004L535.9 18.1004L536 19.8004C536.1 21.2004 536.2 22.5004 536.3 23.8004C536.4 24.8004 536.5 25.9004 536.5 27.2004C536.6 28.3004 536.6 29.1004 536.6 29.8004L536.5 37.8004C535.2 37.7004 533.9 37.6004 532.6 37.6004C529 37.4004 525.4 37.4004 521.8 37.5004C520.9 37.5004 519.9 37.6004 518.8 37.6004C518.8 36.9004 518.9 36.2004 518.9 35.4004C519 33.5004 519.1 31.6004 519.1 29.7004C519.2 27.7004 519.3 25.9004 519.3 24.1004C519.3 22.4004 519.4 21.0004 519.4 20.1004C519.4 18.5004 518.4 17.4004 516.8 17.1004C516.1 17.0004 515.5 16.9004 514.9 16.9004C513.6 16.9004 512.2 17.0004 510.8 17.3004C509.5 17.5004 508.2 17.8004 507 18.1004L504.9 18.6004L505.5 20.6004C505.7 21.3004 505.9 22.1004 506.1 23.0004V23.1004C506.3 23.8004 506.5 24.7004 506.6 25.8004C506.7 26.8004 506.8 28.0004 506.9 29.5004C507 30.9004 507 32.5004 507 34.4004C507 35.8004 507 37.3004 506.9 39.1004C506.9 40.8004 506.9 42.6004 506.8 44.4004L506.7 49.9004C506.7 51.6004 506.6 53.3004 506.6 54.9004C506.6 55.4004 506.6 56.1004 506.5 56.9004C506.5 57.7004 506.4 58.6004 506.4 59.6004L506.3 62.3004C506.3 63.2004 506.2 63.9004 506.2 64.6004C506.2 66.6004 506.5 67.9004 507.2 69.0004C508 70.1004 509.4 70.6004 511.2 70.6004C511.9 70.6004 512.8 70.6004 514 70.5004C515.2 70.4004 516.3 70.2004 517.2 70.0004L519 69.6004L518.7 67.8004C518.6 67.2004 518.5 66.7004 518.4 66.0004C518.3 65.6004 518.3 65.1004 518.2 64.5004C518.2 63.9004 518.1 63.3004 518.1 62.7004V59.3004L518.2 54.9004C518.2 53.4004 518.3 51.9004 518.3 50.4004C518.3 49.7004 518.3 49.0004 518.4 48.4004C518.9 48.4004 519.5 48.4004 520.1 48.4004C521.4 48.4004 522.8 48.3004 524.3 48.3004C528.7 48.3004 532.7 48.4004 536.2 48.6004C536.2 48.7004 536.2 48.8004 536.2 48.9004C536.2 49.9004 536.2 51.0004 536.1 52.3004C536.1 53.5004 536.1 54.8004 536 56.3004C536 57.7004 536 59.0004 535.9 60.4004V66.3004C535.9 67.4004 536.2 68.3004 536.9 69.2004C537.7 70.2004 539 70.7004 540.9 70.7004C541.9 70.7004 543.1 70.6004 544.2 70.4004C545.4 70.2004 546.4 69.9004 547.3 69.6004L548.9 69.1004L548.7 67.5004C548.7 66.3004 548.6 64.9004 548.5 63.1004Z" fill="#E2211C"/>
<path d="M597.5 23.6996C595.4 21.2996 592.8 19.3996 589.8 18.0996C586.8 16.7996 583.2 16.0996 579.2 16.0996C575.4 16.0996 572 16.8996 568.9 18.4996C565.9 20.0996 563.3 22.1996 561.3 24.7996C559.2 27.3996 557.7 30.3996 556.6 33.7996C555.5 37.1996 555 40.6996 555 44.3996C555 48.2996 555.5 51.8996 556.5 55.1996C557.6 58.4996 559.1 61.2996 561.2 63.6996C563.3 66.0996 565.9 67.8996 568.9 69.2996C571.9 70.5996 575.4 71.1996 579.3 71.1996C583.1 71.1996 586.5 70.3996 589.5 68.7996C592.5 67.1996 595.1 65.0996 597.2 62.4996C599.3 59.8996 600.9 56.7996 602 53.4996C603.1 50.0996 603.6 46.5996 603.6 42.8996C603.6 38.9996 603.1 35.3996 602.1 32.1996C601 28.8996 599.5 25.9996 597.5 23.6996ZM591.1 43.3996C591.1 45.9996 590.8 48.3996 590.1 50.5996C589.5 52.6996 588.6 54.4996 587.5 55.8996C586.4 57.2996 585.1 58.3996 583.7 59.1996C582.4 59.8996 580.9 60.2996 579.4 60.2996C577.6 60.2996 575.9 59.9996 574.5 59.2996C573.1 58.5996 571.8 57.5996 570.7 56.1996C569.6 54.7996 568.7 53.0996 568.1 50.9996C567.5 48.8996 567.1 46.4996 567.1 43.7996C567.1 41.0996 567.4 38.6996 568.1 36.5996C568.8 34.4996 569.7 32.6996 570.8 31.2996C571.9 29.8996 573.2 28.7996 574.7 28.0996C576.1 27.3996 577.5 26.9996 579 26.9996C580.7 26.9996 582.4 27.3996 583.8 28.0996C585.2 28.7996 586.5 29.7996 587.5 31.0996C588.6 32.4996 589.5 34.1996 590.1 36.2996C590.8 38.2996 591.1 40.6996 591.1 43.3996Z" fill="#E2211C"/>
<path d="M652.6 64.9008L652.5 62.7008C652.5 62.0008 652.4 61.3008 652.4 60.7008C652.3 57.9008 652.3 54.8008 652.3 51.5008V41.4008C652.3 39.9008 652.3 38.2008 652.4 36.3008L652.5 30.7008C652.6 28.8008 652.7 27.1008 652.7 25.4008C652.7 23.7008 652.8 22.3008 652.8 21.2008C652.8 19.7008 652.4 18.6008 651.6 17.8008C650.9 17.1008 649.8 16.8008 648.4 16.8008C647.5 16.8008 646.4 16.9008 645.2 17.0008C644 17.1008 642.8 17.2008 641.8 17.4008L641 17.6008L640.5 18.3008C639.1 20.5008 637.4 23.0008 635.5 25.9008C633.6 28.8008 631.6 31.9008 629.5 35.1008C627.4 38.3008 625.4 41.6008 623.3 44.9008C622.7 45.8008 622.2 46.8008 621.6 47.7008C621.6 47.1008 621.6 46.6008 621.6 46.0008C621.6 44.8008 621.7 43.4008 621.7 41.8008L621.8 35.5008C621.8 33.3008 621.9 31.3008 621.9 29.5008C621.9 27.6008 622 25.8008 622 24.3008C622 22.7008 622.1 21.3008 622.1 20.3008C622.1 19.7008 621.9 16.8008 617.6 16.8008C616.4 16.8008 615.2 16.9008 614.2 17.0008C613.1 17.1008 611.8 17.3008 610.4 17.7008L608.6 18.2008L608.9 20.0008C609 20.7008 609.2 21.4008 609.2 21.9008V22.1008C609.3 22.6008 609.4 23.1008 609.5 23.7008C609.6 24.2008 609.6 24.9008 609.7 25.6008C609.7 26.3008 609.8 27.1008 609.8 28.1008C609.8 30.0008 609.8 32.1008 609.7 34.5008V41.6008C609.7 44.0008 609.7 46.4008 609.6 48.7008C609.6 51.1008 609.5 53.3008 609.5 55.5008C609.5 57.5008 609.5 59.4008 609.4 61.0008V66.4008V66.6008C609.5 67.3008 609.7 68.0008 610 68.6008L610.1 68.8008C610.5 69.4008 611.1 69.9008 611.9 70.2008C613 70.7008 614.6 70.8008 617 70.5008C618 70.4008 619 70.3008 619.9 70.1008L620.8 69.9008L621.2 69.0008C621.6 68.2008 622.2 66.9008 623.1 65.4008C624 63.8008 625.1 61.9008 626.3 59.8008C627.5 57.7008 628.8 55.5008 630.3 53.0008C631.8 50.5008 633.3 48.0008 634.9 45.5008C636.5 42.9008 638.1 40.4008 639.6 38.0008C639.8 37.6008 640.1 37.3008 640.3 36.9008C640.3 38.0008 640.3 39.1008 640.2 40.3008C640.2 42.0008 640.2 43.7008 640.1 45.3008V49.7008L640 54.8008C640 56.4008 640 58.0008 639.9 59.4008C639.9 60.8008 639.9 62.0008 639.8 63.3008V65.9008C639.8 67.6008 640.2 68.9008 641.2 69.7008L641.3 69.8008C642.2 70.5008 643.3 70.8008 645.1 70.8008C645.8 70.8008 646.7 70.7008 647.7 70.7008C648.8 70.6008 650 70.3008 651.2 69.9008L653 69.0008L652.8 67.4008C652.7 66.5008 652.6 65.7008 652.6 64.9008Z" fill="#E2211C"/>
<path d="M619.3 10.7004C619.8 11.7004 620.5 12.6004 621.5 13.5004C622.4 14.3004 623.6 15.1004 625.1 15.7004C626.6 16.3004 628.4 16.6004 630.4 16.6004C632.3 16.6004 634 16.3004 635.6 15.6004C637.1 15.0004 638.4 14.1004 639.5 13.1004C640.6 12.1004 641.5 11.0004 642.1 9.80039C642.8 8.50039 643.1 7.20039 643.1 6.00039C643.1 5.40039 643 4.80039 642.8 4.30039C642.7 3.90039 642.5 3.50039 642.3 3.10039L639.8 -0.0996094L638.3 2.40039C637.4 3.90039 636.3 5.10039 635.1 6.00039C634 6.80039 632.8 7.10039 631.5 7.10039C629.8 7.10039 628 6.60039 627.4 2.80039L626.7 0.000390626L624.2 1.60039C623.3 2.20039 622.4 2.70039 621.7 3.30039C621 3.90039 620.3 4.50039 619.8 5.10039C619 6.00039 618.6 6.90039 618.6 7.90039C618.6 8.60039 618.8 9.50039 619.2 10.6004L619.3 10.7004Z" fill="#E2211C"/>
<path d="M714.4 45.4996C713.6 44.2996 712.4 43.1996 711.1 42.2996C710.7 41.9996 710.3 41.7996 709.9 41.5996C710.9 40.6996 711.7 39.7996 712.3 38.6996C713.6 36.4996 714.3 34.0996 714.3 31.3996C714.3 28.4996 713.7 25.9996 712.6 24.0996C711.5 22.0996 710 20.4996 708.1 19.4996C706.3 18.3996 704.2 17.5996 701.9 17.1996C699.7 16.7996 697.4 16.5996 695 16.5996C690.3 16.5996 684.8 17.2996 678.8 18.5996L676.8 18.9996L677.3 20.9996C677.5 21.6996 677.6 22.2996 677.8 22.9996C677.9 23.4996 678 24.0996 678.1 24.7996V24.8996C678.2 25.4996 678.3 26.1996 678.3 26.9996V27.0996C678.4 27.8996 678.5 28.8996 678.5 30.0996C678.6 31.9996 678.6 33.8996 678.6 35.6996V41.4996C678.6 45.7996 678.6 50.0996 678.5 54.2996C678.4 58.3996 678.3 62.4996 678.2 66.3996L678.1 67.8996L679.5 68.3996C680.9 68.8996 682.5 69.2996 684.1 69.6996C685.5 69.9996 687.2 70.2996 689.1 70.5996C691 70.7996 693.1 70.9996 695.4 70.9996C698.9 70.9996 702 70.5996 704.6 69.7996C707.3 68.9996 709.5 67.7996 711.4 66.1996C713.2 64.5996 714.6 62.6996 715.4 60.4996C716.2 58.3996 716.7 55.9996 716.7 53.4996C716.7 52.1996 716.5 50.7996 716.2 49.4996C715.8 47.9996 715.2 46.5996 714.4 45.4996ZM700.4 36.2996C699.2 37.3996 697.1 37.9996 694.1 37.9996H690.5C690.5 36.6996 690.4 35.5996 690.4 34.4996C690.4 32.7996 690.4 31.2996 690.3 29.9996C690.3 29.0996 690.2 28.1996 690.2 27.4996C690.6 27.3996 690.9 27.3996 691.3 27.2996C692.3 27.1996 693.4 27.0996 694.6 27.0996C697.3 27.0996 699.2 27.4996 700.5 28.3996C700.9 28.5996 702 29.3996 702 32.1996C702.2 33.7996 701.6 35.1996 700.4 36.2996ZM690.2 56.5996C690.3 55.1996 690.4 53.5996 690.4 51.7996L690.5 48.0996C691 48.0996 691.5 48.0996 692 48.0996H694.7C696.3 48.0996 697.7 48.1996 699.1 48.3996C700.3 48.5996 701.3 48.8996 702.1 49.3996C702.8 49.7996 703.4 50.3996 703.8 51.0996L703.9 51.1996C704.3 51.8996 704.5 52.7996 704.5 53.8996C704.5 56.1996 703.9 57.6996 702.7 58.6996C701.3 59.6996 699.1 60.1996 696.2 60.1996C695.2 60.1996 694.2 60.1996 693.3 60.0996C692.4 59.9996 691.6 59.7996 690.9 59.5996C690.7 59.4996 690.4 59.4996 690.2 59.3996C690 58.5996 690.1 57.5996 690.2 56.5996Z" fill="#E2211C"/>
<path d="M776.2 63.5004C776.2 61.8004 776.1 59.8004 776.1 57.6004C776.1 55.3004 776 52.9004 776 50.4004V42.1004C776 37.4004 776.1 33.3004 776.3 29.7004C776.5 26.0004 776.6 23.1004 776.6 21.1004C776.6 19.1004 775.7 18.1004 774.9 17.6004C774.1 17.1004 773.1 16.9004 772 16.9004C771.6 16.9004 771 16.9004 770.3 17.0004C769.6 17.0004 769 17.1004 768.3 17.1004C767.6 17.1004 766.9 17.2004 766.2 17.3004C765.6 17.4004 765 17.5004 764.5 17.6004L762.6 18.0004L762.9 19.9004C763 20.6004 763.1 21.3004 763.3 22.0004C763.4 22.6004 763.5 23.2004 763.6 23.9004C763.7 24.6004 763.8 25.2004 763.8 25.8004C763.9 27.7004 764 30.1004 764 32.9004C764 35.7004 764.1 38.8004 764.1 42.0004C764.1 44.9004 764.1 47.6004 764 50.2004C764 52.7004 763.9 55.0004 763.9 57.2004C763.9 59.2004 763.9 61.0004 763.8 62.6004C763.8 64.2004 763.7 65.4004 763.7 66.3004C763.7 67.4004 764 68.3004 764.7 69.2004C765.5 70.2004 766.8 70.6004 768.7 70.6004C769.7 70.6004 770.9 70.5004 772 70.3004C773.2 70.1004 774.2 69.8004 775.1 69.5004L776.6 69.0004L776.4 67.4004C776.3 66.4004 776.2 65.1004 776.2 63.5004Z" fill="#E2211C"/>
<path d="M755.9 39.5996C754.3 38.1996 752.4 37.1996 750.2 36.4996C748.1 35.7996 745.7 35.4996 743.2 35.4996C741.1 35.4996 739.2 35.6996 737.4 35.8996C736.6 35.9996 735.8 36.1996 735.1 36.2996C735.1 33.6996 735.1 31.4996 735.1 29.3996C735.1 26.6996 735.1 24.2996 735 22.2996C734.9 20.5996 734.7 19.3996 734.3 18.4996C733.9 17.5996 732.8 16.5996 730.4 16.5996C729.4 16.5996 728.2 16.6996 726.9 16.8996C725.6 17.0996 724.2 17.3996 722.8 17.7996L720.8 18.2996L721.4 20.2996C721.6 20.8996 721.7 21.4996 721.9 21.9996L722 22.1996C722.1 22.4996 722.2 22.8996 722.3 23.3996V23.5996C722.4 24.0996 722.5 24.6996 722.6 25.2996V25.3996C722.7 25.9996 722.8 26.7996 722.9 27.7996C723 28.7996 723.1 29.9996 723.1 31.2996C723.2 32.4996 723.3 33.7996 723.3 35.1996C723.4 36.4996 723.4 37.7996 723.4 39.1996C723.4 40.4996 723.5 41.7996 723.5 42.9996C723.5 46.6996 723.4 50.4996 723.2 54.4996C723 58.4996 722.8 62.3996 722.6 65.9996L722.5 67.4996L723.9 67.9996C725.1 68.3996 726.6 68.7996 728.1 69.1996C729.4 69.4996 731 69.7996 732.8 69.9996C734.6 70.1996 736.7 70.2996 738.9 70.2996C742.1 70.2996 745 69.9996 747.6 69.2996C750.4 68.5996 752.8 67.5996 754.8 66.0996C756.8 64.5996 758.4 62.5996 759.5 60.1996C760.6 57.7996 761.2 54.9996 761.2 51.7996C761.2 49.0996 760.7 46.6996 759.8 44.6996C758.9 42.6996 757.6 40.9996 755.9 39.5996ZM748.9 52.5996C748.9 53.8996 748.7 54.9996 748.3 55.7996C747.9 56.5996 747.3 57.2996 746.5 57.8996C745.7 58.4996 744.8 58.8996 743.7 59.1996C742.5 59.4996 741.1 59.5996 739.6 59.5996C738.5 59.5996 737.6 59.5996 736.8 59.4996C736 59.3996 735.4 59.2996 734.7 59.1996H734.6C734.7 58.0996 734.8 56.9996 734.8 55.8996C734.9 54.3996 735 52.6996 735 50.8996V46.9996C735.6 46.8996 736.2 46.6996 736.9 46.5996C738.1 46.2996 739.6 46.1996 741.4 46.1996C744 46.1996 745.9 46.7996 747.1 47.8996C748.3 48.7996 748.9 50.3996 748.9 52.5996Z" fill="#E2211C"/>
<path d="M825.8 36.6012C825.9 34.6012 826 32.6012 826.1 30.6012C826.2 28.6012 826.3 26.7012 826.3 25.2012C826.4 23.5012 826.4 22.3012 826.4 21.5012C826.4 19.5012 825.5 18.5012 824.8 18.0012C824 17.5012 823 17.2012 821.8 17.1012C820.2 17.0012 818.8 16.9012 817.4 16.9012L813.5 16.8012C812.2 16.8012 810.8 16.7012 809.4 16.7012H804.9C801.5 16.7012 798.2 16.7012 795.1 16.8012C792.1 16.8012 788.8 17.0012 785.4 17.3012L782.9 17.5012L783.6 19.9012C784 21.1012 784.3 22.4012 784.6 23.8012C784.9 25.1012 785.1 26.5012 785.1 28.2012C785.1 28.7012 785.2 30.0012 785.2 33.1012V42.1012C785.2 44.4012 785.2 46.7012 785.1 49.1012C785.1 51.5012 785 53.7012 784.8 55.8012C784.7 57.9012 784.6 59.7012 784.5 61.4012C784.5 63.1012 784.4 64.3012 784.4 65.1012C784.4 67.1012 784.7 68.3012 785.5 69.2012C786.5 70.4012 788.3 70.5012 789.6 70.5012C790.3 70.5012 791.2 70.5012 792.4 70.4012C793.6 70.3012 794.6 70.1012 795.5 69.9012L797.3 69.5012L797 67.7012C796.9 67.2012 796.8 66.6012 796.7 65.8012C796.6 65.3012 796.6 64.6012 796.5 63.9012C796.5 63.1012 796.4 62.3012 796.4 61.4012C796.4 55.2012 796.5 49.1012 796.7 43.3012C796.9 38.1012 797.1 32.9012 797.3 27.7012C798 27.7012 798.8 27.7012 799.6 27.7012H807.4C808.4 27.7012 809.4 27.7012 810.5 27.8012C811.5 27.8012 812.5 27.8012 813.4 27.9012C813.7 27.9012 813.9 27.9012 814.1 27.9012C814.1 30.1012 814 32.5012 814 35.3012C814 38.8012 813.9 42.5012 813.7 46.3012C813.6 50.1012 813.5 53.9012 813.4 57.5012C813.4 61.1012 813.3 64.3012 813.3 67.0012C813.3 68.5012 813.9 69.3012 814.4 69.7012L814.5 69.8012C815.2 70.3012 816.2 70.5012 818 70.5012C818.7 70.5012 819.6 70.5012 820.8 70.4012C822.1 70.3012 823.4 70.0012 824.6 69.6012L826.1 69.1012L825.9 67.5012C825.9 67.1012 825.8 66.5012 825.7 65.8012C825.6 65.4012 825.6 64.8012 825.5 64.0012C825.5 63.1012 825.4 62.1012 825.4 60.8012C825.3 58.0012 825.3 55.0012 825.3 51.7012C825.3 48.4012 825.4 45.0012 825.5 41.7012C825.7 40.3012 825.7 38.5012 825.8 36.6012Z" fill="#E2211C"/>
<path d="M869.3 60.9004C869.2 60.4004 869.1 59.9004 869 59.5004L868.5 57.4004L866.5 58.0004C864.7 58.5004 863 58.8004 861.4 59.1004C859.8 59.3004 857.9 59.4004 855.8 59.4004C854.7 59.4004 853.5 59.4004 852.2 59.5004H846.8C846.9 57.3004 846.9 55.3004 846.9 53.4004L847 48.2004C847.5 48.3004 848.1 48.3004 848.7 48.4004C850.1 48.5004 851.4 48.6004 852.8 48.7004C854.1 48.7004 855.3 48.8004 856.5 48.8004C857.7 48.8004 858.8 48.9004 859.7 48.9004C861.6 48.9004 863 48.5004 864 47.5004C865 46.5004 865.4 45.1004 865.4 43.1004C865.4 42.6004 865.4 42.1004 865.3 41.6004C865.3 41.2004 865.2 40.8004 865.2 40.4004C865.2 40.0004 865.1 39.6004 865.1 39.2004L864.8 37.1004L862.7 37.5004C862.3 37.6004 861.8 37.6004 861.3 37.7004C860.8 37.7004 860.3 37.8004 859.7 37.8004H857.8C855.2 37.8004 852.8 37.8004 850.8 37.7004C849.5 37.6004 848.2 37.6004 847 37.5004C847 36.4004 846.9 35.4004 846.9 34.4004C846.9 32.7004 846.9 31.2004 846.8 30.0004C846.8 29.2004 846.7 28.5004 846.7 27.7004C848.5 27.7004 850.4 27.8004 852.2 27.9004C854.8 28.0004 857.3 28.1004 859.5 28.1004C862.2 28.1004 863.9 27.9004 865 27.4004C865.9 27.0004 867.4 25.9004 867.4 23.2004C867.4 22.9004 867.4 22.3004 867.3 21.4004C867.2 20.5004 867.1 19.4004 866.8 18.2004L866.4 16.4004L864.5 16.7004C863.2 16.9004 861.9 17.0004 860.6 17.1004C859.3 17.1004 857.7 17.2004 856 17.2004H852.5C851.2 17.2004 849.8 17.1004 848.6 17.1004C847.3 17.1004 846 17.0004 844.9 17.0004H844.8C843.6 17.0004 842.5 16.9004 841.5 16.9004C840.2 16.9004 839 16.9004 838 17.0004C836.9 17.1004 835.8 17.2004 834.9 17.4004L832.9 17.9004L833.5 19.9004C833.7 20.5004 833.8 21.1004 834 21.7004L834.1 21.9004C834.3 22.3004 834.4 22.8004 834.5 23.4004C834.6 23.9004 834.7 24.6004 834.8 25.3004C834.9 26.0004 835 26.9004 835.1 27.9004C835.2 29.6004 835.2 31.6004 835.2 33.7004C835.2 35.7004 835.3 37.9004 835.3 40.1004C835.3 45.7004 835.3 50.8004 835.2 55.1004C835.2 59.4004 835 63.6004 834.8 67.5004L834.7 69.4004L836.6 69.6004C839.4 69.8004 842.5 70.0004 845.7 70.1004C848.9 70.2004 852 70.3004 854.8 70.3004C857.5 70.3004 859.7 70.3004 861.4 70.2004C863.2 70.2004 864.7 70.0004 865.8 69.7004C867.2 69.3004 868.2 68.7004 868.8 67.8004C869.3 67.0004 869.6 66.0004 869.6 64.7004C869.6 63.9004 869.5 63.2004 869.4 62.5004C869.5 62.0004 869.4 61.4004 869.3 60.9004Z" fill="#E2211C"/>
<path d="M911.1 17.8004C910.4 17.2004 909.4 16.9004 908 16.9004C907 16.9004 905.9 17.0004 904.7 17.1004C903.4 17.2004 902.2 17.4004 901.1 17.6004L899.4 18.0004L899.5 19.7004C899.6 21.5004 899.8 23.1004 899.8 24.7004C899.9 26.2004 899.9 27.7004 899.9 29.3004C899.9 30.8004 900 32.3004 900 33.9004V38.0004C899.7 38.2004 899.4 38.5004 899.1 38.8004C898.5 39.3004 897.7 39.9004 896.8 40.4004C896 40.9004 894.9 41.3004 893.8 41.7004C892.6 42.0004 891.3 42.2004 889.8 42.2004C887.7 42.2004 886.4 41.8004 885.8 40.9004C885 39.7004 884.7 37.9004 884.7 35.6004C884.7 34.4004 884.7 33.2004 884.8 32.0004L884.9 28.2004C884.9 26.9004 885 25.8004 885 24.6004C885 23.4004 885.1 22.4004 885.1 21.4004C885.1 19.9004 884.7 18.8004 883.8 18.0004C883 17.3004 881.9 16.9004 880.5 16.9004C879.2 16.9004 877.9 17.0004 876.7 17.3004C875.6 17.5004 874.4 17.8004 873.1 18.1004L871 18.6004L871.7 20.7004C872.2 22.2004 872.5 23.7004 872.7 25.1004C872.9 26.5004 873 27.9004 873 29.1004C873 30.3004 873 31.7004 872.9 33.2004C872.9 34.7004 872.9 36.3004 872.9 38.0004C873 43.0004 874.3 46.9004 876.8 49.5004C879.4 52.1004 883.3 53.5004 888.4 53.5004C890.5 53.5004 892.5 53.3004 894.1 52.8004C895.7 52.3004 897.1 51.8004 898.4 51.2004C898.9 50.9004 899.4 50.6004 899.9 50.3004V51.0004C899.9 52.2004 899.9 53.5004 899.8 55.1004C899.8 56.6004 899.8 58.0004 899.7 59.5004C899.7 60.9004 899.7 62.2004 899.6 63.4004V66.2004C899.6 67.5004 900 68.6004 900.7 69.4004L900.8 69.5004C901.6 70.2004 902.8 70.6004 904.4 70.6004C905.2 70.6004 906 70.5004 907.1 70.4004C908.1 70.2004 909.3 70.0004 910.6 69.6004L912 69.2004V67.7004C912 67.6004 912 67.3004 911.9 66.6004C911.9 66.0004 911.8 65.3004 911.8 64.6004C911.8 63.8004 911.8 62.9004 911.7 62.1004C911.7 61.3004 911.6 60.6004 911.6 60.0004V45.9004C911.6 42.7004 911.6 39.8004 911.7 37.3004C911.8 34.8004 911.9 32.5004 911.9 30.6004C912 28.6004 912.1 26.8004 912.1 25.4004C912.2 23.8004 912.2 22.4004 912.2 21.1004C912.5 20.5004 912.5 18.8004 911.1 17.8004Z" fill="#E2211C"/>
<path d="M953.1 32.4005C954.3 30.9005 955.6 29.5005 956.9 28.1005C958.2 26.7005 959.7 25.2005 961.2 23.7005L962.6 22.3005L961.2 20.9005C960.8 20.5005 960.5 20.2005 960 19.8005C959.7 19.5005 959.4 19.3005 959 18.9005C958.6 18.5005 958.1 18.1005 957.6 17.7005C955.6 16.2005 953.8 16.2005 952.7 16.5005C951.2 16.8005 949.8 17.9005 948.3 19.7005C947.3 20.9005 946.3 22.3005 945.2 23.9005C944.2 25.4005 943.1 27.0005 942 28.7005C941 30.3005 939.9 32.1005 938.9 33.8005C938.1 35.2005 937.3 36.5005 936.5 37.8005C935.9 37.8005 935.4 37.8005 934.7 37.8005C934.2 37.8005 933.7 37.8005 933.1 37.7005C933.1 35.9005 933.1 34.2005 933.1 32.6005C933.1 30.4005 933.2 28.4005 933.2 26.7005C933.2 24.7005 933.3 22.8005 933.3 21.0005C933.3 19.1005 932.1 17.0005 928.8 17.0005C927.8 17.0005 926.9 17.1005 925.9 17.2005C925 17.3005 924.2 17.4005 923.4 17.6005C922.5 17.8005 921.7 18.0005 921 18.2005L919 18.7005L919.6 20.7005C919.8 21.3005 920 21.9005 920.2 22.5005C920.4 22.9005 920.5 23.4005 920.6 24.0005V24.2005C920.8 24.7005 920.9 25.3005 920.9 25.9005C921 26.6005 921 27.4005 921 28.4005C921 31.1005 921 34.0005 920.9 37.1005C920.9 40.1005 920.9 43.2005 920.8 46.4005L920.7 55.7005C920.7 58.8005 920.7 61.8005 920.6 64.5005C920.6 66.6005 921 68.0005 921.8 69.1005C922.7 70.1005 924.1 70.5005 926.2 70.5005C926.9 70.5005 927.8 70.5005 928.8 70.3005C929.8 70.2005 930.8 70.0005 931.7 69.8005L933.7 69.4005L933.2 67.4005C933.1 66.9005 933 66.4005 932.9 65.8005C932.8 65.4005 932.8 64.9005 932.7 64.3005C932.7 63.7005 932.6 63.1005 932.6 62.5005V55.2005C932.6 52.8005 932.6 50.2005 932.7 47.5005C932.9 47.5005 933.2 47.5005 933.4 47.6005H933.5C934.2 47.6005 934.8 47.7005 935.3 47.8005H935.5C935.9 47.9005 936.3 48.0005 936.6 48.1005C937 48.3005 937.4 48.5005 937.7 48.8005C938.6 49.5005 939.5 50.9005 940.4 52.8005C941.5 55.0005 942.8 57.6005 944.3 60.5005C945.2 62.3005 946 63.8005 946.7 65.0005C947.4 66.2005 948.2 67.3005 949 68.1005C949.9 69.0005 950.8 69.6005 951.9 70.0005C952.9 70.4005 954.1 70.5005 955.4 70.5005C957.4 70.5005 958.9 70.0005 959.9 69.0005C960.9 68.0005 961.3 66.5005 961.3 64.6005C961.3 64.0005 961.3 63.5005 961.2 62.9005C961.2 62.4005 961.1 62.0005 961.1 61.6005C961.1 61.1005 961 60.7005 961 60.3005L960.8 58.5005H959C958.4 58.5005 957.9 58.5005 957.5 58.4005C957.3 58.4005 957.2 58.3005 957 58.2005C956.7 57.9005 956.4 57.6005 956.1 57.2005C955.8 56.7005 955.4 55.9005 954.9 54.9005C953.8 52.7005 952.8 50.7005 951.9 49.2005C951 47.5005 950.2 46.1005 949.4 45.1005C948.6 43.9005 947.9 42.9005 947.2 42.2005C946.9 41.9005 946.7 41.6005 946.4 41.4005C947.4 39.9005 948.3 38.5005 949.2 37.2005C950.7 35.4005 951.9 33.9005 953.1 32.4005Z" fill="#E2211C"/>
<path d="M1008.7 67.4008C1008.6 66.5008 1008.5 65.7008 1008.5 64.9008C1008.5 64.2008 1008.4 63.5008 1008.4 62.8008V62.7008C1008.4 61.9008 1008.3 61.3008 1008.3 60.7008C1008.2 57.8008 1008.2 54.7008 1008.2 51.5008V41.4008C1008.2 39.9008 1008.2 38.2008 1008.3 36.3008V36.0008C1008.3 34.2008 1008.4 32.4008 1008.4 30.7008C1008.5 28.8008 1008.6 27.1008 1008.6 25.4008C1008.7 23.7008 1008.7 22.3008 1008.7 21.2008C1008.7 20.6008 1008.7 18.9008 1007.5 17.8008C1006.8 17.1008 1005.7 16.8008 1004.3 16.8008C1003.4 16.8008 1002.3 16.9008 1001.1 17.0008C999.9 17.1008 998.7 17.2008 997.7 17.4008L996.9 17.6008L996.4 18.3008C994.9 20.5008 993.3 23.0008 991.4 25.9008C989.5 28.8008 987.5 31.9008 985.4 35.1008C983.3 38.3008 981.3 41.6008 979.2 44.9008C978.6 45.8008 978.1 46.8008 977.5 47.7008C977.5 47.1008 977.5 46.6008 977.5 46.0008C977.5 44.8008 977.6 43.4008 977.6 41.8008L977.7 35.5008C977.7 33.3008 977.8 31.3008 977.8 29.5008C977.8 27.6008 977.9 25.8008 977.9 24.3008C977.9 22.7008 978 21.3008 978 20.3008C978 19.7008 977.8 16.8008 973.5 16.8008C972.3 16.8008 971.1 16.9008 970.1 17.0008C969 17.1008 967.7 17.3008 966.3 17.7008L964.5 18.2008L964.8 20.0008C964.9 20.7008 965.1 21.4008 965.1 21.9008V22.1008C965.2 22.6008 965.3 23.1008 965.4 23.7008C965.5 24.2008 965.5 24.9008 965.6 25.6008C965.6 26.3008 965.7 27.1008 965.7 28.1008C965.7 30.0008 965.7 32.1008 965.6 34.5008V41.6008C965.6 44.0008 965.6 46.4008 965.5 48.7008C965.5 51.0008 965.4 53.3008 965.4 55.5008C965.4 57.5008 965.4 59.4008 965.3 61.0008V66.4008V66.6008C965.4 67.3008 965.6 68.0008 965.9 68.6008L966 68.8008C966.4 69.4008 967 69.9008 967.8 70.2008C968.9 70.7008 970.5 70.8008 972.9 70.5008C973.9 70.4008 974.9 70.3008 975.8 70.1008L976.7 69.9008L977.1 69.0008C977.5 68.2008 978.1 66.9008 979 65.4008C979.9 63.8008 981 61.9008 982.2 59.8008C983.4 57.7008 984.7 55.5008 986.2 53.0008C987.7 50.5008 989.2 48.0008 990.8 45.5008C992.4 42.9008 994 40.4008 995.5 38.0008C995.7 37.6008 996 37.3008 996.2 36.9008C996.2 38.0008 996.2 39.1008 996.1 40.3008C996.1 42.0008 996.1 43.7008 996 45.3008V49.7008L995.9 54.8008C995.9 56.4008 995.9 58.0008 995.8 59.4008C995.8 60.8008 995.8 62.0008 995.7 63.3008V65.9008C995.7 67.6008 996.1 68.9008 997.1 69.7008L997.2 69.8008C998.1 70.5008 999.2 70.8008 1001 70.8008C1001.7 70.8008 1002.6 70.8008 1003.6 70.7008C1004.8 70.6008 1005.9 70.3008 1007.1 69.9008L1008.6 69.4008L1008.7 67.4008Z" fill="#E2211C"/>
</svg>
