<svg width="78" height="23" viewBox="0 0 78 23" fill="none" xmlns="http://www.w3.org/2000/svg">
<path d="M24.7 20.3997C24.7 20.0997 24.7 19.7997 24.6 19.3997L24.5 18.2997V17.2997C24.5 15.5997 24.5 13.9997 24.5 12.5997C24.5 11.1997 24.6 9.7997 24.6 8.5997C24.6 7.3997 24.7 6.2997 24.7 5.1997C24.7 4.0997 24.8 3.1997 24.8 2.1997C24.8 1.2997 24.4 0.799696 24.1 0.599696C23.5 0.199696 22.5 0.199696 21.5 0.299696C21 0.299696 20.6 0.399696 20.2 0.499696L19.4 0.699696V1.5997C19.4 2.0997 19.4 2.4997 19.5 2.8997L19.6 3.9997C19.6 4.3997 19.6 4.6997 19.6 4.9997C19.6 7.5997 19.6 10.0997 19.5 12.2997C19.5 14.0997 19.5 15.7997 19.4 17.2997C18.9 17.2997 18.3 17.2997 17.6 17.3997C16.9 17.3997 16 17.3997 15 17.3997C15 16.0997 15 14.7997 15 13.5997C15 11.9997 15.1 10.4997 15.1 9.1997C15.1 7.7997 15.2 6.4997 15.2 5.3997C15.2 4.1997 15.3 3.1997 15.3 2.2997C15.3 1.3997 14.9 0.999696 14.6 0.699696C14 0.199696 13 0.199696 11.9 0.299696C11.4 0.299696 10.9 0.399696 10.5 0.499696L9.8 0.899696V1.6997C9.8 2.0997 9.8 2.4997 9.9 2.9997C9.9 3.3997 9.9 3.9997 9.9 4.5997C9.9 5.1997 9.9 5.9997 9.9 6.8997C9.9 7.6997 9.9 8.5997 9.9 9.5997C9.9 10.5997 9.9 11.5997 9.9 12.6997C9.9 13.7997 9.9 14.7997 9.8 15.7997C9.8 16.3997 9.8 16.9997 9.8 17.4997C8.8 17.4997 7.9 17.4997 7.1 17.4997C6.5 17.4997 5.8 17.4997 5.3 17.3997C5.3 16.4997 5.4 15.5997 5.4 14.5997C5.5 13.1997 5.5 11.7997 5.6 10.3997C5.7 8.9997 5.7 7.5997 5.8 6.1997C5.8 4.7997 5.9 3.3997 5.9 2.0997C5.9 1.5997 5.6 1.0997 5.2 0.799696C4.8 0.499696 4.4 0.399696 3.7 0.399696C3.2 0.399696 2.7 0.399696 2.3 0.499696C1.9 0.599696 1.4 0.699696 0.9 0.799696L0 0.999696L0.3 2.7997C0.3 2.9997 0.4 3.1997 0.4 3.4997C0.4 3.7997 0.5 4.0997 0.5 4.3997C0.5 4.6997 0.5 5.0997 0.5 5.5997C0.5 6.9997 0.5 8.3997 0.4 9.8997C0.4 11.3997 0.3 12.7997 0.3 14.0997C0.3 15.3997 0.2 16.5997 0.2 17.5997C0.2 18.5997 0.1 19.3997 0.1 19.7997C0.1 20.4997 0.3 21.0997 0.6 21.4997L0.7 21.5997C1.1 21.9997 1.6 22.1997 2.4 22.1997C2.7 22.1997 3 22.1997 3.6 22.1997C4.1 22.1997 4.8 22.1997 5.4 22.1997C6.1 22.1997 6.9 22.1997 7.7 22.1997C8.6 22.1997 9.5 22.1997 10.4 22.1997H16C17.9 22.1997 19.5 22.1997 20.8 22.0997C22.2 22.0997 23.2 21.9997 24 21.8997L25.2 21.7997L24.8 20.6997C24.7 20.6997 24.7 20.5997 24.7 20.3997Z" fill="#E2211C"/>
<path d="M45.6 17.0998L44.4 17.2998C44.2 17.2998 44 17.2998 43.7 16.9998C43.4 16.5998 43.2 15.9998 42.9 15.2998C42.5 14.0998 42.2 12.8998 41.9 11.6998C41.6 10.4998 41.3 9.2998 41 8.1998C40.7 7.0998 40.5 6.0998 40.2 5.1998C40 4.1998 39.7 3.4998 39.5 2.8998C39.3 2.4998 39.2 2.0998 39.1 1.8998C38.9 1.4998 38.7 1.1998 38.5 0.999805C38.2 0.799805 37.9 0.599805 37.5 0.499805C37 0.399805 36.1 0.399805 35.3 0.499805C34.9 0.499805 34.6 0.599805 34.2 0.699805L32.7 0.999805L32.5 1.5998C32.3 2.3998 32 3.2998 31.7 4.2998C31.3 5.2998 30.9 6.2998 30.5 7.3998C30.1 8.4998 29.6 9.5998 29.1 10.6998C28.6 11.7998 28.2 12.8998 27.7 13.9998C27.3 14.9998 26.9 15.9998 26.6 16.8998C26.3 17.7998 26 18.5998 25.9 19.2998C25.7 20.2998 25.7 20.9998 26 21.4998C26.3 21.9998 26.9 22.2998 27.7 22.2998C28.1 22.2998 28.5 22.2998 28.8 22.2998C29.1 22.2998 29.4 22.1998 29.6 22.1998C29.9 22.1998 30.1 22.0998 30.3 22.0998L31.1 21.8998V20.9998C31.1 20.2998 31.2 19.4998 31.3 18.7998C31.4 18.1998 31.6 17.5998 31.8 16.8998C32 16.8998 32.2 16.8998 32.4 16.8998C33 16.8998 33.6 16.8998 34.3 16.8998H35.7C36.2 16.8998 36.6 16.8998 37 16.7998C37.4 16.7998 37.7 16.7998 38 16.6998C38.1 16.8998 38.1 17.0998 38.2 17.2998L38.6 18.5998C38.8 19.2998 39 19.7998 39.3 20.1998C39.6 20.6998 39.9 21.0998 40.2 21.3998C40.6 21.6998 41 21.8998 41.4 21.8998C41.8 21.9998 42.2 21.9998 42.6 21.9998C43.6 21.9998 44.4 21.7998 44.9 21.1998C45.3 20.6998 45.6 20.0998 45.6 19.2998C45.6 19.0998 45.6 18.8998 45.6 18.6998V17.0998ZM34.8 9.2998C35.1 8.5998 35.4 7.8998 35.7 7.2998C35.9 7.8998 36 8.4998 36.2 8.9998C36.5 10.0998 36.8 11.1998 37.1 12.3998C37 12.3998 37 12.3998 36.9 12.3998C36.3 12.3998 35.7 12.3998 35.2 12.3998H33.5C33.6 12.0998 33.7 11.7998 33.9 11.4998C34.1 10.7998 34.4 9.9998 34.8 9.2998Z" fill="#E2211C"/>
<path d="M59.5 1.1L59.3 0L58.2 0.3C57.4 0.5 56.1 0.6 54.1 0.5C53.5 0.5 53 0.5 52.4 0.5L50.7 0.4C49.2 0.4 47.8 0.4 46.6 0.6L45.5 0.8L45.8 1.9C46.1 2.8 46.3 3.8 46.3 5C46.4 6.2 46.5 7.6 46.5 9.1C46.5 11 46.5 12.9 46.4 14.8C46.3 16.7 46.3 18.6 46.3 20.4C46.3 21.4 46.8 21.9 47.1 22C47.4 22.2 47.9 22.2 48.5 22.2C48.8 22.2 49.2 22.2 49.6 22.1C50.1 22.1 50.5 22 50.9 22L51.9 21.8L51.7 20.8C51.6 20.5 51.6 20.1 51.6 19.7C51.6 19.3 51.5 18.9 51.5 18.4C51.5 17.9 51.5 17.3 51.5 16.7C51.5 15.6 51.5 14.5 51.5 13.3C51.5 12.1 51.5 10.9 51.5 9.9V6.6C51.5 6.1 51.5 5.7 51.5 5.3C52.1 5.3 52.8 5.3 53.4 5.4C54.4 5.5 55.4 5.5 56.3 5.5C57.3 5.5 58.1 5.4 58.5 5.1C58.9 4.9 59.5 4.4 59.5 3.2C59.5 3 59.5 2.8 59.5 2.4C59.6 2 59.6 1.6 59.5 1.1Z" fill="#E2211C"/>
<path d="M77.7 19.4996L77.5 17.4996L75.1 17.5996V5.59961C75.1 4.69961 75.1 3.89961 75.1 3.19961C75.1 2.69961 75 2.29961 74.7 2.09961C74.3 1.59961 73.5 1.59961 73.3 1.59961H72.2L72 1.69961C71.5 1.99961 71.1 2.29961 70.8 2.49961C70.4 2.69961 70.1 2.89961 69.8 2.99961C69.5 3.09961 69.1 3.29961 68.8 3.39961C68.5 3.49961 68.1 3.59961 67.7 3.79961L66.9 3.99961L66.8 4.89961C66.8 4.99961 66.8 5.19961 66.7 5.39961C66.7 5.59961 66.7 5.79961 66.6 6.09961V6.59961C66.6 7.19961 66.8 7.59961 67.1 7.89961C67.7 8.49961 68.9 8.49961 70 8.19961C70 9.69961 70 11.0996 70 12.5996C70 14.1996 70 15.7996 70 17.4996C70 17.4996 70 17.4996 69.9 17.4996H69.1C68.3 17.4996 67.7 17.7996 67.3 18.2996C67.1 18.6996 66.9 19.1996 66.9 19.8996V20.3996L67 20.8996C67 21.0996 67 21.1996 67.1 21.2996L67.2 22.0996H70.5C71.1 22.0996 71.8 22.0996 72.3 22.0996H73.9C74.4 22.0996 75 22.0996 75.6 22.0996C75.9 22.0996 76.8 22.0996 77.3 21.3996C77.6 20.9996 77.7 20.5996 77.7 20.0996C77.8 19.9996 77.7 19.7996 77.7 19.4996Z" fill="#E2211C"/>
</svg>
