<svg width="138" height="39" viewBox="0 0 138 39" fill="none" xmlns="http://www.w3.org/2000/svg">
<g clip-path="url(#clip0_643_688)">
<path d="M43 35.3998C43 34.8998 42.9 34.3998 42.9 33.7998L42.8 31.8998V30.1998C42.8 27.2998 42.8 24.5998 42.8 22.1998C42.9 19.6998 42.9 17.3998 42.9 15.3998C43 13.2998 43 11.3998 43 9.5998C43.1 7.7998 43.1 6.0998 43.1 4.4998C43.1 2.7998 42.4 1.9998 41.8 1.5998C41.1 1.0998 40.3 0.899805 39.3 0.899805C38.6 0.899805 37.8 0.999805 37.1 1.0998C36.3 1.1998 35.5 1.2998 34.8 1.3998L33.1 1.6998L33.2 3.3998C33.2 4.1998 33.3 4.9998 33.3 5.6998L33.4 7.6998C33.4 8.2998 33.4 8.89981 33.4 9.2998C33.4 13.7998 33.4 17.9998 33.3 21.7998C33.3 24.8998 33.2 27.5998 33.2 30.1998C32.3 30.1998 31.4 30.2998 30.5 30.2998C29.3 30.2998 27.9 30.2998 26.4 30.3998C26.4 28.2998 26.4 26.1998 26.4 24.1998C26.5 21.4998 26.5 18.9998 26.6 16.5998C26.7 14.1998 26.7 11.9998 26.7 9.9998C26.8 7.9998 26.8 6.1998 26.8 4.6998C26.8 3.0998 26.1 2.1998 25.6 1.7998C24.9 1.2998 24 0.999805 23 0.999805C22.3 0.999805 21.6 0.999805 20.9 1.0998C20 1.0998 19.2 1.2998 18.4 1.3998L16.8 1.7998L17 3.2998C17 3.8998 17.1 4.6998 17.1 5.4998C17.1 6.1998 17.1 7.0998 17.1 8.2998C17.1 9.39981 17.1 10.6998 17.1 12.1998C17.1 13.5998 17.1 15.0998 17.1 16.8998C17.1 18.5998 17.1 20.3998 17.1 22.1998C17.1 23.9998 17.1 25.7998 17 27.4998C17 28.3998 17 29.2998 16.9 30.0998C15.3 30.0998 13.8 30.0998 12.6 29.9998C11.6 29.9998 10.7 29.8998 9.8 29.8998C9.9 28.4998 9.9 26.9998 10 25.3998C10.1 23.0998 10.2 20.5998 10.3 18.1998C10.4 15.6998 10.5 13.2998 10.5 10.7998C10.6 8.2998 10.6 5.89981 10.6 3.6998C10.6 2.6998 10.1 1.7998 9.3 1.1998C8.6 0.999805 7.8 0.799805 6.7 0.799805C5.8 0.799805 4.9 0.899805 4.2 0.999805C3.5 1.0998 2.7 1.1998 1.8 1.3998L0 1.7998L0.2 3.5998C0.3 4.0998 0.3 4.5998 0.4 4.9998V5.1998C0.5 5.5998 0.6 5.9998 0.7 6.3998C0.7 6.8998 0.8 7.3998 0.8 7.9998C0.8 8.5998 0.8 9.1998 0.8 9.9998C0.8 12.2998 0.8 14.7998 0.7 17.2998C0.6 19.7998 0.6 22.1998 0.5 24.4998C0.4 26.7998 0.4 28.7998 0.3 30.4998C0.2 32.1998 0.2 33.4998 0.2 34.2998C0.2 35.5998 0.5 36.5998 1.1 37.2998L1.2 37.3998C1.9 38.0998 2.9 38.4998 4.3 38.5998C4.8 38.5998 5.4 38.6998 6.3 38.6998C7.2 38.6998 8.3 38.6998 9.4 38.6998C10.6 38.6998 12 38.6998 13.4 38.6998C14.9 38.6998 16.4 38.6998 18 38.6998H27.6C30.8 38.6998 33.6 38.6998 35.8 38.5998C38.1 38.4998 39.9 38.3998 41.3 38.1998L43.6 37.7998L43 35.7998C43 35.6998 43 35.5998 43 35.3998Z" fill="#E2211C"/>
<path d="M78.7999 29.4002L76.4999 29.8002C76.3999 29.8002 76.3999 29.8002 76.2999 29.8002C76.0999 29.8002 75.9999 29.8002 75.6999 29.4002C75.1999 28.7002 74.7999 27.8002 74.3999 26.5002C73.7999 24.5002 73.1999 22.4002 72.5999 20.4002C72.0999 18.3002 71.4999 16.3002 71.0999 14.4002C70.5999 12.5002 70.1999 10.8002 69.7999 9.2002C69.3999 7.5002 68.9999 6.2002 68.5999 5.2002C68.2999 4.5002 68.0999 3.9002 67.8999 3.4002C67.5999 2.7002 67.1999 2.2002 66.6999 1.8002C66.1999 1.4002 65.5999 1.1002 64.8999 0.900195C64.3999 0.800195 63.7999 0.700195 62.9999 0.700195C62.3999 0.700195 61.6999 0.800195 61.0999 0.900195C60.4999 1.0002 59.8999 1.1002 59.1999 1.2002L56.1999 1.8002L55.8999 3.0002C55.4999 4.4002 54.9999 6.0002 54.3999 7.6002C53.7999 9.3002 53.0999 11.1002 52.2999 13.0002C51.4999 14.8002 50.6999 16.7002 49.8999 18.6002C49.0999 20.5002 48.2999 22.4002 47.4999 24.2002C46.7999 26.0002 46.0999 27.6002 45.5999 29.2002C44.9999 30.8002 44.5999 32.2002 44.3999 33.4002C43.9999 35.3002 44.0999 36.4002 44.5999 37.4002C44.9999 38.1002 45.8999 38.9002 47.7999 38.9002C48.4999 38.9002 49.0999 38.9002 49.6999 38.8002C50.2999 38.8002 50.7999 38.7002 51.1999 38.6002C51.5999 38.5002 51.9999 38.5002 52.3999 38.4002L53.9999 38.1002V36.4002C53.9999 35.2002 54.0999 33.9002 54.3999 32.7002C54.5999 31.8002 54.7999 30.8002 55.0999 29.6002C55.3999 29.6002 55.5999 29.6002 55.8999 29.6002C56.8999 29.6002 57.9999 29.6002 59.0999 29.6002H61.5999C62.3999 29.6002 63.1999 29.5002 63.8999 29.5002C64.4999 29.5002 64.9999 29.4002 65.4999 29.4002C65.5999 29.7002 65.6999 30.0002 65.7999 30.2002L66.5999 32.4002C66.9999 33.6002 67.3999 34.5002 67.7999 35.3002C68.2999 36.2002 68.7999 36.8002 69.4999 37.4002C70.1999 37.9002 70.8999 38.2002 71.5999 38.4002C72.2999 38.6002 72.9999 38.7002 73.7999 38.7002C75.6999 38.7002 76.9999 38.2002 77.8999 37.3002C78.6999 36.4002 79.0999 35.2002 79.0999 33.9002C79.0999 33.6002 79.0999 33.2002 79.0999 32.9002L78.7999 29.4002ZM63.2999 21.4002C62.2999 21.4002 61.3999 21.4002 60.3999 21.4002H57.9999C58.0999 21.0002 58.2999 20.7002 58.4999 20.3002C59.0999 19.0002 59.5999 17.6002 60.1999 16.3002C60.5999 15.4002 60.9999 14.5002 61.3999 13.6002C61.5999 14.3002 61.7999 15.1002 61.9999 15.8002C62.2999 17.6002 62.7999 19.5002 63.2999 21.4002Z" fill="#E2211C"/>
<path d="M102.6 2.2L102.2 0L100.1 0.6C99.4001 0.8 98.1001 1 95.7001 1C95.0001 1 94.1001 1 93.2001 1C92.2001 1 91.3001 1 90.3001 1L87.3001 0.9C84.7001 0.8 82.2001 0.8 80.3001 1.2L78.1001 1.6L78.8001 3.7C79.3001 5.2 79.6001 6.9 79.7001 8.9C79.9001 11 80.0001 13.3 80.0001 15.9C80.0001 19.1 79.9001 22.4 79.8001 25.7C79.7001 28.9 79.6001 32.2 79.6001 35.3C79.6001 37.2 80.5001 38 81.2001 38.4C81.8001 38.7 82.6001 38.8 83.7001 38.8C84.2001 38.8 84.9001 38.8 85.7001 38.7C86.5001 38.6 87.3001 38.5 87.9001 38.4L89.9001 38.1L89.6001 36.1C89.5001 35.6 89.4001 35 89.4001 34.3C89.3001 33.7 89.3001 32.9 89.2001 32.1C89.2001 31.2 89.2001 30.2 89.2001 29.1C89.2001 27.3 89.2001 25.3 89.2001 23.2C89.2001 21.1 89.2001 19.1 89.2001 17.4V11.6C89.2001 10.9 89.2001 10.3 89.2001 9.7C90.2001 9.7 91.2001 9.8 92.2001 9.9C93.9001 10 95.5001 10 97.1001 10C98.9001 10 100.2 9.8 101.1 9.2C101.8 8.8 102.9 7.8 102.9 5.7C102.9 5.4 102.9 5 102.8 4.3C102.8 3.8 102.7 3 102.6 2.2Z" fill="#E2211C"/>
<path d="M136.8 31.4996C136.7 31.0996 136.7 30.6996 136.6 30.3996L136.2 27.9996L133.9 28.8996C133.4 29.0996 132.9 29.2996 132.4 29.3996C131.9 29.4996 131.4 29.6996 130.8 29.7996C130.2 29.8996 129.5 29.9996 128.8 30.0996C128.2 30.0996 127.6 30.1996 126.9 30.1996C127.1 30.0996 127.2 29.8996 127.4 29.7996C129.2 28.2996 130.8 26.5996 132.2 24.9996C133.6 23.2996 134.8 21.3996 135.7 19.5996C136.7 17.5996 137.2 15.5996 137.2 13.4996C137.2 10.1996 136.2 7.49961 134.2 5.59961C132.2 3.59961 129.3 2.59961 125.5 2.59961C123.9 2.59961 122.3 2.69961 120.7 2.99961C119.2 3.19961 117.6 3.29961 116 3.29961H114L113.9 4.99961C113.8 6.89961 113.9 8.29961 114.1 9.39961C114.5 11.1996 115.9 12.2996 117.8 12.2996C118.5 12.2996 119.2 12.1996 119.9 12.0996C120.5 11.9996 121.1 11.7996 121.7 11.6996C122.3 11.5996 122.9 11.3996 123.5 11.2996C124.1 11.1996 124.7 11.0996 125.4 11.0996C126.3 11.0996 126.9 11.2996 127.4 11.6996C127.5 11.7996 127.9 12.1996 127.9 13.1996C127.9 13.8996 127.7 14.5996 127.3 15.3996C126.9 16.2996 126.4 17.1996 125.6 18.1996C124.9 19.1996 124 20.2996 123 21.2996C122 22.3996 121 23.3996 119.9 24.3996C118.8 25.3996 117.7 26.3996 116.6 27.2996C115.5 28.1996 114.5 29.0996 113.5 29.8996L112.8 30.3996L112.6 32.3996C112.6 32.7996 112.5 33.1996 112.5 33.6996V34.5996C112.5 35.7996 112.8 36.5996 113.4 37.2996L113.5 37.3996C114 37.8996 114.7 38.0996 115.7 38.1996C116.4 38.2996 117.4 38.3996 119 38.4996C120.5 38.5996 122.4 38.5996 124.7 38.5996C126.3 38.5996 127.9 38.5996 129.3 38.4996C130.9 38.4996 132.1 38.3996 133.1 38.2996C134.3 38.0996 135.1 37.7996 135.7 37.2996C136.4 36.5996 136.8 35.6996 136.8 34.2996C136.8 33.6996 136.8 33.0996 136.7 32.5996C136.9 32.2996 136.9 31.8996 136.8 31.4996Z" fill="#E2211C"/>
</g>
<defs>
<clipPath id="clip0_643_688">
<rect width="137.2" height="38.8" fill="white"/>
</clipPath>
</defs>
</svg>
