<svg width="532" height="142" viewBox="0 0 532 142" fill="none" xmlns="http://www.w3.org/2000/svg">
<g clip-path="url(#clip0_576_51)">
<path d="M50.9 56.5C52.1 56.4 53.3 56 54.5 55.5L56.6 54.5L56.2 52.2C56.1 51.5 56 50.7 55.9 49.9C55.8 49.3 55.8 48.6 55.7 47.9C55.7 47.2 55.6 46.6 55.6 46.1C55.6 41.5 55.6 37 55.7 32.9C55.8 28.6 55.9 24.8 55.9 21.4C56 17.9 56.1 14.9 56.1 12.5C56.2 9.99998 56.2 7.99998 56.2 6.59998C56.2 4.89998 55.7 3.49998 54.8 2.59998C53.9 1.59998 52.6 1.19998 50.9 1.19998C49.9 1.19998 48.8 1.29998 47.6 1.39998C46.4 1.49998 45.2 1.69998 44.2 1.99998L43 2.19998L42.4 3.19998C40.4 6.29998 38.5 9.59997 36.6 12.9C35 15.7 33.2 18.8 31.4 22.1C30.5 23.7 29.6 25.3 28.8 26.9C28.3 26 27.7 25 27.2 24.1C25.8 21.4 24.4 18.7 23 16.1C21.7 13.4 20.5 11 19.5 8.89998C18.5 6.69998 17.7 4.99998 17.1 3.89998V3.79998C16.3 2.29998 15.1 1.69998 14.2 1.39998C13.5 1.19998 12.8 1.09998 12 1.09998C10.6 1.09998 9.1 1.19998 7.5 1.49998C6 1.79998 4.6 1.99998 3.2 2.29998L0 2.99998L1 6.19998C1.7 8.39998 2.1 10.5 2.3 12.5C2.5 14.6 2.6 16.8 2.6 19C2.6 20.5 2.6 22.2 2.5 24C2.5 25.8 2.5 27.6 2.4 29.6C2.4 31.4 2.4 33.3 2.3 35.1C2.3 37 2.2 38.8 2.2 40.5C2.2 41 2.2 41.6 2.1 42.4V42.6C2.1 43.5 2 44.4 2 45.4C2 46.3 1.9 47.2 1.9 48C1.8 48.9 1.8 49.6 1.8 50.1C1.8 52.4 2.4 54.1 3.6 55.2L3.7 55.3C4.8 56.2 6.3 56.7 8.2 56.7C8.9 56.7 9.8 56.6 10.7 56.6C11.6 56.5 12.5 56.4 13.4 56.3L16.1 55.8L15.9 53.1C15.9 52.5 15.8 52 15.8 51.3C15.8 50.9 15.7 50.4 15.7 49.9V47.9C15.7 43.3 15.6 39.4 15.6 36.2V30.8C16 31.5 16.3 32.2 16.7 32.9C18.8 36.7 20.4 39.2 21.6 40.6C22.4 41.6 23.3 42.4 24.3 42.9C25.3 43.4 26.5 43.6 27.9 43.6C28.6 43.6 29.4 43.5 30.2 43.4C30.9 43.3 31.6 43.2 32.2 43.1H32.3C33 43 33.7 42.8 34.4 42.7L36.1 42.3L37.2 39.1C37.4 38.6 37.6 38.1 37.8 37.5C38 37 38.2 36.4 38.6 35.8C39.1 34.7 39.7 33.5 40.4 32.2C40.9 31.3 41.4 30.3 41.9 29.4C41.9 29.6 41.9 29.8 41.9 29.9V39.3C41.9 40.1 41.9 41.1 41.8 42.3V42.4C41.8 43.5 41.8 44.7 41.7 45.8V45.9C41.7 47 41.7 48 41.6 49V51.2C41.6 52.8 42 54.2 42.9 55.2L43.2 55.5C44.2 56.4 45.7 56.8 48.2 56.8C49 56.8 49.9 56.7 50.9 56.5ZM12.6 16.5V15.7C12.7 16 12.8 16.2 12.9 16.5H12.6Z" fill="#E2211C"/>
<path d="M58.3001 54.6C58.9001 55.6 60.3001 56.8 63.0001 56.8C64.0001 56.8 64.9001 56.8 65.7001 56.7C66.6001 56.6 67.3001 56.6 67.9001 56.5C68.5001 56.4 69.1001 56.3 69.7001 56.2L72.2001 55.8V53.3C72.2001 51.5 72.4001 49.7 72.7001 47.9C72.9001 46.6 73.3001 45.1 73.8001 43.5C74.2001 43.5 74.5001 43.5 75.0001 43.5C76.5001 43.5 78.1001 43.6 79.7001 43.6H83.0001H83.1001C84.3001 43.6 85.4001 43.5 86.4001 43.5C87.2001 43.5 87.9001 43.4 88.6001 43.4C88.7001 43.8 88.8001 44.1 88.9001 44.5L90.0001 47.8C90.6001 49.5 91.1001 50.8 91.6001 51.9L91.7001 52C92.4001 53.3 93.2001 54.3 94.1001 55L94.2001 55.1C95.2001 55.8 96.2001 56.3 97.3001 56.6C98.3001 56.8 99.3001 57 100.5 57C103.3 57 105.2 56.3 106.6 54.9C107.8 53.6 108.4 51.8 108.4 49.9C108.4 49.4 108.4 48.9 108.3 48.5V43L104.7 43.7C104.6 43.7 104.5 43.7 104.4 43.7C104.2 43.7 103.9 43.7 103.6 43.2C102.9 42.2 102.3 40.8 101.8 39C100.9 36.1 100 33 99.2001 30C98.4001 26.9 97.7001 24 97.0001 21.3C96.3001 18.5 95.6001 16 95.0001 13.8C94.4001 11.4 93.8001 9.5 93.3001 8C92.9001 6.9 92.6001 6.1 92.2001 5.4C91.7001 4.4 91.2001 3.6 90.5001 3.1C89.8001 2.4 88.9001 2 87.8001 1.8C87.0001 1.6 86.1001 1.5 85.1001 1.5C84.2001 1.5 83.2001 1.6 82.2001 1.7C81.3001 1.8 80.5001 1.9 79.6001 2.1L75.0001 3.1L74.5001 4.9C74.0001 6.8 73.3001 9.1 72.4001 11.5C71.5001 14 70.5001 16.6 69.4001 19.3C68.3001 22 67.1001 24.8 65.9001 27.5C64.7001 30.3 63.5001 33 62.4001 35.6C61.4001 38.2 60.4001 40.6 59.6001 42.9C58.8001 45.2 58.2001 47.3 57.9001 49C57.4001 51.5 57.5001 53.2 58.3001 54.6ZM85.4001 31.2C84.0001 31.2 82.6001 31.3 81.3001 31.3H77.9001C78.1001 30.8 78.3001 30.3 78.5001 29.8C79.3001 27.8 80.2001 25.9 81.0001 24C81.5001 22.7 82.1001 21.5 82.6001 20.3C82.9001 21.3 83.1001 22.3 83.4001 23.3C84.1001 25.8 84.7001 28.5 85.4001 31.2Z" fill="#E2211C"/>
<path d="M109.1 11.5C109.4 13.4 109.6 15.5 109.7 17.8C109.8 19.5 109.8 21.1 109.8 22.6V27.2001C109.8 32.6001 109.7 37.2 109.6 41C109.5 44.9 109.4 48.4 109.4 51.3C109.4 53.6 110.4 54.9 111.2 55.6L111.4 55.7001C112.4 56.4001 113.7 56.7001 115.4 56.7001C116.2 56.7001 117 56.6 117.8 56.5C118.5 56.4 119.2 56.3001 119.8 56.2001L124.9 55.2001L124.4 52.3C124.2 51.3 124.1 50.3 123.9 49.3C123.8 48.5 123.7 47.6001 123.6 46.7001C123.5 45.8001 123.5 45 123.5 44.3V42.5C123.5 41.6 123.6 40.8001 123.6 39.9001C123.6 39.4001 123.6 38.9001 123.7 38.4001C123.8 38.4001 123.9 38.4001 124 38.4001H126.2C129.1 38.4001 131.9 38.1 134.6 37.5C137.4 36.8 139.9 35.7001 142 34.2001C144.2 32.6001 146 30.6 147.2 28.1C148.5 25.6 149.2 22.6001 149.2 19.2001C149.2 16.1001 148.7 13.3 147.6 11.1C146.6 8.70005 145 6.60005 143 5.10005C141.1 3.60005 138.8 2.50005 136.2 1.80005C133.7 1.10005 131 0.800049 128 0.800049C125.7 0.800049 122.9 0.900049 119.7 1.20005C116.6 1.50005 113.4 2.00005 110.2 2.70005L107 3.50005L108.1 6.70005C108.5 7.90005 108.8 9.50005 109.1 11.5ZM123.4 13.7C123.6 13.7 123.7 13.7 123.9 13.7C125 13.6 126.1 13.6 127.3 13.6C128.6 13.6 129.7 13.7 130.8 14C131.7 14.2 132.4 14.6 133.1 15.1C133.6 15.5 134 16 134.3 16.7C134.6 17.4 134.8 18.4 134.8 19.5C134.8 21.6 134.2 23.2001 133 24.2001C131.8 25.3001 129.5 25.8 126.6 25.8C125.9 25.8 125.2 25.8001 124.6 25.7001C124.3 25.7001 124 25.7 123.8 25.6C123.8 23.9 123.7 22.4 123.7 21.1C123.7 19.0001 123.7 17.1 123.6 15.6C123.5 15 123.4 14.3 123.4 13.7Z" fill="#E2211C"/>
<path d="M161.9 56.6C163.1 56.5 164.2 56.4 165.2 56.2L168.2 55.7L167.7 52.7C167.6 51.9 167.5 51.1 167.4 50C167.3 49.1 167.2 48 167.1 46.8C167.1 45.6 167 44.1 167 42.6C167 39.9 167 37.1 167.1 34C167.1 30.9 167.2 28.1 167.2 25.5V17.1C167.2 16.1 167.2 15.2 167.2 14.4C168.6 14.4 170.1 14.5 171.5 14.6C174 14.7 176.4 14.8 178.7 14.8C181.4 14.8 183.3 14.4 184.6 13.7C185.6 13.1 187.3 11.7 187.3 8.6C187.3 8.2 187.3 7.5 187.2 6.6C187.1 5.6 187 4.5 186.8 3.3L186.1 0L182.9 0.9C181.9 1.2 180 1.5 176.5 1.5C175.4 1.5 174.2 1.5 172.9 1.4C171.5 1.4 170.1 1.3 168.7 1.3L164.4 1.2C160.6 1.1 157 1.1 154.1 1.7L150.8 2.4L151.8 5.6C152.5 7.8 152.9 10.3 153.1 13.2C153.4 16.2 153.5 19.6 153.5 23.4C153.5 28.1 153.4 32.9 153.2 37.6C153 42.3 152.9 47 152.9 51.6C152.9 54.4 154.2 55.6 155.3 56.2C156.2 56.7 157.4 56.9 159 56.9C159.8 56.8 160.8 56.7 161.9 56.6Z" fill="#E2211C"/>
<path d="M183.1 35.4C182.1 38 181.1 40.4 180.3 42.7C179.4 45.1 178.9 47.1 178.6 48.8C178.1 51.5 178.1 53.3 178.9 54.5L179 54.6C179.6 55.6 181 56.8 183.7 56.8C184.7 56.8 185.6 56.8 186.4 56.7C187.3 56.6 188 56.6 188.6 56.5C189.2 56.4 189.8 56.3 190.4 56.2L192.9 55.8V53.3C192.9 51.5 193.1 49.7 193.4 47.9C193.6 46.6 194 45.1 194.5 43.5C194.9 43.5 195.2 43.5 195.7 43.5C197.2 43.5 198.8 43.6 200.4 43.6H203.9H204C205.2 43.6 206.3 43.5 207.3 43.5C208.1 43.5 208.8 43.4 209.5 43.4C209.6 43.8 209.7 44.1 209.8 44.5L210.9 47.8C211.5 49.5 212 50.8 212.5 51.9L212.6 52C213.3 53.3 214.1 54.3 215 55L215.1 55.1C216.1 55.8 217.1 56.3 218.2 56.6C219.2 56.8 220.2 57 221.4 57C224.2 57 226.1 56.3 227.5 54.9C228.7 53.6 229.3 51.8 229.3 49.9C229.3 49.4 229.3 48.9 229.2 48.5V43L225.6 43.7C225.5 43.7 225.4 43.7 225.3 43.7C225.1 43.7 224.8 43.7 224.5 43.2C223.8 42.2 223.2 40.8 222.7 39C221.8 36 220.9 33 220.1 30C219.3 26.9 218.6 24 217.9 21.3C217.2 18.5 216.5 16 215.9 13.8C215.3 11.4 214.7 9.5 214.2 8C213.8 7 213.4 6.1 213.1 5.4C212.6 4.4 212.1 3.6 211.4 3.1C210.7 2.4 209.8 2 208.7 1.8C207.9 1.6 207 1.5 206 1.5C205.1 1.5 204.1 1.6 203.1 1.7C202.2 1.8 201.4 1.9 200.5 2.1L195.9 3.1L195.4 4.9C194.9 6.8 194.2 9.1 193.3 11.5C192.4 14 191.4 16.6 190.3 19.3C189.2 22 188 24.7 186.8 27.5C185.4 30 184.2 32.7 183.1 35.4ZM206.1 31.2C204.7 31.2 203.3 31.3 202 31.3H198.6C198.8 30.8 199 30.3 199.2 29.8C200 27.8 200.9 25.9 201.7 24C202.2 22.7 202.8 21.5 203.3 20.3C203.6 21.3 203.8 22.3 204.1 23.3C204.7 25.8 205.4 28.5 206.1 31.2Z" fill="#E2211C"/>
<path d="M245.2 52.4C245 51.4 244.9 50.4 244.7 49.4C244.6 48.6 244.5 47.7 244.4 46.9C244.3 46 244.3 45.2 244.3 44.5V42.7C244.3 41.9 244.4 41 244.4 40.1C244.4 39.6 244.4 39.1 244.5 38.6C244.6 38.6 244.7 38.6 244.8 38.6H247C249.9 38.6 252.7 38.3 255.4 37.7H255.5C258.3 37 260.8 35.9 262.9 34.4C265.1 32.8 266.9 30.8 268.1 28.3C269.4 25.8 270.1 22.8 270.1 19.4C270.1 16.3 269.6 13.5 268.5 11.3C267.5 8.9 265.9 6.8 263.9 5.3C262 3.8 259.7 2.7 257.1 2C254.6 1.3 251.9 1 248.9 1C246.6 1 243.8 1.1 240.6 1.4C237.5 1.7 234.3 2.2 231.1 2.9L227.8 3.6L228.9 6.8C229.3 8 229.7 9.6 230 11.6C230.3 13.5 230.5 15.6 230.6 17.9C230.7 19.6 230.7 21.2 230.7 22.7V27.3C230.7 32.7 230.6 37.3 230.5 41.1C230.4 45 230.3 48.5 230.3 51.4C230.3 53.7 231.3 55 232.1 55.7L232.3 55.8C233.3 56.5 234.6 56.8 236.3 56.8C237.1 56.8 237.9 56.7 238.7 56.6C239.4 56.5 240.1 56.4 240.7 56.3L245.8 55.3L245.2 52.4ZM245.2 25.7C244.9 25.7 244.6 25.7 244.4 25.6C244.4 23.9 244.3 22.4 244.3 21.1C244.3 18.9 244.3 17.1 244.2 15.6C244.2 14.9 244.1 14.2 244.1 13.6C244.3 13.6 244.4 13.6 244.6 13.6C245.7 13.5 246.8 13.5 248 13.5C249.3 13.5 250.4 13.6 251.5 13.9C252.4 14.1 253.1 14.5 253.8 15C254.3 15.4 254.7 15.9 255 16.6C255.3 17.3 255.5 18.3 255.5 19.4C255.5 21.5 254.9 23.1 253.7 24.1C252.5 25.2 250.2 25.7 247.3 25.7C246.5 25.8 245.8 25.8 245.2 25.7Z" fill="#E2211C"/>
<path d="M273.2 7.4V7.6C273.3 8.1 273.4 8.6 273.5 9.1C273.6 9.6 273.6 10.2 273.7 10.9C273.7 11.5 273.8 12.3 273.8 13.3C273.8 15.2 273.8 17.3 273.7 19.7V26.8C273.7 29.1 273.7 31.5 273.6 33.9C273.6 36.3 273.5 38.5 273.5 40.7C273.5 42.7 273.5 44.5 273.4 46.2V51.6V51.9C273.5 52.8 273.7 53.6 274.1 54.3L274.3 54.6C274.8 55.4 275.6 56 276.5 56.4C277.8 57 279.5 57.1 282.1 56.8C283.2 56.7 284.2 56.6 285.1 56.4L286.5 56.1L287.1 54.8C287.5 54 288.1 52.7 289 51.2C289.9 49.6 291 47.7 292.2 45.6C293.4 43.5 294.8 41.2 296.2 38.8C297.7 36.4 299.2 33.9 300.8 31.4C302 29.5 303.2 27.6 304.3 25.7C304.3 27.4 304.3 29 304.2 30.6V34.9L304.1 40C304.1 41.6 304.1 43.1 304 44.6C304 46 304 47.2 303.9 48.3V51C303.9 53 304.5 54.5 305.6 55.5L305.7 55.6C306.7 56.4 308.1 56.8 310.1 56.8C310.9 56.8 311.8 56.7 312.8 56.6C314 56.5 315.3 56.2 316.6 55.7L318.8 54.9L318.6 52.6C318.5 51.8 318.4 50.9 318.4 50.1L318.3 47.9C318.3 47.2 318.2 46.6 318.2 45.9C318.1 43.1 318.1 40 318.1 36.8V26.7C318.1 25.2 318.1 23.5 318.2 21.6L318.3 16C318.4 14.1 318.5 12.3 318.5 10.7C318.5 9 318.6 7.6 318.6 6.5C318.6 4.7 318.1 3.3 317.1 2.4C316.2 1.5 314.9 1.1 313.2 1.1C312.2 1.1 311.1 1.2 309.8 1.3C308.6 1.4 307.4 1.6 306.3 1.8L305.1 2L304.4 3C302.9 5.2 301.3 7.7 299.3 10.6C297.4 13.5 295.4 16.6 293.3 19.8C291.3 22.9 289.3 26 287.3 29.2C287.3 28.5 287.3 27.8 287.4 27.1L287.5 20.8C287.5 18.7 287.6 16.6 287.6 14.8C287.6 12.9 287.7 11.1 287.7 9.6C287.7 8 287.8 6.6 287.8 5.5C287.8 3.4 286.4 1 282.3 1C281.1 1 279.9 1.1 278.7 1.2C277.5 1.3 276.2 1.5 274.9 1.9L272.2 2.6L272.7 5.4C273 6.3 273.1 6.9 273.2 7.4Z" fill="#E2211C"/>
<path d="M364.2 56.4C365.4 56.2 366.5 55.9 367.5 55.6L369.8 54.8L369.4 52.4C369.3 51.8 369.2 50.7 369.1 48.4C369.1 46.4 369 44.2 369 41.7C369 39.3 369 36.7 368.9 34.1V26.8C368.9 25.3 368.9 23.6 369 21.8L369.3 16C369.4 14 369.5 12.2 369.5 10.6C369.6 8.79998 369.6 7.49998 369.6 6.39998C369.6 3.79998 368.3 2.59998 367.5 2.09998C365.9 1.09998 363.8 1.09998 360.6 1.39998C359.3 1.49998 358 1.69998 356.9 1.99998L354.4 2.59998L354.6 5.09998C354.7 6.49998 354.8 7.79998 354.9 9.19998C355 10.2 355.1 11.3 355.1 12.4V12.5C355.2 13.5 355.2 14.4 355.2 15V22C354.2 21.9 353.3 21.9 352.4 21.9C348.8 21.7 345.1 21.7 341.5 21.8C340.9 21.8 340.2 21.8 339.6 21.9C339.6 21.5 339.6 21.2 339.7 20.8C339.8 18.9 339.9 17 339.9 15.1C340 13.1 340.1 11.3 340.1 9.49998C340.1 7.69998 340.2 6.39998 340.2 5.39998C340.2 3.39998 338.8 1.79998 336.8 1.49998C336.1 1.39998 335.4 1.29998 334.7 1.29998C333.3 1.29998 331.9 1.39998 330.4 1.69998C329.1 1.89998 327.8 2.19998 326.5 2.49998L323.4 3.19998L324.3 6.29998C324.5 6.99998 324.7 7.79998 324.9 8.59998V8.79998C325.1 9.49998 325.3 10.3 325.4 11.3C325.5 12.3 325.6 13.4 325.7 14.8V14.9C325.8 16.2 325.8 17.9 325.8 19.7C325.8 21.1 325.8 22.6 325.7 24.4C325.7 26.1 325.7 27.9 325.6 29.7L325.5 35.2C325.5 37 325.4 38.7 325.4 40.3C325.4 40.8 325.4 41.5 325.3 42.2C325.3 43 325.2 43.9 325.2 44.9L325.1 47.6C325 48.5 325 49.3 325 49.9C325 52.1 325.4 53.6 326.2 54.8L326.3 54.9C327 55.8 328.4 56.9 331.1 56.9C331.8 56.9 332.8 56.9 333.9 56.8C335.2 56.7 336.3 56.5 337.2 56.3L339.9 55.7L339.4 52.9C339.3 52.4 339.2 51.8 339.1 51.1C339 50.7 339 50.2 338.9 49.7C338.9 49.1 338.8 48.5 338.8 48V44.7L338.9 40.3C338.9 38.8 339 37.3 339 35.8C339 35.5 339 35.1 339 34.8C339.2 34.8 339.4 34.8 339.7 34.8H339.8C341.1 34.8 342.5 34.7 344 34.7C348 34.7 351.7 34.8 354.9 34.9C354.9 35.7 354.9 36.6 354.8 37.5V37.6C354.8 38.8 354.8 40.1 354.7 41.6C354.7 43 354.7 44.3 354.6 45.6V51.7C354.6 53 355 54.2 355.8 55.2C357.3 57 359.8 57 360.6 57C361.9 56.8 363 56.7 364.2 56.4Z" fill="#E2211C"/>
<path d="M485.6 48.5C485.4 46.8 485.3 44.9 485.2 42.9C485.1 40.8 485 38.7 485 36.5C485 34.4 484.9 32.5 484.9 31C484.9 25.5 485 20.7 485.2 16.6C485.5 12.3 485.6 9.30002 485.6 7.30002C485.6 6.50002 485.5 5.80002 485.2 5.10002C484.9 4.00002 484.1 3.10002 483.1 2.50002C482.4 2.10002 481.5 1.80002 480.5 1.60002C479.6 1.40002 478.6 1.30002 477.3 1.30002C476.3 1.30002 475 1.20002 473.6 1.20002C470.5 1.10002 466.5 1.10002 461.7 1.20002C459.2 1.20002 456.2 1.30002 452.9 1.50002L449.3 1.70002L450.1 5.20002C450.3 6.20002 450.5 7.10002 450.5 8.00002C450.6 8.90002 450.6 10 450.6 11.2C450.6 13.7 450.5 16.3 450.3 19C450.1 21.7 449.8 24.4 449.4 27.2C448.8 31 448.1 34.1 447.3 36.4C446.6 38.5 445.9 40.2 445.2 41.2C444.4 42.4 443.9 42.7 443.7 42.8C443 43.1 442.6 43.2 442.1 43.1C442 43.1 441.9 43 441.8 43L438.7 42L438.1 44.6C437.9 44.5 437.7 44.4 437.5 44.3C436.7 44 435.7 43.8 434.6 43.8C434.5 43.8 434.5 43.8 434.4 43.8C434.4 42.8 434.3 41.6 434.3 40.3C434.3 37.2 434.2 33.4 434.2 28.7C434.2 25.3 434.2 22.4 434.3 20C434.4 17.5 434.6 15.4 434.7 13.7C434.8 12 434.9 10.7 435 9.70002C435.2 8.50002 435.2 7.70002 435.2 7.10002C435.2 6.30002 435.1 5.60002 434.8 4.90002C434.5 3.80002 433.8 2.90002 432.7 2.30002C431.9 1.80002 431 1.50002 429.9 1.30002C429 1.10002 427.8 1.00002 426.4 1.00002C425.2 1.00002 423.9 0.900024 422.5 0.900024C421 0.900024 419.3 0.900024 417.4 0.900024C415.5 0.900024 413.2 0.900024 410.7 1.00002C408.2 1.00002 405.3 1.10002 402.2 1.30002L398.6 1.50002L399.4 5.00002C400 7.80002 400.3 10.4 400.2 12.8C400 17.2 399.6 21.1 399.1 24.6C398.7 27.9 398 30.9 397.3 33.6C396.6 36.1 395.8 38.4 394.8 40.2C394 41.7 393.2 43 392.2 44.1C390.6 44.3 389.5 44.7 388.6 45.4L388.5 45.5C387.3 46.5 386.6 48.1 386.6 50.3V57V57.1C386.6 58.3 386.7 59.5 386.7 60.6V60.7C386.7 61.9 386.8 62.9 386.8 63.6V63.7C387 65.2 387.3 66.3 388 67.1C389.3 68.8 391.6 68.8 392.3 68.8C393.4 68.8 394.4 68.7 395.2 68.6C396 68.5 396.7 68.4 397.3 68.2H397.5C398.2 68 398.8 67.7 399.4 67.4L401.6 66.3L400.9 63.9C400.7 63.2 400.5 62.3 400.3 61.3V61.2C400.1 60.4 400 59.3 399.9 58.1C399.9 57.7 399.8 57.2 399.8 56.7C400.1 56.7 400.4 56.7 400.7 56.6C402.1 56.6 403.5 56.5 405.1 56.5C406.6 56.5 408.1 56.4 409.6 56.4C411.1 56.4 412.5 56.3 413.9 56.3H417.9C419.3 56.3 420.7 56.3 422.2 56.4C423.6 56.4 425 56.4 426.3 56.5H426.4C426.6 56.5 426.8 56.5 427 56.5L426.9 58.3V62.1C426.9 63.1 427 63.8 427.1 64.5C427.3 65.5 427.7 66.4 428.2 67.1L428.4 67.3C429.1 68 429.9 68.4 431 68.7C431.8 68.9 432.6 69 433.7 69C435.1 69 436.8 68.8 438.7 68.3L441.2 67.7L440.9 65.1C440.6 62.3 440.4 59.6 440.4 57.3C440.4 57.2 440.4 57 440.4 56.9C441.2 57.1 442.1 57.3 443.2 57.3C445.6 57.3 447.9 56.7 449.9 55.6C452 54.5 453.9 52.7 455.6 50.2C457.1 47.9 458.4 44.9 459.5 41.3C460.6 37.8 461.5 33.4 462.2 28.4C462.6 25.4 462.9 22.4 463.1 19.6C463.2 17.8 463.3 15.9 463.4 14.1C463.5 14.1 463.6 14.1 463.7 14.1H463.8C466.2 14 468.5 14 470.6 14.1H470.7H470.8C470.7 17.3 470.6 20.5 470.5 23.6C470.5 27.6 470.4 31.8 470.4 36V44.8C470.4 47.4 470.5 49.7 470.6 51.9C470.7 53.4 471.1 54.6 471.9 55.5L472.2 55.8C473.2 56.7 474.5 57 476.6 57C477.7 57 479 56.9 480.2 56.7C481.6 56.5 482.7 56.2 483.7 55.9L486.3 55L485.5 52.3C486.1 51.5 485.9 50.5 485.6 48.5ZM420.6 39.5C420.6 40.8 420.7 42.2 420.7 43.7C420.2 43.7 419.8 43.7 419.3 43.7H415.2C413.2 43.7 411 43.7 408.8 43.8C408.5 43.8 408.1 43.8 407.8 43.8C408 43.5 408.1 43.1 408.3 42.8C409.3 40.6 410.1 38.1 410.8 35.1C411.5 32.2 412.1 28.7 412.6 24.8C413 21.6 413.3 17.9 413.5 13.8C414.9 13.7 416.3 13.7 417.7 13.8C418.9 13.8 420 13.8 421.1 13.9C420.9 17.1 420.8 20.1 420.7 22.9C420.6 26.4 420.6 29.9 420.6 33.3V39.5Z" fill="#E2211C"/>
<path d="M530.8 52.3C530.6 51.6 530.5 50.8 530.3 49.9C530.2 49 530 47.9 529.9 46.7C529.8 45.4 529.8 43.8 529.8 42V32.4L529.9 23.8C530 21 530.1 18.1 530.2 15.3C530.4 12.4 530.6 9.20002 530.8 5.80002L531 3.30002L528.5 2.70002C527.1 2.40002 525.5 2.10002 523.9 1.80002C522.5 1.60002 520.8 1.40002 518.9 1.20002C517 1.00002 515 0.900024 512.8 0.900024C509.8 0.900024 506.9 1.20002 504.3 1.90002C501.6 2.50002 499.1 3.60002 497 5.10002C494.8 6.60002 493.1 8.60003 491.8 11.1C490.6 13.5 490 16.4 490 19.7C490 23.7 491.1 27.1 493.3 30C494.6 31.7 496.2 33 498.1 34.1C497.8 34.5 497.5 35 497.1 35.6C496.5 36.5 495.8 37.7 495 39.1C494.3 40.3 493.7 41.3 493.2 41.9C492.7 42.5 492.4 42.9 492.2 43.1C492.1 43.2 491.9 43.3 491.8 43.3C491.6 43.3 491.2 43.4 490.6 43.4H488.3L487.7 45.7C487.6 46.2 487.5 46.8 487.4 47.3C487.4 47.7 487.3 48.1 487.3 48.6V50.4C487.3 52.5 487.8 54.2 488.9 55.4L489.1 55.6C490.3 56.8 492 57.4 494.3 57.4C495.8 57.4 497.1 57.2 498.3 56.7C499.5 56.2 500.7 55.5 501.7 54.4C502.6 53.5 503.5 52.3 504.3 51C505.1 49.7 506 48.1 506.9 46.3C508 44.1 508.9 42.4 509.7 41C510.5 39.6 511.1 38.8 511.5 38.4C511.9 38 512.3 37.7 512.7 37.6H512.8C513.4 37.4 514.2 37.3 515.1 37.3H515.7C515.7 37.9 515.7 38.6 515.7 39.3V48.8C515.7 50.2 515.7 51.2 515.8 51.9C516 53.9 516.8 55.4 518.1 56.2C519.1 56.8 520.3 57 521.8 57C522.6 57 523.4 56.9 524.2 56.8C524.9 56.7 525.6 56.6 526.2 56.5H526.3C527 56.4 527.7 56.2 528.4 56.1L531.4 55.4L530.8 52.3ZM516.5 13.7C516.5 14.2 516.4 14.7 516.4 15.4C516.2 17.8 516.1 20.9 516.1 24.8C515 24.9 513.4 24.9 511.4 24.9C508.9 24.9 507.1 24.4 506.1 23.4C505.1 22.4 504.6 21.2 504.6 19.5C504.6 17.5 505.1 16 506.1 14.9C507.2 13.9 509.4 13.3 512.4 13.3C513.5 13.3 514.6 13.4 515.8 13.5C516 13.7 516.2 13.7 516.5 13.7Z" fill="#E2211C"/>
<path d="M39.9001 114.2C39.0001 112.9 37.8001 111.7 36.4001 110.7L36.3 110.6C36.9 109.9 37.5 109.2 38 108.4C39.4 106.1 40.1 103.5 40.1 100.6C40.1 97.5 39.5 94.9 38.3 92.8C37.1 90.7 35.5 89 33.5 87.8C31.6 86.6 29.4 85.8 26.9 85.4C24.7 85 22.3 84.8 19.9 84.8C15.1 84.8 9.50005 85.5 3.40005 86.8L0.300049 87.5L1.10005 90.5C1.30005 91.2 1.40005 91.8 1.60005 92.4C1.70005 92.9 1.80005 93.5 1.90005 94.1V94.3C2.00005 94.9 2.10005 95.5 2.10005 96.3V96.5C2.20005 97.3 2.30005 98.2 2.30005 99.4C2.40005 101.3 2.40005 103.1 2.40005 105V110.8C2.40005 115.1 2.40005 119.4 2.30005 123.5C2.20005 127.6 2.10005 131.7 2.00005 135.6L1.90005 137.8L4.00005 138.5C5.40005 139 7.00005 139.5 8.70005 139.8C10.2 140.2 11.9 140.5 13.8 140.7C15.8 140.9 17.9001 141.1 20.2001 141.1C23.9001 141.1 27.1001 140.7 29.7001 139.8C32.5001 138.9 34.9 137.7 36.8 136C38.7 134.3 40.2 132.3 41.1 129.9C42 127.6 42.4001 125.2 42.4001 122.5C42.4001 121.1 42.2 119.7 41.8 118.2C41.4 116.9 40.8001 115.5 39.9001 114.2ZM24.4 104.8C23.4 105.7 21.5 106.2 18.8 106.2H16.2C16.2 105.3 16.2 104.5 16.1 103.7C16.1 102 16.1 100.5 16 99.2C16 98.6 16 98.1 15.9 97.5C16 97.5 16.1 97.5 16.1 97.5C17 97.4 18.1 97.3 19.3 97.3C22.4 97.3 23.9 97.9 24.6 98.4L24.7001 98.5C25.0001 98.7 25.7001 99.2 25.7001 101.5C25.9001 102.9 25.4 103.9 24.4 104.8ZM15.8 126C15.9 124.6 16 123 16 121.2C16 120.3 16 119.4 16.1 118.5C16.3 118.5 16.4 118.5 16.6 118.5H19.3C20.8 118.5 22.2 118.6 23.5 118.8C24.6 119 25.5001 119.3 26.2001 119.7C26.8001 120 27.2 120.4 27.5 121L27.6 121.1C27.9 121.6 28.1 122.3 28.1 123.3C28.1 126.1 27.1001 127 26.7001 127.3C25.5001 128.2 23.5 128.6 20.8 128.6C19.8 128.6 18.9 128.6 18 128.5C17.2 128.4 16.5 128.3 15.8 128.1C15.7 127.4 15.8 126.7 15.8 126Z" fill="#E2211C"/>
<path d="M101.8 132.8C101.8 131.1 101.7 129.1 101.7 126.9C101.7 124.7 101.6 122.3 101.6 119.7V111.4C101.6 106.8 101.7 102.6 101.9 99C102.1 95.3 102.2 92.4 102.2 90.4C102.2 87.8 100.8 86.6 100 86.1C99.1 85.5 97.9 85.3 96.6 85.3C96.1 85.3 95.6 85.3 94.9 85.4C94.2 85.4 93.5 85.5 92.8 85.6C92.1 85.7 91.4 85.7 90.7 85.8C90 85.9 89.5 86 89 86.1L86.2 86.7L86.6 89.5C86.7 90.2 86.8 90.9 87 91.6C87.1 92.2 87.2 92.8 87.3 93.4C87.4 94 87.4 94.6 87.5 95.2C87.6 97.1 87.7 99.5 87.7 102.2C87.7 105 87.8 108.1 87.8 111.3C87.8 114.2 87.8 116.9 87.7 119.4C87.7 121.9 87.6 124.2 87.6 126.4C87.6 128.4 87.6 130.2 87.5 131.8C87.5 133.4 87.4 134.6 87.4 135.5C87.4 136.8 87.8 138 88.6 139C90.1 140.8 92.6 140.8 93.4 140.8C94.5 140.8 95.7 140.7 96.9 140.5C98.2 140.3 99.2 140 100.2 139.7L102.4 138.9L102.2 136.6C102 135.6 101.9 134.4 101.8 132.8Z" fill="#E2211C"/>
<path d="M81.3001 108.1C79.6001 106.6 77.5001 105.5 75.2001 104.8C73.0001 104.1 70.5001 103.8 67.9001 103.8C65.8001 103.8 63.8001 104 61.9001 104.3C61.5001 104.4 61.1001 104.4 60.7001 104.5C60.7001 102.4 60.7001 100.5 60.7001 98.9C60.7001 96.2 60.7001 93.8 60.6001 91.8C60.5001 89.9 60.3001 88.6 59.8001 87.6C59.3001 86.6 58.1001 85 55.0001 85C53.9001 85 52.7001 85.1 51.3001 85.3C50.0001 85.5 48.6001 85.8 47.1001 86.2L44.1001 87L44.9001 89.9C45.1001 90.5 45.2001 91.1 45.4001 91.6L45.5001 91.9C45.6001 92.2 45.7001 92.5 45.7001 92.9L45.8001 93.2C45.9001 93.6 46.0001 94.2 46.1001 94.8V95C46.2001 95.6 46.3001 96.4 46.4001 97.3C46.5001 98.3 46.6001 99.5 46.6001 100.7V100.8C46.7001 102 46.8001 103.3 46.8001 104.6V104.7C46.9001 106 46.9001 107.3 46.9001 108.6V108.7C46.9001 110 47.0001 111.3 47.0001 112.4C47.0001 116 46.9001 119.9 46.7001 123.9C46.5001 127.9 46.3001 131.7 46.1001 135.4L46.0001 137.6L48.1001 138.4C49.4001 138.9 50.9001 139.3 52.5001 139.6C53.8001 139.9 55.4001 140.2 57.3001 140.4C59.2001 140.6 61.3001 140.7 63.5001 140.7C66.8001 140.7 69.8001 140.4 72.5001 139.7C75.4001 139 77.9001 137.9 80.1001 136.3C82.3001 134.7 83.9001 132.5 85.1001 130C86.3001 127.5 86.9001 124.5 86.9001 121.2C86.9001 118.4 86.4001 115.8 85.5001 113.7C84.4001 111.5 83.0001 109.6 81.3001 108.1ZM72.5001 121.9C72.5001 123 72.3001 124 72.0001 124.7C71.7001 125.4 71.2001 125.9 70.5001 126.4C69.8001 126.9 69.0001 127.3 68.0001 127.6C66.9001 127.9 65.6001 128 64.2001 128C63.2001 128 62.3001 128 61.5001 127.9C61.1001 127.9 60.6001 127.8 60.2001 127.7C60.3001 126.9 60.3001 126.1 60.4001 125.2C60.5001 123.7 60.6001 122 60.6001 120.2L60.7001 117.1C61.1001 117 61.5001 116.9 61.9001 116.8C63.0001 116.5 64.5001 116.4 66.2001 116.4C68.5001 116.4 70.2001 116.9 71.2001 117.8C72.1001 118.7 72.5001 120 72.5001 121.9Z" fill="#E2211C"/>
<path d="M151.4 106L151.7 100C151.8 98 151.9 96.1 151.9 94.6C152 92.9 152 91.7 152 90.9C152 88.4 150.9 87.2 149.9 86.6C149 86 147.8 85.6 146.4 85.6C144.8 85.5 143.4 85.4 142 85.4L138.1 85.3C136.8 85.3 135.4 85.2 133.9 85.2H129.4C125.9 85.2 122.7 85.2 119.6 85.3C116.6 85.3 113.3 85.5 109.8 85.8L106.1 86.1L107.1 89.6C107.5 90.8 107.8 92.1 108.1 93.4C108.4 94.6 108.5 96 108.6 97.7C108.6 98.2 108.7 99.5 108.7 102.6V111.6C108.7 113.9 108.7 116.2 108.6 118.6C108.6 120.9 108.5 123.1 108.3 125.2C108.2 127.3 108.1 129.1 108 130.8C108 132.5 107.9 133.7 107.9 134.5C107.9 136.7 108.3 138.2 109.2 139.2C110.5 140.7 112.6 140.8 114 140.8C114.7 140.8 115.7 140.8 116.8 140.6C118 140.5 119.1 140.3 120 140.1L122.7 139.5L122.2 136.7C122.1 136.2 122 135.6 121.9 134.8C121.8 134.3 121.8 133.7 121.7 133C121.7 132.3 121.6 131.5 121.6 130.6C121.6 124.4 121.7 118.3 121.9 112.5C122.1 107.6 122.3 102.7 122.5 97.9C122.9 97.9 123.4 97.9 123.9 97.9H131.7C132.7 97.9 133.7 97.9 134.6 98H134.7C135.6 98 136.5 98 137.4 98.1C137.4 100 137.3 102.2 137.3 104.5C137.3 108 137.2 111.7 137 115.5C136.9 119.3 136.8 123.1 136.7 126.7C136.7 130.4 136.6 133.5 136.6 136.2C136.6 138.1 137.4 139.1 138.1 139.7L138.3 139.8C139.2 140.4 140.4 140.7 142.4 140.7C143.1 140.7 144.1 140.7 145.2 140.5C146.6 140.4 147.9 140.1 149.2 139.6L151.5 138.8L151.2 136.4C151.1 135.9 151.1 135.4 151 134.7C151 134.4 150.9 133.9 150.8 133.1C150.8 132.2 150.7 131.2 150.7 129.9C150.6 127.2 150.6 124.1 150.6 120.9C150.6 117.6 150.7 114.3 150.8 110.9C151.4 109.6 151.4 107.9 151.4 106Z" fill="#E2211C"/>
<path d="M194.9 130C194.8 129.5 194.7 129 194.6 128.5L193.9 125.4L190.9 126.2C189.2 126.7 187.5 127 186 127.2C184.5 127.4 182.6 127.5 180.5 127.5C179.4 127.5 178.2 127.5 176.9 127.6H172.5C172.5 125.8 172.6 124.1 172.6 122.5L172.7 118.4C172.9 118.4 173 118.4 173.2 118.5H173.3C174.6 118.6 176 118.7 177.3 118.8H177.4C178.7 118.8 179.9 118.9 181.1 118.9C182.3 118.9 183.4 119 184.4 119C186.5 119 188.2 118.5 189.3 117.4L189.4 117.3C190.6 116.1 191.1 114.5 191.1 112.2C191.1 111.7 191.1 111.1 191 110.6C191 110.2 190.9 109.8 190.9 109.4C190.9 109 190.8 108.6 190.8 108.2L190.4 105.1L187.3 105.7C186.9 105.8 186.4 105.8 186 105.9C185.5 105.9 185 106 184.4 106H182.6C180 106 177.6 106 175.7 105.9C174.7 105.9 173.7 105.8 172.8 105.8C172.8 105 172.8 104.3 172.7 103.6C172.7 101.9 172.7 100.4 172.6 99.2C172.6 98.8 172.6 98.4 172.6 98C174.1 98 175.5 98.1 177 98.2C179.6 98.3 182.1 98.4 184.4 98.4C187.2 98.4 189 98.2 190.3 97.7C192.2 96.8 193.3 95 193.3 92.6C193.3 92.2 193.3 91.6 193.2 90.8C193.1 89.8 193 88.7 192.7 87.4L192.1 84.7L189.3 85.1C188 85.3 186.7 85.4 185.5 85.5C184.2 85.5 182.7 85.6 181 85.6H177.5C176.2 85.6 174.9 85.5 173.6 85.5C172.3 85.5 171 85.4 169.8 85.4C168.6 85.4 167.5 85.3 166.5 85.3C165.2 85.3 164 85.3 162.9 85.4C161.7 85.5 160.6 85.6 159.7 85.8L156.6 86.5L157.5 89.5C157.7 90.1 157.8 90.7 158 91.2L158.1 91.5C158.2 91.9 158.4 92.3 158.5 92.9C158.6 93.4 158.7 94 158.8 94.7C158.9 95.4 159 96.3 159.1 97.3C159.2 99 159.2 100.9 159.2 103C159.2 105 159.3 107.2 159.3 109.4C159.3 115 159.3 120.1 159.2 124.4C159.2 128.7 159 132.9 158.8 136.8L158.6 139.7L161.5 139.9C164.4 140.1 167.4 140.3 170.6 140.4C173.9 140.5 176.9 140.6 179.8 140.6C182.5 140.6 184.8 140.6 186.5 140.5C188.4 140.4 189.9 140.3 191.1 140C192.8 139.6 194 138.8 194.7 137.7C195.3 136.7 195.7 135.5 195.7 134C195.7 133.2 195.6 132.4 195.5 131.7C195.1 131.1 195 130.6 194.9 130Z" fill="#E2211C"/>
<path d="M232.7 85.2C231.7 85.2 230.6 85.3 229.3 85.4C228 85.5 226.7 85.7 225.6 86L223.1 86.6L223.3 89.2C223.4 91 223.6 92.6 223.6 94.2C223.7 95.7 223.7 97.2 223.7 98.7C223.7 100.1 223.8 101.7 223.8 103.2V106.9C223.6 107.1 223.4 107.2 223.2 107.4C222.6 107.9 221.9 108.4 221.1 108.9C220.3 109.4 219.3 109.8 218.3 110.1C217.2 110.4 215.9 110.6 214.5 110.6C213.6 110.6 211.9 110.5 211.3 109.7C210.9 109 210.4 107.6 210.4 105C210.4 103.8 210.4 102.6 210.5 101.4L210.6 97.6C210.6 96.3 210.7 95.2 210.7 94C210.7 92.8 210.8 91.7 210.8 90.8C210.8 89 210.3 87.6 209.2 86.7C208.2 85.8 206.9 85.3 205.2 85.3C203.8 85.3 202.5 85.4 201.2 85.7C200.1 85.9 198.9 86.2 197.6 86.5L194.4 87.2L195.4 90.3C195.9 91.8 196.2 93.2 196.3 94.5C196.5 95.9 196.6 97.2 196.6 98.4C196.6 99.6 196.6 101 196.5 102.4C196.5 103.9 196.5 105.6 196.5 107.2C196.6 112.5 198 116.6 200.7 119.4C203.5 122.2 207.6 123.7 213 123.7C215.2 123.7 217.2 123.5 219 123C220.7 122.5 222.1 122 223.5 121.3C223.5 122.2 223.5 123.2 223.4 124.4C223.4 125.9 223.4 127.3 223.3 128.8C223.3 130.2 223.3 131.4 223.2 132.6V135.5C223.2 137.5 224 138.7 224.6 139.4L224.7 139.5C225.7 140.4 227.1 140.8 228.9 140.8C229.7 140.8 230.6 140.7 231.7 140.6C232.8 140.4 234 140.1 235.4 139.7L237.5 139V136.8C237.5 136.7 237.5 136.3 237.4 135.6C237.4 135 237.3 134.4 237.3 133.6C237.3 132.8 237.3 131.9 237.2 131.1C237.2 130.3 237.1 129.6 237.1 129.1V115.2C237.1 112 237.1 109.1 237.2 106.6C237.3 104.1 237.4 101.8 237.4 99.9C237.5 97.9 237.6 96.1 237.6 94.7C237.7 93.1 237.7 91.7 237.7 90.4C237.7 88.5 237.1 87.1 236 86.2C235.5 85.6 234.3 85.2 232.7 85.2Z" fill="#E2211C"/>
<path d="M278.6 102.4C279.8 100.9 281.1 99.5 282.3 98.1C283.6 96.7 285.1 95.2 286.6 93.7L288.7 91.6L286.6 89.5C286.2 89.1 285.8 88.8 285.4 88.4C285.1 88.1 284.8 87.9 284.4 87.6C284 87.2 283.5 86.8 283 86.3C280.7 84.5 278.5 84.6 277.2 84.9C275.5 85.3 273.9 86.5 272.2 88.5C271.2 89.8 270.1 91.2 269.1 92.7C268.1 94.2 267 95.8 265.9 97.5C264.9 99.2 263.8 100.9 262.8 102.6C262.1 103.8 261.4 105 260.7 106.1C260.3 106.1 259.9 106.1 259.5 106.1C259.3 106.1 259.1 106.1 258.9 106.1C258.9 104.7 258.9 103.3 258.9 102C258.9 99.8 259 97.8 259 96.1C259 94.1 259.1 92.2 259.1 90.4C259.1 88.1 257.7 85.4 253.6 85.4C252.6 85.4 251.6 85.5 250.6 85.6C249.7 85.7 248.9 85.8 248.1 86C247.2 86.2 246.4 86.4 245.6 86.6L242.5 87.4L243.4 90.4C243.6 91 243.8 91.6 244 92.3C244.1 92.7 244.3 93.1 244.4 93.7L244.5 94C244.6 94.4 244.7 95 244.8 95.6C244.9 96.3 244.9 97.1 244.9 98C244.9 100.7 244.9 103.6 244.8 106.7C244.8 109.7 244.8 112.8 244.7 116L244.6 125.4C244.6 128.4 244.6 131.4 244.5 134.2C244.5 136.6 244.9 138.2 245.9 139.3L246 139.4C247.1 140.6 248.7 141.2 251.1 141.2C251.9 141.2 252.7 141.1 253.8 141C254.9 140.9 255.9 140.7 256.8 140.5L259.8 139.8L259.1 136.8C259 136.3 258.9 135.8 258.8 135.2C258.7 134.8 258.7 134.3 258.6 133.8C258.6 133.2 258.5 132.6 258.5 132.1V124.7C258.5 122.6 258.5 120.3 258.6 118.1C259.2 118.1 259.7 118.2 260 118.3H260.2C260.6 118.4 260.9 118.5 261 118.5H261.1C261.4 118.6 261.7 118.8 262.1 119.1C262.7 119.6 263.5 120.5 264.5 122.7C265.6 124.9 266.9 127.5 268.4 130.4C269.3 132.2 270.1 133.7 270.8 135C271.6 136.3 272.3 137.4 273.2 138.3L273.3 138.4C274.3 139.4 275.4 140.1 276.6 140.5C277.7 140.9 279 141.1 280.5 141.1C282.8 141.1 284.6 140.5 285.7 139.2C286.8 138 287.4 136.3 287.4 134.1C287.4 133.5 287.4 132.9 287.3 132.3C287.3 131.8 287.2 131.4 287.2 131C287.2 130.5 287.1 130.1 287.1 129.7L286.8 127.1H284C283.3 127.1 282.9 127.1 282.6 127H282.5C282.3 126.8 282.1 126.6 281.9 126.2C281.6 125.7 281.2 125 280.7 124C279.6 121.7 278.6 119.8 277.7 118.3C276.8 116.6 275.9 115.2 275.2 114.1C274.4 112.9 273.6 111.9 272.9 111C272.8 110.9 272.7 110.8 272.6 110.7C273.4 109.5 274.2 108.3 274.9 107.2C276.2 105.3 277.4 103.8 278.6 102.4Z" fill="#E2211C"/>
<path d="M334.1 134.1L334 131.9C334 131.2 333.9 130.6 333.9 130C333.8 127.2 333.8 124.1 333.8 120.9V110.8C333.8 109.3 333.8 107.6 333.9 105.7L334 100.1C334.1 98.2 334.2 96.4 334.2 94.8C334.2 93.1 334.3 91.7 334.3 90.6C334.3 88.8 333.8 87.4 332.8 86.5C331.9 85.6 330.6 85.2 328.9 85.2C328 85.2 326.8 85.3 325.5 85.4C324.3 85.5 323.1 85.7 322 85.9L320.8 86.1L320.1 87.1C318.6 89.3 317 91.8 315 94.7C313.1 97.6 311.1 100.7 309 103.9C307 106.9 305 110.1 303 113.3C303 112.6 303 111.9 303.1 111.2L303.2 104.9C303.2 102.7 303.3 100.7 303.3 98.9C303.3 97 303.4 95.2 303.4 93.7C303.4 92.1 303.5 90.7 303.5 89.6C303.5 87.5 302.1 85.1 298 85.1C296.8 85.1 295.6 85.2 294.4 85.3C293.2 85.4 291.9 85.6 290.6 86L287.9 86.7L288.4 89.5C288.5 90.2 288.6 90.9 288.7 91.4V91.6C288.8 92.1 288.9 92.6 289 93.1C289.1 93.6 289.1 94.2 289.2 94.9C289.2 95.5 289.3 96.3 289.3 97.3C289.3 99.2 289.3 101.3 289.2 103.7V110.8C289.2 113.2 289.2 115.6 289.1 117.9C289.1 120.3 289 122.5 289 124.7C289 126.7 289 128.5 288.9 130.2V135.6V135.9C289 136.8 289.2 137.6 289.6 138.3L289.8 138.6C290.3 139.4 291.1 140 292 140.4C293.3 141 295 141.1 297.6 140.8C298.7 140.7 299.7 140.6 300.6 140.4L302 140.1L302.6 138.8C303 138 303.6 136.7 304.5 135.2C305.4 133.6 306.5 131.7 307.7 129.6C308.9 127.6 310.2 125.3 311.7 122.8C313.2 120.3 314.7 117.8 316.3 115.3C317.5 113.4 318.7 111.5 319.8 109.6C319.8 111.3 319.8 112.9 319.7 114.5V118.8L319.6 123.9C319.6 125.5 319.6 127 319.5 128.5C319.5 129.9 319.5 131.1 319.4 132.2V134.9C319.4 136.9 320 138.4 321.1 139.4L321.2 139.5C322.2 140.3 323.6 140.7 325.6 140.7C326.4 140.7 327.2 140.6 328.3 140.5C329.5 140.4 330.8 140.1 332.1 139.6L334.3 138.8L334.1 136.5C334.3 135.8 334.2 135 334.1 134.1Z" fill="#E2211C"/>
<path d="M425.5 116.2C425.5 113.1 424.9 110.5 423.8 108.4C422.7 106.1 421 104.3 418.9 103.2C416.9 102 414.6 101.4 412.1 101.4C408 101.4 404.6 102.8 402.1 105.4C400.8 106.8 399.8 108.6 399.2 110.6V84.5H387.7V115.5C387.7 115.9 387.7 116.3 387.7 116.7L369.9 84.5H358.1V140.5H369.6V109.8C369.6 109.3 369.6 108.8 369.6 108.2L387.6 140.5H399.2V121.7C399.4 122.5 399.7 123.3 400.1 124.1C401.2 126.4 402.8 128.2 404.9 129.4L405 129.5C405.2 129.6 405.4 129.7 405.6 129.8H399.9V140.6H423.9V129.8H418.4C419.7 129.2 420.8 128.3 421.8 127.2C424.2 124.5 425.5 120.8 425.5 116.2ZM412 111.6C413 111.6 413.7 111.8 414 112.3C414.2 112.6 414.8 113.6 414.8 116.3C414.8 118.7 414.4 119.9 414 120.5C413.9 120.7 413.5 121.1 412.1 121.1C410.7 121.1 410.3 120.7 410.1 120.4C409.7 119.8 409.3 118.6 409.3 116.2C409.3 113.6 409.8 112.6 410.1 112.2C410.1 112.1 410.5 111.6 412 111.6Z" fill="#E2211C"/>
<path d="M455.3 132.1L454.9 128L448.9 128.1V98.8C448.9 96.6 449 94.6 449 92.9C449 91.5 448.6 90.4 447.9 89.6C446.6 88.2 444.8 88.2 444.1 88.2H441.2L440.5 88.7C439.4 89.4 438.3 90.1 437.4 90.6C436.5 91.1 435.6 91.5 434.8 91.9C434 92.2 433.2 92.6 432.3 92.9C431.5 93.2 430.5 93.5 429.5 93.8L427.6 94.4L427.3 96.9C427.2 97.3 427.2 97.7 427.1 98.3C427.1 98.8 427 99.3 427 99.9V101.5C427 103.2 427.7 104.4 428.2 105L428.3 105.1C429.2 106 430.5 106.5 432.2 106.5C433.3 106.5 434.4 106.4 435.4 106.1C435.4 109.6 435.4 113.1 435.3 116.4C435.3 120.2 435.3 124.1 435.3 128H433.5C430.7 128 429.3 129.2 428.6 130.2C427.9 131.2 427.6 132.6 427.6 134.4V135.6V136C427.6 136.4 427.7 136.8 427.7 137C427.8 137.4 427.8 137.8 427.9 138.1L428.3 140.6H436.9C438.5 140.6 440 140.7 441.5 140.7H445.5C446.8 140.7 448.2 140.8 449.7 140.8C450.5 140.8 453.1 140.8 454.5 138.8C455.2 137.8 455.5 136.6 455.5 135.2C455.5 134.7 455.5 134.1 455.4 133.6C455.4 132.9 455.4 132.5 455.3 132.1Z" fill="#E2211C"/>
<path d="M474.8 97.2C478.4 96.1 478.8 93.6 478.8 92.5C478.8 91.8 478.7 91.1 478.4 90.5C478.3 90.2 478.2 90 478.1 89.7L477.9 89.3L477.6 88.9C477.5 88.8 477.4 88.7 477.3 88.5L476 86.3L473.7 87.2C473.1 87.4 472.2 87.8 471.1 88.2C471.1 87.5 471.1 86.8 471.1 86.2C471.1 84.5 470.2 83.1 468.7 82.4C467.5 81.9 466.2 81.7 464.6 82C464.3 82.1 464 82.1 463.7 82.2L461.1 82.7L461.3 85.4C461.4 86.3 461.4 87.3 461.5 88.2C459.7 87.6 459 87.5 458.4 87.5C457.1 87.5 455.8 88.1 455.1 89.1C454.7 89.6 454.3 90.2 454.1 90.9C454 91.3 453.9 91.6 453.8 92C453.7 92.3 453.7 92.6 453.7 92.8C453.6 93.4 453.7 94 453.8 94.6L454.2 95.9L455.5 96.4C456.3 96.7 457.3 97.1 458.4 97.4C458 98 457.7 98.5 457.4 99L457.3 99.2C456.9 100.1 456.6 100.9 456.6 101.7C456.6 103.3 457.5 104.7 458.9 105.7C459.8 106.3 460.8 106.6 461.7 106.8L463.9 107.2L464.9 105.2C464.9 105.2 465 105 465.4 104.5L465.5 104.4C465.8 104 466 103.6 466.3 103.1C466.8 103.7 467.3 104.3 467.7 104.8L467.8 104.9C468.8 105.8 469.9 106.3 471.1 106.3C472.4 106.3 473.6 105.8 474.6 104.8L477.8 101.6L476 99.5C475.5 98.9 474.9 98.3 474.3 97.5C474.5 97.3 474.6 97.2 474.8 97.2Z" fill="#E2211C"/>
</g>
<defs>
<clipPath id="clip0_576_51">
<rect width="531.5" height="141.1" fill="white"/>
</clipPath>
</defs>
</svg>
