<svg width="272" height="72" viewBox="0 0 272 72" fill="none" xmlns="http://www.w3.org/2000/svg">
<g clip-path="url(#clip0_576_78)">
<path d="M15.9 21C16.3 20.9 16.6 20.9 17 20.8L17.6 20.7L18.1 19.3C18.2 19 18.3 18.8 18.4 18.5C18.5 18.2 18.6 17.9 18.8 17.6C19.1 17 19.4 16.4 19.7 15.7C20.1 15 20.4 14.3 20.8 13.5C21 13.1 21.2 12.7 21.5 12.3C21.5 13.2 21.5 14 21.5 14.8V19.7C21.5 20.1 21.5 20.6 21.5 21.3C21.5 21.9 21.5 22.5 21.5 23.1C21.5 23.7 21.5 24.2 21.5 24.8V25.9C21.5 26.6 21.7 27.2 22 27.6L22.1 27.7C22.5 28.1 23.2 28.2 24.3 28.2C24.7 28.2 25.1 28.2 25.6 28.1C26.2 28 26.8 27.9 27.4 27.6L28.1 27.3L28 26.5C27.9 26.1 27.9 25.7 27.8 25.3C27.8 25 27.7 24.6 27.7 24.3C27.7 23.9 27.7 23.6 27.7 23.4C27.7 21 27.7 18.7 27.7 16.6C27.7 14.4 27.8 12.4 27.8 10.7C27.8 8.9 27.9 7.4 27.9 6.1C27.9 4.8 28 3.8 28 3.1C28 2.3 27.8 1.8 27.4 1.4C27 0.999999 26.5 0.799999 25.8 0.799999C25.3 0.799999 24.7 0.799999 24.2 0.899999C23.6 0.999999 23 0.999999 22.5 1.2L22.1 1.3L21.9 1.6C20.9 3.2 19.9 4.9 18.9 6.6C18.1 8 17.2 9.6 16.2 11.3C15.6 12.4 15 13.5 14.4 14.6C14 13.9 13.5 13.1 13.1 12.3C12.4 10.9 11.6 9.5 11 8.2C10 6.5 9.4 5.2 8.8 4.1C8.3 3 7.9 2.2 7.6 1.5C7.3 0.899999 6.8 0.599999 6.5 0.499999C5.6 0.199999 4.5 0.399999 3.3 0.499999C2.5 0.799999 1.8 0.899999 1.1 0.999999L0 1.3L0.3 2.4C0.7 3.5 0.9 4.6 1 5.7C1.1 6.8 1.1 7.9 1.1 9.1C1.1 9.9 1.1 10.7 1.1 11.7C1.1 12.6 1.1 13.6 1.1 14.6C1.1 15.6 1.1 16.5 1.1 17.5C1.1 18.5 1.1 19.4 1.1 20.3C1.1 20.6 1.1 20.9 1 21.4L0.9 24.2C0.9 24.7 0.9 25 0.9 25.3C0.9 26.3 1.1 27 1.7 27.5C2.4 28.1 3.5 28.2 4.9 28C5.4 28 5.8 27.9 6.3 27.8L7 27.6L6.9 25.8C6.9 25.6 6.9 25.3 6.9 25V24C6.9 21.6 6.9 19.6 6.9 18V12.9C7.4 14 7.9 15.1 8.4 16C9.5 17.9 10.3 19.2 10.9 19.9C11.3 20.4 11.6 20.7 12.1 20.9C12.8 21.2 13.8 21.3 14.8 21.1C15.1 21.1 15.5 21 15.9 21Z" fill="#E2211C"/>
<path d="M40.2 21.2H42C42.6 21.2 43.2 21.2 43.7 21.1C44.2 21.1 44.7 21.1 45.1 21H45.2C45.3 21.3 45.4 21.7 45.5 22L46.1 23.6C46.4 24.4 46.6 25.1 46.9 25.7C47.2 26.3 47.6 26.8 48 27.1C48.4 27.4 48.9 27.7 49.4 27.7C49.9 27.8 50.4 27.9 50.9 27.9C52.2 27.9 53 27.6 53.6 27C54.1 26.4 54.4 25.6999 54.4 24.7999C54.4 24.4999 54.4 24.3 54.4 24.1V21.9L53.2 22.1C53 22.1 52.5 22.3 52.1 21.6C51.7 21.1 51.4 20.2999 51.1 19.2999C50.6 17.7999 50.2 16.2 49.7 14.7C49.3 13.1 48.9 11.6 48.5 10.2C48.1 8.79995 47.8 7.49995 47.5 6.29995C47.2 5.09995 46.9 4.09995 46.6 3.39995C46.4 2.89995 46.2 2.39995 46.1 2.09995C45.9 1.69995 45.6 1.29995 45.3 1.09995C45 0.799951 44.6 0.599951 44.2 0.599951C43.6 0.399951 42.5 0.399951 41.5 0.599951C41 0.699951 40.6 0.699951 40.1 0.799951L38.1 1.19995L37.9 1.79995C37.6 2.79995 37.3 3.99995 36.8 5.29995C36.3 6.59995 35.8 7.89995 35.2 9.29995C34.6 10.7 34 12.1 33.4 13.5C32.8 14.9 32.2 16.3 31.6 17.7C31.1 19 30.6 20.3 30.1 21.4C29.7 22.6 29.4 23.6 29.2 24.5C28.9 25.8 29 26.5 29.3 27.1C29.7 27.7 30.3 28 31.3 28C31.8 28 32.3 28 32.7 28C33.1 28 33.5 27.9 33.8 27.9C34.1 27.9 34.4 27.7999 34.7 27.7999L35.5 27.6V26.7999C35.5 25.7999 35.6 24.9 35.8 23.9C35.9 23.1 36.2 22.2 36.5 21.2C36.8 21.2 37.1 21.2 37.5 21.2C38.5 21.1 39.3 21.2 40.2 21.2ZM38.6 15.9C38.8 15.4 39 14.9 39.2 14.4C39.6 13.4 40.1 12.4 40.5 11.4C40.9 10.4 41.4 9.39995 41.7 8.49995C41.8 8.39995 41.8 8.19995 41.9 8.09995C42.2 9.09995 42.5 10.1 42.7 11.1C43.1 12.6 43.5 14.2 43.9 15.8C43.7 15.8 43.6 15.8 43.4 15.8C42.6 15.8 41.9 15.8 41.1 15.8H38.8C38.8 16 38.7 16 38.6 15.9Z" fill="#E2211C"/>
<path d="M74.5 13.6C75.1 12.4 75.4 11 75.4 9.30005C75.4 7.80005 75.1 6.40005 74.6 5.30005C74.1 4.10005 73.4 3.20005 72.4 2.40005C71.5 1.70005 70.4 1.10005 69.1 0.800049C67.9 0.500049 66.5 0.300049 65 0.300049C63.8 0.300049 62.4 0.400049 60.8 0.500049C59.2 0.600049 57.6 0.900049 56 1.20005L55 1.50005L55.4 2.60005C55.6 3.30005 55.8 4.10005 56 5.10005C56.2 6.10005 56.3 7.20005 56.3 8.40005C56.3 9.30005 56.4 10.1 56.4 10.9V13.2C56.4 16 56.4 18.4 56.3 20.3C56.2 22.3 56.2 24.1 56.2 25.6C56.2 26.4 56.4 27 57 27.4C57.4 27.7 58 27.8 58.8 27.8C59.2 27.8 59.6 27.8001 60 27.7001C60.4 27.7001 60.7 27.6 61.1 27.5L63.1 27.1L62.9 26.1C62.8 25.6 62.7 25.1 62.7 24.5C62.6 24.1 62.6 23.6001 62.5 23.2001C62.5 22.7001 62.4 22.3 62.4 21.9V21C62.4 20.5 62.4 20.1001 62.4 19.7001C62.4 19.2001 62.4 18.7 62.4 18.3C62.6 18.3 62.9 18.4 63.2 18.4H64.2C65.7 18.4 67.1 18.2 68.4 17.9C69.8 17.6 71 17 72 16.3C73.1 15.7 73.9 14.8 74.5 13.6ZM69.2 9.30005C69.2 10.6 68.8 11.5 68.1 12.1C67.4 12.7 66.1 13.1 64.4 13.1C64 13.1 63.7 13.1 63.3 13.1C63 13.1 62.7 13 62.4 13C62.4 13 62.4 13 62.3 13C62.3 12 62.3 11 62.2 10.2C62.2 9.10005 62.2 8.20005 62.1 7.40005C62.1 6.80005 62 6.30005 62 5.90005C62.3 5.90005 62.5 5.80005 62.8 5.80005C64 5.70005 65.4 5.70005 66.5 6.00005C67 6.10005 67.5 6.30005 67.9 6.70005C68.2 7.00005 68.5 7.30005 68.7 7.70005C69.1 8.10005 69.2 8.60005 69.2 9.30005Z" fill="#E2211C"/>
<path d="M78.6 6C78.7 7.6 78.8 9.3 78.8 11.3C78.8 13.7 78.8 16.2 78.7 18.6C78.6 21 78.6 23.4 78.6 25.8C78.6 27 79.1 27.5 79.5 27.7C79.9 27.9 80.4 28 81.1 28C81.5 28 82 28 82.6 27.9C83.2 27.8 83.7 27.8 84.2 27.7L85.2 27.5L85 26.5C84.9 26.1 84.9 25.6 84.8 25.1C84.8 24.6 84.7 24.1 84.7 23.4C84.7 22.7 84.7 22 84.7 21.2C84.7 19.8 84.7 18.3 84.7 16.8C84.7 15.2 84.7 13.8 84.7 12.4V8.1C84.7 7.4 84.7 6.7 84.7 6.2C85.6 6.2 86.6 6.3 87.5 6.3C88.8 6.4 90 6.4 91.2 6.4C92.5 6.4 93.4 6.2 93.9 5.9C94.4 5.6 95 5 95 3.8C95 3.6 95 3.3 95 2.8C95 2.3 94.9 1.8 94.8 1.1L94.6 0L93.5 0.3C92.4 0.6 90.7 0.7 88.2 0.6C87.5 0.6 86.8 0.6 86 0.6L83.8 0.5C81.9 0.4 80.1 0.4 78.6 0.7L77.5 0.9L77.9 2C78.2 3.1 78.5 4.5 78.6 6Z" fill="#E2211C"/>
<path d="M96.2 27.8001C96.5 27.8001 96.8 27.7001 97.1 27.7001L97.9 27.5001V26.7001C97.9 25.7001 98 24.8001 98.2 23.8001C98.3 23.0001 98.6 22.1001 98.9 21.1001C99.2 21.1001 99.5 21.1001 99.9 21.1001C100.7 21.1001 101.5 21.1001 102.3 21.1001H104.1C104.7 21.1001 105.3 21.1001 105.8 21.0001C106.3 21.0001 106.8 21.0001 107.2 20.9001H107.3C107.4 21.2001 107.5 21.6001 107.6 21.9001L108.2 23.5001C108.5 24.3001 108.7 25.0001 109 25.6001C109.3 26.2001 109.7 26.7001 110.1 27.0001C110.5 27.3001 111 27.6001 111.5 27.6001C112 27.7001 112.5 27.8001 113 27.8001C114.3 27.8001 115.1 27.5001 115.7 26.9001C116.2 26.3001 116.5 25.6001 116.5 24.7001C116.5 24.4001 116.5 24.2001 116.5 24.0001V21.8001L115.3 22.0001C115.1 22.0001 114.6 22.2001 114.2 21.5001C113.8 21.0001 113.5 20.2001 113.2 19.2001C112.7 17.7001 112.3 16.1001 111.8 14.6001C111.4 13.0001 111 11.5001 110.6 10.1001C110.2 8.7001 109.9 7.4001 109.6 6.2001C109.3 5.0001 109 4.0001 108.7 3.3001C108.5 2.8001 108.3 2.3001 108.2 2.0001C108 1.6001 107.7 1.2001 107.4 1.0001C107.1 0.700098 106.7 0.500098 106.3 0.500098C105.7 0.300098 104.6 0.300098 103.6 0.500098C103.1 0.600098 102.7 0.600098 102.2 0.700098L100.2 1.1001L100 1.7001C99.7 2.7001 99.4 3.9001 98.9 5.2001C98.4 6.5001 97.9 7.8001 97.3 9.2001C96.7 10.6001 96.1 12.0001 95.5 13.4001C94.9 14.8001 94.3 16.2001 93.7 17.6001C93.2 18.9001 92.7 20.2001 92.2 21.3001C91.8 22.5001 91.5 23.5001 91.3 24.4001C91 25.7001 91.1 26.4001 91.4 27.0001C91.8 27.6001 92.4 27.9001 93.4 27.9001C93.9 27.9001 94.4 27.9001 94.8 27.9001C95.5 27.9001 95.9 27.9001 96.2 27.8001ZM100.6 15.9001C100.8 15.4001 101 14.9001 101.2 14.4001C101.6 13.4001 102.1 12.4001 102.5 11.4001C102.9 10.4001 103.4 9.4001 103.7 8.5001C103.8 8.4001 103.8 8.2001 103.9 8.1001C104.2 9.1001 104.5 10.1001 104.7 11.1001C105.1 12.6001 105.5 14.2001 105.9 15.8001C105.7 15.8001 105.5 15.8001 105.3 15.8001C104.5 15.8001 103.8 15.8001 103 15.8001H100.7C100.8 16.0001 100.7 16.0001 100.6 15.9001Z" fill="#E2211C"/>
<path d="M134.6 2.40005C133.7 1.70005 132.6 1.10005 131.3 0.800049C130.1 0.500049 128.7 0.300049 127.2 0.300049C126 0.300049 124.6 0.400049 123 0.500049C121.4 0.600049 119.8 0.900049 118.2 1.20005L117.1 1.40005L117.5 2.50005C117.7 3.20005 117.9 4.00005 118.1 5.00005C118.3 6.00005 118.4 7.10005 118.4 8.30005C118.4 9.20005 118.5 10 118.5 10.8V13.1C118.5 15.9 118.5 18.3001 118.4 20.2001C118.3 22.2001 118.3 24 118.3 25.5C118.3 26.3 118.5 26.9 119.1 27.3C119.5 27.6 120.1 27.7001 120.9 27.7001C121.3 27.7001 121.7 27.7 122.1 27.6C122.5 27.6 122.8 27.5 123.2 27.4L125.2 27L125 26C124.9 25.5 124.8 25 124.8 24.4C124.7 24 124.7 23.5 124.6 23.1C124.6 22.6 124.5 22.2 124.5 21.8V20.9C124.5 20.4 124.5 20 124.5 19.6C124.5 19.1 124.5 18.6001 124.5 18.2001C124.7 18.2001 125 18.3 125.3 18.3H126.3C127.8 18.3 129.2 18.1 130.5 17.8C131.9 17.5 133.1 16.9 134.1 16.2C135.2 15.4 136 14.4 136.6 13.3C137.2 12.1 137.5 10.7 137.5 9.00005C137.5 7.50005 137.2 6.10005 136.7 5.00005C136.3 4.10005 135.5 3.20005 134.6 2.40005ZM131.2 9.30005C131.2 10.6 130.8 11.5 130.1 12.1C129.4 12.7 128.1 13.1 126.4 13.1C126 13.1 125.7 13.1 125.3 13.1C125 13.1 124.7 13 124.4 13C124.4 13 124.4 13 124.3 13C124.3 12 124.3 11 124.2 10.2C124.2 9.10005 124.2 8.20005 124.1 7.40005C124.1 6.80005 124 6.30005 124 5.90005C124.3 5.90005 124.5 5.80005 124.8 5.80005C126 5.70005 127.4 5.70005 128.5 6.00005C129 6.10005 129.5 6.30005 129.9 6.70005C130.2 7.00005 130.5 7.30005 130.7 7.70005C131.1 8.10005 131.2 8.60005 131.2 9.30005Z" fill="#E2211C"/>
<path d="M162.7 26.4C162.7 26 162.6 25.5 162.6 25.1L162.5 24C162.5 23.6 162.5 23.3 162.5 23C162.5 21.6 162.4 20 162.4 18.3V13.1C162.4 12.3 162.4 11.4 162.4 10.5L162.5 7.60005C162.5 6.60005 162.6 5.70005 162.6 4.90005C162.6 4.00005 162.6 3.30005 162.6 2.70005C162.6 1.90005 162.4 1.30005 162 1.00005C161.4 0.400049 160.3 0.400049 158.7 0.600049C158.1 0.700049 157.5 0.700049 156.9 0.800049L156.5 0.900049L156.3 1.20005C155.6 2.30005 154.7 3.60005 153.7 5.10005C152.7 6.60005 151.7 8.20005 150.6 9.80005C149.5 11.4 148.5 13.1 147.4 14.8C147.1 15.3 146.8 15.8 146.5 16.3C146.5 16 146.5 15.7 146.5 15.3C146.5 14.7 146.5 14 146.6 13.2L146.7 10C146.7 8.90005 146.7 7.80005 146.7 6.90005C146.7 5.90005 146.7 5.00005 146.7 4.20005C146.7 3.40005 146.7 2.70005 146.7 2.10005C146.7 1.70005 146.5 0.300049 144.4 0.300049C143.8 0.300049 143.2 0.300049 142.7 0.400049C142.1 0.500049 141.5 0.600049 140.8 0.800049L140 1.10005L140.2 2.00005C140.3 2.40005 140.3 2.70005 140.4 3.10005C140.5 3.40005 140.5 3.60005 140.6 3.90005C140.6 4.20005 140.7 4.50005 140.7 4.90005C140.7 5.20005 140.7 5.70005 140.7 6.20005C140.7 7.20005 140.7 8.30005 140.7 9.50005V13.1C140.7 14.3 140.7 15.5 140.7 16.8C140.7 18 140.7 19.2 140.7 20.3C140.7 21.3 140.7 22.3 140.7 23.1V26C140.7 26.4 140.8 26.7 141 27L141.1 27.1C141.3 27.4 141.6 27.7 142 27.8C142.6 28.1 143.5 28.1 144.6 28C145.1 28 145.6 27.9 146.1 27.8L146.6 27.7001L146.8 27.3C147 26.9 147.3 26.2 147.8 25.4C148.3 24.6 148.8 23.6 149.5 22.5C150.1 21.4 150.8 20.3 151.6 19C152.4 17.7 153.2 16.5 154 15.2C154.8 13.9 155.6 12.6 156.4 11.3C156.5 11.1 156.7 10.9 156.8 10.6C156.8 11.2 156.8 11.8 156.8 12.4C156.8 13.3 156.8 14.1 156.8 15V17.2001L156.7 19.8C156.7 20.6 156.7 21.4001 156.7 22.2001C156.7 22.9001 156.7 23.6001 156.7 24.2001V25.5C156.7 26.4 156.9 27 157.4 27.5C157.8 27.8 158.4 28 159.3 28C159.7 28 160.1 28 160.6 27.9C161.2 27.8 161.8 27.7 162.4 27.5L163.1 27.2001L162.7 26.4Z" fill="#E2211C"/>
<path d="M188.6 24.2001C188.6 23.2001 188.6 22.0001 188.5 20.8001C188.5 19.5001 188.5 18.2001 188.5 16.9001V13.2001C188.5 12.4001 188.5 11.6001 188.5 10.6001L188.6 7.60008C188.6 6.60008 188.7 5.60008 188.7 4.80008C188.7 3.90008 188.8 3.20008 188.8 2.70008C188.8 1.70008 188.4 1.20008 188 1.00008C187.3 0.600081 186.2 0.600081 184.8 0.700081C184.1 0.800081 183.5 0.800081 183 1.00008L182.2 1.20008L182.3 2.00008C182.3 2.70008 182.4 3.40008 182.4 4.10008C182.4 4.60008 182.5 5.20008 182.5 5.80008C182.5 6.30008 182.6 6.80008 182.6 7.10008V11.3001C181.9 11.2001 181.2 11.2001 180.6 11.2001C178.8 11.1001 176.9 11.1001 175.1 11.2001C174.6 11.2001 174.1 11.2001 173.5 11.3001C173.5 10.9001 173.5 10.5001 173.6 10.1001C173.6 9.10008 173.7 8.20008 173.7 7.20008C173.7 6.20008 173.8 5.20008 173.8 4.30008C173.8 3.40008 173.8 2.70008 173.8 2.20008C173.8 1.40008 173.3 0.800081 172.5 0.700081C171.4 0.500081 170.4 0.600081 169.4 0.800081C168.7 0.900081 168.1 1.10008 167.4 1.20008L166.4 1.40008L166.7 2.40008C166.8 2.80008 166.9 3.20008 167 3.70008C167.1 4.10008 167.2 4.50008 167.3 5.10008C167.4 5.60008 167.4 6.20008 167.4 7.00008C167.4 7.70008 167.5 8.50008 167.5 9.50008C167.5 10.2001 167.5 11.0001 167.5 11.9001C167.5 12.8001 167.5 13.7001 167.5 14.6001L167.4 17.4001C167.4 18.3001 167.4 19.2001 167.4 20.0001C167.4 20.3001 167.4 20.6001 167.4 21.0001C167.4 21.4001 167.4 21.9001 167.3 22.4001L167.2 23.8001C167.2 24.3001 167.2 24.6001 167.2 25.0001C167.2 26.0001 167.4 26.7001 167.7 27.2001C168.1 27.8001 168.8 28.0001 169.7 28.0001C170.1 28.0001 170.5 28.0001 171.1 27.9001C171.7 27.8001 172.3 27.8001 172.7 27.7001L173.6 27.5001L173.3 25.7001C173.3 25.5001 173.2 25.2001 173.2 24.9001C173.2 24.6001 173.2 24.3001 173.2 24.0001V22.3001L173.3 17.7001C173.3 17.3001 173.3 17.0001 173.3 16.7001C173.6 16.7001 173.9 16.7001 174.2 16.7001C174.9 16.7001 175.6 16.7001 176.4 16.7001C178.7 16.7001 180.8 16.8001 182.5 16.9001C182.5 17.0001 182.5 17.0001 182.5 17.1001C182.5 17.6001 182.5 18.2001 182.5 18.8001C182.5 19.4001 182.5 20.1001 182.5 20.9001C182.5 21.6001 182.5 22.3001 182.5 23.0001V26.1001C182.5 26.6001 182.7 27.1001 183 27.6001C183.4 28.1001 184.1 28.3001 185 28.3001C185.5 28.3001 186.1 28.2001 186.7 28.1001C187.3 28.0001 187.8 27.9001 188.3 27.7001L189.1 27.4001L189 26.6001C188.7 25.9001 188.6 25.1001 188.6 24.2001Z" fill="#E2211C"/>
<path d="M236.7 13.7001C236.9 12.1001 237.1 10.6001 237.2 9.2001C237.3 8.1001 237.3 7.0001 237.4 5.9001C237.6 5.9001 237.9 5.9001 238.1 5.9001C239.3 5.9001 240.5 5.9001 241.7 5.9001C241.9 5.9001 242.1 5.9001 242.3 5.9001C242.2 7.8001 242.2 9.6001 242.1 11.3001C242.1 13.4001 242.1 15.5001 242.1 17.6001V22.1001C242.1 23.4001 242.2 24.6001 242.2 25.7001C242.2 26.4001 242.4 26.9001 242.7 27.2001L242.8 27.3001C243.2 27.6001 243.8 27.8001 244.7 27.8001C245.3 27.8001 245.9 27.7001 246.5 27.6001C247.2 27.5001 247.7 27.4001 248.2 27.2001L249.1 26.9001L248.9 26.0001C248.8 25.6001 248.7 25.0001 248.6 24.1001C248.5 23.2001 248.4 22.2001 248.4 21.2001C248.4 20.1001 248.3 19.0001 248.3 17.9001C248.3 16.8001 248.3 15.9001 248.3 15.0001C248.3 12.1001 248.4 9.6001 248.5 7.6001C248.6 5.4001 248.7 3.9001 248.7 2.9001C248.7 2.6001 248.6 2.2001 248.5 1.9001C248.4 1.6001 248.2 1.2001 247.7 0.900098C247.4 0.700098 247 0.600098 246.5 0.500098C246.1 0.400098 245.6 0.400098 244.9 0.300098C244.4 0.300098 243.8 0.300098 243 0.300098C241.4 0.200098 239.4 0.300098 236.9 0.300098C235.6 0.300098 234.1 0.400098 232.4 0.400098L231.2 0.500098L231.4 1.7001C231.5 2.2001 231.6 2.7001 231.6 3.2001C231.6 3.7001 231.7 4.2001 231.7 4.9001C231.7 6.2001 231.7 7.6001 231.6 9.0001C231.5 10.4001 231.3 11.8001 231.1 13.3001C230.8 15.3001 230.4 16.9001 230 18.1001C229.6 19.3001 229.2 20.1001 228.8 20.7001C228.4 21.3001 228 21.6001 227.8 21.7001C227.3 21.9001 227 22.0001 226.6 21.9001C226.5 21.9001 226.5 21.9001 226.4 21.8001L225.4 21.5001L225.1 22.5001C225.1 22.7001 225 22.9001 225 23.0001C224.8 22.8001 224.6 22.6001 224.2 22.4001C223.8 22.3001 223.4 22.2001 222.9 22.2001C222.7 22.2001 222.5 22.2001 222.3 22.2001C222.3 21.6001 222.3 20.8001 222.2 19.9001C222.2 18.3001 222.2 16.3001 222.2 13.9001C222.2 12.2001 222.2 10.6001 222.3 9.4001C222.4 8.1001 222.4 7.0001 222.5 6.2001C222.6 5.3001 222.6 4.6001 222.7 4.1001C222.8 3.5001 222.8 3.1001 222.8 2.8001C222.8 2.5001 222.7 2.1001 222.6 1.8001C222.5 1.5001 222.3 1.1001 221.8 0.800098C221.5 0.600098 221 0.400098 220.5 0.300098C220.1 0.200098 219.5 0.200098 218.8 0.100098C218.2 0.100098 217.6 0.100098 216.8 0.100098C216 0.100098 215.1 0.100098 214.2 0.100098C213.2 0.100098 212.1 0.100098 210.8 0.100098C209.5 0.100098 208.1 0.200098 206.4 0.200098L205.2 0.300098L205.5 1.5001C205.8 3.0001 206 4.4001 205.9 5.7001C205.8 8.0001 205.6 10.0001 205.3 11.8001C205.1 13.5001 204.8 15.1001 204.4 16.5001C204 17.8001 203.6 19.0001 203.1 20.0001C202.7 20.9001 202.1 21.6001 201.6 22.3001C200.8 22.4001 200.2 22.6001 199.8 22.9001C199.3 23.3001 199 24.0001 199 24.9001V28.4001C199 29.0001 199 29.6001 199 30.2001C199 30.8001 199 31.3001 199.1 31.7001C199.2 32.4001 199.3 32.8001 199.6 33.1001C200.1 33.8001 201.1 33.8001 201.4 33.8001C202 33.8001 202.4 33.8001 202.8 33.7001C203.2 33.6001 203.6 33.6001 203.9 33.5001C204.2 33.4001 204.5 33.3001 204.8 33.1001L205.5 32.7001L205.3 31.9001C205.2 31.5001 205.1 31.0001 205 30.5001C204.9 30.1001 204.8 29.5001 204.8 28.8001C204.8 28.4001 204.7 28.0001 204.7 27.5001C205 27.5001 205.4 27.5001 205.7 27.4001C206.4 27.4001 207.2 27.4001 208 27.4001C208.8 27.4001 209.6 27.4001 210.3 27.4001C211.1 27.4001 211.8 27.4001 212.5 27.4001H214.6C215.3 27.4001 216.1 27.4001 216.8 27.4001C217.5 27.4001 218.2 27.4001 219 27.4001C219.3 27.4001 219.6 27.4001 219.8 27.4001V30.8001C219.8 31.3001 219.8 31.6001 219.9 31.9001C220 32.3001 220.1 32.7001 220.4 33.0001C220.7 33.3001 221.1 33.5001 221.4 33.5001C221.8 33.6001 222.2 33.6001 222.7 33.6001C223.4 33.6001 224.2 33.5001 225.1 33.2001L225.9 33.0001L225.8 32.1001C225.6 30.6001 225.5 29.3001 225.5 28.1001C225.5 27.7001 225.5 27.4001 225.5 27.0001C225.9 27.4001 226.6 27.6001 227.5 27.6001C228.6 27.6001 229.7 27.3001 230.7 26.8001C231.7 26.3001 232.6 25.4001 233.4 24.2001C234.1 23.0001 234.8 21.5001 235.3 19.8001C235.9 18.5001 236.4 16.3001 236.7 13.7001ZM216.2 22.3001C215.8 22.3001 215.4 22.3001 214.9 22.3001H212.8C211.8 22.3001 210.7 22.3001 209.5 22.3001C209 22.3001 208.5 22.3001 208.1 22.3001C208.3 21.9001 208.5 21.5001 208.7 21.0001C209.2 19.9001 209.6 18.6001 210 17.1001C210.4 15.6001 210.7 13.8001 210.9 11.9001C211.1 10.1001 211.3 8.1001 211.4 5.8001C212.3 5.8001 213.2 5.7001 214.1 5.8001C214.9 5.8001 215.7 5.8001 216.4 5.8001C216.3 7.7001 216.2 9.4001 216.2 11.0001C216.2 12.8001 216.1 14.6001 216.1 16.4001V19.7001C216.2 20.5001 216.2 21.4001 216.2 22.3001Z" fill="#E2211C"/>
<path d="M271.8 26.3C271.7 25.9 271.6 25.5 271.5 25C271.4 24.5 271.4 24 271.3 23.3C271.3 22.6 271.2 21.8 271.2 20.8V15.8L271.3 11.4C271.3 9.90005 271.4 8.50005 271.5 7.00005C271.6 5.50005 271.7 3.90005 271.8 2.10005L271.9 1.30005L271 1.10005C270.3 0.900049 269.5 0.800049 268.7 0.700049C268 0.600049 267.1 0.500049 266.2 0.400049C265.3 0.300049 264.2 0.300049 263.1 0.300049C261.6 0.300049 260.1 0.500049 258.8 0.800049C257.5 1.10005 256.3 1.60005 255.2 2.40005C254.2 3.10005 253.3 4.10005 252.7 5.30005C252.1 6.50005 251.8 7.90005 251.8 9.50005C251.8 11.4 252.3 13.1 253.4 14.5C254.2 15.4 255.1 16.2 256.2 16.8C256.2 16.8 256.2 16.9 256.1 16.9C255.9 17.2 255.6 17.6 255.3 18.1C255 18.6 254.6 19.1 254.3 19.9C253.9 20.5 253.6 21.1 253.4 21.4C253.2 21.7 252.9 22 252.8 22.1C252.6 22.2 252.5 22.3 252.4 22.3C252.2 22.3 251.9 22.4 251.6 22.4H251L250.8 23.2001C250.7 23.4001 250.7 23.7 250.7 24C250.7 24.2 250.7 24.4001 250.6 24.7001V25.6C250.6 26.6 250.8 27.3 251.3 27.9C251.8 28.4 252.6 28.7001 253.6 28.7001C254.3 28.7001 254.9 28.6 255.5 28.4C256.1 28.2 256.6 27.8 257.1 27.3C257.5 26.9 258 26.3 258.4 25.6C258.8 25 259.2 24.2001 259.7 23.2001C260.3 22.1001 260.8 21.2 261.2 20.5C261.6 19.9 261.9 19.4 262.2 19.1C262.5 18.8 262.8 18.6 263.1 18.6C263.5 18.5 263.9 18.4 264.5 18.4H265.4C265.4 18.9 265.4 19.4 265.4 20V24.9C265.4 25.6 265.4 26.1 265.4 26.5C265.5 27.4 265.8 28 266.3 28.3C266.7 28.5 267.2 28.7001 267.9 28.7001C268.3 28.7001 268.7 28.7 269 28.6C269.4 28.6 269.7 28.5 270.1 28.4C270.5 28.3 270.8 28.3001 271.2 28.2001L272.2 28L271.8 26.3ZM265.5 5.90005C265.5 6.30005 265.4 6.70005 265.4 7.30005C265.3 8.60005 265.3 10.4 265.2 12.6C264.6 12.7 263.6 12.7 262.3 12.7C260.9 12.7 259.8 12.4 259.2 11.8C258.6 11.2 258.2 10.4 258.2 9.40005C258.2 8.20005 258.5 7.30005 259.2 6.70005C259.9 6.10005 261.1 5.70005 262.8 5.70005C263.4 5.70005 264 5.70005 264.6 5.80005C264.9 5.80005 265.2 5.90005 265.5 5.90005Z" fill="#E2211C"/>
<path d="M33.9 58.2001C33.5 57.6001 32.9 57.0001 32.2 56.6001C32 56.5001 31.8 56.3001 31.6 56.2001C32.1 55.8001 32.5 55.3001 32.9 54.7001C33.6 53.6001 33.9 52.3001 33.9 51.0001C33.9 49.5001 33.6 48.2001 33.1 47.2001C32.5 46.2001 31.8 45.4001 30.8 44.8001C29.9 44.2001 28.8 43.8001 27.6 43.6001C24.3 43.0001 20.4 43.3001 15.7 44.3001L14.7 44.5001L15 45.5001C15.1 45.8001 15.2 46.2001 15.2 46.5001C15.3 46.8001 15.3 47.1001 15.4 47.5001C15.5 47.8001 15.5 48.2001 15.5 48.6001C15.5 49.0001 15.6 49.5001 15.6 50.1001C15.6 51.1001 15.7 52.0001 15.7 53.0001V56.0001C15.7 58.2001 15.7 60.4001 15.6 62.6001C15.6 64.7001 15.5 66.8001 15.4 68.8001V69.5001L16.1 69.7001C16.8 70.0001 17.6 70.2001 18.5 70.4001C19.2 70.6001 20.1 70.7001 21.1 70.9001C22.1 71.0001 23.2 71.1001 24.3 71.1001C26.1 71.1001 27.7 70.9001 29 70.5001C30.4 70.1001 31.5 69.5001 32.5 68.7001C33.4 67.9001 34.1 66.9001 34.6 65.8001C35 64.7001 35.2 63.5001 35.2 62.2001C35.2 61.5001 35.1 60.8001 34.9 60.2001C34.7 59.4001 34.4 58.8001 33.9 58.2001ZM26.8 53.4001C26.2 54.0001 25.1 54.3001 23.5 54.3001H21.6C21.6 53.6001 21.6 53.0001 21.6 52.5001C21.6 51.6001 21.6 50.9001 21.6 50.2001C21.6 49.7001 21.6 49.3001 21.6 48.9001C21.8 48.9001 22 48.8001 22.2 48.8001C22.7 48.7001 23.3 48.7001 23.9 48.7001C25.3 48.7001 26.3 48.9001 27 49.4001C27.2 49.5001 27.8 49.9001 27.8 51.4001C27.7 52.2001 27.4 52.9001 26.8 53.4001ZM21.5 63.9001C21.5 63.2001 21.6 62.4001 21.6 61.4001V59.5001C21.9 59.5001 22.1 59.5001 22.4 59.5001H23.8C24.6 59.5001 25.4 59.6001 26.1 59.7001C26.7 59.8001 27.2 60.0001 27.7 60.2001C28.1 60.4001 28.4 60.7001 28.6 61.1001C28.8 61.4001 28.9 61.9001 28.9 62.5001C28.9 63.7001 28.6 64.5001 28 65.0001C27.3 65.5001 26.2 65.8001 24.6 65.8001C24.1 65.8001 23.5 65.8001 23.1 65.7001C22.6 65.6001 22.2 65.6001 21.8 65.5001C21.7 65.5001 21.5 65.4001 21.4 65.4001C21.4 64.9001 21.5 64.4001 21.5 63.9001Z" fill="#E2211C"/>
<path d="M65.7 67.3999C65.7 66.4999 65.7 65.4999 65.6 64.2999C65.6 63.1999 65.6 61.8999 65.6 60.5999V56.3999C65.6 53.9999 65.6 51.8999 65.7 49.9999C65.8 48.0999 65.8 46.5999 65.8 45.5999C65.8 44.5999 65.3 44.0999 65 43.7999C64.4 43.4999 63.7 43.3999 62.7 43.4999C62.3 43.4999 62 43.4999 61.7 43.5999C61.3 43.5999 61 43.6999 60.6 43.6999C60.3 43.6999 60 43.7999 59.7 43.8999L58.8 43.9999L58.9 44.8999C59 45.2999 59 45.5999 59.1 45.9999C59.1 46.2999 59.2 46.5999 59.2 46.9999C59.2 47.2999 59.3 47.6999 59.3 47.9999C59.3 48.9999 59.4 50.1999 59.4 51.5999C59.4 53.0999 59.4 54.5999 59.4 56.2999C59.4 57.7999 59.4 59.1999 59.4 60.4999C59.4 61.7999 59.4 62.9999 59.3 64.0999C59.3 65.0999 59.3 66.0999 59.3 66.8999C59.3 67.6999 59.3 68.2999 59.3 68.7999C59.3 69.2999 59.5 69.7999 59.8 70.2999C60.2 70.7999 60.9 70.9999 61.8 70.9999C62.3 70.9999 62.9 70.8999 63.5 70.7999C64.1 70.6999 64.6 70.5999 65.1 70.3999L65.8 70.0999L65.7 69.2999C65.8 68.8999 65.7 68.2999 65.7 67.3999Z" fill="#E2211C"/>
<path d="M55.3 55.1C54.5 54.4 53.5 53.9 52.4 53.5C51.3 53.2 50.1 53 48.8 53C47.7 53 46.7 53.1001 45.8 53.2001C45.4 53.3001 45 53.3001 44.6 53.4001C44.6 52.1001 44.6 50.9 44.6 49.8C44.6 48.4 44.6 47.2001 44.5 46.2001C44.5 45.3001 44.4 44.7 44.1 44.3C43.9 43.9 43.3 43.3 42.1 43.3C41.6 43.3 41 43.4 40.3 43.5C39.6 43.6 38.9 43.8 38.2 44L37.2 44.3L37.5 45.3C37.6 45.6 37.7 45.9001 37.7 46.2001V46.3C37.8 46.5 37.8 46.7 37.9 47C38 47.3 38 47.5 38.1 48C38.2 48.3 38.2 48.7 38.3 49.3C38.3 49.8 38.4 50.4 38.4 51.1C38.4 51.7 38.5 52.4 38.5 53.1C38.5 53.8 38.6 54.4001 38.6 55.2001C38.6 55.9001 38.6 56.5 38.6 57.1C38.6 59 38.6 61 38.5 63C38.4 65.1 38.3 67.0001 38.2 68.9001V69.7L38.9 70C39.5 70.2 40.3 70.4 41.1 70.6C41.8 70.7 42.6 70.9 43.5 71C44.4 71.1 45.5 71.2 46.6 71.2C48.2 71.2 49.7 71 51.1 70.7C52.5 70.4 53.8 69.8 54.8 69C55.8 68.2 56.7 67.2 57.2 66C57.8 64.8 58 63.3001 58 61.7001C58 60.3001 57.8 59.1 57.3 58.1C56.9 56.8 56.2 55.8 55.3 55.1ZM51.7 61.8C51.7 62.5 51.6 63 51.4 63.5C51.2 63.9 50.9 64.3 50.5 64.6C50.1 64.9 49.6 65.1001 49 65.3001C48.4 65.4001 47.7 65.5 46.9 65.5C46.4 65.5 45.9 65.5001 45.5 65.4001C45.1 65.4001 44.8 65.3 44.4 65.2H44.3C44.3 64.6 44.4 64 44.4 63.5C44.4 62.7 44.5 61.9001 44.5 60.9001L44.6 58.9001C44.9 58.8001 45.2 58.8001 45.6 58.7001C46.2 58.6001 47 58.5 47.9 58.5C49.2 58.5 50.2 58.8001 50.8 59.4001C51.4 59.9001 51.7 60.7 51.7 61.8Z" fill="#E2211C"/>
<path d="M91.2 53.5999L91.3 50.4999C91.3 49.4999 91.4 48.4999 91.4 47.6999C91.4 46.7999 91.5 46.1999 91.5 45.7999C91.5 44.7999 91.1 44.2999 90.7 43.9999C90.3 43.6999 89.8 43.5999 89.2 43.5999C88.4 43.5999 87.6 43.4999 86.9 43.4999L84.9 43.3999C84.2 43.3999 83.5 43.3999 82.8 43.3999H80.5C78.7 43.3999 77 43.3999 75.5 43.3999C73.9 43.3999 72.3 43.4999 70.5 43.6999L69.3 43.7999L69.6 44.9999C69.8 45.5999 70 46.2999 70.1 46.9999C70.3 47.6999 70.3 48.3999 70.4 49.2999C70.4 49.6999 70.4 50.4999 70.4 51.7999V56.3999C70.4 57.5999 70.4 58.7999 70.3 59.9999C70.3 61.1999 70.2 62.2999 70.2 63.3999C70.2 64.4999 70.1 65.3999 70.1 66.2999C70.1 67.1999 70.1 67.7999 70.1 68.1999C70.1 69.1999 70.3 69.7999 70.6 70.2999C71.1 70.8999 72 70.9999 72.7 70.9999C73.1 70.9999 73.5 70.9999 74.1 70.8999C74.7 70.7999 75.2 70.7999 75.7 70.6999L76.6 70.4999L76.4 69.5999C76.4 69.2999 76.3 68.9999 76.3 68.5999C76.3 68.2999 76.2 67.9999 76.2 67.5999C76.2 67.1999 76.2 66.7999 76.2 66.2999C76.2 63.0999 76.2 59.9999 76.3 56.9999L76.6 48.9999C77 48.9999 77.4 48.9999 77.8 48.9999H81.8C82.3 48.9999 82.8 48.9999 83.4 48.9999C83.9 48.9999 84.4 48.9999 84.9 48.9999C85 48.9999 85.2 48.9999 85.3 48.9999C85.3 50.0999 85.3 51.3999 85.2 52.7999C85.2 54.5999 85.1 56.4999 85.1 58.4999L85 64.2999C85 66.1999 85 67.7999 85 69.1999C85 69.8999 85.3 70.3999 85.6 70.5999C86 70.8999 86.5 70.9999 87.4 70.9999C87.8 70.9999 88.2 70.9999 88.8 70.8999C89.5 70.7999 90.1 70.6999 90.7 70.4999L91.5 70.1999L91.4 69.3999C91.4 69.1999 91.3 68.8999 91.3 68.4999C91.3 68.2999 91.2 67.9999 91.2 67.5999C91.2 67.0999 91.2 66.5999 91.1 65.9999C91.1 64.5999 91 62.9999 91 61.2999C91 59.5999 91.1 57.8999 91.1 56.1999C91.2 55.4999 91.2 54.5999 91.2 53.5999Z" fill="#E2211C"/>
<path d="M113.6 66.1C113.6 65.8 113.5 65.6001 113.5 65.4001L113.3 64.4001L112.3 64.7C111.4 65 110.5 65.1 109.7 65.2C108.5 65.4 106.9 65.3001 105 65.4001H102.2C102.2 64.3001 102.2 63.2001 102.2 62.2001L102.3 59.5C102.6 59.5 102.9 59.6 103.2 59.6L105.3 59.7001L107.2 59.8C107.8 59.8 108.4 59.8 108.9 59.8C109.9 59.8 110.6 59.6 111.1 59.1C111.6 58.6 111.8 57.9001 111.8 56.9001C111.8 56.6001 111.8 56.4 111.8 56.1C111.8 55.9 111.8 55.7 111.7 55.5L111.5 53.8L110.5 54C110.3 54 110 54.1 109.8 54.1C109.5 54.1 109.3 54.1001 109 54.2001H108C106.6 54.2001 105.4 54.2001 104.4 54.2001C103.7 54.2001 103 54.1 102.4 54.1V52.5C102.4 51.6 102.4 50.9001 102.4 50.2001C102.4 49.8001 102.4 49.4 102.4 49C103.4 49 104.3 49 105.2 49.1C106.5 49.2 107.8 49.2001 109 49.2001C110.8 49.2001 111.5 49.0001 111.8 48.9001C112.3 48.7001 113 48.1 113 46.8C113 46.6 113 46.3001 113 45.9001C113 45.4001 112.9 44.9001 112.8 44.2001L112.6 43.3L111.7 43.4001C111 43.5001 110.4 43.6 109.7 43.6C109 43.6 108.2 43.6 107.3 43.6H105.5C104.8 43.6 104.2 43.6 103.5 43.6C102.8 43.6 102.2 43.6 101.5 43.6C100 43.5 98.9 43.6 98 43.6C97.4 43.6 96.9 43.7 96.4 43.8L95 44L95.3 45C95.4 45.3 95.5 45.6001 95.5 45.9001V46C95.6 46.2 95.7 46.5 95.7 46.8C95.8 47.1 95.8 47.4 95.9 47.8C95.9 48.2 96 48.6 96 49.1C96 50 96.1 51 96.1 52.1C96.1 53.1 96.1 54.2001 96.1 55.4001C96.1 58.3001 96.1 60.9 96.1 63.1C96.1 65.3 96 67.5 95.9 69.5L95.8 70.5L96.8 70.6C98.3 70.7 99.8 70.8001 101.5 70.9001C103.2 71.0001 104.7 71 106.2 71C107.6 71 108.7 71 109.6 71C110.5 71 111.3 70.9001 111.8 70.8001C112.6 70.6001 113.1 70.3001 113.3 69.9001C113.6 69.5001 113.7 69.0001 113.7 68.3001C113.7 67.9001 113.7 67.5 113.6 67.2C113.7 66.7 113.7 66.3 113.6 66.1Z" fill="#E2211C"/>
<path d="M135.2 43.8999C134.6 43.3999 133.5 43.3999 131.9 43.5999C131.2 43.6999 130.6 43.6999 130.1 43.8999L129.3 44.0999L129.4 44.9999C129.5 45.8999 129.5 46.7999 129.6 47.5999C129.6 48.3999 129.7 49.0999 129.7 49.8999C129.7 50.6999 129.7 51.3999 129.7 52.1999V54.2999C129.6 54.3999 129.4 54.5999 129.2 54.6999C128.9 54.9999 128.5 55.1999 128 55.4999C127.6 55.7999 127 55.9999 126.4 56.1999C125.8 56.3999 125.1 56.4999 124.3 56.4999C123.2 56.4999 122.5 56.2999 122.2 55.7999C121.8 55.1999 121.6 54.2999 121.6 52.9999C121.6 52.3999 121.6 51.7999 121.6 51.0999L121.7 47.2999C121.7 46.6999 121.7 46.0999 121.7 45.6999C121.7 44.8999 121.5 44.2999 121.1 43.9999C120.7 43.5999 120.1 43.3999 119.4 43.3999C118.7 43.3999 118.1 43.4999 117.5 43.5999L114.6 44.1999L114.9 45.1999C115.1 45.9999 115.3 46.6999 115.4 47.4999C115.5 48.1999 115.5 48.8999 115.5 49.5999C115.5 50.1999 115.5 50.8999 115.5 51.6999C115.5 52.4999 115.5 53.2999 115.5 54.1999C115.6 56.7999 116.2 58.7999 117.5 60.0999C118.8 61.3999 120.8 62.0999 123.4 62.0999C124.5 62.0999 125.5 61.9999 126.3 61.6999C127.1 61.4999 127.9 61.1999 128.5 60.8999C128.8 60.6999 129 60.5999 129.3 60.3999V60.9999C129.3 61.5999 129.3 62.2999 129.3 63.0999C129.3 63.8999 129.3 64.5999 129.3 65.3999C129.3 66.0999 129.3 66.7999 129.3 67.3999V68.7999C129.3 69.4999 129.5 69.9999 129.9 70.3999C130.3 70.7999 130.9 70.8999 131.7 70.8999C132.1 70.8999 132.5 70.8999 133.1 70.7999C133.6 70.6999 134.2 70.5999 134.9 70.3999L135.6 70.1999V69.4999C135.6 69.4999 135.6 69.2999 135.6 68.8999C135.6 68.5999 135.6 68.1999 135.5 67.8999C135.5 67.4999 135.5 66.9999 135.5 66.5999C135.5 66.1999 135.5 65.7999 135.5 65.4999V58.3999C135.5 56.6999 135.5 55.1999 135.5 53.9999C135.5 52.6999 135.6 51.4999 135.6 50.5999C135.6 49.5999 135.7 48.6999 135.7 47.8999C135.7 47.0999 135.8 46.3999 135.8 45.6999C135.8 45.2999 135.8 44.3999 135.2 43.8999Z" fill="#E2211C"/>
<path d="M156.7 51.4001C157.3 50.6001 158 49.9001 158.6 49.2001C159.3 48.5001 160 47.7001 160.8 46.9001L161.5 46.2001L160.8 45.5001C160.6 45.3001 160.4 45.1001 160.2 44.9001L159.7 44.5001C159.5 44.3001 159.2 44.1001 159 43.9001C158 43.1001 157 43.1001 156.5 43.3001C155.7 43.5001 155 44.0001 154.3 44.9001C153.8 45.6001 153.2 46.3001 152.7 47.0001C152.2 47.8001 151.6 48.6001 151.1 49.4001C150.6 50.2001 150 51.1001 149.5 52.0001C149.1 52.7001 148.7 53.4001 148.3 54.1001C148 54.1001 147.7 54.1001 147.4 54.1001C147.1 54.1001 146.8 54.1001 146.5 54.1001C146.5 53.2001 146.5 52.3001 146.5 51.4001C146.5 50.3001 146.5 49.2001 146.6 48.3001C146.6 47.3001 146.6 46.3001 146.7 45.4001C146.7 44.4001 146.1 43.4001 144.4 43.4001C143.9 43.4001 143.4 43.4001 143 43.5001C142.5 43.6001 142.1 43.6001 141.7 43.7001C141.3 43.8001 140.8 43.9001 140.4 44.0001L139.4 44.3001L139.7 45.3001C139.8 45.6001 139.9 45.9001 140 46.2001C140.1 46.4001 140.2 46.7001 140.2 47.1001C140.3 47.4001 140.3 47.7001 140.4 48.0001C140.4 48.4001 140.5 48.8001 140.5 49.3001C140.5 50.7001 140.5 52.2001 140.5 53.8001C140.5 55.4001 140.5 56.9001 140.5 58.6001L140.4 63.4001C140.4 65.0001 140.4 66.5001 140.4 67.9001C140.4 69.0001 140.6 69.7001 141 70.2001C141.4 70.7001 142.2 70.9001 143.2 70.9001C143.6 70.9001 144 70.9001 144.5 70.8001C145 70.7001 145.5 70.7001 146 70.6001L147 70.4001L146.8 69.4001C146.7 69.1001 146.7 68.9001 146.6 68.6001C146.6 68.4001 146.5 68.1001 146.5 67.8001C146.5 67.5001 146.5 67.2001 146.5 66.9001V63.1001C146.5 61.8001 146.5 60.5001 146.5 59.1001C146.7 59.1001 146.8 59.1001 146.9 59.1001C147.3 59.1001 147.6 59.2001 147.9 59.2001C148.1 59.2001 148.3 59.3001 148.5 59.4001C148.7 59.5001 148.9 59.6001 149.1 59.7001C149.6 60.1001 150.1 60.8001 150.5 61.8001C151.1 62.9001 151.7 64.3001 152.5 65.8001C153 66.7001 153.4 67.5001 153.7 68.1001C154.1 68.7001 154.5 69.3001 154.9 69.7001C155.3 70.1001 155.8 70.5001 156.4 70.7001C156.9 70.9001 157.5 71.0001 158.2 71.0001C159.2 71.0001 160 70.7001 160.5 70.2001C161 69.7001 161.2 68.9001 161.2 67.9001C161.2 67.6001 161.2 67.3001 161.2 67.0001C161.2 66.8001 161.2 66.5001 161.1 66.4001C161.1 66.2001 161.1 65.9001 161 65.7001L160.9 64.8001H160C159.7 64.8001 159.4 64.8001 159.2 64.7001C159.1 64.7001 159 64.6001 159 64.6001C158.8 64.5001 158.7 64.3001 158.5 64.1001C158.3 63.8001 158.1 63.4001 157.9 62.9001C157.3 61.7001 156.8 60.8001 156.4 60.0001C155.9 59.2001 155.5 58.4001 155.1 57.9001C154.7 57.3001 154.3 56.8001 153.9 56.4001C153.8 56.2001 153.6 56.1001 153.5 56.0001C154 55.2001 154.5 54.5001 155 53.8001C155.5 53.0001 156.1 52.2001 156.7 51.4001Z" fill="#E2211C"/>
<path d="M185.2 68.0999L185.1 66.9C185.1 66.5 185.1 66.2 185.1 65.9C185.1 64.4 185 62.9 185 61.2V56C185 55.2 185 54.3 185 53.4L185.1 50.5C185.1 49.5 185.2 48.5999 185.2 47.7999C185.2 46.8999 185.2 46.1999 185.2 45.5999C185.2 44.7999 185 44.2 184.6 43.9C184 43.3 182.9 43.3 181.3 43.5C180.7 43.6 180.1 43.6 179.5 43.7L179.1 43.7999L178.9 44.0999C178.2 45.1999 177.3 46.5 176.3 48C175.3 49.5 174.3 51.1 173.2 52.7C172.1 54.3 171.1 56 170 57.7C169.7 58.2 169.4 58.7 169.1 59.2C169.1 58.9 169.1 58.6 169.1 58.2C169.1 57.6 169.1 56.8999 169.2 56.0999L169.3 52.9C169.3 51.8 169.3 50.6999 169.3 49.7999C169.3 48.7999 169.3 47.8999 169.3 47.0999C169.3 46.2999 169.3 45.6 169.3 45C169.3 44.6 169.1 43.2 167 43.2C166.4 43.2 165.8 43.1999 165.3 43.2999C164.7 43.3999 164.1 43.5 163.4 43.7L162.5 43.9L162.7 44.7999C162.8 45.1999 162.8 45.5 162.9 45.9C163 46.2 163 46.4 163.1 46.7C163.1 47 163.2 47.3 163.2 47.7C163.2 48 163.2 48.5 163.2 49C163.2 50 163.2 51.0999 163.2 52.2999V55.9C163.2 57.1 163.2 58.2999 163.2 59.5999C163.2 60.7999 163.2 61.9999 163.2 63.0999C163.2 64.0999 163.2 65.1 163.2 65.9V68.6999V68.8C163.2 69.2 163.3 69.5 163.6 69.9C163.8 70.2 164.1 70.4999 164.5 70.5999C165.1 70.8999 166 70.9 167.1 70.8C167.6 70.8 168.1 70.6999 168.6 70.5999L169.1 70.5L169.3 70.0999C169.5 69.6999 169.8 68.9999 170.3 68.1999C170.8 67.3999 171.3 66.4 172 65.3C172.6 64.2 173.3 63.0999 174.1 61.7999C174.9 60.4999 175.7 59.3 176.5 58C177.3 56.7 178.1 55.3999 178.9 54.0999C179 53.8999 179.2 53.7 179.3 53.4C179.3 54 179.3 54.6 179.3 55.2C179.3 56.1 179.3 56.8999 179.3 57.7999V60L179.2 62.5999C179.2 63.3999 179.2 64.2 179.2 65C179.2 65.7 179.2 66.4 179.2 67V68.3C179.2 69.2 179.4 69.8 179.9 70.3C180.3 70.6 180.9 70.8 181.8 70.8C182.2 70.8 182.6 70.7999 183.1 70.6999C183.7 70.5999 184.3 70.5 184.9 70.3L185.6 70L185.5 69.1999C185.3 68.9999 185.2 68.5999 185.2 68.0999Z" fill="#E2211C"/>
<path d="M213.8 58.5001C213.8 59.1001 213.8 59.8001 213.8 60.7001C213.8 60.9001 213.8 61.1001 213.8 61.3001L203.7 43.1001H198.5V70.8001H203.3V55.6001C203.3 54.9001 203.3 54.2001 203.2 53.3001C203.2 53.0001 203.2 52.8001 203.2 52.5001L213.4 70.8001H218.5V43.1001H213.7V58.5001H213.8Z" fill="#E2211C"/>
<path d="M231.4 66.3H220.1V70.8H231.4V66.3Z" fill="#E2211C"/>
<path d="M229 52.5999C228.1 51.9999 227 51.7 225.8 51.7C223.8 51.7 222.2 52.2999 221.1 53.5999C220 54.7999 219.4 56.5999 219.4 58.7999C219.4 60.2999 219.7 61.4999 220.2 62.5999C220.7 63.6999 221.5 64.4999 222.5 65.0999C223.5 65.5999 224.6 65.9 225.8 65.9C227.8 65.9 229.4 65.3 230.5 64C231.7 62.8 232.2 60.9999 232.2 58.7999C232.2 57.2999 231.9 56 231.4 55C230.8 54 230 53.1999 229 52.5999ZM227.7 58.9C227.7 60 227.5 60.8 227.2 61.4C227 61.6 226.7 62 225.8 62C224.8 62 224.5 61.7 224.3 61.4C224 60.9 223.8 60 223.8 58.9C223.8 57.5 224.1 56.9 224.3 56.5C224.5 56.3 224.8 55.9 225.8 55.9C226.9 55.9 227.2 56.3 227.3 56.5C227.4 56.8 227.7 57.5 227.7 58.9Z" fill="#E2211C"/>
<path d="M247.3 65.5L244.2 65.6V49.9C244.2 48.8 244.2 47.8 244.2 46.9C244.2 46.3 244 45.9 243.8 45.6C243.3 45 242.5 45 242.2 45H241L240.8 45.2C240.2 45.6 239.6 45.9 239.2 46.2C238.7 46.5 238.2 46.7 237.8 46.9C237.4 47.1 236.9 47.3 236.4 47.4C236 47.6 235.5 47.7 234.9 47.9L234.3 48.1L234.2 49C234.2 49.2 234.1 49.4 234.1 49.7C234.1 49.9 234.1 50.2 234 50.6V51.3C234 51.9 234.2 52.4 234.5 52.8C234.9 53.2 235.4 53.3 236.1 53.3C236.8 53.3 237.6 53.2 238.3 52.9C238.3 54.9 238.3 56.9 238.3 59C238.3 61.2 238.3 63.3 238.3 65.5C238.2 65.5 238 65.5 237.9 65.5H236.8C235.8 65.5 235.1 65.8 234.7 66.4C234.4 66.8 234.3 67.4 234.3 68.3V68.9V69C234.3 69.2 234.3 69.4 234.4 69.5C234.4 69.7 234.5 69.9 234.5 70L234.6 70.8H238.6C239.4 70.8 240.2 70.8 240.9 70.8H243C243.7 70.8 244.4 70.8 245.2 70.8C245.6 70.8 246.7 70.8 247.2 70C247.5 69.6 247.6 69.1 247.6 68.5C247.6 68.3 247.6 68 247.6 67.7L247.3 65.5Z" fill="#E2211C"/>
<path d="M259.3 45.4L259.2 45.1C259.1 45 259.1 44.9 259 44.8L258.6 44.1L257.8 44.4C257.5 44.5 257 44.7 256.4 44.9C256.2 45 255.9 45.1 255.7 45.1C255.7 45 255.7 45 255.7 44.9C255.7 44.4 255.7 43.8 255.7 43.3C255.7 42.6 255.4 42.1 254.8 41.8C254.3 41.6 253.7 41.5 253 41.6C252.8 41.6 252.7 41.7 252.6 41.7L251.7 41.9L251.8 42.8C251.8 43.4 251.9 44 251.9 44.6C251.9 44.7 251.9 44.9 251.9 45C251.7 44.9 251.5 44.9 251.3 44.8C250.3 44.5 250 44.4 249.7 44.4C249.2 44.4 248.7 44.6 248.4 45C248.2 45.2 248.1 45.5 248 45.8C247.9 46 247.9 46.1 247.9 46.3C247.9 46.4 247.9 46.6 247.9 46.7C247.9 46.9 247.9 47.2 247.9 47.4L248 48L248.4 48.2C248.9 48.4 249.5 48.6 250.2 48.8C250.3 48.8 250.4 48.9 250.6 48.9C250.4 49.1 250.3 49.3 250.2 49.5C250 49.8 249.8 50.1 249.6 50.4C249.4 50.8 249.3 51.1 249.3 51.4C249.3 51.8 249.4 52.5 250.2 53C250.6 53.3 251 53.4 251.5 53.5L252.2 53.6L252.5 52.9C252.6 52.8 252.7 52.6 252.8 52.4C253 52.1 253.1 51.9 253.3 51.6L253.6 51.1C253.7 51.3 253.9 51.5 254 51.7C254.2 52 254.5 52.3 254.8 52.6C255.7 53.4 256.8 53.3 257.5 52.6L258.8 51.3L258.2 50.6C257.9 50.2 257.5 49.8 257 49.2C256.9 49.1 256.8 49 256.7 48.9C257.1 48.8 257.4 48.7 257.7 48.6C259.2 48.2 259.4 47.2 259.4 46.7C259.4 46.4 259.3 46.1 259.2 45.9C259.4 45.7 259.3 45.6 259.3 45.4Z" fill="#E2211C"/>
</g>
<defs>
<clipPath id="clip0_576_78">
<rect width="272" height="71.1" fill="white"/>
</clipPath>
</defs>
</svg>
