<svg width="280" height="46" viewBox="0 0 280 46" fill="none" xmlns="http://www.w3.org/2000/svg">
<path d="M22.5 5.00002C22.5 4.70002 22.5 4.30002 22.5 3.70002C22.5 3.10002 22.4 2.30002 22.2 1.50002L22 0.400024L20.9 0.700024C19.4 1.10002 17.1 1.20002 13.7 1.10002C12.8 1.10002 11.8 1.10002 10.8 1.10002L7.8 1.00002C5.4 0.900024 3 0.900024 1.1 1.20002L0 1.50002L0.3 2.60002C0.8 4.20002 1.1 6.00002 1.3 8.10002C1.5 10.2 1.6 12.6 1.6 15.2C1.6 18.5 1.5 21.8 1.4 25C1.3 28.2 1.2 31.4 1.2 34.5C1.2 35.6 1.5 36.3 2.2 36.7C2.7 36.9 3.3 37 4.2 37C4.7 37 5.4 37 6.1 36.9C6.9 36.8 7.6 36.8 8.3 36.7L9.3 36.5L9.1 35.5C9.1 34.9 9 34.2 9 33.5C8.9 32.9 8.9 32.1 8.8 31.3C8.8 30.4 8.8 29.4 8.8 28.3C8.8 26.4 8.8 24.5 8.8 22.4C8.8 20.3 8.8 18.3 8.8 16.6V10.8C8.8 9.70002 8.8 8.70002 8.8 7.90002C10.2 7.90002 11.5 8.00002 12.9 8.10002C14.6 8.20002 16.2 8.20002 17.8 8.20002C19.5 8.20002 20.6 8.00002 21.3 7.60002C21.8 7.20002 22.5 6.50002 22.5 5.00002Z" fill="#E2211C"/>
<path d="M53.4 38.2C53.4 36.6 53.4 34.9 53.4 33.1C53.4 32.4 53.2999 31.9 53.0999 31.5C52.8999 31.2 52.6 30.7 51.9 30.4C51.5 30.2 50.8999 30.2 50.2999 30.1C50 30.1 49.6 30.1 49.2 30.1C49.2 29.3 49.0999 28.1 49.0999 26.7C49.0999 24.6 49.0999 21.9 49.0999 18.7C49.0999 16.4 49.1 14.4 49.2 12.7C49.3 11 49.4 9.49996 49.5 8.39996C49.6 7.19996 49.7 6.29996 49.7 5.59996C49.8 4.79996 49.9 4.29996 49.9 3.89996C49.9 3.49996 49.8 3.09996 49.7 2.69996C49.6 2.29996 49.2999 1.89996 48.7999 1.49996C48.4 1.19996 47.9 0.999962 47.2 0.899962C46.6 0.799962 45.9 0.699962 44.9 0.699962C44.1 0.699962 43.3 0.599962 42.2 0.699962C41.2 0.699962 40 0.699962 38.7 0.699962C37.4 0.699962 35.8999 0.699962 34.0999 0.699962C32.3999 0.699962 30.4 0.799962 28.2999 0.899962L27.1 0.999962L27.4 2.19996C27.9 4.19996 28 6.09996 28 7.79996C27.8 10.8 27.6 13.6 27.2 16C26.9 18.3 26.4999 20.5 25.9 22.3C25.4 24.1 24.8 25.7 24.1 27C23.5 28.2 22.8 29.3 22 30.2C20.9 30.3 20.1 30.6 19.6 31C19 31.5 18.7 32.3 18.7 33.5V38.1C18.7 39 18.7 39.8 18.7 40.6C18.7 41.4 18.7999 42.1 18.7999 42.6C18.8999 43.4 19.1 44 19.4 44.3C20 45.1 21.2 45.1 21.5 45.1C22.2 45.1 22.7999 45 23.2999 44.9C23.7999 44.8 24.3 44.7 24.7 44.6C25.1 44.5 25.4999 44.3 25.9 44.1L26.6 43.7L26.4 42.9C26.2 42.4 26.1 41.7 26 41C25.9 40.4 25.8 39.6 25.7 38.7C25.6 38.1 25.6 37.4 25.6 36.6C26.1 36.6 26.6999 36.5 27.2999 36.5C28.2999 36.5 29.2999 36.5 30.2999 36.5C31.2999 36.5 32.4 36.5 33.4 36.5C34.4 36.5 35.4 36.5 36.4 36.5H39C40 36.5 41 36.5 42 36.5C43 36.5 43.9 36.5 44.9 36.5C45.4 36.5 45.9 36.5 46.4 36.5L46.2 39V41.5C46.2 42.1 46.1999 42.6 46.2999 42.9C46.4 43.4 46.6 43.9 46.9 44.2C47.2 44.5 47.6999 44.8 48.0999 44.8C48.4999 44.9 49.0999 45 49.7999 45C50.6999 45 51.7 44.8 53 44.5L53.7999 44.3L53.7 43.4C53.5 41.7 53.4 39.8 53.4 38.2ZM41.5999 30C40.8999 30 40.1999 30 39.5999 30H36.7999C35.4 30 33.9 30 32.4 30C31.6 30 30.7 30 29.9 30C30.2999 29.3 30.7 28.6 31 27.8C31.6 26.4 32.2 24.7 32.7 22.7C33.2 20.7 33.6 18.4 33.9 15.8C34.2 13.4 34.3999 10.5 34.5999 7.39996C35.8999 7.29996 37.2 7.29996 38.5 7.29996C39.7 7.29996 40.8 7.29996 41.9 7.39996C41.8 10.1 41.6999 12.5 41.5999 14.6C41.4999 17 41.5 19.4 41.5 21.7V26C41.6 27.4 41.5999 28.7 41.5999 30Z" fill="#E2211C"/>
<path d="M80.1999 30.7999C80.0999 30.4 80.1 30.0999 80 29.7999L79.8 28.7999L78.8 29.1C77.6 29.4 76.4 29.6999 75.3 29.7999C74.2 30 72.9 30 71.4 30C70.7 30 69.8 30 69 30H64.9C64.9 28.4 65 26.7999 65 25.5L65.0999 21.5C65.5999 21.5 66.0999 21.6 66.5999 21.7L69.4 21.9C70.3 21.9 71.1 22 71.9 22C72.7 22 73.3999 22 74.0999 22C75.2999 22 76.2 21.7 76.8 21.2C77.4 20.6 77.6999 19.7 77.6999 18.5C77.6999 18.2 77.6999 17.9 77.5999 17.5C77.5999 17.2 77.5 16.9 77.5 16.7C77.5 16.4 77.4 16.1 77.4 15.9L77.3 14.9L76.3 15.1C76 15.2 75.6 15.2 75.3 15.2C75 15.2 74.5999 15.3 74.1999 15.3H72.9C71.1 15.3 69.4999 15.3 68.0999 15.3C67.0999 15.3 66.0999 15.2 65.0999 15.2C65.0999 14.3 65.1 13.5 65 12.7C65 11.6 65 10.6 65 9.69995C65 8.99995 64.9 8.39995 64.9 7.79995C66.3 7.79995 67.6999 7.89995 69.0999 7.89995C70.8999 7.99995 72.4999 7.99995 74.0999 7.99995C75.8999 7.99995 76.9999 7.89995 77.6999 7.59995C77.9999 7.29995 78.9 6.59995 78.9 4.99995C78.9 4.79995 78.9 4.39995 78.9 3.79995C78.9 3.19995 78.7999 2.49995 78.5999 1.59995L78.4 0.699951L77.5 0.799951C76.6 0.899951 75.7 0.999951 74.8 1.09995C73.9 1.09995 72.7999 1.09995 71.5999 1.09995H69.1999C68.2999 1.09995 67.3 0.999951 66.5 1.09995C65.6 1.09995 64.7 1.09995 63.9 1.09995C63.1 1.09995 62.3 1.09995 61.7 1.09995C60.8 1.09995 59.9999 1.09995 59.2999 1.19995C58.4999 1.19995 57.8 1.29995 57.2 1.49995L56.2 1.69995L56.5 2.69995C56.6 3.09995 56.6999 3.49995 56.7999 3.89995V3.99995C56.8999 4.19995 57 4.59995 57 4.99995C57.1 5.39995 57.2 5.79995 57.2 6.29995C57.3 6.79995 57.3 7.39995 57.4 8.09995C57.5 9.29995 57.5 10.6 57.5 12.1C57.5 13.5 57.5 15 57.5 16.5C57.5 20.4 57.5 23.7999 57.5 26.7999C57.5 29.7999 57.4 32.5999 57.2 35.2999L57.0999 36.2999L58.0999 36.4C59.9999 36.6 62.1 36.7 64.3 36.7C66.5 36.7999 68.6 36.7999 70.5 36.7999C72.4 36.7999 73.9 36.7999 75 36.7999C76.2 36.7999 77.2 36.7 77.9 36.5C78.8 36.2999 79.3999 35.9 79.6999 35.4C79.9999 34.9 80.1999 34.3 80.1999 33.4C80.1999 32.9 80.1999 32.4 80.0999 32C80.2999 31.5 80.1999 31.1999 80.1999 30.7999Z" fill="#E2211C"/>
<path d="M152.1 1.29997C151.5 0.999968 150.7 0.899968 149.7 0.899968C149.2 0.899968 148.7 0.899968 148.4 0.999968C148 0.999968 147.6 1.09997 147.4 1.19997C147 1.29997 146.7 1.29997 146.4 1.39997L145.7 1.59997V2.29997C145.6 3.49997 145.4 4.99997 145.1 6.79997C144.8 8.59997 144.4 10.4 143.8 12.3C143.3 14.2 142.7 16 142 17.8C141.7 18.7 141.4 19.5 141 20.3C140.6 19.3 140.1 18.2 139.6 17.2C138.8 15.4 137.9 13.7 137 12C136.2 10.3 135.3 8.69997 134.5 7.29997C133.7 5.79997 132.9 4.49997 132.2 3.29997C131.7 2.49997 131.3 1.89997 130.9 1.59997C130.4 1.09997 129.7 0.799968 128.8 0.799968C128.2 0.799968 127.5 0.999968 126.8 1.29997C126.3 1.59997 125.8 1.89997 125.3 2.19997C124.8 2.59997 124.2 2.99997 123.7 3.39997L123.5 3.59997L123.4 3.49997C123.2 3.29997 122.9 2.99997 122.6 2.79997L121.9 2.19997C121.6 1.89997 121.3 1.59997 121 1.39997C120 0.599968 118.9 0.399968 117.9 0.599968C117 0.799968 116 1.49997 115.1 2.69997C114.4 3.49997 113.7 4.49997 113 5.49997C112.3 6.49997 111.6 7.59997 110.8 8.79997C110.1 9.89997 109.4 11.1 108.7 12.3C108.1 13.3 107.5 14.3 107 15.3C106.5 15.3 106.1 15.2 105.6 15.3C105.2 15.3 104.7 15.3 104.1 15.2C104.1 13.9 104.1 12.6 104.1 11.3C104.1 9.79997 104.2 8.39997 104.2 7.19997C104.2 5.79997 104.3 4.49997 104.3 3.29997C104.3 2.69997 104.1 0.899968 101.6 0.899968C100.9 0.899968 100.3 0.999968 99.7 1.09997C99.1 1.19997 98.5 1.29997 98 1.39997C97.4 1.49997 96.9 1.69997 96.3 1.79997L95.3 2.09997L95.6 3.09997C95.7 3.49997 95.9 3.89997 96 4.29997C96.1 4.59997 96.2 4.99997 96.3 5.49997C96.4 5.89997 96.5 6.29997 96.6 6.79997C96.7 7.29997 96.7 7.89997 96.7 8.59997C96.7 10.5 96.7 12.5 96.7 14.6C96.7 16.7 96.7 18.8 96.7 21L96.6 27.4C96.6 29.5 96.6 31.5 96.6 33.4C96.6 34.8 96.8 35.7 97.3 36.3C97.8 36.9 98.7 37.2 100 37.2C100.5 37.2 101.1 37.2 101.7 37.1C102.4 37 103 36.9 103.6 36.8L104.6 36.6L104.4 35.6C104.3 35.2 104.2 34.9 104.2 34.5C104.1 34.2 104.1 33.8 104.1 33.5C104.1 33.1 104.1 32.7 104.1 32.2V27.2C104.1 25.4 104.1 23.5 104.2 21.5C104.5 21.5 104.8 21.5 105.1 21.6C105.6 21.6 106.1 21.7 106.5 21.8C106.8 21.8 107.1 21.9 107.4 22.1C107.7 22.2 108 22.4 108.2 22.6C108.9 23.1 109.5 24.1 110.2 25.5C110.9 27 111.8 28.8 112.8 30.8C113.4 32 114 33.1 114.4 33.9C114.9 34.7 115.4 35.4 115.9 36C116.5 36.6 117.1 37 117.8 37.2C118.5 37.4 119.2 37.5 120.1 37.5C121.4 37.5 122.3 37.2 122.9 36.6C123.5 36 123.8 35 123.8 33.8C123.8 33.4 123.8 33 123.7 32.7C123.7 32.4 123.6 32.1 123.6 31.8C123.6 31.5 123.5 31.2 123.5 30.9L123.4 30H122.5C122 30 121.7 30 121.4 29.9C121.2 29.9 121 29.8 120.9 29.7C120.7 29.5 120.4 29.2 120.2 28.9C120 28.5 119.7 28 119.3 27.2C118.5 25.7 117.8 24.3 117.3 23.3C116.7 22.2 116.1 21.2 115.6 20.5C115.1 19.7 114.6 19.1 114.1 18.5C113.8 18.2 113.6 18 113.3 17.8C114 16.7 114.7 15.6 115.4 14.7C116.2 13.5 117 12.4 117.9 11.4C118.7 10.4 119.6 9.39997 120.5 8.39997C121.4 7.39997 122.4 6.39997 123.5 5.39997L123.6 5.29997C126.1 8.69997 128.4 12.4 130.6 16.3C132.8 20.1 134.8 24.1 136.6 28.4C135.6 29.6 134.4 30.2 133 30.2C132.6 30.2 132.1 30.2 131.8 30.1C131.5 30 131.1 29.9 130.6 29.6L129.7 29.1L129.2 30C128.8 30.7 128.5 31.4 128.3 32.1C128 32.8 127.9 33.6 127.9 34.3C127.9 36.2 129 37 129.6 37.2C130.5 37.6 131.6 37.8 132.9 37.8C134.4 37.8 135.9 37.4 137.2 36.7C138.5 36 139.6 35 140.7 33.7C141.8 32.4 142.9 30.9 143.9 29.1C144.9 27.3 145.9 25.3 147 23C147.4 22.1 147.9 21 148.4 19.8C148.9 18.6 149.4 17.4 149.8 16.2C150.3 14.9 150.7 13.7 151.1 12.5C151.5 11.3 151.9 10.1 152.2 9.09997C152.5 7.99997 152.8 6.99997 152.9 6.19997C153.1 5.29997 153.2 4.59997 153.2 4.09997C153.4 2.09997 152.6 1.49997 152.1 1.29997Z" fill="#E2211C"/>
<path d="M184.7 1.7C184.2 1.4 183.6 1.2 182.8 1.2C181.7 1.1 180.7 1.1 179.8 1.1L177.1 1C176.2 1 175.3 1 174.3 1H171.2C168.8 1 166.6 1 164.5 1C162.4 1 160.2 1.1 157.9 1.3L156.7 1.4L157 2.6C157.2 3.4 157.5 4.3 157.7 5.3C157.9 6.2 158 7.2 158.1 8.4C158.1 8.9 158.1 10.1 158.1 11.8V17.9C158.1 19.5 158.1 21.1 158 22.7C158 24.3 157.9 25.8 157.8 27.3C157.7 28.7 157.7 30 157.6 31.2C157.6 32.3 157.6 33.2 157.6 33.7C157.6 35 157.8 35.7 158.2 36.2C158.7 36.7 159.5 37 160.7 37C161.2 37 161.8 37 162.6 36.9C163.4 36.8 164.1 36.7 164.7 36.6L165.6 36.4L165.4 35.5C165.3 35.1 165.3 34.7 165.2 34.2C165.1 33.8 165.1 33.4 165.1 32.9C165.1 32.4 165.1 31.8 165.1 31.2C165.1 26.9 165.2 22.7 165.3 18.8C165.4 15.1 165.6 11.4 165.7 7.8C166.3 7.8 166.9 7.8 167.7 7.8H173.1C173.8 7.8 174.5 7.8 175.2 7.8C175.9 7.8 176.6 7.8 177.2 7.8C177.5 7.8 177.8 7.8 178.1 7.8C178.1 9.4 178.1 11.2 178 13.2C178 15.6 177.9 18.1 177.8 20.8L177.6 28.5C177.6 31 177.6 33.2 177.6 35C177.6 35.9 178 36.3 178.3 36.6C178.7 36.9 179.4 37 180.5 37C181 37 181.6 37 182.4 36.9C183.2 36.8 184.1 36.7 184.9 36.4L185.7 36.1L185.6 35.3C185.6 35 185.5 34.6 185.4 34.2C185.3 33.9 185.3 33.5 185.3 32.9C185.3 32.3 185.2 31.6 185.2 30.7C185.1 28.8 185.1 26.7 185.1 24.5C185.1 22.2 185.2 19.9 185.2 17.7C185.2 16.7 185.3 15.5 185.3 14.2L185.5 10.1C185.6 8.7 185.6 7.5 185.6 6.4C185.7 5.3 185.7 4.4 185.7 3.9C185.6 2.8 185.3 2.1 184.7 1.7Z" fill="#E2211C"/>
<path d="M220.6 33.5L220.5 32C220.5 31.5 220.5 31 220.5 30.6C220.4 28.7 220.4 26.6 220.4 24.3V17.4C220.4 16.4 220.4 15.2 220.4 13.9L220.5 9.99995C220.6 8.69995 220.6 7.49995 220.6 6.39995C220.6 5.19995 220.6 4.29995 220.6 3.49995C220.6 2.49995 220.4 1.89995 219.9 1.49995C219.2 0.799953 217.8 0.799953 215.8 0.999953C215 1.09995 214.2 1.19995 213.5 1.29995L213.1 1.39995L212.9 1.69995C211.9 3.19995 210.8 4.89995 209.4 6.89995C208.1 8.89995 206.7 11 205.3 13.2C203.9 15.4 202.5 17.6 201.1 19.9C200.4 21 199.8 22 199.2 23V22.6C199.2 21.9 199.2 21.2 199.2 20.4C199.2 19.6 199.3 18.6 199.3 17.6L199.4 13.3C199.4 11.8 199.4 10.4 199.4 9.19995C199.4 7.89995 199.4 6.69995 199.4 5.69995C199.4 4.59995 199.4 3.69995 199.4 2.89995C199.4 2.39995 199.2 0.899953 196.7 0.899953C195.9 0.899953 195.1 0.999953 194.4 0.999953C193.6 1.09995 192.8 1.19995 191.9 1.49995L191 1.69995L191.2 2.59995C191.3 3.09995 191.4 3.49995 191.5 3.99995C191.6 4.39995 191.7 4.69995 191.7 5.09995C191.8 5.49995 191.8 5.89995 191.8 6.39995C191.8 6.89995 191.8 7.39995 191.8 8.09995C191.8 9.39995 191.8 10.9 191.8 12.5V17.3C191.8 18.9 191.8 20.6 191.8 22.2C191.8 23.8 191.8 25.4 191.8 26.8C191.8 28.2 191.8 29.5 191.8 30.6V34.4C191.8 34.9 192 35.3 192.2 35.7C192.5 36.1 192.8 36.4 193.3 36.6C194 36.9 195.2 36.9 196.6 36.8C197.3 36.8 198 36.7 198.6 36.5L199.1 36.4L199.3 36C199.6 35.4 200 34.6 200.6 33.5C201.2 32.4 202 31.1 202.8 29.7C203.6 28.3 204.6 26.7 205.6 25C206.6 23.3 207.7 21.6 208.8 19.9C209.9 18.1 211 16.4 212.1 14.7C212.5 14.1 212.9 13.5 213.3 12.9C213.3 14.1 213.3 15.3 213.3 16.5C213.3 17.7 213.3 18.8 213.3 20V23L213.2 26.5C213.2 27.6 213.2 28.7 213.2 29.7C213.2 30.6 213.2 31.5 213.2 32.3V34C213.2 35.1 213.5 35.8 214.1 36.4C214.6 36.8 215.4 37 216.5 37C217 37 217.6 37 218.2 36.9C219 36.8 219.7 36.6 220.5 36.4L221.2 36.1L221.1 35.3C220.7 34.6 220.6 34.1 220.6 33.5Z" fill="#E2211C"/>
<path d="M251.2 2.4L251 0L249.8 0.4C248.8 0.7 247.3 1 245.5 1C243.6 1.1 241.2 1.1 238.4 1.1H235.5L232.3 1C231.3 1 230.3 0.9 229.3 1C228.3 1 227.4 1 226.6 1C225.6 1 224.8 1.3 224.3 1.8C223.9 2.3 223.7 3 223.7 3.9V4.8L224 7.6L224.8 7.7C225.3 7.8 225.9 7.8 226.7 7.9C227.4 8 228.2 8 229.2 8.1L233.8 8.3C233.8 9.8 233.8 11.5 233.7 13.3L233.5 26.4C233.5 28.5 233.5 30.3 233.5 31.9C233.5 32.6 233.5 33.2 233.6 33.9C233.7 34.6 233.8 35 233.9 35.4V35.5C234.1 36 234.5 36.4 234.9 36.7L235 36.8C235.5 37 236.1 37.1 237.1 37.1C237.6 37.1 238.2 37.1 238.8 37C239.6 37 240.2 36.9 240.9 36.7L241.8 36.5L241.7 35.6C241.6 35.2 241.6 34.8 241.5 34.4C241.4 34.1 241.4 33.7 241.4 33.3C241.4 32.9 241.4 32.5 241.4 32.1C241.4 31.5 241.4 30.7 241.4 29.8C241.4 28.8 241.4 27.9 241.4 26.9V22C241.4 19.8 241.4 17.4 241.4 15C241.4 12.8 241.4 10.6 241.4 8.5H245C245.7 8.5 246.4 8.4 247 8.4C247.6 8.4 248.2 8.3 248.6 8.3C249.4 8.2 250.5 8 251 7.1C251.3 6.6 251.5 5.8 251.5 4.9C251.5 4.5 251.5 4.1 251.4 3.7C251.2 3.1 251.2 2.7 251.2 2.4Z" fill="#E2211C"/>
<path d="M279.1 19.9C278.5 18.5 277.6 17.3 276.5 16.4C275.4 15.5 274.2 14.8 272.7 14.3C271.3 13.9 269.7 13.6 268 13.6C266.6 13.6 265.3 13.7 264.1 13.9C263.4 14 262.7 14.1 262 14.3C262 12.4 262 10.6 262 9.10003C262 7.20003 262 5.60003 261.9 4.20003C261.9 3.70003 261.8 3.30003 261.8 3.00003C261.8 2.50003 261.6 2.10003 261.4 1.80003C261.2 1.40003 260.9 1.10003 260.5 1.00003C259.7 0.600032 258.4 0.700032 256.8 1.00003C255.9 1.10003 255 1.30003 254 1.60003L253 1.90003L253.3 2.90003C253.4 3.30003 253.5 3.70003 253.6 4.10003V4.20003C253.7 4.50003 253.8 4.80003 253.9 5.20003C254 5.60003 254.1 6.00003 254.1 6.50003C254.2 6.90003 254.3 7.50003 254.3 8.20003C254.4 8.90003 254.5 9.70003 254.5 10.5C254.6 11.4 254.6 12.2 254.6 13.1C254.6 14 254.6 14.9 254.6 15.9C254.6 16.8 254.6 17.7 254.6 18.5C254.6 21 254.5 23.7 254.4 26.4C254.3 29.1 254.1 31.8 254 34.3V35.1L254.7 35.4C255.5 35.7 256.5 36 257.6 36.2C258.5 36.4 259.5 36.6 260.8 36.7C262 36.8 263.4 36.9 264.9 36.9C267.1 36.9 269 36.7 270.8 36.2C272.6 35.8 274.3 35 275.6 34.1C276.9 33.1 278 31.8 278.7 30.2C279.4 28.6 279.8 26.7 279.8 24.6C280 22.8 279.7 21.2 279.1 19.9ZM272.3 25.1C272.3 26 272.1 26.8 271.8 27.5C271.5 28.1 271.1 28.6 270.5 29.1C269.9 29.5 269.2 29.9 268.4 30.1C267.6 30.3 266.6 30.4 265.5 30.4C264.8 30.4 264.1 30.4 263.5 30.3C263 30.2 262.5 30.2 262 30.1C261.9 30.1 261.7 30 261.6 30C261.7 29.2 261.7 28.3 261.8 27.4C261.9 26.4 261.9 25.2 261.9 24L262 21C262.5 20.9 263 20.8 263.6 20.7C264.5 20.5 265.5 20.4 266.8 20.4C268.6 20.4 270 20.8 270.9 21.6C271.9 22.3 272.3 23.4 272.3 25.1Z" fill="#E2211C"/>
</svg>
