<svg width="188" height="31" viewBox="0 0 188 31" fill="none" xmlns="http://www.w3.org/2000/svg">
<path d="M15.8 3.79999C15.8 3.59999 15.8 3.29999 15.8 2.89999C15.8 2.49999 15.7 1.99999 15.6 1.39999L15.4 0.299988L14.3 0.599988C13.4 0.899988 11.8 0.899988 9.6 0.899988C9 0.899988 8.3 0.899988 7.7 0.899988L5.7 0.799988C4 0.699988 2.4 0.699988 1.1 0.999988L0 1.19999L0.3 2.29999C0.6 3.29999 0.8 4.49999 0.9 5.89999C1 7.29999 1.1 8.89999 1.1 10.6C1.1 12.8 1.1 15 1 17.1C0.9 19.3 0.9 21.4 0.9 23.5C0.9 24.6 1.4 25.1 1.8 25.3C2.2 25.5 2.6 25.6 3.3 25.6C3.6 25.6 4.1 25.6 4.6 25.5C5.1 25.5 5.6 25.4 6.1 25.3L7 25L6.8 24C6.7 23.6 6.7 23.2 6.6 22.8C6.6 22.4 6.5 21.9 6.5 21.3C6.5 20.7 6.5 20.1 6.5 19.3C6.5 18.1 6.5 16.8 6.5 15.4C6.5 14 6.5 12.7 6.5 11.5V7.69999C6.5 7.09999 6.5 6.59999 6.5 6.09999C7.3 6.09999 8.1 6.19999 8.8 6.19999C9.9 6.29999 11 6.29999 12.1 6.29999C13.3 6.29999 14.1 6.19999 14.6 5.79999C15.1 5.59999 15.8 4.99999 15.8 3.79999Z" fill="#E2211C"/>
<path d="M36.3 25.9C36.3 24.8 36.3 23.7 36.3 22.5C36.3 22 36.2 21.6 36.1 21.3C36 21 35.7 20.6 35.1 20.4C34.8 20.3 34.4 20.2 33.9 20.2C33.8 20.2 33.6 20.2 33.4 20.2C33.4 19.7 33.4 19 33.4 18.2C33.4 16.8 33.4 15 33.4 12.9C33.4 11.4 33.4 10 33.5 8.90001C33.6 7.80001 33.6 6.80001 33.7 6.00001C33.8 5.20001 33.8 4.60001 33.9 4.20001C34 3.70001 34 3.30001 34 3.00001C34 2.70001 34 2.40001 33.9 2.10001C33.8 1.80001 33.6 1.40001 33.1 1.20001C32.8 1.00001 32.4 0.800012 31.9 0.800012C31.5 0.700012 31 0.700012 30.3 0.700012C29.8 0.700012 29.2 0.700012 28.5 0.700012C27.8 0.700012 27 0.700012 26.2 0.700012C25.3 0.700012 24.3 0.700012 23.1 0.700012C22 0.700012 20.7 0.800012 19.2 0.800012L18 0.900012L18.2 2.00001C18.5 3.30001 18.6 4.50001 18.6 5.70001C18.5 7.70001 18.3 9.50001 18.1 11.1C17.9 12.6 17.6 14 17.3 15.3C17 16.5 16.6 17.5 16.1 18.4C15.7 19.1 15.3 19.8 14.8 20.4C14.1 20.5 13.5 20.7 13.2 21C12.7 21.4 12.5 22 12.5 22.9V26C12.5 26.6 12.5 27.1 12.5 27.6C12.5 28.1 12.5 28.6 12.6 29C12.7 29.6 12.8 30.1 13 30.3C13.5 31 14.4 31 14.7 31C15.2 31 15.6 31 16 30.9C16.4 30.9 16.7 30.8 17 30.7C17.3 30.6 17.6 30.5 17.8 30.4L18.5 30L18.3 29.2C18.2 28.9 18.1 28.4 18 27.9C17.9 27.5 17.9 27 17.8 26.4C17.8 26.1 17.7 25.7 17.7 25.4C18 25.4 18.2 25.4 18.5 25.4C19.2 25.4 19.8 25.4 20.5 25.4C21.2 25.4 21.9 25.4 22.6 25.4C23.3 25.4 24 25.4 24.6 25.4H26.4C27.1 25.4 27.7 25.4 28.4 25.4C29 25.4 29.7 25.4 30.3 25.4C30.5 25.4 30.7 25.4 30.9 25.4V28.3C30.9 28.7 30.9 29 31 29.3C31.1 29.7 31.2 30 31.5 30.4C31.8 30.7 32.1 30.8 32.5 30.9C32.8 31 33.2 31 33.7 31C34.3 31 35 30.9 35.9 30.7L36.7 30.5L36.6 29.6C36.4 28.2 36.4 27 36.3 25.9ZM27.8 20.1C27.5 20.1 27.1 20.1 26.8 20.1H25C24.1 20.1 23.1 20.1 22.1 20.1C21.7 20.1 21.4 20.1 21 20.1C21.2 19.8 21.3 19.4 21.5 19.1C21.9 18.1 22.3 17 22.6 15.6C22.9 14.3 23.2 12.7 23.4 10.9C23.6 9.40001 23.7 7.60001 23.8 5.50001C24.6 5.50001 25.3 5.40001 26.1 5.50001C26.8 5.50001 27.4 5.50001 28 5.50001C27.9 7.10001 27.8 8.60001 27.8 10C27.8 11.6 27.7 13.2 27.7 14.8V17.7C27.8 18.6 27.8 19.4 27.8 20.1Z" fill="#E2211C"/>
<path d="M54.2 20.9C54.2 20.7 54.1 20.4 54.1 20.2L53.9 19.2L52.9 19.5C52.1 19.7 51.3 19.9 50.6 20C49.5 20.1 48.1 20.1 46.4 20.2H44C44 19.2 44 18.3 44 17.5V15.2C44.2 15.2 44.4 15.2 44.7 15.3L46.6 15.4L48.3 15.5C50 15.6 51.1 15.6 51.8 14.9C52.3 14.4 52.5 13.8 52.5 12.8C52.5 12.6 52.5 12.3 52.5 12.1L52.1 10L51.1 10.2C50.9 10.2 50.7 10.3 50.5 10.3C50.3 10.3 50 10.3 49.8 10.4H48.9C47.7 10.4 46.6 10.4 45.7 10.4C45.1 10.4 44.6 10.3 44 10.3V8.90001C44 8.10001 44 7.50001 44 6.90001C44 6.60001 44 6.30001 44 6.00001C44.8 6.00001 45.6 6.00001 46.4 6.10001C47.6 6.20001 48.7 6.20001 49.8 6.20001C51 6.20001 51.8 6.10001 52.3 5.90001C52.7 5.70001 53.5 5.20001 53.5 3.90001C53.5 3.70001 53.5 3.50001 53.5 3.10001C53.5 2.70001 53.4 2.20001 53.3 1.60001L53.1 0.700012H52C51.4 0.800012 50.8 0.800012 50.2 0.900012C49.6 0.900012 48.9 0.900012 48.1 0.900012H46.5C45.9 0.900012 45.3 0.900012 44.7 0.900012C44.1 0.900012 43.5 0.800012 42.9 0.900012C41.6 0.800012 40.6 0.900012 39.8 0.900012C39.3 0.900012 38.8 1.00001 38.4 1.10001L37.4 1.30001L37.7 2.30001C37.8 2.60001 37.9 2.90001 37.9 3.10001V3.20001C38 3.40001 38 3.60001 38.1 3.90001C38.2 4.10001 38.2 4.40001 38.2 4.80001C38.2 5.10001 38.3 5.50001 38.3 6.00001C38.3 6.80001 38.4 7.70001 38.4 8.60001C38.4 9.50001 38.4 10.5 38.4 11.5C38.4 14.1 38.4 16.4 38.4 18.4C38.4 20.4 38.3 22.3 38.2 24.1L38.1 25.1L39.1 25.2C40.4 25.3 41.8 25.4 43.3 25.4C44.8 25.5 46.2 25.5 47.5 25.5C48.7 25.5 49.8 25.5 50.5 25.5C51.3 25.5 52 25.4 52.5 25.3C53.2 25.1 53.7 24.8 53.9 24.4C54.2 24 54.3 23.5 54.3 22.9C54.3 22.5 54.3 22.2 54.2 21.9C54.3 21.4 54.3 21.2 54.2 20.9Z" fill="#E2211C"/>
<path d="M102 0.999972C101.6 0.799972 101 0.699971 100.3 0.699971C100 0.699971 99.6 0.699971 99.4 0.799971C99.1 0.799971 98.9 0.899971 98.7 0.899971C98.4 0.899971 98.2 0.999972 98 0.999972L97.3 1.19997V1.89997C97.3 2.69997 97.1 3.69997 96.9 4.89997C96.7 6.09997 96.4 7.29997 96.1 8.49997C95.8 9.69997 95.4 11 94.9 12.2C94.8 12.5 94.7 12.8 94.6 13.1C94.4 12.6 94.2 12.2 94 11.7C93.4 10.5 92.9 9.29997 92.3 8.19997C91.7 7.09997 91.2 5.99997 90.6 4.99997C90 3.99997 89.5 3.09997 89.1 2.39997C88.8 1.79997 88.5 1.39997 88.2 1.19997C87.5 0.499972 86.3 0.299972 85.1 0.999972C84.8 1.19997 84.4 1.39997 84.1 1.59997C83.8 1.79997 83.4 2.09997 83.1 2.39997C83 2.29997 82.9 2.19997 82.7 2.09997L82.3 1.69997C82.1 1.49997 81.9 1.29997 81.6 1.09997C80.6 0.399972 79.8 0.399971 79.3 0.499971C78.6 0.699971 77.9 1.19997 77.2 1.99997C76.7 2.59997 76.3 3.19997 75.8 3.89997C75.3 4.59997 74.8 5.29997 74.3 6.09997C73.8 6.89997 73.4 7.59997 72.9 8.39997C72.5 8.99997 72.2 9.59997 71.8 10.2C71.6 10.2 71.3 10.2 71 10.2C70.8 10.2 70.6 10.2 70.3 10.2C70.3 9.39997 70.3 8.69997 70.3 7.99997C70.3 6.99997 70.3 6.09997 70.4 5.29997L70.5 2.69997C70.5 1.79997 69.9 0.799971 68.3 0.799971C67.8 0.799971 67.4 0.799971 67 0.899971C66.6 0.899971 66.2 0.999972 65.8 1.09997C65.4 1.19997 65 1.29997 64.7 1.39997L63.7 1.69997L64 2.69997C64.1 2.99997 64.2 3.29997 64.3 3.49997C64.4 3.69997 64.4 3.89997 64.5 4.29997C64.6 4.49997 64.6 4.79997 64.7 5.09997C64.7 5.39997 64.8 5.79997 64.8 6.19997C64.8 7.49997 64.8 8.79997 64.8 10.2C64.8 11.6 64.8 13 64.8 14.4L64.7 18.7C64.7 20.1 64.7 21.4 64.7 22.7C64.7 23.7 64.9 24.4 65.3 24.8C65.7 25.3 66.4 25.5 67.4 25.5C67.7 25.5 68.1 25.5 68.6 25.4C69.1 25.4 69.5 25.3 69.9 25.2L70.9 25L70.7 24C70.6 23.8 70.6 23.5 70.6 23.3C70.6 23.1 70.5 22.9 70.5 22.6C70.5 22.3 70.5 22.1 70.5 21.8V18.4C70.5 17.3 70.5 16.2 70.5 15C70.6 15 70.7 15 70.8 15C71.1 15 71.4 15.1 71.7 15.1C71.9 15.1 72 15.2 72.2 15.2C72.4 15.3 72.6 15.4 72.7 15.5C73 15.7 73.4 16.2 73.9 17.3C74.4 18.3 75 19.5 75.7 20.8C76.1 21.6 76.5 22.3 76.8 22.9C77.1 23.5 77.5 24 77.9 24.4C78.3 24.8 78.8 25.1 79.3 25.3C79.8 25.5 80.3 25.5 80.9 25.5C81.9 25.5 82.6 25.3 83 24.8C83.5 24.3 83.7 23.6 83.7 22.7C83.7 22.4 83.7 22.2 83.7 21.9C83.7 21.7 83.7 21.5 83.6 21.3C83.6 21.1 83.6 20.9 83.5 20.7L83 19.8H82.1C81.8 19.8 81.6 19.8 81.4 19.8C81.3 19.8 81.3 19.8 81.2 19.7C81.1 19.6 80.9 19.4 80.8 19.3C80.7 19.1 80.5 18.7 80.2 18.2C79.7 17.2 79.2 16.3 78.8 15.6C78.4 14.8 78 14.2 77.7 13.7C77.4 13.2 77 12.7 76.7 12.3C76.6 12.2 76.5 12.1 76.4 12C76.8 11.3 77.2 10.7 77.6 10.2C78.1 9.39997 78.7 8.69997 79.2 7.99997C79.8 7.29997 80.3 6.69997 80.9 5.99997C81.5 5.39997 82 4.79997 82.7 4.19997C84.2 6.39997 85.7 8.69997 87.1 11.2C88.5 13.6 89.8 16.3 91 19C90.4 19.6 89.8 20 89 20C88.7 20 88.5 20 88.3 19.9C88.2 19.9 88 19.8 87.6 19.6L86.7 19.1L86.4 20C86.1 20.5 85.9 21 85.8 21.5C85.6 22 85.5 22.6 85.5 23C85.5 24.5 86.4 25.1 86.9 25.3C87.5 25.6 88.3 25.7 89.3 25.7C90.4 25.7 91.4 25.4 92.3 24.9C93.2 24.4 94 23.7 94.7 22.8C95.4 21.9 96.2 20.9 96.9 19.7C97.6 18.5 98.3 17.1 99 15.6C99.3 15 99.6 14.3 99.9 13.5C100.2 12.7 100.5 11.9 100.8 11.1C101.1 10.3 101.4 9.39997 101.6 8.59997C101.9 7.79997 102.1 6.99997 102.3 6.29997C102.5 5.49997 102.7 4.89997 102.8 4.39997C102.9 3.79997 103 3.29997 103 2.89997C103.1 1.59997 102.3 1.09997 102 0.999972Z" fill="#E2211C"/>
<path d="M124.2 9.90001L124.3 7.20001C124.3 6.30001 124.4 5.40001 124.4 4.70001C124.4 3.90001 124.5 3.40001 124.5 3.00001C124.5 2.00001 124.1 1.50001 123.8 1.30001C123.4 1.00001 123 0.900012 122.4 0.900012C121.7 0.900012 121 0.800012 120.4 0.800012L118.6 0.700012C118 0.700012 117.4 0.700012 116.7 0.700012H114.7C113.1 0.700012 111.6 0.700012 110.2 0.700012C108.8 0.700012 107.3 0.800012 105.7 0.900012L104.5 1.00001L104.8 2.20001C105 2.80001 105.1 3.30001 105.3 4.00001C105.4 4.60001 105.5 5.20001 105.5 6.00001C105.5 6.40001 105.5 7.10001 105.5 8.20001V12.3C105.5 13.4 105.5 14.4 105.4 15.5C105.4 16.6 105.3 17.6 105.3 18.5C105.3 19.5 105.2 20.3 105.2 21.1C105.2 21.9 105.2 22.4 105.2 22.8C105.2 23.7 105.4 24.3 105.7 24.7C106.2 25.3 107 25.3 107.6 25.3C107.9 25.3 108.3 25.3 108.9 25.2C109.4 25.2 109.9 25.1 110.3 25L111.2 24.8L111 23.9C111 23.7 110.9 23.4 110.9 23C110.9 22.8 110.8 22.5 110.8 22.1C110.8 21.8 110.8 21.4 110.8 21C110.8 18.1 110.8 15.4 110.9 12.7C111 10.3 111.1 8.00001 111.2 5.70001C111.5 5.70001 111.8 5.70001 112.2 5.70001H115.8C116.3 5.70001 116.7 5.70001 117.2 5.70001C117.7 5.70001 118.1 5.70001 118.5 5.70001C118.6 5.70001 118.7 5.70001 118.8 5.70001C118.8 6.70001 118.8 7.80001 118.7 9.00001C118.7 10.6 118.6 12.3 118.6 14L118.5 19.1C118.5 20.8 118.5 22.2 118.5 23.4C118.5 24.1 118.8 24.5 119.1 24.8C119.4 25 119.9 25.1 120.7 25.1C121 25.1 121.4 25.1 122 25C122.6 25 123.2 24.8 123.8 24.6L124.6 24.3L124.5 23.5C124.5 23.3 124.4 23 124.4 22.7C124.4 22.5 124.3 22.2 124.3 21.9C124.3 21.5 124.3 21 124.2 20.4C124.2 19.2 124.1 17.8 124.1 16.3C124.1 14.8 124.2 13.3 124.2 11.7C124.2 11.5 124.2 10.7 124.2 9.90001Z" fill="#E2211C"/>
<path d="M147.8 22.8L147.7 21.8C147.7 21.5 147.7 21.2 147.7 20.9C147.7 19.6 147.6 18.2 147.6 16.7V12.1C147.6 11.4 147.6 10.6 147.6 9.80001L147.7 7.20001C147.7 6.30001 147.8 5.50001 147.8 4.80001C147.8 4.00001 147.8 3.40001 147.8 2.90001C147.8 2.20001 147.6 1.60001 147.3 1.30001C146.7 0.700011 145.7 0.700011 144.3 0.900011C143.7 0.900011 143.2 1.00001 142.7 1.10001L142.3 1.20001L142.1 1.50001C141.4 2.50001 140.7 3.60001 139.8 5.00001C138.9 6.30001 138 7.70001 137 9.20001C136.1 10.7 135.1 12.1 134.2 13.7C134 14 133.8 14.4 133.6 14.7C133.6 14.6 133.6 14.4 133.6 14.3C133.6 13.8 133.6 13.1 133.7 12.4L133.8 9.50001C133.8 8.50001 133.8 7.60001 133.8 6.80001C133.8 5.90001 133.8 5.10001 133.8 4.40001C133.8 3.70001 133.8 3.00001 133.8 2.50001C133.8 2.20001 133.7 0.800011 131.7 0.800011C131.1 0.800011 130.6 0.800011 130.1 0.900011C129.6 0.900011 129 1.10001 128.4 1.20001L127.5 1.40001L127.7 2.30001C127.8 2.60001 127.8 2.90001 127.9 3.30001C128 3.50001 128 3.80001 128 4.00001C128 4.20001 128.1 4.50001 128.1 4.80001C128.1 5.10001 128.1 5.50001 128.1 5.90001C128.1 6.80001 128.1 7.70001 128.1 8.80001V12C128.1 13.1 128.1 14.2 128.1 15.2C128.1 16.3 128.1 17.3 128.1 18.3C128.1 19.2 128.1 20.1 128.1 20.8V23.4C128.1 23.8 128.2 24.1 128.4 24.4C128.6 24.7 128.9 24.9 129.3 25.1C129.8 25.3 130.7 25.4 131.6 25.2C132.1 25.2 132.5 25.1 133 25L133.5 24.9L133.7 24.5C133.9 24.1 134.2 23.5 134.6 22.8C135 22.1 135.5 21.2 136.1 20.2C136.7 19.2 137.3 18.2 137.9 17.1C138.6 16 139.3 14.8 140 13.7C140.7 12.5 141.4 11.4 142.2 10.3C142.3 10.2 142.3 10.1 142.4 10C142.4 10.4 142.4 10.8 142.4 11.3C142.4 12.1 142.4 12.8 142.4 13.6V15.6L142.3 17.9C142.3 18.6 142.3 19.3 142.3 20C142.3 20.6 142.3 21.2 142.3 21.8V23C142.3 23.8 142.5 24.4 143 24.8C143.4 25.1 144 25.3 144.8 25.3C145.1 25.3 145.5 25.3 146 25.2C146.5 25.2 147.1 25 147.6 24.8L148.3 24.5L148.2 23.7C147.9 23.5 147.9 23.1 147.8 22.8Z" fill="#E2211C"/>
<path d="M168 0L166.8 0.4C166.2 0.6 165.2 0.8 164 0.8C162.7 0.8 161.1 0.9 159.3 0.9H157.3L155.3 0.8C154.6 0.8 153.9 0.8 153.3 0.8C152.6 0.8 152.1 0.8 151.5 0.8C150.7 0.8 150.1 1 149.7 1.5C149.4 1.9 149.2 2.4 149.2 3.1V3.8L149.4 5.9L150.2 6C150.5 6 151 6.1 151.5 6.1C152 6.1 152.5 6.2 153.2 6.2L156 6.3C156 7.2 156 8.2 155.9 9.3L155.8 18C155.8 19.4 155.8 20.6 155.8 21.7C155.8 22.2 155.8 22.6 155.8 23.1C155.8 23.6 155.9 23.9 156 24.3C156.2 24.7 156.5 25 156.8 25.3L156.9 25.4C157.3 25.6 157.8 25.7 158.4 25.7C158.7 25.7 159.1 25.7 159.6 25.6C160.1 25.6 160.6 25.5 161.1 25.4L162 25.2L161.9 24.3C161.9 24.1 161.8 23.8 161.8 23.5C161.8 23.3 161.7 23.1 161.7 22.8C161.7 22.5 161.7 22.3 161.7 22C161.7 21.6 161.7 21.1 161.7 20.5C161.7 19.8 161.7 19.2 161.7 18.6V15C161.7 13.5 161.7 12 161.7 10.3C161.7 9 161.7 7.6 161.7 6.3H163.8C164.3 6.3 164.7 6.3 165.2 6.2C165.6 6.2 166 6.2 166.3 6.1C166.6 6.1 167.7 6 168.2 5.2C168.4 4.8 168.6 4.2 168.6 3.5C168.6 3.2 168.6 3 168.6 2.6L168 0Z" fill="#E2211C"/>
<path d="M186.8 13.6C186.4 12.6 185.8 11.8 185 11.2C184.3 10.6 183.4 10.1 182.3 9.80001C180.5 9.20001 178.2 9.20001 176.4 9.50001C176.1 9.60001 175.7 9.60001 175.4 9.70001C175.4 8.60001 175.4 7.60001 175.4 6.70001C175.4 5.50001 175.4 4.40001 175.3 3.40001C175.3 3.10001 175.3 2.80001 175.2 2.60001C175.2 2.20001 175.1 1.90001 174.9 1.60001C174.7 1.30001 174.5 1.00001 174.2 0.900012C173.6 0.600012 172.7 0.700012 171.6 0.800012C171 0.900012 170.4 1.00001 169.7 1.20001L168.7 1.50001L169 2.50001C169.1 2.80001 169.2 3.10001 169.2 3.30001V3.40001C169.3 3.60001 169.3 3.80001 169.4 4.10001C169.5 4.30001 169.5 4.60001 169.6 5.00001C169.7 5.30001 169.7 5.60001 169.7 6.10001C169.8 6.60001 169.8 7.10001 169.8 7.60001C169.8 8.20001 169.9 8.70001 169.9 9.40001C169.9 10 169.9 10.6 169.9 11.3C169.9 11.9 169.9 12.5 169.9 13C169.9 14.7 169.9 16.4 169.8 18.3C169.7 20.1 169.6 21.9 169.5 23.6V24.3L170.2 24.6C170.8 24.8 171.4 25 172.1 25.1C172.7 25.2 173.4 25.4 174.3 25.5C175.1 25.6 176.1 25.6 177.1 25.6C178.6 25.6 179.9 25.5 181.1 25.2C182.4 24.9 183.5 24.4 184.4 23.7C185.3 23 186.1 22.1 186.6 21C187.1 19.9 187.4 18.6 187.4 17.1C187.5 15.6 187.2 14.5 186.8 13.6ZM181.6 17.2C181.6 17.8 181.5 18.3 181.3 18.6C181.1 19 180.9 19.3 180.5 19.5C180.2 19.8 179.7 20 179.2 20.1C178.7 20.2 178 20.3 177.4 20.3C176.9 20.3 176.5 20.3 176.1 20.2C175.8 20.2 175.5 20.1 175.2 20.1C175.2 19.6 175.3 19.1 175.3 18.6C175.3 17.9 175.4 17.1 175.4 16.3V14.6C175.6 14.5 175.9 14.5 176.2 14.4C176.7 14.3 177.4 14.2 178.3 14.2C179.4 14.2 180.3 14.4 180.8 14.9C181.4 15.5 181.6 16.2 181.6 17.2Z" fill="#E2211C"/>
</svg>
