<svg width="170" height="170" viewBox="0 0 170 170" fill="none" xmlns="http://www.w3.org/2000/svg">
<circle cx="85.0002" cy="85" r="67.069" transform="rotate(18.6569 85.0002 85)" fill="#E2211C"/>
<g clip-path="url(#clip0_249_505)">
<path d="M66.2688 71.4664H103.72C103.084 70.7095 102.492 69.9977 101.891 69.2913C98.627 65.4513 95.3609 61.6122 92.0948 57.7731C90.6556 56.0815 89.2127 54.3926 87.778 52.6964C86.8167 51.5591 87.1915 49.8444 88.5276 49.198C89.2154 48.8646 90.4677 48.9383 91.0755 49.6474C92.2219 50.9854 93.3664 52.3243 94.5082 53.666C96.9024 56.4765 99.2946 59.2889 101.686 62.1021C104.008 64.8334 106.357 67.5426 108.63 70.3153C109.312 71.1478 109.973 71.6184 111.112 71.506C112.357 71.3826 113.624 71.4756 114.881 71.4784C117.947 71.4849 120.46 73.5402 120.909 76.5745C121.09 77.8057 120.942 79.0839 120.96 80.3409C120.977 81.4164 120.649 82.3879 120.094 83.2895C119.279 84.6128 118.097 85.4544 116.622 85.9195C116.479 85.9646 116.302 86.1479 116.276 86.2915C115.714 89.5081 115.165 92.7265 114.624 95.9468C114.089 99.1376 113.573 102.331 113.036 105.521C112.494 108.742 111.97 111.966 111.377 115.178C110.823 118.186 108.167 120.623 105.134 120.959C104.437 121.037 103.725 120.983 103.02 120.983C90.7992 120.982 78.5791 120.983 66.3582 120.975C64.6795 120.974 63.2458 120.307 61.9622 119.264C60.3121 117.925 59.581 116.126 59.2081 114.086C58.5626 110.559 57.8268 107.049 57.1344 103.53C56.4779 100.194 55.8268 96.8557 55.1749 93.5185C54.7071 91.1242 54.2431 88.729 53.7734 86.3339C53.7274 86.1009 53.6261 85.971 53.3462 85.8928C50.6114 85.1275 48.9419 82.6136 49.0018 80.2442C49.0267 79.2634 49.0322 78.2809 49.0046 77.3001C48.9447 75.1103 50.5313 72.7013 52.7716 71.9379C53.5386 71.6764 54.3729 71.5327 55.1841 71.4968C56.7449 71.4287 58.3112 71.471 59.8757 71.4821C60.1703 71.4839 60.3821 71.4204 60.5847 71.1791C62.4088 69.0105 64.2477 66.8538 66.0828 64.6934C68.0571 62.3701 70.0322 60.0486 72.0064 57.7252C74.209 55.1339 76.4235 52.5518 78.6059 49.9439C79.244 49.1814 80.0239 48.8738 80.9622 49.0451C81.7688 49.1925 82.3324 49.7118 82.5994 50.5001C82.8637 51.281 82.7523 52.026 82.2182 52.6568C79.4079 55.9774 76.5847 59.2879 73.767 62.6031C71.3259 65.4743 68.8867 68.3465 66.4475 71.2196C66.4005 71.2749 66.3618 71.3375 66.2698 71.4655L66.2688 71.4664ZM58.3029 86.123C58.4631 86.9113 58.6151 87.6415 58.7596 88.3736C59.5745 92.5175 60.3876 96.6614 61.1998 100.806C62.0451 105.115 62.8987 109.423 63.7302 113.734C64.0801 115.546 65.2117 116.525 67.0303 116.525C76.0911 116.522 85.151 116.52 94.2117 116.518C97.4769 116.518 100.743 116.497 104.008 116.525C105.656 116.54 106.75 115.407 106.961 114.329C107.171 113.251 107.342 112.165 107.523 111.081C107.934 108.629 108.336 106.175 108.75 103.724C109.194 101.091 109.65 98.4608 110.097 95.828C110.52 93.3306 110.938 90.8332 111.355 88.3349C111.477 87.6056 111.591 86.8753 111.712 86.123H58.3038H58.3029ZM84.9539 81.6034V81.6052C94.8904 81.6052 104.827 81.5951 114.762 81.619C115.822 81.6218 116.538 80.9928 116.507 79.862C116.487 79.1262 116.507 78.3895 116.494 77.6538C116.476 76.5708 115.877 75.9851 114.796 75.9851C94.9235 75.9842 75.0515 75.9842 55.1786 75.9842C54.0819 75.9842 53.4806 76.5773 53.4659 77.686C53.4567 78.4218 53.4908 79.1585 53.464 79.8942C53.4235 81.0416 54.2173 81.6209 55.1906 81.6181C65.1114 81.5942 75.0322 81.6034 84.953 81.6034H84.9539Z" fill="white"/>
<path d="M72.5995 110.869C71.477 110.869 70.5378 110.078 70.3656 108.957C69.896 105.895 69.4374 102.831 68.9715 99.7684C68.6915 97.9276 68.3895 96.0895 68.1289 94.2459C67.954 93.011 68.8472 91.9401 70.1519 91.7541C71.2063 91.604 72.3858 92.4751 72.5589 93.5737C73.0028 96.3934 73.4227 99.2168 73.8573 102.037C74.1786 104.119 74.4972 106.2 74.8398 108.277C75.0589 109.606 73.9862 110.868 72.5995 110.869V110.869Z" fill="white"/>
<path d="M97.3444 110.874C95.9429 110.862 94.9134 109.584 95.14 108.208C95.5175 105.92 95.8536 103.625 96.2081 101.333C96.5341 99.2214 96.8619 97.1108 97.1888 94.9992C97.2588 94.5471 97.326 94.094 97.4015 93.6419C97.593 92.488 98.7081 91.6104 99.7937 91.755C101.11 91.93 102.002 92.9669 101.833 94.2248C101.568 96.2056 101.25 98.1799 100.949 100.156C100.63 102.253 100.303 104.348 99.9816 106.445C99.8517 107.289 99.7413 108.137 99.5995 108.98C99.4125 110.093 98.4595 110.883 97.3444 110.874Z" fill="white"/>
<path d="M87.2293 101.308C87.2293 103.684 87.2357 106.061 87.2265 108.437C87.2219 109.675 86.64 110.492 85.5838 110.797C84.2707 111.176 82.8582 110.276 82.7808 108.92C82.7007 107.514 82.7357 106.101 82.7339 104.691C82.7293 101.211 82.7403 97.7315 82.7274 94.2515C82.7238 93.2008 83.1151 92.4033 84.0801 91.9493C85.4383 91.3093 87.0995 92.2679 87.1971 93.7662C87.2551 94.6521 87.2302 95.5435 87.233 96.4321C87.2376 98.0574 87.2339 99.6819 87.2339 101.307H87.2284L87.2293 101.308Z" fill="white"/>
</g>
<defs>
<clipPath id="clip0_249_505">
<rect width="72" height="72" fill="white" transform="translate(49 49)"/>
</clipPath>
</defs>
</svg>
