<svg width="119" height="96" viewBox="0 0 119 96" fill="none" xmlns="http://www.w3.org/2000/svg">
<path d="M65.5255 72.2778C58.1098 78.6661 50.8735 84.8247 43.7084 91.0684C36.5821 97.2709 34.5822 97.3532 29.0075 89.7901C20.3421 78.0311 11.8492 66.1206 3.68991 54.004C-2.92532 44.1741 -0.291011 31.0622 9.1999 23.5132C18.0661 16.4553 29.896 17.5169 38.6257 26.0054C40.656 27.98 42.1395 32.284 46.7014 28.3003C43.6663 23.0715 40.8809 17.2898 44.2684 11.289C46.0506 8.13359 48.6783 4.98308 51.7161 3.10619C59.9999 -2.00829 67.8718 0.948888 77.823 12.291C81.2299 11.0518 84.7431 9.7362 88.2873 8.50696C97.9598 5.15775 108.04 7.89879 114.114 15.5009C119.992 22.8612 120.706 33.4472 114.289 41.6055C107.418 50.3418 99.3472 58.14 91.6965 66.2488C88.1112 70.0468 84.3096 73.6485 80.5495 77.2891C74.7578 82.8962 71.4139 82.4272 67.5206 75.5585C66.996 74.6282 66.4135 73.7351 65.533 72.2894L65.5255 72.2778ZM34.9639 90.9769C43.8608 82.7711 52.4128 75.3263 60.4335 67.3478C67.1807 60.6449 68.9302 52.1477 67.0506 42.8906C64.9172 32.3739 57.2654 28.5888 47.7838 33.7611C43.3415 36.1883 41.2478 35.8322 38.5893 31.0237C31.6886 18.5241 19.9997 16.677 10.3175 28.3546C3.86126 36.1461 3.48216 46.1259 9.0585 54.5054C16.2397 65.3044 23.7491 75.8763 31.1618 86.5266C32.0585 87.8066 33.1908 88.9189 34.9639 90.9769ZM74.7127 72.9435C77.383 70.3297 80.1103 67.7284 82.7624 65.0609C89.3748 58.4282 96.2658 52.0253 102.487 45.0387C111.041 35.4345 112.013 23.3244 105.039 14.9593C103.301 12.879 99.6785 10.5779 97.4681 11.0324C92.7237 12.0104 87.7324 13.9399 83.9437 16.8875C78.2713 21.3063 76.5203 21.3433 74.4685 14.6165C72.2828 7.45254 64.1656 1.59545 58.2701 2.92012C51.085 4.54141 45.8865 12.9151 47.2866 20.4853C48.1901 25.3498 50.5126 27.9951 55.966 28.107C68.1437 28.3485 71.8095 31.5946 74.6895 43.3487C76.3531 50.1203 75.8378 56.8358 72.3168 62.7181C69.5951 67.2614 70.9204 69.9584 74.6937 72.9394L74.7127 72.9435Z" fill="#FFDFBC"/>
</svg>
