<svg width="20" height="20" viewBox="0 0 20 20" fill="none" xmlns="http://www.w3.org/2000/svg">
<path d="M12.7398 15.3093C12.0176 16.5602 10.964 17.3712 9.57898 17.7423C8.19398 18.1134 6.87602 17.9379 5.62509 17.2157C4.37417 16.4934 3.56315 15.4398 3.19204 14.0548C2.82093 12.6698 2.99649 11.3519 3.71871 10.1009L7.57288 3.42533C8.09371 2.52322 8.85216 1.93872 9.84822 1.67182C10.8443 1.40493 11.7934 1.5319 12.6955 2.05273C13.5976 2.57357 14.1821 3.33201 14.449 4.32807C14.7159 5.32413 14.5889 6.27322 14.0681 7.17533L10.4222 13.4901C10.1028 14.0434 9.63951 14.4014 9.03238 14.5641C8.42526 14.7267 7.84505 14.6483 7.29176 14.3289C6.73847 14.0095 6.38048 13.5462 6.2178 12.9391C6.05512 12.3319 6.13351 11.7517 6.45295 11.1984L9.89045 5.24451C10.0085 5.04003 10.1766 4.90856 10.3948 4.8501C10.613 4.79163 10.8243 4.82143 11.0288 4.93949C11.2333 5.05754 11.3648 5.22566 11.4232 5.44385C11.4817 5.66203 11.4519 5.87336 11.3338 6.07784L7.89633 12.0318C7.80605 12.1881 7.78252 12.3469 7.82573 12.5082C7.86894 12.6695 7.96873 12.7953 8.12509 12.8855C8.28146 12.9758 8.44027 12.9993 8.60154 12.9561C8.76281 12.9129 8.88858 12.8131 8.97886 12.6568L12.6247 6.342C12.9043 5.82987 12.9734 5.30044 12.832 4.75371C12.6906 4.20698 12.3673 3.78778 11.8621 3.49611C11.357 3.20444 10.8293 3.13232 10.2791 3.27975C9.72885 3.42718 9.30792 3.75348 9.01625 4.25866L5.16209 10.9343C4.657 11.7813 4.53329 12.6762 4.79094 13.6188C5.0486 14.5614 5.60443 15.2792 6.45843 15.7723C7.30039 16.2584 8.18794 16.3739 9.12107 16.1188C10.0542 15.8637 10.7793 15.316 11.2964 14.4759L14.9423 8.16117C15.0603 7.9567 15.2284 7.82522 15.4466 7.76676C15.6648 7.7083 15.8761 7.7381 16.0806 7.85615C16.2851 7.97421 16.4166 8.14233 16.475 8.36051C16.5335 8.5787 16.5037 8.79003 16.3856 8.99451L12.7398 15.3093Z" fill="#661B00"/>
</svg>
